G04*
G04 #@! TF.GenerationSoftware,Altium Limited,Altium Designer,22.8.2 (66)*
G04*
G04 Layer_Physical_Order=4*
G04 Layer_Color=16776960*
%FSLAX25Y25*%
%MOIN*%
G70*
G04*
G04 #@! TF.SameCoordinates,268FDEF5-58AA-4C19-BA7F-D61DA105112B*
G04*
G04*
G04 #@! TF.FilePolarity,Positive*
G04*
G01*
G75*
%ADD16C,0.00787*%
%ADD23R,0.03937X0.03543*%
%ADD34R,0.03543X0.03937*%
%ADD35C,0.07795*%
%ADD36C,0.09055*%
%ADD40C,0.06299*%
%ADD47R,0.03543X0.03150*%
%ADD59C,0.01181*%
%ADD60C,0.01968*%
%ADD62C,0.03937*%
%ADD63C,0.08661*%
%ADD64C,0.07874*%
%ADD65R,0.06299X0.06299*%
%ADD66C,0.05906*%
%ADD67C,0.16142*%
%ADD68C,0.06000*%
%ADD69C,0.02362*%
%ADD70C,0.03937*%
%ADD71R,0.06299X0.12992*%
%ADD72R,0.06299X0.04724*%
%ADD73R,0.03150X0.02165*%
G36*
X547244Y389764D02*
Y389764D01*
X668087D01*
Y216535D01*
X649606D01*
Y198055D01*
X178369Y198055D01*
Y452756D01*
X213189D01*
Y450000D01*
X214837D01*
Y448622D01*
X213189D01*
Y443898D01*
X214122D01*
X214329Y443398D01*
X213899Y442968D01*
X213567Y442166D01*
Y441298D01*
X213899Y440497D01*
X214132Y440264D01*
X213925Y439764D01*
X212992D01*
Y437697D01*
X215748D01*
X218504D01*
Y439764D01*
X217571D01*
X217364Y440264D01*
X217597Y440497D01*
X217929Y441298D01*
Y442166D01*
X217597Y442968D01*
X217167Y443398D01*
X217374Y443898D01*
X218307D01*
Y448622D01*
X216659D01*
Y450000D01*
X218307D01*
Y452756D01*
X221063D01*
Y450000D01*
X222711D01*
Y448622D01*
X221063D01*
Y443898D01*
X221996D01*
X222203Y443398D01*
X221773Y442968D01*
X221441Y442166D01*
Y441298D01*
X221773Y440497D01*
X222006Y440264D01*
X221799Y439764D01*
X220866D01*
Y437697D01*
X223622D01*
X226378D01*
Y439764D01*
X225445D01*
X225238Y440264D01*
X225471Y440497D01*
X225803Y441298D01*
Y442166D01*
X225471Y442968D01*
X225041Y443398D01*
X225248Y443898D01*
X226181D01*
Y448622D01*
X224533D01*
Y450000D01*
X226181D01*
Y452756D01*
X228937D01*
Y450000D01*
X230585D01*
Y448622D01*
X228937D01*
Y443898D01*
X229870D01*
X230077Y443398D01*
X229647Y442968D01*
X229315Y442166D01*
Y441298D01*
X229647Y440497D01*
X229880Y440264D01*
X229673Y439764D01*
X228740D01*
Y437697D01*
X231496D01*
X234252D01*
Y439764D01*
X233319D01*
X233112Y440264D01*
X233345Y440497D01*
X233677Y441298D01*
Y442166D01*
X233345Y442968D01*
X232915Y443398D01*
X233122Y443898D01*
X234055D01*
Y448622D01*
X232407D01*
Y450000D01*
X234055D01*
Y452756D01*
X236811D01*
Y450000D01*
X238459D01*
Y448622D01*
X236811D01*
Y443898D01*
X237744D01*
X237951Y443398D01*
X237521Y442968D01*
X237189Y442166D01*
Y441298D01*
X237521Y440497D01*
X237754Y440264D01*
X237547Y439764D01*
X236614D01*
Y437697D01*
X239370D01*
X242126D01*
Y439764D01*
X241193D01*
X240986Y440264D01*
X241219Y440497D01*
X241551Y441298D01*
Y442166D01*
X241219Y442968D01*
X240789Y443398D01*
X240996Y443898D01*
X241929D01*
Y448622D01*
X240281D01*
Y450000D01*
X241929D01*
Y452756D01*
X244685D01*
Y450000D01*
X246333D01*
Y448622D01*
X244685D01*
Y443898D01*
X245618D01*
X245825Y443398D01*
X245395Y442968D01*
X245063Y442166D01*
Y441298D01*
X245395Y440497D01*
X245628Y440264D01*
X245421Y439764D01*
X244488D01*
Y437697D01*
X247244D01*
X250000D01*
Y439764D01*
X249067D01*
X248860Y440264D01*
X249093Y440497D01*
X249425Y441298D01*
Y442166D01*
X249093Y442968D01*
X248663Y443398D01*
X248870Y443898D01*
X249803D01*
Y448622D01*
X248155D01*
Y450000D01*
X249803D01*
Y452756D01*
X252559D01*
Y450000D01*
X254207D01*
Y448622D01*
X252559D01*
Y443898D01*
X253492D01*
X253699Y443398D01*
X253269Y442968D01*
X252937Y442166D01*
Y441298D01*
X253269Y440497D01*
X253502Y440264D01*
X253295Y439764D01*
X252362D01*
Y437697D01*
X255118D01*
X257874D01*
Y439764D01*
X256941D01*
X256734Y440264D01*
X256967Y440497D01*
X257299Y441298D01*
Y442166D01*
X256967Y442968D01*
X256537Y443398D01*
X256744Y443898D01*
X257677D01*
Y448622D01*
X256029D01*
Y450000D01*
X257677D01*
Y452756D01*
X260433D01*
Y450000D01*
X262081D01*
Y448622D01*
X260433D01*
Y443898D01*
X261366D01*
X261573Y443398D01*
X261143Y442968D01*
X260811Y442166D01*
Y441298D01*
X261143Y440497D01*
X261376Y440264D01*
X261169Y439764D01*
X260236D01*
Y437697D01*
X262992D01*
X265748D01*
Y439764D01*
X264815D01*
X264608Y440264D01*
X264841Y440497D01*
X265173Y441298D01*
Y442166D01*
X264841Y442968D01*
X264411Y443398D01*
X264618Y443898D01*
X265551D01*
Y448622D01*
X263903D01*
Y450000D01*
X265551D01*
Y452756D01*
X268307D01*
Y450000D01*
X269955D01*
Y448622D01*
X268307D01*
Y443898D01*
X269240D01*
X269447Y443398D01*
X269017Y442968D01*
X268685Y442166D01*
Y441298D01*
X269017Y440497D01*
X269250Y440264D01*
X269043Y439764D01*
X268110D01*
Y437697D01*
X270866D01*
X273622D01*
Y439764D01*
X272689D01*
X272482Y440264D01*
X272715Y440497D01*
X273047Y441298D01*
Y442166D01*
X272715Y442968D01*
X272285Y443398D01*
X272493Y443898D01*
X273425D01*
Y448622D01*
X271777D01*
Y450000D01*
X273425D01*
Y452756D01*
X276181D01*
Y450000D01*
X277829D01*
Y448622D01*
X276181D01*
Y443898D01*
X277114D01*
X277321Y443398D01*
X276891Y442968D01*
X276559Y442166D01*
Y441298D01*
X276891Y440497D01*
X277124Y440264D01*
X276917Y439764D01*
X275984D01*
Y437697D01*
X278740D01*
X281496D01*
Y439764D01*
X280563D01*
X280356Y440264D01*
X280589Y440497D01*
X280921Y441298D01*
Y442166D01*
X280589Y442968D01*
X280159Y443398D01*
X280366Y443898D01*
X281299D01*
Y448622D01*
X279651D01*
Y450000D01*
X281299D01*
Y452756D01*
X284055D01*
Y450000D01*
X285703D01*
Y448622D01*
X284055D01*
Y443898D01*
X284988D01*
X285195Y443398D01*
X284765Y442968D01*
X284433Y442166D01*
Y441298D01*
X284765Y440497D01*
X284998Y440264D01*
X284791Y439764D01*
X283858D01*
Y437697D01*
X286614D01*
X289370D01*
Y439764D01*
X288437D01*
X288230Y440264D01*
X288463Y440497D01*
X288795Y441298D01*
Y442166D01*
X288463Y442968D01*
X288033Y443398D01*
X288241Y443898D01*
X289173D01*
Y448622D01*
X287525D01*
Y450000D01*
X289173D01*
Y452756D01*
X291929D01*
Y450000D01*
X293577D01*
Y448622D01*
X291929D01*
Y443898D01*
X292862D01*
X293069Y443398D01*
X292639Y442968D01*
X292307Y442166D01*
Y441298D01*
X292639Y440497D01*
X292872Y440264D01*
X292665Y439764D01*
X291732D01*
Y437697D01*
X294488D01*
Y437205D01*
D01*
Y437697D01*
X297244D01*
Y439764D01*
X296311D01*
X296104Y440264D01*
X296337Y440497D01*
X296669Y441298D01*
Y442166D01*
X296337Y442968D01*
X295907Y443398D01*
X296114Y443898D01*
X297047D01*
Y448622D01*
X295399D01*
Y450000D01*
X297047D01*
Y452756D01*
X299803D01*
Y450000D01*
X301451D01*
Y448622D01*
X299803D01*
Y443898D01*
X300736D01*
X300943Y443398D01*
X300513Y442968D01*
X300181Y442166D01*
Y441298D01*
X300513Y440497D01*
X300746Y440264D01*
X300539Y439764D01*
X299606D01*
Y437697D01*
X302362D01*
X305118D01*
Y439764D01*
X304185D01*
X303978Y440264D01*
X304211Y440497D01*
X304543Y441298D01*
Y442166D01*
X304211Y442968D01*
X303781Y443398D01*
X303989Y443898D01*
X304921D01*
Y448622D01*
X303273D01*
Y450000D01*
X304921D01*
Y452756D01*
X307677D01*
Y450000D01*
X309325D01*
Y448622D01*
X307677D01*
Y443898D01*
X308610D01*
X308817Y443398D01*
X308387Y442968D01*
X308055Y442166D01*
Y441298D01*
X308387Y440497D01*
X308620Y440264D01*
X308413Y439764D01*
X307480D01*
Y437697D01*
X310236D01*
X312992D01*
Y439764D01*
X312059D01*
X311852Y440264D01*
X312085Y440497D01*
X312417Y441298D01*
Y442166D01*
X312085Y442968D01*
X311655Y443398D01*
X311862Y443898D01*
X312795D01*
Y448622D01*
X311147D01*
Y450000D01*
X312795D01*
Y452756D01*
X315551D01*
Y450000D01*
X317199D01*
Y448622D01*
X315551D01*
Y443898D01*
X316484D01*
X316691Y443398D01*
X316261Y442968D01*
X315929Y442166D01*
Y441298D01*
X316261Y440497D01*
X316494Y440264D01*
X316287Y439764D01*
X315354D01*
Y437697D01*
X318110D01*
X320866D01*
Y439764D01*
X319933D01*
X319726Y440264D01*
X319959Y440497D01*
X320291Y441298D01*
Y442166D01*
X319959Y442968D01*
X319529Y443398D01*
X319737Y443898D01*
X320669D01*
Y448622D01*
X319021D01*
Y450000D01*
X320669D01*
Y452756D01*
X471711D01*
X471918Y452256D01*
X471302Y451640D01*
X470613Y450446D01*
X470256Y449115D01*
Y447736D01*
X470613Y446404D01*
X471302Y445210D01*
X472277Y444235D01*
X473471Y443546D01*
X474803Y443189D01*
X476182D01*
X477513Y443546D01*
X478707Y444235D01*
X479682Y445210D01*
X480372Y446404D01*
X480728Y447736D01*
Y449115D01*
X480372Y450446D01*
X479682Y451640D01*
X479067Y452256D01*
X479274Y452756D01*
X484252D01*
X547244Y389764D01*
D02*
G37*
G36*
X668087Y414173D02*
X645669D01*
Y425197D01*
X637008Y429921D01*
X633071Y435827D01*
X632588D01*
X632532Y435883D01*
X631563Y436443D01*
X630481Y436732D01*
X629361D01*
X628280Y436443D01*
X627311Y435883D01*
X627254Y435827D01*
X603543D01*
X592520Y446850D01*
Y488189D01*
X178369D01*
Y549977D01*
X668087Y549977D01*
Y414173D01*
D02*
G37*
G36*
X591500Y446850D02*
X591578Y446460D01*
X591799Y446129D01*
X602822Y435106D01*
X603153Y434885D01*
X603543Y434807D01*
X622067D01*
X625669Y433040D01*
Y431920D01*
X625959Y430839D01*
X626519Y429870D01*
X627311Y429078D01*
X628280Y428518D01*
X629361Y428228D01*
X630481D01*
X631563Y428518D01*
X632532Y429078D01*
X636338Y429074D01*
X636520Y429026D01*
X644488Y424680D01*
Y408268D01*
X640764D01*
X640324Y408386D01*
X639204D01*
X638763Y408268D01*
X630922D01*
X630481Y408386D01*
X629361D01*
X628921Y408268D01*
X579134Y408268D01*
X570079Y417323D01*
Y429016D01*
X554331Y446339D01*
Y455512D01*
X591500D01*
Y446850D01*
D02*
G37*
%LPC*%
G36*
X320866Y436713D02*
X318602D01*
Y434646D01*
X320866D01*
Y436713D01*
D02*
G37*
G36*
X317618D02*
X315354D01*
Y434646D01*
X317618D01*
Y436713D01*
D02*
G37*
G36*
X312992D02*
X310728D01*
Y434646D01*
X312992D01*
Y436713D01*
D02*
G37*
G36*
X309744D02*
X307480D01*
Y434646D01*
X309744D01*
Y436713D01*
D02*
G37*
G36*
X305118D02*
X302854D01*
Y434646D01*
X305118D01*
Y436713D01*
D02*
G37*
G36*
X301870D02*
X299606D01*
Y434646D01*
X301870D01*
Y436713D01*
D02*
G37*
G36*
X297244D02*
X294980D01*
Y434646D01*
X297244D01*
Y436713D01*
D02*
G37*
G36*
X293996D02*
X291732D01*
Y434646D01*
X293996D01*
Y436713D01*
D02*
G37*
G36*
X289370D02*
X287106D01*
Y434646D01*
X289370D01*
Y436713D01*
D02*
G37*
G36*
X286122D02*
X283858D01*
Y434646D01*
X286122D01*
Y436713D01*
D02*
G37*
G36*
X281496D02*
X279232D01*
Y434646D01*
X281496D01*
Y436713D01*
D02*
G37*
G36*
X278248D02*
X275984D01*
Y434646D01*
X278248D01*
Y436713D01*
D02*
G37*
G36*
X273622D02*
X271358D01*
Y434646D01*
X273622D01*
Y436713D01*
D02*
G37*
G36*
X270374D02*
X268110D01*
Y434646D01*
X270374D01*
Y436713D01*
D02*
G37*
G36*
X265748D02*
X263484D01*
Y434646D01*
X265748D01*
Y436713D01*
D02*
G37*
G36*
X262500D02*
X260236D01*
Y434646D01*
X262500D01*
Y436713D01*
D02*
G37*
G36*
X257874D02*
X255610D01*
Y434646D01*
X257874D01*
Y436713D01*
D02*
G37*
G36*
X254626D02*
X252362D01*
Y434646D01*
X254626D01*
Y436713D01*
D02*
G37*
G36*
X250000D02*
X247736D01*
Y434646D01*
X250000D01*
Y436713D01*
D02*
G37*
G36*
X246752D02*
X244488D01*
Y434646D01*
X246752D01*
Y436713D01*
D02*
G37*
G36*
X242126D02*
X239862D01*
Y434646D01*
X242126D01*
Y436713D01*
D02*
G37*
G36*
X238878D02*
X236614D01*
Y434646D01*
X238878D01*
Y436713D01*
D02*
G37*
G36*
X234252D02*
X231988D01*
Y434646D01*
X234252D01*
Y436713D01*
D02*
G37*
G36*
X231004D02*
X228740D01*
Y434646D01*
X231004D01*
Y436713D01*
D02*
G37*
G36*
X226378D02*
X224114D01*
Y434646D01*
X226378D01*
Y436713D01*
D02*
G37*
G36*
X223130D02*
X220866D01*
Y434646D01*
X223130D01*
Y436713D01*
D02*
G37*
G36*
X218504D02*
X216240D01*
Y434646D01*
X218504D01*
Y436713D01*
D02*
G37*
G36*
X215256D02*
X212992D01*
Y434646D01*
X215256D01*
Y436713D01*
D02*
G37*
G36*
X331930Y432496D02*
X331062D01*
X330261Y432164D01*
X329647Y431551D01*
X329315Y430749D01*
Y429881D01*
X329647Y429079D01*
X330183Y428543D01*
X329647Y428007D01*
X329315Y427206D01*
Y426338D01*
X329647Y425536D01*
X330261Y424923D01*
X331062Y424590D01*
X331189D01*
X331283Y424450D01*
Y423582D01*
X331588Y422847D01*
X331464Y422639D01*
X331255Y422444D01*
X330749Y422653D01*
X329881D01*
X329080Y422322D01*
X328466Y421708D01*
X328134Y420906D01*
Y420039D01*
X328466Y419237D01*
X329080Y418623D01*
X329881Y418291D01*
X330008D01*
X330102Y418150D01*
Y417283D01*
X330374Y416626D01*
X329867Y416416D01*
X329253Y415802D01*
X328921Y415001D01*
Y414133D01*
X329253Y413331D01*
X329867Y412718D01*
X330374Y412508D01*
X330102Y411851D01*
Y410984D01*
X330374Y410327D01*
X329867Y410117D01*
X329253Y409503D01*
X328921Y408702D01*
Y407834D01*
X329253Y407032D01*
X329867Y406419D01*
X330668Y406087D01*
X331536D01*
X332338Y406419D01*
X332951Y407032D01*
X333283Y407834D01*
Y408702D01*
X333012Y409358D01*
X333519Y409568D01*
X334133Y410182D01*
X334465Y410984D01*
Y411851D01*
X334133Y412653D01*
X333519Y413266D01*
X333012Y413477D01*
X333283Y414133D01*
Y415001D01*
X333012Y415657D01*
X333519Y415868D01*
X334133Y416481D01*
X334465Y417283D01*
Y418150D01*
X334133Y418952D01*
X333519Y419565D01*
X332717Y419898D01*
X332590D01*
X332496Y420039D01*
Y420906D01*
X332192Y421641D01*
X332316Y421849D01*
X332525Y422044D01*
X333031Y421835D01*
X333898D01*
X334700Y422167D01*
X335314Y422780D01*
X335646Y423582D01*
Y424450D01*
X335314Y425251D01*
X334700Y425865D01*
X333898Y426197D01*
X333771D01*
X333677Y426338D01*
Y427206D01*
X333345Y428007D01*
X332809Y428543D01*
X333345Y429079D01*
X333677Y429881D01*
Y430749D01*
X333345Y431551D01*
X332732Y432164D01*
X331930Y432496D01*
D02*
G37*
G36*
X208243Y425716D02*
X207111D01*
X206018Y425423D01*
X205037Y424858D01*
X204237Y424057D01*
X203671Y423077D01*
X203378Y421983D01*
Y420851D01*
X203671Y419758D01*
X204237Y418778D01*
X205037Y417977D01*
X206018Y417411D01*
X207111Y417118D01*
X208243D01*
X209337Y417411D01*
X210317Y417977D01*
X211117Y418778D01*
X211683Y419758D01*
X211976Y420851D01*
Y421983D01*
X211683Y423077D01*
X211117Y424057D01*
X210317Y424858D01*
X209337Y425423D01*
X208243Y425716D01*
D02*
G37*
G36*
X431536Y420291D02*
X430668D01*
X429867Y419959D01*
X429253Y419346D01*
X428921Y418544D01*
Y417676D01*
X429253Y416875D01*
X429867Y416261D01*
X430668Y415929D01*
X431536D01*
X432338Y416261D01*
X432951Y416875D01*
X433284Y417676D01*
Y418544D01*
X432951Y419346D01*
X432338Y419959D01*
X431536Y420291D01*
D02*
G37*
G36*
X491831Y426102D02*
X490452D01*
X489121Y425745D01*
X487927Y425056D01*
X486952Y424081D01*
X486262Y422887D01*
X485906Y421556D01*
Y420177D01*
X486262Y418845D01*
X486952Y417651D01*
X487927Y416676D01*
X489121Y415987D01*
X490452Y415630D01*
X491831D01*
X493163Y415987D01*
X494357Y416676D01*
X495332Y417651D01*
X496021Y418845D01*
X496378Y420177D01*
Y421556D01*
X496021Y422887D01*
X495332Y424081D01*
X494357Y425056D01*
X493163Y425745D01*
X491831Y426102D01*
D02*
G37*
G36*
X386261Y415567D02*
X385393D01*
X384591Y415235D01*
X383978Y414621D01*
X383646Y413820D01*
Y412952D01*
X383978Y412150D01*
X384591Y411537D01*
X385393Y411205D01*
X386261D01*
X387062Y411537D01*
X387676Y412150D01*
X388008Y412952D01*
Y413820D01*
X387676Y414621D01*
X387062Y415235D01*
X386261Y415567D01*
D02*
G37*
G36*
X426812Y413205D02*
X425944D01*
X425142Y412873D01*
X424529Y412259D01*
X424197Y411457D01*
Y410590D01*
X424529Y409788D01*
X425142Y409175D01*
X425944Y408843D01*
X426812D01*
X427613Y409175D01*
X428227Y409788D01*
X428559Y410590D01*
Y411457D01*
X428227Y412259D01*
X427613Y412873D01*
X426812Y413205D01*
D02*
G37*
G36*
X295316Y424228D02*
X294448D01*
X293646Y423896D01*
X293033Y423283D01*
X292701Y422481D01*
Y421613D01*
X293033Y420812D01*
X293646Y420198D01*
X294448Y419866D01*
X294721Y419457D01*
X294669Y419332D01*
Y418464D01*
X294575Y418323D01*
X294054D01*
X293253Y417991D01*
X292639Y417377D01*
X292307Y416576D01*
Y415708D01*
X292639Y414906D01*
X293253Y414293D01*
X294054Y413961D01*
X294575D01*
X294669Y413820D01*
Y413273D01*
X294561Y412919D01*
X294207Y412811D01*
X293661D01*
X292859Y412479D01*
X292245Y411865D01*
X291913Y411064D01*
Y410196D01*
X292245Y409394D01*
X292859Y408781D01*
X293366Y408571D01*
X293094Y407914D01*
Y407047D01*
X293426Y406245D01*
X294040Y405631D01*
X294842Y405299D01*
X295709D01*
X296511Y405631D01*
X297125Y406245D01*
X297457Y407047D01*
Y407914D01*
X297125Y408716D01*
X296511Y409329D01*
X296004Y409540D01*
X296276Y410196D01*
Y410743D01*
X296384Y411097D01*
X296738Y411205D01*
X297284D01*
X298086Y411537D01*
X298699Y412150D01*
X299031Y412952D01*
Y413820D01*
X298699Y414621D01*
X298086Y415235D01*
X297284Y415567D01*
X296763D01*
X296669Y415708D01*
Y416576D01*
X296763Y416716D01*
X297284D01*
X298086Y417049D01*
X298699Y417662D01*
X299031Y418464D01*
Y419332D01*
X298699Y420133D01*
X298086Y420747D01*
X297284Y421079D01*
X297011Y421488D01*
X297063Y421613D01*
Y422481D01*
X296731Y423283D01*
X296117Y423896D01*
X295316Y424228D01*
D02*
G37*
G36*
X248465Y409661D02*
X247598D01*
X246796Y409329D01*
X246182Y408716D01*
X245850Y407914D01*
Y407046D01*
X246182Y406245D01*
X246796Y405631D01*
X247598Y405299D01*
X248465D01*
X249267Y405631D01*
X249881Y406245D01*
X250213Y407046D01*
Y407914D01*
X249881Y408716D01*
X249267Y409329D01*
X248465Y409661D01*
D02*
G37*
G36*
X283855Y410449D02*
X283074D01*
X282319Y410247D01*
X281642Y409856D01*
X281089Y409303D01*
X280698Y408626D01*
X280496Y407871D01*
Y407090D01*
X280698Y406334D01*
X281089Y405658D01*
X281642Y405105D01*
X282319Y404714D01*
X283074Y404512D01*
X283855D01*
X284610Y404714D01*
X285287Y405105D01*
X285840Y405658D01*
X286231Y406334D01*
X286433Y407090D01*
Y407871D01*
X286231Y408626D01*
X285840Y409303D01*
X285287Y409856D01*
X284610Y410247D01*
X283855Y410449D01*
D02*
G37*
G36*
X426812Y402575D02*
X425944D01*
X425142Y402243D01*
X424529Y401629D01*
X424197Y400828D01*
Y399960D01*
X424529Y399158D01*
X425142Y398545D01*
X425944Y398213D01*
X426812D01*
X427613Y398545D01*
X428227Y399158D01*
X428559Y399960D01*
Y400828D01*
X428227Y401629D01*
X427613Y402243D01*
X426812Y402575D01*
D02*
G37*
G36*
X208243Y405717D02*
X207111D01*
X206018Y405423D01*
X205037Y404857D01*
X204237Y404057D01*
X203671Y403077D01*
X203378Y401983D01*
Y400851D01*
X203671Y399758D01*
X204237Y398778D01*
X205037Y397977D01*
X206018Y397411D01*
X207111Y397118D01*
X208243D01*
X209337Y397411D01*
X210317Y397977D01*
X211117Y398778D01*
X211683Y399758D01*
X211976Y400851D01*
Y401983D01*
X211683Y403077D01*
X211117Y404057D01*
X210317Y404857D01*
X209337Y405423D01*
X208243Y405717D01*
D02*
G37*
G36*
X386261Y400606D02*
X385393D01*
X384591Y400274D01*
X383978Y399661D01*
X383646Y398859D01*
Y397991D01*
X383978Y397190D01*
X384591Y396576D01*
X385393Y396244D01*
X386261D01*
X387062Y396576D01*
X387676Y397190D01*
X388008Y397991D01*
Y398859D01*
X387676Y399661D01*
X387062Y400274D01*
X386261Y400606D01*
D02*
G37*
G36*
X379525Y399819D02*
X378743D01*
X377988Y399617D01*
X377311Y399226D01*
X376759Y398673D01*
X376368Y397996D01*
X376165Y397241D01*
Y396460D01*
X376368Y395705D01*
X376759Y395028D01*
X377311Y394475D01*
X377988Y394084D01*
X378743Y393882D01*
X379525D01*
X380280Y394084D01*
X380957Y394475D01*
X381509Y395028D01*
X381900Y395705D01*
X382102Y396460D01*
Y397241D01*
X381900Y397996D01*
X381509Y398673D01*
X380957Y399226D01*
X380280Y399617D01*
X379525Y399819D01*
D02*
G37*
G36*
X431536Y395488D02*
X430668D01*
X429867Y395156D01*
X429253Y394543D01*
X428921Y393741D01*
Y392873D01*
X429253Y392072D01*
X429867Y391458D01*
X430668Y391126D01*
X431536D01*
X432338Y391458D01*
X432951Y392072D01*
X433284Y392873D01*
Y393741D01*
X432951Y394543D01*
X432338Y395156D01*
X431536Y395488D01*
D02*
G37*
G36*
X342560Y390370D02*
X341692D01*
X340891Y390038D01*
X340354Y389502D01*
X339818Y390038D01*
X339017Y390370D01*
X338149D01*
X337347Y390038D01*
X336734Y389424D01*
X336402Y388623D01*
Y387755D01*
X336734Y386953D01*
X337347Y386340D01*
X338149Y386008D01*
X339017D01*
X339818Y386340D01*
X340354Y386876D01*
X340891Y386340D01*
X341692Y386008D01*
X342560D01*
X343361Y386340D01*
X343975Y386953D01*
X344307Y387755D01*
Y388623D01*
X343975Y389424D01*
X343361Y390038D01*
X342560Y390370D01*
D02*
G37*
G36*
X327599Y385646D02*
X326731D01*
X325930Y385314D01*
X325316Y384700D01*
X324984Y383898D01*
Y383031D01*
X325316Y382229D01*
X325930Y381615D01*
X326731Y381283D01*
X327599D01*
X328401Y381615D01*
X329014Y382229D01*
X329346Y383031D01*
Y383898D01*
X329014Y384700D01*
X328401Y385314D01*
X327599Y385646D01*
D02*
G37*
G36*
X253934Y387221D02*
X253152D01*
X252397Y387018D01*
X251721Y386627D01*
X251168Y386075D01*
X250777Y385398D01*
X250575Y384643D01*
Y383861D01*
X250777Y383106D01*
X251168Y382429D01*
X251721Y381877D01*
X252397Y381486D01*
X253152Y381283D01*
X253934D01*
X254689Y381486D01*
X255366Y381877D01*
X255919Y382429D01*
X256310Y383106D01*
X256512Y383861D01*
Y384643D01*
X256310Y385398D01*
X255919Y386075D01*
X255366Y386627D01*
X254689Y387018D01*
X253934Y387221D01*
D02*
G37*
G36*
X660009Y388701D02*
X658889D01*
X657808Y388411D01*
X656838Y387851D01*
X656046Y387060D01*
X655487Y386090D01*
X655197Y385009D01*
Y383889D01*
X655487Y382808D01*
X656046Y381838D01*
X656838Y381046D01*
X657808Y380487D01*
X658889Y380197D01*
X660009D01*
X661090Y380487D01*
X662060Y381046D01*
X662851Y381838D01*
X663411Y382808D01*
X663701Y383889D01*
Y385009D01*
X663411Y386090D01*
X662851Y387060D01*
X662060Y387851D01*
X661090Y388411D01*
X660009Y388701D01*
D02*
G37*
G36*
X650166D02*
X649047D01*
X647965Y388411D01*
X646995Y387851D01*
X646204Y387060D01*
X645644Y386090D01*
X645354Y385009D01*
Y383889D01*
X645644Y382808D01*
X646204Y381838D01*
X646995Y381046D01*
X647965Y380487D01*
X649047Y380197D01*
X650166D01*
X651248Y380487D01*
X652217Y381046D01*
X653009Y381838D01*
X653569Y382808D01*
X653858Y383889D01*
Y385009D01*
X653569Y386090D01*
X653009Y387060D01*
X652217Y387851D01*
X651248Y388411D01*
X650166Y388701D01*
D02*
G37*
G36*
X640324D02*
X639204D01*
X638123Y388411D01*
X637153Y387851D01*
X636361Y387060D01*
X635802Y386090D01*
X635512Y385009D01*
Y383889D01*
X635802Y382808D01*
X636361Y381838D01*
X637153Y381046D01*
X638123Y380487D01*
X639204Y380197D01*
X640324D01*
X641405Y380487D01*
X642375Y381046D01*
X643166Y381838D01*
X643726Y382808D01*
X644016Y383889D01*
Y385009D01*
X643726Y386090D01*
X643166Y387060D01*
X642375Y387851D01*
X641405Y388411D01*
X640324Y388701D01*
D02*
G37*
G36*
X630481D02*
X629361D01*
X628280Y388411D01*
X627311Y387851D01*
X626519Y387060D01*
X625959Y386090D01*
X625669Y385009D01*
Y383889D01*
X625959Y382808D01*
X626519Y381838D01*
X627311Y381046D01*
X628280Y380487D01*
X629361Y380197D01*
X630481D01*
X631563Y380487D01*
X632532Y381046D01*
X633324Y381838D01*
X633883Y382808D01*
X634173Y383889D01*
Y385009D01*
X633883Y386090D01*
X633324Y387060D01*
X632532Y387851D01*
X631563Y388411D01*
X630481Y388701D01*
D02*
G37*
G36*
X583661Y376969D02*
X581004D01*
Y375098D01*
X583661D01*
Y376969D01*
D02*
G37*
G36*
X578051D02*
X575394D01*
Y375098D01*
X578051D01*
Y376969D01*
D02*
G37*
G36*
X259883Y376590D02*
X259015D01*
X258213Y376258D01*
X257600Y375645D01*
X257268Y374843D01*
Y373976D01*
X257600Y373174D01*
X258213Y372560D01*
X258682Y372366D01*
X258583Y371866D01*
X258228D01*
X257426Y371534D01*
X256812Y370920D01*
X256480Y370119D01*
Y369251D01*
X256812Y368449D01*
X257426Y367836D01*
X258228Y367504D01*
X259095D01*
X259897Y367836D01*
X260510Y368449D01*
X260842Y369251D01*
Y370119D01*
X260510Y370920D01*
X259897Y371534D01*
X259428Y371728D01*
X259527Y372228D01*
X259883D01*
X260311Y372406D01*
X260774Y372401D01*
X260913Y372155D01*
X261143Y371599D01*
X261757Y370986D01*
X262558Y370654D01*
X263426D01*
X264228Y370986D01*
X264841Y371599D01*
X265173Y372401D01*
Y373269D01*
X264841Y374070D01*
X264228Y374684D01*
X263426Y375016D01*
X262558D01*
X262130Y374838D01*
X261667Y374843D01*
X261528Y375089D01*
X261298Y375645D01*
X260684Y376258D01*
X259883Y376590D01*
D02*
G37*
G36*
X660009Y378858D02*
X658889D01*
X657808Y378569D01*
X656838Y378009D01*
X656046Y377217D01*
X655487Y376248D01*
X655197Y375166D01*
Y374046D01*
X655487Y372965D01*
X656046Y371995D01*
X656838Y371204D01*
X657808Y370644D01*
X658889Y370354D01*
X660009D01*
X661090Y370644D01*
X662060Y371204D01*
X662851Y371995D01*
X663411Y372965D01*
X663701Y374046D01*
Y375166D01*
X663411Y376248D01*
X662851Y377217D01*
X662060Y378009D01*
X661090Y378569D01*
X660009Y378858D01*
D02*
G37*
G36*
X650166D02*
X649047D01*
X647965Y378569D01*
X646995Y378009D01*
X646204Y377217D01*
X645644Y376248D01*
X645354Y375166D01*
Y374046D01*
X645644Y372965D01*
X646204Y371995D01*
X646995Y371204D01*
X647965Y370644D01*
X649047Y370354D01*
X650166D01*
X651248Y370644D01*
X652217Y371204D01*
X653009Y371995D01*
X653569Y372965D01*
X653858Y374046D01*
Y375166D01*
X653569Y376248D01*
X653009Y377217D01*
X652217Y378009D01*
X651248Y378569D01*
X650166Y378858D01*
D02*
G37*
G36*
X640324D02*
X639204D01*
X638123Y378569D01*
X637153Y378009D01*
X636361Y377217D01*
X635802Y376248D01*
X635512Y375166D01*
Y374046D01*
X635802Y372965D01*
X636361Y371995D01*
X637153Y371204D01*
X638123Y370644D01*
X639204Y370354D01*
X640324D01*
X641405Y370644D01*
X642375Y371204D01*
X643166Y371995D01*
X643726Y372965D01*
X644016Y374046D01*
Y375166D01*
X643726Y376248D01*
X643166Y377217D01*
X642375Y378009D01*
X641405Y378569D01*
X640324Y378858D01*
D02*
G37*
G36*
X630481D02*
X629361D01*
X628280Y378569D01*
X627311Y378009D01*
X626519Y377217D01*
X625959Y376248D01*
X625669Y375166D01*
Y374046D01*
X625959Y372965D01*
X626519Y371995D01*
X627311Y371204D01*
X628280Y370644D01*
X629361Y370354D01*
X630481D01*
X631563Y370644D01*
X632532Y371204D01*
X633324Y371995D01*
X633883Y372965D01*
X634173Y374046D01*
Y375166D01*
X633883Y376248D01*
X633324Y377217D01*
X632532Y378009D01*
X631563Y378569D01*
X630481Y378858D01*
D02*
G37*
G36*
X583661Y372146D02*
X581004D01*
Y370276D01*
X583661D01*
Y372146D01*
D02*
G37*
G36*
X578051D02*
X575394D01*
Y370276D01*
X578051D01*
Y372146D01*
D02*
G37*
G36*
X608661Y371850D02*
X600787D01*
Y367084D01*
X583464D01*
Y367717D01*
X575591D01*
Y361417D01*
X583464D01*
Y362050D01*
X600787D01*
Y357283D01*
X608661D01*
Y362247D01*
X626465D01*
X626519Y362153D01*
X627311Y361361D01*
X628280Y360802D01*
X629361Y360512D01*
X630481D01*
X631563Y360802D01*
X632532Y361361D01*
X633324Y362153D01*
X633883Y363123D01*
X634173Y364204D01*
Y365324D01*
X633883Y366405D01*
X633324Y367374D01*
X632532Y368166D01*
X631563Y368726D01*
X630481Y369016D01*
X629361D01*
X628280Y368726D01*
X627311Y368166D01*
X626519Y367374D01*
X626465Y367281D01*
X608661D01*
Y371850D01*
D02*
G37*
G36*
X267757Y371079D02*
X266889D01*
X266087Y370747D01*
X265474Y370133D01*
X265142Y369332D01*
Y368464D01*
X265474Y367662D01*
X266087Y367049D01*
X266889Y366717D01*
X267757D01*
X268558Y367049D01*
X269172Y367662D01*
X269504Y368464D01*
Y369332D01*
X269172Y370133D01*
X268558Y370747D01*
X267757Y371079D01*
D02*
G37*
G36*
X229995Y370905D02*
X228824D01*
X227692Y370602D01*
X226678Y370017D01*
X225850Y369188D01*
X225264Y368174D01*
X224961Y367042D01*
Y365871D01*
X225264Y364739D01*
X225850Y363725D01*
X226678Y362897D01*
X227692Y362311D01*
X228824Y362008D01*
X229995D01*
X231127Y362311D01*
X232141Y362897D01*
X232969Y363725D01*
X233555Y364739D01*
X233858Y365871D01*
Y367042D01*
X233555Y368174D01*
X232969Y369188D01*
X232141Y370017D01*
X231127Y370602D01*
X229995Y370905D01*
D02*
G37*
G36*
X660009Y369016D02*
X658889D01*
X657808Y368726D01*
X656838Y368166D01*
X656046Y367374D01*
X655487Y366405D01*
X655197Y365324D01*
Y364204D01*
X655487Y363123D01*
X656046Y362153D01*
X656838Y361361D01*
X657808Y360802D01*
X658889Y360512D01*
X660009D01*
X661090Y360802D01*
X662060Y361361D01*
X662851Y362153D01*
X663411Y363123D01*
X663701Y364204D01*
Y365324D01*
X663411Y366405D01*
X662851Y367374D01*
X662060Y368166D01*
X661090Y368726D01*
X660009Y369016D01*
D02*
G37*
G36*
X650166D02*
X649047D01*
X647965Y368726D01*
X646995Y368166D01*
X646204Y367374D01*
X645644Y366405D01*
X645354Y365324D01*
Y364204D01*
X645644Y363123D01*
X646204Y362153D01*
X646995Y361361D01*
X647965Y360802D01*
X649047Y360512D01*
X650166D01*
X651248Y360802D01*
X652217Y361361D01*
X653009Y362153D01*
X653569Y363123D01*
X653858Y364204D01*
Y365324D01*
X653569Y366405D01*
X653009Y367374D01*
X652217Y368166D01*
X651248Y368726D01*
X650166Y369016D01*
D02*
G37*
G36*
X640324D02*
X639204D01*
X638123Y368726D01*
X637153Y368166D01*
X636361Y367374D01*
X635802Y366405D01*
X635512Y365324D01*
Y364204D01*
X635802Y363123D01*
X636361Y362153D01*
X637153Y361361D01*
X638123Y360802D01*
X639204Y360512D01*
X640324D01*
X641405Y360802D01*
X642375Y361361D01*
X643166Y362153D01*
X643726Y363123D01*
X644016Y364204D01*
Y365324D01*
X643726Y366405D01*
X643166Y367374D01*
X642375Y368166D01*
X641405Y368726D01*
X640324Y369016D01*
D02*
G37*
G36*
X377559Y379921D02*
X354331D01*
Y358001D01*
X353869Y357810D01*
X353791Y357887D01*
X353114Y358278D01*
X352359Y358480D01*
X351578D01*
X350823Y358278D01*
X350146Y357887D01*
X349593Y357334D01*
X349202Y356658D01*
X349000Y355903D01*
Y355121D01*
X349202Y354366D01*
X349593Y353689D01*
X350146Y353136D01*
X350823Y352746D01*
X351578Y352543D01*
X352359D01*
X353114Y352746D01*
X353791Y353136D01*
X353869Y353214D01*
X354331Y353023D01*
Y352362D01*
X377559D01*
Y379921D01*
D02*
G37*
G36*
X583464Y358661D02*
X575591D01*
Y356624D01*
X573819D01*
Y358268D01*
X568701D01*
Y352756D01*
X573819D01*
Y354400D01*
X575591D01*
Y352362D01*
X583464D01*
Y358661D01*
D02*
G37*
G36*
X554937Y354248D02*
X552862D01*
Y352665D01*
X554937D01*
Y354248D01*
D02*
G37*
G36*
X551862D02*
X549787D01*
Y352665D01*
X551862D01*
Y354248D01*
D02*
G37*
G36*
X279174Y361236D02*
X278306D01*
X277505Y360904D01*
X276891Y360291D01*
X276559Y359489D01*
Y358621D01*
X276891Y357820D01*
X277505Y357206D01*
X278090Y356963D01*
Y356422D01*
X277505Y356180D01*
X276891Y355566D01*
X276559Y354765D01*
Y353897D01*
X276891Y353095D01*
X277505Y352482D01*
X278306Y352150D01*
X279174D01*
X279976Y352482D01*
X280589Y353095D01*
X280921Y353897D01*
Y354765D01*
X280589Y355566D01*
X279976Y356180D01*
X279390Y356422D01*
Y356963D01*
X279976Y357206D01*
X280589Y357820D01*
X280921Y358621D01*
Y359489D01*
X280589Y360291D01*
X279976Y360904D01*
X279174Y361236D01*
D02*
G37*
G36*
X229995Y360906D02*
X228824D01*
X227692Y360602D01*
X226678Y360017D01*
X225850Y359188D01*
X225264Y358174D01*
X224961Y357042D01*
Y355871D01*
X225264Y354739D01*
X225850Y353725D01*
X226678Y352897D01*
X227692Y352311D01*
X228824Y352008D01*
X229995D01*
X231127Y352311D01*
X232141Y352897D01*
X232969Y353725D01*
X233555Y354739D01*
X233858Y355871D01*
Y357042D01*
X233555Y358174D01*
X232969Y359188D01*
X232141Y360017D01*
X231127Y360602D01*
X229995Y360906D01*
D02*
G37*
G36*
X219995D02*
X218824D01*
X217692Y360602D01*
X216678Y360017D01*
X215849Y359188D01*
X215264Y358174D01*
X214961Y357042D01*
Y355871D01*
X215264Y354739D01*
X215849Y353725D01*
X216678Y352897D01*
X217692Y352311D01*
X218824Y352008D01*
X219995D01*
X221127Y352311D01*
X222141Y352897D01*
X222969Y353725D01*
X223555Y354739D01*
X223858Y355871D01*
Y357042D01*
X223555Y358174D01*
X222969Y359188D01*
X222141Y360017D01*
X221127Y360602D01*
X219995Y360906D01*
D02*
G37*
G36*
X548244Y353854D02*
X545776D01*
Y351583D01*
X548244D01*
Y353854D01*
D02*
G37*
G36*
X544776D02*
X542307D01*
Y351583D01*
X544776D01*
Y353854D01*
D02*
G37*
G36*
X537835Y355724D02*
X536968D01*
X536166Y355392D01*
X535553Y354779D01*
X535220Y353977D01*
Y353110D01*
X535553Y352308D01*
X536166Y351694D01*
X536968Y351362D01*
X537835D01*
X538637Y351694D01*
X539251Y352308D01*
X539583Y353110D01*
Y353977D01*
X539251Y354779D01*
X538637Y355392D01*
X537835Y355724D01*
D02*
G37*
G36*
X660009Y359173D02*
X658889D01*
X657808Y358884D01*
X656838Y358324D01*
X656046Y357532D01*
X655487Y356562D01*
X655197Y355481D01*
Y354362D01*
X655487Y353280D01*
X656046Y352310D01*
X656838Y351519D01*
X657808Y350959D01*
X658889Y350669D01*
X660009D01*
X661090Y350959D01*
X662060Y351519D01*
X662851Y352310D01*
X663411Y353280D01*
X663701Y354362D01*
Y355481D01*
X663411Y356562D01*
X662851Y357532D01*
X662060Y358324D01*
X661090Y358884D01*
X660009Y359173D01*
D02*
G37*
G36*
X650166D02*
X649047D01*
X647965Y358884D01*
X646995Y358324D01*
X646204Y357532D01*
X645644Y356562D01*
X645354Y355481D01*
Y354362D01*
X645644Y353280D01*
X646204Y352310D01*
X646995Y351519D01*
X647965Y350959D01*
X649047Y350669D01*
X650166D01*
X651248Y350959D01*
X652217Y351519D01*
X653009Y352310D01*
X653569Y353280D01*
X653858Y354362D01*
Y355481D01*
X653569Y356562D01*
X653009Y357532D01*
X652217Y358324D01*
X651248Y358884D01*
X650166Y359173D01*
D02*
G37*
G36*
X640324D02*
X639204D01*
X638123Y358884D01*
X637153Y358324D01*
X636361Y357532D01*
X635802Y356562D01*
X635512Y355481D01*
Y354362D01*
X635802Y353280D01*
X636361Y352310D01*
X637153Y351519D01*
X638123Y350959D01*
X639204Y350669D01*
X640324D01*
X641405Y350959D01*
X642375Y351519D01*
X643166Y352310D01*
X643726Y353280D01*
X644016Y354362D01*
Y355481D01*
X643726Y356562D01*
X643166Y357532D01*
X642375Y358324D01*
X641405Y358884D01*
X640324Y359173D01*
D02*
G37*
G36*
X630481D02*
X629361D01*
X628280Y358884D01*
X627311Y358324D01*
X626519Y357532D01*
X625959Y356562D01*
X625669Y355481D01*
Y354362D01*
X625959Y353280D01*
X626519Y352310D01*
X627311Y351519D01*
X628280Y350959D01*
X629361Y350669D01*
X630481D01*
X631563Y350959D01*
X632532Y351519D01*
X633324Y352310D01*
X633883Y353280D01*
X634173Y354362D01*
Y355481D01*
X633883Y356562D01*
X633324Y357532D01*
X632532Y358324D01*
X631563Y358884D01*
X630481Y359173D01*
D02*
G37*
G36*
X564173Y354035D02*
X559449D01*
Y350795D01*
X559449Y350295D01*
X559449Y349728D01*
X558949Y349629D01*
X558936Y349661D01*
X558322Y350274D01*
X557520Y350606D01*
X556653D01*
X555851Y350274D01*
X555526Y349949D01*
X554941Y350072D01*
X554937Y350083D01*
X554937Y350083D01*
X554937Y350083D01*
Y351665D01*
X552362D01*
X549787D01*
Y350083D01*
X550000D01*
Y347055D01*
X550000Y346555D01*
X549654Y346198D01*
X548388D01*
X548118Y346378D01*
X548032Y346396D01*
Y348311D01*
X548244D01*
Y350583D01*
X542307D01*
Y348311D01*
X542520D01*
Y343209D01*
X543762D01*
Y341924D01*
X543453Y341745D01*
X542900Y341193D01*
X542509Y340516D01*
X542307Y339761D01*
Y338979D01*
X542509Y338224D01*
X542900Y337547D01*
X543453Y336995D01*
X544130Y336604D01*
X544885Y336402D01*
X545666D01*
X546421Y336604D01*
X547098Y336995D01*
X547651Y337547D01*
X548042Y338224D01*
X548244Y338979D01*
Y339761D01*
X548042Y340516D01*
X547651Y341193D01*
X547098Y341745D01*
X546789Y341924D01*
Y343209D01*
X547649D01*
X547835Y343172D01*
X550000D01*
Y342815D01*
X554724D01*
Y346055D01*
X554724Y346555D01*
X554724Y347122D01*
X555224Y347221D01*
X555238Y347190D01*
X555851Y346576D01*
X556653Y346244D01*
X557520D01*
X558322Y346576D01*
X558936Y347190D01*
X558949Y347221D01*
X559449Y347122D01*
X559449Y346555D01*
X559449Y346055D01*
Y342815D01*
X564173D01*
Y343691D01*
X564500Y343756D01*
X564861Y343997D01*
X568177Y347313D01*
X568701D01*
Y345669D01*
X573819D01*
Y351181D01*
X568701D01*
Y349537D01*
X568177D01*
X564861Y352853D01*
X564500Y353094D01*
X564173Y353159D01*
Y354035D01*
D02*
G37*
G36*
X537835Y350606D02*
X536968D01*
X536166Y350274D01*
X535553Y349661D01*
X535220Y348859D01*
Y347991D01*
X535553Y347190D01*
X536166Y346576D01*
X536968Y346244D01*
X537835D01*
X538637Y346576D01*
X539251Y347190D01*
X539583Y347991D01*
Y348859D01*
X539251Y349661D01*
X538637Y350274D01*
X537835Y350606D01*
D02*
G37*
G36*
X325237Y346669D02*
X324369D01*
X323568Y346337D01*
X323161Y345931D01*
X322835Y345779D01*
X322508Y345931D01*
X322102Y346337D01*
X321300Y346669D01*
X320432D01*
X319631Y346337D01*
X319017Y345724D01*
X318685Y344922D01*
Y344054D01*
X319017Y343253D01*
X319631Y342639D01*
X320432Y342307D01*
X321300D01*
X322102Y342639D01*
X322508Y343045D01*
X322835Y343197D01*
X323161Y343045D01*
X323568Y342639D01*
X324369Y342307D01*
X325237D01*
X326039Y342639D01*
X326652Y343253D01*
X326984Y344054D01*
Y344922D01*
X326652Y345724D01*
X326039Y346337D01*
X325237Y346669D01*
D02*
G37*
G36*
X313032Y352969D02*
X312165D01*
X311363Y352637D01*
X310749Y352023D01*
X310417Y351221D01*
Y350354D01*
X310749Y349552D01*
X311363Y348938D01*
X311523Y348872D01*
Y348372D01*
X311363Y348306D01*
X310749Y347692D01*
X310417Y346890D01*
Y346023D01*
X310749Y345221D01*
X311363Y344608D01*
X312165Y344276D01*
X313032D01*
X313834Y344608D01*
X314447Y345221D01*
X314779Y346023D01*
Y346890D01*
X314447Y347692D01*
X313834Y348306D01*
X313674Y348372D01*
Y348872D01*
X313834Y348938D01*
X314447Y349552D01*
X314779Y350354D01*
Y351221D01*
X314447Y352023D01*
X313834Y352637D01*
X313032Y352969D01*
D02*
G37*
G36*
X308308Y347063D02*
X307440D01*
X306639Y346731D01*
X306025Y346117D01*
X305693Y345316D01*
Y344448D01*
X306025Y343646D01*
X306639Y343033D01*
X307440Y342701D01*
X308308D01*
X309109Y343033D01*
X309723Y343646D01*
X310055Y344448D01*
Y345316D01*
X309723Y346117D01*
X309109Y346731D01*
X308308Y347063D01*
D02*
G37*
G36*
X295709Y346669D02*
X294842D01*
X294040Y346337D01*
X293426Y345724D01*
X293094Y344922D01*
Y344054D01*
X293426Y343253D01*
X294040Y342639D01*
X294842Y342307D01*
X295709D01*
X296511Y342639D01*
X297125Y343253D01*
X297457Y344054D01*
Y344922D01*
X297125Y345724D01*
X296511Y346337D01*
X295709Y346669D01*
D02*
G37*
G36*
X229995Y350905D02*
X228824D01*
X227692Y350602D01*
X226678Y350017D01*
X225850Y349188D01*
X225264Y348174D01*
X224961Y347042D01*
Y345871D01*
X225264Y344740D01*
X225850Y343725D01*
X226678Y342897D01*
X227692Y342311D01*
X228824Y342008D01*
X229995D01*
X231127Y342311D01*
X232141Y342897D01*
X232969Y343725D01*
X233555Y344740D01*
X233858Y345871D01*
Y347042D01*
X233555Y348174D01*
X232969Y349188D01*
X232141Y350017D01*
X231127Y350602D01*
X229995Y350905D01*
D02*
G37*
G36*
X219995D02*
X218824D01*
X217692Y350602D01*
X216678Y350017D01*
X215849Y349188D01*
X215264Y348174D01*
X214961Y347042D01*
Y345871D01*
X215264Y344740D01*
X215849Y343725D01*
X216678Y342897D01*
X217692Y342311D01*
X218824Y342008D01*
X219995D01*
X221127Y342311D01*
X222141Y342897D01*
X222969Y343725D01*
X223555Y344740D01*
X223858Y345871D01*
Y347042D01*
X223555Y348174D01*
X222969Y349188D01*
X222141Y350017D01*
X221127Y350602D01*
X219995Y350905D01*
D02*
G37*
G36*
X650166Y349331D02*
X649047D01*
X647965Y349041D01*
X646995Y348481D01*
X646204Y347690D01*
X645644Y346720D01*
X645354Y345638D01*
Y344519D01*
X645644Y343438D01*
X646204Y342468D01*
X646995Y341676D01*
X647965Y341117D01*
X649047Y340827D01*
X650166D01*
X651248Y341117D01*
X652217Y341676D01*
X653009Y342468D01*
X653569Y343438D01*
X653858Y344519D01*
Y345638D01*
X653569Y346720D01*
X653009Y347690D01*
X652217Y348481D01*
X651248Y349041D01*
X650166Y349331D01*
D02*
G37*
G36*
X640324D02*
X639204D01*
X638123Y349041D01*
X637153Y348481D01*
X636361Y347690D01*
X635802Y346720D01*
X635512Y345638D01*
Y344519D01*
X635802Y343438D01*
X636361Y342468D01*
X637153Y341676D01*
X638123Y341117D01*
X639204Y340827D01*
X640324D01*
X641405Y341117D01*
X642375Y341676D01*
X643166Y342468D01*
X643726Y343438D01*
X644016Y344519D01*
Y345638D01*
X643726Y346720D01*
X643166Y347690D01*
X642375Y348481D01*
X641405Y349041D01*
X640324Y349331D01*
D02*
G37*
G36*
X630481D02*
X629361D01*
X628280Y349041D01*
X627311Y348481D01*
X626519Y347690D01*
X625959Y346720D01*
X625669Y345638D01*
Y344519D01*
X625959Y343438D01*
X626519Y342468D01*
X627311Y341676D01*
X628280Y341117D01*
X629361Y340827D01*
X630481D01*
X631563Y341117D01*
X632532Y341676D01*
X633324Y342468D01*
X633883Y343438D01*
X634173Y344519D01*
Y345638D01*
X633883Y346720D01*
X633324Y347690D01*
X632532Y348481D01*
X631563Y349041D01*
X630481Y349331D01*
D02*
G37*
G36*
X600828Y350606D02*
X599960D01*
X599158Y350274D01*
X598545Y349661D01*
X598213Y348859D01*
Y347991D01*
X598545Y347190D01*
X598951Y346783D01*
X599103Y346457D01*
X598951Y346130D01*
X598545Y345724D01*
X598213Y344922D01*
Y344054D01*
X598545Y343253D01*
X598951Y342846D01*
X599103Y342520D01*
X598951Y342193D01*
X598545Y341787D01*
X598213Y340985D01*
Y340117D01*
X598545Y339316D01*
X599158Y338702D01*
X599960Y338370D01*
X600828D01*
X601629Y338702D01*
X602243Y339316D01*
X602575Y340117D01*
Y340985D01*
X602243Y341787D01*
X601836Y342193D01*
X601685Y342520D01*
X601836Y342846D01*
X602243Y343253D01*
X602575Y344054D01*
Y344922D01*
X602243Y345724D01*
X601836Y346130D01*
X601685Y346457D01*
X601836Y346783D01*
X602243Y347190D01*
X602575Y347991D01*
Y348859D01*
X602243Y349661D01*
X601629Y350274D01*
X600828Y350606D01*
D02*
G37*
G36*
X219995Y340905D02*
X218824D01*
X217692Y340602D01*
X216678Y340017D01*
X215849Y339188D01*
X215264Y338174D01*
X214961Y337042D01*
Y336061D01*
X213779D01*
Y337106D01*
X208268D01*
Y332407D01*
X208071Y331988D01*
X208071Y331570D01*
Y329724D01*
X213976D01*
Y331570D01*
X213976Y331988D01*
X213779Y332407D01*
Y332680D01*
X214133Y333034D01*
X216328D01*
X216328Y333034D01*
X216505Y333069D01*
X216678Y332897D01*
X217692Y332311D01*
X218824Y332008D01*
X219995D01*
X221127Y332311D01*
X222141Y332897D01*
X222969Y333725D01*
X223555Y334739D01*
X223858Y335871D01*
Y337042D01*
X223555Y338174D01*
X222969Y339188D01*
X222141Y340017D01*
X221127Y340602D01*
X219995Y340905D01*
D02*
G37*
G36*
X334686Y338008D02*
X333818D01*
X333016Y337676D01*
X332403Y337062D01*
X332071Y336261D01*
Y335393D01*
X332403Y334591D01*
X333016Y333978D01*
X333818Y333646D01*
X334686D01*
X335488Y333978D01*
X336101Y334591D01*
X336433Y335393D01*
Y336261D01*
X336101Y337062D01*
X335488Y337676D01*
X334686Y338008D01*
D02*
G37*
G36*
X328740Y334646D02*
X326476D01*
Y332579D01*
X328740D01*
Y334646D01*
D02*
G37*
G36*
X325492D02*
X323228D01*
Y332579D01*
X325492D01*
Y334646D01*
D02*
G37*
G36*
X320866D02*
X318602D01*
Y332579D01*
X320866D01*
Y334646D01*
D02*
G37*
G36*
X317618D02*
X315354D01*
Y332579D01*
X317618D01*
Y334646D01*
D02*
G37*
G36*
X312992D02*
X310728D01*
Y332579D01*
X312992D01*
Y334646D01*
D02*
G37*
G36*
X309744D02*
X307480D01*
Y332579D01*
X309744D01*
Y334646D01*
D02*
G37*
G36*
X305118D02*
X302854D01*
Y332579D01*
X305118D01*
Y334646D01*
D02*
G37*
G36*
X301870D02*
X299606D01*
Y332579D01*
X301870D01*
Y334646D01*
D02*
G37*
G36*
X297244D02*
X294980D01*
Y332579D01*
X297244D01*
Y334646D01*
D02*
G37*
G36*
X293996D02*
X291732D01*
Y332579D01*
X293996D01*
Y334646D01*
D02*
G37*
G36*
X289370D02*
X287106D01*
Y332579D01*
X289370D01*
Y334646D01*
D02*
G37*
G36*
X286122D02*
X283858D01*
Y332579D01*
X286122D01*
Y334646D01*
D02*
G37*
G36*
X281496D02*
X279232D01*
Y332579D01*
X281496D01*
Y334646D01*
D02*
G37*
G36*
X278248D02*
X275984D01*
Y332579D01*
X278248D01*
Y334646D01*
D02*
G37*
G36*
X229995Y340905D02*
X228824D01*
X227692Y340602D01*
X226678Y340017D01*
X225850Y339188D01*
X225264Y338174D01*
X224961Y337042D01*
Y335871D01*
X225264Y334739D01*
X225850Y333725D01*
X226678Y332897D01*
X227692Y332311D01*
X228824Y332008D01*
X229995D01*
X231127Y332311D01*
X232141Y332897D01*
X232969Y333725D01*
X233555Y334739D01*
X233858Y335871D01*
Y337042D01*
X233555Y338174D01*
X232969Y339188D01*
X232141Y340017D01*
X231127Y340602D01*
X229995Y340905D01*
D02*
G37*
G36*
X650166Y339488D02*
X649047D01*
X647965Y339198D01*
X646995Y338639D01*
X646204Y337847D01*
X645644Y336877D01*
X645354Y335796D01*
Y334677D01*
X645644Y333595D01*
X646204Y332626D01*
X646995Y331834D01*
X647965Y331274D01*
X649047Y330984D01*
X650166D01*
X651248Y331274D01*
X652217Y331834D01*
X653009Y332626D01*
X653569Y333595D01*
X653858Y334677D01*
Y335796D01*
X653569Y336877D01*
X653009Y337847D01*
X652217Y338639D01*
X651248Y339198D01*
X650166Y339488D01*
D02*
G37*
G36*
X640324D02*
X639204D01*
X638123Y339198D01*
X637153Y338639D01*
X636361Y337847D01*
X635802Y336877D01*
X635512Y335796D01*
Y334677D01*
X635802Y333595D01*
X636361Y332626D01*
X637153Y331834D01*
X638123Y331274D01*
X639204Y330984D01*
X640324D01*
X641405Y331274D01*
X642375Y331834D01*
X643166Y332626D01*
X643726Y333595D01*
X644016Y334677D01*
Y335796D01*
X643726Y336877D01*
X643166Y337847D01*
X642375Y338639D01*
X641405Y339198D01*
X640324Y339488D01*
D02*
G37*
G36*
X630481D02*
X629361D01*
X628280Y339198D01*
X627311Y338639D01*
X626519Y337847D01*
X625959Y336877D01*
X625669Y335796D01*
Y334677D01*
X625959Y333595D01*
X626519Y332626D01*
X627311Y331834D01*
X628280Y331274D01*
X629361Y330984D01*
X630481D01*
X631563Y331274D01*
X632532Y331834D01*
X633324Y332626D01*
X633883Y333595D01*
X634173Y334677D01*
Y335796D01*
X633883Y336877D01*
X633324Y337847D01*
X632532Y338639D01*
X631563Y339198D01*
X630481Y339488D01*
D02*
G37*
G36*
X472832Y333677D02*
X472050D01*
X471295Y333475D01*
X470618Y333084D01*
X470065Y332531D01*
X469675Y331855D01*
X469472Y331100D01*
Y330318D01*
X469675Y329563D01*
X470065Y328886D01*
X470618Y328333D01*
X471295Y327942D01*
X472050Y327740D01*
X472832D01*
X473587Y327942D01*
X474264Y328333D01*
X474816Y328886D01*
X475207Y329563D01*
X475409Y330318D01*
Y331100D01*
X475207Y331855D01*
X474816Y332531D01*
X474264Y333084D01*
X473587Y333475D01*
X472832Y333677D01*
D02*
G37*
G36*
X242517Y333283D02*
X241735D01*
X240980Y333081D01*
X240303Y332690D01*
X239751Y332138D01*
X239360Y331461D01*
X239158Y330706D01*
Y329924D01*
X239360Y329169D01*
X239751Y328492D01*
X240303Y327940D01*
X240980Y327549D01*
X241735Y327346D01*
X242517D01*
X243272Y327549D01*
X243949Y327940D01*
X244501Y328492D01*
X244892Y329169D01*
X245094Y329924D01*
Y330706D01*
X244892Y331461D01*
X244501Y332138D01*
X243949Y332690D01*
X243272Y333081D01*
X242517Y333283D01*
D02*
G37*
G36*
X213976Y328740D02*
X211516D01*
Y326476D01*
X213976D01*
Y328740D01*
D02*
G37*
G36*
X210531D02*
X208071D01*
Y326476D01*
X210531D01*
Y328740D01*
D02*
G37*
G36*
X233858Y330906D02*
X224961D01*
Y322008D01*
X233858D01*
Y330906D01*
D02*
G37*
G36*
X650166Y329646D02*
X649047D01*
X647965Y329356D01*
X646995Y328796D01*
X646204Y328005D01*
X645644Y327035D01*
X645354Y325954D01*
Y324834D01*
X645644Y323752D01*
X646204Y322783D01*
X646995Y321991D01*
X647965Y321431D01*
X649047Y321142D01*
X650166D01*
X651248Y321431D01*
X652217Y321991D01*
X653009Y322783D01*
X653569Y323752D01*
X653858Y324834D01*
Y325954D01*
X653569Y327035D01*
X653009Y328005D01*
X652217Y328796D01*
X651248Y329356D01*
X650166Y329646D01*
D02*
G37*
G36*
X640324D02*
X639204D01*
X638123Y329356D01*
X637153Y328796D01*
X636361Y328005D01*
X635802Y327035D01*
X635512Y325954D01*
Y324834D01*
X635802Y323752D01*
X636361Y322783D01*
X637153Y321991D01*
X638123Y321431D01*
X639204Y321142D01*
X640324D01*
X641405Y321431D01*
X642375Y321991D01*
X643166Y322783D01*
X643726Y323752D01*
X644016Y324834D01*
Y325954D01*
X643726Y327035D01*
X643166Y328005D01*
X642375Y328796D01*
X641405Y329356D01*
X640324Y329646D01*
D02*
G37*
G36*
X630481D02*
X629361D01*
X628280Y329356D01*
X627311Y328796D01*
X626519Y328005D01*
X625959Y327035D01*
X625669Y325954D01*
Y324834D01*
X625959Y323752D01*
X626519Y322783D01*
X627311Y321991D01*
X628280Y321431D01*
X629361Y321142D01*
X630481D01*
X631563Y321431D01*
X632532Y321991D01*
X633324Y322783D01*
X633883Y323752D01*
X634173Y324834D01*
Y325954D01*
X633883Y327035D01*
X633324Y328005D01*
X632532Y328796D01*
X631563Y329356D01*
X630481Y329646D01*
D02*
G37*
G36*
X251221Y325410D02*
X250354D01*
X249552Y325077D01*
X248938Y324464D01*
X248606Y323662D01*
Y322795D01*
X248938Y321993D01*
X249552Y321379D01*
X250354Y321047D01*
X251221D01*
X252023Y321379D01*
X252637Y321993D01*
X252969Y322795D01*
Y323662D01*
X252637Y324464D01*
X252023Y325077D01*
X251221Y325410D01*
D02*
G37*
G36*
X332674Y323047D02*
X331893D01*
X331138Y322845D01*
X330461Y322454D01*
X329908Y321901D01*
X329517Y321224D01*
X329315Y320469D01*
Y319688D01*
X329517Y318933D01*
X329908Y318256D01*
X330461Y317703D01*
X331138Y317313D01*
X331893Y317110D01*
X332674D01*
X333429Y317313D01*
X334106Y317703D01*
X334659Y318256D01*
X335050Y318933D01*
X335252Y319688D01*
Y320469D01*
X335050Y321224D01*
X334659Y321901D01*
X334106Y322454D01*
X333429Y322845D01*
X332674Y323047D01*
D02*
G37*
G36*
X328740Y331594D02*
X323228D01*
Y329528D01*
X324161D01*
X324368Y329028D01*
X324135Y328795D01*
X323803Y327993D01*
Y327125D01*
X324135Y326324D01*
X324565Y325894D01*
X324358Y325394D01*
X323425D01*
Y320669D01*
X325073D01*
Y319291D01*
X323425D01*
Y313779D01*
X328543D01*
Y319291D01*
X326895D01*
Y320669D01*
X328543D01*
Y325394D01*
X327610D01*
X327403Y325894D01*
X327833Y326324D01*
X328165Y327125D01*
Y327993D01*
X327833Y328795D01*
X327600Y329028D01*
X327807Y329528D01*
X328740D01*
Y331594D01*
D02*
G37*
G36*
X320866D02*
X315354D01*
Y329528D01*
X316287D01*
X316494Y329028D01*
X316261Y328795D01*
X315929Y327993D01*
Y327125D01*
X316261Y326324D01*
X316691Y325894D01*
X316484Y325394D01*
X315551D01*
Y320669D01*
X317199D01*
Y319291D01*
X315551D01*
Y313779D01*
X320669D01*
Y319291D01*
X319022D01*
Y320669D01*
X320669D01*
Y325394D01*
X319737D01*
X319529Y325894D01*
X319959Y326324D01*
X320291Y327125D01*
Y327993D01*
X319959Y328795D01*
X319726Y329028D01*
X319933Y329528D01*
X320866D01*
Y331594D01*
D02*
G37*
G36*
X312992D02*
X307480D01*
Y329528D01*
X308413D01*
X308620Y329028D01*
X308387Y328795D01*
X308055Y327993D01*
Y327125D01*
X308387Y326324D01*
X308817Y325894D01*
X308610Y325394D01*
X307677D01*
Y320669D01*
X309325D01*
Y319291D01*
X307677D01*
Y313779D01*
X312795D01*
Y319291D01*
X311147D01*
Y320669D01*
X312795D01*
Y325394D01*
X311862D01*
X311655Y325894D01*
X312085Y326324D01*
X312417Y327125D01*
Y327993D01*
X312085Y328795D01*
X311852Y329028D01*
X312059Y329528D01*
X312992D01*
Y331594D01*
D02*
G37*
G36*
X305118D02*
X299606D01*
Y329528D01*
X300539D01*
X300746Y329028D01*
X300513Y328795D01*
X300181Y327993D01*
Y327125D01*
X300513Y326324D01*
X300943Y325894D01*
X300736Y325394D01*
X299803D01*
Y320669D01*
X301451D01*
Y319291D01*
X299803D01*
Y313779D01*
X304921D01*
Y319291D01*
X303273D01*
Y320669D01*
X304921D01*
Y325394D01*
X303989D01*
X303781Y325894D01*
X304211Y326324D01*
X304543Y327125D01*
Y327993D01*
X304211Y328795D01*
X303978Y329028D01*
X304185Y329528D01*
X305118D01*
Y331594D01*
D02*
G37*
G36*
X297244D02*
X291732D01*
Y329528D01*
X292665D01*
X292872Y329028D01*
X292639Y328795D01*
X292307Y327993D01*
Y327125D01*
X292639Y326324D01*
X293069Y325894D01*
X292862Y325394D01*
X291929D01*
Y320669D01*
X293577D01*
Y319291D01*
X291929D01*
Y313779D01*
X297047D01*
Y319291D01*
X295399D01*
Y320669D01*
X297047D01*
Y325394D01*
X296114D01*
X295907Y325894D01*
X296337Y326324D01*
X296669Y327125D01*
Y327993D01*
X296337Y328795D01*
X296104Y329028D01*
X296311Y329528D01*
X297244D01*
Y331594D01*
D02*
G37*
G36*
X289370D02*
X283858D01*
Y329528D01*
X284791D01*
X284998Y329028D01*
X284765Y328795D01*
X284433Y327993D01*
Y327125D01*
X284765Y326324D01*
X285195Y325894D01*
X284988Y325394D01*
X284055D01*
Y320669D01*
X285703D01*
Y319291D01*
X284055D01*
Y313779D01*
X289173D01*
Y319291D01*
X287525D01*
Y320669D01*
X289173D01*
Y325394D01*
X288241D01*
X288033Y325894D01*
X288463Y326324D01*
X288795Y327125D01*
Y327993D01*
X288463Y328795D01*
X288230Y329028D01*
X288437Y329528D01*
X289370D01*
Y331594D01*
D02*
G37*
G36*
X281496D02*
X275984D01*
Y329528D01*
X276917D01*
X277124Y329028D01*
X276891Y328795D01*
X276559Y327993D01*
Y327125D01*
X276891Y326324D01*
X277321Y325894D01*
X277114Y325394D01*
X276181D01*
Y320669D01*
X277829D01*
Y319291D01*
X276181D01*
Y313779D01*
X281299D01*
Y319291D01*
X279651D01*
Y320669D01*
X281299D01*
Y325394D01*
X280366D01*
X280159Y325894D01*
X280589Y326324D01*
X280921Y327125D01*
Y327993D01*
X280589Y328795D01*
X280356Y329028D01*
X280563Y329528D01*
X281496D01*
Y331594D01*
D02*
G37*
G36*
X573269Y323047D02*
X572401D01*
X571599Y322715D01*
X570986Y322102D01*
X570653Y321300D01*
Y320432D01*
X570986Y319631D01*
X571392Y319224D01*
X571544Y318898D01*
X571392Y318571D01*
X570986Y318165D01*
X570653Y317363D01*
Y316495D01*
X570986Y315694D01*
X571392Y315287D01*
X571544Y314961D01*
X571392Y314634D01*
X570986Y314228D01*
X570653Y313426D01*
Y312558D01*
X570986Y311757D01*
X571599Y311143D01*
X572401Y310811D01*
X573269D01*
X574070Y311143D01*
X574684Y311757D01*
X575016Y312558D01*
Y313426D01*
X574684Y314228D01*
X574277Y314634D01*
X574126Y314961D01*
X574277Y315287D01*
X574684Y315694D01*
X575016Y316495D01*
Y317363D01*
X574684Y318165D01*
X574277Y318571D01*
X574126Y318898D01*
X574277Y319224D01*
X574684Y319631D01*
X575016Y320432D01*
Y321300D01*
X574684Y322102D01*
X574070Y322715D01*
X573269Y323047D01*
D02*
G37*
G36*
X328543Y312205D02*
X323425D01*
Y306693D01*
X323821D01*
X324069Y306193D01*
X323803Y305552D01*
Y304684D01*
X324135Y303883D01*
X324749Y303269D01*
X325550Y302937D01*
X326418D01*
X327220Y303269D01*
X327833Y303883D01*
X328165Y304684D01*
Y305552D01*
X327900Y306193D01*
X328147Y306693D01*
X328543D01*
Y312205D01*
D02*
G37*
G36*
X320669D02*
X315551D01*
Y306693D01*
X315947D01*
X316195Y306193D01*
X315929Y305552D01*
Y304684D01*
X316261Y303883D01*
X316875Y303269D01*
X317676Y302937D01*
X318544D01*
X319346Y303269D01*
X319959Y303883D01*
X320291Y304684D01*
Y305552D01*
X320026Y306193D01*
X320273Y306693D01*
X320669D01*
Y312205D01*
D02*
G37*
G36*
X312795D02*
X307677D01*
Y306693D01*
X308073D01*
X308321Y306193D01*
X308055Y305552D01*
Y304684D01*
X308387Y303883D01*
X309001Y303269D01*
X309802Y302937D01*
X310670D01*
X311472Y303269D01*
X312085Y303883D01*
X312417Y304684D01*
Y305552D01*
X312152Y306193D01*
X312399Y306693D01*
X312795D01*
Y312205D01*
D02*
G37*
G36*
X304921D02*
X299803D01*
Y306693D01*
X300199D01*
X300447Y306193D01*
X300181Y305552D01*
Y304684D01*
X300513Y303883D01*
X301127Y303269D01*
X301928Y302937D01*
X302796D01*
X303598Y303269D01*
X304211Y303883D01*
X304543Y304684D01*
Y305552D01*
X304278Y306193D01*
X304525Y306693D01*
X304921D01*
Y312205D01*
D02*
G37*
G36*
X297047D02*
X291929D01*
Y306693D01*
X292325D01*
X292573Y306193D01*
X292307Y305552D01*
Y304684D01*
X292639Y303883D01*
X293253Y303269D01*
X294054Y302937D01*
X294922D01*
X295724Y303269D01*
X296337Y303883D01*
X296669Y304684D01*
Y305552D01*
X296404Y306193D01*
X296651Y306693D01*
X297047D01*
Y312205D01*
D02*
G37*
G36*
X289173D02*
X284055D01*
Y306693D01*
X284451D01*
X284699Y306193D01*
X284433Y305552D01*
Y304684D01*
X284765Y303883D01*
X285379Y303269D01*
X286180Y302937D01*
X287048D01*
X287850Y303269D01*
X288463Y303883D01*
X288795Y304684D01*
Y305552D01*
X288530Y306193D01*
X288777Y306693D01*
X289173D01*
Y312205D01*
D02*
G37*
G36*
X281299D02*
X276181D01*
Y306693D01*
X276577D01*
X276824Y306193D01*
X276559Y305552D01*
Y304684D01*
X276891Y303883D01*
X277505Y303269D01*
X278306Y302937D01*
X279174D01*
X279976Y303269D01*
X280589Y303883D01*
X280921Y304684D01*
Y305552D01*
X280656Y306193D01*
X280903Y306693D01*
X281299D01*
Y312205D01*
D02*
G37*
G36*
X223619Y307693D02*
X222837D01*
X222082Y307491D01*
X221406Y307100D01*
X220853Y306547D01*
X220462Y305870D01*
X220260Y305115D01*
Y304334D01*
X220462Y303579D01*
X220853Y302902D01*
X221406Y302349D01*
X222082Y301958D01*
X222837Y301756D01*
X223619D01*
X224374Y301958D01*
X225051Y302349D01*
X225604Y302902D01*
X225995Y303579D01*
X226197Y304334D01*
Y305115D01*
X225995Y305870D01*
X225604Y306547D01*
X225051Y307100D01*
X224374Y307491D01*
X223619Y307693D01*
D02*
G37*
G36*
X480749Y299425D02*
X479881D01*
X479079Y299093D01*
X478466Y298480D01*
X478134Y297678D01*
Y296810D01*
X478466Y296009D01*
X479079Y295395D01*
X479881Y295063D01*
X480749D01*
X481551Y295395D01*
X482164Y296009D01*
X482496Y296810D01*
Y297678D01*
X482164Y298480D01*
X481551Y299093D01*
X480749Y299425D01*
D02*
G37*
G36*
X228780Y294307D02*
X227913D01*
X227111Y293975D01*
X226497Y293361D01*
X226165Y292560D01*
Y291692D01*
X226497Y290891D01*
X227111Y290277D01*
X227913Y289945D01*
X228780D01*
X229582Y290277D01*
X230195Y290891D01*
X230528Y291692D01*
Y292560D01*
X230195Y293361D01*
X229582Y293975D01*
X228780Y294307D01*
D02*
G37*
G36*
X626558Y295984D02*
X625410D01*
X624285Y295760D01*
X623224Y295321D01*
X622270Y294683D01*
X621458Y293872D01*
X620821Y292917D01*
X620381Y291857D01*
X620157Y290731D01*
Y289584D01*
X620381Y288458D01*
X620821Y287398D01*
X621458Y286443D01*
X622270Y285631D01*
X623224Y284994D01*
X624285Y284555D01*
X625410Y284331D01*
X626558D01*
X627684Y284555D01*
X628744Y284994D01*
X629699Y285631D01*
X630510Y286443D01*
X631148Y287398D01*
X631587Y288458D01*
X631811Y289584D01*
Y290731D01*
X631587Y291857D01*
X631148Y292917D01*
X630510Y293872D01*
X629699Y294683D01*
X628744Y295321D01*
X627684Y295760D01*
X626558Y295984D01*
D02*
G37*
G36*
X228780Y288008D02*
X227913D01*
X227111Y287676D01*
X226497Y287062D01*
X226165Y286261D01*
Y285393D01*
X226497Y284591D01*
X227111Y283978D01*
X227913Y283646D01*
X228780D01*
X229582Y283978D01*
X230195Y284591D01*
X230528Y285393D01*
Y286261D01*
X230195Y287062D01*
X229582Y287676D01*
X228780Y288008D01*
D02*
G37*
G36*
X643049Y284370D02*
X641203D01*
X639393Y284010D01*
X637688Y283304D01*
X636153Y282278D01*
X634848Y280973D01*
X633822Y279438D01*
X633116Y277733D01*
X632756Y275923D01*
Y274077D01*
X633116Y272267D01*
X633822Y270562D01*
X634848Y269027D01*
X636153Y267722D01*
X637688Y266696D01*
X639393Y265990D01*
X641203Y265630D01*
X643049D01*
X644859Y265990D01*
X646564Y266696D01*
X648099Y267722D01*
X649404Y269027D01*
X650430Y270562D01*
X651136Y272267D01*
X651496Y274077D01*
Y275923D01*
X651136Y277733D01*
X650430Y279438D01*
X649404Y280973D01*
X648099Y282278D01*
X646564Y283304D01*
X644859Y284010D01*
X643049Y284370D01*
D02*
G37*
G36*
X597985Y276240D02*
X596503D01*
X595071Y275856D01*
X593787Y275115D01*
X592739Y274067D01*
X591998Y272783D01*
X591614Y271351D01*
Y269869D01*
X591998Y268437D01*
X592739Y267153D01*
X593787Y266105D01*
X595071Y265364D01*
X596503Y264980D01*
X597985D01*
X599417Y265364D01*
X600701Y266105D01*
X601749Y267153D01*
X602490Y268437D01*
X602874Y269869D01*
Y271351D01*
X602490Y272783D01*
X601749Y274067D01*
X600701Y275115D01*
X599417Y275856D01*
X597985Y276240D01*
D02*
G37*
G36*
X584599D02*
X583117D01*
X581685Y275856D01*
X580401Y275115D01*
X579353Y274067D01*
X578612Y272783D01*
X578228Y271351D01*
Y269869D01*
X578612Y268437D01*
X579353Y267153D01*
X580401Y266105D01*
X581685Y265364D01*
X583117Y264980D01*
X584599D01*
X586031Y265364D01*
X587315Y266105D01*
X588363Y267153D01*
X589104Y268437D01*
X589488Y269869D01*
Y271351D01*
X589104Y272783D01*
X588363Y274067D01*
X587315Y275115D01*
X586031Y275856D01*
X584599Y276240D01*
D02*
G37*
G36*
X514915D02*
X513432D01*
X512000Y275856D01*
X510716Y275115D01*
X509668Y274067D01*
X508927Y272783D01*
X508543Y271351D01*
Y269869D01*
X508927Y268437D01*
X509668Y267153D01*
X510716Y266105D01*
X512000Y265364D01*
X513432Y264980D01*
X514915D01*
X516346Y265364D01*
X517630Y266105D01*
X518678Y267153D01*
X519419Y268437D01*
X519803Y269869D01*
Y271351D01*
X519419Y272783D01*
X518678Y274067D01*
X517630Y275115D01*
X516346Y275856D01*
X514915Y276240D01*
D02*
G37*
G36*
X501529D02*
X500046D01*
X498614Y275856D01*
X497331Y275115D01*
X496282Y274067D01*
X495541Y272783D01*
X495157Y271351D01*
Y269869D01*
X495541Y268437D01*
X496282Y267153D01*
X497331Y266105D01*
X498614Y265364D01*
X500046Y264980D01*
X501529D01*
X502960Y265364D01*
X504244Y266105D01*
X505293Y267153D01*
X506034Y268437D01*
X506417Y269869D01*
Y271351D01*
X506034Y272783D01*
X505293Y274067D01*
X504244Y275115D01*
X502960Y275856D01*
X501529Y276240D01*
D02*
G37*
G36*
X450271Y259882D02*
X448903D01*
X447581Y259528D01*
X446396Y258843D01*
X445428Y257876D01*
X444744Y256691D01*
X444390Y255369D01*
Y254001D01*
X444744Y252679D01*
X445428Y251494D01*
X446396Y250526D01*
X447581Y249842D01*
X448903Y249488D01*
X450271D01*
X451593Y249842D01*
X452778Y250526D01*
X453745Y251494D01*
X454429Y252679D01*
X454783Y254001D01*
Y255369D01*
X454429Y256691D01*
X453745Y257876D01*
X452778Y258843D01*
X451593Y259528D01*
X450271Y259882D01*
D02*
G37*
G36*
X258184Y250512D02*
X256816D01*
X255494Y250158D01*
X254309Y249474D01*
X253342Y248506D01*
X252657Y247321D01*
X252303Y245999D01*
Y244631D01*
X252657Y243309D01*
X253342Y242124D01*
X254309Y241156D01*
X255494Y240472D01*
X256816Y240118D01*
X258184D01*
X259506Y240472D01*
X260691Y241156D01*
X261659Y242124D01*
X262343Y243309D01*
X262697Y244631D01*
Y245999D01*
X262343Y247321D01*
X261659Y248506D01*
X260691Y249474D01*
X259506Y250158D01*
X258184Y250512D01*
D02*
G37*
G36*
X550763Y242646D02*
X549631D01*
X548537Y242353D01*
X547557Y241787D01*
X546757Y240986D01*
X546191Y240006D01*
X545898Y238913D01*
Y237780D01*
X546191Y236687D01*
X546757Y235707D01*
X547557Y234906D01*
X548537Y234340D01*
X549631Y234047D01*
X550763D01*
X551856Y234340D01*
X552837Y234906D01*
X553637Y235707D01*
X554203Y236687D01*
X554496Y237780D01*
Y238913D01*
X554203Y240006D01*
X553637Y240986D01*
X552837Y241787D01*
X551856Y242353D01*
X550763Y242646D01*
D02*
G37*
G36*
Y222646D02*
X549631D01*
X548537Y222353D01*
X547557Y221787D01*
X546757Y220986D01*
X546191Y220006D01*
X545898Y218913D01*
Y217780D01*
X546191Y216687D01*
X546757Y215707D01*
X547557Y214906D01*
X548537Y214340D01*
X549631Y214047D01*
X550763D01*
X551856Y214340D01*
X552837Y214906D01*
X553637Y215707D01*
X554203Y216687D01*
X554496Y217780D01*
Y218913D01*
X554203Y220006D01*
X553637Y220986D01*
X552837Y221787D01*
X551856Y222353D01*
X550763Y222646D01*
D02*
G37*
G36*
X597985Y223209D02*
X596503D01*
X595071Y222825D01*
X593787Y222084D01*
X592739Y221036D01*
X591998Y219752D01*
X591614Y218320D01*
Y216838D01*
X591998Y215406D01*
X592739Y214122D01*
X593787Y213074D01*
X595071Y212333D01*
X596503Y211949D01*
X597985D01*
X599417Y212333D01*
X600701Y213074D01*
X601749Y214122D01*
X602490Y215406D01*
X602874Y216838D01*
Y218320D01*
X602490Y219752D01*
X601749Y221036D01*
X600701Y222084D01*
X599417Y222825D01*
X597985Y223209D01*
D02*
G37*
G36*
X584599D02*
X583117D01*
X581685Y222825D01*
X580401Y222084D01*
X579353Y221036D01*
X578612Y219752D01*
X578228Y218320D01*
Y216838D01*
X578612Y215406D01*
X579353Y214122D01*
X580401Y213074D01*
X581685Y212333D01*
X583117Y211949D01*
X584599D01*
X586031Y212333D01*
X587315Y213074D01*
X588363Y214122D01*
X589104Y215406D01*
X589488Y216838D01*
Y218320D01*
X589104Y219752D01*
X588363Y221036D01*
X587315Y222084D01*
X586031Y222825D01*
X584599Y223209D01*
D02*
G37*
G36*
X514915D02*
X513432D01*
X512000Y222825D01*
X510716Y222084D01*
X509668Y221036D01*
X508927Y219752D01*
X508543Y218320D01*
Y216838D01*
X508927Y215406D01*
X509668Y214122D01*
X510716Y213074D01*
X512000Y212333D01*
X513432Y211949D01*
X514915D01*
X516346Y212333D01*
X517630Y213074D01*
X518678Y214122D01*
X519419Y215406D01*
X519803Y216838D01*
Y218320D01*
X519419Y219752D01*
X518678Y221036D01*
X517630Y222084D01*
X516346Y222825D01*
X514915Y223209D01*
D02*
G37*
G36*
X501529D02*
X500046D01*
X498614Y222825D01*
X497331Y222084D01*
X496282Y221036D01*
X495541Y219752D01*
X495157Y218320D01*
Y216838D01*
X495541Y215406D01*
X496282Y214122D01*
X497331Y213074D01*
X498614Y212333D01*
X500046Y211949D01*
X501529D01*
X502960Y212333D01*
X504244Y213074D01*
X505293Y214122D01*
X506034Y215406D01*
X506417Y216838D01*
Y218320D01*
X506034Y219752D01*
X505293Y221036D01*
X504244Y222084D01*
X502960Y222825D01*
X501529Y223209D01*
D02*
G37*
G36*
X642065Y483386D02*
X640219D01*
X638409Y483026D01*
X636703Y482319D01*
X635169Y481294D01*
X633863Y479989D01*
X632838Y478454D01*
X632132Y476749D01*
X631772Y474939D01*
Y473093D01*
X632132Y471283D01*
X632838Y469577D01*
X633863Y468043D01*
X635169Y466738D01*
X636703Y465712D01*
X638409Y465006D01*
X640219Y464646D01*
X642065D01*
X643875Y465006D01*
X645580Y465712D01*
X647115Y466738D01*
X648420Y468043D01*
X649445Y469577D01*
X650152Y471283D01*
X650512Y473093D01*
Y474939D01*
X650152Y476749D01*
X649445Y478454D01*
X648420Y479989D01*
X647115Y481294D01*
X645580Y482319D01*
X643875Y483026D01*
X642065Y483386D01*
D02*
G37*
G36*
X626558Y463701D02*
X625410D01*
X624285Y463477D01*
X623224Y463038D01*
X622270Y462400D01*
X621458Y461588D01*
X620821Y460634D01*
X620381Y459574D01*
X620157Y458448D01*
Y457300D01*
X620381Y456174D01*
X620821Y455114D01*
X621458Y454160D01*
X622270Y453348D01*
X623224Y452710D01*
X624285Y452271D01*
X625410Y452047D01*
X626558D01*
X627684Y452271D01*
X628744Y452710D01*
X629699Y453348D01*
X630510Y454160D01*
X631148Y455114D01*
X631587Y456174D01*
X631811Y457300D01*
Y458448D01*
X631587Y459574D01*
X631148Y460634D01*
X630510Y461588D01*
X629699Y462400D01*
X628744Y463038D01*
X627684Y463477D01*
X626558Y463701D01*
D02*
G37*
G36*
X630481Y421969D02*
X629361D01*
X628280Y421679D01*
X627311Y421119D01*
X626519Y420327D01*
X625959Y419358D01*
X625669Y418276D01*
Y417157D01*
X625959Y416075D01*
X626519Y415106D01*
X627311Y414314D01*
X628280Y413754D01*
X629361Y413465D01*
X630481D01*
X631563Y413754D01*
X632532Y414314D01*
X633324Y415106D01*
X633883Y416075D01*
X634173Y417157D01*
Y418276D01*
X633883Y419358D01*
X633324Y420327D01*
X632532Y421119D01*
X631563Y421679D01*
X630481Y421969D01*
D02*
G37*
%LPD*%
D16*
X310236Y316535D02*
Y327559D01*
X318110Y316535D02*
Y327559D01*
X302362Y316535D02*
Y327559D01*
X294488Y316535D02*
Y327559D01*
X325984Y316535D02*
Y327559D01*
X278740Y323031D02*
Y327559D01*
X278740Y323031D02*
X278740Y323031D01*
X286614D02*
Y327559D01*
X286614Y323031D02*
X286614Y323031D01*
X302362Y316535D02*
X302362Y316535D01*
X286614Y316535D02*
X286614Y316535D01*
X286614Y316535D02*
Y323031D01*
X278740Y316535D02*
X278740Y316535D01*
X278740Y316535D02*
Y323031D01*
X325984Y305118D02*
Y309449D01*
X318110Y305118D02*
Y309449D01*
X310236Y305118D02*
Y309449D01*
X302362Y309449D02*
X302362Y309449D01*
X302362Y305118D02*
Y309449D01*
X294488Y305118D02*
Y309449D01*
X286614Y305118D02*
Y309449D01*
X278740Y305118D02*
Y309449D01*
X557087Y348425D02*
X557087Y348425D01*
X552362Y348425D02*
X552362Y348425D01*
X557087D01*
X318110Y441732D02*
Y446260D01*
X318110Y446260D02*
X318110Y446260D01*
X310236Y441732D02*
Y446260D01*
X310236Y446260D02*
X310236Y446260D01*
X302362Y446260D02*
X302362Y446260D01*
Y441732D02*
Y446260D01*
X294488Y441732D02*
Y446260D01*
X294488Y446260D02*
X294488Y446260D01*
X286614Y441732D02*
Y446260D01*
X286614Y446260D02*
X286614Y446260D01*
X278740Y441732D02*
Y446260D01*
X278740Y446260D02*
X278740Y446260D01*
X270866Y441732D02*
Y446260D01*
X270866Y446260D02*
X270866Y446260D01*
X262992Y446260D02*
X262992Y446260D01*
Y441732D02*
Y446260D01*
X255118Y441732D02*
Y446260D01*
X255118Y446260D02*
X255118Y446260D01*
X247244Y446260D02*
X247244Y446260D01*
Y441732D02*
Y446260D01*
X239370Y446260D02*
X239370Y446260D01*
Y441732D02*
Y446260D01*
X231496Y446260D02*
X231496Y446260D01*
Y441732D02*
Y446260D01*
X223622Y441732D02*
Y446260D01*
X223622Y446260D02*
X223622Y446260D01*
X215748Y441732D02*
Y446260D01*
X215748Y446260D02*
X215748Y446260D01*
X318110Y446260D02*
X318110Y446260D01*
X318110Y446260D02*
Y452756D01*
X310236Y446260D02*
X310236Y446260D01*
X310236Y446260D02*
Y452756D01*
X302362Y446260D02*
X302362Y446260D01*
Y452756D01*
X294488Y446260D02*
Y452756D01*
Y446260D02*
X294488Y446260D01*
X286614Y446260D02*
Y452756D01*
Y446260D02*
X286614Y446260D01*
X278740Y446260D02*
X278740Y446260D01*
X278740Y446260D02*
Y452756D01*
X270866Y446260D02*
X270866Y446260D01*
X270866Y446260D02*
Y452756D01*
X262992Y446260D02*
X262992Y446260D01*
X262992Y446260D02*
Y452756D01*
X255118Y446260D02*
X255118Y446260D01*
X255118Y446260D02*
Y452756D01*
X247244Y446260D02*
Y452756D01*
Y446260D02*
X247244Y446260D01*
X239370Y446260D02*
X239370Y446260D01*
X239370Y446260D02*
Y452756D01*
X231496Y446260D02*
X231496Y446260D01*
X231496Y446260D02*
Y452756D01*
X223622Y446260D02*
Y452756D01*
Y446260D02*
X223622Y446260D01*
X215748Y446260D02*
X215748Y446260D01*
X215748Y446260D02*
Y452756D01*
X568110Y416142D02*
X584764Y399488D01*
X539950Y455905D02*
X568110Y427745D01*
Y416142D02*
Y427745D01*
X584764Y399488D02*
X644410D01*
X649606Y394291D01*
X215748Y459646D02*
Y459842D01*
Y459646D02*
X219488Y455905D01*
X539950D01*
X259055Y466535D02*
X266929Y474409D01*
X251181Y466535D02*
X259055D01*
X247244Y462598D02*
X251181Y466535D01*
X239370Y466142D02*
X243701Y470472D01*
X260236D02*
X269853Y480089D01*
X243701Y470472D02*
X260236D01*
X239370Y459842D02*
Y466142D01*
X553287Y462598D02*
X572047Y481358D01*
X294547Y467973D02*
X440551D01*
X278740Y460039D02*
X287961Y469260D01*
X278421Y470547D02*
X384071D01*
X287961Y469260D02*
X412311D01*
X497031Y465398D02*
X512992Y481358D01*
X314504Y464110D02*
X525272D01*
X255118Y460039D02*
X268201Y473122D01*
X301134Y466685D02*
X468791D01*
X440551Y467973D02*
X453937Y481358D01*
X311811Y461417D02*
X314504Y464110D01*
X286614Y460039D02*
X294547Y467973D01*
X320866Y462598D02*
X553287D01*
X355831Y471835D02*
X365354Y481358D01*
X525272Y464110D02*
X542520Y481358D01*
X307720Y465398D02*
X497031D01*
X274787Y471835D02*
X355831D01*
X384071Y470547D02*
X394882Y481358D01*
X327590Y473122D02*
X335827Y481358D01*
X268201Y473122D02*
X327590D01*
X294488Y460039D02*
X301134Y466685D01*
X468791D02*
X483465Y481358D01*
X412311Y469260D02*
X424409Y481358D01*
X302362Y460039D02*
X307720Y465398D01*
X318110Y459842D02*
X320866Y462598D01*
X270866Y462992D02*
X278421Y470547D01*
X262992Y460039D02*
X274787Y471835D01*
X310236Y460039D02*
X311614Y461417D01*
X311811D01*
X310236Y459842D02*
Y460039D01*
X299350Y474409D02*
X306299Y481358D01*
X266929Y474409D02*
X299350D01*
X269853Y480089D02*
X275502D01*
X247244Y459842D02*
Y462598D01*
X275502Y480089D02*
X276772Y481358D01*
X302362Y459842D02*
Y460039D01*
X294488Y459842D02*
Y460039D01*
X286614Y459842D02*
Y460039D01*
X278740Y459842D02*
Y460039D01*
X270866Y459842D02*
Y462992D01*
X262992Y459842D02*
Y460039D01*
X255118Y459842D02*
Y460039D01*
X231496Y465610D02*
X247244Y481358D01*
X231496Y459842D02*
Y465610D01*
X217717Y481358D02*
X223622Y475453D01*
Y459842D02*
Y475453D01*
X664206Y200296D02*
Y205216D01*
X661746Y202756D01*
X665026D01*
D23*
X211024Y334547D02*
D03*
Y329232D02*
D03*
X545276Y345768D02*
D03*
Y351083D02*
D03*
D34*
X571260Y348425D02*
D03*
Y355512D02*
D03*
X278740Y309449D02*
D03*
Y316535D02*
D03*
X294488Y309449D02*
D03*
Y316535D02*
D03*
X286614Y309449D02*
D03*
Y316535D02*
D03*
X318110Y309449D02*
D03*
Y316535D02*
D03*
X325984Y309449D02*
D03*
Y316535D02*
D03*
X302362Y309449D02*
D03*
Y316535D02*
D03*
X310236Y309449D02*
D03*
Y316535D02*
D03*
X302362Y459842D02*
D03*
Y452756D02*
D03*
X278740Y459842D02*
D03*
Y452756D02*
D03*
X270866Y459842D02*
D03*
Y452756D02*
D03*
X262992Y459842D02*
D03*
Y452756D02*
D03*
X231496Y459842D02*
D03*
Y452756D02*
D03*
X255118Y459842D02*
D03*
Y452756D02*
D03*
X239370Y459842D02*
D03*
Y452756D02*
D03*
X247244Y459842D02*
D03*
Y452756D02*
D03*
X223622Y459842D02*
D03*
Y452756D02*
D03*
X215748Y459842D02*
D03*
Y452756D02*
D03*
X294488Y459842D02*
D03*
Y452756D02*
D03*
X318110Y459842D02*
D03*
Y452756D02*
D03*
X310236Y459842D02*
D03*
Y452756D02*
D03*
X286614Y459842D02*
D03*
Y452756D02*
D03*
D35*
X257500Y245315D02*
D03*
X449587Y254685D02*
D03*
D36*
X625984Y457874D02*
D03*
Y290158D02*
D03*
D40*
X219409Y326457D02*
D03*
X229410Y336457D02*
D03*
X219409D02*
D03*
X229410Y346457D02*
D03*
X219409D02*
D03*
X229410Y356457D02*
D03*
X219409D02*
D03*
X229410Y366457D02*
D03*
X219409D02*
D03*
D47*
X278740Y323031D02*
D03*
Y332087D02*
D03*
X286614Y323031D02*
D03*
Y332087D02*
D03*
X294488Y323031D02*
D03*
Y332087D02*
D03*
X302362Y323031D02*
D03*
Y332087D02*
D03*
X310236Y323031D02*
D03*
Y332087D02*
D03*
X318110Y323031D02*
D03*
Y332087D02*
D03*
X325984Y323031D02*
D03*
Y332087D02*
D03*
X302362Y437205D02*
D03*
Y446260D02*
D03*
X231496Y437205D02*
D03*
Y446260D02*
D03*
X318110Y437205D02*
D03*
Y446260D02*
D03*
X294488Y437205D02*
D03*
Y446260D02*
D03*
X255118Y437205D02*
D03*
Y446260D02*
D03*
X247244Y437205D02*
D03*
Y446260D02*
D03*
X262992Y437205D02*
D03*
Y446260D02*
D03*
X286614Y437205D02*
D03*
Y446260D02*
D03*
X270866Y437205D02*
D03*
Y446260D02*
D03*
X278740Y437205D02*
D03*
Y446260D02*
D03*
X310236Y437205D02*
D03*
Y446260D02*
D03*
X239370Y437205D02*
D03*
Y446260D02*
D03*
X223622Y437205D02*
D03*
Y446260D02*
D03*
X215748Y437205D02*
D03*
Y446260D02*
D03*
D59*
X571260Y355512D02*
X579528D01*
X564075Y352067D02*
X567717Y348425D01*
X561909Y344783D02*
X564075D01*
X567717Y348425D02*
X571260D01*
X561909Y352067D02*
X564075D01*
X564075Y344783D02*
X567717Y348425D01*
X561811Y344685D02*
X561909Y344783D01*
X561811Y352165D02*
X561909Y352067D01*
D60*
X218238Y336457D02*
X219409D01*
X211024Y334547D02*
X216328D01*
X218238Y336457D01*
X545276Y339370D02*
Y345768D01*
X547835Y344685D02*
X552362D01*
X545472Y345768D02*
X546260Y344980D01*
X545472Y351083D02*
X546555Y352165D01*
X545276Y351083D02*
X545472D01*
X546555Y352165D02*
X552362D01*
X547539Y344980D02*
X547835Y344685D01*
X545276Y345768D02*
X545472D01*
X546260Y344980D02*
X547539D01*
D62*
X579528Y364567D02*
X604724D01*
X604921Y364764D01*
X629921D01*
D63*
X597244Y270610D02*
D03*
X583858D02*
D03*
X597244Y217579D02*
D03*
X583858D02*
D03*
X572047Y481358D02*
D03*
X585433D02*
D03*
X572047Y534390D02*
D03*
X585433D02*
D03*
X201575Y534390D02*
D03*
X188189D02*
D03*
X201575Y481358D02*
D03*
X188189D02*
D03*
X231102Y534390D02*
D03*
X217717D02*
D03*
X231102Y481358D02*
D03*
X217717D02*
D03*
X260630Y534390D02*
D03*
X247244D02*
D03*
X260630Y481358D02*
D03*
X247244D02*
D03*
X290158Y534390D02*
D03*
X276772D02*
D03*
X290158Y481358D02*
D03*
X276772D02*
D03*
X319685Y534390D02*
D03*
X306299D02*
D03*
X319685Y481358D02*
D03*
X306299D02*
D03*
X378740Y534390D02*
D03*
X365354D02*
D03*
X378740Y481358D02*
D03*
X365354D02*
D03*
X349213Y534390D02*
D03*
X335827D02*
D03*
X349213Y481358D02*
D03*
X335827D02*
D03*
X408268Y534390D02*
D03*
X394882D02*
D03*
X408268Y481358D02*
D03*
X394882D02*
D03*
X467323Y534390D02*
D03*
X453937D02*
D03*
X467323Y481358D02*
D03*
X453937D02*
D03*
X496850Y534390D02*
D03*
X483465D02*
D03*
X496850Y481358D02*
D03*
X483465D02*
D03*
X526378Y534390D02*
D03*
X512992D02*
D03*
X526378Y481358D02*
D03*
X512992D02*
D03*
X437795Y534390D02*
D03*
X424409D02*
D03*
X437795Y481358D02*
D03*
X424409D02*
D03*
X555905Y534390D02*
D03*
X542520D02*
D03*
X555905Y481358D02*
D03*
X542520D02*
D03*
X500787Y217579D02*
D03*
X514173D02*
D03*
X500787Y270610D02*
D03*
X514173D02*
D03*
D64*
X460728Y448425D02*
D03*
X475492D02*
D03*
X539468D02*
D03*
X559154D02*
D03*
X476378Y420866D02*
D03*
X491142D02*
D03*
X555118D02*
D03*
X574803D02*
D03*
D65*
X229410Y326457D02*
D03*
D66*
X659449Y325394D02*
D03*
Y364764D02*
D03*
Y417717D02*
D03*
Y315551D02*
D03*
Y335236D02*
D03*
Y345079D02*
D03*
Y354921D02*
D03*
Y374606D02*
D03*
Y384449D02*
D03*
Y394291D02*
D03*
Y404134D02*
D03*
Y432480D02*
D03*
X649606Y325394D02*
D03*
Y364764D02*
D03*
Y417717D02*
D03*
Y315551D02*
D03*
Y335236D02*
D03*
Y345079D02*
D03*
Y354921D02*
D03*
Y374606D02*
D03*
Y384449D02*
D03*
Y394291D02*
D03*
Y404134D02*
D03*
Y432480D02*
D03*
X639764Y325394D02*
D03*
Y364764D02*
D03*
Y417717D02*
D03*
Y315551D02*
D03*
Y335236D02*
D03*
Y345079D02*
D03*
Y354921D02*
D03*
Y374606D02*
D03*
Y384449D02*
D03*
Y394291D02*
D03*
Y404134D02*
D03*
Y432480D02*
D03*
X629921Y325394D02*
D03*
Y364764D02*
D03*
Y417717D02*
D03*
Y315551D02*
D03*
Y335236D02*
D03*
Y345079D02*
D03*
Y354921D02*
D03*
Y374606D02*
D03*
Y384449D02*
D03*
Y394291D02*
D03*
Y404134D02*
D03*
Y432480D02*
D03*
D67*
X641142Y474016D02*
D03*
X642126Y275000D02*
D03*
D68*
X550197Y238347D02*
D03*
Y228346D02*
D03*
Y218347D02*
D03*
X207677Y401417D02*
D03*
Y411417D02*
D03*
Y421417D02*
D03*
D69*
X333465Y424016D02*
D03*
X331496Y426772D02*
D03*
Y430315D02*
D03*
X331102Y414567D02*
D03*
X332283Y411417D02*
D03*
X331102Y408268D02*
D03*
X294488Y416142D02*
D03*
X294882Y422047D02*
D03*
X296850Y418898D02*
D03*
X294094Y410630D02*
D03*
X296850Y413386D02*
D03*
X295276Y407480D02*
D03*
X258661Y369685D02*
D03*
X278740Y359055D02*
D03*
Y354331D02*
D03*
X307874Y344882D02*
D03*
X312598Y350787D02*
D03*
X342126Y388189D02*
D03*
X338583D02*
D03*
X385827Y398425D02*
D03*
Y413386D02*
D03*
X250787Y323228D02*
D03*
X572835Y320866D02*
D03*
Y312992D02*
D03*
Y316929D02*
D03*
X600394Y340551D02*
D03*
Y344488D02*
D03*
Y348425D02*
D03*
X320866Y344488D02*
D03*
X295276D02*
D03*
X324803D02*
D03*
X334252Y335827D02*
D03*
X426378Y400394D02*
D03*
Y411024D02*
D03*
X294488Y305118D02*
D03*
X286614D02*
D03*
X278740D02*
D03*
X325984D02*
D03*
X318110D02*
D03*
X310236D02*
D03*
X302362D02*
D03*
X537402Y353543D02*
D03*
X327165Y383465D02*
D03*
X557087Y348425D02*
D03*
X537402D02*
D03*
X431102Y418110D02*
D03*
Y393307D02*
D03*
X312598Y346457D02*
D03*
X228346Y285827D02*
D03*
Y292126D02*
D03*
X480315Y297244D02*
D03*
X248031Y407480D02*
D03*
X267323Y368898D02*
D03*
X262992Y372835D02*
D03*
X259449Y374410D02*
D03*
X286614Y327559D02*
D03*
X302362D02*
D03*
X310236D02*
D03*
X325984D02*
D03*
X318110D02*
D03*
X294488D02*
D03*
X278740D02*
D03*
X215748Y441732D02*
D03*
X223622D02*
D03*
X231496D02*
D03*
X239370D02*
D03*
X247244D02*
D03*
X255118D02*
D03*
X262992D02*
D03*
X270866D02*
D03*
X278740D02*
D03*
X286614D02*
D03*
X294488D02*
D03*
X302362D02*
D03*
X310236D02*
D03*
X318110D02*
D03*
X332283Y417717D02*
D03*
X330315Y420472D02*
D03*
D70*
X338583Y425197D02*
D03*
X283465Y354331D02*
D03*
X242126Y330315D02*
D03*
X426772Y335827D02*
D03*
Y367323D02*
D03*
X395276Y335827D02*
D03*
X285039Y383071D02*
D03*
X300787D02*
D03*
Y367323D02*
D03*
X316535D02*
D03*
X206299Y351575D02*
D03*
X222047Y414567D02*
D03*
X267717Y283465D02*
D03*
X363779Y414567D02*
D03*
X442520D02*
D03*
X458268Y398819D02*
D03*
X442520Y367323D02*
D03*
X489764Y257087D02*
D03*
X537008Y225590D02*
D03*
X285039Y241339D02*
D03*
Y217717D02*
D03*
X535433Y283465D02*
D03*
X411024Y217717D02*
D03*
Y241339D02*
D03*
X379528Y217717D02*
D03*
Y241339D02*
D03*
X348031Y217717D02*
D03*
Y241339D02*
D03*
X316535D02*
D03*
Y217717D02*
D03*
X440945Y314961D02*
D03*
X393701D02*
D03*
X627559Y474803D02*
D03*
X659055D02*
D03*
Y443307D02*
D03*
Y459055D02*
D03*
X643307D02*
D03*
Y443307D02*
D03*
X627559D02*
D03*
X611811D02*
D03*
Y459055D02*
D03*
Y474803D02*
D03*
X659055Y490551D02*
D03*
X643307D02*
D03*
X627559D02*
D03*
X611811D02*
D03*
X659055Y537795D02*
D03*
X643307D02*
D03*
X627559D02*
D03*
X611811D02*
D03*
X659055Y506299D02*
D03*
X643307D02*
D03*
X627559D02*
D03*
X659055Y522047D02*
D03*
X643307D02*
D03*
X627559D02*
D03*
X611811Y506299D02*
D03*
Y522047D02*
D03*
X596063Y506299D02*
D03*
Y522047D02*
D03*
X580315Y506299D02*
D03*
Y522047D02*
D03*
X564567Y506299D02*
D03*
Y522047D02*
D03*
X548819Y506299D02*
D03*
Y522047D02*
D03*
X533071Y506299D02*
D03*
Y522047D02*
D03*
X517323Y506299D02*
D03*
Y522047D02*
D03*
X501575Y506299D02*
D03*
Y522047D02*
D03*
X485827Y506299D02*
D03*
Y522047D02*
D03*
X470079Y506299D02*
D03*
Y522047D02*
D03*
X454331Y506299D02*
D03*
Y522047D02*
D03*
X438583Y506299D02*
D03*
Y522047D02*
D03*
X422835Y506299D02*
D03*
Y522047D02*
D03*
X407087Y506299D02*
D03*
Y522047D02*
D03*
X391339Y506299D02*
D03*
Y522047D02*
D03*
X375591Y506299D02*
D03*
Y522047D02*
D03*
X359842Y506299D02*
D03*
Y522047D02*
D03*
X344094Y506299D02*
D03*
Y522047D02*
D03*
X328346Y506299D02*
D03*
Y522047D02*
D03*
X312598Y506299D02*
D03*
Y522047D02*
D03*
X296850Y506299D02*
D03*
Y522047D02*
D03*
X281102Y506299D02*
D03*
Y522047D02*
D03*
X265354Y506299D02*
D03*
Y522047D02*
D03*
X249606Y506299D02*
D03*
Y522047D02*
D03*
X233858Y506299D02*
D03*
Y522047D02*
D03*
X218110Y506299D02*
D03*
Y522047D02*
D03*
X202362Y506299D02*
D03*
Y522047D02*
D03*
X186614Y506299D02*
D03*
Y522047D02*
D03*
X332283Y320079D02*
D03*
X545276Y339370D02*
D03*
X223228Y304724D02*
D03*
X379134Y396850D02*
D03*
X253543Y384252D02*
D03*
X351969Y355512D02*
D03*
X283465Y407480D02*
D03*
X472441Y330709D02*
D03*
D71*
X604724Y364567D02*
D03*
D72*
X579528Y373622D02*
D03*
Y364567D02*
D03*
Y355512D02*
D03*
D73*
X561811Y344685D02*
D03*
Y348425D02*
D03*
Y352165D02*
D03*
X552362D02*
D03*
Y348425D02*
D03*
Y344685D02*
D03*
M02*
