G04*
G04 #@! TF.GenerationSoftware,Altium Limited,Altium Designer,21.9.2 (33)*
G04*
G04 Layer_Color=32896*
%FSLAX25Y25*%
%MOIN*%
G70*
G04*
G04 #@! TF.SameCoordinates,3EA75405-4CE9-4461-8B4E-421F381EEA3C*
G04*
G04*
G04 #@! TF.FilePolarity,Positive*
G04*
G01*
G75*
%ADD10C,0.00394*%
%ADD12C,0.01000*%
%ADD14C,0.00591*%
%ADD16C,0.00600*%
%ADD58C,0.00000*%
D10*
X313386Y367126D02*
D03*
D12*
X448587Y387819D02*
X447836Y388252D01*
Y387386D01*
X448587Y387819D01*
X262074Y418505D02*
Y421784D01*
X262731Y422440D01*
X264042D01*
X264698Y421784D01*
Y418505D01*
X267978Y422440D02*
Y418505D01*
X266010Y420472D01*
X268634D01*
X453807Y409843D02*
Y413123D01*
X454463Y413779D01*
X455775D01*
X456431Y413123D01*
Y409843D01*
X457743Y410499D02*
X458398Y409843D01*
X459710D01*
X460366Y410499D01*
Y411155D01*
X459710Y411811D01*
X459055D01*
X459710D01*
X460366Y412467D01*
Y413123D01*
X459710Y413779D01*
X458398D01*
X457743Y413123D01*
X456563Y364960D02*
Y361024D01*
X458531D01*
X459187Y361680D01*
Y362992D01*
X458531Y363648D01*
X456563D01*
X457875D02*
X459187Y364960D01*
X460499Y361680D02*
X461155Y361024D01*
X462467D01*
X463123Y361680D01*
Y362336D01*
X462467Y362992D01*
X461811D01*
X462467D01*
X463123Y363648D01*
Y364304D01*
X462467Y364960D01*
X461155D01*
X460499Y364304D01*
X464435Y361680D02*
X465091Y361024D01*
X466403D01*
X467059Y361680D01*
Y362336D01*
X466403Y362992D01*
X465747D01*
X466403D01*
X467059Y363648D01*
Y364304D01*
X466403Y364960D01*
X465091D01*
X464435Y364304D01*
X491732Y413122D02*
X487796D01*
Y411154D01*
X488452Y410498D01*
X489764D01*
X490420Y411154D01*
Y413122D01*
Y411810D02*
X491732Y410498D01*
X488452Y409186D02*
X487796Y408530D01*
Y407218D01*
X488452Y406562D01*
X489108D01*
X489764Y407218D01*
Y407874D01*
Y407218D01*
X490420Y406562D01*
X491076D01*
X491732Y407218D01*
Y408530D01*
X491076Y409186D01*
X491732Y402626D02*
Y405250D01*
X489108Y402626D01*
X488452D01*
X487796Y403282D01*
Y404594D01*
X488452Y405250D01*
X498031Y394356D02*
X494095D01*
Y392388D01*
X494751Y391732D01*
X496063D01*
X496719Y392388D01*
Y394356D01*
Y393044D02*
X498031Y391732D01*
X494751Y390420D02*
X494095Y389764D01*
Y388452D01*
X494751Y387796D01*
X495407D01*
X496063Y388452D01*
Y389108D01*
Y388452D01*
X496719Y387796D01*
X497375D01*
X498031Y388452D01*
Y389764D01*
X497375Y390420D01*
X498031Y386484D02*
Y385172D01*
Y385828D01*
X494095D01*
X494751Y386484D01*
X498031Y413122D02*
X494095D01*
Y411154D01*
X494751Y410498D01*
X496063D01*
X496719Y411154D01*
Y413122D01*
Y411810D02*
X498031Y410498D01*
X494751Y409186D02*
X494095Y408530D01*
Y407218D01*
X494751Y406562D01*
X495407D01*
X496063Y407218D01*
Y407874D01*
Y407218D01*
X496719Y406562D01*
X497375D01*
X498031Y407218D01*
Y408530D01*
X497375Y409186D01*
X494751Y405250D02*
X494095Y404594D01*
Y403282D01*
X494751Y402626D01*
X497375D01*
X498031Y403282D01*
Y404594D01*
X497375Y405250D01*
X494751D01*
X313978Y393306D02*
Y389371D01*
X315946D01*
X316602Y390027D01*
Y391339D01*
X315946Y391995D01*
X313978D01*
X315290D02*
X316602Y393306D01*
X317914D02*
X319226D01*
X318570D01*
Y389371D01*
X317914Y390027D01*
X321194D02*
X321849Y389371D01*
X323161D01*
X323817Y390027D01*
Y390683D01*
X323161Y391339D01*
X322505D01*
X323161D01*
X323817Y391995D01*
Y392651D01*
X323161Y393306D01*
X321849D01*
X321194Y392651D01*
X298230Y387007D02*
Y383071D01*
X300198D01*
X300854Y383728D01*
Y385039D01*
X300198Y385695D01*
X298230D01*
X299542D02*
X300854Y387007D01*
X302166D02*
X303478D01*
X302822D01*
Y383071D01*
X302166Y383728D01*
X308069Y387007D02*
X305446D01*
X308069Y384383D01*
Y383728D01*
X307413Y383071D01*
X306101D01*
X305446Y383728D01*
X461811Y367323D02*
X460499D01*
X461155D01*
Y370603D01*
X460499Y371259D01*
X459843D01*
X459187Y370603D01*
X463123Y371259D02*
X464435D01*
X463779D01*
Y367323D01*
X463123Y367979D01*
X313978Y383071D02*
Y387007D01*
X315946D01*
X316602Y386351D01*
Y383728D01*
X315946Y383071D01*
X313978D01*
X317914Y387007D02*
X319226D01*
X318570D01*
Y383071D01*
X317914Y383728D01*
X323817Y387007D02*
X321194D01*
X323817Y384383D01*
Y383728D01*
X323161Y383071D01*
X321849D01*
X321194Y383728D01*
X567783Y316798D02*
X567127Y316142D01*
X565815D01*
X565159Y316798D01*
Y319422D01*
X565815Y320078D01*
X567127D01*
X567783Y319422D01*
X569095Y320078D02*
X570407D01*
X569751D01*
Y316142D01*
X569095Y316798D01*
X572375D02*
X573031Y316142D01*
X574342D01*
X574998Y316798D01*
Y317454D01*
X574342Y318110D01*
X574998Y318766D01*
Y319422D01*
X574342Y320078D01*
X573031D01*
X572375Y319422D01*
Y318766D01*
X573031Y318110D01*
X572375Y317454D01*
Y316798D01*
X573031Y318110D02*
X574342D01*
X548098Y316798D02*
X547442Y316142D01*
X546130D01*
X545474Y316798D01*
Y319422D01*
X546130Y320078D01*
X547442D01*
X548098Y319422D01*
X549410Y320078D02*
X550722D01*
X550066D01*
Y316142D01*
X549410Y316798D01*
X552690Y316142D02*
X555313D01*
Y316798D01*
X552690Y319422D01*
Y320078D01*
X253413Y424343D02*
X252757Y424999D01*
Y426311D01*
X253413Y426967D01*
X256036D01*
X256692Y426311D01*
Y424999D01*
X256036Y424343D01*
X256692Y423031D02*
Y421719D01*
Y422375D01*
X252757D01*
X253413Y423031D01*
X252757Y417128D02*
X253413Y418439D01*
X254724Y419751D01*
X256036D01*
X256692Y419095D01*
Y417783D01*
X256036Y417128D01*
X255380D01*
X254724Y417783D01*
Y419751D01*
X269358Y351838D02*
X268702Y351182D01*
X267390D01*
X266734Y351838D01*
Y354462D01*
X267390Y355118D01*
X268702D01*
X269358Y354462D01*
X270670Y355118D02*
X271982D01*
X271326D01*
Y351182D01*
X270670Y351838D01*
X276573Y351182D02*
X273949D01*
Y353150D01*
X275261Y352494D01*
X275917D01*
X276573Y353150D01*
Y354462D01*
X275917Y355118D01*
X274605D01*
X273949Y354462D01*
X254397Y351838D02*
X253741Y351182D01*
X252429D01*
X251773Y351838D01*
Y354462D01*
X252429Y355118D01*
X253741D01*
X254397Y354462D01*
X255709Y355118D02*
X257021D01*
X256365D01*
Y351182D01*
X255709Y351838D01*
X260957Y355118D02*
Y351182D01*
X258989Y353150D01*
X261613D01*
X430971Y388516D02*
X430316Y389172D01*
Y390484D01*
X430971Y391140D01*
X433595D01*
X434251Y390484D01*
Y389172D01*
X433595Y388516D01*
X434251Y387204D02*
Y385893D01*
Y386548D01*
X430316D01*
X430971Y387204D01*
Y383925D02*
X430316Y383269D01*
Y381957D01*
X430971Y381301D01*
X431628D01*
X432283Y381957D01*
Y382613D01*
Y381957D01*
X432939Y381301D01*
X433595D01*
X434251Y381957D01*
Y383269D01*
X433595Y383925D01*
X438058Y388516D02*
X437402Y389172D01*
Y390484D01*
X438058Y391140D01*
X440682D01*
X441338Y390484D01*
Y389172D01*
X440682Y388516D01*
X441338Y387204D02*
Y385893D01*
Y386548D01*
X437402D01*
X438058Y387204D01*
X441338Y381301D02*
Y383925D01*
X438714Y381301D01*
X438058D01*
X437402Y381957D01*
Y383269D01*
X438058Y383925D01*
X268373Y379593D02*
X267717Y380249D01*
Y381560D01*
X268373Y382217D01*
X270997D01*
X271653Y381560D01*
Y380249D01*
X270997Y379593D01*
X271653Y378281D02*
Y376969D01*
Y377625D01*
X267717D01*
X268373Y378281D01*
X271653Y375001D02*
Y373689D01*
Y374345D01*
X267717D01*
X268373Y375001D01*
X488452Y392060D02*
X487796Y392716D01*
Y394027D01*
X488452Y394683D01*
X491076D01*
X491732Y394027D01*
Y392716D01*
X491076Y392060D01*
X491732Y390748D02*
Y389436D01*
Y390092D01*
X487796D01*
X488452Y390748D01*
Y387468D02*
X487796Y386812D01*
Y385500D01*
X488452Y384844D01*
X491076D01*
X491732Y385500D01*
Y386812D01*
X491076Y387468D01*
X488452D01*
D14*
X325197Y375590D02*
Y376346D01*
X312598Y375590D02*
X325197D01*
X312598D02*
Y376346D01*
Y380346D02*
Y381102D01*
X325197D01*
Y380346D02*
Y381102D01*
X318898Y375590D02*
Y381102D01*
X309449Y375590D02*
Y376346D01*
X296850Y375590D02*
X309449D01*
X296850D02*
Y376346D01*
Y380346D02*
Y381102D01*
X309449D01*
Y380346D02*
Y381102D01*
X303150Y375590D02*
Y381102D01*
X251969Y409449D02*
X257480D01*
X256299Y403937D02*
X257480D01*
Y414961D01*
X256299D02*
X257480D01*
X251969D02*
X253150D01*
X251969Y403937D02*
Y414961D01*
Y403937D02*
X253150D01*
X473212Y407874D02*
X478723D01*
X473212Y414173D02*
X473968D01*
X473212Y401575D02*
Y414173D01*
Y401575D02*
X473968D01*
X477968D02*
X478723D01*
Y414173D01*
X477968D02*
X478723D01*
X480315Y407874D02*
X485827D01*
X480315Y414173D02*
X481071D01*
X480315Y401575D02*
Y414173D01*
Y401575D02*
X481071D01*
X485071D02*
X485827D01*
Y414173D01*
X485071D02*
X485827D01*
X429511Y398819D02*
X435023D01*
X433842Y393307D02*
X435023D01*
Y404331D01*
X433842D02*
X435023D01*
X429511D02*
X430692D01*
X429511Y393307D02*
Y404331D01*
Y393307D02*
X430692D01*
X436614Y398819D02*
X442126D01*
X440945Y393307D02*
X442126D01*
Y404331D01*
X440945D02*
X442126D01*
X436614D02*
X437795D01*
X436614Y393307D02*
Y404331D01*
Y393307D02*
X437795D01*
X473212Y389764D02*
X478723D01*
X473212Y395276D02*
X474393D01*
X473212Y384252D02*
Y395276D01*
Y384252D02*
X474393D01*
X477542D02*
X478723D01*
Y395276D01*
X477542D02*
X478723D01*
X461811Y373212D02*
Y378723D01*
X468110Y377968D02*
Y378723D01*
X455512D02*
X468110D01*
X455512Y377968D02*
Y378723D01*
Y373212D02*
Y373968D01*
Y373212D02*
X468110D01*
Y373968D01*
X480315Y389764D02*
X485827D01*
X480315Y396063D02*
X481071D01*
X480315Y383465D02*
Y396063D01*
Y383465D02*
X481071D01*
X485071D02*
X485827D01*
Y396063D01*
X485071D02*
X485827D01*
X266929Y389764D02*
X272441D01*
X271260Y384252D02*
X272441D01*
Y395276D01*
X271260D02*
X272441D01*
X266929D02*
X268110D01*
X266929Y384252D02*
Y395276D01*
Y384252D02*
X268110D01*
X256693Y343701D02*
Y349213D01*
X262205Y348031D02*
Y349213D01*
X251181D02*
X262205D01*
X251181Y348031D02*
Y349213D01*
Y343701D02*
Y344882D01*
Y343701D02*
X262205D01*
Y344882D01*
X271654Y343701D02*
Y349213D01*
X266142Y343701D02*
Y344882D01*
Y343701D02*
X277165D01*
Y344882D01*
Y348031D02*
Y349213D01*
X266142D02*
X277165D01*
X266142Y348031D02*
Y349213D01*
X570079Y308661D02*
Y314173D01*
X564567Y308661D02*
Y309842D01*
Y308661D02*
X575591D01*
Y309842D01*
Y312992D02*
Y314173D01*
X564567D02*
X575591D01*
X564567Y312992D02*
Y314173D01*
X550394Y308661D02*
Y314173D01*
X555905Y312992D02*
Y314173D01*
X544882D02*
X555905D01*
X544882Y312992D02*
Y314173D01*
Y308661D02*
Y309842D01*
Y308661D02*
X555905D01*
Y309842D01*
D16*
X267754Y412642D02*
X271354D01*
X259354Y408843D02*
Y412642D01*
X262954D01*
X271354Y408843D02*
Y412642D01*
X464586Y389319D02*
Y408319D01*
X449586D02*
X464586D01*
X449586Y389319D02*
Y408319D01*
Y389319D02*
X464586D01*
D58*
X458287Y389219D02*
X457935Y390067D01*
X457087Y390419D01*
X456238Y390067D01*
X455887Y389219D01*
M02*
