M48
;Layer_Color=9474304
;FILE_FORMAT=2:5
INCH,TZ
;TYPE=PLATED
T1F00S00C0.01181
T2F00S00C0.03937
T3F00S00C0.04331
T4F00S00C0.05118
T5F00S00C0.06496
T6F00S00C0.09055
T7F00S00C0.16142
;TYPE=NON_PLATED
T8F00S00C0.07795
%
T01
X486496Y212598
Y236220
X514173Y227559
X452756Y236221
Y216535
X433071
X413386
X393701
X374016
X354331
X334646
X314961
Y236221
Y255906
X334646
X354331
X374016
X393701
X413386
X433071
X452756
Y275590
X433071
X413386
X393701
X374016
X354331
X334646
X314961
X329921Y306693
X338583
X347244
X355906
X364567
X373228
X381890
X390551
X393701Y236221
X413386
X433071
X374016
X354331
X334646
X295276
Y216535
Y255906
Y275590
X288189Y311475
X264567Y392520
X254724Y400394
X271540Y450591
X275477
X279414
X283351
X287288
X287402Y454724
X283465
X279528
X275590
X271654
X310236Y452362
X310236Y428740
X318898
X327559
X336733Y429252
X344882Y428740
X353543
X362205
X370866
X379528
X388189
X396850
X396850Y452362
X388189
X379528
X370866Y452362
X362205Y452362
X353543
X344882
X336221Y452362
X327559
X318898
X327559Y383071
X342520Y385827
Y389764
Y393701
X352362
X356299
X360236
Y397638
Y401575
X356299
Y397638
X352362
Y401575
X342570Y379972
X342520Y375984
X341732Y369291
Y365748
X348132Y359423
X348819Y343307
X351969Y344488
X355118Y343312
X358268Y344488
X361417Y343307
X364567Y344488
X367800Y343565
X380315Y344488
X383677
X394094Y345276
X392520Y330709
X389027Y330709
X383892
X380348
X375197Y330693
X371670Y330709
X366535Y330709
X362992Y330709
X357480Y330709
X353937
X348819
X345276
X340158
X336492Y330818
X331496Y330709
X327953
X345669Y344488
X370079Y356299
X374016Y358972
X383038Y356078
X389764Y360630
X389790Y372021
X374803Y372047
X380709Y378346
X380700Y381709
X403543Y386221
Y367323
X444882Y387795
Y409449
X432283Y405905
X464173Y326772
X464173Y318898
X497244
Y326772
X483071Y386221
X483071Y393307
Y404331
X483071Y411417
X525591Y427165
X537402
X533465Y419291
X606299Y417323
Y433071
X600394Y454724
X616142
X613779Y396457
X618110Y391732
X616535Y383071
X612992Y386221
X606693Y392520
X607874Y400394
X629921Y519685
Y535433
X645669
X661417
Y519685
X645669
X614173
Y535433
X598425Y519685
X582677
X566929
X559055
X535433
X527559
X511811
X496063
X480315
X527559Y488189
X537402
X533465Y472441
X600394Y490158
X616142
X464567Y519685
X448819
X440945
X425197
X409449
X393701
X377953
X362205
X346457
X330709
X322835
X307087
X291339
X275590
X259842
T02
X550236Y302559
X560236
X570236
X274173Y338091
X264173
X254173
T03
X278740Y385512
X288740
Y395512
X278740
Y405512
X288740
Y415512
X278740
Y425512
X288740
T04
X476870Y446850
X491634
X555610
X575295
X629921Y431890
X639764
X649606
X659449
Y417126
X649606
X639764
X629921
Y403543
X639764
X649606
X659449
Y393701
Y383858
Y374016
Y364173
Y354331
Y344488
Y334646
Y324803
Y314961
X649606
Y324803
Y334646
Y344488
Y354331
Y364173
Y374016
Y383858
Y393701
X639764
Y383858
Y374016
Y364173
Y354331
Y344488
Y334646
Y324803
Y314961
X629921
Y324803
Y334646
Y344488
Y354331
Y364173
Y374016
Y383858
Y393701
T05
X526707Y215610
X540093
X556267
X569653
X585827
X599213
Y268642
X585827
X569653
X556267
X540093
X526707
X526772Y479390
X540158
X556332
X569718
X585892Y479390
X599278
Y532421
X585892
X569718Y532421
X556332
X540158
X526772
X510532
X497147
X480972
Y479390
X497147
X510532
X467587
X451412
X438027
X421852
X408466
X392292
X378906
X362732
X349346
X333172Y479390
X319786
Y532421
X333172
X349346Y532421
X362732
X378906
X392292
X408466
X421852
X438027
X451412
X467587
X303612Y532421
X290226
X273727
X260341
Y479390
X273727
X290226
X303612
T06
X625984Y289567
Y457283
T07
X642126Y274410
X641142Y473425
T08
X473996Y257064
X281909Y245315
M30
