G04*
G04 #@! TF.GenerationSoftware,Altium Limited,Altium Designer,22.8.2 (66)*
G04*
G04 Layer_Physical_Order=1*
G04 Layer_Color=255*
%FSLAX25Y25*%
%MOIN*%
G70*
G04*
G04 #@! TF.SameCoordinates,268FDEF5-58AA-4C19-BA7F-D61DA105112B*
G04*
G04*
G04 #@! TF.FilePolarity,Positive*
G04*
G01*
G75*
%ADD10C,0.00984*%
%ADD13C,0.01000*%
%ADD16C,0.00787*%
%ADD22R,0.25000X0.20000*%
%ADD23R,0.03937X0.03543*%
%ADD34R,0.03543X0.03937*%
%ADD35C,0.07795*%
%ADD36C,0.09055*%
%ADD40C,0.06299*%
%ADD46R,0.02756X0.02953*%
%ADD47R,0.03543X0.03150*%
%ADD48R,0.06496X0.03543*%
%ADD49O,0.05906X0.01772*%
%ADD50R,0.07800X0.02200*%
%ADD51R,0.03543X0.06496*%
%ADD52R,0.03150X0.03150*%
%ADD53R,0.05000X0.02200*%
%ADD54R,0.02000X0.05800*%
%ADD55R,0.05800X0.02000*%
%ADD56R,0.07874X0.09449*%
%ADD57O,0.05512X0.01772*%
%ADD58R,0.03150X0.03543*%
%ADD59C,0.01181*%
%ADD60C,0.01968*%
%ADD61C,0.05906*%
%ADD62C,0.03937*%
%ADD63C,0.08661*%
%ADD64C,0.07874*%
%ADD65R,0.06299X0.06299*%
%ADD66C,0.05906*%
%ADD67C,0.16142*%
%ADD68C,0.06000*%
%ADD69C,0.02362*%
%ADD70C,0.03937*%
G36*
X533465Y468504D02*
X505905D01*
Y487008D01*
X533465D01*
Y468504D01*
D02*
G37*
G36*
X503937D02*
X476378D01*
Y487008D01*
X503937D01*
Y468504D01*
D02*
G37*
G36*
X474409D02*
X446850D01*
Y487008D01*
X474409D01*
Y468504D01*
D02*
G37*
G36*
X444882D02*
X417323D01*
Y487008D01*
X444882D01*
Y468504D01*
D02*
G37*
G36*
X415354D02*
X387795D01*
Y487008D01*
X415354D01*
Y468504D01*
D02*
G37*
G36*
X385827D02*
X358268D01*
Y487008D01*
X385827D01*
Y468504D01*
D02*
G37*
G36*
X356299D02*
X328740D01*
Y487008D01*
X356299D01*
Y468504D01*
D02*
G37*
G36*
X326772D02*
X299213D01*
Y487008D01*
X326772D01*
Y468504D01*
D02*
G37*
G36*
X297244D02*
X269685D01*
Y487169D01*
X297244D01*
Y468504D01*
D02*
G37*
G36*
X267717D02*
X240158D01*
Y487008D01*
X267717D01*
Y468504D01*
D02*
G37*
G36*
X238189D02*
X210630D01*
Y487008D01*
X238189D01*
Y468504D01*
D02*
G37*
G36*
X563779Y451795D02*
X563279Y451704D01*
X562369Y452615D01*
X561175Y453305D01*
X559843Y453661D01*
X558464D01*
X557132Y453305D01*
X555938Y452615D01*
X554964Y451640D01*
X554274Y450446D01*
X553917Y449115D01*
Y447736D01*
X554274Y446404D01*
X554964Y445210D01*
X555938Y444235D01*
X557132Y443546D01*
X558464Y443189D01*
X559843D01*
X561175Y443546D01*
X562369Y444235D01*
X563279Y445146D01*
X563779Y445055D01*
Y414567D01*
X548032D01*
X535433Y427953D01*
Y429134D01*
Y487008D01*
X563779D01*
Y451795D01*
D02*
G37*
G36*
X592520Y446850D02*
X603543Y435827D01*
X633071D01*
Y414567D01*
X589370D01*
X564961Y438976D01*
Y487008D01*
X592520D01*
Y446850D01*
D02*
G37*
G36*
X668087Y414173D02*
X645669D01*
Y425197D01*
X634091D01*
Y431612D01*
X634173Y431920D01*
Y433040D01*
X634091Y433349D01*
Y435827D01*
X634013Y436217D01*
X633792Y436548D01*
X633461Y436769D01*
X633071Y436846D01*
X603966D01*
X593539Y447273D01*
Y487008D01*
X593462Y487398D01*
X593241Y487729D01*
X592910Y487950D01*
X592520Y488027D01*
Y488189D01*
X178369D01*
Y549977D01*
X668087Y549977D01*
Y414173D01*
D02*
G37*
G36*
X210240Y467562D02*
X210630Y467484D01*
X227620D01*
Y466536D01*
X227738Y465634D01*
X228086Y464794D01*
X228640Y464073D01*
X236120Y456593D01*
X236120Y456593D01*
X236841Y456039D01*
X237681Y455691D01*
X238583Y455573D01*
X315880D01*
X347537Y423915D01*
X348259Y423362D01*
X348315Y423339D01*
X348425Y423228D01*
X348581D01*
X349099Y423014D01*
X350000Y422895D01*
X452888D01*
X471947Y403837D01*
X472668Y403283D01*
X473508Y402935D01*
X473627Y402817D01*
X474409D01*
X474409Y402817D01*
X474409Y402817D01*
X504857D01*
X545569Y362104D01*
X546290Y361551D01*
X547130Y361203D01*
X547249Y361084D01*
X548021Y361086D01*
X548032Y361084D01*
X548032Y361084D01*
X603282D01*
X621750Y342616D01*
X622471Y342063D01*
X623311Y341715D01*
X624213Y341596D01*
X627449D01*
X628138Y341198D01*
X628280Y340414D01*
Y339901D01*
X628138Y339117D01*
X627311Y338639D01*
X626519Y337847D01*
X625959Y336877D01*
X625669Y335796D01*
Y334677D01*
X625959Y333595D01*
X626519Y332626D01*
X627007Y331344D01*
X626287Y330180D01*
X616930Y320824D01*
X616689Y320463D01*
X616605Y320037D01*
X616605Y320037D01*
Y291543D01*
X600368Y275307D01*
X599417Y275856D01*
X597985Y276240D01*
X596503D01*
X595071Y275856D01*
X593787Y275115D01*
X592739Y274067D01*
X591998Y272783D01*
X591713Y271722D01*
X589389D01*
X589104Y272783D01*
X588363Y274067D01*
X587315Y275115D01*
X586031Y275856D01*
X584599Y276240D01*
X583117D01*
X581685Y275856D01*
X580401Y275115D01*
X579353Y274067D01*
X578612Y272783D01*
X578228Y271351D01*
Y269869D01*
X578612Y268437D01*
X579353Y267153D01*
X580401Y266105D01*
X581685Y265364D01*
X583117Y264980D01*
X584599D01*
X586031Y265364D01*
X587315Y266105D01*
X588363Y267153D01*
X589104Y268437D01*
X589389Y269498D01*
X591713D01*
X591998Y268437D01*
X592739Y267153D01*
X593787Y266105D01*
X595071Y265364D01*
X596503Y264980D01*
X597985D01*
X599417Y265364D01*
X600701Y266105D01*
X601749Y267153D01*
X602490Y268437D01*
X602874Y269869D01*
Y271351D01*
X602490Y272783D01*
X601941Y273735D01*
X618189Y289983D01*
X619512Y289715D01*
X620212Y289311D01*
X620381Y288458D01*
X620821Y287398D01*
X621458Y286443D01*
X622270Y285631D01*
X623224Y284994D01*
X624285Y284555D01*
X625410Y284331D01*
X626558D01*
X627684Y284555D01*
X628744Y284994D01*
X629699Y285631D01*
X630510Y286443D01*
X631148Y287398D01*
X631587Y288458D01*
X631811Y289584D01*
Y290731D01*
X631587Y291857D01*
X631148Y292917D01*
X630510Y293872D01*
X629699Y294683D01*
X628744Y295321D01*
X627684Y295760D01*
X626558Y295984D01*
X625410D01*
X624285Y295760D01*
X623224Y295321D01*
X622270Y294683D01*
X621458Y293872D01*
X620821Y292917D01*
X620797Y292860D01*
X618828Y293252D01*
Y319577D01*
X623797Y324545D01*
X625923Y323887D01*
X625959Y323752D01*
X626519Y322783D01*
X627311Y321991D01*
X628280Y321431D01*
X629361Y321142D01*
X630481D01*
X631563Y321431D01*
X632532Y321991D01*
X633324Y322783D01*
X633802Y323611D01*
X634586Y323752D01*
X635099D01*
X635883Y323611D01*
X636361Y322783D01*
X637153Y321991D01*
X638123Y321431D01*
X639204Y321142D01*
X640324D01*
X641405Y321431D01*
X642375Y321991D01*
X643166Y322783D01*
X643644Y323611D01*
X644428Y323752D01*
X644942D01*
X645726Y323611D01*
X646204Y322783D01*
X646995Y321991D01*
X647965Y321431D01*
X649047Y321142D01*
X650166D01*
X651248Y321431D01*
X652217Y321991D01*
X653009Y322783D01*
X653569Y323752D01*
X653858Y324834D01*
Y325954D01*
X653569Y327035D01*
X653009Y328005D01*
X652217Y328796D01*
X651389Y329274D01*
X651248Y330058D01*
Y330572D01*
X651389Y331356D01*
X652217Y331834D01*
X653009Y332626D01*
X653569Y333595D01*
X653858Y334677D01*
Y335796D01*
X653569Y336877D01*
X653009Y337847D01*
X652442Y339002D01*
X653241Y340292D01*
X655235Y342287D01*
X655235Y342287D01*
X655391Y342520D01*
X668087D01*
Y216535D01*
X649606D01*
Y198055D01*
X571886D01*
X569917Y198055D01*
Y220472D01*
X569840Y220863D01*
X569619Y221193D01*
X569288Y221414D01*
X568898Y221492D01*
X566732D01*
Y222539D01*
X560827D01*
Y221492D01*
X558661D01*
X558271Y221414D01*
X557940Y221193D01*
X557719Y220863D01*
X557642Y220472D01*
Y219722D01*
X554279D01*
X554203Y220006D01*
X553637Y220986D01*
X552837Y221787D01*
X551856Y222353D01*
X550763Y222646D01*
X549631D01*
X548537Y222353D01*
X547557Y221787D01*
X546757Y220986D01*
X546191Y220006D01*
X545898Y218913D01*
Y217780D01*
X546191Y216687D01*
X546757Y215707D01*
X546877Y215586D01*
X546062Y213618D01*
X520660D01*
X519518Y215263D01*
X519468Y215586D01*
X519803Y216838D01*
Y218320D01*
X519419Y219752D01*
X518678Y221036D01*
X517630Y222084D01*
X516346Y222825D01*
X514915Y223209D01*
X513432D01*
X512000Y222825D01*
X510716Y222084D01*
X509668Y221036D01*
X508927Y219752D01*
X508643Y218691D01*
X506318D01*
X506034Y219752D01*
X505293Y221036D01*
X504244Y222084D01*
X502960Y222825D01*
X501529Y223209D01*
X500046D01*
X498614Y222825D01*
X497663Y222276D01*
X494743Y225196D01*
X494382Y225437D01*
X493957Y225521D01*
X493957Y225521D01*
X491142D01*
Y226969D01*
X486417D01*
Y221850D01*
X491142D01*
Y223298D01*
X493496D01*
X496091Y220703D01*
X495541Y219752D01*
X495157Y218320D01*
Y216838D01*
X495493Y215586D01*
X495442Y215263D01*
X494300Y213618D01*
X475571D01*
Y221423D01*
X477362Y221850D01*
X477539Y221850D01*
X482087D01*
Y226969D01*
X480836D01*
Y260453D01*
X480836Y260453D01*
X480752Y260878D01*
X480511Y261239D01*
X475374Y266376D01*
Y286378D01*
X448799D01*
Y264803D01*
X473802D01*
X478613Y259992D01*
Y228492D01*
X478318Y228134D01*
X477539Y227672D01*
X475571Y228742D01*
Y235394D01*
X463071D01*
Y224409D01*
X462087D01*
Y223425D01*
X448602D01*
Y213618D01*
X260254D01*
X258288Y213622D01*
X258288Y215586D01*
Y235197D01*
X246112D01*
Y264803D01*
X258288D01*
Y286378D01*
X232448D01*
X231880Y286378D01*
X230908Y286773D01*
X230077Y287181D01*
X229582Y287676D01*
X228780Y288008D01*
Y289945D01*
X229582Y290277D01*
X230195Y290891D01*
X230528Y291692D01*
Y292560D01*
X230195Y293361D01*
X229582Y293975D01*
X228780Y294307D01*
X227913D01*
X225984Y294685D01*
Y295866D01*
X225984Y296654D01*
Y300984D01*
X225984Y300984D01*
X225604Y302902D01*
X225995Y303579D01*
X226197Y304334D01*
Y305115D01*
X225995Y305870D01*
X225604Y306547D01*
X225051Y307100D01*
X224374Y307491D01*
X223619Y307693D01*
X222837D01*
X222082Y307491D01*
X221406Y307100D01*
X220853Y306547D01*
X220462Y305870D01*
X220260Y305115D01*
Y304334D01*
X220462Y303579D01*
X220853Y302902D01*
X220472Y300984D01*
X218898D01*
X218504Y300984D01*
X213386D01*
Y299336D01*
X208268D01*
Y300787D01*
X204052D01*
X202165Y300984D01*
X201656Y300984D01*
X200591D01*
Y298425D01*
X198622D01*
Y300984D01*
X197870D01*
X197047Y300984D01*
X195902Y302478D01*
Y398327D01*
X197638D01*
Y399638D01*
X203740D01*
X204237Y398778D01*
X205037Y397977D01*
X206018Y397411D01*
X207111Y397118D01*
X208243D01*
X209337Y397411D01*
X210317Y397977D01*
X211117Y398778D01*
X211683Y399758D01*
X211976Y400851D01*
Y401983D01*
X211683Y403077D01*
X211117Y404057D01*
X210317Y404857D01*
X209337Y405423D01*
X208243Y405717D01*
X207111D01*
X206018Y405423D01*
X205037Y404857D01*
X204237Y404057D01*
X203671Y403077D01*
X203561Y402665D01*
X199480D01*
X197835Y403445D01*
Y405217D01*
X194882D01*
Y407185D01*
X197835D01*
Y408957D01*
X195902D01*
Y413189D01*
X197835D01*
Y414961D01*
X194882D01*
Y416929D01*
X197835D01*
Y418701D01*
X199305Y419904D01*
X203632D01*
X203671Y419758D01*
X204237Y418778D01*
X205037Y417977D01*
X206018Y417411D01*
X207111Y417118D01*
X208243D01*
X209337Y417411D01*
X210317Y417977D01*
X211117Y418778D01*
X211683Y419758D01*
X211976Y420851D01*
Y421983D01*
X211708Y422984D01*
X212567Y424050D01*
X212949Y424471D01*
X236356D01*
X237598Y423228D01*
Y421654D01*
X237598Y421260D01*
Y416142D01*
X239246D01*
Y413779D01*
X239100Y413779D01*
X237598D01*
Y408777D01*
X237402Y406890D01*
X237402Y406381D01*
Y404921D01*
X240158D01*
X242913D01*
Y406381D01*
X242913Y406890D01*
X242782Y408144D01*
X243306Y408950D01*
X244264Y409246D01*
X245058Y409192D01*
X245632Y408916D01*
X245850Y407914D01*
Y407242D01*
X245276Y405512D01*
X245276D01*
Y403937D01*
X250787D01*
Y405512D01*
X250787Y405512D01*
X250213Y407046D01*
Y407914D01*
X250591Y409646D01*
X250590Y409646D01*
Y414370D01*
X245472D01*
Y413770D01*
X243504Y411935D01*
X243502D01*
D01*
X242717Y411935D01*
X242717Y412081D01*
Y413779D01*
X241069D01*
Y416142D01*
X241215Y416142D01*
X242717D01*
Y421260D01*
X242717Y421654D01*
Y423228D01*
X242717Y423622D01*
Y428740D01*
X237598D01*
Y427498D01*
X212244D01*
X211665Y427382D01*
X211174Y427054D01*
X211174Y427054D01*
X209468Y425348D01*
X209337Y425423D01*
X208243Y425716D01*
X207111D01*
X206018Y425423D01*
X205037Y424858D01*
X204237Y424057D01*
X203671Y423077D01*
X203632Y422931D01*
X197638D01*
Y423819D01*
X196063D01*
X195902Y424016D01*
Y467484D01*
X208661D01*
X209052Y467562D01*
X209382Y467783D01*
X209909D01*
X210240Y467562D01*
D02*
G37*
G36*
X200591Y283268D02*
X201656D01*
X202165Y283268D01*
X204052Y283465D01*
X208268D01*
Y284915D01*
X213386D01*
Y283268D01*
X218504D01*
X218898Y283268D01*
X220472D01*
X220866Y283268D01*
X225984D01*
Y283268D01*
X227913Y283646D01*
X228780D01*
X229582Y283978D01*
X229744Y284140D01*
X231713Y283502D01*
Y264803D01*
X243888D01*
Y235197D01*
X231713D01*
Y215586D01*
X231713Y213622D01*
X229746Y213618D01*
X195902D01*
Y281774D01*
X197047Y283268D01*
X197870Y283268D01*
X198622D01*
Y285827D01*
X200591D01*
Y283268D01*
D02*
G37*
G36*
X208661Y468504D02*
X194882D01*
Y424016D01*
X191929D01*
Y422244D01*
X194882D01*
Y420276D01*
X191929D01*
Y418504D01*
X192126Y418504D01*
Y413386D01*
X194882D01*
Y408760D01*
X192126D01*
Y403642D01*
X192126D01*
Y403445D01*
X192126D01*
Y398327D01*
X194882D01*
Y212598D01*
X498154D01*
X498614Y212333D01*
X500046Y211949D01*
X501529D01*
X502960Y212333D01*
X503421Y212598D01*
X511540D01*
X512000Y212333D01*
X513432Y211949D01*
X514915D01*
X516346Y212333D01*
X516807Y212598D01*
X558661D01*
Y220472D01*
X560827D01*
Y219193D01*
X566732D01*
Y220472D01*
X568898D01*
Y198055D01*
X178369Y198055D01*
Y468504D01*
Y487008D01*
X208661D01*
Y468504D01*
D02*
G37*
%LPC*%
G36*
X642065Y483386D02*
X640219D01*
X638409Y483026D01*
X636703Y482319D01*
X635169Y481294D01*
X633863Y479989D01*
X632838Y478454D01*
X632132Y476749D01*
X631772Y474939D01*
Y473093D01*
X632132Y471283D01*
X632838Y469577D01*
X633863Y468043D01*
X635169Y466738D01*
X636703Y465712D01*
X638409Y465006D01*
X640219Y464646D01*
X642065D01*
X643875Y465006D01*
X645580Y465712D01*
X647115Y466738D01*
X648420Y468043D01*
X649445Y469577D01*
X650152Y471283D01*
X650512Y473093D01*
Y474939D01*
X650152Y476749D01*
X649445Y478454D01*
X648420Y479989D01*
X647115Y481294D01*
X645580Y482319D01*
X643875Y483026D01*
X642065Y483386D01*
D02*
G37*
G36*
X626558Y463701D02*
X625410D01*
X624285Y463477D01*
X623224Y463038D01*
X622270Y462400D01*
X621458Y461588D01*
X620821Y460634D01*
X620381Y459574D01*
X620157Y458448D01*
Y457300D01*
X620381Y456174D01*
X620821Y455114D01*
X621458Y454160D01*
X622270Y453348D01*
X623224Y452710D01*
X624285Y452271D01*
X625410Y452047D01*
X626558D01*
X627684Y452271D01*
X628744Y452710D01*
X629699Y453348D01*
X630510Y454160D01*
X631148Y455114D01*
X631587Y456174D01*
X631811Y457300D01*
Y458448D01*
X631587Y459574D01*
X631148Y460634D01*
X630510Y461588D01*
X629699Y462400D01*
X628744Y463038D01*
X627684Y463477D01*
X626558Y463701D01*
D02*
G37*
G36*
X318544Y443913D02*
X317676D01*
X316875Y443581D01*
X316261Y442968D01*
X315929Y442166D01*
Y441298D01*
X316261Y440497D01*
X316875Y439883D01*
X317676Y439551D01*
X318544D01*
X319346Y439883D01*
X319959Y440497D01*
X320291Y441298D01*
Y442166D01*
X319959Y442968D01*
X319346Y443581D01*
X318544Y443913D01*
D02*
G37*
G36*
X310670D02*
X309802D01*
X309001Y443581D01*
X308387Y442968D01*
X308055Y442166D01*
Y441298D01*
X308387Y440497D01*
X309001Y439883D01*
X309802Y439551D01*
X310670D01*
X311472Y439883D01*
X312085Y440497D01*
X312417Y441298D01*
Y442166D01*
X312085Y442968D01*
X311472Y443581D01*
X310670Y443913D01*
D02*
G37*
G36*
X294922D02*
X294054D01*
X293253Y443581D01*
X292639Y442968D01*
X292307Y442166D01*
Y441298D01*
X292639Y440497D01*
X293253Y439883D01*
X294054Y439551D01*
X294922D01*
X295724Y439883D01*
X296337Y440497D01*
X296669Y441298D01*
Y442166D01*
X296337Y442968D01*
X295724Y443581D01*
X294922Y443913D01*
D02*
G37*
G36*
X287048D02*
X286180D01*
X285379Y443581D01*
X284765Y442968D01*
X284433Y442166D01*
Y441298D01*
X284765Y440497D01*
X285379Y439883D01*
X286180Y439551D01*
X287048D01*
X287850Y439883D01*
X288463Y440497D01*
X288795Y441298D01*
Y442166D01*
X288463Y442968D01*
X287850Y443581D01*
X287048Y443913D01*
D02*
G37*
G36*
X279174D02*
X278306D01*
X277505Y443581D01*
X276891Y442968D01*
X276559Y442166D01*
Y441298D01*
X276891Y440497D01*
X277505Y439883D01*
X278306Y439551D01*
X279174D01*
X279976Y439883D01*
X280589Y440497D01*
X280921Y441298D01*
Y442166D01*
X280589Y442968D01*
X279976Y443581D01*
X279174Y443913D01*
D02*
G37*
G36*
X271300D02*
X270432D01*
X269631Y443581D01*
X269017Y442968D01*
X268685Y442166D01*
Y441298D01*
X269017Y440497D01*
X269631Y439883D01*
X270432Y439551D01*
X271300D01*
X272102Y439883D01*
X272715Y440497D01*
X273047Y441298D01*
Y442166D01*
X272715Y442968D01*
X272102Y443581D01*
X271300Y443913D01*
D02*
G37*
G36*
X263426D02*
X262558D01*
X261757Y443581D01*
X261143Y442968D01*
X260811Y442166D01*
Y441298D01*
X261143Y440497D01*
X261757Y439883D01*
X262558Y439551D01*
X263426D01*
X264228Y439883D01*
X264841Y440497D01*
X265173Y441298D01*
Y442166D01*
X264841Y442968D01*
X264228Y443581D01*
X263426Y443913D01*
D02*
G37*
G36*
X255552D02*
X254684D01*
X253883Y443581D01*
X253269Y442968D01*
X252937Y442166D01*
Y441298D01*
X253269Y440497D01*
X253883Y439883D01*
X254684Y439551D01*
X255552D01*
X256354Y439883D01*
X256967Y440497D01*
X257299Y441298D01*
Y442166D01*
X256967Y442968D01*
X256354Y443581D01*
X255552Y443913D01*
D02*
G37*
G36*
X247678D02*
X246810D01*
X246009Y443581D01*
X245395Y442968D01*
X245063Y442166D01*
Y441298D01*
X245395Y440497D01*
X246009Y439883D01*
X246810Y439551D01*
X247678D01*
X248480Y439883D01*
X249093Y440497D01*
X249425Y441298D01*
Y442166D01*
X249093Y442968D01*
X248480Y443581D01*
X247678Y443913D01*
D02*
G37*
G36*
X239804D02*
X238936D01*
X238135Y443581D01*
X237521Y442968D01*
X237189Y442166D01*
Y441298D01*
X237521Y440497D01*
X238135Y439883D01*
X238936Y439551D01*
X239804D01*
X240606Y439883D01*
X241219Y440497D01*
X241551Y441298D01*
Y442166D01*
X241219Y442968D01*
X240606Y443581D01*
X239804Y443913D01*
D02*
G37*
G36*
X231930D02*
X231062D01*
X230261Y443581D01*
X229647Y442968D01*
X229315Y442166D01*
Y441298D01*
X229647Y440497D01*
X230261Y439883D01*
X231062Y439551D01*
X231930D01*
X232732Y439883D01*
X233345Y440497D01*
X233677Y441298D01*
Y442166D01*
X233345Y442968D01*
X232732Y443581D01*
X231930Y443913D01*
D02*
G37*
G36*
X224056D02*
X223188D01*
X222387Y443581D01*
X221773Y442968D01*
X221441Y442166D01*
Y441298D01*
X221773Y440497D01*
X222387Y439883D01*
X223188Y439551D01*
X224056D01*
X224857Y439883D01*
X225471Y440497D01*
X225803Y441298D01*
Y442166D01*
X225471Y442968D01*
X224857Y443581D01*
X224056Y443913D01*
D02*
G37*
G36*
X216182D02*
X215314D01*
X214512Y443581D01*
X213899Y442968D01*
X213567Y442166D01*
Y441298D01*
X213899Y440497D01*
X214512Y439883D01*
X215314Y439551D01*
X216182D01*
X216984Y439883D01*
X217597Y440497D01*
X217929Y441298D01*
Y442166D01*
X217597Y442968D01*
X216984Y443581D01*
X216182Y443913D01*
D02*
G37*
G36*
X327264Y437635D02*
X326378D01*
Y436713D01*
X328855D01*
X328612Y437077D01*
X327993Y437490D01*
X327264Y437635D01*
D02*
G37*
G36*
X324410D02*
X323524D01*
X322794Y437490D01*
X322175Y437077D01*
X321932Y436713D01*
X324410D01*
Y437635D01*
D02*
G37*
G36*
X302796Y443913D02*
X301928D01*
X301127Y443581D01*
X300513Y442968D01*
X300181Y442166D01*
Y441298D01*
X300276Y441069D01*
X299469Y439376D01*
X299213Y439100D01*
X298864Y439031D01*
X298568Y438833D01*
X297584Y437849D01*
X297387Y437553D01*
X297317Y437205D01*
Y434872D01*
X297387Y434523D01*
X297584Y434228D01*
X298117Y433695D01*
X298947Y431958D01*
X298704Y431594D01*
X299640D01*
X299642Y431593D01*
X300295Y431463D01*
X302165D01*
Y429757D01*
X300295D01*
X299642Y429628D01*
X299640Y429626D01*
X298704D01*
X298947Y429262D01*
X298980Y429095D01*
X298760Y428765D01*
X298719Y428704D01*
X298719Y428704D01*
X298589Y428051D01*
X298719Y427398D01*
X299089Y426845D01*
X299089Y426845D01*
Y426698D01*
X298719Y426145D01*
X298589Y425492D01*
X297830Y424594D01*
X296117Y423896D01*
X295316Y424228D01*
X294448D01*
X293646Y423896D01*
X293033Y423283D01*
X292701Y422481D01*
Y421613D01*
X293033Y420812D01*
X293646Y420198D01*
X293738Y420160D01*
X293766Y419997D01*
X293542Y418111D01*
X293253Y417991D01*
X292717Y417455D01*
X292639Y417377D01*
X292639Y417377D01*
X292307Y416576D01*
X292307Y416574D01*
X292307Y415708D01*
X290488Y415650D01*
X290354D01*
Y412894D01*
X289370D01*
Y411909D01*
X286417D01*
Y411371D01*
X284716Y410312D01*
X284449Y410290D01*
X283855Y410449D01*
X283074D01*
X282319Y410247D01*
X281642Y409856D01*
X281089Y409303D01*
X280698Y408626D01*
X280496Y407871D01*
Y407090D01*
X280698Y406334D01*
X281089Y405658D01*
X281642Y405105D01*
X281915Y404947D01*
X281567Y402979D01*
X277762D01*
X277762Y397365D01*
X277762Y396809D01*
X277606Y396015D01*
X277588Y395966D01*
X277178Y395263D01*
X276475Y394853D01*
X276426Y394835D01*
X275632Y394679D01*
X275092Y394679D01*
X269462D01*
Y391104D01*
Y388841D01*
X268898Y387106D01*
X263386D01*
Y387106D01*
X262598D01*
Y387106D01*
X257087D01*
X257087Y387106D01*
X255118Y386771D01*
X254689Y387018D01*
X253934Y387221D01*
X253152D01*
X252397Y387018D01*
X251721Y386627D01*
X251168Y386075D01*
X250777Y385398D01*
X250575Y384643D01*
Y383861D01*
X250777Y383106D01*
X251168Y382429D01*
X251721Y381877D01*
X252397Y381486D01*
X253152Y381283D01*
X253934D01*
X254689Y381486D01*
X254921Y381620D01*
X256314Y381093D01*
X256890Y380616D01*
Y380217D01*
X259842D01*
Y378248D01*
X256890D01*
Y376476D01*
X256890Y376476D01*
X257268Y374843D01*
Y373976D01*
X257600Y373174D01*
X257435Y371623D01*
X257047Y371155D01*
X256812Y370920D01*
X256480Y370119D01*
Y369251D01*
X256812Y368449D01*
X257426Y367836D01*
X258228Y367504D01*
X259095D01*
X259897Y367836D01*
X260510Y368449D01*
X260603Y368673D01*
X263623D01*
X264226Y368590D01*
X265474Y367662D01*
X266087Y367049D01*
X266889Y366717D01*
X268258Y364956D01*
X267940Y364091D01*
X266642D01*
Y361319D01*
X265642D01*
Y364091D01*
X263173D01*
X262402Y364961D01*
Y364961D01*
X257283D01*
Y361786D01*
X252473Y356976D01*
X252145Y356485D01*
X252030Y355906D01*
X252030Y355906D01*
Y346291D01*
X250197Y345965D01*
X249532Y345965D01*
X248228D01*
Y343209D01*
X247244D01*
Y342224D01*
X244291D01*
X244291Y340453D01*
X244488Y338566D01*
Y335335D01*
X244488D01*
X244640Y334969D01*
X242862Y333191D01*
X242517Y333283D01*
X241735D01*
X240980Y333081D01*
X240303Y332690D01*
X239751Y332138D01*
X239360Y331461D01*
X239158Y330706D01*
Y329924D01*
X239360Y329169D01*
X239751Y328492D01*
X240303Y327940D01*
X240980Y327549D01*
X241735Y327346D01*
X242517D01*
X243272Y327549D01*
X243949Y327940D01*
X244501Y328492D01*
X244892Y329169D01*
X245094Y329924D01*
Y330706D01*
X245002Y331051D01*
X248314Y334363D01*
X248388Y334474D01*
X250000Y335335D01*
X251378Y335433D01*
Y335433D01*
X255709D01*
X255709Y339449D01*
X256819Y340575D01*
X257310Y340846D01*
X262598D01*
Y340846D01*
X263386D01*
Y340846D01*
X268898D01*
Y341892D01*
X270864D01*
X270864Y341892D01*
X271443Y342007D01*
X271934Y342335D01*
X273502Y343904D01*
X275632Y343904D01*
X276426Y343747D01*
X276475Y343730D01*
X277178Y343320D01*
X277588Y342617D01*
X277606Y342567D01*
X277762Y341774D01*
X277762Y341233D01*
Y335604D01*
X281738D01*
Y331959D01*
X281738Y331846D01*
X279498Y329606D01*
X279174Y329740D01*
X278306D01*
X277505Y329408D01*
X276891Y328795D01*
X276559Y327993D01*
Y327125D01*
X276891Y326324D01*
X277505Y325710D01*
X278306Y325378D01*
X279174D01*
X279976Y325710D01*
X280589Y326324D01*
X280921Y327125D01*
Y327993D01*
X280787Y328317D01*
X281919Y329449D01*
X282464Y329563D01*
X284315Y329061D01*
X284599Y328452D01*
X284433Y327993D01*
X284433Y327628D01*
Y327125D01*
X284765Y326324D01*
X285379Y325710D01*
X286180Y325378D01*
X287048D01*
X287850Y325710D01*
X288463Y326324D01*
X288795Y327125D01*
Y327993D01*
X288463Y328795D01*
X287850Y329408D01*
X287415Y329588D01*
X287196Y330772D01*
X287218Y330925D01*
X289202Y331556D01*
X292441Y328317D01*
X292307Y327993D01*
Y327125D01*
X292639Y326324D01*
X293253Y325710D01*
X294054Y325378D01*
X294922D01*
X295724Y325710D01*
X296337Y326324D01*
X296514Y326750D01*
X297842Y327295D01*
X298118Y327335D01*
X299123Y326925D01*
X299133Y326915D01*
X299428Y326717D01*
X299600Y326683D01*
X300738Y326098D01*
X301127Y325710D01*
X301928Y325378D01*
X302796D01*
X303598Y325710D01*
X304211Y326324D01*
X304338Y326629D01*
X305748Y327158D01*
X307028Y326786D01*
X307132Y326717D01*
X307480Y326648D01*
X307486D01*
X308492Y326219D01*
X309001Y325710D01*
X309802Y325378D01*
X310670D01*
X311472Y325710D01*
X312085Y326324D01*
X312417Y327125D01*
Y327993D01*
X313839Y329278D01*
X314535Y329433D01*
X314594Y329419D01*
X315929Y327993D01*
Y327125D01*
X316261Y326324D01*
X316875Y325710D01*
X317676Y325378D01*
X318544D01*
X319346Y325710D01*
X319959Y326324D01*
X320291Y327125D01*
Y327993D01*
X320068Y328532D01*
X320143Y329219D01*
X320802Y330736D01*
X321378Y330876D01*
X323938Y328317D01*
X323803Y327993D01*
Y327125D01*
X324135Y326324D01*
X324749Y325710D01*
X325550Y325378D01*
X326418D01*
X327220Y325710D01*
X327833Y326324D01*
X328165Y327125D01*
Y327993D01*
X327833Y328795D01*
X327220Y329408D01*
X326418Y329740D01*
X325550D01*
X325226Y329606D01*
X321815Y333017D01*
X321804Y333028D01*
X321798Y333034D01*
X321798Y333034D01*
X321502Y333232D01*
X321153Y333301D01*
X321129Y333301D01*
X320234D01*
X319139D01*
X317170Y333301D01*
X315127D01*
X315127Y333301D01*
X315127Y333301D01*
X309015D01*
X308792Y333635D01*
X309844Y335604D01*
X328537D01*
Y340380D01*
X329619Y341038D01*
X330505Y341274D01*
X330596Y341213D01*
X330792Y341175D01*
X331983Y339984D01*
Y337639D01*
X331983D01*
X332065Y335827D01*
X331983Y334014D01*
X331983D01*
Y330239D01*
X332233D01*
X333366Y328740D01*
Y325368D01*
X331590Y323592D01*
X331262Y323101D01*
X331215Y322866D01*
X331138Y322845D01*
X330461Y322454D01*
X329908Y321901D01*
X329517Y321224D01*
X329315Y320469D01*
Y319688D01*
X329517Y318933D01*
X329908Y318256D01*
X330461Y317703D01*
X331138Y317313D01*
X331893Y317110D01*
X332674D01*
X333429Y317313D01*
X334106Y317703D01*
X334659Y318256D01*
X335050Y318933D01*
X335252Y319688D01*
Y320469D01*
X335050Y321224D01*
X334879Y321519D01*
X335706Y322881D01*
X336078Y323228D01*
X336597D01*
X338484Y323031D01*
X340256Y323031D01*
Y325984D01*
Y328937D01*
X339986D01*
X338558Y330239D01*
X338558Y330670D01*
Y332046D01*
X338558Y332438D01*
X339986Y333742D01*
X341179Y333742D01*
X342486D01*
Y335827D01*
Y337911D01*
X341179Y337911D01*
X339986Y337911D01*
X338558Y339215D01*
X338558Y339608D01*
Y341414D01*
X334807D01*
X334458Y341935D01*
X335511Y343904D01*
X336837D01*
Y347004D01*
Y351316D01*
X337402Y353051D01*
X342913D01*
Y353051D01*
X343701D01*
Y353051D01*
X349213D01*
Y353051D01*
X351031Y352690D01*
X351578Y352543D01*
X352359D01*
X352362Y352544D01*
X354331Y352362D01*
Y352362D01*
X377559D01*
Y379921D01*
X354331D01*
Y368852D01*
X353420Y367941D01*
X336837D01*
Y372204D01*
Y375404D01*
Y378504D01*
Y381704D01*
Y384617D01*
X338149Y386008D01*
X339017D01*
X339818Y386340D01*
X340354Y386876D01*
X340891Y386340D01*
X341692Y386008D01*
X342560D01*
X343361Y386340D01*
X343975Y386953D01*
X344307Y387755D01*
Y388623D01*
X343975Y389424D01*
X343361Y390038D01*
X342560Y390370D01*
X341692D01*
X341636Y390347D01*
X340405Y391578D01*
X340077Y391797D01*
X339690Y391874D01*
X337475D01*
X336837Y393754D01*
Y394679D01*
X331224Y394679D01*
X330667Y394679D01*
X329873Y394835D01*
X329824Y394853D01*
X329121Y395263D01*
X328711Y395966D01*
X328694Y396015D01*
X328537Y396809D01*
X328537Y397349D01*
Y402979D01*
X328190D01*
X327374Y403903D01*
X326990Y404771D01*
X327807Y405981D01*
X327917Y406003D01*
X328470Y406372D01*
X329867Y406419D01*
X330668Y406087D01*
X331536D01*
X332338Y406419D01*
X332951Y407032D01*
X333283Y407834D01*
Y408702D01*
X333012Y409358D01*
X333519Y409568D01*
X334133Y410182D01*
X334465Y410984D01*
Y411851D01*
X334133Y412653D01*
X333519Y413266D01*
X333012Y413477D01*
X333283Y414133D01*
Y415001D01*
X333012Y415657D01*
X333519Y415868D01*
X334133Y416481D01*
X334465Y417283D01*
Y418150D01*
X334133Y418952D01*
X333655Y419429D01*
X333545Y420091D01*
X333624Y421653D01*
X333898Y421835D01*
X334700Y422167D01*
X335314Y422780D01*
X335646Y423582D01*
Y424450D01*
X335314Y425251D01*
X334700Y425865D01*
X333898Y426197D01*
X333771D01*
X333677Y426338D01*
Y427206D01*
X333345Y428007D01*
X332809Y428543D01*
X333345Y429079D01*
X333677Y429881D01*
Y430749D01*
X333345Y431551D01*
X332732Y432164D01*
X331930Y432496D01*
X331062D01*
X329473Y433619D01*
X329108Y434744D01*
X327919D01*
X327917Y434746D01*
X327264Y434875D01*
X325394D01*
X323524D01*
X322871Y434746D01*
X322868Y434744D01*
X321932D01*
X322175Y434380D01*
X321345Y432644D01*
X317029Y428328D01*
X315766Y428622D01*
X315061Y429086D01*
Y429157D01*
X314991Y429506D01*
X314794Y429802D01*
X305762Y438833D01*
X305504Y439006D01*
X305465Y439033D01*
X305129Y439426D01*
X304833Y439938D01*
X304448Y441069D01*
X304543Y441298D01*
Y442166D01*
X304211Y442968D01*
X303598Y443581D01*
X302796Y443913D01*
D02*
G37*
G36*
X419095Y419980D02*
X417126D01*
Y418209D01*
X419095D01*
Y419980D01*
D02*
G37*
G36*
X288386Y415650D02*
X286417D01*
Y413878D01*
X288386D01*
Y415650D01*
D02*
G37*
G36*
X378150Y411319D02*
X376181D01*
Y409547D01*
X378150D01*
Y411319D01*
D02*
G37*
G36*
X242913Y402953D02*
X241142D01*
Y400984D01*
X242913D01*
Y402953D01*
D02*
G37*
G36*
X239173D02*
X237402D01*
Y400984D01*
X239173D01*
Y402953D01*
D02*
G37*
G36*
X250787Y401968D02*
X249016D01*
Y400394D01*
X250787D01*
Y401968D01*
D02*
G37*
G36*
X247047D02*
X245276D01*
Y400394D01*
X247047D01*
Y401968D01*
D02*
G37*
G36*
X423819Y420866D02*
X423032Y419980D01*
X421063D01*
Y417224D01*
X420079D01*
Y416240D01*
X417126D01*
X417126Y415293D01*
X415510Y415293D01*
X407762D01*
Y412949D01*
X402434Y407621D01*
X402215Y407293D01*
X402138Y406906D01*
Y395276D01*
X399991D01*
X398537Y396518D01*
X398537Y397244D01*
X398537Y401518D01*
X398537Y402261D01*
Y404434D01*
X398734Y406321D01*
X398734Y407180D01*
Y407421D01*
X393850D01*
Y409390D01*
X398734D01*
Y410490D01*
X398537Y412377D01*
Y415293D01*
X389162D01*
X389162Y415293D01*
X387194Y415103D01*
X387062Y415235D01*
X386261Y415567D01*
X385393D01*
X384591Y415235D01*
X383978Y414621D01*
X383646Y413820D01*
Y412952D01*
X382480Y411319D01*
X380512Y411319D01*
X380118D01*
Y408563D01*
X379134D01*
Y407579D01*
X376181D01*
X376181Y405807D01*
X376378Y403920D01*
Y400689D01*
X376378Y400689D01*
X376806Y398721D01*
X376759Y398673D01*
X376368Y397996D01*
X376165Y397241D01*
Y396460D01*
X376368Y395705D01*
X376759Y395028D01*
X377311Y394475D01*
X377988Y394084D01*
X378743Y393882D01*
X379525D01*
X380280Y394084D01*
X380957Y394475D01*
X381509Y395028D01*
X381900Y395705D01*
X382102Y396460D01*
Y396573D01*
X383598Y397065D01*
X384071Y397097D01*
X384591Y396576D01*
X385393Y396244D01*
X386261D01*
X387062Y396576D01*
X387194Y396708D01*
X389162Y396518D01*
Y396518D01*
X395200D01*
X396654Y395276D01*
X396654Y394550D01*
Y393504D01*
X399606D01*
Y391535D01*
X396654D01*
Y389764D01*
X395394Y389272D01*
Y386024D01*
X398150D01*
Y385039D01*
X399134D01*
Y380807D01*
X400906D01*
Y381004D01*
X410709D01*
Y389075D01*
X410709D01*
X409449Y389961D01*
Y394550D01*
X409449Y395079D01*
X410726Y396518D01*
X415634D01*
X417520Y394632D01*
Y390551D01*
X421850D01*
X423819Y390551D01*
X424606Y390551D01*
X428937D01*
Y390551D01*
X430668Y391126D01*
X431536D01*
X432338Y391458D01*
X432951Y392072D01*
X433284Y392873D01*
Y393741D01*
X432951Y394543D01*
X432338Y395156D01*
X432041Y395279D01*
X431405Y395616D01*
X430548Y396451D01*
X430441Y397307D01*
Y402892D01*
X430364Y403279D01*
X430144Y403608D01*
X429368Y404384D01*
X428551Y406111D01*
X429370Y407036D01*
X430144Y407810D01*
X430364Y408138D01*
X430441Y408525D01*
Y414111D01*
X430548Y414967D01*
X431405Y415801D01*
X432041Y416138D01*
X432338Y416261D01*
X432951Y416875D01*
X433284Y417676D01*
Y418544D01*
X432951Y419346D01*
X432338Y419959D01*
X431536Y420291D01*
X430668D01*
X428937Y420866D01*
Y420866D01*
X423819D01*
Y420866D01*
D02*
G37*
G36*
X397165Y384055D02*
X395394D01*
Y380807D01*
X397165D01*
Y384055D01*
D02*
G37*
G36*
X229995Y370905D02*
X228824D01*
X227692Y370602D01*
X226678Y370017D01*
X225850Y369188D01*
X225264Y368174D01*
X224961Y367042D01*
Y365871D01*
X225264Y364739D01*
X225850Y363725D01*
X226678Y362897D01*
X227303Y362536D01*
X227515Y361482D01*
Y361432D01*
X227303Y360378D01*
X226678Y360017D01*
X225850Y359188D01*
X225489Y358563D01*
X224435Y358351D01*
X224384D01*
X223330Y358563D01*
X222969Y359188D01*
X222141Y360017D01*
X221127Y360602D01*
X219995Y360906D01*
X218824D01*
X217692Y360602D01*
X216678Y360017D01*
X215849Y359188D01*
X215264Y358174D01*
X214961Y357042D01*
Y355871D01*
X215264Y354739D01*
X215849Y353725D01*
X216678Y352897D01*
X217303Y352536D01*
X217515Y351482D01*
Y351431D01*
X217303Y350377D01*
X216678Y350017D01*
X215849Y349188D01*
X215264Y348174D01*
X214961Y347042D01*
Y345871D01*
X215264Y344740D01*
X215849Y343725D01*
X216678Y342897D01*
X217303Y342536D01*
X217515Y341482D01*
Y341431D01*
X217303Y340377D01*
X216678Y340017D01*
X215849Y339188D01*
X215264Y338174D01*
X214961Y337042D01*
Y335871D01*
X215264Y334739D01*
X215849Y333725D01*
X216678Y332897D01*
X217692Y332311D01*
X218824Y332008D01*
X219995D01*
X221127Y332311D01*
X222141Y332897D01*
X222969Y333725D01*
X223330Y334350D01*
X224384Y334562D01*
X224435D01*
X225489Y334350D01*
X225850Y333725D01*
X226678Y332897D01*
X226717Y332874D01*
X226190Y330906D01*
X224961D01*
Y322008D01*
X233858D01*
Y330906D01*
X232629D01*
X232102Y332874D01*
X232141Y332897D01*
X232969Y333725D01*
X233555Y334739D01*
X233858Y335871D01*
Y337042D01*
X233555Y338174D01*
X232969Y339188D01*
X232141Y340017D01*
X231516Y340377D01*
X231304Y341431D01*
Y341482D01*
X231516Y342536D01*
X232141Y342897D01*
X232969Y343725D01*
X233555Y344740D01*
X233858Y345871D01*
Y347042D01*
X233555Y348174D01*
X232969Y349188D01*
X232141Y350017D01*
X231516Y350377D01*
X231304Y351431D01*
Y351482D01*
X231516Y352536D01*
X232141Y352897D01*
X232969Y353725D01*
X233555Y354739D01*
X233858Y355871D01*
Y357042D01*
X233555Y358174D01*
X232969Y359188D01*
X232141Y360017D01*
X231516Y360378D01*
X231304Y361432D01*
Y361482D01*
X231516Y362536D01*
X232141Y362897D01*
X232969Y363725D01*
X233555Y364739D01*
X233858Y365871D01*
Y367042D01*
X233555Y368174D01*
X232969Y369188D01*
X232141Y370017D01*
X231127Y370602D01*
X229995Y370905D01*
D02*
G37*
G36*
X533366Y355984D02*
X531458Y354454D01*
X504332D01*
X504331Y354590D01*
X504331Y354487D01*
X504331Y354488D01*
X504331Y354601D01*
Y355709D01*
X499337D01*
X497457Y355921D01*
X496939Y355921D01*
X494988D01*
Y353150D01*
Y350378D01*
X496939D01*
X497457Y350378D01*
X498695Y350518D01*
X500503Y349349D01*
X500664Y348819D01*
X500733Y348470D01*
X500733Y348469D01*
X500931Y348175D01*
X500948Y348157D01*
X501522Y347583D01*
X501522D01*
X503151Y345954D01*
X503151Y345954D01*
X503374Y345731D01*
X503374Y345731D01*
X503391Y345714D01*
X503686Y345517D01*
X503687Y345516D01*
X503698Y345514D01*
X504279Y345125D01*
X504876Y342853D01*
X504421Y342315D01*
X504211Y342189D01*
X504149Y342151D01*
X502133Y342151D01*
X501186Y342980D01*
X499776Y344327D01*
X499765Y344339D01*
X499758Y344345D01*
X499758Y344345D01*
X499463Y344543D01*
X499114Y344612D01*
X499089Y344612D01*
X494020D01*
X491894Y344612D01*
X491528Y344856D01*
X490387Y346358D01*
X490257Y347011D01*
X490257Y347011D01*
X490257Y347011D01*
X489887Y347565D01*
X489334Y347934D01*
X489334Y347934D01*
X488681Y348064D01*
X484547D01*
X483894Y347934D01*
X483894Y347934D01*
X483341Y347565D01*
X483012Y347072D01*
X482971Y347011D01*
X482971Y347011D01*
X482971Y347011D01*
X482841Y346358D01*
X482841Y346358D01*
X482856Y346287D01*
X482971Y345705D01*
X483302Y345079D01*
X482971Y344452D01*
X482841Y343799D01*
X482928Y343362D01*
X482409Y342671D01*
X481930Y342266D01*
X480905Y342884D01*
Y343012D01*
X475000D01*
X475000Y341240D01*
X475197Y339353D01*
Y336122D01*
X475979D01*
X476748Y334154D01*
X475984Y333268D01*
X474016Y333227D01*
X473587Y333475D01*
X472832Y333677D01*
X472050D01*
X471295Y333475D01*
X470618Y333084D01*
X470065Y332531D01*
X469675Y331855D01*
X469472Y331100D01*
Y330318D01*
X469675Y329563D01*
X470065Y328886D01*
X470618Y328333D01*
X471295Y327942D01*
X472050Y327740D01*
X472832D01*
X473587Y327942D01*
X474016Y328190D01*
X475984Y328150D01*
X475984Y328150D01*
X481496D01*
Y328150D01*
X483071D01*
Y328150D01*
X488583D01*
Y328150D01*
X490491Y329797D01*
X491730D01*
X491732Y329662D01*
X491732Y329764D01*
X491732Y329764D01*
X491732Y329651D01*
Y328150D01*
X497244D01*
Y328150D01*
X498819D01*
Y328150D01*
X504331D01*
Y329797D01*
X507382D01*
X507382Y329651D01*
Y327953D01*
X510613D01*
X512500Y327756D01*
X514272Y327756D01*
Y330709D01*
Y333661D01*
X512500Y333661D01*
X510613Y333465D01*
X507382D01*
Y331620D01*
X504331D01*
X504331Y331766D01*
Y333268D01*
X504331D01*
X502486Y335176D01*
Y339246D01*
X502962Y339529D01*
X503827Y339720D01*
X505533Y338393D01*
X505620Y337951D01*
X506034Y337333D01*
X506652Y336919D01*
X507382Y336774D01*
X508464D01*
Y338681D01*
X509449D01*
Y339534D01*
X511516D01*
X512169Y339664D01*
X512171Y339665D01*
X513107D01*
X512864Y340029D01*
X512831Y340196D01*
X513092Y340587D01*
X513222Y341240D01*
X514476Y342725D01*
X514567Y342779D01*
X516535Y342246D01*
Y341142D01*
X522047D01*
Y341142D01*
X523622D01*
Y341142D01*
X529134D01*
Y341142D01*
X531042Y342790D01*
X532418D01*
Y342790D01*
X533366D01*
X533366Y342643D01*
Y340866D01*
X540565Y340866D01*
X541417Y340326D01*
Y340326D01*
X541417Y340326D01*
Y340326D01*
X542368Y338752D01*
X542509Y338224D01*
X542900Y337547D01*
X543453Y336995D01*
X544130Y336604D01*
X544885Y336402D01*
X545666D01*
X546421Y336604D01*
X547098Y336995D01*
X547651Y337547D01*
X548042Y338224D01*
X548244Y338979D01*
Y339761D01*
X548042Y340516D01*
X547651Y341193D01*
X547098Y341745D01*
X546421Y342136D01*
X545666Y342339D01*
X544885D01*
X544130Y342136D01*
X542290Y342103D01*
X542290Y342103D01*
X542290Y342103D01*
Y342103D01*
X541437Y342413D01*
X541437Y342560D01*
Y345866D01*
Y350866D01*
Y355984D01*
X533366D01*
Y355984D01*
D02*
G37*
G36*
X493988Y355921D02*
X491520D01*
Y353650D01*
X493988D01*
Y355921D01*
D02*
G37*
G36*
Y352650D02*
X491520D01*
Y350378D01*
X493988D01*
Y352650D01*
D02*
G37*
G36*
X557520Y350606D02*
X556653D01*
X555851Y350274D01*
X555238Y349661D01*
X554906Y348859D01*
Y347991D01*
X555238Y347190D01*
X555851Y346576D01*
X556653Y346244D01*
X557520D01*
X558322Y346576D01*
X558936Y347190D01*
X559268Y347991D01*
Y348859D01*
X558936Y349661D01*
X558322Y350274D01*
X557520Y350606D01*
D02*
G37*
G36*
X480905Y346752D02*
X478937D01*
Y344980D01*
X480905D01*
Y346752D01*
D02*
G37*
G36*
X476968D02*
X475000D01*
Y344980D01*
X476968D01*
Y346752D01*
D02*
G37*
G36*
X246260Y345965D02*
X244291D01*
Y344193D01*
X246260D01*
Y345965D01*
D02*
G37*
G36*
X600828Y350606D02*
X599960D01*
X599158Y350274D01*
X598545Y349661D01*
X598213Y348859D01*
Y347991D01*
X598545Y347190D01*
X599072Y346457D01*
X598545Y345724D01*
X598213Y344922D01*
Y344054D01*
X598545Y343253D01*
X599072Y342520D01*
X598545Y341787D01*
X598213Y340985D01*
Y340117D01*
X598545Y339316D01*
X599158Y338702D01*
X599960Y338370D01*
X600828D01*
X601629Y338702D01*
X602243Y339316D01*
X602575Y340117D01*
Y340985D01*
X602243Y341787D01*
X601715Y342520D01*
X602243Y343253D01*
X602575Y344054D01*
Y344922D01*
X602243Y345724D01*
X601715Y346457D01*
X602243Y347190D01*
X602575Y347991D01*
Y348859D01*
X602243Y349661D01*
X601629Y350274D01*
X600828Y350606D01*
D02*
G37*
G36*
X344454Y337911D02*
Y336811D01*
X346954D01*
Y337911D01*
X344454D01*
D02*
G37*
G36*
X513107Y337697D02*
X510433D01*
Y336774D01*
X511516D01*
X512245Y336919D01*
X512864Y337333D01*
X513107Y337697D01*
D02*
G37*
G36*
X346954Y334842D02*
X344454D01*
Y333742D01*
X346954D01*
Y334842D01*
D02*
G37*
G36*
X516240Y333661D02*
Y331693D01*
X518012D01*
Y333661D01*
X516240D01*
D02*
G37*
G36*
X518012Y329724D02*
X516240D01*
Y327756D01*
X518012D01*
Y329724D01*
D02*
G37*
G36*
X342224Y328937D02*
Y326969D01*
X343996D01*
Y328937D01*
X342224D01*
D02*
G37*
G36*
X343996Y325000D02*
X342224D01*
Y323031D01*
X343996D01*
Y325000D01*
D02*
G37*
G36*
X251221Y325410D02*
X250354D01*
X249552Y325077D01*
X248938Y324464D01*
X248606Y323662D01*
Y322795D01*
X248938Y321993D01*
X249552Y321379D01*
X250354Y321047D01*
X251221D01*
X252023Y321379D01*
X252637Y321993D01*
X252969Y322795D01*
Y323662D01*
X252637Y324464D01*
X252023Y325077D01*
X251221Y325410D01*
D02*
G37*
G36*
X573269Y323047D02*
X572401D01*
X571599Y322715D01*
X570986Y322102D01*
X570653Y321300D01*
Y320432D01*
X570986Y319631D01*
X571513Y318898D01*
X570986Y318165D01*
X570653Y317363D01*
Y316495D01*
X570986Y315694D01*
X571513Y314961D01*
X570986Y314228D01*
X570653Y313426D01*
Y312558D01*
X570986Y311757D01*
X571599Y311143D01*
X572401Y310811D01*
X573269D01*
X574070Y311143D01*
X574684Y311757D01*
X575016Y312558D01*
Y313426D01*
X574684Y314228D01*
X574156Y314961D01*
X574684Y315694D01*
X575016Y316495D01*
Y317363D01*
X574684Y318165D01*
X574156Y318898D01*
X574684Y319631D01*
X575016Y320432D01*
Y321300D01*
X574684Y322102D01*
X574070Y322715D01*
X573269Y323047D01*
D02*
G37*
G36*
X326418Y307299D02*
X325550D01*
X324749Y306967D01*
X324135Y306354D01*
X323803Y305552D01*
Y304684D01*
X324135Y303883D01*
X324749Y303269D01*
X325550Y302937D01*
X326418D01*
X327220Y303269D01*
X327833Y303883D01*
X328165Y304684D01*
Y305552D01*
X327833Y306354D01*
X327220Y306967D01*
X326418Y307299D01*
D02*
G37*
G36*
X318544D02*
X317676D01*
X316875Y306967D01*
X316261Y306354D01*
X315929Y305552D01*
Y304684D01*
X316261Y303883D01*
X316875Y303269D01*
X317676Y302937D01*
X318544D01*
X319346Y303269D01*
X319959Y303883D01*
X320291Y304684D01*
Y305552D01*
X319959Y306354D01*
X319346Y306967D01*
X318544Y307299D01*
D02*
G37*
G36*
X310670D02*
X309802D01*
X309001Y306967D01*
X308387Y306354D01*
X308055Y305552D01*
Y304684D01*
X308387Y303883D01*
X309001Y303269D01*
X309802Y302937D01*
X310670D01*
X311472Y303269D01*
X312085Y303883D01*
X312417Y304684D01*
Y305552D01*
X312085Y306354D01*
X311472Y306967D01*
X310670Y307299D01*
D02*
G37*
G36*
X302796D02*
X301928D01*
X301127Y306967D01*
X300513Y306354D01*
X300181Y305552D01*
Y304684D01*
X300513Y303883D01*
X301127Y303269D01*
X301928Y302937D01*
X302796D01*
X303598Y303269D01*
X304211Y303883D01*
X304543Y304684D01*
Y305552D01*
X304211Y306354D01*
X303598Y306967D01*
X302796Y307299D01*
D02*
G37*
G36*
X294922D02*
X294054D01*
X293253Y306967D01*
X292639Y306354D01*
X292307Y305552D01*
Y304684D01*
X292639Y303883D01*
X293253Y303269D01*
X294054Y302937D01*
X294922D01*
X295724Y303269D01*
X296337Y303883D01*
X296669Y304684D01*
Y305552D01*
X296337Y306354D01*
X295724Y306967D01*
X294922Y307299D01*
D02*
G37*
G36*
X287048D02*
X286180D01*
X285379Y306967D01*
X284765Y306354D01*
X284433Y305552D01*
Y304684D01*
X284765Y303883D01*
X285379Y303269D01*
X286180Y302937D01*
X287048D01*
X287850Y303269D01*
X288463Y303883D01*
X288795Y304684D01*
Y305552D01*
X288463Y306354D01*
X287850Y306967D01*
X287048Y307299D01*
D02*
G37*
G36*
X279174D02*
X278306D01*
X277505Y306967D01*
X276891Y306354D01*
X276559Y305552D01*
Y304684D01*
X276891Y303883D01*
X277505Y303269D01*
X278306Y302937D01*
X279174D01*
X279976Y303269D01*
X280589Y303883D01*
X280921Y304684D01*
Y305552D01*
X280589Y306354D01*
X279976Y306967D01*
X279174Y307299D01*
D02*
G37*
G36*
X480749Y299425D02*
X479881D01*
X479079Y299093D01*
X478466Y298480D01*
X478134Y297678D01*
Y297088D01*
X477756Y295275D01*
X477756D01*
Y290157D01*
X477756Y289764D01*
Y288189D01*
X477756Y287795D01*
Y282677D01*
X477805D01*
X479203Y281496D01*
X479288Y281070D01*
X479529Y280710D01*
X490414Y269824D01*
X490414Y269824D01*
X490775Y269583D01*
X491201Y269498D01*
X491201Y269498D01*
X495257D01*
X495541Y268437D01*
X496282Y267153D01*
X497331Y266105D01*
X498614Y265364D01*
X500046Y264980D01*
X501529D01*
X502960Y265364D01*
X504244Y266105D01*
X505293Y267153D01*
X506034Y268437D01*
X506318Y269498D01*
X508643D01*
X508927Y268437D01*
X509668Y267153D01*
X510716Y266105D01*
X512000Y265364D01*
X513432Y264980D01*
X514915D01*
X516346Y265364D01*
X517630Y266105D01*
X518678Y267153D01*
X519419Y268437D01*
X519803Y269869D01*
Y271351D01*
X519419Y272783D01*
X518678Y274067D01*
X517630Y275115D01*
X516346Y275856D01*
X514915Y276240D01*
X513432D01*
X512000Y275856D01*
X510716Y275115D01*
X509668Y274067D01*
X508927Y272783D01*
X508643Y271722D01*
X506318D01*
X506034Y272783D01*
X505293Y274067D01*
X504244Y275115D01*
X502960Y275856D01*
X501529Y276240D01*
X500046D01*
X498614Y275856D01*
X497331Y275115D01*
X496282Y274067D01*
X495541Y272783D01*
X495257Y271722D01*
X491661D01*
X482675Y280709D01*
X482874Y282677D01*
X482874D01*
Y287795D01*
X482874Y288189D01*
Y289764D01*
X482874Y290157D01*
Y295275D01*
X482874D01*
X482496Y297088D01*
Y297678D01*
X482164Y298480D01*
X481551Y299093D01*
X480749Y299425D01*
D02*
G37*
G36*
X643049Y284370D02*
X641203D01*
X639393Y284010D01*
X637688Y283304D01*
X636153Y282278D01*
X634848Y280973D01*
X633822Y279438D01*
X633116Y277733D01*
X632756Y275923D01*
Y274077D01*
X633116Y272267D01*
X633822Y270562D01*
X634848Y269027D01*
X636153Y267722D01*
X637688Y266696D01*
X639393Y265990D01*
X641203Y265630D01*
X643049D01*
X644859Y265990D01*
X646564Y266696D01*
X648099Y267722D01*
X649404Y269027D01*
X650430Y270562D01*
X651136Y272267D01*
X651496Y274077D01*
Y275923D01*
X651136Y277733D01*
X650430Y279438D01*
X649404Y280973D01*
X648099Y282278D01*
X646564Y283304D01*
X644859Y284010D01*
X643049Y284370D01*
D02*
G37*
G36*
X450271Y259882D02*
X448903D01*
X447581Y259528D01*
X446396Y258843D01*
X445428Y257876D01*
X444744Y256691D01*
X444390Y255369D01*
Y254001D01*
X444744Y252679D01*
X445428Y251494D01*
X446396Y250526D01*
X447581Y249842D01*
X448903Y249488D01*
X450271D01*
X451593Y249842D01*
X452778Y250526D01*
X453745Y251494D01*
X454429Y252679D01*
X454783Y254001D01*
Y255369D01*
X454429Y256691D01*
X453745Y257876D01*
X452778Y258843D01*
X451593Y259528D01*
X450271Y259882D01*
D02*
G37*
G36*
X258184Y250512D02*
X256816D01*
X255494Y250158D01*
X254309Y249474D01*
X253342Y248506D01*
X252657Y247321D01*
X252303Y245999D01*
Y244631D01*
X252657Y243309D01*
X253342Y242124D01*
X254309Y241156D01*
X255494Y240472D01*
X256816Y240118D01*
X258184D01*
X259506Y240472D01*
X260691Y241156D01*
X261659Y242124D01*
X262343Y243309D01*
X262697Y244631D01*
Y245999D01*
X262343Y247321D01*
X261659Y248506D01*
X260691Y249474D01*
X259506Y250158D01*
X258184Y250512D01*
D02*
G37*
G36*
X566732Y232185D02*
X564764D01*
Y230413D01*
X566732D01*
Y232185D01*
D02*
G37*
G36*
X562795D02*
X560827D01*
Y230413D01*
X562795D01*
Y232185D01*
D02*
G37*
G36*
X461102Y235394D02*
X448602D01*
Y225394D01*
X461102D01*
Y235394D01*
D02*
G37*
G36*
X566732Y226279D02*
X564764D01*
Y224508D01*
X566732D01*
Y226279D01*
D02*
G37*
G36*
X562795D02*
X560827D01*
Y224508D01*
X562795D01*
Y226279D01*
D02*
G37*
G36*
X550763Y242646D02*
X549631D01*
X548537Y242353D01*
X547557Y241787D01*
X546757Y240986D01*
X546191Y240006D01*
X545898Y238913D01*
Y237780D01*
X546191Y236687D01*
X546757Y235707D01*
X547557Y234906D01*
X548537Y234340D01*
X549631Y234047D01*
X550763D01*
X551856Y234340D01*
X552837Y234906D01*
X553637Y235707D01*
X554203Y236687D01*
X554350Y237234D01*
X559401D01*
X560827Y235925D01*
X560827Y234154D01*
X563780D01*
X567032D01*
X568701Y234845D01*
X579759Y223786D01*
X579708Y221391D01*
X579353Y221036D01*
X578612Y219752D01*
X578228Y218320D01*
Y216838D01*
X578612Y215406D01*
X579353Y214122D01*
X580401Y213074D01*
X581685Y212333D01*
X583117Y211949D01*
X584599D01*
X586031Y212333D01*
X587315Y213074D01*
X588363Y214122D01*
X589104Y215406D01*
X589389Y216467D01*
X591713D01*
X591998Y215406D01*
X592739Y214122D01*
X593787Y213074D01*
X595071Y212333D01*
X596503Y211949D01*
X597985D01*
X599417Y212333D01*
X600701Y213074D01*
X601749Y214122D01*
X602490Y215406D01*
X602874Y216838D01*
Y218320D01*
X602490Y219752D01*
X601749Y221036D01*
X600701Y222084D01*
X599417Y222825D01*
X597985Y223209D01*
X596503D01*
X595071Y222825D01*
X593787Y222084D01*
X592739Y221036D01*
X591998Y219752D01*
X591713Y218691D01*
X589389D01*
X589104Y219752D01*
X588363Y221036D01*
X587315Y222084D01*
X586031Y222825D01*
X584599Y223209D01*
X583482D01*
X567420Y239270D01*
X567059Y239511D01*
X566634Y239596D01*
X566536Y241043D01*
X561024D01*
Y239458D01*
X554350D01*
X554203Y240006D01*
X553637Y240986D01*
X552837Y241787D01*
X551856Y242353D01*
X550763Y242646D01*
D02*
G37*
%LPD*%
G36*
X326792Y395604D02*
X327332Y395604D01*
X328126Y395447D01*
X328175Y395430D01*
X328878Y395020D01*
X329288Y394317D01*
X329306Y394267D01*
X329462Y393474D01*
X329462Y392917D01*
Y391104D01*
Y386842D01*
X329440Y386810D01*
X327599Y385646D01*
X326731D01*
X325930Y385314D01*
X325316Y384700D01*
X324984Y383898D01*
Y383031D01*
X325316Y382229D01*
X325930Y381615D01*
X326731Y381283D01*
X327599D01*
X329440Y380119D01*
X329462Y380087D01*
Y375404D01*
Y372204D01*
Y369104D01*
Y365904D01*
Y363391D01*
X329250D01*
Y361891D01*
X333150D01*
Y360891D01*
X329250D01*
Y359391D01*
X329462D01*
Y355396D01*
X329317Y355299D01*
X328255Y354237D01*
X328035Y353908D01*
X327958Y353521D01*
Y347201D01*
X326039Y346337D01*
X325237Y346669D01*
X324369D01*
X323568Y346337D01*
X322835Y345810D01*
X322102Y346337D01*
X321300Y346669D01*
X320432D01*
X319631Y346337D01*
X319017Y345724D01*
X318731Y345032D01*
X317970Y344686D01*
X317027Y344373D01*
X316084Y345390D01*
Y347523D01*
X316015Y347872D01*
X315817Y348167D01*
X314447Y349552D01*
X314779Y350354D01*
Y351221D01*
X314447Y352023D01*
X313834Y352637D01*
X313032Y352969D01*
X312165D01*
X311363Y352637D01*
X310749Y352023D01*
X310417Y351221D01*
Y350354D01*
X310749Y349552D01*
X311207Y348622D01*
X310749Y347692D01*
X309464Y346939D01*
X308489Y346988D01*
X308308Y347063D01*
X307440D01*
X306639Y346731D01*
X306025Y346117D01*
X305693Y345316D01*
Y344448D01*
X304171Y342979D01*
X299142D01*
X297457Y344054D01*
Y344922D01*
X297125Y345724D01*
X296511Y346337D01*
X295709Y346669D01*
X294842D01*
X294040Y346337D01*
X293426Y345724D01*
X293094Y344922D01*
Y344054D01*
X291409Y342979D01*
X279508D01*
X278967Y342979D01*
X278173Y343135D01*
X278124Y343153D01*
X277421Y343563D01*
X277011Y344266D01*
X276993Y344315D01*
X276892Y344830D01*
X277050Y346791D01*
X277050D01*
Y348291D01*
X273150D01*
Y349291D01*
X277050D01*
Y350539D01*
X277849Y351564D01*
X278455Y352150D01*
X279174D01*
X279976Y352482D01*
X280589Y353095D01*
X280921Y353897D01*
Y354765D01*
X280589Y355566D01*
X280168Y356693D01*
X280589Y357820D01*
X280921Y358621D01*
Y359489D01*
X280589Y360291D01*
X279976Y360904D01*
X279174Y361236D01*
X278306D01*
X276837Y362758D01*
Y365904D01*
Y369104D01*
Y372204D01*
Y375404D01*
Y378291D01*
X277050D01*
Y379791D01*
X273150D01*
Y380791D01*
X277050D01*
Y382291D01*
X276837D01*
Y384804D01*
Y388004D01*
Y391104D01*
X276837Y392917D01*
X276837Y393474D01*
X276993Y394267D01*
X277011Y394317D01*
X277421Y395020D01*
X278124Y395430D01*
X278173Y395447D01*
X278967Y395604D01*
X279508Y395604D01*
X326792D01*
D02*
G37*
%LPC*%
G36*
X566732Y217224D02*
X564764D01*
Y215453D01*
X566732D01*
Y217224D01*
D02*
G37*
G36*
X562795D02*
X560827D01*
Y215453D01*
X562795D01*
Y217224D01*
D02*
G37*
%LPD*%
D10*
X265509Y371571D02*
X268430D01*
X272813Y371228D02*
X273150Y370891D01*
X273163Y355105D02*
X277593D01*
X273161Y358279D02*
X277592D01*
X278367Y359055D01*
X278740D01*
X278367Y354331D02*
X278740D01*
X277593Y355105D02*
X278367Y354331D01*
X337475Y390862D02*
X339690D01*
X341256Y389059D02*
Y389296D01*
Y389059D02*
X342126Y388189D01*
X333150Y389791D02*
X336404D01*
X339690Y390862D02*
X341256Y389296D01*
X336404Y389791D02*
X337475Y390862D01*
X333150Y386591D02*
X336985D01*
X338583Y388189D01*
X333870Y339527D02*
X334860D01*
X334252Y338919D02*
X334860Y339527D01*
X334252Y335827D02*
Y338919D01*
X334860Y339527D02*
X335270D01*
X330983Y342148D02*
X331249D01*
X328970Y344161D02*
X330983Y342148D01*
X328970Y344161D02*
Y353521D01*
X330032Y354583D01*
X332642D01*
X333150Y355091D01*
X331249Y342148D02*
X333870Y339527D01*
X426378Y418110D02*
X431102D01*
X426378Y393307D02*
X431102D01*
X426378Y417913D02*
Y418110D01*
Y417913D02*
X429429Y414862D01*
Y408525D02*
Y414862D01*
X427802Y406898D02*
X429429Y408525D01*
X426378Y393307D02*
Y393504D01*
X416434Y404913D02*
X427408D01*
X426378Y393504D02*
X429429Y396555D01*
Y402892D01*
X427408Y404913D02*
X429429Y402892D01*
X416434Y406898D02*
X427802D01*
X412450Y408405D02*
X415250D01*
X415857Y404337D02*
X416434Y404913D01*
X415250Y403406D02*
X415857Y404013D01*
X412450Y403406D02*
X415250D01*
X415857Y407474D02*
X416434Y406898D01*
X415857Y407474D02*
Y407798D01*
X415250Y408405D02*
X415857Y407798D01*
Y404013D02*
Y404337D01*
X408150Y385039D02*
Y386516D01*
X406693Y387972D02*
Y392520D01*
Y387972D02*
X408150Y386516D01*
X409650Y413406D02*
X412450D01*
X403150Y385039D02*
Y406906D01*
X409650Y413406D01*
X420079Y393307D02*
Y393504D01*
X415857Y397725D02*
X420079Y393504D01*
X415857Y397725D02*
Y397798D01*
X415250Y398406D02*
X415857Y397798D01*
X412450Y398406D02*
X415250D01*
X420079Y400394D02*
X426378D01*
X420965Y411024D02*
X426378D01*
X420079Y411909D02*
X420965Y411024D01*
X480315Y292520D02*
Y297244D01*
Y292520D02*
X480315Y292520D01*
X273150Y355091D02*
X273163Y355105D01*
X273150Y358291D02*
X273161Y358279D01*
X262992Y372835D02*
X263259D01*
X268963Y374039D02*
X269011Y373991D01*
X264463Y374039D02*
X268963D01*
X269011Y373991D02*
X273150D01*
X263259Y372835D02*
X264463Y374039D01*
X268430Y371571D02*
X268773Y371228D01*
X263623Y369685D02*
X265509Y371571D01*
X258661Y369685D02*
X263623D01*
X268773Y371228D02*
X272813D01*
X259449Y374410D02*
X259715D01*
X261295Y375990D02*
X268449D01*
X259715Y374410D02*
X261295Y375990D01*
X268449D02*
X269143Y376683D01*
X272642D01*
X366240Y361713D02*
X369685Y358268D01*
X357480Y361713D02*
X366240D01*
X366240Y370571D02*
X369685Y374016D01*
X357480Y370571D02*
X366240D01*
X333150Y367691D02*
X333912Y366929D01*
X353839D02*
X357480Y370571D01*
X333912Y366929D02*
X353839D01*
X353642Y365354D02*
X357283Y361713D01*
X333150Y364591D02*
X333913Y365354D01*
X353642D01*
X357283Y361713D02*
X357480D01*
X272642Y376683D02*
X273150Y377191D01*
D13*
X385827Y398425D02*
X385837Y398415D01*
X393840D02*
X393850Y398406D01*
X385837Y398415D02*
X393840D01*
X393840Y413396D02*
X393850Y413406D01*
X385827Y413386D02*
X385837Y413396D01*
X393840D01*
D16*
X333038Y424016D02*
X333465D01*
X332070Y423047D02*
X333038Y424016D01*
X325508Y423047D02*
X332070D01*
X325394Y425492D02*
X329790D01*
X325394Y428051D02*
X325582Y428239D01*
X331398Y430315D02*
X331496D01*
X329323Y428239D02*
X331398Y430315D01*
X325582Y428239D02*
X329323D01*
X329790Y425492D02*
X331070Y426772D01*
X330676Y414567D02*
X331102D01*
X325394Y415256D02*
X329987D01*
X329981Y411719D02*
X331982D01*
X332283Y411417D01*
X325394Y412697D02*
X325582Y412508D01*
X329191D01*
X329981Y411719D01*
X329421Y409949D02*
X331102Y408268D01*
X325394Y410138D02*
X325582Y409949D01*
X294488Y416142D02*
X297736D01*
X296850Y418898D02*
X297276D01*
X294882Y422047D02*
X295308D01*
X296194Y422933D01*
X301977Y420186D02*
X302165Y420374D01*
X298565Y420186D02*
X301977D01*
X299221Y417627D02*
X301977D01*
X297736Y416142D02*
X299221Y417627D01*
X301977D02*
X302165Y417815D01*
X298532Y415068D02*
X301977D01*
X296850Y413386D02*
X298532Y415068D01*
X299537Y412205D02*
X300029Y412697D01*
X294094Y410630D02*
X297736D01*
X299311Y412205D02*
X299537D01*
X300029Y412697D02*
X302165D01*
X297736Y410630D02*
X299311Y412205D01*
X297117Y408895D02*
X297822D01*
X298876Y409949D02*
X301977D01*
X297822Y408895D02*
X298876Y409949D01*
X295276Y407480D02*
X295702D01*
X301977Y409949D02*
X302165Y410138D01*
X295702Y407480D02*
X297117Y408895D01*
X272131Y368710D02*
X273150Y367691D01*
X269573Y368898D02*
X269760Y368710D01*
X272131D01*
X267323Y368898D02*
X269573D01*
X307862Y344870D02*
X307874Y344882D01*
X307862Y339303D02*
Y344870D01*
X313665Y349031D02*
X313665D01*
X313387D02*
X313665D01*
X315173Y345390D02*
Y347523D01*
X315116Y347581D02*
X315173Y347523D01*
X312598Y349820D02*
X313387Y349031D01*
X312598Y349820D02*
Y350787D01*
X314976Y345193D02*
X315173Y345390D01*
X314976Y345027D02*
Y345193D01*
X313665Y349031D02*
X315116Y347581D01*
X501968Y353543D02*
X537402D01*
X486713Y343701D02*
X499114D01*
X501575Y341240D01*
X501870D02*
X509449D01*
X501575D02*
X501870D01*
X501575Y330709D02*
Y340945D01*
X501870Y341240D01*
X486614Y343799D02*
X486713Y343701D01*
X248031Y407480D02*
Y412008D01*
X248031Y412008D02*
X248031Y412008D01*
X324803Y344169D02*
X326143Y342828D01*
X324803Y344169D02*
Y344488D01*
X326143Y339898D02*
X326750Y339291D01*
X326143Y339898D02*
Y342828D01*
X320450Y343752D02*
X320866Y344169D01*
X320450Y339291D02*
Y343752D01*
X320866Y344169D02*
Y344488D01*
X295263Y344475D02*
X295276Y344488D01*
X295250Y339291D02*
X295263Y339304D01*
Y344475D01*
X307850Y339291D02*
X307862Y339303D01*
X501575Y353150D02*
X501968Y353543D01*
X501575Y353150D02*
X501575Y353150D01*
X327165Y383465D02*
X327179Y383478D01*
X333136D02*
X333150Y383491D01*
X327179Y383478D02*
X333136D01*
X526378Y343701D02*
X537126D01*
X537402Y343425D01*
X519193Y343799D02*
X519291Y343701D01*
X509449Y343799D02*
X519193D01*
X501575Y348819D02*
Y353150D01*
Y348819D02*
X504035Y346358D01*
X509449D01*
X491831Y341240D02*
X494488Y338583D01*
X486614Y341240D02*
X491831D01*
X494488Y330709D02*
Y338583D01*
X485827Y330709D02*
X494488D01*
X501575D02*
X509941D01*
X298450Y339291D02*
X299056Y338685D01*
Y335983D02*
X307480Y327559D01*
X310236D01*
X299056Y335983D02*
Y338685D01*
X306006Y331102D02*
X314567D01*
X301550Y335559D02*
Y339291D01*
Y335559D02*
X306006Y331102D01*
X304750Y334620D02*
X306980Y332390D01*
X321153D01*
X314567Y331102D02*
X318110Y327559D01*
X321153Y332390D02*
X325984Y327559D01*
X304750Y334620D02*
Y339291D01*
X299777Y327559D02*
X302362D01*
X292126Y339268D02*
X292150Y339291D01*
X292126Y335210D02*
Y339268D01*
Y335210D02*
X299777Y327559D01*
X288950Y333098D02*
X294488Y327559D01*
X288950Y333098D02*
Y339291D01*
X285850Y328643D02*
Y339291D01*
Y328643D02*
X286614Y327879D01*
Y327559D02*
Y327879D01*
X282650Y331469D02*
Y339291D01*
X278740Y327559D02*
X282650Y331469D01*
X314161Y344212D02*
X314976Y345027D01*
X311037Y339304D02*
Y344895D01*
X312598Y346457D01*
X314161Y339303D02*
Y344212D01*
X314150Y339291D02*
X314161Y339303D01*
X311037Y339304D02*
X311050Y339291D01*
X205906Y285827D02*
X205906Y285827D01*
X216142D01*
X205906Y292126D02*
X216142D01*
X205906Y298425D02*
X205906Y298425D01*
X216142D01*
X223228Y285827D02*
X228346D01*
X223228Y285827D02*
X223228Y285827D01*
X223228Y292126D02*
X228346D01*
X223228Y292126D02*
X223228Y292126D01*
X247047Y411024D02*
X248031Y412008D01*
X240158Y411024D02*
X247047D01*
X240158D02*
Y418898D01*
X305118Y438189D02*
X314150Y429157D01*
Y399291D02*
Y429157D01*
X299213Y438189D02*
X305118D01*
X302165Y435728D02*
X305610D01*
X311050Y430289D01*
Y399291D02*
Y430289D01*
X298228Y437205D02*
X299213Y438189D01*
X298228Y434872D02*
Y437205D01*
Y434872D02*
X299439Y433661D01*
X322971Y432981D02*
X325205D01*
X317350Y399291D02*
Y427359D01*
X322971Y432981D01*
X325205D02*
X325394Y433169D01*
X322971Y430422D02*
X325205D01*
X320450Y399291D02*
Y427900D01*
X322971Y430422D01*
X325205D02*
X325394Y430610D01*
X300029Y433169D02*
X302165D01*
X299537Y433661D02*
X300029Y433169D01*
X299439Y433661D02*
X299537D01*
X323736Y399378D02*
Y403372D01*
X325394Y405030D02*
Y407579D01*
X323736Y403372D02*
X325394Y405030D01*
X323650Y399291D02*
X323736Y399378D01*
X330266Y420423D02*
X330315Y420472D01*
X325394Y422933D02*
X325508Y423047D01*
X325582Y409949D02*
X329421D01*
X329987Y415256D02*
X330676Y414567D01*
X332234Y417766D02*
X332283Y417717D01*
X325394Y417815D02*
X325443Y417766D01*
X332234D01*
X325394Y420374D02*
X325443Y420423D01*
X330266D01*
X331070Y426772D02*
X331496D01*
X301977Y415068D02*
X302165Y415256D01*
X297276Y418898D02*
X298565Y420186D01*
X296194Y422933D02*
X302165D01*
X654692Y208170D02*
X656332D01*
X655512D01*
Y213090D01*
X654692Y212270D01*
D22*
X462087Y224409D02*
D03*
X245000D02*
D03*
X462087Y275590D02*
D03*
X245000D02*
D03*
D23*
X266142Y348721D02*
D03*
Y343406D02*
D03*
Y356004D02*
D03*
Y361319D02*
D03*
X289370Y412894D02*
D03*
Y407579D02*
D03*
X526378Y343701D02*
D03*
X519291D02*
D03*
X477953Y343996D02*
D03*
Y338681D02*
D03*
X501575Y353150D02*
D03*
X494488D02*
D03*
X478740Y330709D02*
D03*
X485827D02*
D03*
X494488D02*
D03*
X501575D02*
D03*
X385433Y408563D02*
D03*
Y403248D02*
D03*
X379134Y408563D02*
D03*
Y403248D02*
D03*
X420079Y411909D02*
D03*
Y417224D02*
D03*
X406693Y392520D02*
D03*
X399606D02*
D03*
X247244Y337894D02*
D03*
Y343209D02*
D03*
X259842Y343406D02*
D03*
Y348721D02*
D03*
X216142Y292126D02*
D03*
X223228D02*
D03*
X216142Y285827D02*
D03*
X223228D02*
D03*
Y298425D02*
D03*
X216142D02*
D03*
X346457Y360925D02*
D03*
Y355610D02*
D03*
X340158Y360925D02*
D03*
Y355610D02*
D03*
X266142Y379232D02*
D03*
Y384547D02*
D03*
X259842Y379232D02*
D03*
Y384547D02*
D03*
X357480Y375886D02*
D03*
Y370571D02*
D03*
Y356398D02*
D03*
Y361713D02*
D03*
X194882Y415945D02*
D03*
Y421260D02*
D03*
Y406201D02*
D03*
Y400886D02*
D03*
X563780Y233169D02*
D03*
Y238484D02*
D03*
X563780Y223524D02*
D03*
Y218209D02*
D03*
D34*
X259842Y355118D02*
D03*
Y362205D02*
D03*
X240158Y425984D02*
D03*
Y418898D02*
D03*
Y411024D02*
D03*
Y403937D02*
D03*
X515256Y330709D02*
D03*
X509941D02*
D03*
X426378Y418110D02*
D03*
Y411024D02*
D03*
X420079Y400394D02*
D03*
Y393307D02*
D03*
X426378Y400394D02*
D03*
Y393307D02*
D03*
X335925Y325984D02*
D03*
X341240D02*
D03*
X480315Y285433D02*
D03*
Y292520D02*
D03*
D35*
X257500Y245315D02*
D03*
X449587Y254685D02*
D03*
D36*
X625984Y457874D02*
D03*
Y290158D02*
D03*
D40*
X219409Y326457D02*
D03*
X229410Y336457D02*
D03*
X219409D02*
D03*
X229410Y346457D02*
D03*
X219409D02*
D03*
X229410Y356457D02*
D03*
X219409D02*
D03*
X229410Y366457D02*
D03*
X219409D02*
D03*
D46*
X253543Y337697D02*
D03*
Y343406D02*
D03*
D47*
X248031Y402953D02*
D03*
Y412008D02*
D03*
D48*
X537402Y343425D02*
D03*
Y353425D02*
D03*
Y348425D02*
D03*
D49*
X509449Y338681D02*
D03*
Y341240D02*
D03*
Y343799D02*
D03*
Y346358D02*
D03*
X486614Y338681D02*
D03*
Y341240D02*
D03*
Y343799D02*
D03*
Y346358D02*
D03*
D50*
X393850Y413406D02*
D03*
Y408405D02*
D03*
Y403406D02*
D03*
Y398406D02*
D03*
X412450D02*
D03*
Y403406D02*
D03*
Y408405D02*
D03*
Y413406D02*
D03*
D51*
X408150Y385039D02*
D03*
X398150D02*
D03*
X403150D02*
D03*
D52*
X199606Y285827D02*
D03*
X205906D02*
D03*
X199606Y292126D02*
D03*
X205906D02*
D03*
X199606Y298425D02*
D03*
X205906D02*
D03*
D53*
X343470Y335827D02*
D03*
X335270Y332127D02*
D03*
Y339527D02*
D03*
D54*
X279550Y339291D02*
D03*
X282650D02*
D03*
X285850D02*
D03*
X288950D02*
D03*
X292150D02*
D03*
X295250D02*
D03*
X298450D02*
D03*
X301550D02*
D03*
X304750D02*
D03*
X307850D02*
D03*
X311050D02*
D03*
X314150D02*
D03*
X317350D02*
D03*
X320450D02*
D03*
X323650D02*
D03*
X326750D02*
D03*
Y399291D02*
D03*
X323650D02*
D03*
X320450D02*
D03*
X317350D02*
D03*
X314150D02*
D03*
X311050D02*
D03*
X307850D02*
D03*
X304750D02*
D03*
X301550D02*
D03*
X298450D02*
D03*
X295250D02*
D03*
X292150D02*
D03*
X288950D02*
D03*
X285850D02*
D03*
X282650D02*
D03*
X279550D02*
D03*
D55*
X333150Y345691D02*
D03*
Y348791D02*
D03*
Y351991D02*
D03*
Y355091D02*
D03*
Y358291D02*
D03*
Y361391D02*
D03*
Y364591D02*
D03*
Y367691D02*
D03*
Y370891D02*
D03*
Y373991D02*
D03*
Y377191D02*
D03*
Y380291D02*
D03*
Y383491D02*
D03*
Y386591D02*
D03*
Y389791D02*
D03*
Y392891D02*
D03*
X273150D02*
D03*
Y389791D02*
D03*
Y386591D02*
D03*
Y383491D02*
D03*
Y380291D02*
D03*
Y377191D02*
D03*
Y373991D02*
D03*
Y370891D02*
D03*
Y367691D02*
D03*
Y364591D02*
D03*
Y361391D02*
D03*
Y358291D02*
D03*
Y355091D02*
D03*
Y351991D02*
D03*
Y348791D02*
D03*
Y345691D02*
D03*
D56*
X369685Y374016D02*
D03*
Y358268D02*
D03*
D57*
X302165Y435728D02*
D03*
Y433169D02*
D03*
Y430610D02*
D03*
Y428051D02*
D03*
Y425492D02*
D03*
Y422933D02*
D03*
Y420374D02*
D03*
Y417815D02*
D03*
Y415256D02*
D03*
Y412697D02*
D03*
Y410138D02*
D03*
Y407579D02*
D03*
X325394Y435728D02*
D03*
Y433169D02*
D03*
Y430610D02*
D03*
Y428051D02*
D03*
Y425492D02*
D03*
Y422933D02*
D03*
Y420374D02*
D03*
Y417815D02*
D03*
Y415256D02*
D03*
Y412697D02*
D03*
Y410138D02*
D03*
Y407579D02*
D03*
D58*
X479724Y224410D02*
D03*
X488779D02*
D03*
D59*
X289370Y407579D02*
X292618Y404331D01*
X298917D02*
X302165Y407579D01*
X292618Y404331D02*
X298917D01*
X480315Y281496D02*
Y285433D01*
X491201Y270610D02*
X500787D01*
X480315Y281496D02*
X491201Y270610D01*
X500787D02*
X514173D01*
X477953Y338681D02*
X477953Y338681D01*
X486319D01*
X486319Y338681D01*
X478346Y331102D02*
X478740Y330709D01*
X478346Y331102D02*
Y338287D01*
X477953Y338681D02*
X478346Y338287D01*
X472441Y330709D02*
X478740D01*
X283465Y407480D02*
X289272D01*
X289370Y407579D01*
X462087Y275590D02*
X464587D01*
X479724Y224410D02*
Y260453D01*
X464587Y275590D02*
X479724Y260453D01*
X245000Y224409D02*
Y275591D01*
X597244Y270610D02*
X617717Y291083D01*
Y320037D01*
X627915Y330236D01*
X641612D01*
X647640Y340118D02*
X651494D01*
X654449Y343073D01*
Y389449D01*
X641612Y330236D02*
X644685Y333309D01*
X649606Y394291D02*
X654449Y389449D01*
X644685Y333309D02*
Y337163D01*
X647640Y340118D01*
X583858Y270610D02*
X597244D01*
X566634Y238484D02*
X583858Y221260D01*
X563780Y238484D02*
X566634D01*
X583858Y217579D02*
Y221260D01*
Y217579D02*
X597244D01*
X500787D02*
X514173D01*
X493957Y224410D02*
X500787Y217579D01*
X488779Y224410D02*
X493957D01*
X563642Y238347D02*
X563780Y238484D01*
X550197Y238347D02*
X563642D01*
X624016Y353543D02*
Y357480D01*
Y353543D02*
X627559Y350000D01*
X634842D01*
X612205Y369291D02*
X624016Y357480D01*
X550394Y369291D02*
X612205D01*
X507980Y411705D02*
X550394Y369291D01*
X489685Y411705D02*
X507980D01*
X551181Y371260D02*
X613583D01*
X490382Y413386D02*
X509055D01*
X551181Y371260D01*
X482677Y455512D02*
X548740Y389449D01*
X395276Y455512D02*
X482677D01*
X378740Y472047D02*
X395276Y455512D01*
X548740Y389449D02*
X634921D01*
X488583Y466535D02*
X495169Y459949D01*
Y459934D02*
Y459949D01*
X546000Y409118D02*
X634780D01*
X471894Y466535D02*
X488583D01*
X495169Y459934D02*
X545985Y409118D01*
X546000D01*
X467323Y471106D02*
X471894Y466535D01*
X478756Y430693D02*
X483634Y425815D01*
Y417756D02*
Y425815D01*
X352367Y430693D02*
X478756D01*
X485315Y418453D02*
Y426890D01*
X353064Y432374D02*
X479831D01*
X485315Y426890D01*
X483634Y417756D02*
X489685Y411705D01*
X485315Y418453D02*
X490382Y413386D01*
X634842Y350000D02*
X639764Y354921D01*
X613583Y371260D02*
X629921Y354921D01*
X270079Y464567D02*
X318493D01*
X260630Y474016D02*
Y481358D01*
Y474016D02*
X270079Y464567D01*
X318493D02*
X352367Y430693D01*
X290158Y474803D02*
Y481358D01*
X298319Y466642D02*
X318796D01*
X290158Y474803D02*
X298319Y466642D01*
X318796D02*
X353064Y432374D01*
X467323Y471106D02*
Y481358D01*
X378740Y472047D02*
Y481358D01*
X634921Y389449D02*
X639764Y394291D01*
X496850Y460630D02*
X546681Y410799D01*
X642941D01*
X496850Y460630D02*
Y481358D01*
X526378Y434252D02*
X548150Y412480D01*
X526378Y434252D02*
Y481358D01*
X548150Y412480D02*
X651102D01*
X634780Y409118D02*
X639764Y404134D01*
X642941Y410799D02*
X649606Y404134D01*
X651102Y412480D02*
X659449Y404134D01*
D60*
X273079Y348721D02*
X273150Y348791D01*
X266142Y348721D02*
X273079D01*
X259842D02*
X266142D01*
Y355906D02*
Y356004D01*
Y355906D02*
X268478Y353569D01*
Y353358D02*
Y353569D01*
Y353358D02*
X269516Y352320D01*
X272821D01*
X273150Y351991D01*
X265256Y355118D02*
X266142Y356004D01*
X259842Y355118D02*
X265256D01*
X253543Y355906D02*
X259842Y362205D01*
X253543Y343406D02*
Y355906D01*
X270864Y343406D02*
X273150Y345691D01*
X266142Y343406D02*
X270864D01*
X259842D02*
X266142D01*
X259842Y343406D02*
X259842Y343406D01*
X253543Y343406D02*
X259842D01*
X253346Y337894D02*
X253543Y337697D01*
X247244Y337894D02*
X253346D01*
X247244Y335433D02*
Y337894D01*
X242126Y330315D02*
X247244Y335433D01*
X335925Y325787D02*
Y325984D01*
X332283Y320079D02*
X332660Y320455D01*
Y322522D01*
X335925Y325787D01*
X223228Y298425D02*
Y304724D01*
X379134Y396850D02*
Y403248D01*
X253543Y384252D02*
X253691Y384400D01*
X259695D02*
X259842Y384547D01*
X253691Y384400D02*
X259695D01*
X379134Y403248D02*
X379134Y403248D01*
X357480Y348425D02*
Y356398D01*
X352264Y375886D02*
X357480D01*
X195148Y401152D02*
X207411D01*
X207677Y401417D01*
X194882Y400886D02*
X195148Y401152D01*
X266339Y384547D02*
X267394Y383491D01*
X273150D01*
X266142Y384547D02*
X266339D01*
X259842D02*
X266142D01*
X333165Y358276D02*
X336561D01*
X339961Y355610D02*
X340158D01*
X333150Y358291D02*
X333165Y358276D01*
X336561D02*
X337455Y357382D01*
X338189D01*
X339961Y355610D01*
X340158D02*
X346457D01*
X346555Y355512D02*
X351969D01*
X346457Y355610D02*
X346555Y355512D01*
X335482Y332127D02*
X335598Y332011D01*
Y326312D02*
X335925Y325984D01*
X335270Y332127D02*
X335482D01*
X335598Y326312D02*
Y332011D01*
X199606Y285827D02*
Y292126D01*
Y298425D01*
X385512Y408484D02*
X393771D01*
X385433Y408563D02*
X385512Y408484D01*
X393771D02*
X393850Y408405D01*
X379134Y408563D02*
X385433D01*
Y403248D02*
X385512Y403327D01*
X393771D02*
X393850Y403406D01*
X385512Y403327D02*
X393771D01*
X379134Y403248D02*
X385433D01*
X266142Y379232D02*
X266929Y380020D01*
X340158Y360925D02*
X346457D01*
X339707Y361376D02*
X340158Y360925D01*
X333165Y361376D02*
X339707D01*
X333150Y361391D02*
X333165Y361376D01*
X259842Y379232D02*
X266142D01*
X266929Y380020D02*
X268007D01*
X268279Y380291D02*
X273150D01*
X268007Y380020D02*
X268279Y380291D01*
X207677Y421417D02*
X212244Y425984D01*
X240158D01*
X195039Y421417D02*
X207677D01*
X194882Y421260D02*
X195039Y421417D01*
X550197Y218347D02*
X550335Y218209D01*
X563780D01*
D61*
X604724Y364567D02*
X624213Y345079D01*
X548032Y364567D02*
X604724D01*
X624213Y345079D02*
X629921D01*
X506299Y406299D02*
X548032Y364567D01*
X474409Y406299D02*
X506299D01*
X639764Y345079D02*
X649606D01*
X629921D02*
X639764D01*
X454331Y426378D02*
X474409Y406299D01*
X317323Y459055D02*
X350000Y426378D01*
X454331D01*
X238583Y459055D02*
X317323D01*
X231102Y466536D02*
X238583Y459055D01*
X231102Y466536D02*
Y481358D01*
D62*
X491732Y435433D02*
X552559Y374606D01*
X629921D01*
X354331Y435433D02*
X491732D01*
X549409Y384449D02*
X629921D01*
X377953Y440551D02*
X493307D01*
X549409Y384449D01*
X418898Y458661D02*
X484646D01*
X549016Y394291D01*
X408268Y469291D02*
X418898Y458661D01*
X549016Y394291D02*
X629921D01*
X486614Y463386D02*
X545866Y404134D01*
X629921D01*
X445276Y463386D02*
X486614D01*
X437795Y470866D02*
X445276Y463386D01*
X437795Y470866D02*
Y481358D01*
X319685Y470079D02*
Y481358D01*
Y470079D02*
X354331Y435433D01*
X349213Y469291D02*
X377953Y440551D01*
X349213Y469291D02*
Y481358D01*
X408268Y469291D02*
Y481358D01*
D63*
X597244Y270610D02*
D03*
X583858D02*
D03*
X597244Y217579D02*
D03*
X583858D02*
D03*
X572047Y481358D02*
D03*
X585433D02*
D03*
X572047Y534390D02*
D03*
X585433D02*
D03*
X201575Y534390D02*
D03*
X188189D02*
D03*
X201575Y481358D02*
D03*
X188189D02*
D03*
X231102Y534390D02*
D03*
X217717D02*
D03*
X231102Y481358D02*
D03*
X217717D02*
D03*
X260630Y534390D02*
D03*
X247244D02*
D03*
X260630Y481358D02*
D03*
X247244D02*
D03*
X290158Y534390D02*
D03*
X276772D02*
D03*
X290158Y481358D02*
D03*
X276772D02*
D03*
X319685Y534390D02*
D03*
X306299D02*
D03*
X319685Y481358D02*
D03*
X306299D02*
D03*
X378740Y534390D02*
D03*
X365354D02*
D03*
X378740Y481358D02*
D03*
X365354D02*
D03*
X349213Y534390D02*
D03*
X335827D02*
D03*
X349213Y481358D02*
D03*
X335827D02*
D03*
X408268Y534390D02*
D03*
X394882D02*
D03*
X408268Y481358D02*
D03*
X394882D02*
D03*
X467323Y534390D02*
D03*
X453937D02*
D03*
X467323Y481358D02*
D03*
X453937D02*
D03*
X496850Y534390D02*
D03*
X483465D02*
D03*
X496850Y481358D02*
D03*
X483465D02*
D03*
X526378Y534390D02*
D03*
X512992D02*
D03*
X526378Y481358D02*
D03*
X512992D02*
D03*
X437795Y534390D02*
D03*
X424409D02*
D03*
X437795Y481358D02*
D03*
X424409D02*
D03*
X555905Y534390D02*
D03*
X542520D02*
D03*
X555905Y481358D02*
D03*
X542520D02*
D03*
X500787Y217579D02*
D03*
X514173D02*
D03*
X500787Y270610D02*
D03*
X514173D02*
D03*
D64*
X460728Y448425D02*
D03*
X475492D02*
D03*
X539468D02*
D03*
X559154D02*
D03*
X476378Y420866D02*
D03*
X491142D02*
D03*
X555118D02*
D03*
X574803D02*
D03*
D65*
X229410Y326457D02*
D03*
D66*
X659449Y325394D02*
D03*
Y364764D02*
D03*
Y417717D02*
D03*
Y315551D02*
D03*
Y335236D02*
D03*
Y345079D02*
D03*
Y354921D02*
D03*
Y374606D02*
D03*
Y384449D02*
D03*
Y394291D02*
D03*
Y404134D02*
D03*
Y432480D02*
D03*
X649606Y325394D02*
D03*
Y364764D02*
D03*
Y417717D02*
D03*
Y315551D02*
D03*
Y335236D02*
D03*
Y345079D02*
D03*
Y354921D02*
D03*
Y374606D02*
D03*
Y384449D02*
D03*
Y394291D02*
D03*
Y404134D02*
D03*
Y432480D02*
D03*
X639764Y325394D02*
D03*
Y364764D02*
D03*
Y417717D02*
D03*
Y315551D02*
D03*
Y335236D02*
D03*
Y345079D02*
D03*
Y354921D02*
D03*
Y374606D02*
D03*
Y384449D02*
D03*
Y394291D02*
D03*
Y404134D02*
D03*
Y432480D02*
D03*
X629921Y325394D02*
D03*
Y364764D02*
D03*
Y417717D02*
D03*
Y315551D02*
D03*
Y335236D02*
D03*
Y345079D02*
D03*
Y354921D02*
D03*
Y374606D02*
D03*
Y384449D02*
D03*
Y394291D02*
D03*
Y404134D02*
D03*
Y432480D02*
D03*
D67*
X641142Y474016D02*
D03*
X642126Y275000D02*
D03*
D68*
X550197Y238347D02*
D03*
Y228346D02*
D03*
Y218347D02*
D03*
X207677Y401417D02*
D03*
Y411417D02*
D03*
Y421417D02*
D03*
D69*
X333465Y424016D02*
D03*
X331496Y426772D02*
D03*
Y430315D02*
D03*
X331102Y414567D02*
D03*
X332283Y411417D02*
D03*
X331102Y408268D02*
D03*
X294488Y416142D02*
D03*
X294882Y422047D02*
D03*
X296850Y418898D02*
D03*
X294094Y410630D02*
D03*
X296850Y413386D02*
D03*
X295276Y407480D02*
D03*
X258661Y369685D02*
D03*
X278740Y359055D02*
D03*
Y354331D02*
D03*
X307874Y344882D02*
D03*
X312598Y350787D02*
D03*
X342126Y388189D02*
D03*
X338583D02*
D03*
X385827Y398425D02*
D03*
Y413386D02*
D03*
X250787Y323228D02*
D03*
X572835Y320866D02*
D03*
Y312992D02*
D03*
Y316929D02*
D03*
X600394Y340551D02*
D03*
Y344488D02*
D03*
Y348425D02*
D03*
X320866Y344488D02*
D03*
X295276D02*
D03*
X324803D02*
D03*
X334252Y335827D02*
D03*
X426378Y400394D02*
D03*
Y411024D02*
D03*
X294488Y305118D02*
D03*
X286614D02*
D03*
X278740D02*
D03*
X325984D02*
D03*
X318110D02*
D03*
X310236D02*
D03*
X302362D02*
D03*
X537402Y353543D02*
D03*
X327165Y383465D02*
D03*
X557087Y348425D02*
D03*
X537402D02*
D03*
X431102Y418110D02*
D03*
Y393307D02*
D03*
X312598Y346457D02*
D03*
X228346Y285827D02*
D03*
Y292126D02*
D03*
X480315Y297244D02*
D03*
X248031Y407480D02*
D03*
X267323Y368898D02*
D03*
X262992Y372835D02*
D03*
X259449Y374410D02*
D03*
X286614Y327559D02*
D03*
X302362D02*
D03*
X310236D02*
D03*
X325984D02*
D03*
X318110D02*
D03*
X294488D02*
D03*
X278740D02*
D03*
X215748Y441732D02*
D03*
X223622D02*
D03*
X231496D02*
D03*
X239370D02*
D03*
X247244D02*
D03*
X255118D02*
D03*
X262992D02*
D03*
X270866D02*
D03*
X278740D02*
D03*
X286614D02*
D03*
X294488D02*
D03*
X302362D02*
D03*
X310236D02*
D03*
X318110D02*
D03*
X332283Y417717D02*
D03*
X330315Y420472D02*
D03*
D70*
X338583Y425197D02*
D03*
X283465Y354331D02*
D03*
X242126Y330315D02*
D03*
X426772Y335827D02*
D03*
Y367323D02*
D03*
X395276Y335827D02*
D03*
X285039Y383071D02*
D03*
X300787D02*
D03*
Y367323D02*
D03*
X316535D02*
D03*
X206299Y351575D02*
D03*
X222047Y414567D02*
D03*
X267717Y283465D02*
D03*
X363779Y414567D02*
D03*
X442520D02*
D03*
X458268Y398819D02*
D03*
X442520Y367323D02*
D03*
X489764Y257087D02*
D03*
X537008Y225590D02*
D03*
X285039Y241339D02*
D03*
Y217717D02*
D03*
X535433Y283465D02*
D03*
X411024Y217717D02*
D03*
Y241339D02*
D03*
X379528Y217717D02*
D03*
Y241339D02*
D03*
X348031Y217717D02*
D03*
Y241339D02*
D03*
X316535D02*
D03*
Y217717D02*
D03*
X440945Y314961D02*
D03*
X393701D02*
D03*
X627559Y474803D02*
D03*
X659055D02*
D03*
Y443307D02*
D03*
Y459055D02*
D03*
X643307D02*
D03*
Y443307D02*
D03*
X627559D02*
D03*
X611811D02*
D03*
Y459055D02*
D03*
Y474803D02*
D03*
X659055Y490551D02*
D03*
X643307D02*
D03*
X627559D02*
D03*
X611811D02*
D03*
X659055Y537795D02*
D03*
X643307D02*
D03*
X627559D02*
D03*
X611811D02*
D03*
X659055Y506299D02*
D03*
X643307D02*
D03*
X627559D02*
D03*
X659055Y522047D02*
D03*
X643307D02*
D03*
X627559D02*
D03*
X611811Y506299D02*
D03*
Y522047D02*
D03*
X596063Y506299D02*
D03*
Y522047D02*
D03*
X580315Y506299D02*
D03*
Y522047D02*
D03*
X564567Y506299D02*
D03*
Y522047D02*
D03*
X548819Y506299D02*
D03*
Y522047D02*
D03*
X533071Y506299D02*
D03*
Y522047D02*
D03*
X517323Y506299D02*
D03*
Y522047D02*
D03*
X501575Y506299D02*
D03*
Y522047D02*
D03*
X485827Y506299D02*
D03*
Y522047D02*
D03*
X470079Y506299D02*
D03*
Y522047D02*
D03*
X454331Y506299D02*
D03*
Y522047D02*
D03*
X438583Y506299D02*
D03*
Y522047D02*
D03*
X422835Y506299D02*
D03*
Y522047D02*
D03*
X407087Y506299D02*
D03*
Y522047D02*
D03*
X391339Y506299D02*
D03*
Y522047D02*
D03*
X375591Y506299D02*
D03*
Y522047D02*
D03*
X359842Y506299D02*
D03*
Y522047D02*
D03*
X344094Y506299D02*
D03*
Y522047D02*
D03*
X328346Y506299D02*
D03*
Y522047D02*
D03*
X312598Y506299D02*
D03*
Y522047D02*
D03*
X296850Y506299D02*
D03*
Y522047D02*
D03*
X281102Y506299D02*
D03*
Y522047D02*
D03*
X265354Y506299D02*
D03*
Y522047D02*
D03*
X249606Y506299D02*
D03*
Y522047D02*
D03*
X233858Y506299D02*
D03*
Y522047D02*
D03*
X218110Y506299D02*
D03*
Y522047D02*
D03*
X202362Y506299D02*
D03*
Y522047D02*
D03*
X186614Y506299D02*
D03*
Y522047D02*
D03*
X332283Y320079D02*
D03*
X545276Y339370D02*
D03*
X223228Y304724D02*
D03*
X379134Y396850D02*
D03*
X253543Y384252D02*
D03*
X351969Y355512D02*
D03*
X283465Y407480D02*
D03*
X472441Y330709D02*
D03*
M02*
