G04*
G04 #@! TF.GenerationSoftware,Altium Limited,Altium Designer,22.8.2 (66)*
G04*
G04 Layer_Physical_Order=3*
G04 Layer_Color=65280*
%FSLAX25Y25*%
%MOIN*%
G70*
G04*
G04 #@! TF.SameCoordinates,E87138AD-D39F-473D-B2F9-8BE8101B49D9*
G04*
G04*
G04 #@! TF.FilePolarity,Positive*
G04*
G01*
G75*
%ADD16C,0.00787*%
%ADD40C,0.06299*%
%ADD63C,0.08661*%
%ADD64C,0.07874*%
%ADD65R,0.06299X0.06299*%
%ADD66C,0.05906*%
%ADD68C,0.06000*%
%ADD69C,0.03937*%
%ADD70C,0.01968*%
G36*
X563941Y487008D02*
Y451571D01*
X563458Y451442D01*
X563344Y451640D01*
X562369Y452615D01*
X561175Y453305D01*
X559843Y453661D01*
X558464D01*
X557132Y453305D01*
X555938Y452615D01*
X554964Y451640D01*
X554274Y450446D01*
X553917Y449115D01*
Y447736D01*
X554274Y446404D01*
X554964Y445210D01*
X555938Y444235D01*
X557132Y443546D01*
X558464Y443189D01*
X559843D01*
X561175Y443546D01*
X562369Y444235D01*
X563344Y445210D01*
X563458Y445408D01*
X563941Y445279D01*
Y438976D01*
X564019Y438586D01*
X564240Y438255D01*
X564961Y437535D01*
Y412179D01*
X517567D01*
X517218Y412110D01*
X516923Y411912D01*
X405528Y300518D01*
X331873D01*
X327880Y304511D01*
X327969Y304723D01*
Y305513D01*
X327666Y306242D01*
X327108Y306800D01*
X326379Y307102D01*
X325590D01*
X324860Y306800D01*
X324302Y306242D01*
X324000Y305513D01*
Y304723D01*
X324302Y303994D01*
X324860Y303436D01*
X325590Y303134D01*
X326379D01*
X326592Y303222D01*
X330122Y299692D01*
X329930Y299230D01*
X325287D01*
X320006Y304511D01*
X320094Y304723D01*
Y305513D01*
X319792Y306242D01*
X319234Y306800D01*
X318505Y307102D01*
X317716D01*
X316986Y306800D01*
X316428Y306242D01*
X316126Y305513D01*
Y304723D01*
X316428Y303994D01*
X316986Y303436D01*
X317716Y303134D01*
X318505D01*
X318718Y303222D01*
X323535Y298405D01*
X323344Y297943D01*
X318700D01*
X312132Y304511D01*
X312221Y304723D01*
Y305513D01*
X311918Y306242D01*
X311360Y306800D01*
X310631Y307102D01*
X309841D01*
X309112Y306800D01*
X308554Y306242D01*
X308252Y305513D01*
Y304723D01*
X308554Y303994D01*
X309112Y303436D01*
X309841Y303134D01*
X310631D01*
X310844Y303222D01*
X316948Y297117D01*
X316757Y296655D01*
X312114D01*
X304258Y304511D01*
X304346Y304723D01*
Y305513D01*
X304044Y306242D01*
X303486Y306800D01*
X302757Y307102D01*
X301968D01*
X301238Y306800D01*
X300680Y306242D01*
X300378Y305513D01*
Y304723D01*
X300680Y303994D01*
X301238Y303436D01*
X301968Y303134D01*
X302757D01*
X302970Y303222D01*
X310362Y295830D01*
X310171Y295368D01*
X305527D01*
X296384Y304511D01*
X296472Y304723D01*
Y305513D01*
X296170Y306242D01*
X295612Y306800D01*
X294883Y307102D01*
X294093D01*
X293364Y306800D01*
X292806Y306242D01*
X292504Y305513D01*
Y304723D01*
X292806Y303994D01*
X293364Y303436D01*
X294093Y303134D01*
X294883D01*
X295096Y303222D01*
X303775Y294543D01*
X303584Y294080D01*
X298940D01*
X288510Y304511D01*
X288598Y304723D01*
Y305513D01*
X288296Y306242D01*
X287738Y306800D01*
X287009Y307102D01*
X286220D01*
X285490Y306800D01*
X284932Y306242D01*
X284630Y305513D01*
Y304723D01*
X284932Y303994D01*
X285490Y303436D01*
X286220Y303134D01*
X287009D01*
X287222Y303222D01*
X297189Y293255D01*
X296997Y292793D01*
X292354D01*
X280636Y304511D01*
X280724Y304723D01*
Y305513D01*
X280422Y306242D01*
X279864Y306800D01*
X279135Y307102D01*
X278345D01*
X277616Y306800D01*
X277058Y306242D01*
X276756Y305513D01*
Y304723D01*
X277058Y303994D01*
X277616Y303436D01*
X278345Y303134D01*
X279135D01*
X279348Y303222D01*
X291332Y291238D01*
X291628Y291040D01*
X291976Y290971D01*
X409105D01*
X409454Y291040D01*
X409749Y291238D01*
X521144Y402632D01*
X564961D01*
Y198055D01*
X178369Y198055D01*
Y487169D01*
X186192D01*
X186258Y486669D01*
X186016Y486604D01*
X184732Y485863D01*
X183684Y484815D01*
X182943Y483531D01*
X182559Y482099D01*
Y480617D01*
X182943Y479185D01*
X183684Y477901D01*
X184732Y476853D01*
X186016Y476112D01*
X187448Y475728D01*
X188930D01*
X190362Y476112D01*
X191646Y476853D01*
X192694Y477901D01*
X193435Y479185D01*
X193819Y480617D01*
Y482099D01*
X193435Y483531D01*
X192694Y484815D01*
X191646Y485863D01*
X190362Y486604D01*
X190120Y486669D01*
X190186Y487169D01*
X199578D01*
X199644Y486669D01*
X199402Y486604D01*
X198118Y485863D01*
X197070Y484815D01*
X196328Y483531D01*
X195945Y482099D01*
Y480617D01*
X196328Y479185D01*
X197070Y477901D01*
X198118Y476853D01*
X199402Y476112D01*
X200834Y475728D01*
X202316D01*
X203748Y476112D01*
X205032Y476853D01*
X206080Y477901D01*
X206821Y479185D01*
X207205Y480617D01*
Y482099D01*
X206821Y483531D01*
X206080Y484815D01*
X205032Y485863D01*
X203748Y486604D01*
X203506Y486669D01*
X203572Y487169D01*
X215720D01*
X215786Y486669D01*
X215544Y486604D01*
X214260Y485863D01*
X213211Y484815D01*
X212470Y483531D01*
X212087Y482099D01*
Y480617D01*
X212470Y479185D01*
X213211Y477901D01*
X214260Y476853D01*
X215544Y476112D01*
X216975Y475728D01*
X218458D01*
X219890Y476112D01*
X221173Y476853D01*
X222222Y477901D01*
X222963Y479185D01*
X223346Y480617D01*
Y482099D01*
X222963Y483531D01*
X222222Y484815D01*
X221173Y485863D01*
X219890Y486604D01*
X219648Y486669D01*
X219713Y487169D01*
X229105D01*
X229171Y486669D01*
X228929Y486604D01*
X227645Y485863D01*
X226597Y484815D01*
X225856Y483531D01*
X225472Y482099D01*
Y480617D01*
X225856Y479185D01*
X226597Y477901D01*
X227645Y476853D01*
X228929Y476112D01*
X230361Y475728D01*
X231844D01*
X233275Y476112D01*
X234559Y476853D01*
X235607Y477901D01*
X236349Y479185D01*
X236732Y480617D01*
Y482099D01*
X236349Y483531D01*
X235607Y484815D01*
X234559Y485863D01*
X233275Y486604D01*
X233033Y486669D01*
X233099Y487169D01*
X245247D01*
X245313Y486669D01*
X245071Y486604D01*
X243787Y485863D01*
X242739Y484815D01*
X241998Y483531D01*
X241614Y482099D01*
Y480617D01*
X241998Y479185D01*
X242739Y477901D01*
X243787Y476853D01*
X245071Y476112D01*
X246503Y475728D01*
X247985D01*
X249417Y476112D01*
X250701Y476853D01*
X251749Y477901D01*
X252490Y479185D01*
X252874Y480617D01*
Y482099D01*
X252490Y483531D01*
X251749Y484815D01*
X250701Y485863D01*
X249417Y486604D01*
X249175Y486669D01*
X249241Y487169D01*
X258633D01*
X258699Y486669D01*
X258457Y486604D01*
X257173Y485863D01*
X256125Y484815D01*
X255384Y483531D01*
X255000Y482099D01*
Y480617D01*
X255384Y479185D01*
X256125Y477901D01*
X257173Y476853D01*
X258457Y476112D01*
X259889Y475728D01*
X261371D01*
X262803Y476112D01*
X264087Y476853D01*
X265135Y477901D01*
X265876Y479185D01*
X266260Y480617D01*
Y482099D01*
X265876Y483531D01*
X265135Y484815D01*
X264087Y485863D01*
X262803Y486604D01*
X262561Y486669D01*
X262627Y487169D01*
X274775D01*
X274841Y486669D01*
X274599Y486604D01*
X273315Y485863D01*
X272267Y484815D01*
X271525Y483531D01*
X271142Y482099D01*
Y480617D01*
X271525Y479185D01*
X272267Y477901D01*
X273315Y476853D01*
X274599Y476112D01*
X276030Y475728D01*
X277513D01*
X278945Y476112D01*
X280228Y476853D01*
X281277Y477901D01*
X282018Y479185D01*
X282402Y480617D01*
Y482099D01*
X282018Y483531D01*
X281277Y484815D01*
X280228Y485863D01*
X278945Y486604D01*
X278703Y486669D01*
X278768Y487169D01*
X288161D01*
X288226Y486669D01*
X287984Y486604D01*
X286701Y485863D01*
X285652Y484815D01*
X284911Y483531D01*
X284528Y482099D01*
Y480617D01*
X284911Y479185D01*
X285652Y477901D01*
X286701Y476853D01*
X287984Y476112D01*
X289416Y475728D01*
X290899D01*
X292331Y476112D01*
X293614Y476853D01*
X294662Y477901D01*
X295404Y479185D01*
X295787Y480617D01*
Y482099D01*
X295404Y483531D01*
X294662Y484815D01*
X293614Y485863D01*
X292331Y486604D01*
X292089Y486669D01*
X292154Y487169D01*
X304302D01*
X304368Y486669D01*
X304126Y486604D01*
X302842Y485863D01*
X301794Y484815D01*
X301053Y483531D01*
X300669Y482099D01*
Y480617D01*
X301053Y479185D01*
X301794Y477901D01*
X302842Y476853D01*
X304126Y476112D01*
X305558Y475728D01*
X307040D01*
X308472Y476112D01*
X309756Y476853D01*
X310804Y477901D01*
X311545Y479185D01*
X311929Y480617D01*
Y482099D01*
X311545Y483531D01*
X310804Y484815D01*
X309756Y485863D01*
X308472Y486604D01*
X308230Y486669D01*
X308296Y487169D01*
X317688D01*
X317754Y486669D01*
X317512Y486604D01*
X316228Y485863D01*
X315180Y484815D01*
X314439Y483531D01*
X314055Y482099D01*
Y480617D01*
X314439Y479185D01*
X315180Y477901D01*
X316228Y476853D01*
X317512Y476112D01*
X318944Y475728D01*
X320426D01*
X321858Y476112D01*
X323142Y476853D01*
X324190Y477901D01*
X324931Y479185D01*
X325315Y480617D01*
Y482099D01*
X324931Y483531D01*
X324190Y484815D01*
X323142Y485863D01*
X321858Y486604D01*
X321616Y486669D01*
X321682Y487169D01*
X333830D01*
X333896Y486669D01*
X333654Y486604D01*
X332370Y485863D01*
X331322Y484815D01*
X330580Y483531D01*
X330197Y482099D01*
Y480617D01*
X330580Y479185D01*
X331322Y477901D01*
X332370Y476853D01*
X333654Y476112D01*
X335086Y475728D01*
X336568D01*
X338000Y476112D01*
X339284Y476853D01*
X340332Y477901D01*
X341073Y479185D01*
X341457Y480617D01*
Y482099D01*
X341073Y483531D01*
X340332Y484815D01*
X339284Y485863D01*
X338000Y486604D01*
X337758Y486669D01*
X337824Y487169D01*
X347216D01*
X347282Y486669D01*
X347040Y486604D01*
X345756Y485863D01*
X344707Y484815D01*
X343966Y483531D01*
X343583Y482099D01*
Y480617D01*
X343966Y479185D01*
X344707Y477901D01*
X345756Y476853D01*
X347040Y476112D01*
X348471Y475728D01*
X349954D01*
X351386Y476112D01*
X352669Y476853D01*
X353718Y477901D01*
X354459Y479185D01*
X354842Y480617D01*
Y482099D01*
X354459Y483531D01*
X353718Y484815D01*
X352669Y485863D01*
X351386Y486604D01*
X351144Y486669D01*
X351209Y487169D01*
X363357D01*
X363423Y486669D01*
X363181Y486604D01*
X361897Y485863D01*
X360849Y484815D01*
X360108Y483531D01*
X359724Y482099D01*
Y480617D01*
X360108Y479185D01*
X360849Y477901D01*
X361897Y476853D01*
X363181Y476112D01*
X364613Y475728D01*
X366095D01*
X367527Y476112D01*
X368811Y476853D01*
X369859Y477901D01*
X370601Y479185D01*
X370984Y480617D01*
Y482099D01*
X370601Y483531D01*
X369859Y484815D01*
X368811Y485863D01*
X367527Y486604D01*
X367285Y486669D01*
X367351Y487169D01*
X376743D01*
X376809Y486669D01*
X376567Y486604D01*
X375283Y485863D01*
X374235Y484815D01*
X373494Y483531D01*
X373110Y482099D01*
Y480617D01*
X373494Y479185D01*
X374235Y477901D01*
X375283Y476853D01*
X376567Y476112D01*
X377999Y475728D01*
X379481D01*
X380913Y476112D01*
X382197Y476853D01*
X383245Y477901D01*
X383986Y479185D01*
X384370Y480617D01*
Y482099D01*
X383986Y483531D01*
X383245Y484815D01*
X382197Y485863D01*
X380913Y486604D01*
X380671Y486669D01*
X380737Y487169D01*
X392885D01*
X392951Y486669D01*
X392709Y486604D01*
X391425Y485863D01*
X390377Y484815D01*
X389636Y483531D01*
X389252Y482099D01*
Y480617D01*
X389636Y479185D01*
X390377Y477901D01*
X391425Y476853D01*
X392709Y476112D01*
X394141Y475728D01*
X395623D01*
X397055Y476112D01*
X398339Y476853D01*
X399387Y477901D01*
X400128Y479185D01*
X400512Y480617D01*
Y482099D01*
X400128Y483531D01*
X399387Y484815D01*
X398339Y485863D01*
X397055Y486604D01*
X396813Y486669D01*
X396879Y487169D01*
X406271D01*
X406337Y486669D01*
X406095Y486604D01*
X404811Y485863D01*
X403763Y484815D01*
X403021Y483531D01*
X402638Y482099D01*
Y480617D01*
X403021Y479185D01*
X403763Y477901D01*
X404811Y476853D01*
X406095Y476112D01*
X407526Y475728D01*
X409009D01*
X410441Y476112D01*
X411725Y476853D01*
X412773Y477901D01*
X413514Y479185D01*
X413898Y480617D01*
Y482099D01*
X413514Y483531D01*
X412773Y484815D01*
X411725Y485863D01*
X410441Y486604D01*
X410199Y486669D01*
X410265Y487169D01*
X422413D01*
X422478Y486669D01*
X422236Y486604D01*
X420953Y485863D01*
X419904Y484815D01*
X419163Y483531D01*
X418780Y482099D01*
Y480617D01*
X419163Y479185D01*
X419904Y477901D01*
X420953Y476853D01*
X422236Y476112D01*
X423668Y475728D01*
X425151D01*
X426582Y476112D01*
X427866Y476853D01*
X428914Y477901D01*
X429656Y479185D01*
X430039Y480617D01*
Y482099D01*
X429656Y483531D01*
X428914Y484815D01*
X427866Y485863D01*
X426582Y486604D01*
X426340Y486669D01*
X426406Y487169D01*
X435798D01*
X435864Y486669D01*
X435622Y486604D01*
X434338Y485863D01*
X433290Y484815D01*
X432549Y483531D01*
X432165Y482099D01*
Y480617D01*
X432549Y479185D01*
X433290Y477901D01*
X434338Y476853D01*
X435622Y476112D01*
X437054Y475728D01*
X438537D01*
X439968Y476112D01*
X441252Y476853D01*
X442300Y477901D01*
X443042Y479185D01*
X443425Y480617D01*
Y482099D01*
X443042Y483531D01*
X442300Y484815D01*
X441252Y485863D01*
X439968Y486604D01*
X439726Y486669D01*
X439792Y487169D01*
X451940D01*
X452006Y486669D01*
X451764Y486604D01*
X450480Y485863D01*
X449432Y484815D01*
X448691Y483531D01*
X448307Y482099D01*
Y480617D01*
X448691Y479185D01*
X449432Y477901D01*
X450480Y476853D01*
X451764Y476112D01*
X453196Y475728D01*
X454678D01*
X456110Y476112D01*
X457394Y476853D01*
X458442Y477901D01*
X459183Y479185D01*
X459567Y480617D01*
Y482099D01*
X459183Y483531D01*
X458442Y484815D01*
X457394Y485863D01*
X456110Y486604D01*
X455868Y486669D01*
X455934Y487169D01*
X465326D01*
X465392Y486669D01*
X465150Y486604D01*
X463866Y485863D01*
X462818Y484815D01*
X462077Y483531D01*
X461693Y482099D01*
Y480617D01*
X462077Y479185D01*
X462818Y477901D01*
X463866Y476853D01*
X465150Y476112D01*
X466582Y475728D01*
X468064D01*
X469496Y476112D01*
X470780Y476853D01*
X471828Y477901D01*
X472569Y479185D01*
X472953Y480617D01*
Y482099D01*
X472569Y483531D01*
X471828Y484815D01*
X470780Y485863D01*
X469496Y486604D01*
X469254Y486669D01*
X469320Y487169D01*
X481468D01*
X481534Y486669D01*
X481291Y486604D01*
X480008Y485863D01*
X478960Y484815D01*
X478218Y483531D01*
X477835Y482099D01*
Y480617D01*
X478218Y479185D01*
X478960Y477901D01*
X480008Y476853D01*
X481291Y476112D01*
X482723Y475728D01*
X484206D01*
X485638Y476112D01*
X486921Y476853D01*
X487970Y477901D01*
X488711Y479185D01*
X489094Y480617D01*
Y482099D01*
X488711Y483531D01*
X487970Y484815D01*
X486921Y485863D01*
X485638Y486604D01*
X485396Y486669D01*
X485461Y487169D01*
X494853D01*
X494919Y486669D01*
X494677Y486604D01*
X493394Y485863D01*
X492345Y484815D01*
X491604Y483531D01*
X491221Y482099D01*
Y480617D01*
X491604Y479185D01*
X492345Y477901D01*
X493394Y476853D01*
X494677Y476112D01*
X496109Y475728D01*
X497592D01*
X499023Y476112D01*
X500307Y476853D01*
X501356Y477901D01*
X502097Y479185D01*
X502480Y480617D01*
Y482099D01*
X502097Y483531D01*
X501356Y484815D01*
X500307Y485863D01*
X499023Y486604D01*
X498781Y486669D01*
X498847Y487169D01*
X510995D01*
X511061Y486669D01*
X510819Y486604D01*
X509535Y485863D01*
X508487Y484815D01*
X507746Y483531D01*
X507362Y482099D01*
Y480617D01*
X507746Y479185D01*
X508487Y477901D01*
X509535Y476853D01*
X510819Y476112D01*
X512251Y475728D01*
X513733D01*
X515165Y476112D01*
X516449Y476853D01*
X517497Y477901D01*
X518238Y479185D01*
X518622Y480617D01*
Y482099D01*
X518238Y483531D01*
X517497Y484815D01*
X516449Y485863D01*
X515165Y486604D01*
X514923Y486669D01*
X514989Y487169D01*
X524381D01*
X524447Y486669D01*
X524205Y486604D01*
X522921Y485863D01*
X521873Y484815D01*
X521132Y483531D01*
X520748Y482099D01*
Y480617D01*
X521132Y479185D01*
X521873Y477901D01*
X522921Y476853D01*
X524205Y476112D01*
X525637Y475728D01*
X527119D01*
X528551Y476112D01*
X529835Y476853D01*
X530883Y477901D01*
X531624Y479185D01*
X532008Y480617D01*
Y482099D01*
X531624Y483531D01*
X530883Y484815D01*
X529835Y485863D01*
X528551Y486604D01*
X528309Y486669D01*
X528375Y487169D01*
X540523D01*
X540589Y486669D01*
X540347Y486604D01*
X539063Y485863D01*
X538015Y484815D01*
X537273Y483531D01*
X536890Y482099D01*
Y480617D01*
X537273Y479185D01*
X538015Y477901D01*
X539063Y476853D01*
X540347Y476112D01*
X541779Y475728D01*
X543261D01*
X544693Y476112D01*
X545976Y476853D01*
X547025Y477901D01*
X547766Y479185D01*
X548150Y480617D01*
Y482099D01*
X547766Y483531D01*
X547025Y484815D01*
X545976Y485863D01*
X544693Y486604D01*
X544451Y486669D01*
X544517Y487169D01*
X553909D01*
X553974Y486669D01*
X553732Y486604D01*
X552449Y485863D01*
X551401Y484815D01*
X550659Y483531D01*
X550276Y482099D01*
Y480617D01*
X550659Y479185D01*
X551401Y477901D01*
X552449Y476853D01*
X553732Y476112D01*
X555164Y475728D01*
X556647D01*
X558079Y476112D01*
X559362Y476853D01*
X560411Y477901D01*
X561152Y479185D01*
X561535Y480617D01*
Y482099D01*
X561152Y483531D01*
X560411Y484815D01*
X559362Y485863D01*
X558079Y486604D01*
X557837Y486669D01*
X557902Y487169D01*
X563808D01*
X563941Y487008D01*
D02*
G37*
G36*
X592520Y446850D02*
X603543Y435827D01*
X633071D01*
Y414567D01*
X589370D01*
X564961Y438976D01*
Y487008D01*
X592520D01*
Y446850D01*
D02*
G37*
G36*
X668087Y414173D02*
X645669D01*
Y425197D01*
X634091D01*
Y431612D01*
X634173Y431920D01*
Y433040D01*
X634091Y433349D01*
Y435827D01*
X634013Y436217D01*
X633792Y436548D01*
X633461Y436769D01*
X633071Y436846D01*
X603966D01*
X593539Y447273D01*
Y487008D01*
X593462Y487398D01*
X593241Y487729D01*
X592910Y487950D01*
X592520Y488027D01*
Y488189D01*
X178369D01*
Y549977D01*
X668087Y549977D01*
Y414173D01*
D02*
G37*
%LPC*%
G36*
X540158Y453661D02*
X538779D01*
X537447Y453305D01*
X536253Y452615D01*
X535279Y451640D01*
X534589Y450446D01*
X534232Y449115D01*
Y447736D01*
X534589Y446404D01*
X535279Y445210D01*
X536253Y444235D01*
X537447Y443546D01*
X538779Y443189D01*
X540158D01*
X541490Y443546D01*
X542684Y444235D01*
X543659Y445210D01*
X544348Y446404D01*
X544705Y447736D01*
Y449115D01*
X544348Y450446D01*
X543659Y451640D01*
X542684Y452615D01*
X541490Y453305D01*
X540158Y453661D01*
D02*
G37*
G36*
X461418D02*
X460039D01*
X458707Y453305D01*
X457513Y452615D01*
X456538Y451640D01*
X455849Y450446D01*
X455492Y449115D01*
Y447736D01*
X455849Y446404D01*
X456538Y445210D01*
X457513Y444235D01*
X458707Y443546D01*
X460039Y443189D01*
X461418D01*
X462749Y443546D01*
X463943Y444235D01*
X464918Y445210D01*
X465608Y446404D01*
X465965Y447736D01*
Y449115D01*
X465608Y450446D01*
X464918Y451640D01*
X463943Y452615D01*
X462749Y453305D01*
X461418Y453661D01*
D02*
G37*
G36*
X318505Y443716D02*
X317716D01*
X316986Y443414D01*
X316428Y442856D01*
X316126Y442127D01*
Y441338D01*
X316214Y441125D01*
X313529Y438440D01*
X313331Y438144D01*
X313262Y437795D01*
Y434889D01*
X312800Y434698D01*
X311147Y436350D01*
Y439962D01*
X311360Y440050D01*
X311918Y440608D01*
X312221Y441338D01*
Y442127D01*
X311918Y442856D01*
X311360Y443414D01*
X310631Y443716D01*
X309841D01*
X309112Y443414D01*
X308554Y442856D01*
X308252Y442127D01*
Y441338D01*
X308554Y440608D01*
X309112Y440050D01*
X309325Y439962D01*
Y437005D01*
X308863Y436814D01*
X304344Y441333D01*
X304346Y441338D01*
Y442127D01*
X304044Y442856D01*
X303486Y443414D01*
X302757Y443716D01*
X301968D01*
X301238Y443414D01*
X300680Y442856D01*
X300378Y442127D01*
Y441338D01*
X300680Y440608D01*
X301238Y440050D01*
X301374Y439994D01*
X301274Y439494D01*
X298015D01*
X296384Y441125D01*
X296472Y441338D01*
Y442127D01*
X296170Y442856D01*
X295612Y443414D01*
X294883Y443716D01*
X294093D01*
X293364Y443414D01*
X292806Y442856D01*
X292504Y442127D01*
Y441338D01*
X292806Y440608D01*
X293364Y440050D01*
X294093Y439748D01*
X294883D01*
X295096Y439836D01*
X296307Y438625D01*
X296115Y438163D01*
X291472D01*
X288510Y441125D01*
X288598Y441338D01*
Y442127D01*
X288296Y442856D01*
X287738Y443414D01*
X287009Y443716D01*
X286220D01*
X285490Y443414D01*
X284932Y442856D01*
X284630Y442127D01*
Y441338D01*
X284932Y440608D01*
X285490Y440050D01*
X286220Y439748D01*
X287009D01*
X287222Y439836D01*
X289720Y437338D01*
X289529Y436876D01*
X284885D01*
X280636Y441125D01*
X280724Y441338D01*
Y442127D01*
X280422Y442856D01*
X279864Y443414D01*
X279135Y443716D01*
X278345D01*
X277616Y443414D01*
X277058Y442856D01*
X276756Y442127D01*
Y441338D01*
X277058Y440608D01*
X277616Y440050D01*
X278345Y439748D01*
X279135D01*
X279348Y439836D01*
X283134Y436050D01*
X282942Y435588D01*
X278299D01*
X272762Y441125D01*
X272850Y441338D01*
Y442127D01*
X272548Y442856D01*
X271990Y443414D01*
X271261Y443716D01*
X270472D01*
X269742Y443414D01*
X269184Y442856D01*
X268882Y442127D01*
Y441338D01*
X269184Y440608D01*
X269742Y440050D01*
X270472Y439748D01*
X271261D01*
X271474Y439836D01*
X276547Y434763D01*
X276356Y434301D01*
X271712D01*
X264888Y441125D01*
X264976Y441338D01*
Y442127D01*
X264674Y442856D01*
X264116Y443414D01*
X263387Y443716D01*
X262597D01*
X261868Y443414D01*
X261310Y442856D01*
X261008Y442127D01*
Y441338D01*
X261310Y440608D01*
X261868Y440050D01*
X262597Y439748D01*
X263387D01*
X263600Y439836D01*
X269960Y433475D01*
X269769Y433014D01*
X265125D01*
X257014Y441125D01*
X257102Y441338D01*
Y442127D01*
X256800Y442856D01*
X256242Y443414D01*
X255513Y443716D01*
X254723D01*
X253994Y443414D01*
X253436Y442856D01*
X253134Y442127D01*
Y441338D01*
X253436Y440608D01*
X253994Y440050D01*
X254723Y439748D01*
X255513D01*
X255726Y439836D01*
X263374Y432188D01*
X263182Y431726D01*
X258539D01*
X249140Y441125D01*
X249228Y441338D01*
Y442127D01*
X248926Y442856D01*
X248368Y443414D01*
X247639Y443716D01*
X246849D01*
X246120Y443414D01*
X245562Y442856D01*
X245260Y442127D01*
Y441338D01*
X245562Y440608D01*
X246120Y440050D01*
X246849Y439748D01*
X247639D01*
X247852Y439836D01*
X256787Y430901D01*
X256596Y430439D01*
X251952D01*
X241266Y441125D01*
X241354Y441338D01*
Y442127D01*
X241052Y442856D01*
X240494Y443414D01*
X239765Y443716D01*
X238975D01*
X238246Y443414D01*
X237688Y442856D01*
X237386Y442127D01*
Y441338D01*
X237688Y440608D01*
X238246Y440050D01*
X238975Y439748D01*
X239765D01*
X239978Y439836D01*
X250200Y429613D01*
X250009Y429151D01*
X245366D01*
X233392Y441125D01*
X233480Y441338D01*
Y442127D01*
X233178Y442856D01*
X232620Y443414D01*
X231891Y443716D01*
X231101D01*
X230372Y443414D01*
X229814Y442856D01*
X229512Y442127D01*
Y441338D01*
X229814Y440608D01*
X230372Y440050D01*
X231101Y439748D01*
X231891D01*
X232103Y439836D01*
X243614Y428326D01*
X243422Y427864D01*
X238779D01*
X225518Y441125D01*
X225606Y441338D01*
Y442127D01*
X225304Y442856D01*
X224746Y443414D01*
X224017Y443716D01*
X223227D01*
X222498Y443414D01*
X221940Y442856D01*
X221638Y442127D01*
Y441338D01*
X221940Y440608D01*
X222498Y440050D01*
X223227Y439748D01*
X224017D01*
X224230Y439836D01*
X237102Y426964D01*
X236911Y426502D01*
X232267D01*
X217644Y441125D01*
X217732Y441338D01*
Y442127D01*
X217430Y442856D01*
X216872Y443414D01*
X216143Y443716D01*
X215353D01*
X214624Y443414D01*
X214066Y442856D01*
X213764Y442127D01*
Y441338D01*
X214066Y440608D01*
X214624Y440050D01*
X215353Y439748D01*
X216143D01*
X216355Y439836D01*
X231245Y424946D01*
X231541Y424749D01*
X231890Y424679D01*
X292142D01*
X293379Y423442D01*
X293291Y423229D01*
Y422440D01*
X293593Y421711D01*
X294152Y421152D01*
X294881Y420850D01*
X295260D01*
Y420078D01*
X295008Y419701D01*
X294881D01*
X294152Y419399D01*
X293593Y418841D01*
X293291Y418111D01*
Y417322D01*
X293593Y416593D01*
X294152Y416034D01*
X294881Y415732D01*
X295260D01*
Y414960D01*
X295008Y414583D01*
X294881D01*
X294152Y414281D01*
X293593Y413722D01*
X293291Y412993D01*
Y412204D01*
X293593Y411474D01*
X294152Y410916D01*
X294881Y410614D01*
X295260D01*
Y409841D01*
X295562Y409112D01*
X296120Y408554D01*
X296849Y408252D01*
X297639D01*
X298368Y408554D01*
X298926Y409112D01*
X299032Y409367D01*
X299168Y409394D01*
X299463Y409592D01*
X307369Y417497D01*
X307566Y417793D01*
X307636Y418142D01*
Y425708D01*
X308098Y425899D01*
X324405Y409592D01*
X324700Y409394D01*
X325049Y409325D01*
X328545D01*
X328633Y409112D01*
X329191Y408554D01*
X329920Y408252D01*
X330710D01*
X331439Y408554D01*
X331997Y409112D01*
X332299Y409841D01*
Y410614D01*
X332678D01*
X333407Y410916D01*
X333966Y411474D01*
X334268Y412204D01*
Y412993D01*
X333966Y413722D01*
X333407Y414281D01*
X332678Y414583D01*
X332551D01*
X332299Y414960D01*
Y415732D01*
X332678D01*
X333407Y416034D01*
X333966Y416593D01*
X334268Y417322D01*
Y418111D01*
X333966Y418841D01*
X333407Y419399D01*
X332678Y419701D01*
X332551D01*
X332299Y420078D01*
Y420850D01*
X332678D01*
X333407Y421152D01*
X333966Y421711D01*
X334268Y422440D01*
Y423229D01*
X333966Y423959D01*
X333407Y424517D01*
X332678Y424819D01*
X332551D01*
X332299Y425196D01*
Y425969D01*
X332678D01*
X333407Y426271D01*
X333966Y426829D01*
X334268Y427558D01*
Y428347D01*
X333966Y429077D01*
X333407Y429635D01*
X332678Y429937D01*
X331889D01*
X331159Y429635D01*
X330601Y429077D01*
X330520Y428880D01*
X329330D01*
X329251Y428864D01*
X320455D01*
X315084Y434234D01*
Y437418D01*
X317503Y439836D01*
X317716Y439748D01*
X318505D01*
X319234Y440050D01*
X319792Y440608D01*
X320094Y441338D01*
Y442127D01*
X319792Y442856D01*
X319234Y443414D01*
X318505Y443716D01*
D02*
G37*
G36*
X338973Y428165D02*
X338192D01*
X337437Y427963D01*
X336760Y427572D01*
X336207Y427020D01*
X335817Y426343D01*
X335614Y425588D01*
Y424806D01*
X335817Y424051D01*
X336207Y423374D01*
X336760Y422822D01*
X337437Y422431D01*
X338192Y422228D01*
X338973D01*
X339728Y422431D01*
X340405Y422822D01*
X340958Y423374D01*
X341349Y424051D01*
X341551Y424806D01*
Y425588D01*
X341349Y426343D01*
X340958Y427020D01*
X340405Y427572D01*
X339728Y427963D01*
X338973Y428165D01*
D02*
G37*
G36*
X208243Y425716D02*
X207111D01*
X206018Y425423D01*
X205037Y424858D01*
X204237Y424057D01*
X203671Y423077D01*
X203378Y421983D01*
Y420851D01*
X203671Y419758D01*
X204237Y418778D01*
X205037Y417977D01*
X206018Y417411D01*
X207111Y417118D01*
X208243D01*
X209337Y417411D01*
X210317Y417977D01*
X211117Y418778D01*
X211683Y419758D01*
X211976Y420851D01*
Y421983D01*
X211683Y423077D01*
X211117Y424057D01*
X210317Y424858D01*
X209337Y425423D01*
X208243Y425716D01*
D02*
G37*
G36*
X431497Y420094D02*
X430708D01*
X429978Y419792D01*
X429420Y419234D01*
X429118Y418505D01*
Y417716D01*
X429420Y416986D01*
X429978Y416428D01*
X430708Y416126D01*
X431497D01*
X432226Y416428D01*
X432785Y416986D01*
X433087Y417716D01*
Y418505D01*
X432785Y419234D01*
X432226Y419792D01*
X431497Y420094D01*
D02*
G37*
G36*
X555807Y426102D02*
X554429D01*
X553097Y425745D01*
X551903Y425056D01*
X550928Y424081D01*
X550239Y422887D01*
X549882Y421556D01*
Y420177D01*
X550239Y418845D01*
X550928Y417651D01*
X551903Y416676D01*
X553097Y415987D01*
X554429Y415630D01*
X555807D01*
X557139Y415987D01*
X558333Y416676D01*
X559308Y417651D01*
X559998Y418845D01*
X560354Y420177D01*
Y421556D01*
X559998Y422887D01*
X559308Y424081D01*
X558333Y425056D01*
X557139Y425745D01*
X555807Y426102D01*
D02*
G37*
G36*
X476182Y453661D02*
X474803D01*
X473471Y453305D01*
X472277Y452615D01*
X471302Y451640D01*
X470613Y450446D01*
X470256Y449115D01*
Y447736D01*
X470613Y446404D01*
X471302Y445210D01*
X472277Y444235D01*
X473471Y443546D01*
X474803Y443189D01*
X476182D01*
X477513Y443546D01*
X478508Y444120D01*
X480911Y441718D01*
Y433195D01*
X360236D01*
X359888Y433125D01*
X359592Y432928D01*
X307230Y380566D01*
X307032Y380270D01*
X306963Y379921D01*
Y346258D01*
X306750Y346170D01*
X306192Y345612D01*
X305890Y344883D01*
Y344093D01*
X306192Y343364D01*
X306750Y342806D01*
X307479Y342504D01*
X308269D01*
X308998Y342806D01*
X309556Y343364D01*
X309858Y344093D01*
Y344883D01*
X309556Y345612D01*
X308998Y346170D01*
X308785Y346258D01*
Y379544D01*
X360614Y431372D01*
X481445D01*
X484413Y428404D01*
Y426683D01*
X484483Y426335D01*
X484680Y426039D01*
X486837Y423882D01*
X486262Y422887D01*
X485906Y421556D01*
Y420177D01*
X486262Y418845D01*
X486952Y417651D01*
X487927Y416676D01*
X489121Y415987D01*
X490452Y415630D01*
X491831D01*
X493163Y415987D01*
X494357Y416676D01*
X495332Y417651D01*
X496021Y418845D01*
X496378Y420177D01*
Y421556D01*
X496021Y422887D01*
X495332Y424081D01*
X494357Y425056D01*
X493163Y425745D01*
X491831Y426102D01*
X490452D01*
X489121Y425745D01*
X488126Y425171D01*
X486236Y427061D01*
Y428781D01*
X486166Y429130D01*
X485969Y429425D01*
X482733Y432661D01*
Y442095D01*
X482664Y442444D01*
X482467Y442739D01*
X479797Y445409D01*
X480372Y446404D01*
X480728Y447736D01*
Y449115D01*
X480372Y450446D01*
X479682Y451640D01*
X478707Y452615D01*
X477513Y453305D01*
X476182Y453661D01*
D02*
G37*
G36*
X477067Y426102D02*
X475689D01*
X474357Y425745D01*
X473163Y425056D01*
X472188Y424081D01*
X471499Y422887D01*
X471142Y421556D01*
Y420177D01*
X471499Y418845D01*
X472188Y417651D01*
X473163Y416676D01*
X474357Y415987D01*
X475689Y415630D01*
X477067D01*
X478399Y415987D01*
X479593Y416676D01*
X480568Y417651D01*
X481257Y418845D01*
X481614Y420177D01*
Y421556D01*
X481257Y422887D01*
X480568Y424081D01*
X479593Y425056D01*
X478399Y425745D01*
X477067Y426102D01*
D02*
G37*
G36*
X442910Y417535D02*
X442129D01*
X441374Y417333D01*
X440697Y416942D01*
X440144Y416390D01*
X439753Y415713D01*
X439551Y414958D01*
Y414176D01*
X439753Y413421D01*
X440144Y412744D01*
X440697Y412191D01*
X441374Y411801D01*
X442129Y411598D01*
X442910D01*
X443666Y411801D01*
X444342Y412191D01*
X444895Y412744D01*
X445286Y413421D01*
X445488Y414176D01*
Y414958D01*
X445286Y415713D01*
X444895Y416390D01*
X444342Y416942D01*
X443666Y417333D01*
X442910Y417535D01*
D02*
G37*
G36*
X364170D02*
X363389D01*
X362634Y417333D01*
X361957Y416942D01*
X361404Y416390D01*
X361013Y415713D01*
X360811Y414958D01*
Y414176D01*
X361013Y413421D01*
X361404Y412744D01*
X361957Y412191D01*
X362634Y411801D01*
X363389Y411598D01*
X364170D01*
X364925Y411801D01*
X365602Y412191D01*
X366155Y412744D01*
X366546Y413421D01*
X366748Y414176D01*
Y414958D01*
X366546Y415713D01*
X366155Y416390D01*
X365602Y416942D01*
X364925Y417333D01*
X364170Y417535D01*
D02*
G37*
G36*
X222438D02*
X221656D01*
X220901Y417333D01*
X220224Y416942D01*
X219672Y416390D01*
X219281Y415713D01*
X219079Y414958D01*
Y414176D01*
X219281Y413421D01*
X219672Y412744D01*
X220224Y412191D01*
X220901Y411801D01*
X221656Y411598D01*
X222438D01*
X223193Y411801D01*
X223870Y412191D01*
X224423Y412744D01*
X224814Y413421D01*
X225016Y414176D01*
Y414958D01*
X224814Y415713D01*
X224423Y416390D01*
X223870Y416942D01*
X223193Y417333D01*
X222438Y417535D01*
D02*
G37*
G36*
X386222Y415370D02*
X385432D01*
X384703Y415068D01*
X384145Y414510D01*
X383842Y413780D01*
Y412991D01*
X384145Y412262D01*
X384703Y411704D01*
X385432Y411402D01*
X386222D01*
X386951Y411704D01*
X387509Y412262D01*
X387811Y412991D01*
Y413780D01*
X387509Y414510D01*
X386951Y415068D01*
X386222Y415370D01*
D02*
G37*
G36*
X426773Y413008D02*
X425983D01*
X425254Y412706D01*
X424696Y412148D01*
X424394Y411418D01*
Y410629D01*
X424696Y409900D01*
X425254Y409341D01*
X425983Y409039D01*
X426773D01*
X427502Y409341D01*
X428060Y409900D01*
X428362Y410629D01*
Y411418D01*
X428060Y412148D01*
X427502Y412706D01*
X426773Y413008D01*
D02*
G37*
G36*
X208243Y415717D02*
X207111D01*
X206018Y415423D01*
X205037Y414857D01*
X204237Y414057D01*
X203671Y413077D01*
X203378Y411983D01*
Y410851D01*
X203671Y409758D01*
X204237Y408778D01*
X205037Y407977D01*
X206018Y407411D01*
X207111Y407118D01*
X208243D01*
X209337Y407411D01*
X210317Y407977D01*
X211117Y408778D01*
X211683Y409758D01*
X211976Y410851D01*
Y411983D01*
X211683Y413077D01*
X211117Y414057D01*
X210317Y414857D01*
X209337Y415423D01*
X208243Y415717D01*
D02*
G37*
G36*
X426773Y402378D02*
X425983D01*
X425254Y402076D01*
X424696Y401518D01*
X424394Y400788D01*
Y399999D01*
X424696Y399270D01*
X425254Y398711D01*
X425983Y398410D01*
X426773D01*
X427502Y398711D01*
X428060Y399270D01*
X428362Y399999D01*
Y400788D01*
X428060Y401518D01*
X427502Y402076D01*
X426773Y402378D01*
D02*
G37*
G36*
X386222Y400410D02*
X385432D01*
X384703Y400107D01*
X384145Y399549D01*
X383842Y398820D01*
Y398030D01*
X384145Y397301D01*
X384703Y396743D01*
X385432Y396441D01*
X386222D01*
X386951Y396743D01*
X387509Y397301D01*
X387811Y398030D01*
Y398820D01*
X387509Y399549D01*
X386951Y400107D01*
X386222Y400410D01*
D02*
G37*
G36*
X458659Y401787D02*
X457877D01*
X457122Y401585D01*
X456445Y401194D01*
X455892Y400642D01*
X455502Y399965D01*
X455299Y399210D01*
Y398428D01*
X455502Y397673D01*
X455892Y396996D01*
X456445Y396444D01*
X457122Y396053D01*
X457877Y395850D01*
X458659D01*
X459413Y396053D01*
X460090Y396444D01*
X460643Y396996D01*
X461034Y397673D01*
X461236Y398428D01*
Y399210D01*
X461034Y399965D01*
X460643Y400642D01*
X460090Y401194D01*
X459413Y401585D01*
X458659Y401787D01*
D02*
G37*
G36*
X431497Y395291D02*
X430708D01*
X429978Y394989D01*
X429420Y394431D01*
X429118Y393702D01*
Y392912D01*
X429420Y392183D01*
X429978Y391625D01*
X430708Y391323D01*
X431497D01*
X432226Y391625D01*
X432785Y392183D01*
X433087Y392912D01*
Y393702D01*
X432785Y394431D01*
X432226Y394989D01*
X431497Y395291D01*
D02*
G37*
G36*
X342127Y390173D02*
X341338D01*
X340608Y389871D01*
X340158Y389420D01*
X339707Y389871D01*
X338977Y390173D01*
X338188D01*
X337459Y389871D01*
X336900Y389313D01*
X336598Y388584D01*
Y387794D01*
X336900Y387065D01*
X337459Y386507D01*
X338188Y386205D01*
X338977D01*
X339707Y386507D01*
X340158Y386958D01*
X340608Y386507D01*
X341338Y386205D01*
X342127D01*
X342856Y386507D01*
X343414Y387065D01*
X343717Y387794D01*
Y388584D01*
X343414Y389313D01*
X342856Y389871D01*
X342127Y390173D01*
D02*
G37*
G36*
X327560Y385449D02*
X326771D01*
X326041Y385147D01*
X325483Y384589D01*
X325181Y383859D01*
Y383070D01*
X325483Y382341D01*
X326041Y381782D01*
X326771Y381480D01*
X327560D01*
X328289Y381782D01*
X328848Y382341D01*
X329150Y383070D01*
Y383859D01*
X328848Y384589D01*
X328289Y385147D01*
X327560Y385449D01*
D02*
G37*
G36*
X301178Y386039D02*
X300397D01*
X299642Y385837D01*
X298965Y385446D01*
X298412Y384894D01*
X298021Y384217D01*
X297819Y383462D01*
Y382680D01*
X298021Y381925D01*
X298412Y381248D01*
X298965Y380696D01*
X299642Y380305D01*
X300397Y380102D01*
X301178D01*
X301933Y380305D01*
X302610Y380696D01*
X303163Y381248D01*
X303554Y381925D01*
X303756Y382680D01*
Y383462D01*
X303554Y384217D01*
X303163Y384894D01*
X302610Y385446D01*
X301933Y385837D01*
X301178Y386039D01*
D02*
G37*
G36*
X285430D02*
X284649D01*
X283894Y385837D01*
X283217Y385446D01*
X282664Y384894D01*
X282273Y384217D01*
X282071Y383462D01*
Y382680D01*
X282273Y381925D01*
X282664Y381248D01*
X283217Y380696D01*
X283894Y380305D01*
X284649Y380102D01*
X285430D01*
X286185Y380305D01*
X286862Y380696D01*
X287415Y381248D01*
X287806Y381925D01*
X288008Y382680D01*
Y383462D01*
X287806Y384217D01*
X287415Y384894D01*
X286862Y385446D01*
X286185Y385837D01*
X285430Y386039D01*
D02*
G37*
G36*
X442910Y370291D02*
X442129D01*
X441374Y370089D01*
X440697Y369698D01*
X440144Y369145D01*
X439753Y368469D01*
X439551Y367714D01*
Y366932D01*
X439753Y366177D01*
X440144Y365500D01*
X440697Y364947D01*
X441374Y364557D01*
X442129Y364354D01*
X442910D01*
X443666Y364557D01*
X444342Y364947D01*
X444895Y365500D01*
X445286Y366177D01*
X445488Y366932D01*
Y367714D01*
X445286Y368469D01*
X444895Y369145D01*
X444342Y369698D01*
X443666Y370089D01*
X442910Y370291D01*
D02*
G37*
G36*
X427163D02*
X426381D01*
X425626Y370089D01*
X424949Y369698D01*
X424396Y369145D01*
X424005Y368469D01*
X423803Y367714D01*
Y366932D01*
X424005Y366177D01*
X424396Y365500D01*
X424949Y364947D01*
X425626Y364557D01*
X426381Y364354D01*
X427163D01*
X427917Y364557D01*
X428594Y364947D01*
X429147Y365500D01*
X429538Y366177D01*
X429740Y366932D01*
Y367714D01*
X429538Y368469D01*
X429147Y369145D01*
X428594Y369698D01*
X427917Y370089D01*
X427163Y370291D01*
D02*
G37*
G36*
X316926D02*
X316145D01*
X315390Y370089D01*
X314713Y369698D01*
X314160Y369145D01*
X313769Y368469D01*
X313567Y367714D01*
Y366932D01*
X313769Y366177D01*
X314160Y365500D01*
X314713Y364947D01*
X315390Y364557D01*
X316145Y364354D01*
X316926D01*
X317681Y364557D01*
X318358Y364947D01*
X318911Y365500D01*
X319302Y366177D01*
X319504Y366932D01*
Y367714D01*
X319302Y368469D01*
X318911Y369145D01*
X318358Y369698D01*
X317681Y370089D01*
X316926Y370291D01*
D02*
G37*
G36*
X301178D02*
X300397D01*
X299642Y370089D01*
X298965Y369698D01*
X298412Y369145D01*
X298021Y368469D01*
X297819Y367714D01*
Y366932D01*
X298021Y366177D01*
X298412Y365500D01*
X298965Y364947D01*
X299642Y364557D01*
X300397Y364354D01*
X301178D01*
X301933Y364557D01*
X302610Y364947D01*
X303163Y365500D01*
X303554Y366177D01*
X303756Y366932D01*
Y367714D01*
X303554Y368469D01*
X303163Y369145D01*
X302610Y369698D01*
X301933Y370089D01*
X301178Y370291D01*
D02*
G37*
G36*
X219995Y370905D02*
X218824D01*
X217692Y370602D01*
X216678Y370017D01*
X215849Y369188D01*
X215264Y368174D01*
X214961Y367042D01*
Y365871D01*
X215264Y364739D01*
X215849Y363725D01*
X216678Y362897D01*
X217692Y362311D01*
X218824Y362008D01*
X219995D01*
X221127Y362311D01*
X222141Y362897D01*
X222969Y363725D01*
X223555Y364739D01*
X223858Y365871D01*
Y367042D01*
X223555Y368174D01*
X222969Y369188D01*
X222141Y370017D01*
X221127Y370602D01*
X219995Y370905D01*
D02*
G37*
G36*
X259843Y376394D02*
X259054D01*
X258325Y376092D01*
X257767Y375533D01*
X257679Y375321D01*
X248819D01*
X248470Y375251D01*
X248175Y375054D01*
X246803Y373682D01*
X246605Y373386D01*
X246536Y373038D01*
Y372063D01*
X246605Y371714D01*
X246749Y371498D01*
Y371252D01*
X246309Y370812D01*
X246089D01*
X244001Y372901D01*
X243705Y373098D01*
X243356Y373167D01*
X242382D01*
X242033Y373098D01*
X241738Y372901D01*
X240763Y371926D01*
X240566Y371631D01*
X240496Y371282D01*
Y370307D01*
X240566Y369959D01*
X240763Y369663D01*
X242945Y367482D01*
Y367262D01*
X242504Y366822D01*
X242285D01*
X240103Y369003D01*
X239808Y369201D01*
X239459Y369270D01*
X238485D01*
X238136Y369201D01*
X237840Y369003D01*
X236866Y368029D01*
X236668Y367733D01*
X236599Y367384D01*
Y366410D01*
X236668Y366061D01*
X236866Y365766D01*
X237564Y365067D01*
X237755Y364634D01*
X237024Y363903D01*
X233650D01*
X233361Y364403D01*
X233555Y364739D01*
X233858Y365871D01*
Y367042D01*
X233555Y368174D01*
X232969Y369188D01*
X232141Y370017D01*
X231127Y370602D01*
X229995Y370905D01*
X228824D01*
X227692Y370602D01*
X226678Y370017D01*
X225850Y369188D01*
X225264Y368174D01*
X224961Y367042D01*
Y365871D01*
X225264Y364739D01*
X225850Y363725D01*
X226678Y362897D01*
X227692Y362311D01*
X228824Y362008D01*
X229995D01*
X231127Y362311D01*
X231849Y362728D01*
X232230Y362348D01*
X232525Y362150D01*
X232874Y362081D01*
X237402D01*
X237750Y362150D01*
X238046Y362348D01*
X239044Y363346D01*
X239044Y363346D01*
X239322Y363624D01*
X239520Y363920D01*
X239589Y364268D01*
Y365243D01*
X239520Y365591D01*
X239322Y365887D01*
X238422Y366788D01*
Y367007D01*
X238862Y367447D01*
X239082D01*
X241263Y365266D01*
X241559Y365069D01*
X241907Y364999D01*
X242882D01*
X243230Y365069D01*
X243526Y365266D01*
X244500Y366241D01*
X244698Y366536D01*
X244767Y366885D01*
Y367859D01*
X244698Y368208D01*
X244500Y368503D01*
X242319Y370685D01*
Y370904D01*
X242759Y371345D01*
X242979D01*
X245068Y369256D01*
X245363Y369059D01*
X245712Y368989D01*
X246686D01*
X247035Y369059D01*
X247331Y369256D01*
X248305Y370231D01*
X248502Y370526D01*
X248572Y370875D01*
Y371849D01*
X248502Y372198D01*
X248358Y372414D01*
Y372660D01*
X249196Y373498D01*
X257679D01*
X257767Y373286D01*
X258325Y372727D01*
X258339Y372671D01*
X258004Y372171D01*
X254213D01*
X253864Y372102D01*
X253568Y371904D01*
X246344Y364680D01*
X244458Y362794D01*
X244238D01*
X243958Y363074D01*
X243662Y363271D01*
X243314Y363341D01*
X242339D01*
X241990Y363271D01*
X241695Y363074D01*
X240721Y362100D01*
X240523Y361804D01*
X240454Y361455D01*
Y360481D01*
X240523Y360132D01*
X240721Y359837D01*
X242404Y358154D01*
Y357934D01*
X241963Y357493D01*
X241743D01*
X239759Y359478D01*
X239463Y359676D01*
X239114Y359745D01*
X238140D01*
X237791Y359676D01*
X237496Y359478D01*
X236522Y358504D01*
X236324Y358208D01*
X236255Y357859D01*
Y356885D01*
X236324Y356536D01*
X236522Y356241D01*
X236910Y355852D01*
X236905Y355241D01*
X231849Y350185D01*
X231127Y350602D01*
X229995Y350905D01*
X228824D01*
X227692Y350602D01*
X226678Y350017D01*
X225850Y349188D01*
X225264Y348174D01*
X224961Y347042D01*
Y345871D01*
X225264Y344740D01*
X225850Y343725D01*
X226678Y342897D01*
X227692Y342311D01*
X228824Y342008D01*
X229995D01*
X231127Y342311D01*
X232141Y342897D01*
X232969Y343725D01*
X233555Y344740D01*
X233858Y345871D01*
Y347042D01*
X233555Y348174D01*
X233138Y348897D01*
X238659Y354418D01*
X238857Y354713D01*
X238926Y355062D01*
Y356036D01*
X238857Y356385D01*
X238659Y356681D01*
X238387Y356953D01*
Y357634D01*
X238447Y357695D01*
X238965D01*
X240722Y355938D01*
X241017Y355740D01*
X241366Y355671D01*
X242340D01*
X242689Y355740D01*
X242985Y355938D01*
X243959Y356912D01*
X244157Y357208D01*
X244226Y357557D01*
Y358531D01*
X244157Y358880D01*
X243959Y359175D01*
X242586Y360549D01*
Y361230D01*
X242647Y361291D01*
X243164D01*
X243216Y361238D01*
X243512Y361040D01*
X243861Y360971D01*
X244835D01*
X245184Y361040D01*
X245479Y361238D01*
X247633Y363391D01*
X254590Y370349D01*
X258466D01*
X258554Y370136D01*
X259112Y369578D01*
X259841Y369276D01*
X260233D01*
X260440Y368776D01*
X251061Y359397D01*
X247045Y355381D01*
X246848Y355085D01*
X246778Y354737D01*
Y353763D01*
X246778Y353762D01*
Y353166D01*
X246338Y352725D01*
X246118D01*
X244740Y354104D01*
X244444Y354301D01*
X244095Y354370D01*
X243121D01*
X242772Y354301D01*
X242477Y354104D01*
X241502Y353129D01*
X241305Y352834D01*
X241235Y352485D01*
Y351511D01*
X241305Y351162D01*
X241502Y350866D01*
X241705Y350664D01*
X241895Y350231D01*
X231849Y340185D01*
X231127Y340602D01*
X229995Y340905D01*
X228824D01*
X227692Y340602D01*
X226678Y340017D01*
X225850Y339188D01*
X225264Y338174D01*
X224961Y337042D01*
Y335871D01*
X225264Y334739D01*
X225850Y333725D01*
X226678Y332897D01*
X227692Y332311D01*
X228824Y332008D01*
X229995D01*
X231127Y332311D01*
X232141Y332897D01*
X232969Y333725D01*
X233555Y334739D01*
X233858Y335871D01*
Y337042D01*
X233555Y338174D01*
X233138Y338896D01*
X243184Y348942D01*
X243184Y348942D01*
X243462Y349221D01*
X243660Y349516D01*
X243729Y349865D01*
Y350839D01*
X243660Y351188D01*
X243462Y351484D01*
X243368Y351578D01*
Y352260D01*
X243428Y352321D01*
X243945D01*
X245097Y351169D01*
X245392Y350972D01*
X245741Y350903D01*
X246715D01*
X247064Y350972D01*
X247360Y351169D01*
X248334Y352144D01*
X248532Y352439D01*
X248601Y352788D01*
Y353762D01*
X248601Y353763D01*
Y354359D01*
X252350Y358108D01*
X263636Y369395D01*
X263834Y369691D01*
X263903Y370039D01*
Y371064D01*
X264116Y371152D01*
X264674Y371711D01*
X264976Y372440D01*
Y373229D01*
X264674Y373959D01*
X264116Y374517D01*
X263387Y374819D01*
X262597D01*
X261933Y374544D01*
X261433Y374735D01*
Y374804D01*
X261131Y375533D01*
X260573Y376092D01*
X259843Y376394D01*
D02*
G37*
G36*
X377559Y379921D02*
X354331D01*
Y352362D01*
X377559D01*
Y379921D01*
D02*
G37*
G36*
X219995Y360906D02*
X218824D01*
X217692Y360602D01*
X216678Y360017D01*
X215849Y359188D01*
X215264Y358174D01*
X214961Y357042D01*
Y355871D01*
X215264Y354739D01*
X215849Y353725D01*
X216678Y352897D01*
X217692Y352311D01*
X218824Y352008D01*
X219995D01*
X221127Y352311D01*
X222141Y352897D01*
X222969Y353725D01*
X223555Y354739D01*
X223858Y355871D01*
Y357042D01*
X223555Y358174D01*
X222969Y359188D01*
X222141Y360017D01*
X221127Y360602D01*
X219995Y360906D01*
D02*
G37*
G36*
X537796Y355528D02*
X537007D01*
X536278Y355225D01*
X535719Y354667D01*
X535417Y353938D01*
Y353149D01*
X535719Y352419D01*
X536278Y351861D01*
X537007Y351559D01*
X537796D01*
X538526Y351861D01*
X539084Y352419D01*
X539386Y353149D01*
Y353938D01*
X539084Y354667D01*
X538526Y355225D01*
X537796Y355528D01*
D02*
G37*
G36*
X248426Y409465D02*
X247637D01*
X246907Y409162D01*
X246349Y408604D01*
X246047Y407875D01*
Y407086D01*
X246349Y406356D01*
X246907Y405798D01*
X247637Y405496D01*
X248426D01*
X248639Y405584D01*
X277435Y376788D01*
Y360038D01*
X277222Y359950D01*
X276664Y359392D01*
X276362Y358662D01*
Y357873D01*
X276664Y357144D01*
X277115Y356693D01*
X276664Y356242D01*
X276362Y355513D01*
Y354723D01*
X276450Y354511D01*
X246600Y324660D01*
X246402Y324364D01*
X246333Y324016D01*
Y287402D01*
X246402Y287053D01*
X246600Y286757D01*
X263923Y269434D01*
X264218Y269237D01*
X264567Y269167D01*
X453150D01*
X453498Y269237D01*
X453794Y269434D01*
X479707Y295348D01*
X479920Y295260D01*
X480710D01*
X481439Y295562D01*
X481997Y296120D01*
X482299Y296849D01*
Y297639D01*
X481997Y298368D01*
X481439Y298926D01*
X480710Y299228D01*
X479920D01*
X479191Y298926D01*
X478633Y298368D01*
X478331Y297639D01*
Y296849D01*
X478419Y296637D01*
X452772Y270990D01*
X264944D01*
X248155Y287779D01*
Y323370D01*
X248303Y323474D01*
X248803Y323214D01*
Y322834D01*
X249105Y322104D01*
X249663Y321546D01*
X250393Y321244D01*
X251182D01*
X251911Y321546D01*
X252470Y322104D01*
X252772Y322834D01*
Y323623D01*
X252683Y323836D01*
X263763Y334916D01*
X332482D01*
X332570Y334703D01*
X333128Y334145D01*
X333857Y333842D01*
X334647D01*
X335376Y334145D01*
X335934Y334703D01*
X336236Y335432D01*
Y336222D01*
X335934Y336951D01*
X335376Y337509D01*
X334647Y337811D01*
X333857D01*
X333128Y337509D01*
X332570Y336951D01*
X332482Y336738D01*
X263386D01*
X263037Y336669D01*
X262741Y336471D01*
X251395Y325125D01*
X251182Y325213D01*
X250437D01*
X250340Y325328D01*
X250185Y325668D01*
X277739Y353222D01*
X277952Y353134D01*
X278741D01*
X279470Y353436D01*
X279996Y353962D01*
X280263Y353950D01*
X280516Y353865D01*
X280698Y353185D01*
X281089Y352508D01*
X281642Y351955D01*
X282319Y351565D01*
X283074Y351362D01*
X283855D01*
X284610Y351565D01*
X285287Y351955D01*
X285840Y352508D01*
X286231Y353185D01*
X286433Y353940D01*
Y354721D01*
X286231Y355476D01*
X285840Y356153D01*
X285287Y356706D01*
X284610Y357097D01*
X283855Y357299D01*
X283074D01*
X282319Y357097D01*
X281642Y356706D01*
X281089Y356153D01*
X280793Y355640D01*
X280260Y355684D01*
X280029Y356242D01*
X279578Y356693D01*
X280029Y357144D01*
X280331Y357873D01*
Y358662D01*
X280029Y359392D01*
X279470Y359950D01*
X279258Y360038D01*
Y377165D01*
X279188Y377514D01*
X278991Y377810D01*
X249928Y406873D01*
X250016Y407086D01*
Y407875D01*
X249714Y408604D01*
X249155Y409162D01*
X248426Y409465D01*
D02*
G37*
G36*
X557481Y350409D02*
X556692D01*
X555963Y350107D01*
X555405Y349549D01*
X555316Y349336D01*
X539172D01*
X539084Y349549D01*
X538526Y350107D01*
X537796Y350409D01*
X537007D01*
X536278Y350107D01*
X535719Y349549D01*
X535417Y348820D01*
Y348030D01*
X535719Y347301D01*
X536278Y346743D01*
X537007Y346441D01*
X537796D01*
X538526Y346743D01*
X539084Y347301D01*
X539172Y347514D01*
X555316D01*
X555405Y347301D01*
X555963Y346743D01*
X556692Y346441D01*
X557481D01*
X558211Y346743D01*
X558769Y347301D01*
X559071Y348030D01*
Y348820D01*
X558769Y349549D01*
X558211Y350107D01*
X557481Y350409D01*
D02*
G37*
G36*
X206690Y354543D02*
X205908D01*
X205153Y354341D01*
X204476Y353950D01*
X203924Y353397D01*
X203533Y352721D01*
X203331Y351966D01*
Y351184D01*
X203533Y350429D01*
X203924Y349752D01*
X204476Y349199D01*
X205153Y348809D01*
X205908Y348606D01*
X206690D01*
X207445Y348809D01*
X208122Y349199D01*
X208675Y349752D01*
X209065Y350429D01*
X209268Y351184D01*
Y351966D01*
X209065Y352721D01*
X208675Y353397D01*
X208122Y353950D01*
X207445Y354341D01*
X206690Y354543D01*
D02*
G37*
G36*
X325198Y346472D02*
X324409D01*
X323679Y346170D01*
X323121Y345612D01*
X323085Y345524D01*
X322585D01*
X322548Y345612D01*
X321990Y346170D01*
X321261Y346472D01*
X320472D01*
X319742Y346170D01*
X319184Y345612D01*
X318882Y344883D01*
Y344093D01*
X319184Y343364D01*
X319742Y342806D01*
X320472Y342504D01*
X321261D01*
X321990Y342806D01*
X322548Y343364D01*
X322585Y343452D01*
X323085D01*
X323121Y343364D01*
X323679Y342806D01*
X324409Y342504D01*
X325198D01*
X325927Y342806D01*
X326485Y343364D01*
X326787Y344093D01*
Y344883D01*
X326485Y345612D01*
X325927Y346170D01*
X325198Y346472D01*
D02*
G37*
G36*
X312993Y351590D02*
X312204D01*
X311474Y351289D01*
X310916Y350730D01*
X310614Y350001D01*
Y349212D01*
X310916Y348482D01*
X311367Y348031D01*
X310916Y347581D01*
X310614Y346851D01*
Y346062D01*
X310916Y345333D01*
X311474Y344775D01*
X312204Y344472D01*
X312993D01*
X313722Y344775D01*
X314281Y345333D01*
X314583Y346062D01*
Y346851D01*
X314281Y347581D01*
X313830Y348031D01*
X314281Y348482D01*
X314583Y349212D01*
Y350001D01*
X314281Y350730D01*
X313722Y351289D01*
X312993Y351590D01*
D02*
G37*
G36*
X295670Y346472D02*
X294881D01*
X294152Y346170D01*
X293593Y345612D01*
X293291Y344883D01*
Y344093D01*
X293593Y343364D01*
X294152Y342806D01*
X294881Y342504D01*
X295670D01*
X296400Y342806D01*
X296958Y343364D01*
X297260Y344093D01*
Y344883D01*
X296958Y345612D01*
X296400Y346170D01*
X295670Y346472D01*
D02*
G37*
G36*
X219995Y350905D02*
X218824D01*
X217692Y350602D01*
X216678Y350017D01*
X215849Y349188D01*
X215264Y348174D01*
X214961Y347042D01*
Y345871D01*
X215264Y344740D01*
X215849Y343725D01*
X216678Y342897D01*
X217692Y342311D01*
X218824Y342008D01*
X219995D01*
X221127Y342311D01*
X222141Y342897D01*
X222969Y343725D01*
X223555Y344740D01*
X223858Y345871D01*
Y347042D01*
X223555Y348174D01*
X222969Y349188D01*
X222141Y350017D01*
X221127Y350602D01*
X219995Y350905D01*
D02*
G37*
G36*
X427163Y338795D02*
X426381D01*
X425626Y338593D01*
X424949Y338202D01*
X424396Y337649D01*
X424005Y336973D01*
X423803Y336218D01*
Y335436D01*
X424005Y334681D01*
X424396Y334004D01*
X424949Y333451D01*
X425626Y333061D01*
X426381Y332858D01*
X427163D01*
X427917Y333061D01*
X428594Y333451D01*
X429147Y334004D01*
X429538Y334681D01*
X429740Y335436D01*
Y336218D01*
X429538Y336973D01*
X429147Y337649D01*
X428594Y338202D01*
X427917Y338593D01*
X427163Y338795D01*
D02*
G37*
G36*
X395666D02*
X394885D01*
X394130Y338593D01*
X393453Y338202D01*
X392900Y337649D01*
X392509Y336973D01*
X392307Y336218D01*
Y335436D01*
X392509Y334681D01*
X392900Y334004D01*
X393453Y333451D01*
X394130Y333061D01*
X394885Y332858D01*
X395666D01*
X396421Y333061D01*
X397098Y333451D01*
X397651Y334004D01*
X398042Y334681D01*
X398244Y335436D01*
Y336218D01*
X398042Y336973D01*
X397651Y337649D01*
X397098Y338202D01*
X396421Y338593D01*
X395666Y338795D01*
D02*
G37*
G36*
X326379Y329543D02*
X325590D01*
X324860Y329241D01*
X324302Y328683D01*
X324000Y327954D01*
Y327164D01*
X324302Y326435D01*
X324860Y325877D01*
X325590Y325575D01*
X326379D01*
X327108Y325877D01*
X327666Y326435D01*
X327969Y327164D01*
Y327954D01*
X327666Y328683D01*
X327108Y329241D01*
X326379Y329543D01*
D02*
G37*
G36*
X318505D02*
X317716D01*
X316986Y329241D01*
X316428Y328683D01*
X316126Y327954D01*
Y327164D01*
X316428Y326435D01*
X316986Y325877D01*
X317716Y325575D01*
X318505D01*
X319234Y325877D01*
X319792Y326435D01*
X320094Y327164D01*
Y327954D01*
X319792Y328683D01*
X319234Y329241D01*
X318505Y329543D01*
D02*
G37*
G36*
X310631D02*
X309841D01*
X309112Y329241D01*
X308554Y328683D01*
X308252Y327954D01*
Y327164D01*
X308554Y326435D01*
X309112Y325877D01*
X309841Y325575D01*
X310631D01*
X311360Y325877D01*
X311918Y326435D01*
X312221Y327164D01*
Y327954D01*
X311918Y328683D01*
X311360Y329241D01*
X310631Y329543D01*
D02*
G37*
G36*
X302757D02*
X301968D01*
X301238Y329241D01*
X300680Y328683D01*
X300378Y327954D01*
Y327164D01*
X300680Y326435D01*
X301238Y325877D01*
X301968Y325575D01*
X302757D01*
X303486Y325877D01*
X304044Y326435D01*
X304346Y327164D01*
Y327954D01*
X304044Y328683D01*
X303486Y329241D01*
X302757Y329543D01*
D02*
G37*
G36*
X294883D02*
X294093D01*
X293364Y329241D01*
X292806Y328683D01*
X292504Y327954D01*
Y327164D01*
X292806Y326435D01*
X293364Y325877D01*
X294093Y325575D01*
X294883D01*
X295612Y325877D01*
X296170Y326435D01*
X296472Y327164D01*
Y327954D01*
X296170Y328683D01*
X295612Y329241D01*
X294883Y329543D01*
D02*
G37*
G36*
X287009D02*
X286220D01*
X285490Y329241D01*
X284932Y328683D01*
X284630Y327954D01*
Y327164D01*
X284932Y326435D01*
X285490Y325877D01*
X286220Y325575D01*
X287009D01*
X287738Y325877D01*
X288296Y326435D01*
X288598Y327164D01*
Y327954D01*
X288296Y328683D01*
X287738Y329241D01*
X287009Y329543D01*
D02*
G37*
G36*
X279135D02*
X278345D01*
X277616Y329241D01*
X277058Y328683D01*
X276756Y327954D01*
Y327164D01*
X277058Y326435D01*
X277616Y325877D01*
X278345Y325575D01*
X279135D01*
X279864Y325877D01*
X280422Y326435D01*
X280724Y327164D01*
Y327954D01*
X280422Y328683D01*
X279864Y329241D01*
X279135Y329543D01*
D02*
G37*
G36*
X267718Y372063D02*
X266928D01*
X266199Y371761D01*
X265641Y371203D01*
X265339Y370473D01*
Y369684D01*
X265641Y368955D01*
X266199Y368397D01*
X266412Y368308D01*
Y364748D01*
X232570Y330906D01*
X224961D01*
Y322008D01*
X233858D01*
Y329617D01*
X267967Y363726D01*
X268165Y364021D01*
X268234Y364370D01*
Y368308D01*
X268447Y368397D01*
X269005Y368955D01*
X269307Y369684D01*
Y370473D01*
X269005Y371203D01*
X268447Y371761D01*
X267718Y372063D01*
D02*
G37*
G36*
X219995Y330906D02*
X218824D01*
X217692Y330602D01*
X216678Y330017D01*
X215849Y329188D01*
X215264Y328174D01*
X214961Y327042D01*
Y325871D01*
X215264Y324740D01*
X215849Y323725D01*
X216678Y322897D01*
X217692Y322311D01*
X218824Y322008D01*
X219995D01*
X221127Y322311D01*
X222141Y322897D01*
X222969Y323725D01*
X223555Y324740D01*
X223858Y325871D01*
Y327042D01*
X223555Y328174D01*
X222969Y329188D01*
X222141Y330017D01*
X221127Y330602D01*
X219995Y330906D01*
D02*
G37*
G36*
X441336Y317929D02*
X440554D01*
X439799Y317727D01*
X439122Y317336D01*
X438569Y316783D01*
X438179Y316106D01*
X437976Y315351D01*
Y314570D01*
X438179Y313815D01*
X438569Y313138D01*
X439122Y312585D01*
X439799Y312194D01*
X440554Y311992D01*
X441336D01*
X442091Y312194D01*
X442768Y312585D01*
X443320Y313138D01*
X443711Y313815D01*
X443913Y314570D01*
Y315351D01*
X443711Y316106D01*
X443320Y316783D01*
X442768Y317336D01*
X442091Y317727D01*
X441336Y317929D01*
D02*
G37*
G36*
X394092D02*
X393310D01*
X392555Y317727D01*
X391878Y317336D01*
X391325Y316783D01*
X390935Y316106D01*
X390732Y315351D01*
Y314570D01*
X390935Y313815D01*
X391325Y313138D01*
X391878Y312585D01*
X392555Y312194D01*
X393310Y311992D01*
X394092D01*
X394847Y312194D01*
X395524Y312585D01*
X396076Y313138D01*
X396467Y313815D01*
X396669Y314570D01*
Y315351D01*
X396467Y316106D01*
X396076Y316783D01*
X395524Y317336D01*
X394847Y317727D01*
X394092Y317929D01*
D02*
G37*
G36*
X228741Y294110D02*
X227952D01*
X227222Y293808D01*
X226664Y293250D01*
X226362Y292521D01*
Y291731D01*
X226664Y291002D01*
X227222Y290444D01*
X227952Y290142D01*
X228741D01*
X229470Y290444D01*
X230029Y291002D01*
X230331Y291731D01*
Y292521D01*
X230029Y293250D01*
X229470Y293808D01*
X228741Y294110D01*
D02*
G37*
G36*
Y287811D02*
X227952D01*
X227222Y287509D01*
X226664Y286951D01*
X226362Y286222D01*
Y285432D01*
X226664Y284703D01*
X227222Y284145D01*
X227952Y283842D01*
X228741D01*
X229470Y284145D01*
X230029Y284703D01*
X230331Y285432D01*
Y286222D01*
X230029Y286951D01*
X229470Y287509D01*
X228741Y287811D01*
D02*
G37*
G36*
X535824Y286433D02*
X535042D01*
X534287Y286231D01*
X533610Y285840D01*
X533058Y285287D01*
X532667Y284610D01*
X532465Y283855D01*
Y283074D01*
X532667Y282319D01*
X533058Y281642D01*
X533610Y281089D01*
X534287Y280698D01*
X535042Y280496D01*
X535824D01*
X536579Y280698D01*
X537256Y281089D01*
X537809Y281642D01*
X538199Y282319D01*
X538402Y283074D01*
Y283855D01*
X538199Y284610D01*
X537809Y285287D01*
X537256Y285840D01*
X536579Y286231D01*
X535824Y286433D01*
D02*
G37*
G36*
X268107D02*
X267326D01*
X266571Y286231D01*
X265894Y285840D01*
X265341Y285287D01*
X264950Y284610D01*
X264748Y283855D01*
Y283074D01*
X264950Y282319D01*
X265341Y281642D01*
X265894Y281089D01*
X266571Y280698D01*
X267326Y280496D01*
X268107D01*
X268862Y280698D01*
X269539Y281089D01*
X270092Y281642D01*
X270483Y282319D01*
X270685Y283074D01*
Y283855D01*
X270483Y284610D01*
X270092Y285287D01*
X269539Y285840D01*
X268862Y286231D01*
X268107Y286433D01*
D02*
G37*
G36*
X514915Y276240D02*
X513432D01*
X512000Y275856D01*
X510716Y275115D01*
X509668Y274067D01*
X508927Y272783D01*
X508543Y271351D01*
Y269869D01*
X508927Y268437D01*
X509668Y267153D01*
X510716Y266105D01*
X512000Y265364D01*
X513432Y264980D01*
X514915D01*
X516346Y265364D01*
X517630Y266105D01*
X518678Y267153D01*
X519419Y268437D01*
X519803Y269869D01*
Y271351D01*
X519419Y272783D01*
X518678Y274067D01*
X517630Y275115D01*
X516346Y275856D01*
X514915Y276240D01*
D02*
G37*
G36*
X501529D02*
X500046D01*
X498614Y275856D01*
X497331Y275115D01*
X496282Y274067D01*
X495541Y272783D01*
X495157Y271351D01*
Y269869D01*
X495541Y268437D01*
X496282Y267153D01*
X497331Y266105D01*
X498614Y265364D01*
X500046Y264980D01*
X501529D01*
X502960Y265364D01*
X504244Y266105D01*
X505293Y267153D01*
X506034Y268437D01*
X506417Y269869D01*
Y271351D01*
X506034Y272783D01*
X505293Y274067D01*
X504244Y275115D01*
X502960Y275856D01*
X501529Y276240D01*
D02*
G37*
G36*
X490155Y260055D02*
X489373D01*
X488618Y259853D01*
X487941Y259462D01*
X487388Y258909D01*
X486998Y258232D01*
X486795Y257477D01*
Y256696D01*
X486998Y255941D01*
X487388Y255264D01*
X487941Y254711D01*
X488618Y254320D01*
X489373Y254118D01*
X490155D01*
X490910Y254320D01*
X491586Y254711D01*
X492139Y255264D01*
X492530Y255941D01*
X492732Y256696D01*
Y257477D01*
X492530Y258232D01*
X492139Y258909D01*
X491586Y259462D01*
X490910Y259853D01*
X490155Y260055D01*
D02*
G37*
G36*
X450271Y259882D02*
X448903D01*
X447581Y259528D01*
X446396Y258843D01*
X445428Y257876D01*
X444744Y256691D01*
X444390Y255369D01*
Y254001D01*
X444744Y252679D01*
X445428Y251494D01*
X446396Y250526D01*
X447581Y249842D01*
X448903Y249488D01*
X450271D01*
X451593Y249842D01*
X452778Y250526D01*
X453745Y251494D01*
X454429Y252679D01*
X454783Y254001D01*
Y255369D01*
X454429Y256691D01*
X453745Y257876D01*
X452778Y258843D01*
X451593Y259528D01*
X450271Y259882D01*
D02*
G37*
G36*
X258184Y250512D02*
X256816D01*
X255494Y250158D01*
X254309Y249474D01*
X253342Y248506D01*
X252657Y247321D01*
X252303Y245999D01*
Y244631D01*
X252657Y243309D01*
X253342Y242124D01*
X254309Y241156D01*
X255494Y240472D01*
X256816Y240118D01*
X258184D01*
X259506Y240472D01*
X260691Y241156D01*
X261659Y242124D01*
X262343Y243309D01*
X262697Y244631D01*
Y245999D01*
X262343Y247321D01*
X261659Y248506D01*
X260691Y249474D01*
X259506Y250158D01*
X258184Y250512D01*
D02*
G37*
G36*
X411414Y244307D02*
X410633D01*
X409878Y244105D01*
X409201Y243714D01*
X408648Y243161D01*
X408257Y242484D01*
X408055Y241729D01*
Y240948D01*
X408257Y240193D01*
X408648Y239516D01*
X409201Y238963D01*
X409878Y238572D01*
X410633Y238370D01*
X411414D01*
X412169Y238572D01*
X412846Y238963D01*
X413399Y239516D01*
X413790Y240193D01*
X413992Y240948D01*
Y241729D01*
X413790Y242484D01*
X413399Y243161D01*
X412846Y243714D01*
X412169Y244105D01*
X411414Y244307D01*
D02*
G37*
G36*
X379918D02*
X379137D01*
X378382Y244105D01*
X377705Y243714D01*
X377152Y243161D01*
X376761Y242484D01*
X376559Y241729D01*
Y240948D01*
X376761Y240193D01*
X377152Y239516D01*
X377705Y238963D01*
X378382Y238572D01*
X379137Y238370D01*
X379918D01*
X380673Y238572D01*
X381350Y238963D01*
X381903Y239516D01*
X382294Y240193D01*
X382496Y240948D01*
Y241729D01*
X382294Y242484D01*
X381903Y243161D01*
X381350Y243714D01*
X380673Y244105D01*
X379918Y244307D01*
D02*
G37*
G36*
X348422D02*
X347641D01*
X346886Y244105D01*
X346209Y243714D01*
X345656Y243161D01*
X345265Y242484D01*
X345063Y241729D01*
Y240948D01*
X345265Y240193D01*
X345656Y239516D01*
X346209Y238963D01*
X346886Y238572D01*
X347641Y238370D01*
X348422D01*
X349177Y238572D01*
X349854Y238963D01*
X350407Y239516D01*
X350798Y240193D01*
X351000Y240948D01*
Y241729D01*
X350798Y242484D01*
X350407Y243161D01*
X349854Y243714D01*
X349177Y244105D01*
X348422Y244307D01*
D02*
G37*
G36*
X316926D02*
X316145D01*
X315390Y244105D01*
X314713Y243714D01*
X314160Y243161D01*
X313769Y242484D01*
X313567Y241729D01*
Y240948D01*
X313769Y240193D01*
X314160Y239516D01*
X314713Y238963D01*
X315390Y238572D01*
X316145Y238370D01*
X316926D01*
X317681Y238572D01*
X318358Y238963D01*
X318911Y239516D01*
X319302Y240193D01*
X319504Y240948D01*
Y241729D01*
X319302Y242484D01*
X318911Y243161D01*
X318358Y243714D01*
X317681Y244105D01*
X316926Y244307D01*
D02*
G37*
G36*
X285430D02*
X284649D01*
X283894Y244105D01*
X283217Y243714D01*
X282664Y243161D01*
X282273Y242484D01*
X282071Y241729D01*
Y240948D01*
X282273Y240193D01*
X282664Y239516D01*
X283217Y238963D01*
X283894Y238572D01*
X284649Y238370D01*
X285430D01*
X286185Y238572D01*
X286862Y238963D01*
X287415Y239516D01*
X287806Y240193D01*
X288008Y240948D01*
Y241729D01*
X287806Y242484D01*
X287415Y243161D01*
X286862Y243714D01*
X286185Y244105D01*
X285430Y244307D01*
D02*
G37*
G36*
X550763Y242646D02*
X549631D01*
X548537Y242353D01*
X547557Y241787D01*
X546757Y240986D01*
X546191Y240006D01*
X545898Y238913D01*
Y237780D01*
X546191Y236687D01*
X546757Y235707D01*
X547557Y234906D01*
X548537Y234340D01*
X549631Y234047D01*
X550763D01*
X551856Y234340D01*
X552837Y234906D01*
X553637Y235707D01*
X554203Y236687D01*
X554496Y237780D01*
Y238913D01*
X554203Y240006D01*
X553637Y240986D01*
X552837Y241787D01*
X551856Y242353D01*
X550763Y242646D01*
D02*
G37*
G36*
Y232646D02*
X549631D01*
X548537Y232353D01*
X547557Y231787D01*
X546757Y230986D01*
X546191Y230006D01*
X545898Y228912D01*
Y227781D01*
X546191Y226687D01*
X546757Y225707D01*
X547557Y224906D01*
X548537Y224340D01*
X549631Y224047D01*
X550763D01*
X551856Y224340D01*
X552837Y224906D01*
X553637Y225707D01*
X554203Y226687D01*
X554496Y227781D01*
Y228912D01*
X554203Y230006D01*
X553637Y230986D01*
X552837Y231787D01*
X551856Y232353D01*
X550763Y232646D01*
D02*
G37*
G36*
X537399Y228559D02*
X536617D01*
X535862Y228357D01*
X535185Y227966D01*
X534632Y227413D01*
X534242Y226736D01*
X534039Y225981D01*
Y225200D01*
X534242Y224445D01*
X534632Y223768D01*
X535185Y223215D01*
X535862Y222824D01*
X536617Y222622D01*
X537399D01*
X538154Y222824D01*
X538831Y223215D01*
X539383Y223768D01*
X539774Y224445D01*
X539976Y225200D01*
Y225981D01*
X539774Y226736D01*
X539383Y227413D01*
X538831Y227966D01*
X538154Y228357D01*
X537399Y228559D01*
D02*
G37*
G36*
X550763Y222646D02*
X549631D01*
X548537Y222353D01*
X547557Y221787D01*
X546757Y220986D01*
X546191Y220006D01*
X545898Y218913D01*
Y217780D01*
X546191Y216687D01*
X546757Y215707D01*
X547557Y214906D01*
X548537Y214340D01*
X549631Y214047D01*
X550763D01*
X551856Y214340D01*
X552837Y214906D01*
X553637Y215707D01*
X554203Y216687D01*
X554496Y217780D01*
Y218913D01*
X554203Y220006D01*
X553637Y220986D01*
X552837Y221787D01*
X551856Y222353D01*
X550763Y222646D01*
D02*
G37*
G36*
X514915Y223209D02*
X513432D01*
X512000Y222825D01*
X510716Y222084D01*
X509668Y221036D01*
X508927Y219752D01*
X508543Y218320D01*
Y216838D01*
X508927Y215406D01*
X509668Y214122D01*
X510716Y213074D01*
X512000Y212333D01*
X513432Y211949D01*
X514915D01*
X516346Y212333D01*
X517630Y213074D01*
X518678Y214122D01*
X519419Y215406D01*
X519803Y216838D01*
Y218320D01*
X519419Y219752D01*
X518678Y221036D01*
X517630Y222084D01*
X516346Y222825D01*
X514915Y223209D01*
D02*
G37*
G36*
X501529D02*
X500046D01*
X498614Y222825D01*
X497331Y222084D01*
X496282Y221036D01*
X495541Y219752D01*
X495157Y218320D01*
Y216838D01*
X495541Y215406D01*
X496282Y214122D01*
X497331Y213074D01*
X498614Y212333D01*
X500046Y211949D01*
X501529D01*
X502960Y212333D01*
X504244Y213074D01*
X505293Y214122D01*
X506034Y215406D01*
X506417Y216838D01*
Y218320D01*
X506034Y219752D01*
X505293Y221036D01*
X504244Y222084D01*
X502960Y222825D01*
X501529Y223209D01*
D02*
G37*
G36*
X411414Y212811D02*
X410633D01*
X409878Y212609D01*
X409201Y212218D01*
X408648Y211665D01*
X408257Y210988D01*
X408055Y210233D01*
Y209452D01*
X408257Y208697D01*
X408648Y208020D01*
X409201Y207467D01*
X409878Y207076D01*
X410633Y206874D01*
X411414D01*
X412169Y207076D01*
X412846Y207467D01*
X413399Y208020D01*
X413790Y208697D01*
X413992Y209452D01*
Y210233D01*
X413790Y210988D01*
X413399Y211665D01*
X412846Y212218D01*
X412169Y212609D01*
X411414Y212811D01*
D02*
G37*
G36*
X379918D02*
X379137D01*
X378382Y212609D01*
X377705Y212218D01*
X377152Y211665D01*
X376761Y210988D01*
X376559Y210233D01*
Y209452D01*
X376761Y208697D01*
X377152Y208020D01*
X377705Y207467D01*
X378382Y207076D01*
X379137Y206874D01*
X379918D01*
X380673Y207076D01*
X381350Y207467D01*
X381903Y208020D01*
X382294Y208697D01*
X382496Y209452D01*
Y210233D01*
X382294Y210988D01*
X381903Y211665D01*
X381350Y212218D01*
X380673Y212609D01*
X379918Y212811D01*
D02*
G37*
G36*
X348422D02*
X347641D01*
X346886Y212609D01*
X346209Y212218D01*
X345656Y211665D01*
X345265Y210988D01*
X345063Y210233D01*
Y209452D01*
X345265Y208697D01*
X345656Y208020D01*
X346209Y207467D01*
X346886Y207076D01*
X347641Y206874D01*
X348422D01*
X349177Y207076D01*
X349854Y207467D01*
X350407Y208020D01*
X350798Y208697D01*
X351000Y209452D01*
Y210233D01*
X350798Y210988D01*
X350407Y211665D01*
X349854Y212218D01*
X349177Y212609D01*
X348422Y212811D01*
D02*
G37*
G36*
X316926D02*
X316145D01*
X315390Y212609D01*
X314713Y212218D01*
X314160Y211665D01*
X313769Y210988D01*
X313567Y210233D01*
Y209452D01*
X313769Y208697D01*
X314160Y208020D01*
X314713Y207467D01*
X315390Y207076D01*
X316145Y206874D01*
X316926D01*
X317681Y207076D01*
X318358Y207467D01*
X318911Y208020D01*
X319302Y208697D01*
X319504Y209452D01*
Y210233D01*
X319302Y210988D01*
X318911Y211665D01*
X318358Y212218D01*
X317681Y212609D01*
X316926Y212811D01*
D02*
G37*
G36*
X285430D02*
X284649D01*
X283894Y212609D01*
X283217Y212218D01*
X282664Y211665D01*
X282273Y210988D01*
X282071Y210233D01*
Y209452D01*
X282273Y208697D01*
X282664Y208020D01*
X283217Y207467D01*
X283894Y207076D01*
X284649Y206874D01*
X285430D01*
X286185Y207076D01*
X286862Y207467D01*
X287415Y208020D01*
X287806Y208697D01*
X288008Y209452D01*
Y210233D01*
X287806Y210988D01*
X287415Y211665D01*
X286862Y212218D01*
X286185Y212609D01*
X285430Y212811D01*
D02*
G37*
G36*
X642065Y483386D02*
X640219D01*
X638409Y483026D01*
X636703Y482319D01*
X635169Y481294D01*
X633863Y479989D01*
X632838Y478454D01*
X632132Y476749D01*
X631772Y474939D01*
Y473093D01*
X632132Y471283D01*
X632838Y469577D01*
X633863Y468043D01*
X635169Y466738D01*
X636703Y465712D01*
X638409Y465006D01*
X640219Y464646D01*
X642065D01*
X643875Y465006D01*
X645580Y465712D01*
X647115Y466738D01*
X648420Y468043D01*
X649445Y469577D01*
X650152Y471283D01*
X650512Y473093D01*
Y474939D01*
X650152Y476749D01*
X649445Y478454D01*
X648420Y479989D01*
X647115Y481294D01*
X645580Y482319D01*
X643875Y483026D01*
X642065Y483386D01*
D02*
G37*
G36*
X626558Y463701D02*
X625410D01*
X624285Y463477D01*
X623224Y463038D01*
X622270Y462400D01*
X621458Y461588D01*
X620821Y460634D01*
X620381Y459574D01*
X620157Y458448D01*
Y457300D01*
X620381Y456174D01*
X620821Y455114D01*
X621458Y454160D01*
X622270Y453348D01*
X623224Y452710D01*
X624285Y452271D01*
X625410Y452047D01*
X626558D01*
X627684Y452271D01*
X628744Y452710D01*
X629699Y453348D01*
X630510Y454160D01*
X631148Y455114D01*
X631587Y456174D01*
X631811Y457300D01*
Y458448D01*
X631587Y459574D01*
X631148Y460634D01*
X630510Y461588D01*
X629699Y462400D01*
X628744Y463038D01*
X627684Y463477D01*
X626558Y463701D01*
D02*
G37*
%LPD*%
D16*
X250787Y323228D02*
X263386Y335827D01*
X334252D01*
X572835Y320866D02*
Y320866D01*
Y312992D02*
Y312992D01*
Y316929D02*
X600394Y344488D01*
X572835Y312992D02*
X600394Y340551D01*
X572835Y316929D02*
Y316929D01*
Y320866D02*
X600394Y348425D01*
X537402Y348425D02*
X557087D01*
X520766Y403543D02*
X572441D01*
X625709Y350276D02*
X631846D01*
X572441Y403543D02*
X625709Y350276D01*
X580602Y404831D02*
X625315Y360118D01*
X631846D01*
X520233Y404831D02*
X580602D01*
X519700Y406118D02*
X589945D01*
X626102Y369961D02*
X631846D01*
X589945Y406118D02*
X626102Y369961D01*
X519167Y407406D02*
X597319D01*
X624921Y379803D02*
X635118D01*
X597319Y407406D02*
X624921Y379803D01*
X605874Y408693D02*
X625472Y389094D01*
X518633Y408693D02*
X605874D01*
X625472Y389094D02*
X644961D01*
X627047Y398937D02*
X661373D01*
X518100Y409980D02*
X616004D01*
X627047Y398937D01*
X406972Y297031D02*
X518633Y408693D01*
X409105Y291882D02*
X520766Y403543D01*
X517567Y411268D02*
X658885D01*
X406439Y298319D02*
X518100Y409980D01*
X405905Y299606D02*
X517567Y411268D01*
X408572Y293169D02*
X520233Y404831D01*
X407505Y295744D02*
X519167Y407406D01*
X658885Y411268D02*
X665382Y404771D01*
X408039Y294457D02*
X519700Y406118D01*
X661373Y398937D02*
X664094Y396216D01*
Y362840D02*
Y396216D01*
X665382Y354284D02*
Y404771D01*
X635118Y379803D02*
X639764Y384449D01*
X631846Y350276D02*
X635118Y353548D01*
Y360118D01*
X639764Y364764D01*
X631846Y360118D02*
X634842Y363115D01*
Y366412D02*
X637840Y369409D01*
X634842Y363115D02*
Y366412D01*
X637840Y369409D02*
X644961D01*
X649606Y364764D01*
X631846Y369961D02*
X634842Y372958D01*
X644961Y379252D02*
X649606Y374606D01*
X637840Y379252D02*
X644961D01*
X634842Y376255D02*
X637840Y379252D01*
X634842Y372958D02*
Y376255D01*
X644961Y389094D02*
X649606Y384449D01*
X643898Y373745D02*
X647682Y369961D01*
X649606Y354921D02*
X654252Y359567D01*
X640625Y373745D02*
X643898D01*
X661373Y350276D02*
X665382Y354284D01*
X660822Y359567D02*
X664094Y362840D01*
X654252Y359567D02*
X660822D01*
X647682Y350276D02*
X661373D01*
X644961Y352997D02*
X647682Y350276D01*
X644961Y352997D02*
Y356846D01*
X647958Y359842D01*
X651255D02*
X654252Y362840D01*
X647958Y359842D02*
X651255D01*
X654252Y362840D02*
Y366688D01*
X647682Y369961D02*
X650979D01*
X654252Y366688D01*
X639764Y374606D02*
X640625Y373745D01*
X311736Y295744D02*
X407505D01*
X291976Y291882D02*
X409105D01*
X298563Y293169D02*
X408572D01*
X305150Y294457D02*
X408039D01*
X331496Y299606D02*
X405905D01*
X324909Y298319D02*
X406439D01*
X318323Y297031D02*
X406972D01*
X302362Y305118D02*
X311736Y295744D01*
X294488Y305118D02*
X305150Y294457D01*
X310236Y305118D02*
X318323Y297031D01*
X318110Y305118D02*
X324909Y298319D01*
X325984Y305118D02*
X331496Y299606D01*
X278740Y305118D02*
X291976Y291882D01*
X286614Y305118D02*
X298563Y293169D01*
X264567Y270079D02*
X453150D01*
X247244Y287402D02*
X264567Y270079D01*
X247244Y287402D02*
Y324016D01*
X453150Y270079D02*
X480315Y297244D01*
X307874Y344488D02*
Y379921D01*
X360236Y432283D02*
X481822D01*
X307874Y379921D02*
X360236Y432283D01*
X475492Y448425D02*
X481822Y442095D01*
Y432283D02*
Y442095D01*
Y432283D02*
X485325Y428781D01*
Y426683D02*
Y428781D01*
Y426683D02*
X491142Y420866D01*
X247244Y324016D02*
X278346Y355118D01*
X247447Y373038D02*
X248238Y373829D01*
X247447Y372063D02*
Y373038D01*
Y372063D02*
X247661Y371849D01*
Y370875D02*
Y371849D01*
X246686Y369901D02*
X247661Y370875D01*
X245712Y369901D02*
X246686D01*
X243356Y372256D02*
X245712Y369901D01*
X242382Y372256D02*
X243356D01*
X241408Y371282D02*
X242382Y372256D01*
X241408Y370307D02*
Y371282D01*
Y370307D02*
X243856Y367859D01*
Y366885D02*
Y367859D01*
X242882Y365910D02*
X243856Y366885D01*
X241907Y365910D02*
X242882D01*
X239459Y368359D02*
X241907Y365910D01*
X238485Y368359D02*
X239459D01*
X237510Y367384D02*
X238485Y368359D01*
X237510Y366410D02*
Y367384D01*
Y366410D02*
X238678Y365243D01*
Y364268D02*
Y365243D01*
X238399Y363990D02*
X238678Y364268D01*
X237402Y362992D02*
X238399Y363990D01*
X248238Y373829D02*
X248819Y374410D01*
X259449D01*
X232874Y362992D02*
X237402D01*
X229410Y366457D02*
X232874Y362992D01*
X244835Y361882D02*
X246988Y364035D01*
X243861Y361882D02*
X244835D01*
X243314Y362430D02*
X243861Y361882D01*
X242339Y362430D02*
X243314D01*
X241365Y361455D02*
X242339Y362430D01*
X241365Y360481D02*
Y361455D01*
Y360481D02*
X243315Y358531D01*
Y357557D02*
Y358531D01*
X242340Y356582D02*
X243315Y357557D01*
X241366Y356582D02*
X242340D01*
X239114Y358834D02*
X241366Y356582D01*
X238140Y358834D02*
X239114D01*
X237166Y357859D02*
X238140Y358834D01*
X237166Y356885D02*
Y357859D01*
Y356885D02*
X238015Y356036D01*
Y355062D02*
Y356036D01*
X237736Y354784D02*
X238015Y355062D01*
X246988Y364035D02*
X254213Y371260D01*
X229410Y346457D02*
X237736Y354784D01*
X247690Y354737D02*
X251705Y358753D01*
X247690Y353763D02*
Y354737D01*
Y353763D02*
X247690Y353762D01*
Y352788D02*
Y353762D01*
X246715Y351814D02*
X247690Y352788D01*
X245741Y351814D02*
X246715D01*
X244095Y353459D02*
X245741Y351814D01*
X243121Y353459D02*
X244095D01*
X242147Y352485D02*
X243121Y353459D01*
X242147Y351511D02*
Y352485D01*
Y351511D02*
X242818Y350839D01*
Y349865D02*
Y350839D01*
X242539Y349587D02*
X242818Y349865D01*
X251705Y358753D02*
X262992Y370039D01*
X229410Y336457D02*
X242539Y349587D01*
X267323Y364370D02*
Y370079D01*
X229410Y326457D02*
X267323Y364370D01*
X254213Y371260D02*
X260236D01*
X262992Y370039D02*
Y372835D01*
X278346Y358268D02*
Y377165D01*
X248031Y407480D02*
X278346Y377165D01*
X292520Y425591D02*
X295276Y422835D01*
X215748Y441732D02*
X231890Y425591D01*
X292520D01*
X299376Y417732D02*
X302862Y421218D01*
X305437Y418675D02*
Y426207D01*
X298819Y415354D02*
X304150Y420685D01*
X300296Y429528D02*
X304150Y425674D01*
X302862Y421218D02*
Y425140D01*
X299755Y420621D02*
X301575Y422441D01*
X306724Y418142D02*
Y426740D01*
X299376Y412614D02*
X305437Y418675D01*
X258161Y430815D02*
X300829D01*
X244988Y428240D02*
X299763D01*
X298819Y410236D02*
X306724Y418142D01*
X301362Y432102D02*
X306724Y426740D01*
X301575Y422441D02*
Y424607D01*
X304150Y420685D02*
Y425674D01*
X251575Y429528D02*
X300296D01*
X299763Y428240D02*
X302862Y425140D01*
X299229Y426953D02*
X301575Y424607D01*
X264748Y432102D02*
X301362D01*
X300829Y430815D02*
X305437Y426207D01*
X297393Y420621D02*
X299755D01*
X302656Y441732D02*
X321538Y422850D01*
X302362Y441732D02*
X302656D01*
X310236Y435973D02*
X320619Y425591D01*
X330315D01*
X310236Y435973D02*
Y441732D01*
X320077Y427953D02*
X329314D01*
X321538Y422850D02*
X332268D01*
X314173Y433856D02*
Y437795D01*
Y433856D02*
X320077Y427953D01*
X322095Y420472D02*
X330315D01*
X303734Y438539D02*
X304029D01*
X301895Y433390D02*
X325049Y410236D01*
X324492Y412614D02*
X332268D01*
X304029Y438539D02*
X322095Y420472D01*
X271335Y433390D02*
X301895D01*
X302429Y434677D02*
X324492Y412614D01*
X284508Y435965D02*
X302962D01*
X325049Y410236D02*
X330315D01*
X303691Y438583D02*
X303734Y438539D01*
X302962Y435965D02*
X323572Y415354D01*
X291094Y437252D02*
X303495D01*
X323015Y417732D02*
X332268D01*
X238402Y426953D02*
X299229D01*
X323572Y415354D02*
X330315D01*
X303495Y437252D02*
X323015Y417732D01*
X277921Y434677D02*
X302429D01*
X297244Y420472D02*
X297393Y420621D01*
X295291Y412614D02*
X299376D01*
X297244Y410236D02*
X298819D01*
X297244Y415354D02*
X298819D01*
X295291Y417732D02*
X299376D01*
X297638Y438583D02*
X303691D01*
X294488Y441732D02*
X297638Y438583D01*
X314173Y437795D02*
X318110Y441732D01*
X329330Y427969D02*
X332268D01*
X329314Y427953D02*
X329330Y427969D01*
X332268D02*
X332283Y427953D01*
X231496Y441732D02*
X244988Y428240D01*
X223622Y441732D02*
X238402Y426953D01*
X295276Y417717D02*
X295291Y417732D01*
X239370Y441732D02*
X251575Y429528D01*
X247244Y441732D02*
X258161Y430815D01*
X286614Y441732D02*
X291094Y437252D01*
X262992Y441732D02*
X271335Y433390D01*
X255118Y441732D02*
X264748Y432102D01*
X295276Y412598D02*
X295291Y412614D01*
X278740Y441732D02*
X284508Y435965D01*
X270866Y441732D02*
X277921Y434677D01*
X332268Y412614D02*
X332283Y412598D01*
X332268Y417732D02*
X332283Y417717D01*
X332268Y422850D02*
X332283Y422835D01*
X653872Y204396D02*
X654692Y205216D01*
X656332D01*
X657152Y204396D01*
Y203576D01*
X656332Y202756D01*
X655512D01*
X656332D01*
X657152Y201936D01*
Y201116D01*
X656332Y200296D01*
X654692D01*
X653872Y201116D01*
D40*
X229410Y336457D02*
D03*
X219409D02*
D03*
X229410Y346457D02*
D03*
Y356457D02*
D03*
Y366457D02*
D03*
D63*
X572047Y481358D02*
D03*
X585433D02*
D03*
X572047Y534390D02*
D03*
X585433D02*
D03*
X201575Y534390D02*
D03*
X188189D02*
D03*
X231102D02*
D03*
X217717D02*
D03*
X260630D02*
D03*
X247244D02*
D03*
X290158D02*
D03*
X276772D02*
D03*
X319685D02*
D03*
X306299D02*
D03*
X378740D02*
D03*
X365354D02*
D03*
X349213D02*
D03*
X335827D02*
D03*
X408268D02*
D03*
X394882D02*
D03*
X467323Y534390D02*
D03*
X453937D02*
D03*
X496850D02*
D03*
X483465D02*
D03*
X526378D02*
D03*
X512992D02*
D03*
X437795D02*
D03*
X424409D02*
D03*
X555905Y534390D02*
D03*
X542520D02*
D03*
D64*
X475492Y448425D02*
D03*
X491142Y420866D02*
D03*
D65*
X229410Y326457D02*
D03*
D66*
X659449Y417717D02*
D03*
Y432480D02*
D03*
X649606Y364764D02*
D03*
Y417717D02*
D03*
Y354921D02*
D03*
Y374606D02*
D03*
Y384449D02*
D03*
Y432480D02*
D03*
X639764Y364764D02*
D03*
Y374606D02*
D03*
Y384449D02*
D03*
Y432480D02*
D03*
X629921Y417717D02*
D03*
Y432480D02*
D03*
D68*
X207677Y401417D02*
D03*
D69*
X242126Y330315D02*
D03*
X627559Y474803D02*
D03*
X659055D02*
D03*
Y443307D02*
D03*
Y459055D02*
D03*
X643307D02*
D03*
Y443307D02*
D03*
X627559D02*
D03*
X611811D02*
D03*
Y459055D02*
D03*
Y474803D02*
D03*
X659055Y490551D02*
D03*
X643307D02*
D03*
X627559D02*
D03*
X611811D02*
D03*
X659055Y537795D02*
D03*
X643307D02*
D03*
X627559D02*
D03*
X611811D02*
D03*
X659055Y506299D02*
D03*
X643307D02*
D03*
X627559D02*
D03*
X659055Y522047D02*
D03*
X643307D02*
D03*
X627559D02*
D03*
X611811Y506299D02*
D03*
Y522047D02*
D03*
X596063Y506299D02*
D03*
Y522047D02*
D03*
X580315Y506299D02*
D03*
Y522047D02*
D03*
X564567Y506299D02*
D03*
Y522047D02*
D03*
X548819Y506299D02*
D03*
Y522047D02*
D03*
X533071Y506299D02*
D03*
Y522047D02*
D03*
X517323Y506299D02*
D03*
Y522047D02*
D03*
X501575Y506299D02*
D03*
Y522047D02*
D03*
X485827Y506299D02*
D03*
Y522047D02*
D03*
X470079Y506299D02*
D03*
Y522047D02*
D03*
X454331Y506299D02*
D03*
Y522047D02*
D03*
X438583Y506299D02*
D03*
Y522047D02*
D03*
X422835Y506299D02*
D03*
Y522047D02*
D03*
X407087Y506299D02*
D03*
Y522047D02*
D03*
X391339Y506299D02*
D03*
Y522047D02*
D03*
X375591Y506299D02*
D03*
Y522047D02*
D03*
X359842Y506299D02*
D03*
Y522047D02*
D03*
X344094Y506299D02*
D03*
Y522047D02*
D03*
X328346Y506299D02*
D03*
Y522047D02*
D03*
X312598Y506299D02*
D03*
Y522047D02*
D03*
X296850Y506299D02*
D03*
Y522047D02*
D03*
X281102Y506299D02*
D03*
Y522047D02*
D03*
X265354Y506299D02*
D03*
Y522047D02*
D03*
X249606Y506299D02*
D03*
Y522047D02*
D03*
X233858Y506299D02*
D03*
Y522047D02*
D03*
X218110Y506299D02*
D03*
Y522047D02*
D03*
X202362Y506299D02*
D03*
Y522047D02*
D03*
X186614Y506299D02*
D03*
Y522047D02*
D03*
X332283Y320079D02*
D03*
X545276Y339370D02*
D03*
X223228Y304724D02*
D03*
X379134Y396850D02*
D03*
X253543Y384252D02*
D03*
X351969Y355512D02*
D03*
X283465Y407480D02*
D03*
X472441Y330709D02*
D03*
D70*
X250787Y323228D02*
D03*
X572835Y320866D02*
D03*
Y312992D02*
D03*
Y316929D02*
D03*
X600394Y340551D02*
D03*
Y344488D02*
D03*
Y348425D02*
D03*
X334252Y335827D02*
D03*
X294488Y305118D02*
D03*
X286614D02*
D03*
X278740D02*
D03*
X325984D02*
D03*
X318110D02*
D03*
X310236D02*
D03*
X302362D02*
D03*
X307874Y344488D02*
D03*
X557087Y348425D02*
D03*
X537402D02*
D03*
X480315Y297244D02*
D03*
X278346Y355118D02*
D03*
X278346Y358268D02*
D03*
X248031Y407480D02*
D03*
X267323Y370079D02*
D03*
X260236Y371260D02*
D03*
X262992Y372835D02*
D03*
X259449Y374410D02*
D03*
X215748Y441732D02*
D03*
X223622D02*
D03*
X231496D02*
D03*
X239370D02*
D03*
X247244D02*
D03*
X255118D02*
D03*
X262992D02*
D03*
X270866D02*
D03*
X278740D02*
D03*
X286614D02*
D03*
X294488D02*
D03*
X302362D02*
D03*
X310236D02*
D03*
X318110D02*
D03*
X295276Y422835D02*
D03*
X297244Y420472D02*
D03*
Y410236D02*
D03*
X295276Y412598D02*
D03*
X297244Y415354D02*
D03*
X295276Y417717D02*
D03*
X332283Y427953D02*
D03*
X330315Y425591D02*
D03*
X332283Y422835D02*
D03*
Y417717D02*
D03*
X330315Y420472D02*
D03*
Y415354D02*
D03*
X332283Y412598D02*
D03*
X330315Y410236D02*
D03*
M02*
