G04*
G04 #@! TF.GenerationSoftware,Altium Limited,Altium Designer,22.8.2 (66)*
G04*
G04 Layer_Physical_Order=1*
G04 Layer_Color=255*
%FSLAX25Y25*%
%MOIN*%
G70*
G04*
G04 #@! TF.SameCoordinates,E87138AD-D39F-473D-B2F9-8BE8101B49D9*
G04*
G04*
G04 #@! TF.FilePolarity,Positive*
G04*
G01*
G75*
%ADD10C,0.00984*%
%ADD13C,0.01000*%
%ADD16C,0.00787*%
%ADD22R,0.25000X0.20000*%
%ADD23R,0.03937X0.03543*%
%ADD34R,0.03543X0.03937*%
%ADD35C,0.07795*%
%ADD36C,0.09055*%
%ADD40C,0.06299*%
%ADD46R,0.02756X0.02953*%
%ADD47R,0.03543X0.03150*%
%ADD48R,0.06496X0.03543*%
%ADD49O,0.05906X0.01772*%
%ADD50R,0.07800X0.02200*%
%ADD51R,0.03543X0.06496*%
%ADD52R,0.03150X0.03150*%
%ADD53R,0.05000X0.02200*%
%ADD54R,0.02000X0.05800*%
%ADD55R,0.05800X0.02000*%
%ADD56R,0.07874X0.09449*%
%ADD57O,0.05512X0.01772*%
%ADD58R,0.03150X0.03543*%
%ADD59C,0.01968*%
%ADD60C,0.01181*%
%ADD61C,0.05906*%
%ADD62C,0.03937*%
%ADD63C,0.08661*%
%ADD64C,0.07874*%
%ADD65R,0.06299X0.06299*%
%ADD66C,0.05906*%
%ADD67C,0.16142*%
%ADD68C,0.06000*%
%ADD69C,0.03937*%
%ADD70C,0.01968*%
G36*
X533465Y468504D02*
X505905D01*
Y487008D01*
X533465D01*
Y468504D01*
D02*
G37*
G36*
X503937D02*
X476378D01*
Y487008D01*
X503937D01*
Y468504D01*
D02*
G37*
G36*
X474409D02*
X446850D01*
Y487008D01*
X474409D01*
Y468504D01*
D02*
G37*
G36*
X444882D02*
X417323D01*
Y487008D01*
X444882D01*
Y468504D01*
D02*
G37*
G36*
X415354D02*
X387795D01*
Y487008D01*
X415354D01*
Y468504D01*
D02*
G37*
G36*
X385827D02*
X358268D01*
Y487008D01*
X385827D01*
Y468504D01*
D02*
G37*
G36*
X356299D02*
X328740D01*
Y487008D01*
X356299D01*
Y468504D01*
D02*
G37*
G36*
X326772D02*
X299213D01*
Y487008D01*
X326772D01*
Y468504D01*
D02*
G37*
G36*
X297244D02*
X269685D01*
Y487169D01*
X297244D01*
Y468504D01*
D02*
G37*
G36*
X267717D02*
X240158D01*
Y487008D01*
X267717D01*
Y468504D01*
D02*
G37*
G36*
X238189D02*
X210630D01*
Y487008D01*
X238189D01*
Y468504D01*
D02*
G37*
G36*
X563779Y451795D02*
X563279Y451704D01*
X562369Y452615D01*
X561175Y453305D01*
X559843Y453661D01*
X558464D01*
X557132Y453305D01*
X555938Y452615D01*
X554964Y451640D01*
X554274Y450446D01*
X553917Y449115D01*
Y447736D01*
X554274Y446404D01*
X554964Y445210D01*
X555938Y444235D01*
X557132Y443546D01*
X558464Y443189D01*
X559843D01*
X561175Y443546D01*
X562369Y444235D01*
X563279Y445146D01*
X563779Y445055D01*
Y414567D01*
X548032D01*
X535433Y427953D01*
Y429134D01*
Y487008D01*
X563779D01*
Y451795D01*
D02*
G37*
G36*
X592520Y446850D02*
X603543Y435827D01*
X633071D01*
Y414567D01*
X589370D01*
X564961Y438976D01*
Y487008D01*
X592520D01*
Y446850D01*
D02*
G37*
G36*
X668087Y414173D02*
X645669D01*
Y425197D01*
X634091D01*
Y431612D01*
X634173Y431920D01*
Y433040D01*
X634091Y433349D01*
Y435827D01*
X634013Y436217D01*
X633792Y436548D01*
X633461Y436769D01*
X633071Y436846D01*
X603966D01*
X593539Y447273D01*
Y487008D01*
X593462Y487398D01*
X593241Y487729D01*
X592910Y487950D01*
X592520Y488027D01*
Y488189D01*
X178369D01*
Y549977D01*
X668087Y549977D01*
Y414173D01*
D02*
G37*
G36*
X210240Y467562D02*
X210630Y467484D01*
X227620D01*
Y466536D01*
X227738Y465634D01*
X228086Y464794D01*
X228640Y464073D01*
X236120Y456593D01*
X236120Y456593D01*
X236841Y456039D01*
X237681Y455691D01*
X238583Y455573D01*
X315880D01*
X347537Y423915D01*
X348259Y423362D01*
X348315Y423339D01*
X348425Y423228D01*
X348581D01*
X349099Y423014D01*
X350000Y422895D01*
X452888D01*
X471947Y403837D01*
X472668Y403283D01*
X473508Y402935D01*
X473627Y402817D01*
X474409D01*
X474409Y402817D01*
X474409Y402817D01*
X504857D01*
X545569Y362104D01*
X546290Y361551D01*
X547130Y361203D01*
X547249Y361084D01*
X548021Y361086D01*
X548032Y361084D01*
X548032Y361084D01*
X603282D01*
X621750Y342616D01*
X622471Y342063D01*
X623311Y341715D01*
X624213Y341596D01*
X627449D01*
X628138Y341198D01*
X628280Y340414D01*
Y339901D01*
X628138Y339117D01*
X627311Y338639D01*
X626519Y337847D01*
X625959Y336877D01*
X625669Y335796D01*
Y334677D01*
X625959Y333595D01*
X626519Y332626D01*
X627007Y331344D01*
X626287Y330180D01*
X616930Y320824D01*
X616689Y320463D01*
X616605Y320037D01*
X616605Y320037D01*
Y291543D01*
X600368Y275307D01*
X599417Y275856D01*
X597985Y276240D01*
X596503D01*
X595071Y275856D01*
X593787Y275115D01*
X592739Y274067D01*
X591998Y272783D01*
X591713Y271722D01*
X589389D01*
X589104Y272783D01*
X588363Y274067D01*
X587315Y275115D01*
X586031Y275856D01*
X584599Y276240D01*
X583117D01*
X581685Y275856D01*
X580401Y275115D01*
X579353Y274067D01*
X578612Y272783D01*
X578228Y271351D01*
Y269869D01*
X578612Y268437D01*
X579353Y267153D01*
X580401Y266105D01*
X581685Y265364D01*
X583117Y264980D01*
X584599D01*
X586031Y265364D01*
X587315Y266105D01*
X588363Y267153D01*
X589104Y268437D01*
X589389Y269498D01*
X591713D01*
X591998Y268437D01*
X592739Y267153D01*
X593787Y266105D01*
X595071Y265364D01*
X596503Y264980D01*
X597985D01*
X599417Y265364D01*
X600701Y266105D01*
X601749Y267153D01*
X602490Y268437D01*
X602874Y269869D01*
Y271351D01*
X602490Y272783D01*
X601941Y273735D01*
X618189Y289983D01*
X619512Y289715D01*
X620212Y289311D01*
X620381Y288458D01*
X620821Y287398D01*
X621458Y286443D01*
X622270Y285631D01*
X623224Y284994D01*
X624285Y284555D01*
X625410Y284331D01*
X626558D01*
X627684Y284555D01*
X628744Y284994D01*
X629699Y285631D01*
X630510Y286443D01*
X631148Y287398D01*
X631587Y288458D01*
X631811Y289584D01*
Y290731D01*
X631587Y291857D01*
X631148Y292917D01*
X630510Y293872D01*
X629699Y294683D01*
X628744Y295321D01*
X627684Y295760D01*
X626558Y295984D01*
X625410D01*
X624285Y295760D01*
X623224Y295321D01*
X622270Y294683D01*
X621458Y293872D01*
X620821Y292917D01*
X620797Y292860D01*
X618828Y293252D01*
Y319577D01*
X623797Y324545D01*
X625923Y323887D01*
X625959Y323752D01*
X626519Y322783D01*
X627311Y321991D01*
X628280Y321431D01*
X629361Y321142D01*
X630481D01*
X631563Y321431D01*
X632532Y321991D01*
X633324Y322783D01*
X633802Y323611D01*
X634586Y323752D01*
X635099D01*
X635883Y323611D01*
X636361Y322783D01*
X637153Y321991D01*
X638123Y321431D01*
X639204Y321142D01*
X640324D01*
X641405Y321431D01*
X642375Y321991D01*
X643166Y322783D01*
X643644Y323611D01*
X644428Y323752D01*
X644942D01*
X645726Y323611D01*
X646204Y322783D01*
X646995Y321991D01*
X647965Y321431D01*
X649047Y321142D01*
X650166D01*
X651248Y321431D01*
X652217Y321991D01*
X653009Y322783D01*
X653569Y323752D01*
X653858Y324834D01*
Y325954D01*
X653569Y327035D01*
X653009Y328005D01*
X652217Y328796D01*
X651389Y329274D01*
X651248Y330058D01*
Y330572D01*
X651389Y331356D01*
X652217Y331834D01*
X653009Y332626D01*
X653569Y333595D01*
X653858Y334677D01*
Y335796D01*
X653569Y336877D01*
X653009Y337847D01*
X652442Y339002D01*
X653241Y340292D01*
X655235Y342287D01*
X655235Y342287D01*
X655391Y342520D01*
X668087D01*
Y216535D01*
X649606D01*
Y198055D01*
X571886D01*
X569917Y198055D01*
Y220472D01*
X569840Y220863D01*
X569619Y221193D01*
X569288Y221414D01*
X568898Y221492D01*
X566732D01*
Y222539D01*
X560827D01*
Y221492D01*
X558661D01*
X558271Y221414D01*
X557940Y221193D01*
X557719Y220863D01*
X557642Y220472D01*
Y219722D01*
X554279D01*
X554203Y220006D01*
X553637Y220986D01*
X552837Y221787D01*
X551856Y222353D01*
X550763Y222646D01*
X549631D01*
X548537Y222353D01*
X547557Y221787D01*
X546757Y220986D01*
X546191Y220006D01*
X545898Y218913D01*
Y217780D01*
X546191Y216687D01*
X546757Y215707D01*
X546877Y215586D01*
X546062Y213618D01*
X520660D01*
X519518Y215263D01*
X519468Y215586D01*
X519803Y216838D01*
Y218320D01*
X519419Y219752D01*
X518678Y221036D01*
X517630Y222084D01*
X516346Y222825D01*
X514915Y223209D01*
X513432D01*
X512000Y222825D01*
X510716Y222084D01*
X509668Y221036D01*
X508927Y219752D01*
X508643Y218691D01*
X506318D01*
X506034Y219752D01*
X505293Y221036D01*
X504244Y222084D01*
X502960Y222825D01*
X501529Y223209D01*
X500046D01*
X498614Y222825D01*
X497663Y222276D01*
X494743Y225196D01*
X494382Y225437D01*
X493957Y225521D01*
X493957Y225521D01*
X491142D01*
Y226969D01*
X486417D01*
Y221850D01*
X491142D01*
Y223298D01*
X493496D01*
X496091Y220703D01*
X495541Y219752D01*
X495157Y218320D01*
Y216838D01*
X495493Y215586D01*
X495442Y215263D01*
X494300Y213618D01*
X475571D01*
Y221423D01*
X477362Y221850D01*
X477539Y221850D01*
X482087D01*
Y226969D01*
X480836D01*
Y260453D01*
X480836Y260453D01*
X480752Y260878D01*
X480511Y261239D01*
X475374Y266376D01*
Y286378D01*
X448799D01*
Y264803D01*
X473802D01*
X478613Y259992D01*
Y228492D01*
X478318Y228134D01*
X477539Y227672D01*
X475571Y228742D01*
Y235394D01*
X463071D01*
Y224409D01*
X462087D01*
Y223425D01*
X448602D01*
Y213618D01*
X413135D01*
X413101Y213611D01*
X413067Y213616D01*
X412907Y213573D01*
X412745Y213540D01*
X412745Y213540D01*
X412716Y213521D01*
X412683Y213512D01*
X412683Y213512D01*
X412585Y213438D01*
X412551Y213411D01*
Y213411D01*
X412414Y213319D01*
Y213319D01*
X412395Y213291D01*
X412367Y213270D01*
Y213270D01*
X412285Y213126D01*
X412193Y212989D01*
X412186Y212955D01*
X412169Y212925D01*
X412000Y212425D01*
X411978Y212261D01*
X410069D01*
X410047Y212425D01*
X410047Y212425D01*
X409878Y212925D01*
X409861Y212955D01*
X409854Y212989D01*
X409762Y213126D01*
X409680Y213270D01*
Y213270D01*
X409653Y213291D01*
X409633Y213319D01*
X409633Y213319D01*
X409496Y213411D01*
X409365Y213512D01*
X409331Y213521D01*
X409303Y213540D01*
X409303Y213540D01*
X409140Y213573D01*
X408981Y213616D01*
X408981Y213616D01*
X408946Y213611D01*
X408912Y213618D01*
X381639D01*
X381605Y213611D01*
X381571Y213616D01*
X381411Y213573D01*
X381248Y213540D01*
X381248Y213540D01*
X381220Y213521D01*
X381187Y213512D01*
X381187Y213512D01*
X381055Y213411D01*
X380918Y213319D01*
Y213319D01*
X380899Y213291D01*
X380871Y213270D01*
Y213270D01*
X380789Y213126D01*
X380697Y212989D01*
X380690Y212955D01*
X380673Y212925D01*
X380504Y212425D01*
X380483Y212261D01*
X378573D01*
X378551Y212425D01*
X378551Y212425D01*
X378382Y212925D01*
X378365Y212955D01*
X378358Y212989D01*
X378266Y213126D01*
X378184Y213270D01*
Y213270D01*
X378156Y213291D01*
X378137Y213319D01*
X378137Y213319D01*
X378000Y213411D01*
X377869Y213512D01*
X377835Y213521D01*
X377807Y213540D01*
X377807Y213540D01*
X377644Y213573D01*
X377484Y213616D01*
X377484Y213616D01*
X377450Y213611D01*
X377416Y213618D01*
X350143D01*
X350109Y213611D01*
X350075Y213616D01*
X349915Y213573D01*
X349752Y213540D01*
X349752Y213540D01*
X349724Y213521D01*
X349691Y213512D01*
X349691Y213512D01*
X349559Y213411D01*
X349422Y213319D01*
Y213319D01*
X349403Y213291D01*
X349375Y213270D01*
Y213270D01*
X349293Y213126D01*
X349201Y212989D01*
X349194Y212955D01*
X349177Y212925D01*
X349008Y212425D01*
X348986Y212261D01*
X347077D01*
X347055Y212425D01*
X347055Y212425D01*
X346886Y212925D01*
X346869Y212955D01*
X346862Y212989D01*
X346770Y213126D01*
X346688Y213270D01*
Y213270D01*
X346660Y213291D01*
X346641Y213319D01*
X346641Y213319D01*
X346504Y213411D01*
X346373Y213512D01*
X346339Y213521D01*
X346310Y213540D01*
X346310Y213540D01*
X346148Y213573D01*
X345988Y213616D01*
X345988Y213616D01*
X345954Y213611D01*
X345920Y213618D01*
X318647D01*
X318613Y213611D01*
X318579Y213616D01*
X318419Y213573D01*
X318256Y213540D01*
X318256Y213540D01*
X318228Y213521D01*
X318194Y213512D01*
X318194Y213512D01*
X318097Y213438D01*
X318063Y213411D01*
Y213411D01*
X317926Y213319D01*
X317926Y213319D01*
X317906Y213291D01*
X317879Y213270D01*
Y213270D01*
X317797Y213126D01*
X317705Y212989D01*
X317698Y212955D01*
X317681Y212925D01*
X317512Y212425D01*
X317490Y212261D01*
X315581D01*
X315559Y212425D01*
X315390Y212925D01*
X315373Y212955D01*
X315366Y212989D01*
X315274Y213126D01*
X315192Y213270D01*
Y213270D01*
X315164Y213291D01*
X315145Y213319D01*
Y213319D01*
X315008Y213411D01*
X314876Y213512D01*
X314843Y213521D01*
X314814Y213540D01*
X314814Y213540D01*
X314652Y213573D01*
X314492Y213616D01*
X314458Y213611D01*
X314424Y213618D01*
X287151D01*
X287117Y213611D01*
X287083Y213616D01*
X286923Y213573D01*
X286760Y213540D01*
X286760Y213540D01*
X286732Y213521D01*
X286698Y213512D01*
X286698Y213512D01*
X286601Y213438D01*
X286567Y213411D01*
Y213411D01*
X286430Y213319D01*
X286430Y213319D01*
X286410Y213291D01*
X286383Y213270D01*
Y213270D01*
X286300Y213126D01*
X286209Y212989D01*
X286202Y212955D01*
X286185Y212925D01*
X286016Y212425D01*
X285994Y212261D01*
X284085D01*
X284063Y212425D01*
X283894Y212925D01*
X283877Y212955D01*
X283870Y212989D01*
X283778Y213126D01*
X283696Y213270D01*
Y213270D01*
X283668Y213291D01*
X283649Y213319D01*
Y213319D01*
X283512Y213411D01*
X283380Y213512D01*
X283347Y213521D01*
X283318Y213540D01*
X283318Y213540D01*
X283156Y213573D01*
X282996Y213616D01*
X282962Y213611D01*
X282928Y213618D01*
X260254D01*
X258288Y213622D01*
X258288Y215586D01*
Y235197D01*
X246112D01*
Y264803D01*
X258288D01*
Y286378D01*
X232234D01*
X231760Y286378D01*
X231007Y286627D01*
X229995Y286984D01*
X229470Y287509D01*
X228741Y287811D01*
X227952D01*
X227473Y287951D01*
Y288372D01*
X228741Y290142D01*
X229470Y290444D01*
X230029Y291002D01*
X230331Y291731D01*
Y292521D01*
X230029Y293250D01*
X229470Y293808D01*
X228741Y294110D01*
X227952D01*
X225984Y294685D01*
Y295866D01*
X225984Y296654D01*
Y300984D01*
X225984Y300984D01*
X225604Y302902D01*
X225995Y303579D01*
X226197Y304334D01*
Y305115D01*
X225995Y305870D01*
X225604Y306547D01*
X225051Y307100D01*
X224374Y307491D01*
X223619Y307693D01*
X222837D01*
X222082Y307491D01*
X221406Y307100D01*
X220853Y306547D01*
X220462Y305870D01*
X220260Y305115D01*
Y304334D01*
X220462Y303579D01*
X220853Y302902D01*
X220472Y300984D01*
X218898D01*
X218504Y300984D01*
X213386D01*
Y299336D01*
X208268D01*
Y300787D01*
X204052D01*
X202165Y300984D01*
X201656Y300984D01*
X200591D01*
Y298425D01*
X198622D01*
Y300984D01*
X197870D01*
X197047Y300984D01*
X195902Y302478D01*
Y398327D01*
X197638D01*
Y399638D01*
X203740D01*
X204237Y398778D01*
X205037Y397977D01*
X206018Y397411D01*
X207111Y397118D01*
X208243D01*
X209337Y397411D01*
X210317Y397977D01*
X211117Y398778D01*
X211683Y399758D01*
X211976Y400851D01*
Y401983D01*
X211683Y403077D01*
X211117Y404057D01*
X210317Y404857D01*
X209337Y405423D01*
X208243Y405717D01*
X207111D01*
X206018Y405423D01*
X205037Y404857D01*
X204237Y404057D01*
X203671Y403077D01*
X203561Y402665D01*
X199480D01*
X197835Y403445D01*
Y405217D01*
X194882D01*
Y407185D01*
X197835D01*
Y408957D01*
X195902D01*
Y413189D01*
X197835D01*
Y414961D01*
X194882D01*
Y416929D01*
X197835D01*
Y418701D01*
X199305Y419904D01*
X203632D01*
X203671Y419758D01*
X204237Y418778D01*
X205037Y417977D01*
X206018Y417411D01*
X207111Y417118D01*
X208243D01*
X209337Y417411D01*
X210317Y417977D01*
X211117Y418778D01*
X211683Y419758D01*
X211976Y420851D01*
Y421983D01*
X211708Y422984D01*
X212567Y424050D01*
X212949Y424471D01*
X236356D01*
X237598Y423228D01*
Y421654D01*
X237598Y421260D01*
Y416142D01*
X239246D01*
Y413779D01*
X239100Y413779D01*
X237598D01*
Y408777D01*
X237402Y406890D01*
X237402Y406381D01*
Y404921D01*
X240158D01*
X242913D01*
Y406381D01*
X242913Y406890D01*
X242782Y408144D01*
X243460Y409187D01*
X244152Y409342D01*
X245683Y408996D01*
X246047Y407875D01*
Y407161D01*
X245276Y405512D01*
X245276Y405512D01*
X245276Y405512D01*
Y403937D01*
X250787D01*
Y405512D01*
X250787Y405512D01*
X250016Y407086D01*
Y407875D01*
X250591Y409646D01*
X250590D01*
Y414370D01*
X245472D01*
Y411935D01*
X243502D01*
Y411935D01*
X242717D01*
X242717Y412081D01*
Y413779D01*
X241069D01*
Y416142D01*
X241215Y416142D01*
X242717D01*
Y421260D01*
X242717Y421654D01*
Y423228D01*
X242717Y423622D01*
Y428740D01*
X237598D01*
Y427498D01*
X212244D01*
X211665Y427382D01*
X211174Y427054D01*
X211174Y427054D01*
X209468Y425348D01*
X209337Y425423D01*
X208243Y425716D01*
X207111D01*
X206018Y425423D01*
X205037Y424858D01*
X204237Y424057D01*
X203671Y423077D01*
X203632Y422931D01*
X197638D01*
Y423819D01*
X196063D01*
X195902Y424016D01*
Y467484D01*
X208661D01*
X209052Y467562D01*
X209382Y467783D01*
X209909D01*
X210240Y467562D01*
D02*
G37*
G36*
X200591Y283268D02*
X201656D01*
X202165Y283268D01*
X204052Y283465D01*
X208268D01*
Y284915D01*
X213386D01*
Y283268D01*
X218504D01*
X218898Y283268D01*
X220472D01*
X220866Y283268D01*
X225984D01*
Y283268D01*
X227952Y283842D01*
X228741D01*
X229470Y284145D01*
X229744Y284418D01*
X231090Y284143D01*
X231713Y283815D01*
Y264803D01*
X243888D01*
Y235197D01*
X231713D01*
Y215586D01*
X231713Y213622D01*
X229746Y213618D01*
X195902D01*
Y281774D01*
X197047Y283268D01*
X197870Y283268D01*
X198622D01*
Y285827D01*
X200591D01*
Y283268D01*
D02*
G37*
G36*
X208661Y468504D02*
X194882D01*
Y424016D01*
X191929D01*
Y422244D01*
X194882D01*
Y420276D01*
X191929D01*
Y418504D01*
X192126Y418504D01*
Y413386D01*
X194882D01*
Y408760D01*
X192126D01*
Y403642D01*
X192126D01*
Y403445D01*
X192126D01*
Y398327D01*
X194882D01*
Y212598D01*
X282928D01*
X283097Y212098D01*
X282664Y211665D01*
X282273Y210988D01*
X282071Y210233D01*
Y209452D01*
X282273Y208697D01*
X282664Y208020D01*
X283217Y207467D01*
X283894Y207076D01*
X284649Y206874D01*
X285430D01*
X286185Y207076D01*
X286862Y207467D01*
X287415Y208020D01*
X287806Y208697D01*
X288008Y209452D01*
Y210233D01*
X287806Y210988D01*
X287415Y211665D01*
X286982Y212098D01*
X287151Y212598D01*
X314424D01*
X314593Y212098D01*
X314160Y211665D01*
X313769Y210988D01*
X313567Y210233D01*
Y209452D01*
X313769Y208697D01*
X314160Y208020D01*
X314713Y207467D01*
X315390Y207076D01*
X316145Y206874D01*
X316926D01*
X317681Y207076D01*
X318358Y207467D01*
X318911Y208020D01*
X319302Y208697D01*
X319504Y209452D01*
Y210233D01*
X319302Y210988D01*
X318911Y211665D01*
X318478Y212098D01*
X318647Y212598D01*
X345920D01*
X346089Y212098D01*
X345656Y211665D01*
X345265Y210988D01*
X345063Y210233D01*
Y209452D01*
X345265Y208697D01*
X345656Y208020D01*
X346209Y207467D01*
X346886Y207076D01*
X347641Y206874D01*
X348422D01*
X349177Y207076D01*
X349854Y207467D01*
X350407Y208020D01*
X350798Y208697D01*
X351000Y209452D01*
Y210233D01*
X350798Y210988D01*
X350407Y211665D01*
X349974Y212098D01*
X350143Y212598D01*
X377416D01*
X377585Y212098D01*
X377152Y211665D01*
X376761Y210988D01*
X376559Y210233D01*
Y209452D01*
X376761Y208697D01*
X377152Y208020D01*
X377705Y207467D01*
X378382Y207076D01*
X379137Y206874D01*
X379918D01*
X380673Y207076D01*
X381350Y207467D01*
X381903Y208020D01*
X382294Y208697D01*
X382496Y209452D01*
Y210233D01*
X382294Y210988D01*
X381903Y211665D01*
X381470Y212098D01*
X381639Y212598D01*
X408912D01*
X409081Y212098D01*
X408648Y211665D01*
X408257Y210988D01*
X408055Y210233D01*
Y209452D01*
X408257Y208697D01*
X408648Y208020D01*
X409201Y207467D01*
X409878Y207076D01*
X410633Y206874D01*
X411414D01*
X412169Y207076D01*
X412846Y207467D01*
X413399Y208020D01*
X413790Y208697D01*
X413992Y209452D01*
Y210233D01*
X413790Y210988D01*
X413399Y211665D01*
X412966Y212098D01*
X413135Y212598D01*
X498154D01*
X498614Y212333D01*
X500046Y211949D01*
X501529D01*
X502960Y212333D01*
X503421Y212598D01*
X511540D01*
X512000Y212333D01*
X513432Y211949D01*
X514915D01*
X516346Y212333D01*
X516807Y212598D01*
X558661D01*
Y220472D01*
X560827D01*
Y219193D01*
X566732D01*
Y220472D01*
X568898D01*
Y198055D01*
X178369Y198055D01*
Y468504D01*
Y487008D01*
X208661D01*
Y468504D01*
D02*
G37*
%LPC*%
G36*
X642065Y483386D02*
X640219D01*
X638409Y483026D01*
X636703Y482319D01*
X635169Y481294D01*
X633863Y479989D01*
X632838Y478454D01*
X632132Y476749D01*
X631772Y474939D01*
Y473093D01*
X632132Y471283D01*
X632838Y469577D01*
X633863Y468043D01*
X635169Y466738D01*
X636703Y465712D01*
X638409Y465006D01*
X640219Y464646D01*
X642065D01*
X643875Y465006D01*
X645580Y465712D01*
X647115Y466738D01*
X648420Y468043D01*
X649445Y469577D01*
X650152Y471283D01*
X650512Y473093D01*
Y474939D01*
X650152Y476749D01*
X649445Y478454D01*
X648420Y479989D01*
X647115Y481294D01*
X645580Y482319D01*
X643875Y483026D01*
X642065Y483386D01*
D02*
G37*
G36*
X626558Y463701D02*
X625410D01*
X624285Y463477D01*
X623224Y463038D01*
X622270Y462400D01*
X621458Y461588D01*
X620821Y460634D01*
X620381Y459574D01*
X620157Y458448D01*
Y457300D01*
X620381Y456174D01*
X620821Y455114D01*
X621458Y454160D01*
X622270Y453348D01*
X623224Y452710D01*
X624285Y452271D01*
X625410Y452047D01*
X626558D01*
X627684Y452271D01*
X628744Y452710D01*
X629699Y453348D01*
X630510Y454160D01*
X631148Y455114D01*
X631587Y456174D01*
X631811Y457300D01*
Y458448D01*
X631587Y459574D01*
X631148Y460634D01*
X630510Y461588D01*
X629699Y462400D01*
X628744Y463038D01*
X627684Y463477D01*
X626558Y463701D01*
D02*
G37*
G36*
X318505Y443716D02*
X317716D01*
X316986Y443414D01*
X316428Y442856D01*
X316126Y442127D01*
Y441338D01*
X316428Y440608D01*
X316986Y440050D01*
X317716Y439748D01*
X318505D01*
X319234Y440050D01*
X319792Y440608D01*
X320094Y441338D01*
Y442127D01*
X319792Y442856D01*
X319234Y443414D01*
X318505Y443716D01*
D02*
G37*
G36*
X310631D02*
X309841D01*
X309112Y443414D01*
X308554Y442856D01*
X308252Y442127D01*
Y441338D01*
X308554Y440608D01*
X309112Y440050D01*
X309841Y439748D01*
X310631D01*
X311360Y440050D01*
X311918Y440608D01*
X312221Y441338D01*
Y442127D01*
X311918Y442856D01*
X311360Y443414D01*
X310631Y443716D01*
D02*
G37*
G36*
X294883D02*
X294093D01*
X293364Y443414D01*
X292806Y442856D01*
X292504Y442127D01*
Y441338D01*
X292806Y440608D01*
X293364Y440050D01*
X294093Y439748D01*
X294883D01*
X295612Y440050D01*
X296170Y440608D01*
X296472Y441338D01*
Y442127D01*
X296170Y442856D01*
X295612Y443414D01*
X294883Y443716D01*
D02*
G37*
G36*
X287009D02*
X286220D01*
X285490Y443414D01*
X284932Y442856D01*
X284630Y442127D01*
Y441338D01*
X284932Y440608D01*
X285490Y440050D01*
X286220Y439748D01*
X287009D01*
X287738Y440050D01*
X288296Y440608D01*
X288598Y441338D01*
Y442127D01*
X288296Y442856D01*
X287738Y443414D01*
X287009Y443716D01*
D02*
G37*
G36*
X279135D02*
X278345D01*
X277616Y443414D01*
X277058Y442856D01*
X276756Y442127D01*
Y441338D01*
X277058Y440608D01*
X277616Y440050D01*
X278345Y439748D01*
X279135D01*
X279864Y440050D01*
X280422Y440608D01*
X280724Y441338D01*
Y442127D01*
X280422Y442856D01*
X279864Y443414D01*
X279135Y443716D01*
D02*
G37*
G36*
X271261D02*
X270472D01*
X269742Y443414D01*
X269184Y442856D01*
X268882Y442127D01*
Y441338D01*
X269184Y440608D01*
X269742Y440050D01*
X270472Y439748D01*
X271261D01*
X271990Y440050D01*
X272548Y440608D01*
X272850Y441338D01*
Y442127D01*
X272548Y442856D01*
X271990Y443414D01*
X271261Y443716D01*
D02*
G37*
G36*
X263387D02*
X262597D01*
X261868Y443414D01*
X261310Y442856D01*
X261008Y442127D01*
Y441338D01*
X261310Y440608D01*
X261868Y440050D01*
X262597Y439748D01*
X263387D01*
X264116Y440050D01*
X264674Y440608D01*
X264976Y441338D01*
Y442127D01*
X264674Y442856D01*
X264116Y443414D01*
X263387Y443716D01*
D02*
G37*
G36*
X255513D02*
X254723D01*
X253994Y443414D01*
X253436Y442856D01*
X253134Y442127D01*
Y441338D01*
X253436Y440608D01*
X253994Y440050D01*
X254723Y439748D01*
X255513D01*
X256242Y440050D01*
X256800Y440608D01*
X257102Y441338D01*
Y442127D01*
X256800Y442856D01*
X256242Y443414D01*
X255513Y443716D01*
D02*
G37*
G36*
X247639D02*
X246849D01*
X246120Y443414D01*
X245562Y442856D01*
X245260Y442127D01*
Y441338D01*
X245562Y440608D01*
X246120Y440050D01*
X246849Y439748D01*
X247639D01*
X248368Y440050D01*
X248926Y440608D01*
X249228Y441338D01*
Y442127D01*
X248926Y442856D01*
X248368Y443414D01*
X247639Y443716D01*
D02*
G37*
G36*
X239765D02*
X238975D01*
X238246Y443414D01*
X237688Y442856D01*
X237386Y442127D01*
Y441338D01*
X237688Y440608D01*
X238246Y440050D01*
X238975Y439748D01*
X239765D01*
X240494Y440050D01*
X241052Y440608D01*
X241354Y441338D01*
Y442127D01*
X241052Y442856D01*
X240494Y443414D01*
X239765Y443716D01*
D02*
G37*
G36*
X231891D02*
X231101D01*
X230372Y443414D01*
X229814Y442856D01*
X229512Y442127D01*
Y441338D01*
X229814Y440608D01*
X230372Y440050D01*
X231101Y439748D01*
X231891D01*
X232620Y440050D01*
X233178Y440608D01*
X233480Y441338D01*
Y442127D01*
X233178Y442856D01*
X232620Y443414D01*
X231891Y443716D01*
D02*
G37*
G36*
X224017D02*
X223227D01*
X222498Y443414D01*
X221940Y442856D01*
X221638Y442127D01*
Y441338D01*
X221940Y440608D01*
X222498Y440050D01*
X223227Y439748D01*
X224017D01*
X224746Y440050D01*
X225304Y440608D01*
X225606Y441338D01*
Y442127D01*
X225304Y442856D01*
X224746Y443414D01*
X224017Y443716D01*
D02*
G37*
G36*
X216143D02*
X215353D01*
X214624Y443414D01*
X214066Y442856D01*
X213764Y442127D01*
Y441338D01*
X214066Y440608D01*
X214624Y440050D01*
X215353Y439748D01*
X216143D01*
X216872Y440050D01*
X217430Y440608D01*
X217732Y441338D01*
Y442127D01*
X217430Y442856D01*
X216872Y443414D01*
X216143Y443716D01*
D02*
G37*
G36*
X327264Y437635D02*
X326378D01*
Y436713D01*
X328855D01*
X328612Y437077D01*
X327993Y437490D01*
X327264Y437635D01*
D02*
G37*
G36*
X324410D02*
X323524D01*
X322794Y437490D01*
X322175Y437077D01*
X321932Y436713D01*
X324410D01*
Y437635D01*
D02*
G37*
G36*
X302757Y443716D02*
X301968D01*
X301238Y443414D01*
X300680Y442856D01*
X300378Y442127D01*
Y441338D01*
X300489Y441069D01*
X299850Y439627D01*
X299404Y439100D01*
X299213D01*
X298864Y439031D01*
X298568Y438833D01*
X297584Y437849D01*
X297387Y437553D01*
X297317Y437205D01*
Y434872D01*
X297387Y434523D01*
X297584Y434228D01*
X298117Y433695D01*
X298947Y431958D01*
X298704Y431594D01*
X299640D01*
X299642Y431593D01*
X300295Y431463D01*
X302165D01*
Y429757D01*
X300295D01*
X299642Y429628D01*
X299640Y429626D01*
X298704D01*
X298947Y429262D01*
X298980Y429095D01*
X298760Y428765D01*
X298719Y428704D01*
X298719Y428704D01*
X298589Y428051D01*
X298719Y427398D01*
X298956Y427043D01*
X298273Y425203D01*
X296400Y424517D01*
X295670Y424819D01*
X294881D01*
X294152Y424517D01*
X293593Y423959D01*
X293291Y423229D01*
Y422440D01*
X293593Y421711D01*
X293885Y421419D01*
X294036Y420276D01*
X293885Y419132D01*
X293593Y418841D01*
X293291Y418111D01*
Y417322D01*
X293344Y417195D01*
X291964Y415650D01*
X290354D01*
Y412894D01*
X289370D01*
Y411909D01*
X286417D01*
X286417Y411371D01*
X284716Y410312D01*
X284449Y410290D01*
X283855Y410449D01*
X283074D01*
X282319Y410247D01*
X281642Y409856D01*
X281089Y409303D01*
X280698Y408626D01*
X280496Y407871D01*
Y407090D01*
X280698Y406334D01*
X281089Y405658D01*
X281642Y405105D01*
X281915Y404947D01*
X281567Y402979D01*
X277762D01*
X277762Y397365D01*
X277762Y396809D01*
X277606Y396015D01*
X277588Y395966D01*
X277178Y395263D01*
X276475Y394853D01*
X276426Y394835D01*
X275632Y394679D01*
X275092Y394679D01*
X269462D01*
Y391104D01*
Y388841D01*
X268898Y387106D01*
X263386D01*
Y387106D01*
X262598D01*
Y387106D01*
X257087D01*
X257087Y387106D01*
X255118Y386771D01*
X254689Y387018D01*
X253934Y387221D01*
X253152D01*
X252397Y387018D01*
X251721Y386627D01*
X251168Y386075D01*
X250777Y385398D01*
X250575Y384643D01*
Y383861D01*
X250777Y383106D01*
X251168Y382429D01*
X251721Y381877D01*
X252397Y381486D01*
X253152Y381283D01*
X253934D01*
X254689Y381486D01*
X254921Y381620D01*
X256314Y381093D01*
X256890Y380616D01*
Y380217D01*
X259842D01*
Y378248D01*
X256890D01*
Y376476D01*
X256890D01*
X257465Y374746D01*
Y374015D01*
X257767Y373286D01*
X258325Y372727D01*
X258252Y371655D01*
Y370865D01*
X258554Y370136D01*
X259112Y369578D01*
X259841Y369276D01*
X260631D01*
X261006Y369431D01*
X261017Y369424D01*
X261404Y369347D01*
X264018D01*
X264405Y369424D01*
X265641Y368955D01*
X266199Y368397D01*
X266928Y368094D01*
X267718D01*
X267801Y368129D01*
X268250Y367862D01*
X268460Y367653D01*
X268755Y367456D01*
X269025Y367402D01*
X269462Y367143D01*
Y365913D01*
X269110Y364091D01*
X266642D01*
Y361319D01*
X265642D01*
Y364091D01*
X263173D01*
X262402Y364961D01*
Y364961D01*
X257283D01*
Y361786D01*
X252473Y356976D01*
X252145Y356485D01*
X252030Y355906D01*
X252030Y355906D01*
Y346291D01*
X250197Y345965D01*
X249532Y345965D01*
X248228D01*
Y343209D01*
X247244D01*
Y342224D01*
X244291D01*
X244291Y340453D01*
X244488Y338566D01*
Y335335D01*
X244488D01*
X244640Y334969D01*
X242862Y333191D01*
X242517Y333283D01*
X241735D01*
X240980Y333081D01*
X240303Y332690D01*
X239751Y332138D01*
X239360Y331461D01*
X239158Y330706D01*
Y329924D01*
X239360Y329169D01*
X239751Y328492D01*
X240303Y327940D01*
X240980Y327549D01*
X241735Y327346D01*
X242517D01*
X243272Y327549D01*
X243949Y327940D01*
X244501Y328492D01*
X244892Y329169D01*
X245094Y329924D01*
Y330706D01*
X245002Y331051D01*
X248314Y334363D01*
X248388Y334474D01*
X250000Y335335D01*
X251378Y335433D01*
Y335433D01*
X255709D01*
X255709Y339449D01*
X256819Y340575D01*
X257310Y340846D01*
X262598D01*
Y340846D01*
X263386D01*
Y340846D01*
X268898D01*
Y341892D01*
X270864D01*
X270864Y341892D01*
X271443Y342007D01*
X271934Y342335D01*
X273502Y343904D01*
X275632Y343904D01*
X276426Y343747D01*
X276475Y343730D01*
X277178Y343320D01*
X277588Y342617D01*
X277606Y342567D01*
X277762Y341774D01*
X277762Y341233D01*
Y335604D01*
X281738D01*
Y331959D01*
X281738Y331846D01*
X279348Y329455D01*
X279135Y329543D01*
X278345D01*
X277616Y329241D01*
X277058Y328683D01*
X276756Y327954D01*
Y327164D01*
X277058Y326435D01*
X277616Y325877D01*
X278345Y325575D01*
X279135D01*
X279864Y325877D01*
X280422Y326435D01*
X280724Y327164D01*
Y327954D01*
X280636Y328167D01*
X282164Y329695D01*
X284412Y329290D01*
X284783Y328567D01*
X284630Y327954D01*
X284630Y327164D01*
X284932Y326435D01*
X285490Y325877D01*
X286220Y325575D01*
X287009D01*
X287738Y325877D01*
X288296Y326435D01*
X288598Y327164D01*
Y327954D01*
X288296Y328683D01*
X287738Y329241D01*
X287097Y329507D01*
X287016Y330107D01*
X287032Y331376D01*
X288815Y331943D01*
X292592Y328167D01*
X292504Y327954D01*
Y327164D01*
X292806Y326435D01*
X293364Y325877D01*
X294093Y325575D01*
X294883D01*
X295612Y325877D01*
X296170Y326435D01*
X296363Y326901D01*
X297454Y327385D01*
X298209Y327554D01*
X298868Y327179D01*
X299115Y326932D01*
X299115Y326932D01*
X299133Y326915D01*
X299133Y326915D01*
X299428Y326717D01*
X299429Y326717D01*
X299777Y326648D01*
X299802Y326648D01*
X300737Y326146D01*
X301238Y325877D01*
X301420Y325802D01*
X301968Y325575D01*
X302757D01*
X303486Y325877D01*
X304044Y326435D01*
X304094Y326554D01*
X305349Y327041D01*
X306819Y326932D01*
X306819Y326932D01*
X306836Y326915D01*
X307132Y326717D01*
X307480Y326648D01*
X307480Y326648D01*
X307505Y326648D01*
X307505Y326648D01*
X307505D01*
X307785Y326648D01*
X308573Y326416D01*
X309112Y325877D01*
X309841Y325575D01*
X310631D01*
X311360Y325877D01*
X311918Y326435D01*
X312221Y327164D01*
Y327954D01*
X313395Y329509D01*
X313710Y329590D01*
X314882Y329499D01*
X316214Y328167D01*
X316126Y327954D01*
Y327164D01*
X316428Y326435D01*
X316986Y325877D01*
X317716Y325575D01*
X318505D01*
X319234Y325877D01*
X319792Y326435D01*
X320094Y327164D01*
Y327954D01*
X319792Y328683D01*
X319234Y329241D01*
X318505Y329543D01*
X318579Y331332D01*
X318585Y331479D01*
X320776Y331479D01*
X324088Y328167D01*
X324000Y327954D01*
Y327164D01*
X324302Y326435D01*
X324860Y325877D01*
X325590Y325575D01*
X326379D01*
X327108Y325877D01*
X327666Y326435D01*
X327969Y327164D01*
Y327954D01*
X327666Y328683D01*
X327108Y329241D01*
X326379Y329543D01*
X325590D01*
X325377Y329455D01*
X321815Y333017D01*
X321804Y333028D01*
X321798Y333034D01*
X321798Y333034D01*
X321502Y333232D01*
X321153Y333301D01*
X321129Y333301D01*
X318718D01*
X316264Y333301D01*
X315127D01*
X315127Y333301D01*
X315127Y333301D01*
X309015D01*
X308792Y333635D01*
X309844Y335604D01*
X328537D01*
Y340380D01*
X329619Y341038D01*
X330505Y341274D01*
X330596Y341213D01*
X330792Y341175D01*
X331983Y339984D01*
Y337639D01*
X331983D01*
X332262Y335827D01*
X331983Y334014D01*
X331983D01*
Y330239D01*
X332233D01*
X333366Y328740D01*
Y325368D01*
X331590Y323592D01*
X331262Y323101D01*
X331215Y322866D01*
X331138Y322845D01*
X330461Y322454D01*
X329908Y321901D01*
X329517Y321224D01*
X329315Y320469D01*
Y319688D01*
X329517Y318933D01*
X329908Y318256D01*
X330461Y317703D01*
X331138Y317313D01*
X331893Y317110D01*
X332674D01*
X333429Y317313D01*
X334106Y317703D01*
X334659Y318256D01*
X335050Y318933D01*
X335252Y319688D01*
Y320469D01*
X335050Y321224D01*
X334879Y321519D01*
X335706Y322881D01*
X336078Y323228D01*
X336597D01*
X338484Y323031D01*
X340256Y323031D01*
Y325984D01*
Y328937D01*
X339986D01*
X338558Y330239D01*
X338558Y330670D01*
Y332046D01*
X338558Y332438D01*
X339986Y333742D01*
X341179Y333742D01*
X342486D01*
Y335827D01*
Y337911D01*
X341179Y337911D01*
X339986Y337911D01*
X338558Y339215D01*
X338558Y339608D01*
Y341414D01*
X334807D01*
X334458Y341935D01*
X335511Y343904D01*
X336837D01*
Y347004D01*
Y351316D01*
X337402Y353051D01*
X342913D01*
Y353051D01*
X343701D01*
Y353051D01*
X349213D01*
Y353051D01*
X351031Y352690D01*
X351578Y352543D01*
X352359D01*
X352362Y352544D01*
X354331Y352362D01*
Y352362D01*
X377559D01*
Y379921D01*
X354331D01*
Y368852D01*
X353420Y367941D01*
X336837D01*
Y372204D01*
Y375404D01*
Y378504D01*
Y381704D01*
Y384801D01*
X338188Y386205D01*
X338977D01*
X339707Y386507D01*
X340158Y386958D01*
X340608Y386507D01*
X341338Y386205D01*
X342127D01*
X342856Y386507D01*
X343414Y387065D01*
X343717Y387794D01*
Y388584D01*
X343414Y389313D01*
X342856Y389871D01*
X342127Y390173D01*
X341542D01*
X340335Y391381D01*
X340007Y391600D01*
X339620Y391677D01*
X337557D01*
X336837Y393541D01*
Y394679D01*
X331224Y394679D01*
X330667Y394679D01*
X329873Y394835D01*
X329824Y394853D01*
X329121Y395263D01*
X328711Y395966D01*
X328694Y396015D01*
X328537Y396809D01*
X328537Y397349D01*
Y402979D01*
X328190D01*
X327374Y403903D01*
X326990Y404771D01*
X327807Y405981D01*
X327917Y406003D01*
X328470Y406372D01*
X328840Y406926D01*
X329557Y407806D01*
X330710Y408252D01*
X331439Y408554D01*
X331997Y409112D01*
X332299Y409841D01*
Y410614D01*
X332678D01*
X333407Y410916D01*
X333966Y411474D01*
X334268Y412204D01*
Y412993D01*
X333966Y413722D01*
X333674Y414014D01*
X333523Y415157D01*
X333674Y416301D01*
X333966Y416593D01*
X334268Y417322D01*
Y418111D01*
X333966Y418841D01*
X333674Y419132D01*
X333523Y420276D01*
X333674Y421419D01*
X333966Y421711D01*
X334268Y422440D01*
Y423229D01*
X333966Y423959D01*
X333674Y424250D01*
X333523Y425394D01*
X333674Y426537D01*
X333966Y426829D01*
X334268Y427558D01*
Y428347D01*
X333966Y429077D01*
X333407Y429635D01*
X332678Y429937D01*
X331889D01*
X331159Y429635D01*
X329286Y430321D01*
X328603Y432162D01*
X328840Y432516D01*
X328970Y433169D01*
X328840Y433822D01*
X328840Y433822D01*
X328579Y434213D01*
X328612Y434380D01*
X328855Y434744D01*
X327919D01*
X327917Y434746D01*
X327264Y434875D01*
X325394D01*
X323524D01*
X322871Y434746D01*
X322868Y434744D01*
X321932D01*
X322175Y434380D01*
X321345Y432644D01*
X317029Y428328D01*
X315766Y428622D01*
X315061Y429086D01*
Y429157D01*
X314991Y429506D01*
X314794Y429802D01*
X305762Y438833D01*
X305467Y439031D01*
X305287Y439067D01*
X304923Y439518D01*
X304235Y441069D01*
X304346Y441338D01*
Y442127D01*
X304044Y442856D01*
X303486Y443414D01*
X302757Y443716D01*
D02*
G37*
G36*
X419095Y419980D02*
X417126D01*
Y418209D01*
X419095D01*
Y419980D01*
D02*
G37*
G36*
X288386Y415650D02*
X286417D01*
Y413878D01*
X288386D01*
Y415650D01*
D02*
G37*
G36*
X378150Y411319D02*
X376181D01*
Y409547D01*
X378150D01*
Y411319D01*
D02*
G37*
G36*
X242913Y402953D02*
X241142D01*
Y400984D01*
X242913D01*
Y402953D01*
D02*
G37*
G36*
X239173D02*
X237402D01*
Y400984D01*
X239173D01*
Y402953D01*
D02*
G37*
G36*
X250787Y401968D02*
X249016D01*
Y400394D01*
X250787D01*
Y401968D01*
D02*
G37*
G36*
X247047D02*
X245276D01*
Y400394D01*
X247047D01*
Y401968D01*
D02*
G37*
G36*
X423819Y420866D02*
X423032Y419980D01*
X421063D01*
Y417224D01*
X420079D01*
Y416240D01*
X417126D01*
X417126Y415293D01*
X415510Y415293D01*
X407762D01*
Y412949D01*
X402434Y407621D01*
X402215Y407293D01*
X402138Y406906D01*
Y395276D01*
X399991D01*
X398537Y396518D01*
X398537Y397244D01*
X398537Y401518D01*
X398537Y402261D01*
Y404434D01*
X398734Y406321D01*
X398734Y407180D01*
Y407421D01*
X393850D01*
Y409390D01*
X398734D01*
Y410490D01*
X398537Y412377D01*
Y415293D01*
X389162D01*
Y415293D01*
X387371Y414865D01*
X387194Y414825D01*
X386951Y415068D01*
X386222Y415370D01*
X385432D01*
X384703Y415068D01*
X384145Y414510D01*
X383842Y413780D01*
X383842Y412991D01*
X382516Y411319D01*
X380512Y411319D01*
X380118D01*
Y408563D01*
X379134D01*
Y407579D01*
X376181D01*
X376181Y405807D01*
X376378Y403920D01*
Y400689D01*
X376378Y400689D01*
X376806Y398721D01*
X376759Y398673D01*
X376368Y397996D01*
X376165Y397241D01*
Y396460D01*
X376368Y395705D01*
X376759Y395028D01*
X377311Y394475D01*
X377988Y394084D01*
X378743Y393882D01*
X379525D01*
X380280Y394084D01*
X380957Y394475D01*
X381509Y395028D01*
X381900Y395705D01*
X382009Y396113D01*
X382102Y396460D01*
X382118Y396494D01*
X383577Y397075D01*
X384300Y397145D01*
X384703Y396743D01*
X385432Y396441D01*
X386222D01*
X386951Y396743D01*
X387194Y396986D01*
X387321Y396957D01*
X389162Y396518D01*
X389162Y396518D01*
X389162Y396518D01*
X395200D01*
X396654Y395276D01*
X396654Y394550D01*
Y393504D01*
X399606D01*
Y391535D01*
X396654D01*
Y389764D01*
X395394Y389272D01*
Y386024D01*
X398150D01*
Y385039D01*
X399134D01*
Y380807D01*
X400906D01*
Y381004D01*
X410709D01*
Y389075D01*
X410709D01*
X409449Y389961D01*
Y394550D01*
X409449Y395079D01*
X410726Y396518D01*
X415634D01*
X417520Y394632D01*
Y390551D01*
X421850D01*
X423819Y390551D01*
X424606Y390551D01*
X428937D01*
Y390551D01*
X430708Y391323D01*
X431497D01*
X432226Y391625D01*
X432785Y392183D01*
X433087Y392912D01*
Y393702D01*
X432785Y394431D01*
X432226Y394989D01*
X432002Y395082D01*
X431262Y395573D01*
X430540Y396437D01*
X430441Y397110D01*
Y402892D01*
X430364Y403279D01*
X430144Y403608D01*
X429368Y404384D01*
X428551Y406111D01*
X429370Y407036D01*
X430144Y407810D01*
X430364Y408138D01*
X430441Y408525D01*
Y414307D01*
X430540Y414980D01*
X431262Y415845D01*
X432002Y416335D01*
X432226Y416428D01*
X432785Y416986D01*
X433087Y417716D01*
Y418505D01*
X432785Y419234D01*
X432226Y419792D01*
X431497Y420094D01*
X430708D01*
X428937Y420866D01*
Y420866D01*
X423819D01*
Y420866D01*
D02*
G37*
G36*
X397165Y384055D02*
X395394D01*
Y380807D01*
X397165D01*
Y384055D01*
D02*
G37*
G36*
X229995Y370905D02*
X228824D01*
X227692Y370602D01*
X226678Y370017D01*
X225850Y369188D01*
X225264Y368174D01*
X224961Y367042D01*
Y365871D01*
X225264Y364739D01*
X225850Y363725D01*
X226678Y362897D01*
X227303Y362536D01*
X227515Y361482D01*
Y361432D01*
X227303Y360378D01*
X226678Y360017D01*
X225850Y359188D01*
X225489Y358563D01*
X224435Y358351D01*
X224384D01*
X223330Y358563D01*
X222969Y359188D01*
X222141Y360017D01*
X221127Y360602D01*
X219995Y360906D01*
X218824D01*
X217692Y360602D01*
X216678Y360017D01*
X215849Y359188D01*
X215264Y358174D01*
X214961Y357042D01*
Y355871D01*
X215264Y354739D01*
X215849Y353725D01*
X216678Y352897D01*
X217303Y352536D01*
X217515Y351482D01*
Y351431D01*
X217303Y350377D01*
X216678Y350017D01*
X215849Y349188D01*
X215264Y348174D01*
X214961Y347042D01*
Y345871D01*
X215264Y344740D01*
X215849Y343725D01*
X216678Y342897D01*
X217303Y342536D01*
X217515Y341482D01*
Y341431D01*
X217303Y340377D01*
X216678Y340017D01*
X215849Y339188D01*
X215264Y338174D01*
X214961Y337042D01*
Y335871D01*
X215264Y334739D01*
X215849Y333725D01*
X216678Y332897D01*
X217692Y332311D01*
X218824Y332008D01*
X219995D01*
X221127Y332311D01*
X222141Y332897D01*
X222969Y333725D01*
X223330Y334350D01*
X224384Y334562D01*
X224435D01*
X225489Y334350D01*
X225850Y333725D01*
X226678Y332897D01*
X226717Y332874D01*
X226190Y330906D01*
X224961D01*
Y322008D01*
X233858D01*
Y330906D01*
X232629D01*
X232102Y332874D01*
X232141Y332897D01*
X232969Y333725D01*
X233555Y334739D01*
X233858Y335871D01*
Y337042D01*
X233555Y338174D01*
X232969Y339188D01*
X232141Y340017D01*
X231516Y340377D01*
X231304Y341431D01*
Y341482D01*
X231516Y342536D01*
X232141Y342897D01*
X232969Y343725D01*
X233555Y344740D01*
X233858Y345871D01*
Y347042D01*
X233555Y348174D01*
X232969Y349188D01*
X232141Y350017D01*
X231516Y350377D01*
X231304Y351431D01*
Y351482D01*
X231516Y352536D01*
X232141Y352897D01*
X232969Y353725D01*
X233555Y354739D01*
X233858Y355871D01*
Y357042D01*
X233555Y358174D01*
X232969Y359188D01*
X232141Y360017D01*
X231516Y360378D01*
X231304Y361432D01*
Y361482D01*
X231516Y362536D01*
X232141Y362897D01*
X232969Y363725D01*
X233555Y364739D01*
X233858Y365871D01*
Y367042D01*
X233555Y368174D01*
X232969Y369188D01*
X232141Y370017D01*
X231127Y370602D01*
X229995Y370905D01*
D02*
G37*
G36*
X533366Y355984D02*
X531458Y354454D01*
X504332D01*
X504331Y354590D01*
X504331Y354487D01*
X504331Y354488D01*
X504331Y354601D01*
Y355709D01*
X499337D01*
X497457Y355921D01*
X496939Y355921D01*
X494988D01*
Y353150D01*
Y350378D01*
X496939D01*
X497457Y350378D01*
X498695Y350518D01*
X500503Y349349D01*
X500664Y348819D01*
X500733Y348470D01*
X500733Y348469D01*
X500931Y348175D01*
X500948Y348157D01*
X501522Y347583D01*
X501522D01*
X503151Y345954D01*
X503151Y345954D01*
X503374Y345731D01*
X503374Y345731D01*
X503391Y345714D01*
X503686Y345517D01*
X503687Y345516D01*
X503698Y345514D01*
X504279Y345125D01*
X504876Y342853D01*
X504421Y342315D01*
X504211Y342189D01*
X504149Y342151D01*
X502133Y342151D01*
X501186Y342980D01*
X499776Y344327D01*
X499765Y344339D01*
X499758Y344345D01*
X499758Y344345D01*
X499463Y344543D01*
X499114Y344612D01*
X499089Y344612D01*
X494020D01*
X491894Y344612D01*
X491528Y344856D01*
X490387Y346358D01*
X490257Y347011D01*
X490257Y347011D01*
X490257Y347011D01*
X489887Y347565D01*
X489334Y347934D01*
X489334Y347934D01*
X488681Y348064D01*
X484547D01*
X483894Y347934D01*
X483894Y347934D01*
X483341Y347565D01*
X483012Y347072D01*
X482971Y347011D01*
X482971Y347011D01*
X482971Y347011D01*
X482841Y346358D01*
X482841Y346358D01*
X482856Y346287D01*
X482971Y345705D01*
X483302Y345079D01*
X482971Y344452D01*
X482841Y343799D01*
X482928Y343362D01*
X482409Y342671D01*
X481930Y342266D01*
X480905Y342884D01*
Y343012D01*
X475000D01*
X475000Y341240D01*
X475197Y339353D01*
Y336122D01*
X475979D01*
X476748Y334154D01*
X475984Y333268D01*
X474016Y333227D01*
X473587Y333475D01*
X472832Y333677D01*
X472050D01*
X471295Y333475D01*
X470618Y333084D01*
X470065Y332531D01*
X469675Y331855D01*
X469472Y331100D01*
Y330318D01*
X469675Y329563D01*
X470065Y328886D01*
X470618Y328333D01*
X471295Y327942D01*
X472050Y327740D01*
X472832D01*
X473587Y327942D01*
X474016Y328190D01*
X475984Y328150D01*
X475984Y328150D01*
X481496D01*
Y328150D01*
X483071D01*
Y328150D01*
X488583D01*
Y328150D01*
X490491Y329797D01*
X491730D01*
X491732Y329662D01*
X491732Y329764D01*
X491732Y329764D01*
X491732Y329651D01*
Y328150D01*
X497244D01*
Y328150D01*
X498819D01*
Y328150D01*
X504331D01*
Y329797D01*
X507382D01*
X507382Y329651D01*
Y327953D01*
X510613D01*
X512500Y327756D01*
X514272Y327756D01*
Y330709D01*
Y333661D01*
X512500Y333661D01*
X510613Y333465D01*
X507382D01*
Y331620D01*
X504331D01*
X504331Y331766D01*
Y333268D01*
X504331D01*
X502486Y335176D01*
Y339246D01*
X502962Y339529D01*
X503827Y339720D01*
X505533Y338393D01*
X505620Y337951D01*
X506034Y337333D01*
X506652Y336919D01*
X507382Y336774D01*
X508464D01*
Y338681D01*
X509449D01*
Y339534D01*
X511516D01*
X512169Y339664D01*
X512171Y339665D01*
X513107D01*
X512864Y340029D01*
X512831Y340196D01*
X513092Y340587D01*
X513222Y341240D01*
X514476Y342725D01*
X514567Y342779D01*
X516535Y342246D01*
Y341142D01*
X522047D01*
Y341142D01*
X523622D01*
Y341142D01*
X529134D01*
Y341142D01*
X531042Y342790D01*
X532418D01*
Y342790D01*
X533366D01*
X533366Y342643D01*
Y340866D01*
X540565Y340866D01*
X541417Y340326D01*
Y340326D01*
X541417Y340326D01*
Y340326D01*
X542368Y338752D01*
X542509Y338224D01*
X542900Y337547D01*
X543453Y336995D01*
X544130Y336604D01*
X544885Y336402D01*
X545666D01*
X546421Y336604D01*
X547098Y336995D01*
X547651Y337547D01*
X548042Y338224D01*
X548244Y338979D01*
Y339761D01*
X548042Y340516D01*
X547651Y341193D01*
X547098Y341745D01*
X546421Y342136D01*
X545666Y342339D01*
X544885D01*
X544130Y342136D01*
X542290Y342103D01*
X542290Y342103D01*
X542290Y342103D01*
Y342103D01*
X541437Y342413D01*
X541437Y342560D01*
Y345866D01*
Y350866D01*
Y355984D01*
X533366D01*
Y355984D01*
D02*
G37*
G36*
X493988Y355921D02*
X491520D01*
Y353650D01*
X493988D01*
Y355921D01*
D02*
G37*
G36*
Y352650D02*
X491520D01*
Y350378D01*
X493988D01*
Y352650D01*
D02*
G37*
G36*
X557481Y350409D02*
X556692D01*
X555963Y350107D01*
X555405Y349549D01*
X555102Y348820D01*
Y348030D01*
X555405Y347301D01*
X555963Y346743D01*
X556692Y346441D01*
X557481D01*
X558211Y346743D01*
X558769Y347301D01*
X559071Y348030D01*
Y348820D01*
X558769Y349549D01*
X558211Y350107D01*
X557481Y350409D01*
D02*
G37*
G36*
X480905Y346752D02*
X478937D01*
Y344980D01*
X480905D01*
Y346752D01*
D02*
G37*
G36*
X476968D02*
X475000D01*
Y344980D01*
X476968D01*
Y346752D01*
D02*
G37*
G36*
X246260Y345965D02*
X244291D01*
Y344193D01*
X246260D01*
Y345965D01*
D02*
G37*
G36*
X600788Y350410D02*
X599999D01*
X599270Y350107D01*
X598711Y349549D01*
X598410Y348820D01*
Y348030D01*
X598711Y347301D01*
X599128Y346457D01*
X598711Y345612D01*
X598410Y344883D01*
Y344093D01*
X598711Y343364D01*
X599128Y342520D01*
X598711Y341675D01*
X598410Y340946D01*
Y340157D01*
X598711Y339427D01*
X599270Y338869D01*
X599999Y338567D01*
X600788D01*
X601518Y338869D01*
X602076Y339427D01*
X602378Y340157D01*
Y340946D01*
X602076Y341675D01*
X601659Y342520D01*
X602076Y343364D01*
X602378Y344093D01*
Y344883D01*
X602076Y345612D01*
X601659Y346457D01*
X602076Y347301D01*
X602378Y348030D01*
Y348820D01*
X602076Y349549D01*
X601518Y350107D01*
X600788Y350410D01*
D02*
G37*
G36*
X344454Y337911D02*
Y336811D01*
X346954D01*
Y337911D01*
X344454D01*
D02*
G37*
G36*
X513107Y337697D02*
X510433D01*
Y336774D01*
X511516D01*
X512245Y336919D01*
X512864Y337333D01*
X513107Y337697D01*
D02*
G37*
G36*
X346954Y334842D02*
X344454D01*
Y333742D01*
X346954D01*
Y334842D01*
D02*
G37*
G36*
X516240Y333661D02*
Y331693D01*
X518012D01*
Y333661D01*
X516240D01*
D02*
G37*
G36*
X518012Y329724D02*
X516240D01*
Y327756D01*
X518012D01*
Y329724D01*
D02*
G37*
G36*
X342224Y328937D02*
Y326969D01*
X343996D01*
Y328937D01*
X342224D01*
D02*
G37*
G36*
X343996Y325000D02*
X342224D01*
Y323031D01*
X343996D01*
Y325000D01*
D02*
G37*
G36*
X251182Y325213D02*
X250393D01*
X249663Y324910D01*
X249105Y324352D01*
X248803Y323623D01*
Y322834D01*
X249105Y322104D01*
X249663Y321546D01*
X250393Y321244D01*
X251182D01*
X251911Y321546D01*
X252470Y322104D01*
X252772Y322834D01*
Y323623D01*
X252470Y324352D01*
X251911Y324910D01*
X251182Y325213D01*
D02*
G37*
G36*
X573229Y322850D02*
X572440D01*
X571711Y322548D01*
X571152Y321990D01*
X570850Y321261D01*
Y320472D01*
X571152Y319742D01*
X571569Y318898D01*
X571152Y318053D01*
X570850Y317324D01*
Y316534D01*
X571152Y315805D01*
X571569Y314961D01*
X571152Y314116D01*
X570850Y313387D01*
Y312597D01*
X571152Y311868D01*
X571711Y311310D01*
X572440Y311008D01*
X573229D01*
X573959Y311310D01*
X574517Y311868D01*
X574819Y312597D01*
Y313387D01*
X574517Y314116D01*
X574100Y314961D01*
X574517Y315805D01*
X574819Y316534D01*
Y317324D01*
X574517Y318053D01*
X574100Y318898D01*
X574517Y319742D01*
X574819Y320472D01*
Y321261D01*
X574517Y321990D01*
X573959Y322548D01*
X573229Y322850D01*
D02*
G37*
G36*
X326379Y307102D02*
X325590D01*
X324860Y306800D01*
X324302Y306242D01*
X324000Y305513D01*
Y304723D01*
X324302Y303994D01*
X324860Y303436D01*
X325590Y303134D01*
X326379D01*
X327108Y303436D01*
X327666Y303994D01*
X327969Y304723D01*
Y305513D01*
X327666Y306242D01*
X327108Y306800D01*
X326379Y307102D01*
D02*
G37*
G36*
X318505D02*
X317716D01*
X316986Y306800D01*
X316428Y306242D01*
X316126Y305513D01*
Y304723D01*
X316428Y303994D01*
X316986Y303436D01*
X317716Y303134D01*
X318505D01*
X319234Y303436D01*
X319792Y303994D01*
X320094Y304723D01*
Y305513D01*
X319792Y306242D01*
X319234Y306800D01*
X318505Y307102D01*
D02*
G37*
G36*
X310631D02*
X309841D01*
X309112Y306800D01*
X308554Y306242D01*
X308252Y305513D01*
Y304723D01*
X308554Y303994D01*
X309112Y303436D01*
X309841Y303134D01*
X310631D01*
X311360Y303436D01*
X311918Y303994D01*
X312221Y304723D01*
Y305513D01*
X311918Y306242D01*
X311360Y306800D01*
X310631Y307102D01*
D02*
G37*
G36*
X302757D02*
X301968D01*
X301238Y306800D01*
X300680Y306242D01*
X300378Y305513D01*
Y304723D01*
X300680Y303994D01*
X301238Y303436D01*
X301968Y303134D01*
X302757D01*
X303486Y303436D01*
X304044Y303994D01*
X304346Y304723D01*
Y305513D01*
X304044Y306242D01*
X303486Y306800D01*
X302757Y307102D01*
D02*
G37*
G36*
X294883D02*
X294093D01*
X293364Y306800D01*
X292806Y306242D01*
X292504Y305513D01*
Y304723D01*
X292806Y303994D01*
X293364Y303436D01*
X294093Y303134D01*
X294883D01*
X295612Y303436D01*
X296170Y303994D01*
X296472Y304723D01*
Y305513D01*
X296170Y306242D01*
X295612Y306800D01*
X294883Y307102D01*
D02*
G37*
G36*
X287009D02*
X286220D01*
X285490Y306800D01*
X284932Y306242D01*
X284630Y305513D01*
Y304723D01*
X284932Y303994D01*
X285490Y303436D01*
X286220Y303134D01*
X287009D01*
X287738Y303436D01*
X288296Y303994D01*
X288598Y304723D01*
Y305513D01*
X288296Y306242D01*
X287738Y306800D01*
X287009Y307102D01*
D02*
G37*
G36*
X279135D02*
X278345D01*
X277616Y306800D01*
X277058Y306242D01*
X276756Y305513D01*
Y304723D01*
X277058Y303994D01*
X277616Y303436D01*
X278345Y303134D01*
X279135D01*
X279864Y303436D01*
X280422Y303994D01*
X280724Y304723D01*
Y305513D01*
X280422Y306242D01*
X279864Y306800D01*
X279135Y307102D01*
D02*
G37*
G36*
X480710Y299228D02*
X479920D01*
X479191Y298926D01*
X478633Y298368D01*
X478331Y297639D01*
Y297006D01*
X477756Y295275D01*
X477756D01*
Y290157D01*
X477756Y289764D01*
Y288189D01*
X477756Y287795D01*
Y282677D01*
X477805D01*
X479203Y281496D01*
X479288Y281070D01*
X479529Y280710D01*
X490414Y269824D01*
X490414Y269824D01*
X490775Y269583D01*
X491201Y269498D01*
X491201Y269498D01*
X495257D01*
X495541Y268437D01*
X496282Y267153D01*
X497331Y266105D01*
X498614Y265364D01*
X500046Y264980D01*
X501529D01*
X502960Y265364D01*
X504244Y266105D01*
X505293Y267153D01*
X506034Y268437D01*
X506318Y269498D01*
X508643D01*
X508927Y268437D01*
X509668Y267153D01*
X510716Y266105D01*
X512000Y265364D01*
X513432Y264980D01*
X514915D01*
X516346Y265364D01*
X517630Y266105D01*
X518678Y267153D01*
X519419Y268437D01*
X519803Y269869D01*
Y271351D01*
X519419Y272783D01*
X518678Y274067D01*
X517630Y275115D01*
X516346Y275856D01*
X514915Y276240D01*
X513432D01*
X512000Y275856D01*
X510716Y275115D01*
X509668Y274067D01*
X508927Y272783D01*
X508643Y271722D01*
X506318D01*
X506034Y272783D01*
X505293Y274067D01*
X504244Y275115D01*
X502960Y275856D01*
X501529Y276240D01*
X500046D01*
X498614Y275856D01*
X497331Y275115D01*
X496282Y274067D01*
X495541Y272783D01*
X495257Y271722D01*
X491661D01*
X482675Y280709D01*
X482874Y282677D01*
X482874D01*
Y287795D01*
X482874Y288189D01*
Y289764D01*
X482874Y290157D01*
Y295275D01*
X482874D01*
X482299Y297006D01*
Y297639D01*
X481997Y298368D01*
X481439Y298926D01*
X480710Y299228D01*
D02*
G37*
G36*
X643049Y284370D02*
X641203D01*
X639393Y284010D01*
X637688Y283304D01*
X636153Y282278D01*
X634848Y280973D01*
X633822Y279438D01*
X633116Y277733D01*
X632756Y275923D01*
Y274077D01*
X633116Y272267D01*
X633822Y270562D01*
X634848Y269027D01*
X636153Y267722D01*
X637688Y266696D01*
X639393Y265990D01*
X641203Y265630D01*
X643049D01*
X644859Y265990D01*
X646564Y266696D01*
X648099Y267722D01*
X649404Y269027D01*
X650430Y270562D01*
X651136Y272267D01*
X651496Y274077D01*
Y275923D01*
X651136Y277733D01*
X650430Y279438D01*
X649404Y280973D01*
X648099Y282278D01*
X646564Y283304D01*
X644859Y284010D01*
X643049Y284370D01*
D02*
G37*
G36*
X450271Y259882D02*
X448903D01*
X447581Y259528D01*
X446396Y258843D01*
X445428Y257876D01*
X444744Y256691D01*
X444390Y255369D01*
Y254001D01*
X444744Y252679D01*
X445428Y251494D01*
X446396Y250526D01*
X447581Y249842D01*
X448903Y249488D01*
X450271D01*
X451593Y249842D01*
X452778Y250526D01*
X453745Y251494D01*
X454429Y252679D01*
X454783Y254001D01*
Y255369D01*
X454429Y256691D01*
X453745Y257876D01*
X452778Y258843D01*
X451593Y259528D01*
X450271Y259882D01*
D02*
G37*
G36*
X258184Y250512D02*
X256816D01*
X255494Y250158D01*
X254309Y249474D01*
X253342Y248506D01*
X252657Y247321D01*
X252303Y245999D01*
Y244631D01*
X252657Y243309D01*
X253342Y242124D01*
X254309Y241156D01*
X255494Y240472D01*
X256816Y240118D01*
X258184D01*
X259506Y240472D01*
X260691Y241156D01*
X261659Y242124D01*
X262343Y243309D01*
X262697Y244631D01*
Y245999D01*
X262343Y247321D01*
X261659Y248506D01*
X260691Y249474D01*
X259506Y250158D01*
X258184Y250512D01*
D02*
G37*
G36*
X566732Y232185D02*
X564764D01*
Y230413D01*
X566732D01*
Y232185D01*
D02*
G37*
G36*
X562795D02*
X560827D01*
Y230413D01*
X562795D01*
Y232185D01*
D02*
G37*
G36*
X461102Y235394D02*
X448602D01*
Y225394D01*
X461102D01*
Y235394D01*
D02*
G37*
G36*
X566732Y226279D02*
X564764D01*
Y224508D01*
X566732D01*
Y226279D01*
D02*
G37*
G36*
X562795D02*
X560827D01*
Y224508D01*
X562795D01*
Y226279D01*
D02*
G37*
G36*
X550763Y242646D02*
X549631D01*
X548537Y242353D01*
X547557Y241787D01*
X546757Y240986D01*
X546191Y240006D01*
X545898Y238913D01*
Y237780D01*
X546191Y236687D01*
X546757Y235707D01*
X547557Y234906D01*
X548537Y234340D01*
X549631Y234047D01*
X550763D01*
X551856Y234340D01*
X552837Y234906D01*
X553637Y235707D01*
X554203Y236687D01*
X554350Y237234D01*
X559401D01*
X560827Y235925D01*
X560827Y234154D01*
X563780D01*
X567032D01*
X568701Y234845D01*
X579759Y223786D01*
X579708Y221391D01*
X579353Y221036D01*
X578612Y219752D01*
X578228Y218320D01*
Y216838D01*
X578612Y215406D01*
X579353Y214122D01*
X580401Y213074D01*
X581685Y212333D01*
X583117Y211949D01*
X584599D01*
X586031Y212333D01*
X587315Y213074D01*
X588363Y214122D01*
X589104Y215406D01*
X589389Y216467D01*
X591713D01*
X591998Y215406D01*
X592739Y214122D01*
X593787Y213074D01*
X595071Y212333D01*
X596503Y211949D01*
X597985D01*
X599417Y212333D01*
X600701Y213074D01*
X601749Y214122D01*
X602490Y215406D01*
X602874Y216838D01*
Y218320D01*
X602490Y219752D01*
X601749Y221036D01*
X600701Y222084D01*
X599417Y222825D01*
X597985Y223209D01*
X596503D01*
X595071Y222825D01*
X593787Y222084D01*
X592739Y221036D01*
X591998Y219752D01*
X591713Y218691D01*
X589389D01*
X589104Y219752D01*
X588363Y221036D01*
X587315Y222084D01*
X586031Y222825D01*
X584599Y223209D01*
X583482D01*
X567420Y239270D01*
X567059Y239511D01*
X566634Y239596D01*
X566536Y241043D01*
X561024D01*
Y239458D01*
X554350D01*
X554203Y240006D01*
X553637Y240986D01*
X552837Y241787D01*
X551856Y242353D01*
X550763Y242646D01*
D02*
G37*
%LPD*%
G36*
X326792Y395604D02*
X327332Y395604D01*
X328126Y395447D01*
X328175Y395430D01*
X328878Y395020D01*
X329288Y394317D01*
X329306Y394267D01*
X329462Y393474D01*
X329462Y392917D01*
Y391104D01*
Y386629D01*
X329341Y386476D01*
X327560Y385449D01*
X326771D01*
X326041Y385147D01*
X325483Y384589D01*
X325181Y383859D01*
Y383070D01*
X325483Y382341D01*
X326041Y381782D01*
X326771Y381480D01*
X327560D01*
X329341Y380453D01*
X329462Y380300D01*
Y375404D01*
Y372204D01*
Y369104D01*
Y365904D01*
Y363391D01*
X329250D01*
Y361891D01*
X333150D01*
Y360891D01*
X329250D01*
Y359391D01*
X329462D01*
Y355396D01*
X329317Y355299D01*
X328255Y354237D01*
X328035Y353908D01*
X327958Y353521D01*
Y346808D01*
X325990Y346108D01*
X325927Y346170D01*
X325198Y346472D01*
X324409D01*
X323679Y346170D01*
X322835Y345754D01*
X321990Y346170D01*
X321261Y346472D01*
X320472D01*
X319742Y346170D01*
X319184Y345612D01*
X318908Y344946D01*
X318693Y344805D01*
X316922Y344072D01*
X316038Y344494D01*
X315872Y344947D01*
X315888Y345027D01*
Y347442D01*
X315818Y347790D01*
X315621Y348086D01*
X314557Y349150D01*
X314583Y349212D01*
Y350001D01*
X314281Y350730D01*
X313722Y351289D01*
X312993Y351590D01*
X312204D01*
X311474Y351289D01*
X310916Y350730D01*
X310614Y350001D01*
Y349212D01*
X310916Y348482D01*
X309912Y346703D01*
X309775Y346623D01*
X308646Y346316D01*
X308269Y346472D01*
X307479D01*
X306750Y346170D01*
X306192Y345612D01*
X305890Y344883D01*
Y344093D01*
X304221Y342979D01*
X298929D01*
X297260Y344093D01*
Y344883D01*
X296958Y345612D01*
X296400Y346170D01*
X295670Y346472D01*
X294881D01*
X294152Y346170D01*
X293593Y345612D01*
X293291Y344883D01*
Y344093D01*
X291622Y342979D01*
X279508D01*
X278967Y342979D01*
X278173Y343135D01*
X278124Y343153D01*
X277421Y343563D01*
X277011Y344266D01*
X276993Y344315D01*
X276892Y344830D01*
X277050Y346791D01*
X277050D01*
Y348291D01*
X273150D01*
Y349291D01*
X277050D01*
Y350791D01*
X277050D01*
X277561Y352548D01*
X277952Y353134D01*
X278741D01*
X279470Y353436D01*
X280029Y353994D01*
X280331Y354723D01*
Y355513D01*
X280029Y356242D01*
X279578Y356693D01*
X280029Y357144D01*
X280331Y357873D01*
Y358662D01*
X280029Y359392D01*
X279470Y359950D01*
X278741Y360252D01*
X277952D01*
X276837Y361921D01*
Y365904D01*
Y369104D01*
Y372204D01*
Y375404D01*
Y378291D01*
X277050D01*
Y379791D01*
X273150D01*
Y380791D01*
X277050D01*
Y382291D01*
X276837D01*
Y384804D01*
Y388004D01*
Y391104D01*
X276837Y392917D01*
X276837Y393474D01*
X276993Y394267D01*
X277011Y394317D01*
X277421Y395020D01*
X278124Y395430D01*
X278173Y395447D01*
X278967Y395604D01*
X279508Y395604D01*
X326792D01*
D02*
G37*
%LPC*%
G36*
X566732Y217224D02*
X564764D01*
Y215453D01*
X566732D01*
Y217224D01*
D02*
G37*
G36*
X562795D02*
X560827D01*
Y215453D01*
X562795D01*
Y217224D01*
D02*
G37*
%LPD*%
D10*
X333870Y339527D02*
X334860D01*
X334252Y338919D02*
X334860Y339527D01*
X334252Y335827D02*
Y338919D01*
X334860Y339527D02*
X335270D01*
X330983Y342148D02*
X331249D01*
X328970Y344161D02*
X330983Y342148D01*
X328970Y344161D02*
Y353521D01*
X330032Y354583D01*
X332642D01*
X333150Y355091D01*
X331249Y342148D02*
X333870Y339527D01*
X426378Y418110D02*
X431102D01*
X426378Y393307D02*
X431102D01*
X426378Y417913D02*
Y418110D01*
Y417913D02*
X429429Y414862D01*
Y408525D02*
Y414862D01*
X427802Y406898D02*
X429429Y408525D01*
X426378Y393307D02*
Y393504D01*
X416434Y404913D02*
X427408D01*
X426378Y393504D02*
X429429Y396555D01*
Y402892D01*
X427408Y404913D02*
X429429Y402892D01*
X416434Y406898D02*
X427802D01*
X412450Y408405D02*
X415250D01*
X415857Y404337D02*
X416434Y404913D01*
X415250Y403406D02*
X415857Y404013D01*
X412450Y403406D02*
X415250D01*
X415857Y407474D02*
X416434Y406898D01*
X415857Y407474D02*
Y407798D01*
X415250Y408405D02*
X415857Y407798D01*
Y404013D02*
Y404337D01*
X333150Y389791D02*
X333658Y390299D01*
X339620Y390665D02*
X341067Y389218D01*
X333658Y390299D02*
X337191D01*
X337557Y390665D02*
X339620D01*
X337191Y390299D02*
X337557Y390665D01*
X338321Y388189D02*
X338583D01*
X337223Y387091D02*
X338321Y388189D01*
X333150Y386591D02*
X333650Y387091D01*
X337223D01*
X408150Y385039D02*
Y386516D01*
X406693Y387972D02*
Y392520D01*
Y387972D02*
X408150Y386516D01*
X409650Y413406D02*
X412450D01*
X403150Y385039D02*
Y406906D01*
X409650Y413406D01*
X420079Y393307D02*
Y393504D01*
X415857Y397725D02*
X420079Y393504D01*
X415857Y397725D02*
Y397798D01*
X415250Y398406D02*
X415857Y397798D01*
X412450Y398406D02*
X415250D01*
X420079Y400394D02*
X426378D01*
X420965Y411024D02*
X426378D01*
X420079Y411909D02*
X420965Y411024D01*
X480315Y292520D02*
Y297244D01*
Y292520D02*
X480315Y292520D01*
X273163Y355105D02*
X278333D01*
X273150Y355091D02*
X273163Y355105D01*
X278333D02*
X278346Y355118D01*
X273150Y358291D02*
X273161Y358279D01*
X278335D01*
X278346Y358268D01*
X262992Y372835D02*
X263259D01*
X268963Y374039D02*
X269011Y373991D01*
X264463Y374039D02*
X268963D01*
X269011Y373991D02*
X273150D01*
X263259Y372835D02*
X264463Y374039D01*
X264018Y370358D02*
X266215Y372555D01*
X268349D01*
X269504Y371399D02*
X272642D01*
X273150Y370891D01*
X268349Y372555D02*
X269504Y371399D01*
X261404Y370358D02*
X264018D01*
X260503Y371260D02*
X261404Y370358D01*
X259449Y374410D02*
X259715D01*
X261295Y375990D02*
X268449D01*
X259715Y374410D02*
X261295Y375990D01*
X260236Y371260D02*
X260503D01*
X268449Y375990D02*
X269143Y376683D01*
X272642D01*
X366240Y361713D02*
X369685Y358268D01*
X357480Y361713D02*
X366240D01*
X366240Y370571D02*
X369685Y374016D01*
X357480Y370571D02*
X366240D01*
X333150Y367691D02*
X333912Y366929D01*
X353839D02*
X357480Y370571D01*
X333912Y366929D02*
X353839D01*
X353642Y365354D02*
X357283Y361713D01*
X333150Y364591D02*
X333913Y365354D01*
X353642D01*
X357283Y361713D02*
X357480D01*
X272642Y376683D02*
X273150Y377191D01*
D13*
X385827Y398425D02*
X385837Y398415D01*
X393840D02*
X393850Y398406D01*
X385837Y398415D02*
X393840D01*
X393840Y413396D02*
X393850Y413406D01*
X385837Y413396D02*
X393840D01*
X385827Y413386D02*
X385837Y413396D01*
D16*
X501968Y353543D02*
X537402D01*
X486713Y343701D02*
X499114D01*
X501575Y341240D01*
X501870D02*
X509449D01*
X501575D02*
X501870D01*
X501575Y330709D02*
Y340945D01*
X501870Y341240D01*
X486614Y343799D02*
X486713Y343701D01*
X248031Y407480D02*
Y412008D01*
X248031Y412008D02*
X248031Y412008D01*
X324803Y344169D02*
X326143Y342828D01*
X324803Y344169D02*
Y344488D01*
X326143Y339898D02*
X326750Y339291D01*
X326143Y339898D02*
Y342828D01*
X320450Y343752D02*
X320866Y344169D01*
X320450Y339291D02*
Y343752D01*
X320866Y344169D02*
Y344488D01*
X295263Y344475D02*
X295276Y344488D01*
X295250Y339291D02*
X295263Y339304D01*
Y344475D01*
X307850Y339291D02*
X307862Y339303D01*
Y344476D01*
X307874Y344488D01*
X501575Y353150D02*
X501968Y353543D01*
X501575Y353150D02*
X501575Y353150D01*
X327165Y383465D02*
X327179Y383478D01*
X333136D02*
X333150Y383491D01*
X327179Y383478D02*
X333136D01*
X526378Y343701D02*
X537126D01*
X537402Y343425D01*
X519193Y343799D02*
X519291Y343701D01*
X509449Y343799D02*
X519193D01*
X501575Y348819D02*
Y353150D01*
Y348819D02*
X504035Y346358D01*
X509449D01*
X491831Y341240D02*
X494488Y338583D01*
X486614Y341240D02*
X491831D01*
X494488Y330709D02*
Y338583D01*
X485827Y330709D02*
X494488D01*
X501575D02*
X509941D01*
X298450Y339291D02*
X299056Y338685D01*
Y335983D02*
X307480Y327559D01*
X310236D01*
X299056Y335983D02*
Y338685D01*
X306006Y331102D02*
X314567D01*
X301550Y335559D02*
Y339291D01*
Y335559D02*
X306006Y331102D01*
X304750Y334620D02*
X306980Y332390D01*
X321153D01*
X314567Y331102D02*
X318110Y327559D01*
X321153Y332390D02*
X325984Y327559D01*
X304750Y334620D02*
Y339291D01*
X299777Y327559D02*
X302362D01*
X292126Y339268D02*
X292150Y339291D01*
X292126Y335210D02*
Y339268D01*
Y335210D02*
X299777Y327559D01*
X288950Y333098D02*
X294488Y327559D01*
X288950Y333098D02*
Y339291D01*
X285850Y328643D02*
Y339291D01*
Y328643D02*
X286614Y327879D01*
Y327559D02*
Y327879D01*
X282650Y331469D02*
Y339291D01*
X278740Y327559D02*
X282650Y331469D01*
X312812Y349606D02*
X314976Y347442D01*
X312598Y349606D02*
X312812D01*
X314161Y344212D02*
X314976Y345027D01*
Y347442D01*
X311037Y339304D02*
Y344895D01*
X312598Y346457D01*
X314161Y339303D02*
Y344212D01*
X314150Y339291D02*
X314161Y339303D01*
X311037Y339304D02*
X311050Y339291D01*
X205906Y285827D02*
X205906Y285827D01*
X216142D01*
X205906Y292126D02*
X216142D01*
X205906Y298425D02*
X205906Y298425D01*
X216142D01*
X223228Y285827D02*
X228346D01*
X223228Y285827D02*
X223228Y285827D01*
X223228Y292126D02*
X228346D01*
X223228Y292126D02*
X223228Y292126D01*
X247047Y411024D02*
X248031Y412008D01*
X240158Y411024D02*
X247047D01*
X240158D02*
Y418898D01*
X305118Y438189D02*
X314150Y429157D01*
Y399291D02*
Y429157D01*
X299213Y438189D02*
X305118D01*
X302165Y435728D02*
X305610D01*
X311050Y430289D01*
Y399291D02*
Y430289D01*
X298228Y437205D02*
X299213Y438189D01*
X298228Y434872D02*
Y437205D01*
Y434872D02*
X299439Y433661D01*
X322971Y432981D02*
X325205D01*
X317350Y399291D02*
Y427359D01*
X322971Y432981D01*
X325205D02*
X325394Y433169D01*
X322971Y430422D02*
X325205D01*
X320450Y399291D02*
Y427900D01*
X322971Y430422D01*
X325205D02*
X325394Y430610D01*
X300029Y433169D02*
X302165D01*
X299537Y433661D02*
X300029Y433169D01*
X299439Y433661D02*
X299537D01*
X323736Y399378D02*
Y403372D01*
X325394Y405030D02*
Y407579D01*
X323736Y403372D02*
X325394Y405030D01*
X323650Y399291D02*
X323736Y399378D01*
X267323Y370079D02*
X269104Y368298D01*
X272543D02*
X273150Y367691D01*
X269104Y368298D02*
X272543D01*
X297293Y415305D02*
X302116D01*
Y410187D02*
X302165Y410138D01*
X330266Y410187D02*
X330315Y410236D01*
X297244Y420472D02*
X297293Y420423D01*
X332234Y412648D02*
X332283Y412598D01*
X325443Y415305D02*
X330266D01*
Y420423D02*
X330315Y420472D01*
X330266Y425541D02*
X330315Y425591D01*
X325394Y422933D02*
X325443Y422884D01*
X332234D02*
X332283Y422835D01*
X325443Y422884D02*
X332234D01*
X325394Y412697D02*
X325443Y412648D01*
X332234D01*
X302116Y417766D02*
X302165Y417815D01*
X295276Y417717D02*
X295325Y417766D01*
X302116D01*
X325394Y410138D02*
X325443Y410187D01*
X330266D01*
X325394Y415256D02*
X325443Y415305D01*
X330266D02*
X330315Y415354D01*
X332234Y417766D02*
X332283Y417717D01*
X325394Y417815D02*
X325443Y417766D01*
X332234D01*
X325394Y420374D02*
X325443Y420423D01*
X330266D01*
X325394Y425492D02*
X325443Y425541D01*
X330266D01*
X325394Y428051D02*
X325443Y428002D01*
X332234D02*
X332283Y427953D01*
X325443Y428002D02*
X332234D01*
X297244Y410236D02*
X297293Y410187D01*
X302116D01*
Y412648D02*
X302165Y412697D01*
X295276Y412598D02*
X295325Y412648D01*
X302116D01*
Y415305D02*
X302165Y415256D01*
X297244Y415354D02*
X297293Y415305D01*
X302116Y420423D02*
X302165Y420374D01*
X297293Y420423D02*
X302116D01*
X295276Y422835D02*
X295325Y422884D01*
X302116D02*
X302165Y422933D01*
X295325Y422884D02*
X302116D01*
X654692Y208170D02*
X656332D01*
X655512D01*
Y213090D01*
X654692Y212270D01*
D22*
X462087Y224409D02*
D03*
X245000D02*
D03*
X462087Y275590D02*
D03*
X245000D02*
D03*
D23*
X266142Y348721D02*
D03*
Y343406D02*
D03*
Y356004D02*
D03*
Y361319D02*
D03*
X289370Y412894D02*
D03*
Y407579D02*
D03*
X526378Y343701D02*
D03*
X519291D02*
D03*
X477953Y343996D02*
D03*
Y338681D02*
D03*
X501575Y353150D02*
D03*
X494488D02*
D03*
X478740Y330709D02*
D03*
X485827D02*
D03*
X494488D02*
D03*
X501575D02*
D03*
X385433Y408563D02*
D03*
Y403248D02*
D03*
X379134Y408563D02*
D03*
Y403248D02*
D03*
X420079Y411909D02*
D03*
Y417224D02*
D03*
X406693Y392520D02*
D03*
X399606D02*
D03*
X247244Y337894D02*
D03*
Y343209D02*
D03*
X259842Y343406D02*
D03*
Y348721D02*
D03*
X216142Y292126D02*
D03*
X223228D02*
D03*
X216142Y285827D02*
D03*
X223228D02*
D03*
Y298425D02*
D03*
X216142D02*
D03*
X346457Y360925D02*
D03*
Y355610D02*
D03*
X340158Y360925D02*
D03*
Y355610D02*
D03*
X266142Y379232D02*
D03*
Y384547D02*
D03*
X259842Y379232D02*
D03*
Y384547D02*
D03*
X357480Y375886D02*
D03*
Y370571D02*
D03*
Y356398D02*
D03*
Y361713D02*
D03*
X194882Y415945D02*
D03*
Y421260D02*
D03*
Y406201D02*
D03*
Y400886D02*
D03*
X563780Y233169D02*
D03*
Y238484D02*
D03*
X563780Y223524D02*
D03*
Y218209D02*
D03*
D34*
X259842Y355118D02*
D03*
Y362205D02*
D03*
X240158Y425984D02*
D03*
Y418898D02*
D03*
Y411024D02*
D03*
Y403937D02*
D03*
X515256Y330709D02*
D03*
X509941D02*
D03*
X426378Y418110D02*
D03*
Y411024D02*
D03*
X420079Y400394D02*
D03*
Y393307D02*
D03*
X426378Y400394D02*
D03*
Y393307D02*
D03*
X335925Y325984D02*
D03*
X341240D02*
D03*
X480315Y285433D02*
D03*
Y292520D02*
D03*
D35*
X257500Y245315D02*
D03*
X449587Y254685D02*
D03*
D36*
X625984Y457874D02*
D03*
Y290158D02*
D03*
D40*
X219409Y326457D02*
D03*
X229410Y336457D02*
D03*
X219409D02*
D03*
X229410Y346457D02*
D03*
X219409D02*
D03*
X229410Y356457D02*
D03*
X219409D02*
D03*
X229410Y366457D02*
D03*
X219409D02*
D03*
D46*
X253543Y337697D02*
D03*
Y343406D02*
D03*
D47*
X248031Y402953D02*
D03*
Y412008D02*
D03*
D48*
X537402Y343425D02*
D03*
Y353425D02*
D03*
Y348425D02*
D03*
D49*
X509449Y338681D02*
D03*
Y341240D02*
D03*
Y343799D02*
D03*
Y346358D02*
D03*
X486614Y338681D02*
D03*
Y341240D02*
D03*
Y343799D02*
D03*
Y346358D02*
D03*
D50*
X393850Y413406D02*
D03*
Y408405D02*
D03*
Y403406D02*
D03*
Y398406D02*
D03*
X412450D02*
D03*
Y403406D02*
D03*
Y408405D02*
D03*
Y413406D02*
D03*
D51*
X408150Y385039D02*
D03*
X398150D02*
D03*
X403150D02*
D03*
D52*
X199606Y285827D02*
D03*
X205906D02*
D03*
X199606Y292126D02*
D03*
X205906D02*
D03*
X199606Y298425D02*
D03*
X205906D02*
D03*
D53*
X343470Y335827D02*
D03*
X335270Y332127D02*
D03*
Y339527D02*
D03*
D54*
X279550Y339291D02*
D03*
X282650D02*
D03*
X285850D02*
D03*
X288950D02*
D03*
X292150D02*
D03*
X295250D02*
D03*
X298450D02*
D03*
X301550D02*
D03*
X304750D02*
D03*
X307850D02*
D03*
X311050D02*
D03*
X314150D02*
D03*
X317350D02*
D03*
X320450D02*
D03*
X323650D02*
D03*
X326750D02*
D03*
Y399291D02*
D03*
X323650D02*
D03*
X320450D02*
D03*
X317350D02*
D03*
X314150D02*
D03*
X311050D02*
D03*
X307850D02*
D03*
X304750D02*
D03*
X301550D02*
D03*
X298450D02*
D03*
X295250D02*
D03*
X292150D02*
D03*
X288950D02*
D03*
X285850D02*
D03*
X282650D02*
D03*
X279550D02*
D03*
D55*
X333150Y345691D02*
D03*
Y348791D02*
D03*
Y351991D02*
D03*
Y355091D02*
D03*
Y358291D02*
D03*
Y361391D02*
D03*
Y364591D02*
D03*
Y367691D02*
D03*
Y370891D02*
D03*
Y373991D02*
D03*
Y377191D02*
D03*
Y380291D02*
D03*
Y383491D02*
D03*
Y386591D02*
D03*
Y389791D02*
D03*
Y392891D02*
D03*
X273150D02*
D03*
Y389791D02*
D03*
Y386591D02*
D03*
Y383491D02*
D03*
Y380291D02*
D03*
Y377191D02*
D03*
Y373991D02*
D03*
Y370891D02*
D03*
Y367691D02*
D03*
Y364591D02*
D03*
Y361391D02*
D03*
Y358291D02*
D03*
Y355091D02*
D03*
Y351991D02*
D03*
Y348791D02*
D03*
Y345691D02*
D03*
D56*
X369685Y374016D02*
D03*
Y358268D02*
D03*
D57*
X302165Y435728D02*
D03*
Y433169D02*
D03*
Y430610D02*
D03*
Y428051D02*
D03*
Y425492D02*
D03*
Y422933D02*
D03*
Y420374D02*
D03*
Y417815D02*
D03*
Y415256D02*
D03*
Y412697D02*
D03*
Y410138D02*
D03*
Y407579D02*
D03*
X325394Y435728D02*
D03*
Y433169D02*
D03*
Y430610D02*
D03*
Y428051D02*
D03*
Y425492D02*
D03*
Y422933D02*
D03*
Y420374D02*
D03*
Y417815D02*
D03*
Y415256D02*
D03*
Y412697D02*
D03*
Y410138D02*
D03*
Y407579D02*
D03*
D58*
X479724Y224410D02*
D03*
X488779D02*
D03*
D59*
X273079Y348721D02*
X273150Y348791D01*
X266142Y348721D02*
X273079D01*
X259842D02*
X266142D01*
Y355906D02*
Y356004D01*
Y355906D02*
X268478Y353569D01*
Y353358D02*
Y353569D01*
Y353358D02*
X269516Y352320D01*
X272821D01*
X273150Y351991D01*
X265256Y355118D02*
X266142Y356004D01*
X259842Y355118D02*
X265256D01*
X253543Y355906D02*
X259842Y362205D01*
X253543Y343406D02*
Y355906D01*
X270864Y343406D02*
X273150Y345691D01*
X266142Y343406D02*
X270864D01*
X259842D02*
X266142D01*
X259842Y343406D02*
X259842Y343406D01*
X253543Y343406D02*
X259842D01*
X253346Y337894D02*
X253543Y337697D01*
X247244Y337894D02*
X253346D01*
X247244Y335433D02*
Y337894D01*
X242126Y330315D02*
X247244Y335433D01*
X335925Y325787D02*
Y325984D01*
X332283Y320079D02*
X332660Y320455D01*
Y322522D01*
X335925Y325787D01*
X223228Y298425D02*
Y304724D01*
X379134Y396850D02*
Y403248D01*
X253543Y384252D02*
X253691Y384400D01*
X259695D02*
X259842Y384547D01*
X253691Y384400D02*
X259695D01*
X379134Y403248D02*
X379134Y403248D01*
X357480Y348425D02*
Y356398D01*
X352264Y375886D02*
X357480D01*
X195148Y401152D02*
X207411D01*
X207677Y401417D01*
X194882Y400886D02*
X195148Y401152D01*
X266339Y384547D02*
X267394Y383491D01*
X273150D01*
X266142Y384547D02*
X266339D01*
X259842D02*
X266142D01*
X333165Y358276D02*
X336561D01*
X339961Y355610D02*
X340158D01*
X333150Y358291D02*
X333165Y358276D01*
X336561D02*
X337455Y357382D01*
X338189D01*
X339961Y355610D01*
X340158D02*
X346457D01*
X346555Y355512D02*
X351969D01*
X346457Y355610D02*
X346555Y355512D01*
X335482Y332127D02*
X335598Y332011D01*
Y326312D02*
X335925Y325984D01*
X335270Y332127D02*
X335482D01*
X335598Y326312D02*
Y332011D01*
X199606Y285827D02*
Y292126D01*
Y298425D01*
X385512Y408484D02*
X393771D01*
X385433Y408563D02*
X385512Y408484D01*
X393771D02*
X393850Y408405D01*
X379134Y408563D02*
X385433D01*
Y403248D02*
X385512Y403327D01*
X393771D02*
X393850Y403406D01*
X385512Y403327D02*
X393771D01*
X379134Y403248D02*
X385433D01*
X266142Y379232D02*
X266929Y380020D01*
X340158Y360925D02*
X346457D01*
X339707Y361376D02*
X340158Y360925D01*
X333165Y361376D02*
X339707D01*
X333150Y361391D02*
X333165Y361376D01*
X259842Y379232D02*
X266142D01*
X266929Y380020D02*
X268007D01*
X268279Y380291D02*
X273150D01*
X268007Y380020D02*
X268279Y380291D01*
X207677Y421417D02*
X212244Y425984D01*
X240158D01*
X195039Y421417D02*
X207677D01*
X194882Y421260D02*
X195039Y421417D01*
X550197Y218347D02*
X550335Y218209D01*
X563780D01*
D60*
X480315Y281496D02*
Y285433D01*
X491201Y270610D02*
X500787D01*
X480315Y281496D02*
X491201Y270610D01*
X500787D02*
X514173D01*
X477953Y338681D02*
X477953Y338681D01*
X486319D01*
X486319Y338681D01*
X478346Y331102D02*
X478740Y330709D01*
X478346Y331102D02*
Y338287D01*
X477953Y338681D02*
X478346Y338287D01*
X472441Y330709D02*
X478740D01*
X289370Y407579D02*
X302165D01*
X283465Y407480D02*
X289272D01*
X289370Y407579D01*
X462087Y275590D02*
X464587D01*
X479724Y224410D02*
Y260453D01*
X464587Y275590D02*
X479724Y260453D01*
X245000Y224409D02*
Y275591D01*
X597244Y270610D02*
X617717Y291083D01*
Y320037D01*
X627915Y330236D01*
X641612D01*
X647640Y340118D02*
X651494D01*
X654449Y343073D01*
Y389449D01*
X641612Y330236D02*
X644685Y333309D01*
X649606Y394291D02*
X654449Y389449D01*
X644685Y333309D02*
Y337163D01*
X647640Y340118D01*
X583858Y270610D02*
X597244D01*
X566634Y238484D02*
X583858Y221260D01*
X563780Y238484D02*
X566634D01*
X583858Y217579D02*
Y221260D01*
Y217579D02*
X597244D01*
X500787D02*
X514173D01*
X493957Y224410D02*
X500787Y217579D01*
X488779Y224410D02*
X493957D01*
X563642Y238347D02*
X563780Y238484D01*
X550197Y238347D02*
X563642D01*
X624016Y353543D02*
Y357480D01*
Y353543D02*
X627559Y350000D01*
X634842D01*
X612205Y369291D02*
X624016Y357480D01*
X550394Y369291D02*
X612205D01*
X507980Y411705D02*
X550394Y369291D01*
X489685Y411705D02*
X507980D01*
X551181Y371260D02*
X613583D01*
X490382Y413386D02*
X509055D01*
X551181Y371260D01*
X482677Y455512D02*
X548740Y389449D01*
X395276Y455512D02*
X482677D01*
X378740Y472047D02*
X395276Y455512D01*
X548740Y389449D02*
X634921D01*
X488583Y466535D02*
X495169Y459949D01*
Y459934D02*
Y459949D01*
X546000Y409118D02*
X634780D01*
X471894Y466535D02*
X488583D01*
X495169Y459934D02*
X545985Y409118D01*
X546000D01*
X467323Y471106D02*
X471894Y466535D01*
X478756Y430693D02*
X483634Y425815D01*
Y417756D02*
Y425815D01*
X352367Y430693D02*
X478756D01*
X485315Y418453D02*
Y426890D01*
X353064Y432374D02*
X479831D01*
X485315Y426890D01*
X483634Y417756D02*
X489685Y411705D01*
X485315Y418453D02*
X490382Y413386D01*
X634842Y350000D02*
X639764Y354921D01*
X613583Y371260D02*
X629921Y354921D01*
X270079Y464567D02*
X318493D01*
X260630Y474016D02*
Y481358D01*
Y474016D02*
X270079Y464567D01*
X318493D02*
X352367Y430693D01*
X290158Y474803D02*
Y481358D01*
X298319Y466642D02*
X318796D01*
X290158Y474803D02*
X298319Y466642D01*
X318796D02*
X353064Y432374D01*
X467323Y471106D02*
Y481358D01*
X378740Y472047D02*
Y481358D01*
X634921Y389449D02*
X639764Y394291D01*
X496850Y460630D02*
X546681Y410799D01*
X642941D01*
X496850Y460630D02*
Y481358D01*
X526378Y434252D02*
X548150Y412480D01*
X526378Y434252D02*
Y481358D01*
X548150Y412480D02*
X651102D01*
X634780Y409118D02*
X639764Y404134D01*
X642941Y410799D02*
X649606Y404134D01*
X651102Y412480D02*
X659449Y404134D01*
D61*
X604724Y364567D02*
X624213Y345079D01*
X548032Y364567D02*
X604724D01*
X624213Y345079D02*
X629921D01*
X506299Y406299D02*
X548032Y364567D01*
X474409Y406299D02*
X506299D01*
X639764Y345079D02*
X649606D01*
X629921D02*
X639764D01*
X454331Y426378D02*
X474409Y406299D01*
X317323Y459055D02*
X350000Y426378D01*
X454331D01*
X238583Y459055D02*
X317323D01*
X231102Y466536D02*
X238583Y459055D01*
X231102Y466536D02*
Y481358D01*
D62*
X491732Y435433D02*
X552559Y374606D01*
X629921D01*
X354331Y435433D02*
X491732D01*
X549409Y384449D02*
X629921D01*
X377953Y440551D02*
X493307D01*
X549409Y384449D01*
X418898Y458661D02*
X484646D01*
X549016Y394291D01*
X408268Y469291D02*
X418898Y458661D01*
X549016Y394291D02*
X629921D01*
X486614Y463386D02*
X545866Y404134D01*
X629921D01*
X445276Y463386D02*
X486614D01*
X437795Y470866D02*
X445276Y463386D01*
X437795Y470866D02*
Y481358D01*
X319685Y470079D02*
Y481358D01*
Y470079D02*
X354331Y435433D01*
X349213Y469291D02*
X377953Y440551D01*
X349213Y469291D02*
Y481358D01*
X408268Y469291D02*
Y481358D01*
D63*
X597244Y270610D02*
D03*
X583858D02*
D03*
X597244Y217579D02*
D03*
X583858D02*
D03*
X572047Y481358D02*
D03*
X585433D02*
D03*
X572047Y534390D02*
D03*
X585433D02*
D03*
X201575Y534390D02*
D03*
X188189D02*
D03*
X201575Y481358D02*
D03*
X188189D02*
D03*
X231102Y534390D02*
D03*
X217717D02*
D03*
X231102Y481358D02*
D03*
X217717D02*
D03*
X260630Y534390D02*
D03*
X247244D02*
D03*
X260630Y481358D02*
D03*
X247244D02*
D03*
X290158Y534390D02*
D03*
X276772D02*
D03*
X290158Y481358D02*
D03*
X276772D02*
D03*
X319685Y534390D02*
D03*
X306299D02*
D03*
X319685Y481358D02*
D03*
X306299D02*
D03*
X378740Y534390D02*
D03*
X365354D02*
D03*
X378740Y481358D02*
D03*
X365354D02*
D03*
X349213Y534390D02*
D03*
X335827D02*
D03*
X349213Y481358D02*
D03*
X335827D02*
D03*
X408268Y534390D02*
D03*
X394882D02*
D03*
X408268Y481358D02*
D03*
X394882D02*
D03*
X467323Y534390D02*
D03*
X453937D02*
D03*
X467323Y481358D02*
D03*
X453937D02*
D03*
X496850Y534390D02*
D03*
X483465D02*
D03*
X496850Y481358D02*
D03*
X483465D02*
D03*
X526378Y534390D02*
D03*
X512992D02*
D03*
X526378Y481358D02*
D03*
X512992D02*
D03*
X437795Y534390D02*
D03*
X424409D02*
D03*
X437795Y481358D02*
D03*
X424409D02*
D03*
X555905Y534390D02*
D03*
X542520D02*
D03*
X555905Y481358D02*
D03*
X542520D02*
D03*
X500787Y217579D02*
D03*
X514173D02*
D03*
X500787Y270610D02*
D03*
X514173D02*
D03*
D64*
X460728Y448425D02*
D03*
X475492D02*
D03*
X539468D02*
D03*
X559154D02*
D03*
X476378Y420866D02*
D03*
X491142D02*
D03*
X555118D02*
D03*
X574803D02*
D03*
D65*
X229410Y326457D02*
D03*
D66*
X659449Y325394D02*
D03*
Y364764D02*
D03*
Y417717D02*
D03*
Y315551D02*
D03*
Y335236D02*
D03*
Y345079D02*
D03*
Y354921D02*
D03*
Y374606D02*
D03*
Y384449D02*
D03*
Y394291D02*
D03*
Y404134D02*
D03*
Y432480D02*
D03*
X649606Y325394D02*
D03*
Y364764D02*
D03*
Y417717D02*
D03*
Y315551D02*
D03*
Y335236D02*
D03*
Y345079D02*
D03*
Y354921D02*
D03*
Y374606D02*
D03*
Y384449D02*
D03*
Y394291D02*
D03*
Y404134D02*
D03*
Y432480D02*
D03*
X639764Y325394D02*
D03*
Y364764D02*
D03*
Y417717D02*
D03*
Y315551D02*
D03*
Y335236D02*
D03*
Y345079D02*
D03*
Y354921D02*
D03*
Y374606D02*
D03*
Y384449D02*
D03*
Y394291D02*
D03*
Y404134D02*
D03*
Y432480D02*
D03*
X629921Y325394D02*
D03*
Y364764D02*
D03*
Y417717D02*
D03*
Y315551D02*
D03*
Y335236D02*
D03*
Y345079D02*
D03*
Y354921D02*
D03*
Y374606D02*
D03*
Y384449D02*
D03*
Y394291D02*
D03*
Y404134D02*
D03*
Y432480D02*
D03*
D67*
X641142Y474016D02*
D03*
X642126Y275000D02*
D03*
D68*
X550197Y238347D02*
D03*
Y228346D02*
D03*
Y218347D02*
D03*
X207677Y401417D02*
D03*
Y411417D02*
D03*
Y421417D02*
D03*
D69*
X338583Y425197D02*
D03*
X283465Y354331D02*
D03*
X242126Y330315D02*
D03*
X426772Y335827D02*
D03*
Y367323D02*
D03*
X395276Y335827D02*
D03*
X285039Y383071D02*
D03*
X300787D02*
D03*
Y367323D02*
D03*
X316535D02*
D03*
X206299Y351575D02*
D03*
X222047Y414567D02*
D03*
X267717Y283465D02*
D03*
X363779Y414567D02*
D03*
X442520D02*
D03*
X458268Y398819D02*
D03*
X442520Y367323D02*
D03*
X489764Y257087D02*
D03*
X537008Y225590D02*
D03*
X285039Y241339D02*
D03*
Y209842D02*
D03*
X535433Y283465D02*
D03*
X411024Y209842D02*
D03*
Y241339D02*
D03*
X379528Y209842D02*
D03*
Y241339D02*
D03*
X348031Y209842D02*
D03*
Y241339D02*
D03*
X316535D02*
D03*
Y209842D02*
D03*
X440945Y314961D02*
D03*
X393701D02*
D03*
X627559Y474803D02*
D03*
X659055D02*
D03*
Y443307D02*
D03*
Y459055D02*
D03*
X643307D02*
D03*
Y443307D02*
D03*
X627559D02*
D03*
X611811D02*
D03*
Y459055D02*
D03*
Y474803D02*
D03*
X659055Y490551D02*
D03*
X643307D02*
D03*
X627559D02*
D03*
X611811D02*
D03*
X659055Y537795D02*
D03*
X643307D02*
D03*
X627559D02*
D03*
X611811D02*
D03*
X659055Y506299D02*
D03*
X643307D02*
D03*
X627559D02*
D03*
X659055Y522047D02*
D03*
X643307D02*
D03*
X627559D02*
D03*
X611811Y506299D02*
D03*
Y522047D02*
D03*
X596063Y506299D02*
D03*
Y522047D02*
D03*
X580315Y506299D02*
D03*
Y522047D02*
D03*
X564567Y506299D02*
D03*
Y522047D02*
D03*
X548819Y506299D02*
D03*
Y522047D02*
D03*
X533071Y506299D02*
D03*
Y522047D02*
D03*
X517323Y506299D02*
D03*
Y522047D02*
D03*
X501575Y506299D02*
D03*
Y522047D02*
D03*
X485827Y506299D02*
D03*
Y522047D02*
D03*
X470079Y506299D02*
D03*
Y522047D02*
D03*
X454331Y506299D02*
D03*
Y522047D02*
D03*
X438583Y506299D02*
D03*
Y522047D02*
D03*
X422835Y506299D02*
D03*
Y522047D02*
D03*
X407087Y506299D02*
D03*
Y522047D02*
D03*
X391339Y506299D02*
D03*
Y522047D02*
D03*
X375591Y506299D02*
D03*
Y522047D02*
D03*
X359842Y506299D02*
D03*
Y522047D02*
D03*
X344094Y506299D02*
D03*
Y522047D02*
D03*
X328346Y506299D02*
D03*
Y522047D02*
D03*
X312598Y506299D02*
D03*
Y522047D02*
D03*
X296850Y506299D02*
D03*
Y522047D02*
D03*
X281102Y506299D02*
D03*
Y522047D02*
D03*
X265354Y506299D02*
D03*
Y522047D02*
D03*
X249606Y506299D02*
D03*
Y522047D02*
D03*
X233858Y506299D02*
D03*
Y522047D02*
D03*
X218110Y506299D02*
D03*
Y522047D02*
D03*
X202362Y506299D02*
D03*
Y522047D02*
D03*
X186614Y506299D02*
D03*
Y522047D02*
D03*
X332283Y320079D02*
D03*
X545276Y339370D02*
D03*
X223228Y304724D02*
D03*
X379134Y396850D02*
D03*
X253543Y384252D02*
D03*
X351969Y355512D02*
D03*
X283465Y407480D02*
D03*
X472441Y330709D02*
D03*
D70*
X250787Y323228D02*
D03*
X572835Y320866D02*
D03*
Y312992D02*
D03*
Y316929D02*
D03*
X600394Y340551D02*
D03*
Y344488D02*
D03*
Y348425D02*
D03*
X320866Y344488D02*
D03*
X295276D02*
D03*
X324803D02*
D03*
X334252Y335827D02*
D03*
X426378Y400394D02*
D03*
Y411024D02*
D03*
X294488Y305118D02*
D03*
X286614D02*
D03*
X278740D02*
D03*
X325984D02*
D03*
X318110D02*
D03*
X310236D02*
D03*
X302362D02*
D03*
X307874Y344488D02*
D03*
X537402Y353543D02*
D03*
X327165Y383465D02*
D03*
X557087Y348425D02*
D03*
X537402D02*
D03*
X431102Y418110D02*
D03*
Y393307D02*
D03*
X385827Y398425D02*
D03*
Y413386D02*
D03*
X338583Y388189D02*
D03*
X341732D02*
D03*
X312598Y346457D02*
D03*
Y349606D02*
D03*
X228346Y285827D02*
D03*
Y292126D02*
D03*
X480315Y297244D02*
D03*
X278346Y355118D02*
D03*
X278346Y358268D02*
D03*
X248031Y407480D02*
D03*
X267323Y370079D02*
D03*
X260236Y371260D02*
D03*
X262992Y372835D02*
D03*
X259449Y374410D02*
D03*
X286614Y327559D02*
D03*
X302362D02*
D03*
X310236D02*
D03*
X325984D02*
D03*
X318110D02*
D03*
X294488D02*
D03*
X278740D02*
D03*
X215748Y441732D02*
D03*
X223622D02*
D03*
X231496D02*
D03*
X239370D02*
D03*
X247244D02*
D03*
X255118D02*
D03*
X262992D02*
D03*
X270866D02*
D03*
X278740D02*
D03*
X286614D02*
D03*
X294488D02*
D03*
X302362D02*
D03*
X310236D02*
D03*
X318110D02*
D03*
X295276Y422835D02*
D03*
X297244Y420472D02*
D03*
Y410236D02*
D03*
X295276Y412598D02*
D03*
X297244Y415354D02*
D03*
X295276Y417717D02*
D03*
X332283Y427953D02*
D03*
X330315Y425591D02*
D03*
X332283Y422835D02*
D03*
Y417717D02*
D03*
X330315Y420472D02*
D03*
Y415354D02*
D03*
X332283Y412598D02*
D03*
X330315Y410236D02*
D03*
M02*
