G04*
G04 #@! TF.GenerationSoftware,Altium Limited,Altium Designer,21.9.2 (33)*
G04*
G04 Layer_Physical_Order=3*
G04 Layer_Color=16776960*
%FSLAX25Y25*%
%MOIN*%
G70*
G04*
G04 #@! TF.SameCoordinates,3EA75405-4CE9-4461-8B4E-421F381EEA3C*
G04*
G04*
G04 #@! TF.FilePolarity,Positive*
G04*
G01*
G75*
%ADD11C,0.00984*%
%ADD12C,0.01000*%
%ADD31C,0.06299*%
%ADD43R,0.06299X0.06299*%
%ADD44C,0.06000*%
%ADD45C,0.08661*%
%ADD46C,0.07874*%
%ADD47C,0.05906*%
%ADD49C,0.02362*%
G36*
X576772Y452286D02*
X576375Y451982D01*
X575985Y452087D01*
X574606D01*
X573274Y451730D01*
X572080Y451040D01*
X571105Y450066D01*
X570416Y448872D01*
X570059Y447540D01*
Y446161D01*
X570416Y444829D01*
X571105Y443635D01*
X572080Y442660D01*
X573274Y441971D01*
X574606Y441614D01*
X575985D01*
X576375Y441719D01*
X576772Y441414D01*
Y439996D01*
X549213D01*
Y500260D01*
X551065D01*
X555320Y496005D01*
Y479390D01*
X555397Y479003D01*
X555616Y478675D01*
X555945Y478455D01*
X556332Y478378D01*
X556719Y478455D01*
X557047Y478675D01*
X557266Y479003D01*
X557343Y479390D01*
Y496424D01*
X557266Y496811D01*
X557047Y497140D01*
X553074Y501113D01*
X553265Y501575D01*
X576772D01*
Y452286D01*
D02*
G37*
G36*
X547244Y438976D02*
X633858D01*
Y413386D01*
X519685D01*
Y484392D01*
X520147Y484584D01*
X526056Y478675D01*
X526385Y478455D01*
X526772Y478378D01*
X527159Y478455D01*
X527487Y478675D01*
X527706Y479003D01*
X527783Y479390D01*
X527706Y479777D01*
X527487Y480105D01*
X519685Y487907D01*
Y500260D01*
X547244D01*
Y438976D01*
D02*
G37*
G36*
X643469Y482910D02*
X643082Y482593D01*
X642065Y482795D01*
X640219D01*
X638409Y482435D01*
X636703Y481729D01*
X635169Y480703D01*
X633863Y479398D01*
X632838Y477864D01*
X632132Y476158D01*
X631772Y474348D01*
Y472502D01*
X632132Y470692D01*
X632838Y468987D01*
X633863Y467452D01*
X635169Y466147D01*
X636703Y465122D01*
X638409Y464415D01*
X640219Y464055D01*
X642065D01*
X643082Y464257D01*
X643469Y463940D01*
Y425197D01*
X634878D01*
Y438976D01*
X634800Y439367D01*
X634579Y439697D01*
X634248Y439918D01*
X633858Y439996D01*
X578740D01*
Y442890D01*
X579485Y443635D01*
X580175Y444829D01*
X580532Y446161D01*
Y447540D01*
X580175Y448872D01*
X579485Y450066D01*
X578740Y450811D01*
Y501744D01*
X579896D01*
X584880Y496760D01*
Y479390D01*
X584957Y479003D01*
X585177Y478675D01*
X585505Y478455D01*
X585892Y478378D01*
X586279Y478455D01*
X586607Y478675D01*
X586826Y479003D01*
X586903Y479390D01*
Y497179D01*
X586826Y497566D01*
X586607Y497894D01*
X582046Y502456D01*
X582237Y502917D01*
X643469D01*
Y482910D01*
D02*
G37*
G36*
X518995Y485736D02*
X518964Y485113D01*
X518743Y484783D01*
X518665Y484392D01*
Y413386D01*
X503653D01*
X475831Y441208D01*
X476081Y441641D01*
X476181Y441614D01*
X477560D01*
X478891Y441971D01*
X480085Y442660D01*
X481060Y443635D01*
X481749Y444829D01*
X482106Y446161D01*
Y447540D01*
X481749Y448872D01*
X481060Y450066D01*
X480085Y451040D01*
X478891Y451730D01*
X477560Y452087D01*
X476181D01*
X474849Y451730D01*
X473655Y451040D01*
X472680Y450066D01*
X471991Y448872D01*
X471634Y447540D01*
Y446161D01*
X471661Y446061D01*
X471228Y445811D01*
X450867Y466172D01*
X451058Y466634D01*
X485402D01*
X485790Y466711D01*
X486118Y466930D01*
X493932Y474745D01*
X494974Y474144D01*
X496405Y473760D01*
X497888D01*
X499320Y474144D01*
X500603Y474885D01*
X501652Y475933D01*
X502393Y477217D01*
X502776Y478649D01*
Y480131D01*
X502393Y481563D01*
X501652Y482847D01*
X500603Y483895D01*
X499320Y484636D01*
X497888Y485020D01*
X496405D01*
X494974Y484636D01*
X493690Y483895D01*
X492641Y482847D01*
X491900Y481563D01*
X491517Y480131D01*
Y478649D01*
X491900Y477217D01*
X492502Y476175D01*
X484983Y468657D01*
X351504D01*
X351117Y468580D01*
X350789Y468361D01*
X336878Y454451D01*
X336654Y454543D01*
X335787D01*
X334985Y454211D01*
X334371Y453598D01*
X334039Y452796D01*
Y451928D01*
X334371Y451127D01*
X334985Y450513D01*
X335787Y450181D01*
X336654D01*
X337456Y450513D01*
X338070Y451127D01*
X338402Y451928D01*
Y452796D01*
X338309Y453020D01*
X351923Y466634D01*
X357070D01*
X357261Y466172D01*
X345540Y454451D01*
X345316Y454543D01*
X344448D01*
X343646Y454211D01*
X343033Y453598D01*
X342701Y452796D01*
Y451928D01*
X343033Y451127D01*
X343646Y450513D01*
X344448Y450181D01*
X345316D01*
X346117Y450513D01*
X346731Y451127D01*
X347063Y451928D01*
Y452796D01*
X346970Y453020D01*
X358994Y465044D01*
X364141D01*
X364332Y464582D01*
X354201Y454451D01*
X353977Y454543D01*
X353110D01*
X352308Y454211D01*
X351694Y453598D01*
X351362Y452796D01*
Y451928D01*
X351694Y451127D01*
X352308Y450513D01*
X353110Y450181D01*
X353977D01*
X354779Y450513D01*
X355392Y451127D01*
X355724Y451928D01*
Y452796D01*
X355632Y453020D01*
X366155Y463544D01*
X371302D01*
X371494Y463082D01*
X362862Y454451D01*
X362639Y454543D01*
X361771D01*
X360969Y454211D01*
X360356Y453598D01*
X360024Y452796D01*
Y451928D01*
X360356Y451127D01*
X360969Y450513D01*
X361771Y450181D01*
X362639D01*
X363440Y450513D01*
X364054Y451127D01*
X364386Y451928D01*
Y452796D01*
X364293Y453020D01*
X373317Y462044D01*
X378464D01*
X378655Y461582D01*
X371524Y454451D01*
X371300Y454543D01*
X370432D01*
X369631Y454211D01*
X369017Y453598D01*
X368685Y452796D01*
Y451928D01*
X369017Y451127D01*
X369631Y450513D01*
X370432Y450181D01*
X371300D01*
X372102Y450513D01*
X372715Y451127D01*
X373047Y451928D01*
Y452796D01*
X372955Y453020D01*
X380486Y460551D01*
X385633D01*
X385824Y460089D01*
X380185Y454451D01*
X379961Y454543D01*
X379094D01*
X378292Y454211D01*
X377678Y453598D01*
X377346Y452796D01*
Y451928D01*
X377678Y451127D01*
X378292Y450513D01*
X379094Y450181D01*
X379961D01*
X380763Y450513D01*
X381377Y451127D01*
X381709Y451928D01*
Y452796D01*
X381616Y453020D01*
X387663Y459067D01*
X392810D01*
X393002Y458605D01*
X388847Y454451D01*
X388623Y454543D01*
X387755D01*
X386953Y454211D01*
X386340Y453598D01*
X386008Y452796D01*
Y451928D01*
X386340Y451127D01*
X386953Y450513D01*
X387755Y450181D01*
X388623D01*
X389424Y450513D01*
X390038Y451127D01*
X390370Y451928D01*
Y452796D01*
X390277Y453020D01*
X394832Y457575D01*
X399979D01*
X400171Y457113D01*
X397508Y454451D01*
X397284Y454543D01*
X396417D01*
X395615Y454211D01*
X395001Y453598D01*
X394669Y452796D01*
Y451928D01*
X395001Y451127D01*
X395615Y450513D01*
X396417Y450181D01*
X397284D01*
X398086Y450513D01*
X398699Y451127D01*
X399031Y451928D01*
Y452796D01*
X398939Y453020D01*
X401994Y456075D01*
X445408D01*
X532935Y368548D01*
X533263Y368329D01*
X533650Y368252D01*
X627482D01*
X627616Y367752D01*
X627311Y367576D01*
X626519Y366784D01*
X625959Y365814D01*
X625669Y364733D01*
Y363614D01*
X625959Y362532D01*
X626519Y361562D01*
X627311Y360771D01*
X627602Y360602D01*
X627468Y360102D01*
X623256D01*
X622866Y360025D01*
X622535Y359804D01*
X615326Y352594D01*
X538048D01*
X537903Y352739D01*
Y354263D01*
X537826Y354654D01*
X537605Y354984D01*
X536863Y355726D01*
X536532Y355947D01*
X536142Y356025D01*
X534657D01*
X534267Y355947D01*
X533936Y355726D01*
X533194Y354984D01*
X532973Y354654D01*
X532896Y354263D01*
Y352739D01*
X532751Y352594D01*
X532111D01*
X531966Y352739D01*
Y354138D01*
X531889Y354528D01*
X531668Y354859D01*
X530926Y355601D01*
X530595Y355822D01*
X530205Y355900D01*
X528720D01*
X528330Y355822D01*
X527999Y355601D01*
X527257Y354859D01*
X527036Y354528D01*
X526959Y354138D01*
Y352739D01*
X526814Y352594D01*
X526174D01*
X525731Y353038D01*
X525731Y353038D01*
X524989Y353780D01*
X524658Y354001D01*
X524268Y354079D01*
X522783D01*
X522393Y354001D01*
X522062Y353780D01*
X521320Y353038D01*
X521320Y353038D01*
X520877Y352594D01*
X395450D01*
X390057Y357987D01*
X390272Y358479D01*
X390999Y358781D01*
X391613Y359394D01*
X391945Y360196D01*
Y361064D01*
X391613Y361865D01*
X390999Y362479D01*
X390198Y362811D01*
X389330D01*
X388528Y362479D01*
X387915Y361865D01*
X387613Y361138D01*
X387121Y360923D01*
X381728Y366316D01*
Y376408D01*
X381944Y376497D01*
X382558Y377111D01*
X382890Y377913D01*
Y378780D01*
X382558Y379582D01*
X382108Y380032D01*
X382549Y380473D01*
X382881Y381275D01*
Y382142D01*
X382549Y382944D01*
X381936Y383558D01*
X381134Y383890D01*
X380266D01*
X379465Y383558D01*
X378851Y382944D01*
X378519Y382142D01*
Y381391D01*
X377307Y380178D01*
X377086Y379847D01*
X377008Y379457D01*
Y373631D01*
X376508Y373427D01*
X376039Y373896D01*
X375237Y374228D01*
X374369D01*
X373568Y373896D01*
X372954Y373283D01*
X372861Y373059D01*
X285636D01*
X278116Y380579D01*
X278339Y381063D01*
X279326D01*
X280457Y381366D01*
X281472Y381952D01*
X282300Y382780D01*
X282886Y383795D01*
X283189Y384926D01*
Y386098D01*
X282886Y387229D01*
X282300Y388243D01*
X281472Y389072D01*
X280457Y389657D01*
X279326Y389961D01*
X278154D01*
X277023Y389657D01*
X276009Y389072D01*
X275311Y388374D01*
X274811Y388559D01*
Y400152D01*
X276390Y401731D01*
X277023Y401366D01*
X278154Y401063D01*
X279326D01*
X280457Y401366D01*
X281472Y401952D01*
X282300Y402780D01*
X282886Y403795D01*
X283189Y404926D01*
Y406098D01*
X282886Y407229D01*
X282300Y408243D01*
X281472Y409072D01*
X280457Y409657D01*
X279326Y409961D01*
X278154D01*
X277023Y409657D01*
X276009Y409072D01*
X275180Y408243D01*
X274594Y407229D01*
X274291Y406098D01*
Y404926D01*
X274594Y403795D01*
X274960Y403162D01*
X273084Y401286D01*
X272865Y400958D01*
X272788Y400571D01*
Y383465D01*
X272865Y383078D01*
X273084Y382750D01*
X284502Y371332D01*
X284830Y371113D01*
X285217Y371036D01*
X339739D01*
X339930Y370574D01*
X339883Y370527D01*
X339551Y369725D01*
Y368858D01*
X339883Y368056D01*
X340419Y367520D01*
X339883Y366984D01*
X339551Y366182D01*
Y365314D01*
X339883Y364512D01*
X340497Y363899D01*
X341298Y363567D01*
X342166D01*
X342968Y363899D01*
X343581Y364512D01*
X343913Y365314D01*
Y366182D01*
X343581Y366984D01*
X343045Y367520D01*
X343581Y368056D01*
X343913Y368858D01*
Y369725D01*
X343581Y370527D01*
X343534Y370574D01*
X343726Y371036D01*
X372861D01*
X372954Y370812D01*
X373568Y370198D01*
X374369Y369866D01*
X375237D01*
X376039Y370198D01*
X376508Y370668D01*
X377008Y370463D01*
Y365746D01*
X377086Y365356D01*
X377307Y365025D01*
X383611Y358721D01*
X383564Y358565D01*
X383365Y358259D01*
X382604D01*
X381803Y357927D01*
X381189Y357314D01*
X380857Y356512D01*
Y355644D01*
X381189Y354843D01*
X381803Y354229D01*
X382604Y353897D01*
X383472D01*
X384274Y354229D01*
X384887Y354843D01*
X385219Y355644D01*
Y356405D01*
X385525Y356604D01*
X385681Y356651D01*
X393478Y348854D01*
X393809Y348633D01*
X394199Y348555D01*
X627462D01*
X627596Y348055D01*
X627311Y347891D01*
X626519Y347099D01*
X625959Y346129D01*
X625669Y345048D01*
Y343928D01*
X625959Y342847D01*
X626519Y341877D01*
X627311Y341086D01*
X627664Y340882D01*
X627530Y340382D01*
X380734D01*
X378974Y342142D01*
X379257Y342565D01*
X379881Y342307D01*
X380749D01*
X381551Y342639D01*
X381996Y343085D01*
X382442Y342639D01*
X383243Y342307D01*
X384111D01*
X384913Y342639D01*
X385526Y343253D01*
X385858Y344054D01*
Y344922D01*
X385526Y345724D01*
X384913Y346337D01*
X384111Y346669D01*
X383243D01*
X382442Y346337D01*
X381996Y345892D01*
X381551Y346337D01*
X380749Y346669D01*
X379881D01*
X379080Y346337D01*
X378466Y345724D01*
X378134Y344922D01*
Y344054D01*
X378392Y343430D01*
X377968Y343147D01*
X375291Y345825D01*
Y357163D01*
X375865Y357737D01*
X376197Y358539D01*
Y359406D01*
X375865Y360208D01*
X375251Y360822D01*
X374450Y361154D01*
X373582D01*
X372780Y360822D01*
X372167Y360208D01*
X371835Y359406D01*
Y358539D01*
X371979Y358191D01*
X371555Y357908D01*
X371314Y358148D01*
X370513Y358480D01*
X369645D01*
X368843Y358148D01*
X368230Y357535D01*
X367898Y356733D01*
Y355865D01*
X368230Y355064D01*
X368843Y354450D01*
X369067Y354357D01*
Y346850D01*
X369144Y346463D01*
X369363Y346135D01*
X378812Y336686D01*
X379140Y336467D01*
X379528Y336390D01*
X618872D01*
X626076Y329186D01*
X626404Y328967D01*
X626791Y328890D01*
X627496D01*
X627630Y328390D01*
X627311Y328206D01*
X626519Y327414D01*
X625959Y326444D01*
X625669Y325363D01*
Y324243D01*
X625959Y323162D01*
X626519Y322192D01*
X627311Y321401D01*
X628280Y320841D01*
X629361Y320551D01*
X630481D01*
X631563Y320841D01*
X632532Y321401D01*
X633324Y322192D01*
X633472Y322449D01*
X633474Y322450D01*
X634039Y322432D01*
X634127Y322300D01*
X637365Y319063D01*
X637385Y318740D01*
X637326Y318463D01*
X637153Y318363D01*
X636361Y317571D01*
X635802Y316602D01*
X635512Y315520D01*
Y314401D01*
X635802Y313319D01*
X636361Y312350D01*
X637153Y311558D01*
X638123Y310998D01*
X639204Y310709D01*
X640324D01*
X641405Y310998D01*
X642375Y311558D01*
X643166Y312350D01*
X643726Y313319D01*
X644016Y314401D01*
Y315520D01*
X643726Y316602D01*
X643166Y317571D01*
X642544Y318193D01*
X642752Y318693D01*
X644443D01*
X645970Y317166D01*
X645644Y316602D01*
X645354Y315520D01*
Y314401D01*
X645644Y313319D01*
X646204Y312350D01*
X646996Y311558D01*
X647965Y310998D01*
X649047Y310709D01*
X650166D01*
X651248Y310998D01*
X652217Y311558D01*
X653009Y312350D01*
X653569Y313319D01*
X653858Y314401D01*
Y315520D01*
X653569Y316602D01*
X653009Y317571D01*
X652217Y318363D01*
X651248Y318923D01*
X650166Y319213D01*
X649047D01*
X647965Y318923D01*
X647401Y318597D01*
X645577Y320420D01*
X645249Y320639D01*
X644862Y320716D01*
X642189D01*
X642055Y321216D01*
X642375Y321401D01*
X643166Y322192D01*
X643726Y323162D01*
X644016Y324243D01*
Y325363D01*
X643726Y326444D01*
X643166Y327414D01*
X642544Y328036D01*
X642752Y328536D01*
X644443D01*
X645970Y327009D01*
X645644Y326444D01*
X645354Y325363D01*
Y324243D01*
X645644Y323162D01*
X646204Y322192D01*
X646996Y321401D01*
X647965Y320841D01*
X649047Y320551D01*
X650166D01*
X651248Y320841D01*
X652217Y321401D01*
X653009Y322192D01*
X653569Y323162D01*
X653858Y324243D01*
Y325363D01*
X653569Y326444D01*
X653009Y327414D01*
X652217Y328206D01*
X651248Y328765D01*
X650166Y329055D01*
X649047D01*
X647965Y328765D01*
X647401Y328439D01*
X645577Y330262D01*
X645249Y330482D01*
X644862Y330559D01*
X642189D01*
X642055Y331059D01*
X642375Y331243D01*
X643166Y332035D01*
X643726Y333004D01*
X644016Y334086D01*
Y335206D01*
X643726Y336287D01*
X643166Y337256D01*
X642375Y338048D01*
X642083Y338217D01*
X642217Y338717D01*
X647154D01*
X647288Y338217D01*
X646996Y338048D01*
X646204Y337256D01*
X645644Y336287D01*
X645354Y335206D01*
Y334086D01*
X645644Y333004D01*
X646204Y332035D01*
X646996Y331243D01*
X647965Y330683D01*
X649047Y330394D01*
X650166D01*
X651248Y330683D01*
X652217Y331243D01*
X653009Y332035D01*
X653569Y333004D01*
X653858Y334086D01*
Y335206D01*
X653569Y336287D01*
X653009Y337256D01*
X652217Y338048D01*
X651925Y338217D01*
X652059Y338717D01*
X654697D01*
X655087Y338794D01*
X655418Y339015D01*
X657250Y340848D01*
X657808Y340526D01*
X658889Y340236D01*
X660009D01*
X661090Y340526D01*
X662060Y341086D01*
X662851Y341877D01*
X663411Y342847D01*
X663701Y343928D01*
Y345048D01*
X663411Y346129D01*
X662851Y347099D01*
X662060Y347891D01*
X661090Y348450D01*
X660009Y348740D01*
X658889D01*
X657808Y348450D01*
X656838Y347891D01*
X656046Y347099D01*
X655487Y346129D01*
X655197Y345048D01*
Y343928D01*
X655487Y342847D01*
X655808Y342290D01*
X654275Y340756D01*
X652594D01*
X652387Y341256D01*
X653009Y341877D01*
X653569Y342847D01*
X653858Y343928D01*
Y345048D01*
X653569Y346129D01*
X653009Y347099D01*
X652217Y347891D01*
X651248Y348450D01*
X650166Y348740D01*
X649047D01*
X647965Y348450D01*
X647408Y348129D01*
X645575Y349961D01*
X645245Y350182D01*
X644854Y350260D01*
X642217D01*
X642083Y350760D01*
X642375Y350928D01*
X643166Y351720D01*
X643726Y352690D01*
X644016Y353771D01*
Y354890D01*
X643726Y355972D01*
X643166Y356942D01*
X642375Y357733D01*
X641405Y358293D01*
X640324Y358583D01*
X639204D01*
X638123Y358293D01*
X637153Y357733D01*
X636361Y356942D01*
X636268Y356780D01*
X635957Y356723D01*
X635670Y356744D01*
X632611Y359804D01*
X632280Y360025D01*
X632250Y360031D01*
X632163Y360558D01*
X632532Y360771D01*
X633324Y361562D01*
X633883Y362532D01*
X634173Y363614D01*
Y364733D01*
X633883Y365814D01*
X633324Y366784D01*
X632532Y367576D01*
X632153Y367795D01*
X632240Y368322D01*
X632277Y368329D01*
X632605Y368548D01*
X635666Y371609D01*
X635938Y371631D01*
X636263Y371575D01*
X636361Y371405D01*
X637153Y370613D01*
X638123Y370054D01*
X639204Y369764D01*
X640324D01*
X641405Y370054D01*
X642375Y370613D01*
X643166Y371405D01*
X643726Y372375D01*
X644016Y373456D01*
Y374575D01*
X643726Y375657D01*
X643166Y376626D01*
X642375Y377418D01*
X642001Y377634D01*
X642088Y378161D01*
X642114Y378166D01*
X642442Y378386D01*
X645508Y381452D01*
X645771Y381473D01*
X646105Y381418D01*
X646204Y381247D01*
X646996Y380456D01*
X647965Y379896D01*
X649047Y379606D01*
X650166D01*
X651248Y379896D01*
X652217Y380456D01*
X653009Y381247D01*
X653569Y382217D01*
X653858Y383298D01*
Y384418D01*
X653569Y385500D01*
X653009Y386469D01*
X652217Y387261D01*
X651911Y387437D01*
X652045Y387937D01*
X654697D01*
X655084Y388014D01*
X655412Y388233D01*
X657243Y390065D01*
X657808Y389739D01*
X658889Y389449D01*
X660009D01*
X661090Y389739D01*
X662060Y390298D01*
X662851Y391090D01*
X663411Y392060D01*
X663701Y393141D01*
Y394261D01*
X663411Y395342D01*
X662851Y396311D01*
X662060Y397103D01*
X661090Y397663D01*
X660009Y397953D01*
X658889D01*
X657808Y397663D01*
X656838Y397103D01*
X656046Y396311D01*
X655487Y395342D01*
X655197Y394261D01*
Y393141D01*
X655487Y392060D01*
X655813Y391495D01*
X654278Y389960D01*
X652586D01*
X652379Y390460D01*
X653009Y391090D01*
X653569Y392060D01*
X653858Y393141D01*
Y394261D01*
X653569Y395342D01*
X653009Y396311D01*
X652217Y397103D01*
X651911Y397280D01*
X652045Y397780D01*
X654697D01*
X655084Y397857D01*
X655412Y398076D01*
X657243Y399907D01*
X657808Y399581D01*
X658889Y399291D01*
X660009D01*
X661090Y399581D01*
X662060Y400141D01*
X662851Y400933D01*
X663411Y401902D01*
X663701Y402984D01*
Y404103D01*
X663411Y405185D01*
X662851Y406154D01*
X662060Y406946D01*
X661090Y407506D01*
X660009Y407795D01*
X658889D01*
X657808Y407506D01*
X656838Y406946D01*
X656046Y406154D01*
X655487Y405185D01*
X655197Y404103D01*
Y402984D01*
X655487Y401902D01*
X655813Y401338D01*
X654278Y399803D01*
X652586D01*
X652379Y400303D01*
X653009Y400933D01*
X653569Y401902D01*
X653858Y402984D01*
Y404103D01*
X653569Y405185D01*
X653009Y406154D01*
X652217Y406946D01*
X651248Y407506D01*
X650166Y407795D01*
X649047D01*
X647965Y407506D01*
X647401Y407180D01*
X646613Y407967D01*
X646804Y408429D01*
X668489D01*
X668489Y197653D01*
X237023Y197653D01*
Y316850D01*
X237523Y317001D01*
X237623Y316852D01*
X260462Y294013D01*
X260790Y293794D01*
X261177Y293717D01*
X378587D01*
X378974Y293794D01*
X379302Y294013D01*
X389893Y304605D01*
X390117Y304512D01*
X390985D01*
X391787Y304844D01*
X392400Y305457D01*
X392732Y306259D01*
Y307127D01*
X392400Y307928D01*
X391787Y308542D01*
X390985Y308874D01*
X390117D01*
X389316Y308542D01*
X388702Y307928D01*
X388370Y307127D01*
Y306259D01*
X388463Y306035D01*
X378168Y295740D01*
X373021D01*
X372829Y296202D01*
X381232Y304605D01*
X381456Y304512D01*
X382324D01*
X383125Y304844D01*
X383739Y305457D01*
X384071Y306259D01*
Y307127D01*
X383739Y307928D01*
X383125Y308542D01*
X382324Y308874D01*
X381456D01*
X380654Y308542D01*
X380041Y307928D01*
X379709Y307127D01*
Y306259D01*
X379801Y306035D01*
X370990Y297224D01*
X365843D01*
X365652Y297686D01*
X372570Y304605D01*
X372794Y304512D01*
X373662D01*
X374464Y304844D01*
X375077Y305457D01*
X375409Y306259D01*
Y307127D01*
X375077Y307928D01*
X374464Y308542D01*
X373662Y308874D01*
X372794D01*
X371993Y308542D01*
X371379Y307928D01*
X371047Y307127D01*
Y306259D01*
X371140Y306035D01*
X363813Y298708D01*
X358666D01*
X358475Y299170D01*
X363909Y304605D01*
X364133Y304512D01*
X365001D01*
X365802Y304844D01*
X366416Y305457D01*
X366748Y306259D01*
Y307127D01*
X366416Y307928D01*
X365802Y308542D01*
X365001Y308874D01*
X364133D01*
X363331Y308542D01*
X362718Y307928D01*
X362386Y307127D01*
Y306259D01*
X362478Y306035D01*
X356636Y300193D01*
X351489D01*
X351298Y300655D01*
X355248Y304605D01*
X355472Y304512D01*
X356339D01*
X357141Y304844D01*
X357754Y305457D01*
X358086Y306259D01*
Y307127D01*
X357754Y307928D01*
X357141Y308542D01*
X356339Y308874D01*
X355472D01*
X354670Y308542D01*
X354056Y307928D01*
X353724Y307127D01*
Y306259D01*
X353817Y306035D01*
X349459Y301677D01*
X344312D01*
X344121Y302139D01*
X346586Y304605D01*
X346810Y304512D01*
X347678D01*
X348480Y304844D01*
X349093Y305457D01*
X349425Y306259D01*
Y307127D01*
X349093Y307928D01*
X348480Y308542D01*
X347678Y308874D01*
X346810D01*
X346009Y308542D01*
X345395Y307928D01*
X345063Y307127D01*
Y306259D01*
X345156Y306035D01*
X342282Y303161D01*
X337135D01*
X336943Y303623D01*
X337925Y304605D01*
X338149Y304512D01*
X339017D01*
X339818Y304844D01*
X340432Y305457D01*
X340764Y306259D01*
Y307127D01*
X340432Y307928D01*
X339818Y308542D01*
X339017Y308874D01*
X338149D01*
X337347Y308542D01*
X336734Y307928D01*
X336402Y307127D01*
Y306259D01*
X336494Y306035D01*
X335105Y304645D01*
X331665D01*
X331458Y305145D01*
X331770Y305457D01*
X332102Y306259D01*
Y307127D01*
X331770Y307928D01*
X331157Y308542D01*
X330355Y308874D01*
X329487D01*
X328686Y308542D01*
X328072Y307928D01*
X327740Y307127D01*
Y306259D01*
X327654Y306130D01*
X266039D01*
X249838Y322330D01*
Y336001D01*
X250338Y336135D01*
X250733Y335452D01*
X251533Y334651D01*
X252514Y334085D01*
X253607Y333792D01*
X254739D01*
X255833Y334085D01*
X256813Y334651D01*
X257613Y335452D01*
X258179Y336432D01*
X258472Y337526D01*
Y338657D01*
X258179Y339751D01*
X257613Y340731D01*
X256813Y341532D01*
X255833Y342098D01*
X254739Y342391D01*
X253607D01*
X252514Y342098D01*
X251533Y341532D01*
X250733Y340731D01*
X250338Y340048D01*
X249838Y340182D01*
Y369549D01*
X249761Y369936D01*
X249740Y369969D01*
Y476016D01*
X254342Y480618D01*
X254775Y480368D01*
X254711Y480131D01*
Y478649D01*
X255095Y477217D01*
X255836Y475933D01*
X256884Y474885D01*
X258168Y474144D01*
X259600Y473760D01*
X261082D01*
X262514Y474144D01*
X263798Y474885D01*
X264846Y475933D01*
X265587Y477217D01*
X265971Y478649D01*
Y480131D01*
X265587Y481563D01*
X264846Y482847D01*
X263798Y483895D01*
X263586Y484017D01*
X263715Y484500D01*
X270353D01*
X270482Y484017D01*
X270270Y483895D01*
X269222Y482847D01*
X268481Y481563D01*
X268097Y480131D01*
Y478649D01*
X268481Y477217D01*
X269222Y475933D01*
X270270Y474885D01*
X271554Y474144D01*
X272986Y473760D01*
X274468D01*
X275900Y474144D01*
X277184Y474885D01*
X278232Y475933D01*
X278973Y477217D01*
X279357Y478649D01*
Y480131D01*
X278973Y481563D01*
X278232Y482847D01*
X277184Y483895D01*
X276972Y484017D01*
X277101Y484500D01*
X286852D01*
X286981Y484017D01*
X286769Y483895D01*
X285721Y482847D01*
X284980Y481563D01*
X284596Y480131D01*
Y478649D01*
X284980Y477217D01*
X285721Y475933D01*
X286769Y474885D01*
X288053Y474144D01*
X289485Y473760D01*
X290967D01*
X292399Y474144D01*
X293683Y474885D01*
X294731Y475933D01*
X295472Y477217D01*
X295856Y478649D01*
Y480131D01*
X295472Y481563D01*
X294731Y482847D01*
X293683Y483895D01*
X293471Y484017D01*
X293600Y484500D01*
X300238D01*
X300367Y484017D01*
X300155Y483895D01*
X299107Y482847D01*
X298366Y481563D01*
X297982Y480131D01*
Y478649D01*
X298366Y477217D01*
X299107Y475933D01*
X300155Y474885D01*
X301439Y474144D01*
X302871Y473760D01*
X304353D01*
X305785Y474144D01*
X306826Y474745D01*
X317886Y463685D01*
Y454304D01*
X317662Y454211D01*
X317049Y453598D01*
X316717Y452796D01*
Y451928D01*
X317049Y451127D01*
X317662Y450513D01*
X318464Y450181D01*
X319332D01*
X320133Y450513D01*
X320747Y451127D01*
X321079Y451928D01*
Y452796D01*
X320747Y453598D01*
X320133Y454211D01*
X319909Y454304D01*
Y464104D01*
X319832Y464491D01*
X319613Y464819D01*
X308257Y476175D01*
X308858Y477217D01*
X309242Y478649D01*
Y480131D01*
X308858Y481563D01*
X308117Y482847D01*
X307069Y483895D01*
X306857Y484017D01*
X306986Y484500D01*
X316412D01*
X316542Y484017D01*
X316329Y483895D01*
X315281Y482847D01*
X314540Y481563D01*
X314156Y480131D01*
Y478649D01*
X314540Y477217D01*
X315281Y475933D01*
X316329Y474885D01*
X317613Y474144D01*
X319045Y473760D01*
X320527D01*
X321959Y474144D01*
X323001Y474745D01*
X326548Y471198D01*
Y454304D01*
X326324Y454211D01*
X325710Y453598D01*
X325378Y452796D01*
Y451928D01*
X325710Y451127D01*
X326324Y450513D01*
X327125Y450181D01*
X327993D01*
X328795Y450513D01*
X329408Y451127D01*
X329740Y451928D01*
Y452796D01*
X329408Y453598D01*
X328795Y454211D01*
X328571Y454304D01*
Y471617D01*
X328494Y472004D01*
X328274Y472332D01*
X324431Y476175D01*
X325032Y477217D01*
X325416Y478649D01*
Y480131D01*
X325032Y481563D01*
X324291Y482847D01*
X323243Y483895D01*
X323031Y484017D01*
X323160Y484500D01*
X329798D01*
X329927Y484017D01*
X329715Y483895D01*
X328667Y482847D01*
X327926Y481563D01*
X327542Y480131D01*
Y478649D01*
X327926Y477217D01*
X328667Y475933D01*
X329715Y474885D01*
X330999Y474144D01*
X332431Y473760D01*
X333913D01*
X335345Y474144D01*
X336629Y474885D01*
X337677Y475933D01*
X338418Y477217D01*
X338802Y478649D01*
Y480131D01*
X338418Y481563D01*
X337677Y482847D01*
X336629Y483895D01*
X336417Y484017D01*
X336546Y484500D01*
X342805D01*
X344701Y482604D01*
X344100Y481563D01*
X343716Y480131D01*
Y478649D01*
X344100Y477217D01*
X344841Y475933D01*
X345889Y474885D01*
X347173Y474144D01*
X348605Y473760D01*
X350087D01*
X351519Y474144D01*
X352803Y474885D01*
X353851Y475933D01*
X354592Y477217D01*
X354976Y478649D01*
Y480131D01*
X354592Y481563D01*
X353851Y482847D01*
X352803Y483895D01*
X351519Y484636D01*
X350087Y485020D01*
X348605D01*
X347173Y484636D01*
X346132Y484035D01*
X344644Y485523D01*
X344835Y485985D01*
X370881D01*
X374261Y482604D01*
X373660Y481563D01*
X373276Y480131D01*
Y478649D01*
X373660Y477217D01*
X374401Y475933D01*
X375449Y474885D01*
X376733Y474144D01*
X378165Y473760D01*
X379648D01*
X381079Y474144D01*
X382363Y474885D01*
X383411Y475933D01*
X384153Y477217D01*
X384536Y478649D01*
Y480131D01*
X384153Y481563D01*
X383411Y482847D01*
X382363Y483895D01*
X381079Y484636D01*
X379648Y485020D01*
X378165D01*
X376733Y484636D01*
X375692Y484035D01*
X372720Y487007D01*
X372911Y487469D01*
X398957D01*
X403821Y482604D01*
X403220Y481563D01*
X402837Y480131D01*
Y478649D01*
X403220Y477217D01*
X403961Y475933D01*
X405010Y474885D01*
X406293Y474144D01*
X407725Y473760D01*
X409208D01*
X410639Y474144D01*
X411923Y474885D01*
X412971Y475933D01*
X413713Y477217D01*
X414096Y478649D01*
Y480131D01*
X413713Y481563D01*
X412971Y482847D01*
X411923Y483895D01*
X410639Y484636D01*
X409208Y485020D01*
X407725D01*
X406293Y484636D01*
X405252Y484035D01*
X400796Y488491D01*
X400987Y488953D01*
X427033D01*
X433382Y482604D01*
X432780Y481563D01*
X432397Y480131D01*
Y478649D01*
X432780Y477217D01*
X433521Y475933D01*
X434570Y474885D01*
X435853Y474144D01*
X437285Y473760D01*
X438768D01*
X440200Y474144D01*
X441483Y474885D01*
X442531Y475933D01*
X443273Y477217D01*
X443656Y478649D01*
Y480131D01*
X443273Y481563D01*
X442531Y482847D01*
X441483Y483895D01*
X440200Y484636D01*
X438768Y485020D01*
X437285D01*
X435853Y484636D01*
X434812Y484035D01*
X428871Y489975D01*
X429063Y490437D01*
X455108D01*
X462942Y482604D01*
X462340Y481563D01*
X461957Y480131D01*
Y478649D01*
X462340Y477217D01*
X463082Y475933D01*
X464130Y474885D01*
X465414Y474144D01*
X466845Y473760D01*
X468328D01*
X469760Y474144D01*
X471043Y474885D01*
X472092Y475933D01*
X472833Y477217D01*
X473216Y478649D01*
Y480131D01*
X472833Y481563D01*
X472092Y482847D01*
X471043Y483895D01*
X469760Y484636D01*
X468328Y485020D01*
X466845D01*
X465414Y484636D01*
X464372Y484035D01*
X456947Y491460D01*
X457139Y491922D01*
X512809D01*
X518995Y485736D01*
D02*
G37*
G36*
X668489Y409449D02*
X645131D01*
X644488Y410092D01*
Y464669D01*
X645580Y465122D01*
X647115Y466147D01*
X648420Y467452D01*
X649445Y468987D01*
X650152Y470692D01*
X650512Y472502D01*
Y474348D01*
X650152Y476158D01*
X649445Y477864D01*
X648420Y479398D01*
X647115Y480703D01*
X645580Y481729D01*
X644488Y482181D01*
Y503937D01*
X237023D01*
Y550378D01*
X668489Y550378D01*
Y409449D01*
D02*
G37*
%LPC*%
G36*
X626558Y463110D02*
X625410D01*
X624285Y462886D01*
X623224Y462447D01*
X622270Y461809D01*
X621458Y460998D01*
X620821Y460043D01*
X620381Y458983D01*
X620157Y457857D01*
Y456710D01*
X620381Y455584D01*
X620821Y454524D01*
X621458Y453569D01*
X622270Y452758D01*
X623224Y452120D01*
X624285Y451681D01*
X625410Y451457D01*
X626558D01*
X627684Y451681D01*
X628744Y452120D01*
X629699Y452758D01*
X630510Y453569D01*
X631148Y454524D01*
X631587Y455584D01*
X631811Y456710D01*
Y457857D01*
X631587Y458983D01*
X631148Y460043D01*
X630510Y460998D01*
X629699Y461809D01*
X628744Y462447D01*
X627684Y462886D01*
X626558Y463110D01*
D02*
G37*
G36*
X511274Y485020D02*
X509791D01*
X508359Y484636D01*
X507076Y483895D01*
X506027Y482847D01*
X505286Y481563D01*
X504903Y480131D01*
Y478649D01*
X505286Y477217D01*
X506027Y475933D01*
X507076Y474885D01*
X508359Y474144D01*
X509791Y473760D01*
X511274D01*
X512706Y474144D01*
X513989Y474885D01*
X515037Y475933D01*
X515779Y477217D01*
X516162Y478649D01*
Y480131D01*
X515779Y481563D01*
X515037Y482847D01*
X513989Y483895D01*
X512706Y484636D01*
X511274Y485020D01*
D02*
G37*
G36*
X481714D02*
X480231D01*
X478799Y484636D01*
X477516Y483895D01*
X476467Y482847D01*
X475726Y481563D01*
X475342Y480131D01*
Y478649D01*
X475726Y477217D01*
X476467Y475933D01*
X477516Y474885D01*
X478799Y474144D01*
X480231Y473760D01*
X481714D01*
X483145Y474144D01*
X484429Y474885D01*
X485477Y475933D01*
X486219Y477217D01*
X486602Y478649D01*
Y480131D01*
X486219Y481563D01*
X485477Y482847D01*
X484429Y483895D01*
X483145Y484636D01*
X481714Y485020D01*
D02*
G37*
G36*
X452153D02*
X450671D01*
X449239Y484636D01*
X447956Y483895D01*
X446907Y482847D01*
X446166Y481563D01*
X445782Y480131D01*
Y478649D01*
X446166Y477217D01*
X446907Y475933D01*
X447956Y474885D01*
X449239Y474144D01*
X450671Y473760D01*
X452153D01*
X453585Y474144D01*
X454869Y474885D01*
X455917Y475933D01*
X456659Y477217D01*
X457042Y478649D01*
Y480131D01*
X456659Y481563D01*
X455917Y482847D01*
X454869Y483895D01*
X453585Y484636D01*
X452153Y485020D01*
D02*
G37*
G36*
X422593D02*
X421111D01*
X419679Y484636D01*
X418395Y483895D01*
X417347Y482847D01*
X416606Y481563D01*
X416222Y480131D01*
Y478649D01*
X416606Y477217D01*
X417347Y475933D01*
X418395Y474885D01*
X419679Y474144D01*
X421111Y473760D01*
X422593D01*
X424025Y474144D01*
X425309Y474885D01*
X426357Y475933D01*
X427099Y477217D01*
X427482Y478649D01*
Y480131D01*
X427099Y481563D01*
X426357Y482847D01*
X425309Y483895D01*
X424025Y484636D01*
X422593Y485020D01*
D02*
G37*
G36*
X393033D02*
X391551D01*
X390119Y484636D01*
X388835Y483895D01*
X387787Y482847D01*
X387046Y481563D01*
X386662Y480131D01*
Y478649D01*
X387046Y477217D01*
X387787Y475933D01*
X388835Y474885D01*
X390119Y474144D01*
X391551Y473760D01*
X393033D01*
X394465Y474144D01*
X395749Y474885D01*
X396797Y475933D01*
X397538Y477217D01*
X397922Y478649D01*
Y480131D01*
X397538Y481563D01*
X396797Y482847D01*
X395749Y483895D01*
X394465Y484636D01*
X393033Y485020D01*
D02*
G37*
G36*
X363473D02*
X361991D01*
X360559Y484636D01*
X359275Y483895D01*
X358227Y482847D01*
X357486Y481563D01*
X357102Y480131D01*
Y478649D01*
X357486Y477217D01*
X358227Y475933D01*
X359275Y474885D01*
X360559Y474144D01*
X361991Y473760D01*
X363473D01*
X364905Y474144D01*
X366189Y474885D01*
X367237Y475933D01*
X367978Y477217D01*
X368362Y478649D01*
Y480131D01*
X367978Y481563D01*
X367237Y482847D01*
X366189Y483895D01*
X364905Y484636D01*
X363473Y485020D01*
D02*
G37*
G36*
X310670Y454543D02*
X309802D01*
X309001Y454211D01*
X308387Y453598D01*
X308055Y452796D01*
Y451928D01*
X308387Y451127D01*
X309001Y450513D01*
X309802Y450181D01*
X310670D01*
X311472Y450513D01*
X312085Y451127D01*
X312417Y451928D01*
Y452796D01*
X312085Y453598D01*
X311472Y454211D01*
X310670Y454543D01*
D02*
G37*
G36*
X492323Y452087D02*
X490944D01*
X489613Y451730D01*
X488419Y451040D01*
X487444Y450066D01*
X486755Y448872D01*
X486398Y447540D01*
Y446161D01*
X486755Y444829D01*
X487444Y443635D01*
X488419Y442660D01*
X489613Y441971D01*
X490944Y441614D01*
X492323D01*
X493655Y441971D01*
X494849Y442660D01*
X495824Y443635D01*
X496513Y444829D01*
X496870Y446161D01*
Y447540D01*
X496513Y448872D01*
X495824Y450066D01*
X494849Y451040D01*
X493655Y451730D01*
X492323Y452087D01*
D02*
G37*
G36*
X337167Y431434D02*
X336299D01*
X335497Y431102D01*
X334884Y430488D01*
X334552Y429686D01*
Y428819D01*
X334884Y428017D01*
X335497Y427403D01*
X336299Y427071D01*
X337167D01*
X337968Y427403D01*
X338582Y428017D01*
X338914Y428819D01*
Y429686D01*
X338582Y430488D01*
X337968Y431102D01*
X337167Y431434D01*
D02*
G37*
G36*
X397284Y430921D02*
X396416D01*
X395615Y430589D01*
X395001Y429976D01*
X394669Y429174D01*
Y428306D01*
X395001Y427505D01*
X395615Y426891D01*
X396416Y426559D01*
X397284D01*
X398086Y426891D01*
X398699Y427505D01*
X399031Y428306D01*
Y429174D01*
X398699Y429976D01*
X398086Y430589D01*
X397284Y430921D01*
D02*
G37*
G36*
X388623D02*
X387755D01*
X386953Y430589D01*
X386340Y429976D01*
X386008Y429174D01*
Y428306D01*
X386340Y427505D01*
X386953Y426891D01*
X387755Y426559D01*
X388623D01*
X389424Y426891D01*
X390038Y427505D01*
X390370Y428306D01*
Y429174D01*
X390038Y429976D01*
X389424Y430589D01*
X388623Y430921D01*
D02*
G37*
G36*
X379961D02*
X379094D01*
X378292Y430589D01*
X377678Y429976D01*
X377346Y429174D01*
Y428306D01*
X377678Y427505D01*
X378292Y426891D01*
X379094Y426559D01*
X379961D01*
X380763Y426891D01*
X381377Y427505D01*
X381709Y428306D01*
Y429174D01*
X381377Y429976D01*
X380763Y430589D01*
X379961Y430921D01*
D02*
G37*
G36*
X371300D02*
X370432D01*
X369631Y430589D01*
X369017Y429976D01*
X368685Y429174D01*
Y428306D01*
X369017Y427505D01*
X369631Y426891D01*
X370432Y426559D01*
X371300D01*
X372102Y426891D01*
X372715Y427505D01*
X373047Y428306D01*
Y429174D01*
X372715Y429976D01*
X372102Y430589D01*
X371300Y430921D01*
D02*
G37*
G36*
X362639D02*
X361771D01*
X360969Y430589D01*
X360356Y429976D01*
X360024Y429174D01*
Y428306D01*
X360356Y427505D01*
X360969Y426891D01*
X361771Y426559D01*
X362639D01*
X363440Y426891D01*
X364054Y427505D01*
X364386Y428306D01*
Y429174D01*
X364054Y429976D01*
X363440Y430589D01*
X362639Y430921D01*
D02*
G37*
G36*
X353977D02*
X353110D01*
X352308Y430589D01*
X351694Y429976D01*
X351362Y429174D01*
Y428306D01*
X351694Y427505D01*
X352308Y426891D01*
X353110Y426559D01*
X353977D01*
X354779Y426891D01*
X355392Y427505D01*
X355724Y428306D01*
Y429174D01*
X355392Y429976D01*
X354779Y430589D01*
X353977Y430921D01*
D02*
G37*
G36*
X345316D02*
X344448D01*
X343646Y430589D01*
X343033Y429976D01*
X342701Y429174D01*
Y428306D01*
X343033Y427505D01*
X343646Y426891D01*
X344448Y426559D01*
X345316D01*
X346117Y426891D01*
X346731Y427505D01*
X347063Y428306D01*
Y429174D01*
X346731Y429976D01*
X346117Y430589D01*
X345316Y430921D01*
D02*
G37*
G36*
X327993D02*
X327125D01*
X326324Y430589D01*
X325710Y429976D01*
X325378Y429174D01*
Y428306D01*
X325710Y427505D01*
X326324Y426891D01*
X327125Y426559D01*
X327993D01*
X328795Y426891D01*
X329408Y427505D01*
X329740Y428306D01*
Y429174D01*
X329408Y429976D01*
X328795Y430589D01*
X327993Y430921D01*
D02*
G37*
G36*
X319332D02*
X318464D01*
X317662Y430589D01*
X317049Y429976D01*
X316717Y429174D01*
Y428306D01*
X317049Y427505D01*
X317662Y426891D01*
X318464Y426559D01*
X319332D01*
X320133Y426891D01*
X320747Y427505D01*
X321079Y428306D01*
Y429174D01*
X320747Y429976D01*
X320133Y430589D01*
X319332Y430921D01*
D02*
G37*
G36*
X310670D02*
X309802D01*
X309001Y430589D01*
X308387Y429976D01*
X308055Y429174D01*
Y428306D01*
X308387Y427505D01*
X309001Y426891D01*
X309802Y426559D01*
X310670D01*
X311472Y426891D01*
X312085Y427505D01*
X312417Y428306D01*
Y429174D01*
X312085Y429976D01*
X311472Y430589D01*
X310670Y430921D01*
D02*
G37*
G36*
X279326Y429961D02*
X278154D01*
X277023Y429657D01*
X276009Y429072D01*
X275180Y428243D01*
X274594Y427229D01*
X274291Y426097D01*
Y424926D01*
X274594Y423795D01*
X275180Y422780D01*
X276009Y421952D01*
X277023Y421366D01*
X278154Y421063D01*
X279326D01*
X280457Y421366D01*
X281472Y421952D01*
X282300Y422780D01*
X282886Y423795D01*
X283189Y424926D01*
Y426097D01*
X282886Y427229D01*
X282300Y428243D01*
X281472Y429072D01*
X280457Y429657D01*
X279326Y429961D01*
D02*
G37*
G36*
Y419961D02*
X278154D01*
X277023Y419657D01*
X276009Y419072D01*
X275180Y418243D01*
X274594Y417229D01*
X274291Y416097D01*
Y414926D01*
X274594Y413795D01*
X275180Y412780D01*
X276009Y411952D01*
X277023Y411366D01*
X278154Y411063D01*
X279326D01*
X280457Y411366D01*
X281472Y411952D01*
X282300Y412780D01*
X282886Y413795D01*
X283189Y414926D01*
Y416097D01*
X282886Y417229D01*
X282300Y418243D01*
X281472Y419072D01*
X280457Y419657D01*
X279326Y419961D01*
D02*
G37*
G36*
X483505Y413598D02*
X482637D01*
X481835Y413266D01*
X481222Y412653D01*
X480890Y411851D01*
Y410984D01*
X481222Y410182D01*
X481835Y409568D01*
X482637Y409236D01*
X483505D01*
X484306Y409568D01*
X484920Y410182D01*
X485252Y410984D01*
Y411851D01*
X484920Y412653D01*
X484306Y413266D01*
X483505Y413598D01*
D02*
G37*
G36*
X445316Y411630D02*
X444448D01*
X443646Y411298D01*
X443033Y410684D01*
X442701Y409883D01*
Y409015D01*
X443033Y408213D01*
X443646Y407600D01*
X444448Y407268D01*
X445316D01*
X446117Y407600D01*
X446731Y408213D01*
X447063Y409015D01*
Y409883D01*
X446731Y410684D01*
X446117Y411298D01*
X445316Y411630D01*
D02*
G37*
G36*
X360670Y403756D02*
X359802D01*
X359001Y403424D01*
X358594Y403018D01*
X358268Y402866D01*
X357941Y403018D01*
X357535Y403424D01*
X356733Y403756D01*
X355865D01*
X355064Y403424D01*
X354657Y403018D01*
X354331Y402866D01*
X354004Y403018D01*
X353598Y403424D01*
X352796Y403756D01*
X351928D01*
X351127Y403424D01*
X350513Y402810D01*
X350181Y402009D01*
Y401141D01*
X350513Y400339D01*
X350920Y399933D01*
X351071Y399606D01*
X350920Y399280D01*
X350513Y398873D01*
X350181Y398072D01*
Y397204D01*
X350513Y396402D01*
X350920Y395996D01*
X351071Y395669D01*
X350920Y395343D01*
X350513Y394936D01*
X350181Y394135D01*
Y393267D01*
X350513Y392465D01*
X351127Y391852D01*
X351928Y391520D01*
X352796D01*
X353598Y391852D01*
X354004Y392258D01*
X354331Y392410D01*
X354657Y392258D01*
X355064Y391852D01*
X355865Y391520D01*
X356733D01*
X357535Y391852D01*
X357941Y392258D01*
X358268Y392410D01*
X358594Y392258D01*
X359001Y391852D01*
X359802Y391520D01*
X360670D01*
X361472Y391852D01*
X362085Y392465D01*
X362417Y393267D01*
Y394135D01*
X362085Y394936D01*
X361679Y395343D01*
X361527Y395669D01*
X361679Y395996D01*
X362085Y396402D01*
X362417Y397204D01*
Y398072D01*
X362085Y398873D01*
X361679Y399280D01*
X361527Y399606D01*
X361679Y399933D01*
X362085Y400339D01*
X362417Y401141D01*
Y402009D01*
X362085Y402810D01*
X361472Y403424D01*
X360670Y403756D01*
D02*
G37*
G36*
X483505Y406512D02*
X482637D01*
X481835Y406180D01*
X481222Y405566D01*
X480890Y404765D01*
Y403897D01*
X481222Y403095D01*
X481835Y402482D01*
X482637Y402150D01*
X483505D01*
X484306Y402482D01*
X484920Y403095D01*
X485252Y403897D01*
Y404765D01*
X484920Y405566D01*
X484306Y406180D01*
X483505Y406512D01*
D02*
G37*
G36*
X289326Y429961D02*
X288155D01*
X287023Y429657D01*
X286009Y429072D01*
X285180Y428243D01*
X284594Y427229D01*
X284291Y426097D01*
Y424926D01*
X284594Y423795D01*
X285180Y422780D01*
X286009Y421952D01*
X287023Y421366D01*
X288155Y421063D01*
X289326D01*
X290457Y421366D01*
X291290Y421847D01*
X294264Y418872D01*
Y394882D01*
X294264Y394881D01*
X293803Y394635D01*
X293189Y395250D01*
Y396097D01*
X292886Y397229D01*
X292300Y398243D01*
X291472Y399072D01*
X290457Y399657D01*
X289326Y399961D01*
X288155D01*
X287023Y399657D01*
X286009Y399072D01*
X285311Y398374D01*
X284811Y398559D01*
Y400152D01*
X286390Y401731D01*
X287023Y401366D01*
X288155Y401063D01*
X289326D01*
X290457Y401366D01*
X291472Y401952D01*
X292300Y402780D01*
X292886Y403795D01*
X293189Y404926D01*
Y406098D01*
X292886Y407229D01*
X292300Y408243D01*
X291472Y409072D01*
X290457Y409657D01*
X289326Y409961D01*
X288155D01*
X287023Y409657D01*
X286009Y409072D01*
X285180Y408243D01*
X284594Y407229D01*
X284291Y406098D01*
Y404926D01*
X284594Y403795D01*
X284960Y403162D01*
X283084Y401286D01*
X282865Y400958D01*
X282788Y400571D01*
Y393465D01*
X282865Y393078D01*
X283084Y392750D01*
X285411Y390423D01*
X285220Y389961D01*
X284291D01*
Y381063D01*
X291758D01*
X297552Y375269D01*
X297881Y375050D01*
X298268Y374973D01*
X340578D01*
X340671Y374749D01*
X341284Y374135D01*
X342086Y373803D01*
X342953D01*
X343755Y374135D01*
X344369Y374749D01*
X344701Y375550D01*
Y376418D01*
X344369Y377220D01*
X343948Y377641D01*
X343839Y378013D01*
X343962Y378279D01*
X344420Y378737D01*
X344752Y379538D01*
Y380406D01*
X344420Y381207D01*
X343806Y381821D01*
X343004Y382153D01*
X342137D01*
X341335Y381821D01*
X340721Y381207D01*
X340629Y380984D01*
X329263D01*
X329056Y381484D01*
X329408Y381835D01*
X329740Y382637D01*
Y383505D01*
X329408Y384306D01*
X329361Y384353D01*
X329553Y384815D01*
X340578D01*
X340671Y384591D01*
X341284Y383978D01*
X342086Y383646D01*
X342953D01*
X343755Y383978D01*
X344369Y384591D01*
X344701Y385393D01*
Y386261D01*
X344369Y387062D01*
X343962Y387469D01*
X343811Y387795D01*
X343962Y388122D01*
X344369Y388528D01*
X344701Y389330D01*
Y390198D01*
X344369Y390999D01*
X343962Y391406D01*
X343811Y391732D01*
X343962Y392059D01*
X344369Y392465D01*
X344701Y393267D01*
Y394135D01*
X344369Y394936D01*
X343755Y395550D01*
X342953Y395882D01*
X342086D01*
X341284Y395550D01*
X340671Y394936D01*
X340339Y394135D01*
Y393267D01*
X340671Y392465D01*
X341077Y392059D01*
X341229Y391732D01*
X341077Y391406D01*
X340671Y390999D01*
X340578Y390775D01*
X300813D01*
X296287Y395301D01*
Y419291D01*
X296210Y419678D01*
X295991Y420007D01*
X292636Y423362D01*
X292886Y423795D01*
X293189Y424926D01*
Y426097D01*
X292886Y427229D01*
X292300Y428243D01*
X291472Y429072D01*
X290457Y429657D01*
X289326Y429961D01*
D02*
G37*
G36*
X483505Y395488D02*
X482637D01*
X481835Y395156D01*
X481222Y394543D01*
X480890Y393741D01*
Y392873D01*
X481222Y392072D01*
X481835Y391458D01*
X482637Y391126D01*
X483505D01*
X484306Y391458D01*
X484920Y392072D01*
X485252Y392873D01*
Y393741D01*
X484920Y394543D01*
X484306Y395156D01*
X483505Y395488D01*
D02*
G37*
G36*
X445316Y389976D02*
X444448D01*
X443646Y389644D01*
X443033Y389031D01*
X442701Y388229D01*
Y387361D01*
X443033Y386560D01*
X443646Y385946D01*
X444448Y385614D01*
X445316D01*
X446117Y385946D01*
X446731Y386560D01*
X447063Y387361D01*
Y388229D01*
X446731Y389031D01*
X446117Y389644D01*
X445316Y389976D01*
D02*
G37*
G36*
X483505Y388402D02*
X482637D01*
X481835Y388070D01*
X481222Y387456D01*
X480890Y386654D01*
Y385787D01*
X481222Y384985D01*
X481835Y384371D01*
X482637Y384039D01*
X483505D01*
X484306Y384371D01*
X484920Y384985D01*
X485252Y385787D01*
Y386654D01*
X484920Y387456D01*
X484306Y388070D01*
X483505Y388402D01*
D02*
G37*
G36*
X403977Y388402D02*
X403110D01*
X402308Y388070D01*
X401694Y387456D01*
X401362Y386654D01*
Y385787D01*
X401694Y384985D01*
X402308Y384371D01*
X403110Y384039D01*
X403977D01*
X404779Y384371D01*
X405392Y384985D01*
X405724Y385787D01*
Y386654D01*
X405392Y387456D01*
X404779Y388070D01*
X403977Y388402D01*
D02*
G37*
G36*
X660009Y388110D02*
X658889D01*
X657808Y387821D01*
X656838Y387261D01*
X656046Y386469D01*
X655487Y385500D01*
X655197Y384418D01*
Y383298D01*
X655487Y382217D01*
X656046Y381247D01*
X656838Y380456D01*
X657808Y379896D01*
X658889Y379606D01*
X660009D01*
X661090Y379896D01*
X662060Y380456D01*
X662851Y381247D01*
X663411Y382217D01*
X663701Y383298D01*
Y384418D01*
X663411Y385500D01*
X662851Y386469D01*
X662060Y387261D01*
X661090Y387821D01*
X660009Y388110D01*
D02*
G37*
G36*
X390224Y374202D02*
X389356D01*
X388554Y373870D01*
X387941Y373257D01*
X387609Y372455D01*
Y371587D01*
X387941Y370786D01*
X388554Y370172D01*
X389356Y369840D01*
X390224D01*
X391025Y370172D01*
X391639Y370786D01*
X391971Y371587D01*
Y372455D01*
X391639Y373257D01*
X391025Y373870D01*
X390224Y374202D01*
D02*
G37*
G36*
X660009Y378268D02*
X658889D01*
X657808Y377978D01*
X656838Y377418D01*
X656046Y376626D01*
X655487Y375657D01*
X655197Y374575D01*
Y373456D01*
X655487Y372375D01*
X656046Y371405D01*
X656838Y370613D01*
X657808Y370054D01*
X658889Y369764D01*
X660009D01*
X661090Y370054D01*
X662060Y370613D01*
X662851Y371405D01*
X663411Y372375D01*
X663701Y373456D01*
Y374575D01*
X663411Y375657D01*
X662851Y376626D01*
X662060Y377418D01*
X661090Y377978D01*
X660009Y378268D01*
D02*
G37*
G36*
X650166D02*
X649047D01*
X647965Y377978D01*
X646996Y377418D01*
X646204Y376626D01*
X645644Y375657D01*
X645354Y374575D01*
Y373456D01*
X645644Y372375D01*
X646204Y371405D01*
X646996Y370613D01*
X647965Y370054D01*
X649047Y369764D01*
X650166D01*
X651248Y370054D01*
X652217Y370613D01*
X653009Y371405D01*
X653569Y372375D01*
X653858Y373456D01*
Y374575D01*
X653569Y375657D01*
X653009Y376626D01*
X652217Y377418D01*
X651248Y377978D01*
X650166Y378268D01*
D02*
G37*
G36*
X403977Y369504D02*
X403110D01*
X402308Y369172D01*
X401694Y368558D01*
X401362Y367757D01*
Y366889D01*
X401694Y366087D01*
X402308Y365474D01*
X403110Y365142D01*
X403977D01*
X404779Y365474D01*
X405392Y366087D01*
X405724Y366889D01*
Y367757D01*
X405392Y368558D01*
X404779Y369172D01*
X403977Y369504D01*
D02*
G37*
G36*
X660009Y368425D02*
X658889D01*
X657808Y368135D01*
X656838Y367576D01*
X656046Y366784D01*
X655487Y365814D01*
X655197Y364733D01*
Y363614D01*
X655487Y362532D01*
X656046Y361562D01*
X656838Y360771D01*
X657808Y360211D01*
X658889Y359921D01*
X660009D01*
X661090Y360211D01*
X662060Y360771D01*
X662851Y361562D01*
X663411Y362532D01*
X663701Y363614D01*
Y364733D01*
X663411Y365814D01*
X662851Y366784D01*
X662060Y367576D01*
X661090Y368135D01*
X660009Y368425D01*
D02*
G37*
G36*
X650166D02*
X649047D01*
X647965Y368135D01*
X646996Y367576D01*
X646204Y366784D01*
X645644Y365814D01*
X645354Y364733D01*
Y363614D01*
X645644Y362532D01*
X646204Y361562D01*
X646996Y360771D01*
X647965Y360211D01*
X649047Y359921D01*
X650166D01*
X651248Y360211D01*
X652217Y360771D01*
X653009Y361562D01*
X653569Y362532D01*
X653858Y363614D01*
Y364733D01*
X653569Y365814D01*
X653009Y366784D01*
X652217Y367576D01*
X651248Y368135D01*
X650166Y368425D01*
D02*
G37*
G36*
X640324D02*
X639204D01*
X638123Y368135D01*
X637153Y367576D01*
X636361Y366784D01*
X635802Y365814D01*
X635512Y364733D01*
Y363614D01*
X635802Y362532D01*
X636361Y361562D01*
X637153Y360771D01*
X638123Y360211D01*
X639204Y359921D01*
X640324D01*
X641405Y360211D01*
X642375Y360771D01*
X643166Y361562D01*
X643726Y362532D01*
X644016Y363614D01*
Y364733D01*
X643726Y365814D01*
X643166Y366784D01*
X642375Y367576D01*
X641405Y368135D01*
X640324Y368425D01*
D02*
G37*
G36*
X348566Y361604D02*
X347698D01*
X346897Y361272D01*
X346283Y360658D01*
X345951Y359857D01*
Y358989D01*
X346283Y358187D01*
X346897Y357574D01*
X347698Y357242D01*
X348566D01*
X349368Y357574D01*
X349981Y358187D01*
X350313Y358989D01*
Y359857D01*
X349981Y360658D01*
X349368Y361272D01*
X348566Y361604D01*
D02*
G37*
G36*
X660009Y358583D02*
X658889D01*
X657808Y358293D01*
X656838Y357733D01*
X656046Y356942D01*
X655487Y355972D01*
X655197Y354890D01*
Y353771D01*
X655487Y352690D01*
X656046Y351720D01*
X656838Y350928D01*
X657808Y350368D01*
X658889Y350079D01*
X660009D01*
X661090Y350368D01*
X662060Y350928D01*
X662851Y351720D01*
X663411Y352690D01*
X663701Y353771D01*
Y354890D01*
X663411Y355972D01*
X662851Y356942D01*
X662060Y357733D01*
X661090Y358293D01*
X660009Y358583D01*
D02*
G37*
G36*
X650166D02*
X649047D01*
X647965Y358293D01*
X646996Y357733D01*
X646204Y356942D01*
X645644Y355972D01*
X645354Y354890D01*
Y353771D01*
X645644Y352690D01*
X646204Y351720D01*
X646996Y350928D01*
X647965Y350368D01*
X649047Y350079D01*
X650166D01*
X651248Y350368D01*
X652217Y350928D01*
X653009Y351720D01*
X653569Y352690D01*
X653858Y353771D01*
Y354890D01*
X653569Y355972D01*
X653009Y356942D01*
X652217Y357733D01*
X651248Y358293D01*
X650166Y358583D01*
D02*
G37*
G36*
X365001Y346669D02*
X364133D01*
X363331Y346337D01*
X362718Y345724D01*
X362508Y345216D01*
X361851Y345488D01*
X360983D01*
X360327Y345216D01*
X360117Y345724D01*
X359503Y346337D01*
X358702Y346669D01*
X357834D01*
X357032Y346337D01*
X356419Y345724D01*
X356210Y345220D01*
X355552Y345493D01*
X354684D01*
X354026Y345220D01*
X353818Y345724D01*
X353204Y346337D01*
X352402Y346669D01*
X351535D01*
X350733Y346337D01*
X350119Y345724D01*
X349909Y345216D01*
X349253Y345488D01*
X348385D01*
X347728Y345216D01*
X347518Y345724D01*
X346905Y346337D01*
X346103Y346669D01*
X345235D01*
X344434Y346337D01*
X343820Y345724D01*
X343488Y344922D01*
Y344054D01*
X343820Y343253D01*
X344434Y342639D01*
X345235Y342307D01*
X346103D01*
X346760Y342579D01*
X346970Y342072D01*
X347583Y341458D01*
X348385Y341126D01*
X349253D01*
X350054Y341458D01*
X350668Y342072D01*
X350878Y342579D01*
X351535Y342307D01*
X352402D01*
X353061Y342580D01*
X353269Y342076D01*
X353883Y341463D01*
X354684Y341130D01*
X355552D01*
X356354Y341463D01*
X356967Y342076D01*
X357176Y342580D01*
X357834Y342307D01*
X358702D01*
X359358Y342579D01*
X359568Y342072D01*
X360182Y341458D01*
X360983Y341126D01*
X361851D01*
X362653Y341458D01*
X363266Y342072D01*
X363476Y342579D01*
X364133Y342307D01*
X365001D01*
X365357Y342455D01*
X365951Y342329D01*
X366564Y341716D01*
X367366Y341383D01*
X368234D01*
X369035Y341716D01*
X369649Y342329D01*
X369981Y343131D01*
Y343998D01*
X369649Y344800D01*
X369035Y345414D01*
X368234Y345746D01*
X367366D01*
X367009Y345598D01*
X366416Y345724D01*
X365802Y346337D01*
X365001Y346669D01*
D02*
G37*
G36*
X394528Y347457D02*
X393661D01*
X392859Y347125D01*
X392245Y346511D01*
X391913Y345709D01*
Y344842D01*
X392245Y344040D01*
X392859Y343426D01*
X393661Y343094D01*
X394528D01*
X395330Y343426D01*
X395943Y344040D01*
X396276Y344842D01*
Y345709D01*
X395943Y346511D01*
X395330Y347125D01*
X394528Y347457D01*
D02*
G37*
G36*
X264739Y342391D02*
X263607D01*
X262514Y342098D01*
X261533Y341532D01*
X260733Y340731D01*
X260167Y339751D01*
X259874Y338657D01*
Y337526D01*
X260167Y336432D01*
X260733Y335452D01*
X261533Y334651D01*
X262514Y334085D01*
X263607Y333792D01*
X264739D01*
X265833Y334085D01*
X266813Y334651D01*
X267614Y335452D01*
X268179Y336432D01*
X268472Y337526D01*
Y338657D01*
X268179Y339751D01*
X267614Y340731D01*
X266813Y341532D01*
X265833Y342098D01*
X264739Y342391D01*
D02*
G37*
G36*
X384326Y332890D02*
X383458D01*
X382656Y332558D01*
X382120Y332022D01*
X381584Y332558D01*
X380782Y332890D01*
X379915D01*
X379113Y332558D01*
X378499Y331944D01*
X378167Y331142D01*
Y330275D01*
X378499Y329473D01*
X379113Y328860D01*
X379915Y328528D01*
X380782D01*
X381584Y328860D01*
X382120Y329396D01*
X382656Y328860D01*
X383458Y328528D01*
X384326D01*
X385127Y328860D01*
X385741Y329473D01*
X386073Y330275D01*
Y331142D01*
X385741Y331944D01*
X385127Y332558D01*
X384326Y332890D01*
D02*
G37*
G36*
X357914Y332890D02*
X357047D01*
X356245Y332558D01*
X355709Y332021D01*
X355172Y332558D01*
X354371Y332890D01*
X353503D01*
X352701Y332558D01*
X352088Y331944D01*
X351756Y331142D01*
Y330275D01*
X352088Y329473D01*
X352701Y328860D01*
X353503Y328528D01*
X354371D01*
X355172Y328860D01*
X355709Y329396D01*
X356245Y328860D01*
X357047Y328528D01*
X357914D01*
X358716Y328860D01*
X359329Y329473D01*
X359661Y330275D01*
Y331142D01*
X359329Y331944D01*
X358716Y332558D01*
X357914Y332890D01*
D02*
G37*
G36*
X349253D02*
X348385D01*
X347583Y332558D01*
X347047Y332021D01*
X346511Y332558D01*
X345709Y332890D01*
X344842D01*
X344040Y332558D01*
X343426Y331944D01*
X343094Y331142D01*
Y330275D01*
X343426Y329473D01*
X344040Y328860D01*
X344842Y328528D01*
X345709D01*
X346511Y328860D01*
X347047Y329396D01*
X347583Y328860D01*
X348385Y328528D01*
X349253D01*
X350054Y328860D01*
X350668Y329473D01*
X351000Y330275D01*
Y331142D01*
X350668Y331944D01*
X350054Y332558D01*
X349253Y332890D01*
D02*
G37*
G36*
X331930D02*
X331062D01*
X330261Y332558D01*
X329724Y332021D01*
X329188Y332558D01*
X328387Y332890D01*
X327519D01*
X326717Y332558D01*
X326104Y331944D01*
X325772Y331142D01*
Y330275D01*
X326104Y329473D01*
X326717Y328860D01*
X327519Y328528D01*
X328387D01*
X329188Y328860D01*
X329724Y329396D01*
X330261Y328860D01*
X331062Y328528D01*
X331930D01*
X332732Y328860D01*
X333345Y329473D01*
X333677Y330275D01*
Y331142D01*
X333345Y331944D01*
X332732Y332558D01*
X331930Y332890D01*
D02*
G37*
G36*
X660009Y338898D02*
X658889D01*
X657808Y338608D01*
X656838Y338048D01*
X656046Y337256D01*
X655487Y336287D01*
X655197Y335206D01*
Y334086D01*
X655487Y333004D01*
X656046Y332035D01*
X656838Y331243D01*
X657808Y330683D01*
X658889Y330394D01*
X660009D01*
X661090Y330683D01*
X662060Y331243D01*
X662851Y332035D01*
X663411Y333004D01*
X663701Y334086D01*
Y335206D01*
X663411Y336287D01*
X662851Y337256D01*
X662060Y338048D01*
X661090Y338608D01*
X660009Y338898D01*
D02*
G37*
G36*
X389460Y332890D02*
X388593D01*
X387791Y332558D01*
X387178Y331944D01*
X386845Y331142D01*
Y330275D01*
X387178Y329473D01*
X387791Y328860D01*
X388593Y328528D01*
X389460D01*
X390262Y328860D01*
X390773Y329371D01*
X391284Y328860D01*
X392086Y328528D01*
X392953D01*
X393755Y328860D01*
X394369Y329473D01*
X394701Y330275D01*
Y331142D01*
X394369Y331944D01*
X393755Y332558D01*
X392953Y332890D01*
X392086D01*
X391284Y332558D01*
X390773Y332047D01*
X390262Y332558D01*
X389460Y332890D01*
D02*
G37*
G36*
X363426D02*
X362558D01*
X361757Y332558D01*
X361143Y331944D01*
X360811Y331142D01*
Y330275D01*
X361143Y329473D01*
X361757Y328860D01*
X362558Y328528D01*
X363426D01*
X364228Y328860D01*
X364764Y329396D01*
X365300Y328860D01*
X366102Y328528D01*
X366969D01*
X367771Y328860D01*
X368385Y329473D01*
X368717Y330275D01*
Y331142D01*
X368385Y331944D01*
X367771Y332558D01*
X366969Y332890D01*
X366102D01*
X365300Y332558D01*
X364764Y332021D01*
X364228Y332558D01*
X363426Y332890D01*
D02*
G37*
G36*
X336926Y332999D02*
X336058D01*
X335257Y332667D01*
X334643Y332054D01*
X334311Y331252D01*
Y330384D01*
X334643Y329583D01*
X335257Y328969D01*
X336058Y328637D01*
X336926D01*
X337728Y328969D01*
X337932Y329174D01*
X338624Y329158D01*
X338922Y328860D01*
X339724Y328528D01*
X340591D01*
X341393Y328860D01*
X342006Y329473D01*
X342339Y330275D01*
Y331142D01*
X342006Y331944D01*
X341393Y332558D01*
X340591Y332890D01*
X339724D01*
X338922Y332558D01*
X338405Y332041D01*
X338341Y332054D01*
X337728Y332667D01*
X336926Y332999D01*
D02*
G37*
G36*
X372104Y332890D02*
X371236D01*
X370435Y332558D01*
X369821Y331944D01*
X369489Y331142D01*
Y330275D01*
X369821Y329473D01*
X370435Y328860D01*
X371236Y328528D01*
X372104D01*
X372906Y328860D01*
X373426Y329380D01*
X373961Y328844D01*
X374763Y328512D01*
X375631D01*
X376432Y328844D01*
X377046Y329457D01*
X377378Y330259D01*
Y331127D01*
X377046Y331928D01*
X376432Y332542D01*
X375631Y332874D01*
X374763D01*
X373961Y332542D01*
X373441Y332022D01*
X372906Y332558D01*
X372104Y332890D01*
D02*
G37*
G36*
X497678Y328953D02*
X496810D01*
X496009Y328621D01*
X495395Y328007D01*
X495063Y327205D01*
Y326338D01*
X495395Y325536D01*
X496009Y324923D01*
X496810Y324590D01*
X497678D01*
X498480Y324923D01*
X499093Y325536D01*
X499425Y326338D01*
Y327205D01*
X499093Y328007D01*
X498480Y328621D01*
X497678Y328953D01*
D02*
G37*
G36*
X464607D02*
X463739D01*
X462938Y328621D01*
X462324Y328007D01*
X461992Y327205D01*
Y326338D01*
X462324Y325536D01*
X462938Y324923D01*
X463739Y324590D01*
X464607D01*
X465409Y324923D01*
X466022Y325536D01*
X466354Y326338D01*
Y327205D01*
X466022Y328007D01*
X465409Y328621D01*
X464607Y328953D01*
D02*
G37*
G36*
X660009Y329055D02*
X658889D01*
X657808Y328765D01*
X656838Y328206D01*
X656046Y327414D01*
X655487Y326444D01*
X655197Y325363D01*
Y324243D01*
X655487Y323162D01*
X656046Y322192D01*
X656838Y321401D01*
X657808Y320841D01*
X658889Y320551D01*
X660009D01*
X661090Y320841D01*
X662060Y321401D01*
X662851Y322192D01*
X663411Y323162D01*
X663701Y324243D01*
Y325363D01*
X663411Y326444D01*
X662851Y327414D01*
X662060Y328206D01*
X661090Y328765D01*
X660009Y329055D01*
D02*
G37*
G36*
X497678Y321079D02*
X496810D01*
X496009Y320747D01*
X495395Y320133D01*
X495063Y319332D01*
Y318464D01*
X495395Y317662D01*
X496009Y317049D01*
X496810Y316717D01*
X497678D01*
X498480Y317049D01*
X499093Y317662D01*
X499425Y318464D01*
Y319332D01*
X499093Y320133D01*
X498480Y320747D01*
X497678Y321079D01*
D02*
G37*
G36*
X464607D02*
X463739D01*
X462938Y320747D01*
X462324Y320133D01*
X461992Y319332D01*
Y318464D01*
X462324Y317662D01*
X462938Y317049D01*
X463739Y316717D01*
X464607D01*
X465409Y317049D01*
X466022Y317662D01*
X466354Y318464D01*
Y319332D01*
X466022Y320133D01*
X465409Y320747D01*
X464607Y321079D01*
D02*
G37*
G36*
X660009Y319213D02*
X658889D01*
X657808Y318923D01*
X656838Y318363D01*
X656046Y317571D01*
X655487Y316602D01*
X655197Y315520D01*
Y314401D01*
X655487Y313319D01*
X656046Y312350D01*
X656838Y311558D01*
X657808Y310998D01*
X658889Y310709D01*
X660009D01*
X661090Y310998D01*
X662060Y311558D01*
X662851Y312350D01*
X663411Y313319D01*
X663701Y314401D01*
Y315520D01*
X663411Y316602D01*
X662851Y317571D01*
X662060Y318363D01*
X661090Y318923D01*
X660009Y319213D01*
D02*
G37*
G36*
X630481D02*
X629361D01*
X628280Y318923D01*
X627311Y318363D01*
X626519Y317571D01*
X625959Y316602D01*
X625669Y315520D01*
Y314401D01*
X625959Y313319D01*
X626519Y312350D01*
X627311Y311558D01*
X628280Y310998D01*
X629361Y310709D01*
X630481D01*
X631563Y310998D01*
X632532Y311558D01*
X633324Y312350D01*
X633883Y313319D01*
X634173Y314401D01*
Y315520D01*
X633883Y316602D01*
X633324Y317571D01*
X632532Y318363D01*
X631563Y318923D01*
X630481Y319213D01*
D02*
G37*
G36*
X288623Y313656D02*
X287755D01*
X286953Y313324D01*
X286340Y312711D01*
X286008Y311909D01*
Y311041D01*
X286340Y310240D01*
X286953Y309626D01*
X287755Y309294D01*
X288623D01*
X289424Y309626D01*
X290038Y310240D01*
X290370Y311041D01*
Y311909D01*
X290038Y312711D01*
X289424Y313324D01*
X288623Y313656D01*
D02*
G37*
G36*
X570802Y306858D02*
X569670D01*
X568577Y306565D01*
X567596Y305999D01*
X566796Y305199D01*
X566230Y304219D01*
X565937Y303125D01*
Y301993D01*
X566230Y300900D01*
X566796Y299919D01*
X567596Y299119D01*
X568577Y298553D01*
X569670Y298260D01*
X570802D01*
X571896Y298553D01*
X572876Y299119D01*
X573676Y299919D01*
X574242Y300900D01*
X574535Y301993D01*
Y303125D01*
X574242Y304219D01*
X573676Y305199D01*
X572876Y305999D01*
X571896Y306565D01*
X570802Y306858D01*
D02*
G37*
G36*
X560802D02*
X559670D01*
X558577Y306565D01*
X557596Y305999D01*
X556796Y305199D01*
X556230Y304219D01*
X555937Y303125D01*
Y301993D01*
X556230Y300900D01*
X556796Y299919D01*
X557596Y299119D01*
X558577Y298553D01*
X559670Y298260D01*
X560802D01*
X561896Y298553D01*
X562876Y299119D01*
X563677Y299919D01*
X564243Y300900D01*
X564535Y301993D01*
Y303125D01*
X564243Y304219D01*
X563677Y305199D01*
X562876Y305999D01*
X561896Y306565D01*
X560802Y306858D01*
D02*
G37*
G36*
X550802D02*
X549670D01*
X548577Y306565D01*
X547596Y305999D01*
X546796Y305199D01*
X546230Y304219D01*
X545937Y303125D01*
Y301993D01*
X546230Y300900D01*
X546796Y299919D01*
X547596Y299119D01*
X548577Y298553D01*
X549670Y298260D01*
X550802D01*
X551896Y298553D01*
X552876Y299119D01*
X553677Y299919D01*
X554243Y300900D01*
X554535Y301993D01*
Y303125D01*
X554243Y304219D01*
X553677Y305199D01*
X552876Y305999D01*
X551896Y306565D01*
X550802Y306858D01*
D02*
G37*
G36*
X604331Y316929D02*
X584646Y316929D01*
X584646Y297244D01*
X604331Y297244D01*
X604331Y316929D01*
D02*
G37*
G36*
X626558Y295394D02*
X625410D01*
X624285Y295170D01*
X623224Y294730D01*
X622270Y294093D01*
X621458Y293281D01*
X620821Y292327D01*
X620381Y291267D01*
X620157Y290141D01*
Y288993D01*
X620381Y287867D01*
X620821Y286807D01*
X621458Y285853D01*
X622270Y285041D01*
X623224Y284403D01*
X624285Y283964D01*
X625410Y283740D01*
X626558D01*
X627684Y283964D01*
X628744Y284403D01*
X629699Y285041D01*
X630510Y285853D01*
X631148Y286807D01*
X631587Y287867D01*
X631811Y288993D01*
Y290141D01*
X631587Y291267D01*
X631148Y292327D01*
X630510Y293281D01*
X629699Y294093D01*
X628744Y294730D01*
X627684Y295170D01*
X626558Y295394D01*
D02*
G37*
G36*
X453190Y277772D02*
X452322D01*
X451520Y277440D01*
X450907Y276826D01*
X450575Y276024D01*
Y275157D01*
X450907Y274355D01*
X451520Y273742D01*
X452322Y273410D01*
X453190D01*
X453991Y273742D01*
X454605Y274355D01*
X454937Y275157D01*
Y276024D01*
X454605Y276826D01*
X453991Y277440D01*
X453190Y277772D01*
D02*
G37*
G36*
X433505D02*
X432637D01*
X431835Y277440D01*
X431222Y276826D01*
X430890Y276024D01*
Y275157D01*
X431222Y274355D01*
X431835Y273742D01*
X432637Y273410D01*
X433505D01*
X434306Y273742D01*
X434920Y274355D01*
X435252Y275157D01*
Y276024D01*
X434920Y276826D01*
X434306Y277440D01*
X433505Y277772D01*
D02*
G37*
G36*
X413820D02*
X412952D01*
X412150Y277440D01*
X411537Y276826D01*
X411205Y276024D01*
Y275157D01*
X411537Y274355D01*
X412150Y273742D01*
X412952Y273410D01*
X413820D01*
X414621Y273742D01*
X415235Y274355D01*
X415567Y275157D01*
Y276024D01*
X415235Y276826D01*
X414621Y277440D01*
X413820Y277772D01*
D02*
G37*
G36*
X394135D02*
X393267D01*
X392465Y277440D01*
X391852Y276826D01*
X391520Y276024D01*
Y275157D01*
X391852Y274355D01*
X392465Y273742D01*
X393267Y273410D01*
X394135D01*
X394936Y273742D01*
X395550Y274355D01*
X395882Y275157D01*
Y276024D01*
X395550Y276826D01*
X394936Y277440D01*
X394135Y277772D01*
D02*
G37*
G36*
X374450D02*
X373582D01*
X372780Y277440D01*
X372167Y276826D01*
X371835Y276024D01*
Y275157D01*
X372167Y274355D01*
X372780Y273742D01*
X373582Y273410D01*
X374450D01*
X375251Y273742D01*
X375865Y274355D01*
X376197Y275157D01*
Y276024D01*
X375865Y276826D01*
X375251Y277440D01*
X374450Y277772D01*
D02*
G37*
G36*
X354765D02*
X353897D01*
X353095Y277440D01*
X352482Y276826D01*
X352150Y276024D01*
Y275157D01*
X352482Y274355D01*
X353095Y273742D01*
X353897Y273410D01*
X354765D01*
X355566Y273742D01*
X356180Y274355D01*
X356512Y275157D01*
Y276024D01*
X356180Y276826D01*
X355566Y277440D01*
X354765Y277772D01*
D02*
G37*
G36*
X335080D02*
X334212D01*
X333410Y277440D01*
X332797Y276826D01*
X332465Y276024D01*
Y275157D01*
X332797Y274355D01*
X333410Y273742D01*
X334212Y273410D01*
X335080D01*
X335881Y273742D01*
X336495Y274355D01*
X336827Y275157D01*
Y276024D01*
X336495Y276826D01*
X335881Y277440D01*
X335080Y277772D01*
D02*
G37*
G36*
X315394D02*
X314527D01*
X313725Y277440D01*
X313112Y276826D01*
X312779Y276024D01*
Y275157D01*
X313112Y274355D01*
X313725Y273742D01*
X314527Y273410D01*
X315394D01*
X316196Y273742D01*
X316810Y274355D01*
X317142Y275157D01*
Y276024D01*
X316810Y276826D01*
X316196Y277440D01*
X315394Y277772D01*
D02*
G37*
G36*
X295709D02*
X294842D01*
X294040Y277440D01*
X293426Y276826D01*
X293094Y276024D01*
Y275157D01*
X293426Y274355D01*
X294040Y273742D01*
X294842Y273410D01*
X295709D01*
X296511Y273742D01*
X297125Y274355D01*
X297457Y275157D01*
Y276024D01*
X297125Y276826D01*
X296511Y277440D01*
X295709Y277772D01*
D02*
G37*
G36*
X643049Y283780D02*
X641203D01*
X639393Y283419D01*
X637688Y282713D01*
X636153Y281688D01*
X634848Y280382D01*
X633822Y278848D01*
X633116Y277143D01*
X632756Y275332D01*
Y273487D01*
X633116Y271676D01*
X633822Y269971D01*
X634848Y268436D01*
X636153Y267131D01*
X637688Y266106D01*
X639393Y265400D01*
X641203Y265039D01*
X643049D01*
X644859Y265400D01*
X646564Y266106D01*
X648099Y267131D01*
X649404Y268436D01*
X650430Y269971D01*
X651136Y271676D01*
X651496Y273487D01*
Y275332D01*
X651136Y277143D01*
X650430Y278848D01*
X649404Y280382D01*
X648099Y281688D01*
X646564Y282713D01*
X644859Y283419D01*
X643049Y283780D01*
D02*
G37*
G36*
X570394Y274272D02*
X568911D01*
X567479Y273888D01*
X566196Y273147D01*
X565147Y272099D01*
X564406Y270815D01*
X564023Y269383D01*
Y267901D01*
X564406Y266469D01*
X565147Y265185D01*
X566196Y264137D01*
X567479Y263396D01*
X568911Y263012D01*
X570394D01*
X571826Y263396D01*
X573109Y264137D01*
X574158Y265185D01*
X574899Y266469D01*
X575282Y267901D01*
Y269383D01*
X574899Y270815D01*
X574158Y272099D01*
X573109Y273147D01*
X571826Y273888D01*
X570394Y274272D01*
D02*
G37*
G36*
X557008D02*
X555525D01*
X554094Y273888D01*
X552810Y273147D01*
X551762Y272099D01*
X551020Y270815D01*
X550637Y269383D01*
Y267901D01*
X551020Y266469D01*
X551762Y265185D01*
X552810Y264137D01*
X554094Y263396D01*
X555525Y263012D01*
X557008D01*
X558440Y263396D01*
X559724Y264137D01*
X560772Y265185D01*
X561513Y266469D01*
X561897Y267901D01*
Y269383D01*
X561513Y270815D01*
X560772Y272099D01*
X559724Y273147D01*
X558440Y273888D01*
X557008Y274272D01*
D02*
G37*
G36*
X540834D02*
X539351D01*
X537919Y273888D01*
X536636Y273147D01*
X535587Y272099D01*
X534846Y270815D01*
X534462Y269383D01*
Y267901D01*
X534846Y266469D01*
X535587Y265185D01*
X536636Y264137D01*
X537919Y263396D01*
X539351Y263012D01*
X540834D01*
X542266Y263396D01*
X543549Y264137D01*
X544597Y265185D01*
X545339Y266469D01*
X545722Y267901D01*
Y269383D01*
X545339Y270815D01*
X544597Y272099D01*
X543549Y273147D01*
X542266Y273888D01*
X540834Y274272D01*
D02*
G37*
G36*
X527448D02*
X525965D01*
X524534Y273888D01*
X523250Y273147D01*
X522202Y272099D01*
X521460Y270815D01*
X521077Y269383D01*
Y267901D01*
X521460Y266469D01*
X522202Y265185D01*
X523250Y264137D01*
X524534Y263396D01*
X525965Y263012D01*
X527448D01*
X528880Y263396D01*
X530163Y264137D01*
X531212Y265185D01*
X531953Y266469D01*
X532337Y267901D01*
Y269383D01*
X531953Y270815D01*
X531212Y272099D01*
X530163Y273147D01*
X528880Y273888D01*
X527448Y274272D01*
D02*
G37*
G36*
X474680Y262261D02*
X473312D01*
X471990Y261907D01*
X470805Y261223D01*
X469838Y260255D01*
X469153Y259070D01*
X468799Y257748D01*
Y256380D01*
X469153Y255058D01*
X469838Y253873D01*
X470805Y252906D01*
X471990Y252221D01*
X473312Y251867D01*
X474680D01*
X476002Y252221D01*
X477187Y252906D01*
X478155Y253873D01*
X478839Y255058D01*
X479193Y256380D01*
Y257748D01*
X478839Y259070D01*
X478155Y260255D01*
X477187Y261223D01*
X476002Y261907D01*
X474680Y262261D01*
D02*
G37*
G36*
X282594Y250512D02*
X281225D01*
X279904Y250158D01*
X278718Y249474D01*
X277751Y248506D01*
X277067Y247321D01*
X276713Y245999D01*
Y244631D01*
X277067Y243309D01*
X277751Y242124D01*
X278718Y241156D01*
X279904Y240472D01*
X281225Y240118D01*
X282594D01*
X283915Y240472D01*
X285100Y241156D01*
X286068Y242124D01*
X286752Y243309D01*
X287106Y244631D01*
Y245999D01*
X286752Y247321D01*
X286068Y248506D01*
X285100Y249474D01*
X283915Y250158D01*
X282594Y250512D01*
D02*
G37*
G36*
X453190Y238402D02*
X452322D01*
X451520Y238070D01*
X450907Y237456D01*
X450575Y236654D01*
Y235787D01*
X450907Y234985D01*
X451520Y234371D01*
X452322Y234039D01*
X453190D01*
X453991Y234371D01*
X454605Y234985D01*
X454937Y235787D01*
Y236654D01*
X454605Y237456D01*
X453991Y238070D01*
X453190Y238402D01*
D02*
G37*
G36*
X433505D02*
X432637D01*
X431835Y238070D01*
X431222Y237456D01*
X430890Y236654D01*
Y235787D01*
X431222Y234985D01*
X431835Y234371D01*
X432637Y234039D01*
X433505D01*
X434306Y234371D01*
X434920Y234985D01*
X435252Y235787D01*
Y236654D01*
X434920Y237456D01*
X434306Y238070D01*
X433505Y238402D01*
D02*
G37*
G36*
X413820D02*
X412952D01*
X412150Y238070D01*
X411537Y237456D01*
X411205Y236654D01*
Y235787D01*
X411537Y234985D01*
X412150Y234371D01*
X412952Y234039D01*
X413820D01*
X414621Y234371D01*
X415235Y234985D01*
X415567Y235787D01*
Y236654D01*
X415235Y237456D01*
X414621Y238070D01*
X413820Y238402D01*
D02*
G37*
G36*
X394135D02*
X393267D01*
X392465Y238070D01*
X391852Y237456D01*
X391520Y236654D01*
Y235787D01*
X391852Y234985D01*
X392465Y234371D01*
X393267Y234039D01*
X394135D01*
X394936Y234371D01*
X395550Y234985D01*
X395882Y235787D01*
Y236654D01*
X395550Y237456D01*
X394936Y238070D01*
X394135Y238402D01*
D02*
G37*
G36*
X374450D02*
X373582D01*
X372780Y238070D01*
X372167Y237456D01*
X371835Y236654D01*
Y235787D01*
X372167Y234985D01*
X372780Y234371D01*
X373582Y234039D01*
X374450D01*
X375251Y234371D01*
X375865Y234985D01*
X376197Y235787D01*
Y236654D01*
X375865Y237456D01*
X375251Y238070D01*
X374450Y238402D01*
D02*
G37*
G36*
X354765D02*
X353897D01*
X353095Y238070D01*
X352482Y237456D01*
X352150Y236654D01*
Y235787D01*
X352482Y234985D01*
X353095Y234371D01*
X353897Y234039D01*
X354765D01*
X355566Y234371D01*
X356180Y234985D01*
X356512Y235787D01*
Y236654D01*
X356180Y237456D01*
X355566Y238070D01*
X354765Y238402D01*
D02*
G37*
G36*
X335080D02*
X334212D01*
X333410Y238070D01*
X332797Y237456D01*
X332465Y236654D01*
Y235787D01*
X332797Y234985D01*
X333410Y234371D01*
X334212Y234039D01*
X335080D01*
X335881Y234371D01*
X336495Y234985D01*
X336827Y235787D01*
Y236654D01*
X336495Y237456D01*
X335881Y238070D01*
X335080Y238402D01*
D02*
G37*
G36*
X315394D02*
X314527D01*
X313725Y238070D01*
X313112Y237456D01*
X312779Y236654D01*
Y235787D01*
X313112Y234985D01*
X313725Y234371D01*
X314527Y234039D01*
X315394D01*
X316196Y234371D01*
X316810Y234985D01*
X317142Y235787D01*
Y236654D01*
X316810Y237456D01*
X316196Y238070D01*
X315394Y238402D01*
D02*
G37*
G36*
X295709D02*
X294842D01*
X294040Y238070D01*
X293426Y237456D01*
X293094Y236654D01*
Y235787D01*
X293426Y234985D01*
X294040Y234371D01*
X294842Y234039D01*
X295709D01*
X296511Y234371D01*
X297125Y234985D01*
X297457Y235787D01*
Y236654D01*
X297125Y237456D01*
X296511Y238070D01*
X295709Y238402D01*
D02*
G37*
G36*
X486930Y238402D02*
X486062D01*
X485261Y238070D01*
X484647Y237456D01*
X484315Y236654D01*
Y235787D01*
X484647Y234985D01*
X485261Y234371D01*
X486062Y234039D01*
X486930D01*
X487732Y234371D01*
X488345Y234985D01*
X488677Y235787D01*
Y236654D01*
X488345Y237456D01*
X487732Y238070D01*
X486930Y238402D01*
D02*
G37*
G36*
X514607Y229740D02*
X513739D01*
X512938Y229408D01*
X512324Y228795D01*
X511992Y227993D01*
Y227125D01*
X512324Y226324D01*
X512938Y225710D01*
X513739Y225378D01*
X514607D01*
X515409Y225710D01*
X516022Y226324D01*
X516354Y227125D01*
Y227993D01*
X516022Y228795D01*
X515409Y229408D01*
X514607Y229740D01*
D02*
G37*
G36*
X486930Y214780D02*
X486062D01*
X485261Y214447D01*
X484647Y213834D01*
X484315Y213032D01*
Y212165D01*
X484647Y211363D01*
X485261Y210749D01*
X486062Y210417D01*
X486930D01*
X487732Y210749D01*
X488345Y211363D01*
X488677Y212165D01*
Y213032D01*
X488345Y213834D01*
X487732Y214447D01*
X486930Y214780D01*
D02*
G37*
G36*
X599954Y221240D02*
X598471D01*
X597040Y220856D01*
X595756Y220115D01*
X594707Y219067D01*
X593966Y217783D01*
X593583Y216351D01*
Y214869D01*
X593966Y213437D01*
X594707Y212153D01*
X595756Y211105D01*
X597040Y210364D01*
X598471Y209980D01*
X599954D01*
X601386Y210364D01*
X602669Y211105D01*
X603718Y212153D01*
X604459Y213437D01*
X604843Y214869D01*
Y216351D01*
X604459Y217783D01*
X603718Y219067D01*
X602669Y220115D01*
X601386Y220856D01*
X599954Y221240D01*
D02*
G37*
G36*
X586568D02*
X585086D01*
X583654Y220856D01*
X582370Y220115D01*
X581322Y219067D01*
X580581Y217783D01*
X580197Y216351D01*
Y214869D01*
X580581Y213437D01*
X581322Y212153D01*
X582370Y211105D01*
X583654Y210364D01*
X585086Y209980D01*
X586568D01*
X588000Y210364D01*
X589284Y211105D01*
X590332Y212153D01*
X591073Y213437D01*
X591457Y214869D01*
Y216351D01*
X591073Y217783D01*
X590332Y219067D01*
X589284Y220115D01*
X588000Y220856D01*
X586568Y221240D01*
D02*
G37*
G36*
X570394D02*
X568911D01*
X567479Y220856D01*
X566196Y220115D01*
X565147Y219067D01*
X564406Y217783D01*
X564023Y216351D01*
Y214869D01*
X564406Y213437D01*
X565147Y212153D01*
X566196Y211105D01*
X567479Y210364D01*
X568911Y209980D01*
X570394D01*
X571826Y210364D01*
X573109Y211105D01*
X574158Y212153D01*
X574899Y213437D01*
X575282Y214869D01*
Y216351D01*
X574899Y217783D01*
X574158Y219067D01*
X573109Y220115D01*
X571826Y220856D01*
X570394Y221240D01*
D02*
G37*
G36*
X557008D02*
X555525D01*
X554094Y220856D01*
X552810Y220115D01*
X551762Y219067D01*
X551020Y217783D01*
X550637Y216351D01*
Y214869D01*
X551020Y213437D01*
X551762Y212153D01*
X552810Y211105D01*
X554094Y210364D01*
X555525Y209980D01*
X557008D01*
X558440Y210364D01*
X559724Y211105D01*
X560772Y212153D01*
X561513Y213437D01*
X561897Y214869D01*
Y216351D01*
X561513Y217783D01*
X560772Y219067D01*
X559724Y220115D01*
X558440Y220856D01*
X557008Y221240D01*
D02*
G37*
G36*
X540834D02*
X539351D01*
X537919Y220856D01*
X536636Y220115D01*
X535587Y219067D01*
X534846Y217783D01*
X534462Y216351D01*
Y214869D01*
X534846Y213437D01*
X535587Y212153D01*
X536636Y211105D01*
X537919Y210364D01*
X539351Y209980D01*
X540834D01*
X542266Y210364D01*
X543549Y211105D01*
X544597Y212153D01*
X545339Y213437D01*
X545722Y214869D01*
Y216351D01*
X545339Y217783D01*
X544597Y219067D01*
X543549Y220115D01*
X542266Y220856D01*
X540834Y221240D01*
D02*
G37*
G36*
X527448D02*
X525965D01*
X524534Y220856D01*
X523250Y220115D01*
X522202Y219067D01*
X521460Y217783D01*
X521077Y216351D01*
Y214869D01*
X521460Y213437D01*
X522202Y212153D01*
X523250Y211105D01*
X524534Y210364D01*
X525965Y209980D01*
X527448D01*
X528880Y210364D01*
X530163Y211105D01*
X531212Y212153D01*
X531953Y213437D01*
X532337Y214869D01*
Y216351D01*
X531953Y217783D01*
X531212Y219067D01*
X530163Y220115D01*
X528880Y220856D01*
X527448Y221240D01*
D02*
G37*
G36*
X660009Y421378D02*
X658889D01*
X657808Y421088D01*
X656838Y420528D01*
X656046Y419737D01*
X655487Y418767D01*
X655197Y417686D01*
Y416566D01*
X655487Y415485D01*
X656046Y414515D01*
X656838Y413724D01*
X657808Y413164D01*
X658889Y412874D01*
X660009D01*
X661090Y413164D01*
X662060Y413724D01*
X662851Y414515D01*
X663411Y415485D01*
X663701Y416566D01*
Y417686D01*
X663411Y418767D01*
X662851Y419737D01*
X662060Y420528D01*
X661090Y421088D01*
X660009Y421378D01*
D02*
G37*
%LPD*%
D11*
X630353Y339370D02*
X629489D01*
X285217Y372047D02*
X374803D01*
X273799Y383465D02*
Y400571D01*
Y383465D02*
X285217Y372047D01*
X273799Y400571D02*
X278740Y405512D01*
X298268Y375984D02*
X342520D01*
X288740Y385512D02*
X298268Y375984D01*
X283799Y400571D02*
X288740Y405512D01*
X283799Y393465D02*
Y400571D01*
X304280Y379972D02*
X342570D01*
X293799Y390453D02*
X304280Y379972D01*
X283799Y393465D02*
X286812Y390453D01*
X293799D01*
X289649Y394603D02*
X292405D01*
X301181Y385827D01*
X288740Y395512D02*
X289649Y394603D01*
X301181Y385827D02*
X342520D01*
X288740Y425512D02*
X289055D01*
X295276Y394882D02*
Y419291D01*
X300394Y389764D02*
X342520D01*
X289055Y425512D02*
X295276Y419291D01*
Y394882D02*
X300394Y389764D01*
X260356Y502756D02*
X580315D01*
X585892Y479390D02*
Y497179D01*
X580315Y502756D02*
X585892Y497179D01*
X260971Y501272D02*
X551484D01*
X556332Y479390D02*
Y496424D01*
X551484Y501272D02*
X556332Y496424D01*
X238339Y480738D02*
X260356Y502756D01*
X239823Y480124D02*
X260971Y501272D01*
X261177Y294728D02*
X378587D01*
X265620Y305118D02*
X328346D01*
X371409Y296213D02*
X381890Y306693D01*
X263636Y300665D02*
X349878D01*
X264251Y302150D02*
X342701D01*
X378587Y294728D02*
X390551Y306693D01*
X239823Y318182D02*
X261792Y296213D01*
X245760Y320641D02*
X264251Y302150D01*
X238339Y317567D02*
X261177Y294728D01*
X357055Y299181D02*
X364567Y306693D01*
X247244Y321256D02*
X264866Y303634D01*
X262407Y297697D02*
X364232D01*
X264866Y303634D02*
X335524D01*
X244276Y320026D02*
X263636Y300665D01*
X335524Y303634D02*
X338583Y306693D01*
X241307Y318796D02*
X262407Y297697D01*
X248827Y321911D02*
X265620Y305118D01*
X349878Y300665D02*
X355906Y306693D01*
X328346Y305118D02*
X329921Y306693D01*
X263021Y299181D02*
X357055D01*
X364232Y297697D02*
X373228Y306693D01*
X342701Y302150D02*
X347244Y306693D01*
X242791Y319411D02*
X263021Y299181D01*
X261792Y296213D02*
X371409D01*
X245760Y320641D02*
Y477665D01*
X248827Y321911D02*
Y369549D01*
X241307Y318796D02*
Y479509D01*
X244276Y320026D02*
Y478279D01*
X242791Y319411D02*
Y478894D01*
X247244Y321256D02*
Y477050D01*
X239823Y318182D02*
Y480124D01*
X238339Y317567D02*
Y480738D01*
X257805Y485512D02*
X343224D01*
X241307Y479509D02*
X254731Y492933D01*
X371300Y486996D02*
X378906Y479390D01*
X256576Y488480D02*
X399376D01*
X513228Y492933D02*
X526772Y479390D01*
X399376Y488480D02*
X408466Y479390D01*
X244276Y478279D02*
X255961Y489965D01*
X248728Y369549D02*
Y476435D01*
X254731Y492933D02*
X513228D01*
X255961Y489965D02*
X427452D01*
X438027Y479390D01*
X257190Y486996D02*
X371300D01*
X242791Y478894D02*
X255346Y491449D01*
X247244Y477050D02*
X257190Y486996D01*
X248728Y476435D02*
X257805Y485512D01*
X343224D02*
X349346Y479390D01*
X374279Y345406D02*
Y358709D01*
X380315Y339370D02*
X629489D01*
X374279Y345406D02*
X380315Y339370D01*
X374016Y358972D02*
X374279Y358709D01*
X379528Y337402D02*
X619291D01*
X370079Y346850D02*
X379528Y337402D01*
X370079Y346850D02*
Y356299D01*
X619291Y337402D02*
X619580Y337113D01*
X632194Y339082D02*
X634842Y336434D01*
X630353Y339370D02*
X631906D01*
X619580Y337113D02*
X626791Y329902D01*
X631906Y339370D02*
X632194Y339082D01*
X445827Y457087D02*
X533650Y369264D01*
X336221Y452362D02*
X351504Y467646D01*
X448311Y463055D02*
X501992Y409374D01*
X387244Y460079D02*
X447066D01*
X485402Y467646D02*
X497147Y479390D01*
X362205Y452362D02*
X372898Y463055D01*
X370866Y452362D02*
X380067Y461563D01*
X358575Y466055D02*
X449553D01*
X446448Y458587D02*
X503067Y401968D01*
X353543Y452362D02*
X365736Y464555D01*
X379528Y452362D02*
X387244Y460079D01*
X401575Y457087D02*
X445827D01*
X380067Y461563D02*
X447681D01*
X449553Y466055D02*
X503234Y412374D01*
X365736Y464555D02*
X448932D01*
X502613Y410874D01*
X396850Y452362D02*
X401575Y457087D01*
X447066Y460079D02*
X503685Y403461D01*
X394413Y458587D02*
X446448D01*
X344882Y452362D02*
X358575Y466055D01*
X351504Y467646D02*
X485402D01*
X447681Y461563D02*
X504291Y404953D01*
X372898Y463055D02*
X448311D01*
X388189Y452362D02*
X394413Y458587D01*
X635009Y375981D02*
X638129Y379101D01*
X504291Y404953D02*
X504312D01*
X318898Y452362D02*
Y464104D01*
X303612Y479390D02*
X318898Y464104D01*
X327559Y452362D02*
Y471617D01*
X455527Y491449D02*
X467587Y479390D01*
X245760Y477665D02*
X256576Y488480D01*
X503234Y412374D02*
X640776D01*
X622591Y410874D02*
X629921Y403543D01*
X502613Y410874D02*
X622591D01*
X640776Y412374D02*
X649606Y403543D01*
X501992Y409374D02*
X616369D01*
X626791Y329902D02*
X631532D01*
X634842Y323015D02*
X638153Y319705D01*
X644862D01*
X634842Y332858D02*
X638153Y329547D01*
X644862D01*
X634842Y332858D02*
Y336434D01*
Y323015D02*
Y326591D01*
X644862Y329547D02*
X649606Y324803D01*
X644862Y319705D02*
X649606Y314961D01*
X631532Y329902D02*
X634842Y326591D01*
X612681Y403461D02*
X612992Y403150D01*
X504312Y404953D02*
X618669D01*
X635012Y382228D02*
Y385827D01*
X503685Y403461D02*
X612681D01*
X635012Y385827D02*
X638134Y388949D01*
X618669Y404953D02*
X629921Y393701D01*
X503067Y401968D02*
X601823D01*
X626952Y398791D02*
X654697D01*
X616369Y409374D02*
X626952Y398791D01*
X627193Y388949D02*
X635012D01*
X644849Y385821D02*
X647977Y388949D01*
X641727Y379101D02*
X644849Y382223D01*
X612992Y403150D02*
X627193Y388949D01*
X644849Y382223D02*
Y385821D01*
X601823Y401968D02*
X624685Y379106D01*
X631890D01*
X635012Y382228D01*
X638134Y388949D02*
X644854D01*
X649606Y393701D01*
X654697Y388949D02*
X659449Y393701D01*
X635012Y388949D02*
X639764Y393701D01*
X631890Y369264D02*
X635009Y372383D01*
X638129Y379101D02*
X641727D01*
X635009Y372383D02*
Y375981D01*
X647977Y388949D02*
X654697D01*
X533650Y369264D02*
X631890D01*
X654697Y398791D02*
X659449Y403543D01*
X255346Y491449D02*
X455527D01*
X319786Y479390D02*
X327559Y471617D01*
D12*
X510734Y351575D02*
X521299D01*
X522041Y352317D01*
Y352317D01*
X522783Y353059D01*
X524268D01*
X525010Y352317D01*
Y352317D02*
Y352317D01*
Y352317D02*
X525752Y351575D01*
X527236D01*
X527978Y352317D01*
Y354138D01*
X528720Y354880D01*
X530205D01*
X530947Y354138D01*
Y352317D02*
Y354138D01*
Y352317D02*
X531689Y351575D01*
X533173D01*
X533915Y352317D01*
Y354263D01*
X534657Y355005D01*
X536142D01*
X536884Y354263D01*
Y352317D02*
Y354263D01*
Y352317D02*
X537626Y351575D01*
X541094D01*
X395027D02*
X510734D01*
X623256Y359083D02*
X631890D01*
X378028Y365746D02*
X394199Y349575D01*
X380709Y365893D02*
X395027Y351575D01*
X541094D02*
X615748D01*
X623256Y359083D01*
X394199Y349575D02*
X631555D01*
X380440Y381448D02*
X380700Y381709D01*
X380019Y381448D02*
X380440D01*
X634675Y342857D02*
X637795Y339736D01*
X631555Y349575D02*
X634675Y346455D01*
X654697Y339736D02*
X659449Y344488D01*
X637795Y339736D02*
X654697D01*
X378028Y365746D02*
Y379457D01*
X635012Y352362D02*
Y355960D01*
X631890Y359083D02*
X635012Y355960D01*
X644854Y349240D02*
X649606Y344488D01*
X638134Y349240D02*
X644854D01*
X635012Y352362D02*
X638134Y349240D01*
X380709Y365893D02*
Y378346D01*
X659449Y344488D02*
X659449D01*
X634675Y342857D02*
Y346455D01*
X378028Y379457D02*
X380019Y381448D01*
X588552Y305211D02*
X589551Y306211D01*
X591551D01*
X592551Y305211D01*
Y304211D01*
X591551Y303212D01*
X590551D01*
X591551D01*
X592551Y302212D01*
Y301212D01*
X591551Y300213D01*
X589551D01*
X588552Y301212D01*
D31*
X288740Y395512D02*
D03*
X278740D02*
D03*
X288740Y405512D02*
D03*
X278740D02*
D03*
X288740Y415512D02*
D03*
Y425512D02*
D03*
D43*
Y385512D02*
D03*
D44*
X274173Y338091D02*
D03*
D45*
X585827Y268642D02*
D03*
X599213D02*
D03*
X260341Y532421D02*
D03*
X273727D02*
D03*
X349346Y479390D02*
D03*
Y532421D02*
D03*
X362732D02*
D03*
X303612Y479390D02*
D03*
X290226Y532421D02*
D03*
X303612D02*
D03*
X319786Y479390D02*
D03*
Y532421D02*
D03*
X333172D02*
D03*
X497147Y479390D02*
D03*
Y532421D02*
D03*
X510532D02*
D03*
X526772Y479390D02*
D03*
X540158D02*
D03*
X526772Y532421D02*
D03*
X540158D02*
D03*
X438027Y479390D02*
D03*
Y532421D02*
D03*
X451412D02*
D03*
X408466Y479390D02*
D03*
Y532421D02*
D03*
X421852D02*
D03*
X378906Y479390D02*
D03*
Y532421D02*
D03*
X392292D02*
D03*
X467587Y479390D02*
D03*
Y532421D02*
D03*
X480972D02*
D03*
X556332Y479390D02*
D03*
X569718D02*
D03*
X556332Y532421D02*
D03*
X569718D02*
D03*
X585892Y479390D02*
D03*
X599278D02*
D03*
X585892Y532421D02*
D03*
X599278D02*
D03*
D46*
X555610Y446850D02*
D03*
D47*
X659449Y344488D02*
D03*
Y393701D02*
D03*
Y403543D02*
D03*
Y431890D02*
D03*
X649606Y324803D02*
D03*
Y417126D02*
D03*
Y314961D02*
D03*
Y344488D02*
D03*
Y393701D02*
D03*
Y403543D02*
D03*
Y431890D02*
D03*
X639764Y393701D02*
D03*
Y431890D02*
D03*
X629921Y417126D02*
D03*
Y393701D02*
D03*
Y403543D02*
D03*
Y431890D02*
D03*
D49*
X452756Y216535D02*
D03*
X433071D02*
D03*
X413386D02*
D03*
X393701D02*
D03*
X374016D02*
D03*
X354331D02*
D03*
X334646D02*
D03*
X314961D02*
D03*
X295276D02*
D03*
X452756Y255906D02*
D03*
X433071D02*
D03*
X413386D02*
D03*
X393701D02*
D03*
X374016D02*
D03*
X354331D02*
D03*
X334646D02*
D03*
X314961D02*
D03*
X295276D02*
D03*
X374803Y372047D02*
D03*
X329921Y306693D02*
D03*
X254724Y400394D02*
D03*
X264567Y392520D02*
D03*
X362205Y452362D02*
D03*
X355906Y306693D02*
D03*
X347244D02*
D03*
X342520Y385827D02*
D03*
X342570Y379972D02*
D03*
X342520Y375984D02*
D03*
Y389764D02*
D03*
X318898Y452362D02*
D03*
X374016Y358972D02*
D03*
X370079Y356299D02*
D03*
X364567Y306693D02*
D03*
X373228D02*
D03*
X381890D02*
D03*
X390551D02*
D03*
X338583D02*
D03*
X287288Y450591D02*
D03*
X283351D02*
D03*
X279414D02*
D03*
X275477D02*
D03*
X271540D02*
D03*
X287402Y454724D02*
D03*
X283465D02*
D03*
X279528D02*
D03*
X275590D02*
D03*
X271654D02*
D03*
X616142D02*
D03*
X600394D02*
D03*
X616142Y490158D02*
D03*
X600394D02*
D03*
X606299Y433071D02*
D03*
Y417323D02*
D03*
X533465Y419291D02*
D03*
X525591Y427165D02*
D03*
X537402D02*
D03*
X533465Y472441D02*
D03*
X537402Y488189D02*
D03*
X527559D02*
D03*
X614173Y535433D02*
D03*
X629921D02*
D03*
X645669D02*
D03*
X661417D02*
D03*
Y519685D02*
D03*
X645669D02*
D03*
X629921D02*
D03*
X614173D02*
D03*
X598425D02*
D03*
X582677D02*
D03*
X566929D02*
D03*
X559055D02*
D03*
X535433D02*
D03*
X527559D02*
D03*
X511811D02*
D03*
X496063D02*
D03*
X480315D02*
D03*
X464567D02*
D03*
X448819D02*
D03*
X440945D02*
D03*
X425197D02*
D03*
X409449D02*
D03*
X393701D02*
D03*
X377953D02*
D03*
X362205D02*
D03*
X346457D02*
D03*
X330709D02*
D03*
X322835D02*
D03*
X307087D02*
D03*
X291339D02*
D03*
X275590D02*
D03*
X259842D02*
D03*
X432283Y405905D02*
D03*
X396850Y452362D02*
D03*
X379528D02*
D03*
X388189D02*
D03*
X380709Y378346D02*
D03*
X380700Y381709D02*
D03*
X336221Y452362D02*
D03*
X327559D02*
D03*
X344882Y452362D02*
D03*
X353543D02*
D03*
X370866Y452362D02*
D03*
M02*
