G04*
G04 #@! TF.GenerationSoftware,Altium Limited,Altium Designer,22.8.2 (66)*
G04*
G04 Layer_Physical_Order=3*
G04 Layer_Color=65280*
%FSLAX25Y25*%
%MOIN*%
G70*
G04*
G04 #@! TF.SameCoordinates,268FDEF5-58AA-4C19-BA7F-D61DA105112B*
G04*
G04*
G04 #@! TF.FilePolarity,Positive*
G04*
G01*
G75*
%ADD16C,0.00787*%
%ADD40C,0.06299*%
%ADD63C,0.08661*%
%ADD64C,0.07874*%
%ADD65R,0.06299X0.06299*%
%ADD66C,0.05906*%
%ADD68C,0.06000*%
%ADD69C,0.02362*%
%ADD70C,0.03937*%
G36*
X563941Y487008D02*
Y451571D01*
X563458Y451442D01*
X563344Y451640D01*
X562369Y452615D01*
X561175Y453305D01*
X559843Y453661D01*
X558464D01*
X557132Y453305D01*
X555938Y452615D01*
X554964Y451640D01*
X554274Y450446D01*
X553917Y449115D01*
Y447736D01*
X554274Y446404D01*
X554964Y445210D01*
X555938Y444235D01*
X557132Y443546D01*
X558464Y443189D01*
X559843D01*
X561175Y443546D01*
X562369Y444235D01*
X563344Y445210D01*
X563458Y445408D01*
X563941Y445279D01*
Y438976D01*
X564019Y438586D01*
X564240Y438255D01*
X564961Y437535D01*
Y412179D01*
X517567D01*
X517218Y412110D01*
X516923Y411912D01*
X405528Y300518D01*
X331873D01*
X328031Y304360D01*
X328165Y304684D01*
Y305552D01*
X327833Y306354D01*
X327220Y306967D01*
X326418Y307299D01*
X325550D01*
X324749Y306967D01*
X324135Y306354D01*
X323803Y305552D01*
Y304684D01*
X324135Y303883D01*
X324749Y303269D01*
X325550Y302937D01*
X326418D01*
X326742Y303071D01*
X330122Y299692D01*
X329930Y299230D01*
X325287D01*
X320157Y304360D01*
X320291Y304684D01*
Y305552D01*
X319959Y306354D01*
X319346Y306967D01*
X318544Y307299D01*
X317676D01*
X316875Y306967D01*
X316261Y306354D01*
X315929Y305552D01*
Y304684D01*
X316261Y303883D01*
X316875Y303269D01*
X317676Y302937D01*
X318544D01*
X318868Y303071D01*
X323535Y298405D01*
X323344Y297943D01*
X318700D01*
X312283Y304360D01*
X312417Y304684D01*
Y305552D01*
X312085Y306354D01*
X311472Y306967D01*
X310670Y307299D01*
X309802D01*
X309001Y306967D01*
X308387Y306354D01*
X308055Y305552D01*
Y304684D01*
X308387Y303883D01*
X309001Y303269D01*
X309802Y302937D01*
X310670D01*
X310994Y303071D01*
X316948Y297117D01*
X316757Y296655D01*
X312114D01*
X304409Y304360D01*
X304543Y304684D01*
Y305552D01*
X304211Y306354D01*
X303598Y306967D01*
X302796Y307299D01*
X301928D01*
X301127Y306967D01*
X300513Y306354D01*
X300181Y305552D01*
Y304684D01*
X300513Y303883D01*
X301127Y303269D01*
X301928Y302937D01*
X302796D01*
X303120Y303071D01*
X310362Y295830D01*
X310171Y295368D01*
X305527D01*
X296535Y304360D01*
X296669Y304684D01*
Y305552D01*
X296337Y306354D01*
X295724Y306967D01*
X294922Y307299D01*
X294054D01*
X293253Y306967D01*
X292639Y306354D01*
X292307Y305552D01*
Y304684D01*
X292639Y303883D01*
X293253Y303269D01*
X294054Y302937D01*
X294922D01*
X295246Y303071D01*
X303775Y294543D01*
X303584Y294080D01*
X298940D01*
X288661Y304360D01*
X288795Y304684D01*
Y305552D01*
X288463Y306354D01*
X287850Y306967D01*
X287048Y307299D01*
X286180D01*
X285379Y306967D01*
X284765Y306354D01*
X284433Y305552D01*
Y304684D01*
X284765Y303883D01*
X285379Y303269D01*
X286180Y302937D01*
X287048D01*
X287372Y303071D01*
X297189Y293255D01*
X296997Y292793D01*
X292354D01*
X280787Y304360D01*
X280921Y304684D01*
Y305552D01*
X280589Y306354D01*
X279976Y306967D01*
X279174Y307299D01*
X278306D01*
X277505Y306967D01*
X276891Y306354D01*
X276559Y305552D01*
Y304684D01*
X276891Y303883D01*
X277505Y303269D01*
X278306Y302937D01*
X279174D01*
X279498Y303071D01*
X291332Y291238D01*
X291628Y291040D01*
X291976Y290971D01*
X409105D01*
X409454Y291040D01*
X409749Y291238D01*
X521144Y402632D01*
X564961D01*
Y198055D01*
X178369Y198055D01*
Y487169D01*
X186192D01*
X186258Y486669D01*
X186016Y486604D01*
X184732Y485863D01*
X183684Y484815D01*
X182943Y483531D01*
X182559Y482099D01*
Y480617D01*
X182943Y479185D01*
X183684Y477901D01*
X184732Y476853D01*
X186016Y476112D01*
X187448Y475728D01*
X188930D01*
X190362Y476112D01*
X191646Y476853D01*
X192694Y477901D01*
X193435Y479185D01*
X193819Y480617D01*
Y482099D01*
X193435Y483531D01*
X192694Y484815D01*
X191646Y485863D01*
X190362Y486604D01*
X190120Y486669D01*
X190186Y487169D01*
X199578D01*
X199644Y486669D01*
X199402Y486604D01*
X198118Y485863D01*
X197070Y484815D01*
X196328Y483531D01*
X195945Y482099D01*
Y480617D01*
X196328Y479185D01*
X197070Y477901D01*
X198118Y476853D01*
X199402Y476112D01*
X200834Y475728D01*
X202316D01*
X203748Y476112D01*
X205032Y476853D01*
X206080Y477901D01*
X206821Y479185D01*
X207205Y480617D01*
Y482099D01*
X206821Y483531D01*
X206080Y484815D01*
X205032Y485863D01*
X203748Y486604D01*
X203506Y486669D01*
X203572Y487169D01*
X215720D01*
X215786Y486669D01*
X215544Y486604D01*
X214260Y485863D01*
X213211Y484815D01*
X212470Y483531D01*
X212087Y482099D01*
Y480617D01*
X212470Y479185D01*
X213211Y477901D01*
X214260Y476853D01*
X215544Y476112D01*
X216975Y475728D01*
X218458D01*
X219890Y476112D01*
X221173Y476853D01*
X222222Y477901D01*
X222963Y479185D01*
X223346Y480617D01*
Y482099D01*
X222963Y483531D01*
X222222Y484815D01*
X221173Y485863D01*
X219890Y486604D01*
X219648Y486669D01*
X219713Y487169D01*
X229105D01*
X229171Y486669D01*
X228929Y486604D01*
X227645Y485863D01*
X226597Y484815D01*
X225856Y483531D01*
X225472Y482099D01*
Y480617D01*
X225856Y479185D01*
X226597Y477901D01*
X227645Y476853D01*
X228929Y476112D01*
X230361Y475728D01*
X231844D01*
X233275Y476112D01*
X234559Y476853D01*
X235607Y477901D01*
X236349Y479185D01*
X236732Y480617D01*
Y482099D01*
X236349Y483531D01*
X235607Y484815D01*
X234559Y485863D01*
X233275Y486604D01*
X233033Y486669D01*
X233099Y487169D01*
X245247D01*
X245313Y486669D01*
X245071Y486604D01*
X243787Y485863D01*
X242739Y484815D01*
X241998Y483531D01*
X241614Y482099D01*
Y480617D01*
X241998Y479185D01*
X242739Y477901D01*
X243787Y476853D01*
X245071Y476112D01*
X246503Y475728D01*
X247985D01*
X249417Y476112D01*
X250701Y476853D01*
X251749Y477901D01*
X252490Y479185D01*
X252874Y480617D01*
Y482099D01*
X252490Y483531D01*
X251749Y484815D01*
X250701Y485863D01*
X249417Y486604D01*
X249175Y486669D01*
X249241Y487169D01*
X258633D01*
X258699Y486669D01*
X258457Y486604D01*
X257173Y485863D01*
X256125Y484815D01*
X255384Y483531D01*
X255000Y482099D01*
Y480617D01*
X255384Y479185D01*
X256125Y477901D01*
X257173Y476853D01*
X258457Y476112D01*
X259889Y475728D01*
X261371D01*
X262803Y476112D01*
X264087Y476853D01*
X265135Y477901D01*
X265876Y479185D01*
X266260Y480617D01*
Y482099D01*
X265876Y483531D01*
X265135Y484815D01*
X264087Y485863D01*
X262803Y486604D01*
X262561Y486669D01*
X262627Y487169D01*
X274775D01*
X274841Y486669D01*
X274599Y486604D01*
X273315Y485863D01*
X272267Y484815D01*
X271525Y483531D01*
X271142Y482099D01*
Y480617D01*
X271525Y479185D01*
X272267Y477901D01*
X273315Y476853D01*
X274599Y476112D01*
X276030Y475728D01*
X277513D01*
X278945Y476112D01*
X280228Y476853D01*
X281277Y477901D01*
X282018Y479185D01*
X282402Y480617D01*
Y482099D01*
X282018Y483531D01*
X281277Y484815D01*
X280228Y485863D01*
X278945Y486604D01*
X278703Y486669D01*
X278768Y487169D01*
X288161D01*
X288226Y486669D01*
X287984Y486604D01*
X286701Y485863D01*
X285652Y484815D01*
X284911Y483531D01*
X284528Y482099D01*
Y480617D01*
X284911Y479185D01*
X285652Y477901D01*
X286701Y476853D01*
X287984Y476112D01*
X289416Y475728D01*
X290899D01*
X292331Y476112D01*
X293614Y476853D01*
X294662Y477901D01*
X295404Y479185D01*
X295787Y480617D01*
Y482099D01*
X295404Y483531D01*
X294662Y484815D01*
X293614Y485863D01*
X292331Y486604D01*
X292089Y486669D01*
X292154Y487169D01*
X304302D01*
X304368Y486669D01*
X304126Y486604D01*
X302842Y485863D01*
X301794Y484815D01*
X301053Y483531D01*
X300669Y482099D01*
Y480617D01*
X301053Y479185D01*
X301794Y477901D01*
X302842Y476853D01*
X304126Y476112D01*
X305558Y475728D01*
X307040D01*
X308472Y476112D01*
X309756Y476853D01*
X310804Y477901D01*
X311545Y479185D01*
X311929Y480617D01*
Y482099D01*
X311545Y483531D01*
X310804Y484815D01*
X309756Y485863D01*
X308472Y486604D01*
X308230Y486669D01*
X308296Y487169D01*
X317688D01*
X317754Y486669D01*
X317512Y486604D01*
X316228Y485863D01*
X315180Y484815D01*
X314439Y483531D01*
X314055Y482099D01*
Y480617D01*
X314439Y479185D01*
X315180Y477901D01*
X316228Y476853D01*
X317512Y476112D01*
X318944Y475728D01*
X320426D01*
X321858Y476112D01*
X323142Y476853D01*
X324190Y477901D01*
X324931Y479185D01*
X325315Y480617D01*
Y482099D01*
X324931Y483531D01*
X324190Y484815D01*
X323142Y485863D01*
X321858Y486604D01*
X321616Y486669D01*
X321682Y487169D01*
X333830D01*
X333896Y486669D01*
X333654Y486604D01*
X332370Y485863D01*
X331322Y484815D01*
X330580Y483531D01*
X330197Y482099D01*
Y480617D01*
X330580Y479185D01*
X331322Y477901D01*
X332370Y476853D01*
X333654Y476112D01*
X335086Y475728D01*
X336568D01*
X338000Y476112D01*
X339284Y476853D01*
X340332Y477901D01*
X341073Y479185D01*
X341457Y480617D01*
Y482099D01*
X341073Y483531D01*
X340332Y484815D01*
X339284Y485863D01*
X338000Y486604D01*
X337758Y486669D01*
X337824Y487169D01*
X347216D01*
X347282Y486669D01*
X347040Y486604D01*
X345756Y485863D01*
X344707Y484815D01*
X343966Y483531D01*
X343583Y482099D01*
Y480617D01*
X343966Y479185D01*
X344707Y477901D01*
X345756Y476853D01*
X347040Y476112D01*
X348471Y475728D01*
X349954D01*
X351386Y476112D01*
X352669Y476853D01*
X353718Y477901D01*
X354459Y479185D01*
X354842Y480617D01*
Y482099D01*
X354459Y483531D01*
X353718Y484815D01*
X352669Y485863D01*
X351386Y486604D01*
X351144Y486669D01*
X351209Y487169D01*
X363357D01*
X363423Y486669D01*
X363181Y486604D01*
X361897Y485863D01*
X360849Y484815D01*
X360108Y483531D01*
X359724Y482099D01*
Y480617D01*
X360108Y479185D01*
X360849Y477901D01*
X361897Y476853D01*
X363181Y476112D01*
X364613Y475728D01*
X366095D01*
X367527Y476112D01*
X368811Y476853D01*
X369859Y477901D01*
X370601Y479185D01*
X370984Y480617D01*
Y482099D01*
X370601Y483531D01*
X369859Y484815D01*
X368811Y485863D01*
X367527Y486604D01*
X367285Y486669D01*
X367351Y487169D01*
X376743D01*
X376809Y486669D01*
X376567Y486604D01*
X375283Y485863D01*
X374235Y484815D01*
X373494Y483531D01*
X373110Y482099D01*
Y480617D01*
X373494Y479185D01*
X374235Y477901D01*
X375283Y476853D01*
X376567Y476112D01*
X377999Y475728D01*
X379481D01*
X380913Y476112D01*
X382197Y476853D01*
X383245Y477901D01*
X383986Y479185D01*
X384370Y480617D01*
Y482099D01*
X383986Y483531D01*
X383245Y484815D01*
X382197Y485863D01*
X380913Y486604D01*
X380671Y486669D01*
X380737Y487169D01*
X392885D01*
X392951Y486669D01*
X392709Y486604D01*
X391425Y485863D01*
X390377Y484815D01*
X389636Y483531D01*
X389252Y482099D01*
Y480617D01*
X389636Y479185D01*
X390377Y477901D01*
X391425Y476853D01*
X392709Y476112D01*
X394141Y475728D01*
X395623D01*
X397055Y476112D01*
X398339Y476853D01*
X399387Y477901D01*
X400128Y479185D01*
X400512Y480617D01*
Y482099D01*
X400128Y483531D01*
X399387Y484815D01*
X398339Y485863D01*
X397055Y486604D01*
X396813Y486669D01*
X396879Y487169D01*
X406271D01*
X406337Y486669D01*
X406095Y486604D01*
X404811Y485863D01*
X403763Y484815D01*
X403021Y483531D01*
X402638Y482099D01*
Y480617D01*
X403021Y479185D01*
X403763Y477901D01*
X404811Y476853D01*
X406095Y476112D01*
X407526Y475728D01*
X409009D01*
X410441Y476112D01*
X411725Y476853D01*
X412773Y477901D01*
X413514Y479185D01*
X413898Y480617D01*
Y482099D01*
X413514Y483531D01*
X412773Y484815D01*
X411725Y485863D01*
X410441Y486604D01*
X410199Y486669D01*
X410265Y487169D01*
X422413D01*
X422478Y486669D01*
X422236Y486604D01*
X420953Y485863D01*
X419904Y484815D01*
X419163Y483531D01*
X418780Y482099D01*
Y480617D01*
X419163Y479185D01*
X419904Y477901D01*
X420953Y476853D01*
X422236Y476112D01*
X423668Y475728D01*
X425151D01*
X426582Y476112D01*
X427866Y476853D01*
X428914Y477901D01*
X429656Y479185D01*
X430039Y480617D01*
Y482099D01*
X429656Y483531D01*
X428914Y484815D01*
X427866Y485863D01*
X426582Y486604D01*
X426340Y486669D01*
X426406Y487169D01*
X435798D01*
X435864Y486669D01*
X435622Y486604D01*
X434338Y485863D01*
X433290Y484815D01*
X432549Y483531D01*
X432165Y482099D01*
Y480617D01*
X432549Y479185D01*
X433290Y477901D01*
X434338Y476853D01*
X435622Y476112D01*
X437054Y475728D01*
X438537D01*
X439968Y476112D01*
X441252Y476853D01*
X442300Y477901D01*
X443042Y479185D01*
X443425Y480617D01*
Y482099D01*
X443042Y483531D01*
X442300Y484815D01*
X441252Y485863D01*
X439968Y486604D01*
X439726Y486669D01*
X439792Y487169D01*
X451940D01*
X452006Y486669D01*
X451764Y486604D01*
X450480Y485863D01*
X449432Y484815D01*
X448691Y483531D01*
X448307Y482099D01*
Y480617D01*
X448691Y479185D01*
X449432Y477901D01*
X450480Y476853D01*
X451764Y476112D01*
X453196Y475728D01*
X454678D01*
X456110Y476112D01*
X457394Y476853D01*
X458442Y477901D01*
X459183Y479185D01*
X459567Y480617D01*
Y482099D01*
X459183Y483531D01*
X458442Y484815D01*
X457394Y485863D01*
X456110Y486604D01*
X455868Y486669D01*
X455934Y487169D01*
X465326D01*
X465392Y486669D01*
X465150Y486604D01*
X463866Y485863D01*
X462818Y484815D01*
X462077Y483531D01*
X461693Y482099D01*
Y480617D01*
X462077Y479185D01*
X462818Y477901D01*
X463866Y476853D01*
X465150Y476112D01*
X466582Y475728D01*
X468064D01*
X469496Y476112D01*
X470780Y476853D01*
X471828Y477901D01*
X472569Y479185D01*
X472953Y480617D01*
Y482099D01*
X472569Y483531D01*
X471828Y484815D01*
X470780Y485863D01*
X469496Y486604D01*
X469254Y486669D01*
X469320Y487169D01*
X481468D01*
X481534Y486669D01*
X481291Y486604D01*
X480008Y485863D01*
X478960Y484815D01*
X478218Y483531D01*
X477835Y482099D01*
Y480617D01*
X478218Y479185D01*
X478960Y477901D01*
X480008Y476853D01*
X481291Y476112D01*
X482723Y475728D01*
X484206D01*
X485638Y476112D01*
X486921Y476853D01*
X487970Y477901D01*
X488711Y479185D01*
X489094Y480617D01*
Y482099D01*
X488711Y483531D01*
X487970Y484815D01*
X486921Y485863D01*
X485638Y486604D01*
X485396Y486669D01*
X485461Y487169D01*
X494853D01*
X494919Y486669D01*
X494677Y486604D01*
X493394Y485863D01*
X492345Y484815D01*
X491604Y483531D01*
X491221Y482099D01*
Y480617D01*
X491604Y479185D01*
X492345Y477901D01*
X493394Y476853D01*
X494677Y476112D01*
X496109Y475728D01*
X497592D01*
X499023Y476112D01*
X500307Y476853D01*
X501356Y477901D01*
X502097Y479185D01*
X502480Y480617D01*
Y482099D01*
X502097Y483531D01*
X501356Y484815D01*
X500307Y485863D01*
X499023Y486604D01*
X498781Y486669D01*
X498847Y487169D01*
X510995D01*
X511061Y486669D01*
X510819Y486604D01*
X509535Y485863D01*
X508487Y484815D01*
X507746Y483531D01*
X507362Y482099D01*
Y480617D01*
X507746Y479185D01*
X508487Y477901D01*
X509535Y476853D01*
X510819Y476112D01*
X512251Y475728D01*
X513733D01*
X515165Y476112D01*
X516449Y476853D01*
X517497Y477901D01*
X518238Y479185D01*
X518622Y480617D01*
Y482099D01*
X518238Y483531D01*
X517497Y484815D01*
X516449Y485863D01*
X515165Y486604D01*
X514923Y486669D01*
X514989Y487169D01*
X524381D01*
X524447Y486669D01*
X524205Y486604D01*
X522921Y485863D01*
X521873Y484815D01*
X521132Y483531D01*
X520748Y482099D01*
Y480617D01*
X521132Y479185D01*
X521873Y477901D01*
X522921Y476853D01*
X524205Y476112D01*
X525637Y475728D01*
X527119D01*
X528551Y476112D01*
X529835Y476853D01*
X530883Y477901D01*
X531624Y479185D01*
X532008Y480617D01*
Y482099D01*
X531624Y483531D01*
X530883Y484815D01*
X529835Y485863D01*
X528551Y486604D01*
X528309Y486669D01*
X528375Y487169D01*
X540523D01*
X540589Y486669D01*
X540347Y486604D01*
X539063Y485863D01*
X538015Y484815D01*
X537273Y483531D01*
X536890Y482099D01*
Y480617D01*
X537273Y479185D01*
X538015Y477901D01*
X539063Y476853D01*
X540347Y476112D01*
X541779Y475728D01*
X543261D01*
X544693Y476112D01*
X545976Y476853D01*
X547025Y477901D01*
X547766Y479185D01*
X548150Y480617D01*
Y482099D01*
X547766Y483531D01*
X547025Y484815D01*
X545976Y485863D01*
X544693Y486604D01*
X544451Y486669D01*
X544517Y487169D01*
X553909D01*
X553974Y486669D01*
X553732Y486604D01*
X552449Y485863D01*
X551401Y484815D01*
X550659Y483531D01*
X550276Y482099D01*
Y480617D01*
X550659Y479185D01*
X551401Y477901D01*
X552449Y476853D01*
X553732Y476112D01*
X555164Y475728D01*
X556647D01*
X558079Y476112D01*
X559362Y476853D01*
X560411Y477901D01*
X561152Y479185D01*
X561535Y480617D01*
Y482099D01*
X561152Y483531D01*
X560411Y484815D01*
X559362Y485863D01*
X558079Y486604D01*
X557837Y486669D01*
X557902Y487169D01*
X563808D01*
X563941Y487008D01*
D02*
G37*
G36*
X592520Y446850D02*
X603543Y435827D01*
X633071D01*
Y414567D01*
X589370D01*
X564961Y438976D01*
Y487008D01*
X592520D01*
Y446850D01*
D02*
G37*
G36*
X668087Y414173D02*
X645669D01*
Y425197D01*
X634091D01*
Y431612D01*
X634173Y431920D01*
Y433040D01*
X634091Y433349D01*
Y435827D01*
X634013Y436217D01*
X633792Y436548D01*
X633461Y436769D01*
X633071Y436846D01*
X603966D01*
X593539Y447273D01*
Y487008D01*
X593462Y487398D01*
X593241Y487729D01*
X592910Y487950D01*
X592520Y488027D01*
Y488189D01*
X178369D01*
Y549977D01*
X668087Y549977D01*
Y414173D01*
D02*
G37*
%LPC*%
G36*
X540158Y453661D02*
X538779D01*
X537447Y453305D01*
X536253Y452615D01*
X535279Y451640D01*
X534589Y450446D01*
X534232Y449115D01*
Y447736D01*
X534589Y446404D01*
X535279Y445210D01*
X536253Y444235D01*
X537447Y443546D01*
X538779Y443189D01*
X540158D01*
X541490Y443546D01*
X542684Y444235D01*
X543659Y445210D01*
X544348Y446404D01*
X544705Y447736D01*
Y449115D01*
X544348Y450446D01*
X543659Y451640D01*
X542684Y452615D01*
X541490Y453305D01*
X540158Y453661D01*
D02*
G37*
G36*
X461418D02*
X460039D01*
X458707Y453305D01*
X457513Y452615D01*
X456538Y451640D01*
X455849Y450446D01*
X455492Y449115D01*
Y447736D01*
X455849Y446404D01*
X456538Y445210D01*
X457513Y444235D01*
X458707Y443546D01*
X460039Y443189D01*
X461418D01*
X462749Y443546D01*
X463943Y444235D01*
X464918Y445210D01*
X465608Y446404D01*
X465965Y447736D01*
Y449115D01*
X465608Y450446D01*
X464918Y451640D01*
X463943Y452615D01*
X462749Y453305D01*
X461418Y453661D01*
D02*
G37*
G36*
X318544Y443913D02*
X317676D01*
X316875Y443581D01*
X316261Y442968D01*
X315929Y442166D01*
Y441298D01*
X316063Y440974D01*
X313529Y438440D01*
X313331Y438144D01*
X313262Y437795D01*
Y434889D01*
X312800Y434698D01*
X311147Y436350D01*
Y439749D01*
X311472Y439883D01*
X312085Y440497D01*
X312417Y441298D01*
Y442166D01*
X312085Y442968D01*
X311472Y443581D01*
X310670Y443913D01*
X309802D01*
X309001Y443581D01*
X308387Y442968D01*
X308055Y442166D01*
Y441298D01*
X308387Y440497D01*
X309001Y439883D01*
X309325Y439749D01*
Y437005D01*
X308863Y436814D01*
X304495Y441182D01*
X304543Y441298D01*
Y442166D01*
X304211Y442968D01*
X303598Y443581D01*
X302796Y443913D01*
X301928D01*
X301127Y443581D01*
X300513Y442968D01*
X300181Y442166D01*
Y441298D01*
X300513Y440497D01*
X301016Y439994D01*
X300859Y439494D01*
X298015D01*
X296535Y440974D01*
X296669Y441298D01*
Y442166D01*
X296337Y442968D01*
X295724Y443581D01*
X294922Y443913D01*
X294054D01*
X293253Y443581D01*
X292639Y442968D01*
X292307Y442166D01*
Y441298D01*
X292639Y440497D01*
X293253Y439883D01*
X294054Y439551D01*
X294922D01*
X295246Y439685D01*
X296307Y438625D01*
X296115Y438163D01*
X291472D01*
X288661Y440974D01*
X288795Y441298D01*
Y442166D01*
X288463Y442968D01*
X287850Y443581D01*
X287048Y443913D01*
X286180D01*
X285379Y443581D01*
X284765Y442968D01*
X284433Y442166D01*
Y441298D01*
X284765Y440497D01*
X285379Y439883D01*
X286180Y439551D01*
X287048D01*
X287372Y439685D01*
X289720Y437338D01*
X289529Y436876D01*
X284885D01*
X280787Y440974D01*
X280921Y441298D01*
Y442166D01*
X280589Y442968D01*
X279976Y443581D01*
X279174Y443913D01*
X278306D01*
X277505Y443581D01*
X276891Y442968D01*
X276559Y442166D01*
Y441298D01*
X276891Y440497D01*
X277505Y439883D01*
X278306Y439551D01*
X279174D01*
X279498Y439685D01*
X283134Y436050D01*
X282942Y435588D01*
X278299D01*
X272913Y440974D01*
X273047Y441298D01*
Y442166D01*
X272715Y442968D01*
X272102Y443581D01*
X271300Y443913D01*
X270432D01*
X269631Y443581D01*
X269017Y442968D01*
X268685Y442166D01*
Y441298D01*
X269017Y440497D01*
X269631Y439883D01*
X270432Y439551D01*
X271300D01*
X271624Y439685D01*
X276547Y434763D01*
X276356Y434301D01*
X271712D01*
X265039Y440974D01*
X265173Y441298D01*
Y442166D01*
X264841Y442968D01*
X264228Y443581D01*
X263426Y443913D01*
X262558D01*
X261757Y443581D01*
X261143Y442968D01*
X260811Y442166D01*
Y441298D01*
X261143Y440497D01*
X261757Y439883D01*
X262558Y439551D01*
X263426D01*
X263750Y439685D01*
X269960Y433475D01*
X269769Y433014D01*
X265125D01*
X257165Y440974D01*
X257299Y441298D01*
Y442166D01*
X256967Y442968D01*
X256354Y443581D01*
X255552Y443913D01*
X254684D01*
X253883Y443581D01*
X253269Y442968D01*
X252937Y442166D01*
Y441298D01*
X253269Y440497D01*
X253883Y439883D01*
X254684Y439551D01*
X255552D01*
X255876Y439685D01*
X263374Y432188D01*
X263182Y431726D01*
X258539D01*
X249291Y440974D01*
X249425Y441298D01*
Y442166D01*
X249093Y442968D01*
X248480Y443581D01*
X247678Y443913D01*
X246810D01*
X246009Y443581D01*
X245395Y442968D01*
X245063Y442166D01*
Y441298D01*
X245395Y440497D01*
X246009Y439883D01*
X246810Y439551D01*
X247678D01*
X248002Y439685D01*
X256787Y430901D01*
X256596Y430439D01*
X251952D01*
X241417Y440974D01*
X241551Y441298D01*
Y442166D01*
X241219Y442968D01*
X240606Y443581D01*
X239804Y443913D01*
X238936D01*
X238135Y443581D01*
X237521Y442968D01*
X237189Y442166D01*
Y441298D01*
X237521Y440497D01*
X238135Y439883D01*
X238936Y439551D01*
X239804D01*
X240128Y439685D01*
X250200Y429613D01*
X250009Y429151D01*
X245366D01*
X233543Y440974D01*
X233677Y441298D01*
Y442166D01*
X233345Y442968D01*
X232732Y443581D01*
X231930Y443913D01*
X231062D01*
X230261Y443581D01*
X229647Y442968D01*
X229315Y442166D01*
Y441298D01*
X229647Y440497D01*
X230261Y439883D01*
X231062Y439551D01*
X231930D01*
X232254Y439685D01*
X243614Y428326D01*
X243422Y427864D01*
X238779D01*
X225669Y440974D01*
X225803Y441298D01*
Y442166D01*
X225471Y442968D01*
X224857Y443581D01*
X224056Y443913D01*
X223188D01*
X222387Y443581D01*
X221773Y442968D01*
X221441Y442166D01*
Y441298D01*
X221773Y440497D01*
X222387Y439883D01*
X223188Y439551D01*
X224056D01*
X224380Y439685D01*
X237102Y426964D01*
X236911Y426502D01*
X232267D01*
X217795Y440974D01*
X217929Y441298D01*
Y442166D01*
X217597Y442968D01*
X216984Y443581D01*
X216182Y443913D01*
X215314D01*
X214512Y443581D01*
X213899Y442968D01*
X213567Y442166D01*
Y441298D01*
X213899Y440497D01*
X214512Y439883D01*
X215314Y439551D01*
X216182D01*
X216506Y439685D01*
X231245Y424946D01*
X231541Y424749D01*
X231890Y424679D01*
X290961D01*
X292835Y422805D01*
X292701Y422481D01*
Y421613D01*
X293033Y420812D01*
X293646Y420198D01*
X294448Y419866D01*
X294721Y419457D01*
X294669Y419332D01*
Y418464D01*
X294575Y418323D01*
X294054D01*
X293253Y417991D01*
X292639Y417377D01*
X292307Y416576D01*
Y415708D01*
X292639Y414906D01*
X293253Y414293D01*
X294054Y413961D01*
X294575D01*
X294669Y413820D01*
Y413273D01*
X294561Y412919D01*
X294207Y412811D01*
X293661D01*
X292859Y412479D01*
X292245Y411865D01*
X291913Y411064D01*
Y410196D01*
X292245Y409394D01*
X292859Y408781D01*
X293366Y408571D01*
X293094Y407914D01*
Y407047D01*
X293426Y406245D01*
X294040Y405631D01*
X294842Y405299D01*
X295709D01*
X296511Y405631D01*
X297125Y406245D01*
X297457Y407047D01*
Y407241D01*
X297515Y407299D01*
X297515Y407299D01*
X307369Y417154D01*
X307566Y417449D01*
X307636Y417798D01*
Y425708D01*
X308098Y425899D01*
X326373Y407623D01*
X326669Y407426D01*
X327017Y407357D01*
X329119D01*
X329253Y407032D01*
X329867Y406419D01*
X330668Y406087D01*
X331536D01*
X332338Y406419D01*
X332951Y407032D01*
X333283Y407834D01*
Y408702D01*
X333012Y409358D01*
X333519Y409568D01*
X334133Y410182D01*
X334465Y410984D01*
Y411851D01*
X334133Y412653D01*
X333519Y413266D01*
X333012Y413477D01*
X333283Y414133D01*
Y415001D01*
X333012Y415657D01*
X333519Y415868D01*
X334133Y416481D01*
X334465Y417283D01*
Y418150D01*
X334133Y418952D01*
X333519Y419565D01*
X332717Y419898D01*
X332590D01*
X332496Y420039D01*
Y420906D01*
X332192Y421641D01*
X332316Y421849D01*
X332525Y422044D01*
X333031Y421835D01*
X333898D01*
X334700Y422167D01*
X335314Y422780D01*
X335589Y423445D01*
X336039Y423533D01*
X336121Y423523D01*
X336207Y423374D01*
X336760Y422822D01*
X337437Y422431D01*
X338192Y422228D01*
X338973D01*
X339728Y422431D01*
X340405Y422822D01*
X340958Y423374D01*
X341349Y424051D01*
X341551Y424806D01*
Y425588D01*
X341349Y426343D01*
X340958Y427020D01*
X340405Y427572D01*
X339728Y427963D01*
X338973Y428165D01*
X338192D01*
X337437Y427963D01*
X336760Y427572D01*
X336207Y427020D01*
X335817Y426343D01*
X335629Y425643D01*
X335447Y425542D01*
X335114Y425451D01*
X334700Y425865D01*
X333898Y426197D01*
X333771D01*
X333677Y426338D01*
Y427206D01*
X333345Y428007D01*
X332809Y428543D01*
X333345Y429079D01*
X333677Y429881D01*
Y430749D01*
X333345Y431551D01*
X332732Y432164D01*
X331930Y432496D01*
X331062D01*
X330261Y432164D01*
X329647Y431551D01*
X329315Y430749D01*
Y429881D01*
X329421Y429626D01*
X328658Y428864D01*
X320455D01*
X315084Y434234D01*
Y437418D01*
X317352Y439685D01*
X317676Y439551D01*
X318544D01*
X319346Y439883D01*
X319959Y440497D01*
X320291Y441298D01*
Y442166D01*
X319959Y442968D01*
X319346Y443581D01*
X318544Y443913D01*
D02*
G37*
G36*
X208243Y425716D02*
X207111D01*
X206018Y425423D01*
X205037Y424858D01*
X204237Y424057D01*
X203671Y423077D01*
X203378Y421983D01*
Y420851D01*
X203671Y419758D01*
X204237Y418778D01*
X205037Y417977D01*
X206018Y417411D01*
X207111Y417118D01*
X208243D01*
X209337Y417411D01*
X210317Y417977D01*
X211117Y418778D01*
X211683Y419758D01*
X211976Y420851D01*
Y421983D01*
X211683Y423077D01*
X211117Y424057D01*
X210317Y424858D01*
X209337Y425423D01*
X208243Y425716D01*
D02*
G37*
G36*
X431536Y420291D02*
X430668D01*
X429867Y419959D01*
X429253Y419346D01*
X428921Y418544D01*
Y417676D01*
X429253Y416875D01*
X429867Y416261D01*
X430668Y415929D01*
X431536D01*
X432338Y416261D01*
X432951Y416875D01*
X433284Y417676D01*
Y418544D01*
X432951Y419346D01*
X432338Y419959D01*
X431536Y420291D01*
D02*
G37*
G36*
X555807Y426102D02*
X554429D01*
X553097Y425745D01*
X551903Y425056D01*
X550928Y424081D01*
X550239Y422887D01*
X549882Y421556D01*
Y420177D01*
X550239Y418845D01*
X550928Y417651D01*
X551903Y416676D01*
X553097Y415987D01*
X554429Y415630D01*
X555807D01*
X557139Y415987D01*
X558333Y416676D01*
X559308Y417651D01*
X559998Y418845D01*
X560354Y420177D01*
Y421556D01*
X559998Y422887D01*
X559308Y424081D01*
X558333Y425056D01*
X557139Y425745D01*
X555807Y426102D01*
D02*
G37*
G36*
X476182Y453661D02*
X474803D01*
X473471Y453305D01*
X472277Y452615D01*
X471302Y451640D01*
X470613Y450446D01*
X470256Y449115D01*
Y447736D01*
X470613Y446404D01*
X471302Y445210D01*
X472277Y444235D01*
X473471Y443546D01*
X474803Y443189D01*
X476182D01*
X477513Y443546D01*
X478508Y444120D01*
X480911Y441718D01*
Y433195D01*
X360236D01*
X359888Y433125D01*
X359592Y432928D01*
X307230Y380566D01*
X307032Y380270D01*
X306963Y379921D01*
Y346865D01*
X306639Y346731D01*
X306025Y346117D01*
X305693Y345316D01*
Y344448D01*
X306025Y343646D01*
X306639Y343033D01*
X307440Y342701D01*
X308308D01*
X309109Y343033D01*
X309723Y343646D01*
X310055Y344448D01*
Y345316D01*
X309723Y346117D01*
X309109Y346731D01*
X308785Y346865D01*
Y379544D01*
X360614Y431372D01*
X481445D01*
X484413Y428404D01*
Y426683D01*
X484483Y426335D01*
X484680Y426039D01*
X486837Y423882D01*
X486262Y422887D01*
X485906Y421556D01*
Y420177D01*
X486262Y418845D01*
X486952Y417651D01*
X487927Y416676D01*
X489121Y415987D01*
X490452Y415630D01*
X491831D01*
X493163Y415987D01*
X494357Y416676D01*
X495332Y417651D01*
X496021Y418845D01*
X496378Y420177D01*
Y421556D01*
X496021Y422887D01*
X495332Y424081D01*
X494357Y425056D01*
X493163Y425745D01*
X491831Y426102D01*
X490452D01*
X489121Y425745D01*
X488126Y425171D01*
X486236Y427061D01*
Y428781D01*
X486166Y429130D01*
X485969Y429425D01*
X482733Y432661D01*
Y442095D01*
X482664Y442444D01*
X482467Y442739D01*
X479797Y445409D01*
X480372Y446404D01*
X480728Y447736D01*
Y449115D01*
X480372Y450446D01*
X479682Y451640D01*
X478707Y452615D01*
X477513Y453305D01*
X476182Y453661D01*
D02*
G37*
G36*
X477067Y426102D02*
X475689D01*
X474357Y425745D01*
X473163Y425056D01*
X472188Y424081D01*
X471499Y422887D01*
X471142Y421556D01*
Y420177D01*
X471499Y418845D01*
X472188Y417651D01*
X473163Y416676D01*
X474357Y415987D01*
X475689Y415630D01*
X477067D01*
X478399Y415987D01*
X479593Y416676D01*
X480568Y417651D01*
X481257Y418845D01*
X481614Y420177D01*
Y421556D01*
X481257Y422887D01*
X480568Y424081D01*
X479593Y425056D01*
X478399Y425745D01*
X477067Y426102D01*
D02*
G37*
G36*
X442910Y417535D02*
X442129D01*
X441374Y417333D01*
X440697Y416942D01*
X440144Y416390D01*
X439753Y415713D01*
X439551Y414958D01*
Y414176D01*
X439753Y413421D01*
X440144Y412744D01*
X440697Y412191D01*
X441374Y411801D01*
X442129Y411598D01*
X442910D01*
X443666Y411801D01*
X444342Y412191D01*
X444895Y412744D01*
X445286Y413421D01*
X445488Y414176D01*
Y414958D01*
X445286Y415713D01*
X444895Y416390D01*
X444342Y416942D01*
X443666Y417333D01*
X442910Y417535D01*
D02*
G37*
G36*
X364170D02*
X363389D01*
X362634Y417333D01*
X361957Y416942D01*
X361404Y416390D01*
X361013Y415713D01*
X360811Y414958D01*
Y414176D01*
X361013Y413421D01*
X361404Y412744D01*
X361957Y412191D01*
X362634Y411801D01*
X363389Y411598D01*
X364170D01*
X364925Y411801D01*
X365602Y412191D01*
X366155Y412744D01*
X366546Y413421D01*
X366748Y414176D01*
Y414958D01*
X366546Y415713D01*
X366155Y416390D01*
X365602Y416942D01*
X364925Y417333D01*
X364170Y417535D01*
D02*
G37*
G36*
X222438D02*
X221656D01*
X220901Y417333D01*
X220224Y416942D01*
X219672Y416390D01*
X219281Y415713D01*
X219079Y414958D01*
Y414176D01*
X219281Y413421D01*
X219672Y412744D01*
X220224Y412191D01*
X220901Y411801D01*
X221656Y411598D01*
X222438D01*
X223193Y411801D01*
X223870Y412191D01*
X224423Y412744D01*
X224814Y413421D01*
X225016Y414176D01*
Y414958D01*
X224814Y415713D01*
X224423Y416390D01*
X223870Y416942D01*
X223193Y417333D01*
X222438Y417535D01*
D02*
G37*
G36*
X386261Y415567D02*
X385393D01*
X384591Y415235D01*
X383978Y414621D01*
X383646Y413820D01*
Y412952D01*
X383978Y412150D01*
X384591Y411537D01*
X385393Y411205D01*
X386261D01*
X387062Y411537D01*
X387676Y412150D01*
X388008Y412952D01*
Y413820D01*
X387676Y414621D01*
X387062Y415235D01*
X386261Y415567D01*
D02*
G37*
G36*
X426812Y413205D02*
X425944D01*
X425142Y412873D01*
X424529Y412259D01*
X424197Y411457D01*
Y410590D01*
X424529Y409788D01*
X425142Y409175D01*
X425944Y408843D01*
X426812D01*
X427613Y409175D01*
X428227Y409788D01*
X428559Y410590D01*
Y411457D01*
X428227Y412259D01*
X427613Y412873D01*
X426812Y413205D01*
D02*
G37*
G36*
X208243Y415717D02*
X207111D01*
X206018Y415423D01*
X205037Y414857D01*
X204237Y414057D01*
X203671Y413077D01*
X203378Y411983D01*
Y410851D01*
X203671Y409758D01*
X204237Y408778D01*
X205037Y407977D01*
X206018Y407411D01*
X207111Y407118D01*
X208243D01*
X209337Y407411D01*
X210317Y407977D01*
X211117Y408778D01*
X211683Y409758D01*
X211976Y410851D01*
Y411983D01*
X211683Y413077D01*
X211117Y414057D01*
X210317Y414857D01*
X209337Y415423D01*
X208243Y415717D01*
D02*
G37*
G36*
X426812Y402575D02*
X425944D01*
X425142Y402243D01*
X424529Y401629D01*
X424197Y400828D01*
Y399960D01*
X424529Y399158D01*
X425142Y398545D01*
X425944Y398213D01*
X426812D01*
X427613Y398545D01*
X428227Y399158D01*
X428559Y399960D01*
Y400828D01*
X428227Y401629D01*
X427613Y402243D01*
X426812Y402575D01*
D02*
G37*
G36*
X386261Y400606D02*
X385393D01*
X384591Y400274D01*
X383978Y399661D01*
X383646Y398859D01*
Y397991D01*
X383978Y397190D01*
X384591Y396576D01*
X385393Y396244D01*
X386261D01*
X387062Y396576D01*
X387676Y397190D01*
X388008Y397991D01*
Y398859D01*
X387676Y399661D01*
X387062Y400274D01*
X386261Y400606D01*
D02*
G37*
G36*
X458659Y401787D02*
X457877D01*
X457122Y401585D01*
X456445Y401194D01*
X455892Y400642D01*
X455502Y399965D01*
X455299Y399210D01*
Y398428D01*
X455502Y397673D01*
X455892Y396996D01*
X456445Y396444D01*
X457122Y396053D01*
X457877Y395850D01*
X458659D01*
X459413Y396053D01*
X460090Y396444D01*
X460643Y396996D01*
X461034Y397673D01*
X461236Y398428D01*
Y399210D01*
X461034Y399965D01*
X460643Y400642D01*
X460090Y401194D01*
X459413Y401585D01*
X458659Y401787D01*
D02*
G37*
G36*
X431536Y395488D02*
X430668D01*
X429867Y395156D01*
X429253Y394543D01*
X428921Y393741D01*
Y392873D01*
X429253Y392072D01*
X429867Y391458D01*
X430668Y391126D01*
X431536D01*
X432338Y391458D01*
X432951Y392072D01*
X433284Y392873D01*
Y393741D01*
X432951Y394543D01*
X432338Y395156D01*
X431536Y395488D01*
D02*
G37*
G36*
X342560Y390370D02*
X341692D01*
X340891Y390038D01*
X340354Y389502D01*
X339818Y390038D01*
X339017Y390370D01*
X338149D01*
X337347Y390038D01*
X336734Y389424D01*
X336402Y388623D01*
Y387755D01*
X336734Y386953D01*
X337347Y386340D01*
X338149Y386008D01*
X339017D01*
X339818Y386340D01*
X340354Y386876D01*
X340891Y386340D01*
X341692Y386008D01*
X342560D01*
X343361Y386340D01*
X343975Y386953D01*
X344307Y387755D01*
Y388623D01*
X343975Y389424D01*
X343361Y390038D01*
X342560Y390370D01*
D02*
G37*
G36*
X327599Y385646D02*
X326731D01*
X325930Y385314D01*
X325316Y384700D01*
X324984Y383898D01*
Y383031D01*
X325316Y382229D01*
X325930Y381615D01*
X326731Y381283D01*
X327599D01*
X328401Y381615D01*
X329014Y382229D01*
X329346Y383031D01*
Y383898D01*
X329014Y384700D01*
X328401Y385314D01*
X327599Y385646D01*
D02*
G37*
G36*
X301178Y386039D02*
X300397D01*
X299642Y385837D01*
X298965Y385446D01*
X298412Y384894D01*
X298021Y384217D01*
X297819Y383462D01*
Y382680D01*
X298021Y381925D01*
X298412Y381248D01*
X298965Y380696D01*
X299642Y380305D01*
X300397Y380102D01*
X301178D01*
X301933Y380305D01*
X302610Y380696D01*
X303163Y381248D01*
X303554Y381925D01*
X303756Y382680D01*
Y383462D01*
X303554Y384217D01*
X303163Y384894D01*
X302610Y385446D01*
X301933Y385837D01*
X301178Y386039D01*
D02*
G37*
G36*
X285430D02*
X284649D01*
X283894Y385837D01*
X283217Y385446D01*
X282664Y384894D01*
X282273Y384217D01*
X282071Y383462D01*
Y382680D01*
X282273Y381925D01*
X282664Y381248D01*
X283217Y380696D01*
X283894Y380305D01*
X284649Y380102D01*
X285430D01*
X286185Y380305D01*
X286862Y380696D01*
X287415Y381248D01*
X287806Y381925D01*
X288008Y382680D01*
Y383462D01*
X287806Y384217D01*
X287415Y384894D01*
X286862Y385446D01*
X286185Y385837D01*
X285430Y386039D01*
D02*
G37*
G36*
X259883Y376590D02*
X259015D01*
X258213Y376258D01*
X257600Y375645D01*
X257466Y375321D01*
X248819D01*
X248470Y375251D01*
X248175Y375054D01*
X246803Y373682D01*
X246605Y373386D01*
X246536Y373038D01*
Y372063D01*
X246536Y372063D01*
Y371466D01*
X246095Y371025D01*
X245876D01*
X244394Y372507D01*
X244099Y372704D01*
X243750Y372774D01*
X242776D01*
X242427Y372704D01*
X242131Y372507D01*
X241157Y371533D01*
X240960Y371237D01*
X240890Y370888D01*
Y369914D01*
X240960Y369565D01*
X241157Y369269D01*
X242945Y367482D01*
Y367262D01*
X242504Y366822D01*
X242285D01*
X240103Y369003D01*
X239808Y369201D01*
X239459Y369270D01*
X238485D01*
X238136Y369201D01*
X237840Y369003D01*
X236866Y368029D01*
X236668Y367733D01*
X236599Y367384D01*
Y366410D01*
X236668Y366061D01*
X236866Y365766D01*
X237564Y365067D01*
X237755Y364634D01*
X237024Y363903D01*
X233650D01*
X233361Y364403D01*
X233555Y364739D01*
X233858Y365871D01*
Y367042D01*
X233555Y368174D01*
X232969Y369188D01*
X232141Y370017D01*
X231127Y370602D01*
X229995Y370905D01*
X228824D01*
X227692Y370602D01*
X226678Y370017D01*
X225850Y369188D01*
X225264Y368174D01*
X224961Y367042D01*
Y365871D01*
X225264Y364739D01*
X225850Y363725D01*
X226678Y362897D01*
X227692Y362311D01*
X228824Y362008D01*
X229995D01*
X231127Y362311D01*
X231849Y362728D01*
X232230Y362348D01*
X232525Y362150D01*
X232874Y362081D01*
X237402D01*
X237750Y362150D01*
X238046Y362348D01*
X239044Y363346D01*
X239044Y363346D01*
X239322Y363624D01*
X239520Y363920D01*
X239589Y364268D01*
Y365243D01*
X239520Y365591D01*
X239322Y365887D01*
X238422Y366788D01*
Y367007D01*
X238862Y367447D01*
X239082D01*
X241263Y365266D01*
X241559Y365069D01*
X241907Y364999D01*
X242882D01*
X243230Y365069D01*
X243526Y365266D01*
X244500Y366241D01*
X244698Y366536D01*
X244767Y366885D01*
Y367859D01*
X244698Y368208D01*
X244500Y368503D01*
X242940Y370064D01*
Y370366D01*
X243298Y370724D01*
X243600D01*
X244854Y369470D01*
X245150Y369272D01*
X245498Y369203D01*
X246473D01*
X246821Y369272D01*
X247117Y369470D01*
X248091Y370444D01*
X248289Y370740D01*
X248358Y371089D01*
Y372063D01*
X248358Y372063D01*
Y372660D01*
X249196Y373498D01*
X257466D01*
X257600Y373174D01*
X258213Y372560D01*
X258682Y372366D01*
X258583Y371866D01*
X258228D01*
X257903Y371732D01*
X257731Y371904D01*
X257435Y372102D01*
X257087Y372171D01*
X254213D01*
X253864Y372102D01*
X253568Y371904D01*
X249550Y367886D01*
X244458Y362794D01*
X244078D01*
X243807Y362848D01*
X242832D01*
X242484Y362778D01*
X242188Y362581D01*
X241214Y361606D01*
X241016Y361311D01*
X240947Y360962D01*
Y359988D01*
X241016Y359639D01*
X241214Y359343D01*
X242404Y358154D01*
Y357934D01*
X241963Y357493D01*
X241743D01*
X239821Y359416D01*
X239526Y359613D01*
X239177Y359682D01*
X238203D01*
X237854Y359613D01*
X237558Y359416D01*
X236584Y358441D01*
X236386Y358146D01*
X236317Y357797D01*
Y356823D01*
X236386Y356474D01*
X236584Y356178D01*
X237103Y355659D01*
Y355439D01*
X231849Y350185D01*
X231127Y350602D01*
X229995Y350905D01*
X228824D01*
X227692Y350602D01*
X226678Y350017D01*
X225850Y349188D01*
X225264Y348174D01*
X224961Y347042D01*
Y345871D01*
X225264Y344740D01*
X225850Y343725D01*
X226678Y342897D01*
X227692Y342311D01*
X228824Y342008D01*
X229995D01*
X231127Y342311D01*
X232141Y342897D01*
X232969Y343725D01*
X233555Y344740D01*
X233858Y345871D01*
Y347042D01*
X233555Y348174D01*
X233138Y348897D01*
X238659Y354418D01*
X238857Y354713D01*
X238926Y355062D01*
Y356036D01*
X238857Y356385D01*
X238659Y356681D01*
X238140Y357200D01*
Y357419D01*
X238580Y357860D01*
X238800D01*
X240722Y355938D01*
X241017Y355740D01*
X241366Y355671D01*
X242340D01*
X242689Y355740D01*
X242985Y355938D01*
X243959Y356912D01*
X244157Y357208D01*
X244226Y357557D01*
Y358531D01*
X244157Y358880D01*
X243959Y359175D01*
X242997Y360138D01*
Y360655D01*
X243367Y361025D01*
X243589D01*
X243861Y360971D01*
X244835D01*
X245184Y361040D01*
X245479Y361238D01*
X250838Y366597D01*
X254590Y370349D01*
X256327D01*
X256480Y370119D01*
Y369251D01*
X256812Y368449D01*
X257426Y367836D01*
X258228Y367504D01*
X258461D01*
X258668Y367004D01*
X251061Y359397D01*
X245363Y353699D01*
X245144D01*
X244658Y354185D01*
X244362Y354383D01*
X244014Y354452D01*
X243039D01*
X242690Y354383D01*
X242395Y354185D01*
X241421Y353211D01*
X241223Y352916D01*
X241154Y352567D01*
Y351592D01*
X241223Y351244D01*
X241421Y350948D01*
X241705Y350664D01*
X241895Y350231D01*
X231849Y340185D01*
X231127Y340602D01*
X229995Y340905D01*
X228824D01*
X227692Y340602D01*
X226678Y340017D01*
X225850Y339188D01*
X225264Y338174D01*
X224961Y337042D01*
Y335871D01*
X225264Y334739D01*
X225850Y333725D01*
X226678Y332897D01*
X227692Y332311D01*
X228824Y332008D01*
X229995D01*
X231127Y332311D01*
X232141Y332897D01*
X232969Y333725D01*
X233555Y334739D01*
X233858Y335871D01*
Y337042D01*
X233555Y338174D01*
X233138Y338896D01*
X243184Y348942D01*
X243184Y348942D01*
X243462Y349221D01*
X243660Y349516D01*
X243729Y349865D01*
Y350839D01*
X243660Y351188D01*
X243462Y351484D01*
X242976Y351970D01*
Y352189D01*
X243417Y352630D01*
X243636D01*
X244122Y352144D01*
X244418Y351946D01*
X244766Y351877D01*
X245741D01*
X246090Y351946D01*
X246385Y352144D01*
X252350Y358108D01*
X263636Y369395D01*
X263834Y369691D01*
X263903Y370039D01*
Y370851D01*
X264228Y370986D01*
X264841Y371599D01*
X265173Y372401D01*
Y373269D01*
X264841Y374070D01*
X264228Y374684D01*
X263426Y375016D01*
X262558D01*
X262130Y374838D01*
X261667Y374843D01*
X261528Y375089D01*
X261298Y375645D01*
X260684Y376258D01*
X259883Y376590D01*
D02*
G37*
G36*
X442910Y370291D02*
X442129D01*
X441374Y370089D01*
X440697Y369698D01*
X440144Y369145D01*
X439753Y368469D01*
X439551Y367714D01*
Y366932D01*
X439753Y366177D01*
X440144Y365500D01*
X440697Y364947D01*
X441374Y364557D01*
X442129Y364354D01*
X442910D01*
X443666Y364557D01*
X444342Y364947D01*
X444895Y365500D01*
X445286Y366177D01*
X445488Y366932D01*
Y367714D01*
X445286Y368469D01*
X444895Y369145D01*
X444342Y369698D01*
X443666Y370089D01*
X442910Y370291D01*
D02*
G37*
G36*
X427163D02*
X426381D01*
X425626Y370089D01*
X424949Y369698D01*
X424396Y369145D01*
X424005Y368469D01*
X423803Y367714D01*
Y366932D01*
X424005Y366177D01*
X424396Y365500D01*
X424949Y364947D01*
X425626Y364557D01*
X426381Y364354D01*
X427163D01*
X427917Y364557D01*
X428594Y364947D01*
X429147Y365500D01*
X429538Y366177D01*
X429740Y366932D01*
Y367714D01*
X429538Y368469D01*
X429147Y369145D01*
X428594Y369698D01*
X427917Y370089D01*
X427163Y370291D01*
D02*
G37*
G36*
X316926D02*
X316145D01*
X315390Y370089D01*
X314713Y369698D01*
X314160Y369145D01*
X313769Y368469D01*
X313567Y367714D01*
Y366932D01*
X313769Y366177D01*
X314160Y365500D01*
X314713Y364947D01*
X315390Y364557D01*
X316145Y364354D01*
X316926D01*
X317681Y364557D01*
X318358Y364947D01*
X318911Y365500D01*
X319302Y366177D01*
X319504Y366932D01*
Y367714D01*
X319302Y368469D01*
X318911Y369145D01*
X318358Y369698D01*
X317681Y370089D01*
X316926Y370291D01*
D02*
G37*
G36*
X301178D02*
X300397D01*
X299642Y370089D01*
X298965Y369698D01*
X298412Y369145D01*
X298021Y368469D01*
X297819Y367714D01*
Y366932D01*
X298021Y366177D01*
X298412Y365500D01*
X298965Y364947D01*
X299642Y364557D01*
X300397Y364354D01*
X301178D01*
X301933Y364557D01*
X302610Y364947D01*
X303163Y365500D01*
X303554Y366177D01*
X303756Y366932D01*
Y367714D01*
X303554Y368469D01*
X303163Y369145D01*
X302610Y369698D01*
X301933Y370089D01*
X301178Y370291D01*
D02*
G37*
G36*
X219995Y370905D02*
X218824D01*
X217692Y370602D01*
X216678Y370017D01*
X215849Y369188D01*
X215264Y368174D01*
X214961Y367042D01*
Y365871D01*
X215264Y364739D01*
X215849Y363725D01*
X216678Y362897D01*
X217692Y362311D01*
X218824Y362008D01*
X219995D01*
X221127Y362311D01*
X222141Y362897D01*
X222969Y363725D01*
X223555Y364739D01*
X223858Y365871D01*
Y367042D01*
X223555Y368174D01*
X222969Y369188D01*
X222141Y370017D01*
X221127Y370602D01*
X219995Y370905D01*
D02*
G37*
G36*
X377559Y379921D02*
X354331D01*
Y352362D01*
X377559D01*
Y379921D01*
D02*
G37*
G36*
X219995Y360906D02*
X218824D01*
X217692Y360602D01*
X216678Y360017D01*
X215849Y359188D01*
X215264Y358174D01*
X214961Y357042D01*
Y355871D01*
X215264Y354739D01*
X215849Y353725D01*
X216678Y352897D01*
X217692Y352311D01*
X218824Y352008D01*
X219995D01*
X221127Y352311D01*
X222141Y352897D01*
X222969Y353725D01*
X223555Y354739D01*
X223858Y355871D01*
Y357042D01*
X223555Y358174D01*
X222969Y359188D01*
X222141Y360017D01*
X221127Y360602D01*
X219995Y360906D01*
D02*
G37*
G36*
X537835Y355724D02*
X536968D01*
X536166Y355392D01*
X535553Y354779D01*
X535220Y353977D01*
Y353110D01*
X535553Y352308D01*
X536166Y351694D01*
X536968Y351362D01*
X537835D01*
X538637Y351694D01*
X539251Y352308D01*
X539583Y353110D01*
Y353977D01*
X539251Y354779D01*
X538637Y355392D01*
X537835Y355724D01*
D02*
G37*
G36*
X248465Y409661D02*
X247598D01*
X246796Y409329D01*
X246182Y408716D01*
X245850Y407914D01*
Y407046D01*
X246182Y406245D01*
X246796Y405631D01*
X247598Y405299D01*
X248465D01*
X248790Y405434D01*
X277829Y376394D01*
Y361038D01*
X277505Y360904D01*
X276891Y360291D01*
X276559Y359489D01*
Y358621D01*
X276891Y357820D01*
X277505Y357206D01*
X278090Y356963D01*
Y356422D01*
X277505Y356180D01*
X276891Y355566D01*
X276559Y354765D01*
Y353930D01*
X247568Y324939D01*
X247371Y324644D01*
X247301Y324295D01*
Y298214D01*
X247371Y297865D01*
X247568Y297569D01*
X265680Y279458D01*
X265975Y279260D01*
X266324Y279191D01*
X463173D01*
X463522Y279260D01*
X463818Y279458D01*
X479557Y295197D01*
X479881Y295063D01*
X480749D01*
X481551Y295395D01*
X482164Y296009D01*
X482496Y296810D01*
Y297678D01*
X482164Y298480D01*
X481551Y299093D01*
X480749Y299425D01*
X479881D01*
X479079Y299093D01*
X478466Y298480D01*
X478134Y297678D01*
Y296810D01*
X478268Y296486D01*
X462796Y281014D01*
X270171D01*
X269964Y281514D01*
X270092Y281642D01*
X270483Y282319D01*
X270685Y283074D01*
Y283855D01*
X270483Y284610D01*
X270092Y285287D01*
X269539Y285840D01*
X268862Y286231D01*
X268107Y286433D01*
X267326D01*
X266571Y286231D01*
X265894Y285840D01*
X265341Y285287D01*
X264950Y284610D01*
X264748Y283855D01*
Y283674D01*
X264248Y283467D01*
X249124Y298591D01*
Y321154D01*
X249624Y321350D01*
X250354Y321047D01*
X251221D01*
X252023Y321379D01*
X252637Y321993D01*
X252969Y322795D01*
Y323662D01*
X252834Y323987D01*
X263763Y334916D01*
X332269D01*
X332403Y334591D01*
X333016Y333978D01*
X333818Y333646D01*
X334686D01*
X335488Y333978D01*
X336101Y334591D01*
X336433Y335393D01*
Y336261D01*
X336101Y337062D01*
X335488Y337676D01*
X334686Y338008D01*
X333818D01*
X333016Y337676D01*
X332403Y337062D01*
X332269Y336738D01*
X263386D01*
X263037Y336669D01*
X262741Y336471D01*
X251753Y325483D01*
X251466Y325552D01*
X251311Y326104D01*
X277634Y352428D01*
X278306Y352150D01*
X279174D01*
X279976Y352482D01*
X280325Y352831D01*
X280948Y352753D01*
X281089Y352508D01*
X281642Y351955D01*
X282319Y351565D01*
X283074Y351362D01*
X283855D01*
X284610Y351565D01*
X285287Y351955D01*
X285840Y352508D01*
X286231Y353185D01*
X286433Y353940D01*
Y354721D01*
X286231Y355476D01*
X285840Y356153D01*
X285287Y356706D01*
X284610Y357097D01*
X283855Y357299D01*
X283074D01*
X282319Y357097D01*
X281642Y356706D01*
X281089Y356153D01*
X280948Y355908D01*
X280325Y355830D01*
X279976Y356180D01*
X279390Y356422D01*
Y356963D01*
X279976Y357206D01*
X280589Y357820D01*
X280921Y358621D01*
Y359489D01*
X280589Y360291D01*
X279976Y360904D01*
X279651Y361038D01*
Y376772D01*
X279582Y377120D01*
X279384Y377416D01*
X250078Y406722D01*
X250213Y407046D01*
Y407914D01*
X249881Y408716D01*
X249267Y409329D01*
X248465Y409661D01*
D02*
G37*
G36*
X557520Y350606D02*
X556653D01*
X555851Y350274D01*
X555238Y349661D01*
X555103Y349336D01*
X539385D01*
X539251Y349661D01*
X538637Y350274D01*
X537835Y350606D01*
X536968D01*
X536166Y350274D01*
X535553Y349661D01*
X535220Y348859D01*
Y347991D01*
X535553Y347190D01*
X536166Y346576D01*
X536968Y346244D01*
X537835D01*
X538637Y346576D01*
X539251Y347190D01*
X539385Y347514D01*
X555103D01*
X555238Y347190D01*
X555851Y346576D01*
X556653Y346244D01*
X557520D01*
X558322Y346576D01*
X558936Y347190D01*
X559268Y347991D01*
Y348859D01*
X558936Y349661D01*
X558322Y350274D01*
X557520Y350606D01*
D02*
G37*
G36*
X206690Y354543D02*
X205908D01*
X205153Y354341D01*
X204476Y353950D01*
X203924Y353397D01*
X203533Y352721D01*
X203331Y351966D01*
Y351184D01*
X203533Y350429D01*
X203924Y349752D01*
X204476Y349199D01*
X205153Y348809D01*
X205908Y348606D01*
X206690D01*
X207445Y348809D01*
X208122Y349199D01*
X208675Y349752D01*
X209065Y350429D01*
X209268Y351184D01*
Y351966D01*
X209065Y352721D01*
X208675Y353397D01*
X208122Y353950D01*
X207445Y354341D01*
X206690Y354543D01*
D02*
G37*
G36*
X325237Y346669D02*
X324369D01*
X323568Y346337D01*
X323161Y345931D01*
X322835Y345779D01*
X322508Y345931D01*
X322102Y346337D01*
X321300Y346669D01*
X320432D01*
X319631Y346337D01*
X319017Y345724D01*
X318685Y344922D01*
Y344054D01*
X319017Y343253D01*
X319631Y342639D01*
X320432Y342307D01*
X321300D01*
X322102Y342639D01*
X322508Y343045D01*
X322835Y343197D01*
X323161Y343045D01*
X323568Y342639D01*
X324369Y342307D01*
X325237D01*
X326039Y342639D01*
X326652Y343253D01*
X326984Y344054D01*
Y344922D01*
X326652Y345724D01*
X326039Y346337D01*
X325237Y346669D01*
D02*
G37*
G36*
X313032Y352969D02*
X312165D01*
X311363Y352637D01*
X310749Y352023D01*
X310417Y351221D01*
Y350354D01*
X310749Y349552D01*
X311363Y348938D01*
X311523Y348872D01*
Y348372D01*
X311363Y348306D01*
X310749Y347692D01*
X310417Y346890D01*
Y346023D01*
X310749Y345221D01*
X311363Y344608D01*
X312165Y344276D01*
X313032D01*
X313834Y344608D01*
X314447Y345221D01*
X314779Y346023D01*
Y346890D01*
X314447Y347692D01*
X313834Y348306D01*
X313674Y348372D01*
Y348872D01*
X313834Y348938D01*
X314447Y349552D01*
X314779Y350354D01*
Y351221D01*
X314447Y352023D01*
X313834Y352637D01*
X313032Y352969D01*
D02*
G37*
G36*
X295709Y346669D02*
X294842D01*
X294040Y346337D01*
X293426Y345724D01*
X293094Y344922D01*
Y344054D01*
X293426Y343253D01*
X294040Y342639D01*
X294842Y342307D01*
X295709D01*
X296511Y342639D01*
X297125Y343253D01*
X297457Y344054D01*
Y344922D01*
X297125Y345724D01*
X296511Y346337D01*
X295709Y346669D01*
D02*
G37*
G36*
X219995Y350905D02*
X218824D01*
X217692Y350602D01*
X216678Y350017D01*
X215849Y349188D01*
X215264Y348174D01*
X214961Y347042D01*
Y345871D01*
X215264Y344740D01*
X215849Y343725D01*
X216678Y342897D01*
X217692Y342311D01*
X218824Y342008D01*
X219995D01*
X221127Y342311D01*
X222141Y342897D01*
X222969Y343725D01*
X223555Y344740D01*
X223858Y345871D01*
Y347042D01*
X223555Y348174D01*
X222969Y349188D01*
X222141Y350017D01*
X221127Y350602D01*
X219995Y350905D01*
D02*
G37*
G36*
X427163Y338795D02*
X426381D01*
X425626Y338593D01*
X424949Y338202D01*
X424396Y337649D01*
X424005Y336973D01*
X423803Y336218D01*
Y335436D01*
X424005Y334681D01*
X424396Y334004D01*
X424949Y333451D01*
X425626Y333061D01*
X426381Y332858D01*
X427163D01*
X427917Y333061D01*
X428594Y333451D01*
X429147Y334004D01*
X429538Y334681D01*
X429740Y335436D01*
Y336218D01*
X429538Y336973D01*
X429147Y337649D01*
X428594Y338202D01*
X427917Y338593D01*
X427163Y338795D01*
D02*
G37*
G36*
X395666D02*
X394885D01*
X394130Y338593D01*
X393453Y338202D01*
X392900Y337649D01*
X392509Y336973D01*
X392307Y336218D01*
Y335436D01*
X392509Y334681D01*
X392900Y334004D01*
X393453Y333451D01*
X394130Y333061D01*
X394885Y332858D01*
X395666D01*
X396421Y333061D01*
X397098Y333451D01*
X397651Y334004D01*
X398042Y334681D01*
X398244Y335436D01*
Y336218D01*
X398042Y336973D01*
X397651Y337649D01*
X397098Y338202D01*
X396421Y338593D01*
X395666Y338795D01*
D02*
G37*
G36*
X326418Y329740D02*
X325550D01*
X324749Y329408D01*
X324135Y328795D01*
X323803Y327993D01*
Y327125D01*
X324135Y326324D01*
X324749Y325710D01*
X325550Y325378D01*
X326418D01*
X327220Y325710D01*
X327833Y326324D01*
X328165Y327125D01*
Y327993D01*
X327833Y328795D01*
X327220Y329408D01*
X326418Y329740D01*
D02*
G37*
G36*
X318544D02*
X317676D01*
X316875Y329408D01*
X316261Y328795D01*
X315929Y327993D01*
Y327125D01*
X316261Y326324D01*
X316875Y325710D01*
X317676Y325378D01*
X318544D01*
X319346Y325710D01*
X319959Y326324D01*
X320291Y327125D01*
Y327993D01*
X319959Y328795D01*
X319346Y329408D01*
X318544Y329740D01*
D02*
G37*
G36*
X310670D02*
X309802D01*
X309001Y329408D01*
X308387Y328795D01*
X308055Y327993D01*
Y327125D01*
X308387Y326324D01*
X309001Y325710D01*
X309802Y325378D01*
X310670D01*
X311472Y325710D01*
X312085Y326324D01*
X312417Y327125D01*
Y327993D01*
X312085Y328795D01*
X311472Y329408D01*
X310670Y329740D01*
D02*
G37*
G36*
X302796D02*
X301928D01*
X301127Y329408D01*
X300513Y328795D01*
X300181Y327993D01*
Y327125D01*
X300513Y326324D01*
X301127Y325710D01*
X301928Y325378D01*
X302796D01*
X303598Y325710D01*
X304211Y326324D01*
X304543Y327125D01*
Y327993D01*
X304211Y328795D01*
X303598Y329408D01*
X302796Y329740D01*
D02*
G37*
G36*
X294922D02*
X294054D01*
X293253Y329408D01*
X292639Y328795D01*
X292307Y327993D01*
Y327125D01*
X292639Y326324D01*
X293253Y325710D01*
X294054Y325378D01*
X294922D01*
X295724Y325710D01*
X296337Y326324D01*
X296669Y327125D01*
Y327993D01*
X296337Y328795D01*
X295724Y329408D01*
X294922Y329740D01*
D02*
G37*
G36*
X287048D02*
X286180D01*
X285379Y329408D01*
X284765Y328795D01*
X284433Y327993D01*
Y327125D01*
X284765Y326324D01*
X285379Y325710D01*
X286180Y325378D01*
X287048D01*
X287850Y325710D01*
X288463Y326324D01*
X288795Y327125D01*
Y327993D01*
X288463Y328795D01*
X287850Y329408D01*
X287048Y329740D01*
D02*
G37*
G36*
X279174D02*
X278306D01*
X277505Y329408D01*
X276891Y328795D01*
X276559Y327993D01*
Y327125D01*
X276891Y326324D01*
X277505Y325710D01*
X278306Y325378D01*
X279174D01*
X279976Y325710D01*
X280589Y326324D01*
X280921Y327125D01*
Y327993D01*
X280589Y328795D01*
X279976Y329408D01*
X279174Y329740D01*
D02*
G37*
G36*
X267757Y371079D02*
X266889D01*
X266087Y370747D01*
X265474Y370133D01*
X265142Y369332D01*
Y368464D01*
X265474Y367662D01*
X266087Y367049D01*
X266412Y366914D01*
Y364748D01*
X232570Y330906D01*
X224961D01*
Y322008D01*
X233858D01*
Y329617D01*
X267967Y363726D01*
X268165Y364021D01*
X268234Y364370D01*
Y366914D01*
X268558Y367049D01*
X269172Y367662D01*
X269504Y368464D01*
Y369332D01*
X269172Y370133D01*
X268558Y370747D01*
X267757Y371079D01*
D02*
G37*
G36*
X219995Y330906D02*
X218824D01*
X217692Y330602D01*
X216678Y330017D01*
X215849Y329188D01*
X215264Y328174D01*
X214961Y327042D01*
Y325871D01*
X215264Y324740D01*
X215849Y323725D01*
X216678Y322897D01*
X217692Y322311D01*
X218824Y322008D01*
X219995D01*
X221127Y322311D01*
X222141Y322897D01*
X222969Y323725D01*
X223555Y324740D01*
X223858Y325871D01*
Y327042D01*
X223555Y328174D01*
X222969Y329188D01*
X222141Y330017D01*
X221127Y330602D01*
X219995Y330906D01*
D02*
G37*
G36*
X441336Y317929D02*
X440554D01*
X439799Y317727D01*
X439122Y317336D01*
X438569Y316783D01*
X438179Y316106D01*
X437976Y315351D01*
Y314570D01*
X438179Y313815D01*
X438569Y313138D01*
X439122Y312585D01*
X439799Y312194D01*
X440554Y311992D01*
X441336D01*
X442091Y312194D01*
X442768Y312585D01*
X443320Y313138D01*
X443711Y313815D01*
X443913Y314570D01*
Y315351D01*
X443711Y316106D01*
X443320Y316783D01*
X442768Y317336D01*
X442091Y317727D01*
X441336Y317929D01*
D02*
G37*
G36*
X394092D02*
X393310D01*
X392555Y317727D01*
X391878Y317336D01*
X391325Y316783D01*
X390935Y316106D01*
X390732Y315351D01*
Y314570D01*
X390935Y313815D01*
X391325Y313138D01*
X391878Y312585D01*
X392555Y312194D01*
X393310Y311992D01*
X394092D01*
X394847Y312194D01*
X395524Y312585D01*
X396076Y313138D01*
X396467Y313815D01*
X396669Y314570D01*
Y315351D01*
X396467Y316106D01*
X396076Y316783D01*
X395524Y317336D01*
X394847Y317727D01*
X394092Y317929D01*
D02*
G37*
G36*
X228780Y294307D02*
X227913D01*
X227111Y293975D01*
X226497Y293361D01*
X226165Y292560D01*
Y291692D01*
X226497Y290891D01*
X227111Y290277D01*
X227913Y289945D01*
X228780D01*
X229582Y290277D01*
X230195Y290891D01*
X230528Y291692D01*
Y292560D01*
X230195Y293361D01*
X229582Y293975D01*
X228780Y294307D01*
D02*
G37*
G36*
Y288008D02*
X227913D01*
X227111Y287676D01*
X226497Y287062D01*
X226165Y286261D01*
Y285393D01*
X226497Y284591D01*
X227111Y283978D01*
X227913Y283646D01*
X228780D01*
X229582Y283978D01*
X230195Y284591D01*
X230528Y285393D01*
Y286261D01*
X230195Y287062D01*
X229582Y287676D01*
X228780Y288008D01*
D02*
G37*
G36*
X535824Y286433D02*
X535042D01*
X534287Y286231D01*
X533610Y285840D01*
X533058Y285287D01*
X532667Y284610D01*
X532465Y283855D01*
Y283074D01*
X532667Y282319D01*
X533058Y281642D01*
X533610Y281089D01*
X534287Y280698D01*
X535042Y280496D01*
X535824D01*
X536579Y280698D01*
X537256Y281089D01*
X537809Y281642D01*
X538199Y282319D01*
X538402Y283074D01*
Y283855D01*
X538199Y284610D01*
X537809Y285287D01*
X537256Y285840D01*
X536579Y286231D01*
X535824Y286433D01*
D02*
G37*
G36*
X514915Y276240D02*
X513432D01*
X512000Y275856D01*
X510716Y275115D01*
X509668Y274067D01*
X508927Y272783D01*
X508543Y271351D01*
Y269869D01*
X508927Y268437D01*
X509668Y267153D01*
X510716Y266105D01*
X512000Y265364D01*
X513432Y264980D01*
X514915D01*
X516346Y265364D01*
X517630Y266105D01*
X518678Y267153D01*
X519419Y268437D01*
X519803Y269869D01*
Y271351D01*
X519419Y272783D01*
X518678Y274067D01*
X517630Y275115D01*
X516346Y275856D01*
X514915Y276240D01*
D02*
G37*
G36*
X501529D02*
X500046D01*
X498614Y275856D01*
X497331Y275115D01*
X496282Y274067D01*
X495541Y272783D01*
X495157Y271351D01*
Y269869D01*
X495541Y268437D01*
X496282Y267153D01*
X497331Y266105D01*
X498614Y265364D01*
X500046Y264980D01*
X501529D01*
X502960Y265364D01*
X504244Y266105D01*
X505293Y267153D01*
X506034Y268437D01*
X506417Y269869D01*
Y271351D01*
X506034Y272783D01*
X505293Y274067D01*
X504244Y275115D01*
X502960Y275856D01*
X501529Y276240D01*
D02*
G37*
G36*
X490155Y260055D02*
X489373D01*
X488618Y259853D01*
X487941Y259462D01*
X487388Y258909D01*
X486998Y258232D01*
X486795Y257477D01*
Y256696D01*
X486998Y255941D01*
X487388Y255264D01*
X487941Y254711D01*
X488618Y254320D01*
X489373Y254118D01*
X490155D01*
X490910Y254320D01*
X491586Y254711D01*
X492139Y255264D01*
X492530Y255941D01*
X492732Y256696D01*
Y257477D01*
X492530Y258232D01*
X492139Y258909D01*
X491586Y259462D01*
X490910Y259853D01*
X490155Y260055D01*
D02*
G37*
G36*
X450271Y259882D02*
X448903D01*
X447581Y259528D01*
X446396Y258843D01*
X445428Y257876D01*
X444744Y256691D01*
X444390Y255369D01*
Y254001D01*
X444744Y252679D01*
X445428Y251494D01*
X446396Y250526D01*
X447581Y249842D01*
X448903Y249488D01*
X450271D01*
X451593Y249842D01*
X452778Y250526D01*
X453745Y251494D01*
X454429Y252679D01*
X454783Y254001D01*
Y255369D01*
X454429Y256691D01*
X453745Y257876D01*
X452778Y258843D01*
X451593Y259528D01*
X450271Y259882D01*
D02*
G37*
G36*
X258184Y250512D02*
X256816D01*
X255494Y250158D01*
X254309Y249474D01*
X253342Y248506D01*
X252657Y247321D01*
X252303Y245999D01*
Y244631D01*
X252657Y243309D01*
X253342Y242124D01*
X254309Y241156D01*
X255494Y240472D01*
X256816Y240118D01*
X258184D01*
X259506Y240472D01*
X260691Y241156D01*
X261659Y242124D01*
X262343Y243309D01*
X262697Y244631D01*
Y245999D01*
X262343Y247321D01*
X261659Y248506D01*
X260691Y249474D01*
X259506Y250158D01*
X258184Y250512D01*
D02*
G37*
G36*
X411414Y244307D02*
X410633D01*
X409878Y244105D01*
X409201Y243714D01*
X408648Y243161D01*
X408257Y242484D01*
X408055Y241729D01*
Y240948D01*
X408257Y240193D01*
X408648Y239516D01*
X409201Y238963D01*
X409878Y238572D01*
X410633Y238370D01*
X411414D01*
X412169Y238572D01*
X412846Y238963D01*
X413399Y239516D01*
X413790Y240193D01*
X413992Y240948D01*
Y241729D01*
X413790Y242484D01*
X413399Y243161D01*
X412846Y243714D01*
X412169Y244105D01*
X411414Y244307D01*
D02*
G37*
G36*
X379918D02*
X379137D01*
X378382Y244105D01*
X377705Y243714D01*
X377152Y243161D01*
X376761Y242484D01*
X376559Y241729D01*
Y240948D01*
X376761Y240193D01*
X377152Y239516D01*
X377705Y238963D01*
X378382Y238572D01*
X379137Y238370D01*
X379918D01*
X380673Y238572D01*
X381350Y238963D01*
X381903Y239516D01*
X382294Y240193D01*
X382496Y240948D01*
Y241729D01*
X382294Y242484D01*
X381903Y243161D01*
X381350Y243714D01*
X380673Y244105D01*
X379918Y244307D01*
D02*
G37*
G36*
X348422D02*
X347641D01*
X346886Y244105D01*
X346209Y243714D01*
X345656Y243161D01*
X345265Y242484D01*
X345063Y241729D01*
Y240948D01*
X345265Y240193D01*
X345656Y239516D01*
X346209Y238963D01*
X346886Y238572D01*
X347641Y238370D01*
X348422D01*
X349177Y238572D01*
X349854Y238963D01*
X350407Y239516D01*
X350798Y240193D01*
X351000Y240948D01*
Y241729D01*
X350798Y242484D01*
X350407Y243161D01*
X349854Y243714D01*
X349177Y244105D01*
X348422Y244307D01*
D02*
G37*
G36*
X316926D02*
X316145D01*
X315390Y244105D01*
X314713Y243714D01*
X314160Y243161D01*
X313769Y242484D01*
X313567Y241729D01*
Y240948D01*
X313769Y240193D01*
X314160Y239516D01*
X314713Y238963D01*
X315390Y238572D01*
X316145Y238370D01*
X316926D01*
X317681Y238572D01*
X318358Y238963D01*
X318911Y239516D01*
X319302Y240193D01*
X319504Y240948D01*
Y241729D01*
X319302Y242484D01*
X318911Y243161D01*
X318358Y243714D01*
X317681Y244105D01*
X316926Y244307D01*
D02*
G37*
G36*
X285430D02*
X284649D01*
X283894Y244105D01*
X283217Y243714D01*
X282664Y243161D01*
X282273Y242484D01*
X282071Y241729D01*
Y240948D01*
X282273Y240193D01*
X282664Y239516D01*
X283217Y238963D01*
X283894Y238572D01*
X284649Y238370D01*
X285430D01*
X286185Y238572D01*
X286862Y238963D01*
X287415Y239516D01*
X287806Y240193D01*
X288008Y240948D01*
Y241729D01*
X287806Y242484D01*
X287415Y243161D01*
X286862Y243714D01*
X286185Y244105D01*
X285430Y244307D01*
D02*
G37*
G36*
X550763Y242646D02*
X549631D01*
X548537Y242353D01*
X547557Y241787D01*
X546757Y240986D01*
X546191Y240006D01*
X545898Y238913D01*
Y237780D01*
X546191Y236687D01*
X546757Y235707D01*
X547557Y234906D01*
X548537Y234340D01*
X549631Y234047D01*
X550763D01*
X551856Y234340D01*
X552837Y234906D01*
X553637Y235707D01*
X554203Y236687D01*
X554496Y237780D01*
Y238913D01*
X554203Y240006D01*
X553637Y240986D01*
X552837Y241787D01*
X551856Y242353D01*
X550763Y242646D01*
D02*
G37*
G36*
Y232646D02*
X549631D01*
X548537Y232353D01*
X547557Y231787D01*
X546757Y230986D01*
X546191Y230006D01*
X545898Y228912D01*
Y227781D01*
X546191Y226687D01*
X546757Y225707D01*
X547557Y224906D01*
X548537Y224340D01*
X549631Y224047D01*
X550763D01*
X551856Y224340D01*
X552837Y224906D01*
X553637Y225707D01*
X554203Y226687D01*
X554496Y227781D01*
Y228912D01*
X554203Y230006D01*
X553637Y230986D01*
X552837Y231787D01*
X551856Y232353D01*
X550763Y232646D01*
D02*
G37*
G36*
X537399Y228559D02*
X536617D01*
X535862Y228357D01*
X535185Y227966D01*
X534632Y227413D01*
X534242Y226736D01*
X534039Y225981D01*
Y225200D01*
X534242Y224445D01*
X534632Y223768D01*
X535185Y223215D01*
X535862Y222824D01*
X536617Y222622D01*
X537399D01*
X538154Y222824D01*
X538831Y223215D01*
X539383Y223768D01*
X539774Y224445D01*
X539976Y225200D01*
Y225981D01*
X539774Y226736D01*
X539383Y227413D01*
X538831Y227966D01*
X538154Y228357D01*
X537399Y228559D01*
D02*
G37*
G36*
X411414Y220685D02*
X410633D01*
X409878Y220483D01*
X409201Y220092D01*
X408648Y219539D01*
X408257Y218862D01*
X408055Y218107D01*
Y217326D01*
X408257Y216571D01*
X408648Y215894D01*
X409201Y215341D01*
X409878Y214950D01*
X410633Y214748D01*
X411414D01*
X412169Y214950D01*
X412846Y215341D01*
X413399Y215894D01*
X413790Y216571D01*
X413992Y217326D01*
Y218107D01*
X413790Y218862D01*
X413399Y219539D01*
X412846Y220092D01*
X412169Y220483D01*
X411414Y220685D01*
D02*
G37*
G36*
X379918D02*
X379137D01*
X378382Y220483D01*
X377705Y220092D01*
X377152Y219539D01*
X376761Y218862D01*
X376559Y218107D01*
Y217326D01*
X376761Y216571D01*
X377152Y215894D01*
X377705Y215341D01*
X378382Y214950D01*
X379137Y214748D01*
X379918D01*
X380673Y214950D01*
X381350Y215341D01*
X381903Y215894D01*
X382294Y216571D01*
X382496Y217326D01*
Y218107D01*
X382294Y218862D01*
X381903Y219539D01*
X381350Y220092D01*
X380673Y220483D01*
X379918Y220685D01*
D02*
G37*
G36*
X348422D02*
X347641D01*
X346886Y220483D01*
X346209Y220092D01*
X345656Y219539D01*
X345265Y218862D01*
X345063Y218107D01*
Y217326D01*
X345265Y216571D01*
X345656Y215894D01*
X346209Y215341D01*
X346886Y214950D01*
X347641Y214748D01*
X348422D01*
X349177Y214950D01*
X349854Y215341D01*
X350407Y215894D01*
X350798Y216571D01*
X351000Y217326D01*
Y218107D01*
X350798Y218862D01*
X350407Y219539D01*
X349854Y220092D01*
X349177Y220483D01*
X348422Y220685D01*
D02*
G37*
G36*
X316926D02*
X316145D01*
X315390Y220483D01*
X314713Y220092D01*
X314160Y219539D01*
X313769Y218862D01*
X313567Y218107D01*
Y217326D01*
X313769Y216571D01*
X314160Y215894D01*
X314713Y215341D01*
X315390Y214950D01*
X316145Y214748D01*
X316926D01*
X317681Y214950D01*
X318358Y215341D01*
X318911Y215894D01*
X319302Y216571D01*
X319504Y217326D01*
Y218107D01*
X319302Y218862D01*
X318911Y219539D01*
X318358Y220092D01*
X317681Y220483D01*
X316926Y220685D01*
D02*
G37*
G36*
X285430D02*
X284649D01*
X283894Y220483D01*
X283217Y220092D01*
X282664Y219539D01*
X282273Y218862D01*
X282071Y218107D01*
Y217326D01*
X282273Y216571D01*
X282664Y215894D01*
X283217Y215341D01*
X283894Y214950D01*
X284649Y214748D01*
X285430D01*
X286185Y214950D01*
X286862Y215341D01*
X287415Y215894D01*
X287806Y216571D01*
X288008Y217326D01*
Y218107D01*
X287806Y218862D01*
X287415Y219539D01*
X286862Y220092D01*
X286185Y220483D01*
X285430Y220685D01*
D02*
G37*
G36*
X550763Y222646D02*
X549631D01*
X548537Y222353D01*
X547557Y221787D01*
X546757Y220986D01*
X546191Y220006D01*
X545898Y218913D01*
Y217780D01*
X546191Y216687D01*
X546757Y215707D01*
X547557Y214906D01*
X548537Y214340D01*
X549631Y214047D01*
X550763D01*
X551856Y214340D01*
X552837Y214906D01*
X553637Y215707D01*
X554203Y216687D01*
X554496Y217780D01*
Y218913D01*
X554203Y220006D01*
X553637Y220986D01*
X552837Y221787D01*
X551856Y222353D01*
X550763Y222646D01*
D02*
G37*
G36*
X514915Y223209D02*
X513432D01*
X512000Y222825D01*
X510716Y222084D01*
X509668Y221036D01*
X508927Y219752D01*
X508543Y218320D01*
Y216838D01*
X508927Y215406D01*
X509668Y214122D01*
X510716Y213074D01*
X512000Y212333D01*
X513432Y211949D01*
X514915D01*
X516346Y212333D01*
X517630Y213074D01*
X518678Y214122D01*
X519419Y215406D01*
X519803Y216838D01*
Y218320D01*
X519419Y219752D01*
X518678Y221036D01*
X517630Y222084D01*
X516346Y222825D01*
X514915Y223209D01*
D02*
G37*
G36*
X501529D02*
X500046D01*
X498614Y222825D01*
X497331Y222084D01*
X496282Y221036D01*
X495541Y219752D01*
X495157Y218320D01*
Y216838D01*
X495541Y215406D01*
X496282Y214122D01*
X497331Y213074D01*
X498614Y212333D01*
X500046Y211949D01*
X501529D01*
X502960Y212333D01*
X504244Y213074D01*
X505293Y214122D01*
X506034Y215406D01*
X506417Y216838D01*
Y218320D01*
X506034Y219752D01*
X505293Y221036D01*
X504244Y222084D01*
X502960Y222825D01*
X501529Y223209D01*
D02*
G37*
G36*
X642065Y483386D02*
X640219D01*
X638409Y483026D01*
X636703Y482319D01*
X635169Y481294D01*
X633863Y479989D01*
X632838Y478454D01*
X632132Y476749D01*
X631772Y474939D01*
Y473093D01*
X632132Y471283D01*
X632838Y469577D01*
X633863Y468043D01*
X635169Y466738D01*
X636703Y465712D01*
X638409Y465006D01*
X640219Y464646D01*
X642065D01*
X643875Y465006D01*
X645580Y465712D01*
X647115Y466738D01*
X648420Y468043D01*
X649445Y469577D01*
X650152Y471283D01*
X650512Y473093D01*
Y474939D01*
X650152Y476749D01*
X649445Y478454D01*
X648420Y479989D01*
X647115Y481294D01*
X645580Y482319D01*
X643875Y483026D01*
X642065Y483386D01*
D02*
G37*
G36*
X626558Y463701D02*
X625410D01*
X624285Y463477D01*
X623224Y463038D01*
X622270Y462400D01*
X621458Y461588D01*
X620821Y460634D01*
X620381Y459574D01*
X620157Y458448D01*
Y457300D01*
X620381Y456174D01*
X620821Y455114D01*
X621458Y454160D01*
X622270Y453348D01*
X623224Y452710D01*
X624285Y452271D01*
X625410Y452047D01*
X626558D01*
X627684Y452271D01*
X628744Y452710D01*
X629699Y453348D01*
X630510Y454160D01*
X631148Y455114D01*
X631587Y456174D01*
X631811Y457300D01*
Y458448D01*
X631587Y459574D01*
X631148Y460634D01*
X630510Y461588D01*
X629699Y462400D01*
X628744Y463038D01*
X627684Y463477D01*
X626558Y463701D01*
D02*
G37*
%LPD*%
D16*
X332677Y423228D02*
X333465Y424016D01*
X302656Y441732D02*
X321160Y423228D01*
X332677D01*
X296850Y418898D02*
X299606D01*
X301575Y420866D01*
Y424607D01*
X302862Y419791D02*
Y425140D01*
X299371Y416300D02*
X302862Y419791D01*
X294647Y416300D02*
X299371D01*
X296850Y413386D02*
X298425D01*
X304150Y419110D01*
Y425674D01*
X296870Y407944D02*
X296870D01*
X306724Y417798D01*
X295276Y407480D02*
X296407D01*
X296870Y407944D01*
X215748Y441732D02*
X231890Y425591D01*
X291339D01*
X294882Y422047D01*
X330315Y425591D02*
X331496Y426772D01*
X320077Y427953D02*
X329036D01*
X320619Y425591D02*
X330315D01*
X331398Y430315D02*
X331496D01*
X329036Y427953D02*
X331398Y430315D01*
X324360Y414567D02*
X331102D01*
X302962Y435965D02*
X324360Y414567D01*
X302429Y434677D02*
X325689Y411417D01*
X332283D01*
X301895Y433390D02*
X327017Y408268D01*
X331102D01*
X294488Y416142D02*
X294647Y416300D01*
X306724Y417798D02*
Y426740D01*
X305437Y418331D02*
Y426207D01*
X297917Y410811D02*
X305437Y418331D01*
X294094Y410630D02*
X294276Y410811D01*
X297917D01*
X271335Y433390D02*
X301895D01*
X300829Y430815D02*
X305437Y426207D01*
X262992Y441732D02*
X271335Y433390D01*
X258161Y430815D02*
X300829D01*
X301362Y432102D02*
X306724Y426740D01*
X284508Y435965D02*
X302962D01*
X278740Y441732D02*
X284508Y435965D01*
X270866Y441732D02*
X277921Y434677D01*
X264748Y432102D02*
X301362D01*
X291094Y437252D02*
X303495D01*
X286614Y441732D02*
X291094Y437252D01*
X277921Y434677D02*
X302429D01*
X303495Y437252D02*
X323015Y417732D01*
X245741Y352788D02*
X251705Y358753D01*
X244766Y352788D02*
X245741D01*
X244014Y353541D02*
X244766Y352788D01*
X243039Y353541D02*
X244014D01*
X242065Y352567D02*
X243039Y353541D01*
X242065Y351592D02*
Y352567D01*
Y351592D02*
X242818Y350839D01*
Y349865D02*
Y350839D01*
X242539Y349587D02*
X242818Y349865D01*
X244835Y361882D02*
X250194Y367242D01*
X243861Y361882D02*
X244835D01*
X243807Y361936D02*
X243861Y361882D01*
X242832Y361936D02*
X243807D01*
X241858Y360962D02*
X242832Y361936D01*
X241858Y359988D02*
Y360962D01*
Y359988D02*
X243315Y358531D01*
Y357557D02*
Y358531D01*
X242340Y356582D02*
X243315Y357557D01*
X241366Y356582D02*
X242340D01*
X239177Y358771D02*
X241366Y356582D01*
X238203Y358771D02*
X239177D01*
X237228Y357797D02*
X238203Y358771D01*
X237228Y356823D02*
Y357797D01*
Y356823D02*
X238015Y356036D01*
Y355062D02*
Y356036D01*
X237736Y354784D02*
X238015Y355062D01*
X247447Y373038D02*
X248238Y373829D01*
X247447Y372063D02*
Y373038D01*
Y372063D02*
X247447Y372063D01*
Y371089D02*
Y372063D01*
X246473Y370114D02*
X247447Y371089D01*
X245498Y370114D02*
X246473D01*
X243750Y371863D02*
X245498Y370114D01*
X242776Y371863D02*
X243750D01*
X241801Y370888D02*
X242776Y371863D01*
X241801Y369914D02*
Y370888D01*
Y369914D02*
X243856Y367859D01*
Y366885D02*
Y367859D01*
X242882Y365910D02*
X243856Y366885D01*
X241907Y365910D02*
X242882D01*
X239459Y368359D02*
X241907Y365910D01*
X238485Y368359D02*
X239459D01*
X237510Y367384D02*
X238485Y368359D01*
X237510Y366410D02*
Y367384D01*
Y366410D02*
X238678Y365243D01*
Y364268D02*
Y365243D01*
X238399Y363990D02*
X238678Y364268D01*
X250194Y367242D02*
X254213Y371260D01*
X257087D01*
X258661Y369685D01*
X267323Y364370D02*
Y368898D01*
X266324Y280102D02*
X463173D01*
X278740Y359055D02*
Y376772D01*
X248031Y407480D02*
X278740Y376772D01*
X277947Y354029D02*
X278439D01*
X248213Y298214D02*
Y324295D01*
X307874Y344882D02*
Y379921D01*
X360236Y432283D01*
X250787Y323228D02*
X263386Y335827D01*
X334252D01*
X572835Y320866D02*
Y320866D01*
Y312992D02*
Y312992D01*
Y316929D02*
X600394Y344488D01*
X572835Y312992D02*
X600394Y340551D01*
X572835Y316929D02*
Y316929D01*
Y320866D02*
X600394Y348425D01*
X537402Y348425D02*
X557087D01*
X520766Y403543D02*
X572441D01*
X625709Y350276D02*
X631846D01*
X572441Y403543D02*
X625709Y350276D01*
X580602Y404831D02*
X625315Y360118D01*
X631846D01*
X520233Y404831D02*
X580602D01*
X519700Y406118D02*
X589945D01*
X626102Y369961D02*
X631846D01*
X589945Y406118D02*
X626102Y369961D01*
X519167Y407406D02*
X597319D01*
X624921Y379803D02*
X635118D01*
X597319Y407406D02*
X624921Y379803D01*
X605874Y408693D02*
X625472Y389094D01*
X518633Y408693D02*
X605874D01*
X625472Y389094D02*
X644961D01*
X627047Y398937D02*
X661373D01*
X518100Y409980D02*
X616004D01*
X627047Y398937D01*
X406972Y297031D02*
X518633Y408693D01*
X409105Y291882D02*
X520766Y403543D01*
X517567Y411268D02*
X658885D01*
X406439Y298319D02*
X518100Y409980D01*
X405905Y299606D02*
X517567Y411268D01*
X408572Y293169D02*
X520233Y404831D01*
X407505Y295744D02*
X519167Y407406D01*
X658885Y411268D02*
X665382Y404771D01*
X408039Y294457D02*
X519700Y406118D01*
X661373Y398937D02*
X664094Y396216D01*
Y362840D02*
Y396216D01*
X665382Y354284D02*
Y404771D01*
X635118Y379803D02*
X639764Y384449D01*
X631846Y350276D02*
X635118Y353548D01*
Y360118D01*
X639764Y364764D01*
X631846Y360118D02*
X634842Y363115D01*
Y366412D02*
X637840Y369409D01*
X634842Y363115D02*
Y366412D01*
X637840Y369409D02*
X644961D01*
X649606Y364764D01*
X631846Y369961D02*
X634842Y372958D01*
X644961Y379252D02*
X649606Y374606D01*
X637840Y379252D02*
X644961D01*
X634842Y376255D02*
X637840Y379252D01*
X634842Y372958D02*
Y376255D01*
X644961Y389094D02*
X649606Y384449D01*
X643898Y373745D02*
X647682Y369961D01*
X649606Y354921D02*
X654252Y359567D01*
X640625Y373745D02*
X643898D01*
X661373Y350276D02*
X665382Y354284D01*
X660822Y359567D02*
X664094Y362840D01*
X654252Y359567D02*
X660822D01*
X647682Y350276D02*
X661373D01*
X644961Y352997D02*
X647682Y350276D01*
X644961Y352997D02*
Y356846D01*
X647958Y359842D01*
X651255D02*
X654252Y362840D01*
X647958Y359842D02*
X651255D01*
X654252Y362840D02*
Y366688D01*
X647682Y369961D02*
X650979D01*
X654252Y366688D01*
X639764Y374606D02*
X640625Y373745D01*
X311736Y295744D02*
X407505D01*
X291976Y291882D02*
X409105D01*
X298563Y293169D02*
X408572D01*
X305150Y294457D02*
X408039D01*
X331496Y299606D02*
X405905D01*
X324909Y298319D02*
X406439D01*
X318323Y297031D02*
X406972D01*
X302362Y305118D02*
X311736Y295744D01*
X294488Y305118D02*
X305150Y294457D01*
X310236Y305118D02*
X318323Y297031D01*
X318110Y305118D02*
X324909Y298319D01*
X325984Y305118D02*
X331496Y299606D01*
X278740Y305118D02*
X291976Y291882D01*
X286614Y305118D02*
X298563Y293169D01*
X463173Y280102D02*
X480315Y297244D01*
X278439Y354029D02*
X278740Y354331D01*
X248213Y324295D02*
X277947Y354029D01*
X248213Y298214D02*
X266324Y280102D01*
X360236Y432283D02*
X481822D01*
X475492Y448425D02*
X481822Y442095D01*
Y432283D02*
Y442095D01*
Y432283D02*
X485325Y428781D01*
Y426683D02*
Y428781D01*
Y426683D02*
X491142Y420866D01*
X237402Y362992D02*
X238399Y363990D01*
X248238Y373829D02*
X248819Y374410D01*
X259449D01*
X232874Y362992D02*
X237402D01*
X229410Y366457D02*
X232874Y362992D01*
X229410Y346457D02*
X237736Y354784D01*
X251705Y358753D02*
X262992Y370039D01*
X229410Y336457D02*
X242539Y349587D01*
X229410Y326457D02*
X267323Y364370D01*
X262992Y370039D02*
Y372835D01*
X300296Y429528D02*
X304150Y425674D01*
X244988Y428240D02*
X299763D01*
X251575Y429528D02*
X300296D01*
X299763Y428240D02*
X302862Y425140D01*
X299229Y426953D02*
X301575Y424607D01*
X302362Y441732D02*
X302656D01*
X310236Y435973D02*
X320619Y425591D01*
X310236Y435973D02*
Y441732D01*
X314173Y433856D02*
Y437795D01*
Y433856D02*
X320077Y427953D01*
X322095Y420472D02*
X330315D01*
X303734Y438539D02*
X304029D01*
X322095Y420472D01*
X303691Y438583D02*
X303734Y438539D01*
X323015Y417732D02*
X332268D01*
X238402Y426953D02*
X299229D01*
X297638Y438583D02*
X303691D01*
X294488Y441732D02*
X297638Y438583D01*
X314173Y437795D02*
X318110Y441732D01*
X231496D02*
X244988Y428240D01*
X223622Y441732D02*
X238402Y426953D01*
X239370Y441732D02*
X251575Y429528D01*
X247244Y441732D02*
X258161Y430815D01*
X255118Y441732D02*
X264748Y432102D01*
X332268Y417732D02*
X332283Y417717D01*
X653872Y204396D02*
X654692Y205216D01*
X656332D01*
X657152Y204396D01*
Y203576D01*
X656332Y202756D01*
X655512D01*
X656332D01*
X657152Y201936D01*
Y201116D01*
X656332Y200296D01*
X654692D01*
X653872Y201116D01*
D40*
X229410Y336457D02*
D03*
X219409D02*
D03*
X229410Y346457D02*
D03*
Y356457D02*
D03*
Y366457D02*
D03*
D63*
X572047Y481358D02*
D03*
X585433D02*
D03*
X572047Y534390D02*
D03*
X585433D02*
D03*
X201575Y534390D02*
D03*
X188189D02*
D03*
X231102D02*
D03*
X217717D02*
D03*
X260630D02*
D03*
X247244D02*
D03*
X290158D02*
D03*
X276772D02*
D03*
X319685D02*
D03*
X306299D02*
D03*
X378740D02*
D03*
X365354D02*
D03*
X349213D02*
D03*
X335827D02*
D03*
X408268D02*
D03*
X394882D02*
D03*
X467323Y534390D02*
D03*
X453937D02*
D03*
X496850D02*
D03*
X483465D02*
D03*
X526378D02*
D03*
X512992D02*
D03*
X437795D02*
D03*
X424409D02*
D03*
X555905Y534390D02*
D03*
X542520D02*
D03*
D64*
X475492Y448425D02*
D03*
X491142Y420866D02*
D03*
D65*
X229410Y326457D02*
D03*
D66*
X659449Y417717D02*
D03*
Y432480D02*
D03*
X649606Y364764D02*
D03*
Y417717D02*
D03*
Y354921D02*
D03*
Y374606D02*
D03*
Y384449D02*
D03*
Y432480D02*
D03*
X639764Y364764D02*
D03*
Y374606D02*
D03*
Y384449D02*
D03*
Y432480D02*
D03*
X629921Y417717D02*
D03*
Y432480D02*
D03*
D68*
X207677Y401417D02*
D03*
D69*
X333465Y424016D02*
D03*
X331496Y426772D02*
D03*
Y430315D02*
D03*
X331102Y414567D02*
D03*
X332283Y411417D02*
D03*
X331102Y408268D02*
D03*
X294488Y416142D02*
D03*
X294882Y422047D02*
D03*
X296850Y418898D02*
D03*
X294094Y410630D02*
D03*
X296850Y413386D02*
D03*
X295276Y407480D02*
D03*
X258661Y369685D02*
D03*
X278740Y359055D02*
D03*
Y354331D02*
D03*
X307874Y344882D02*
D03*
X250787Y323228D02*
D03*
X572835Y320866D02*
D03*
Y312992D02*
D03*
Y316929D02*
D03*
X600394Y340551D02*
D03*
Y344488D02*
D03*
Y348425D02*
D03*
X334252Y335827D02*
D03*
X294488Y305118D02*
D03*
X286614D02*
D03*
X278740D02*
D03*
X325984D02*
D03*
X318110D02*
D03*
X310236D02*
D03*
X302362D02*
D03*
X557087Y348425D02*
D03*
X537402D02*
D03*
X480315Y297244D02*
D03*
X248031Y407480D02*
D03*
X267323Y368898D02*
D03*
X262992Y372835D02*
D03*
X259449Y374410D02*
D03*
X215748Y441732D02*
D03*
X223622D02*
D03*
X231496D02*
D03*
X239370D02*
D03*
X247244D02*
D03*
X255118D02*
D03*
X262992D02*
D03*
X270866D02*
D03*
X278740D02*
D03*
X286614D02*
D03*
X294488D02*
D03*
X302362D02*
D03*
X310236D02*
D03*
X318110D02*
D03*
X332283Y417717D02*
D03*
X330315Y420472D02*
D03*
D70*
X242126Y330315D02*
D03*
X627559Y474803D02*
D03*
X659055D02*
D03*
Y443307D02*
D03*
Y459055D02*
D03*
X643307D02*
D03*
Y443307D02*
D03*
X627559D02*
D03*
X611811D02*
D03*
Y459055D02*
D03*
Y474803D02*
D03*
X659055Y490551D02*
D03*
X643307D02*
D03*
X627559D02*
D03*
X611811D02*
D03*
X659055Y537795D02*
D03*
X643307D02*
D03*
X627559D02*
D03*
X611811D02*
D03*
X659055Y506299D02*
D03*
X643307D02*
D03*
X627559D02*
D03*
X659055Y522047D02*
D03*
X643307D02*
D03*
X627559D02*
D03*
X611811Y506299D02*
D03*
Y522047D02*
D03*
X596063Y506299D02*
D03*
Y522047D02*
D03*
X580315Y506299D02*
D03*
Y522047D02*
D03*
X564567Y506299D02*
D03*
Y522047D02*
D03*
X548819Y506299D02*
D03*
Y522047D02*
D03*
X533071Y506299D02*
D03*
Y522047D02*
D03*
X517323Y506299D02*
D03*
Y522047D02*
D03*
X501575Y506299D02*
D03*
Y522047D02*
D03*
X485827Y506299D02*
D03*
Y522047D02*
D03*
X470079Y506299D02*
D03*
Y522047D02*
D03*
X454331Y506299D02*
D03*
Y522047D02*
D03*
X438583Y506299D02*
D03*
Y522047D02*
D03*
X422835Y506299D02*
D03*
Y522047D02*
D03*
X407087Y506299D02*
D03*
Y522047D02*
D03*
X391339Y506299D02*
D03*
Y522047D02*
D03*
X375591Y506299D02*
D03*
Y522047D02*
D03*
X359842Y506299D02*
D03*
Y522047D02*
D03*
X344094Y506299D02*
D03*
Y522047D02*
D03*
X328346Y506299D02*
D03*
Y522047D02*
D03*
X312598Y506299D02*
D03*
Y522047D02*
D03*
X296850Y506299D02*
D03*
Y522047D02*
D03*
X281102Y506299D02*
D03*
Y522047D02*
D03*
X265354Y506299D02*
D03*
Y522047D02*
D03*
X249606Y506299D02*
D03*
Y522047D02*
D03*
X233858Y506299D02*
D03*
Y522047D02*
D03*
X218110Y506299D02*
D03*
Y522047D02*
D03*
X202362Y506299D02*
D03*
Y522047D02*
D03*
X186614Y506299D02*
D03*
Y522047D02*
D03*
X332283Y320079D02*
D03*
X545276Y339370D02*
D03*
X223228Y304724D02*
D03*
X379134Y396850D02*
D03*
X253543Y384252D02*
D03*
X351969Y355512D02*
D03*
X283465Y407480D02*
D03*
X472441Y330709D02*
D03*
M02*
