G04*
G04 #@! TF.GenerationSoftware,Altium Limited,Altium Designer,22.8.2 (66)*
G04*
G04 Layer_Physical_Order=4*
G04 Layer_Color=16776960*
%FSLAX25Y25*%
%MOIN*%
G70*
G04*
G04 #@! TF.SameCoordinates,E87138AD-D39F-473D-B2F9-8BE8101B49D9*
G04*
G04*
G04 #@! TF.FilePolarity,Positive*
G04*
G01*
G75*
%ADD16C,0.00787*%
%ADD23R,0.03937X0.03543*%
%ADD34R,0.03543X0.03937*%
%ADD35C,0.07795*%
%ADD36C,0.09055*%
%ADD40C,0.06299*%
%ADD47R,0.03543X0.03150*%
%ADD59C,0.01968*%
%ADD60C,0.01181*%
%ADD62C,0.03937*%
%ADD63C,0.08661*%
%ADD64C,0.07874*%
%ADD65R,0.06299X0.06299*%
%ADD66C,0.05906*%
%ADD67C,0.16142*%
%ADD68C,0.06000*%
%ADD69C,0.03937*%
%ADD70C,0.01968*%
%ADD71R,0.06299X0.12992*%
%ADD72R,0.06299X0.04724*%
%ADD73R,0.03150X0.02165*%
G36*
X547244Y389764D02*
Y389764D01*
X668087D01*
Y216535D01*
X649606D01*
Y198055D01*
X178369Y198055D01*
Y452756D01*
X213189D01*
Y450000D01*
X214837D01*
Y448622D01*
X213189D01*
Y443898D01*
X214484D01*
X214603Y443487D01*
X214607Y443398D01*
X214066Y442856D01*
X213764Y442127D01*
Y441338D01*
X214066Y440608D01*
X214410Y440264D01*
X214203Y439764D01*
X212992D01*
Y437697D01*
X215748D01*
X218504D01*
Y439764D01*
X217293D01*
X217086Y440264D01*
X217430Y440608D01*
X217732Y441338D01*
Y442127D01*
X217430Y442856D01*
X216889Y443398D01*
X216893Y443487D01*
X217012Y443898D01*
X218307D01*
Y448622D01*
X216659D01*
Y450000D01*
X218307D01*
Y452756D01*
X221063D01*
Y450000D01*
X222711D01*
Y448622D01*
X221063D01*
Y443898D01*
X222358D01*
X222477Y443487D01*
X222481Y443398D01*
X221940Y442856D01*
X221638Y442127D01*
Y441338D01*
X221940Y440608D01*
X222284Y440264D01*
X222077Y439764D01*
X220866D01*
Y437697D01*
X223622D01*
X226378D01*
Y439764D01*
X225167D01*
X224960Y440264D01*
X225304Y440608D01*
X225606Y441338D01*
Y442127D01*
X225304Y442856D01*
X224763Y443398D01*
X224767Y443487D01*
X224886Y443898D01*
X226181D01*
Y448622D01*
X224533D01*
Y450000D01*
X226181D01*
Y452756D01*
X228937D01*
Y450000D01*
X230585D01*
Y448622D01*
X228937D01*
Y443898D01*
X230232D01*
X230351Y443487D01*
X230355Y443398D01*
X229814Y442856D01*
X229512Y442127D01*
Y441338D01*
X229814Y440608D01*
X230158Y440264D01*
X229951Y439764D01*
X228740D01*
Y437697D01*
X231496D01*
X234252D01*
Y439764D01*
X233041D01*
X232834Y440264D01*
X233178Y440608D01*
X233480Y441338D01*
Y442127D01*
X233178Y442856D01*
X232637Y443398D01*
X232641Y443487D01*
X232760Y443898D01*
X234055D01*
Y448622D01*
X232407D01*
Y450000D01*
X234055D01*
Y452756D01*
X236811D01*
Y450000D01*
X238459D01*
Y448622D01*
X236811D01*
Y443898D01*
X238106D01*
X238225Y443487D01*
X238229Y443398D01*
X237688Y442856D01*
X237386Y442127D01*
Y441338D01*
X237688Y440608D01*
X238033Y440264D01*
X237825Y439764D01*
X236614D01*
Y437697D01*
X239370D01*
X242126D01*
Y439764D01*
X240915D01*
X240708Y440264D01*
X241052Y440608D01*
X241354Y441338D01*
Y442127D01*
X241052Y442856D01*
X240511Y443398D01*
X240515Y443487D01*
X240634Y443898D01*
X241929D01*
Y448622D01*
X240281D01*
Y450000D01*
X241929D01*
Y452756D01*
X244685D01*
Y450000D01*
X246333D01*
Y448622D01*
X244685D01*
Y443898D01*
X245980D01*
X246099Y443487D01*
X246103Y443398D01*
X245562Y442856D01*
X245260Y442127D01*
Y441338D01*
X245562Y440608D01*
X245906Y440264D01*
X245699Y439764D01*
X244488D01*
Y437697D01*
X247244D01*
X250000D01*
Y439764D01*
X248789D01*
X248582Y440264D01*
X248926Y440608D01*
X249228Y441338D01*
Y442127D01*
X248926Y442856D01*
X248385Y443398D01*
X248389Y443487D01*
X248508Y443898D01*
X249803D01*
Y448622D01*
X248155D01*
Y450000D01*
X249803D01*
Y452756D01*
X252559D01*
Y450000D01*
X254207D01*
Y448622D01*
X252559D01*
Y443898D01*
X253854D01*
X253973Y443487D01*
X253977Y443398D01*
X253436Y442856D01*
X253134Y442127D01*
Y441338D01*
X253436Y440608D01*
X253781Y440264D01*
X253573Y439764D01*
X252362D01*
Y437697D01*
X255118D01*
X257874D01*
Y439764D01*
X256663D01*
X256456Y440264D01*
X256800Y440608D01*
X257102Y441338D01*
Y442127D01*
X256800Y442856D01*
X256259Y443398D01*
X256263Y443487D01*
X256382Y443898D01*
X257677D01*
Y448622D01*
X256029D01*
Y450000D01*
X257677D01*
Y452756D01*
X260433D01*
Y450000D01*
X262081D01*
Y448622D01*
X260433D01*
Y443898D01*
X261728D01*
X261847Y443487D01*
X261851Y443398D01*
X261310Y442856D01*
X261008Y442127D01*
Y441338D01*
X261310Y440608D01*
X261654Y440264D01*
X261447Y439764D01*
X260236D01*
Y437697D01*
X262992D01*
X265748D01*
Y439764D01*
X264537D01*
X264330Y440264D01*
X264674Y440608D01*
X264976Y441338D01*
Y442127D01*
X264674Y442856D01*
X264133Y443398D01*
X264137Y443487D01*
X264256Y443898D01*
X265551D01*
Y448622D01*
X263903D01*
Y450000D01*
X265551D01*
Y452756D01*
X268307D01*
Y450000D01*
X269955D01*
Y448622D01*
X268307D01*
Y443898D01*
X269602D01*
X269721Y443487D01*
X269725Y443398D01*
X269184Y442856D01*
X268882Y442127D01*
Y441338D01*
X269184Y440608D01*
X269529Y440264D01*
X269321Y439764D01*
X268110D01*
Y437697D01*
X270866D01*
X273622D01*
Y439764D01*
X272411D01*
X272204Y440264D01*
X272548Y440608D01*
X272850Y441338D01*
Y442127D01*
X272548Y442856D01*
X272007Y443398D01*
X272011Y443487D01*
X272130Y443898D01*
X273425D01*
Y448622D01*
X271777D01*
Y450000D01*
X273425D01*
Y452756D01*
X276181D01*
Y450000D01*
X277829D01*
Y448622D01*
X276181D01*
Y443898D01*
X277476D01*
X277595Y443487D01*
X277599Y443398D01*
X277058Y442856D01*
X276756Y442127D01*
Y441338D01*
X277058Y440608D01*
X277402Y440264D01*
X277195Y439764D01*
X275984D01*
Y437697D01*
X278740D01*
X281496D01*
Y439764D01*
X280285D01*
X280078Y440264D01*
X280422Y440608D01*
X280724Y441338D01*
Y442127D01*
X280422Y442856D01*
X279881Y443398D01*
X279885Y443487D01*
X280004Y443898D01*
X281299D01*
Y448622D01*
X279651D01*
Y450000D01*
X281299D01*
Y452756D01*
X284055D01*
Y450000D01*
X285703D01*
Y448622D01*
X284055D01*
Y443898D01*
X285350D01*
X285469Y443487D01*
X285473Y443398D01*
X284932Y442856D01*
X284630Y442127D01*
Y441338D01*
X284932Y440608D01*
X285277Y440264D01*
X285069Y439764D01*
X283858D01*
Y437697D01*
X286614D01*
X289370D01*
Y439764D01*
X288159D01*
X287952Y440264D01*
X288296Y440608D01*
X288598Y441338D01*
Y442127D01*
X288296Y442856D01*
X287755Y443398D01*
X287759Y443487D01*
X287878Y443898D01*
X289173D01*
Y448622D01*
X287525D01*
Y450000D01*
X289173D01*
Y452756D01*
X291929D01*
Y450000D01*
X293577D01*
Y448622D01*
X291929D01*
Y443898D01*
X293224D01*
X293343Y443487D01*
X293347Y443398D01*
X292806Y442856D01*
X292504Y442127D01*
Y441338D01*
X292806Y440608D01*
X293151Y440264D01*
X292944Y439764D01*
X291732D01*
Y437697D01*
X294488D01*
Y437205D01*
D01*
Y437697D01*
X297244D01*
Y439764D01*
X296033D01*
X295826Y440264D01*
X296170Y440608D01*
X296472Y441338D01*
Y442127D01*
X296170Y442856D01*
X295629Y443398D01*
X295633Y443487D01*
X295752Y443898D01*
X297047D01*
Y448622D01*
X295399D01*
Y450000D01*
X297047D01*
Y452756D01*
X299803D01*
Y450000D01*
X301451D01*
Y448622D01*
X299803D01*
Y443898D01*
X301098D01*
X301217Y443487D01*
X301221Y443398D01*
X300680Y442856D01*
X300378Y442127D01*
Y441338D01*
X300680Y440608D01*
X301025Y440264D01*
X300817Y439764D01*
X299606D01*
Y437697D01*
X302362D01*
X305118D01*
Y439764D01*
X303907D01*
X303700Y440264D01*
X304044Y440608D01*
X304346Y441338D01*
Y442127D01*
X304044Y442856D01*
X303503Y443398D01*
X303507Y443487D01*
X303626Y443898D01*
X304921D01*
Y448622D01*
X303273D01*
Y450000D01*
X304921D01*
Y452756D01*
X307677D01*
Y450000D01*
X309325D01*
Y448622D01*
X307677D01*
Y443898D01*
X308972D01*
X309091Y443487D01*
X309095Y443398D01*
X308554Y442856D01*
X308252Y442127D01*
Y441338D01*
X308554Y440608D01*
X308899Y440264D01*
X308692Y439764D01*
X307480D01*
Y437697D01*
X310236D01*
X312992D01*
Y439764D01*
X311781D01*
X311574Y440264D01*
X311918Y440608D01*
X312221Y441338D01*
Y442127D01*
X311918Y442856D01*
X311377Y443398D01*
X311381Y443487D01*
X311500Y443898D01*
X312795D01*
Y448622D01*
X311147D01*
Y450000D01*
X312795D01*
Y452756D01*
X315551D01*
Y450000D01*
X317199D01*
Y448622D01*
X315551D01*
Y443898D01*
X316846D01*
X316965Y443487D01*
X316969Y443398D01*
X316428Y442856D01*
X316126Y442127D01*
Y441338D01*
X316428Y440608D01*
X316773Y440264D01*
X316565Y439764D01*
X315354D01*
Y437697D01*
X318110D01*
X320866D01*
Y439764D01*
X319655D01*
X319448Y440264D01*
X319792Y440608D01*
X320094Y441338D01*
Y442127D01*
X319792Y442856D01*
X319251Y443398D01*
X319255Y443487D01*
X319374Y443898D01*
X320669D01*
Y448622D01*
X319021D01*
Y450000D01*
X320669D01*
Y452756D01*
X471711D01*
X471918Y452256D01*
X471302Y451640D01*
X470613Y450446D01*
X470256Y449115D01*
Y447736D01*
X470613Y446404D01*
X471302Y445210D01*
X472277Y444235D01*
X473471Y443546D01*
X474803Y443189D01*
X476182D01*
X477513Y443546D01*
X478707Y444235D01*
X479682Y445210D01*
X480372Y446404D01*
X480728Y447736D01*
Y449115D01*
X480372Y450446D01*
X479682Y451640D01*
X479067Y452256D01*
X479274Y452756D01*
X484252D01*
X547244Y389764D01*
D02*
G37*
G36*
X668087Y414173D02*
X645669D01*
Y425197D01*
X637008Y429921D01*
X633071Y435827D01*
X632588D01*
X632532Y435883D01*
X631563Y436443D01*
X630481Y436732D01*
X629361D01*
X628280Y436443D01*
X627311Y435883D01*
X627254Y435827D01*
X603543D01*
X592520Y446850D01*
Y488189D01*
X178369D01*
Y549977D01*
X668087Y549977D01*
Y414173D01*
D02*
G37*
G36*
X591500Y446850D02*
X591578Y446460D01*
X591799Y446129D01*
X602822Y435106D01*
X603153Y434885D01*
X603543Y434807D01*
X622067D01*
X625669Y433040D01*
Y431920D01*
X625959Y430839D01*
X626519Y429870D01*
X627311Y429078D01*
X628280Y428518D01*
X629361Y428228D01*
X630481D01*
X631563Y428518D01*
X632532Y429078D01*
X636338Y429074D01*
X636520Y429026D01*
X644488Y424680D01*
Y408268D01*
X640764D01*
X640324Y408386D01*
X639204D01*
X638763Y408268D01*
X630922D01*
X630481Y408386D01*
X629361D01*
X628921Y408268D01*
X579134Y408268D01*
X570079Y417323D01*
Y429016D01*
X554331Y446339D01*
Y455512D01*
X591500D01*
Y446850D01*
D02*
G37*
%LPC*%
G36*
X320866Y436713D02*
X318602D01*
Y434646D01*
X320866D01*
Y436713D01*
D02*
G37*
G36*
X317618D02*
X315354D01*
Y434646D01*
X317618D01*
Y436713D01*
D02*
G37*
G36*
X312992D02*
X310728D01*
Y434646D01*
X312992D01*
Y436713D01*
D02*
G37*
G36*
X309744D02*
X307480D01*
Y434646D01*
X309744D01*
Y436713D01*
D02*
G37*
G36*
X305118D02*
X302854D01*
Y434646D01*
X305118D01*
Y436713D01*
D02*
G37*
G36*
X301870D02*
X299606D01*
Y434646D01*
X301870D01*
Y436713D01*
D02*
G37*
G36*
X297244D02*
X294980D01*
Y434646D01*
X297244D01*
Y436713D01*
D02*
G37*
G36*
X293996D02*
X291732D01*
Y434646D01*
X293996D01*
Y436713D01*
D02*
G37*
G36*
X289370D02*
X287106D01*
Y434646D01*
X289370D01*
Y436713D01*
D02*
G37*
G36*
X286122D02*
X283858D01*
Y434646D01*
X286122D01*
Y436713D01*
D02*
G37*
G36*
X281496D02*
X279232D01*
Y434646D01*
X281496D01*
Y436713D01*
D02*
G37*
G36*
X278248D02*
X275984D01*
Y434646D01*
X278248D01*
Y436713D01*
D02*
G37*
G36*
X273622D02*
X271358D01*
Y434646D01*
X273622D01*
Y436713D01*
D02*
G37*
G36*
X270374D02*
X268110D01*
Y434646D01*
X270374D01*
Y436713D01*
D02*
G37*
G36*
X265748D02*
X263484D01*
Y434646D01*
X265748D01*
Y436713D01*
D02*
G37*
G36*
X262500D02*
X260236D01*
Y434646D01*
X262500D01*
Y436713D01*
D02*
G37*
G36*
X257874D02*
X255610D01*
Y434646D01*
X257874D01*
Y436713D01*
D02*
G37*
G36*
X254626D02*
X252362D01*
Y434646D01*
X254626D01*
Y436713D01*
D02*
G37*
G36*
X250000D02*
X247736D01*
Y434646D01*
X250000D01*
Y436713D01*
D02*
G37*
G36*
X246752D02*
X244488D01*
Y434646D01*
X246752D01*
Y436713D01*
D02*
G37*
G36*
X242126D02*
X239862D01*
Y434646D01*
X242126D01*
Y436713D01*
D02*
G37*
G36*
X238878D02*
X236614D01*
Y434646D01*
X238878D01*
Y436713D01*
D02*
G37*
G36*
X234252D02*
X231988D01*
Y434646D01*
X234252D01*
Y436713D01*
D02*
G37*
G36*
X231004D02*
X228740D01*
Y434646D01*
X231004D01*
Y436713D01*
D02*
G37*
G36*
X226378D02*
X224114D01*
Y434646D01*
X226378D01*
Y436713D01*
D02*
G37*
G36*
X223130D02*
X220866D01*
Y434646D01*
X223130D01*
Y436713D01*
D02*
G37*
G36*
X218504D02*
X216240D01*
Y434646D01*
X218504D01*
Y436713D01*
D02*
G37*
G36*
X215256D02*
X212992D01*
Y434646D01*
X215256D01*
Y436713D01*
D02*
G37*
G36*
X208243Y425716D02*
X207111D01*
X206018Y425423D01*
X205037Y424858D01*
X204237Y424057D01*
X203671Y423077D01*
X203378Y421983D01*
Y420851D01*
X203671Y419758D01*
X204237Y418778D01*
X205037Y417977D01*
X206018Y417411D01*
X207111Y417118D01*
X208243D01*
X209337Y417411D01*
X210317Y417977D01*
X211117Y418778D01*
X211683Y419758D01*
X211976Y420851D01*
Y421983D01*
X211683Y423077D01*
X211117Y424057D01*
X210317Y424858D01*
X209337Y425423D01*
X208243Y425716D01*
D02*
G37*
G36*
X431497Y420094D02*
X430708D01*
X429978Y419792D01*
X429420Y419234D01*
X429118Y418505D01*
Y417716D01*
X429420Y416986D01*
X429978Y416428D01*
X430708Y416126D01*
X431497D01*
X432226Y416428D01*
X432785Y416986D01*
X433087Y417716D01*
Y418505D01*
X432785Y419234D01*
X432226Y419792D01*
X431497Y420094D01*
D02*
G37*
G36*
X491831Y426102D02*
X490452D01*
X489121Y425745D01*
X487927Y425056D01*
X486952Y424081D01*
X486262Y422887D01*
X485906Y421556D01*
Y420177D01*
X486262Y418845D01*
X486952Y417651D01*
X487927Y416676D01*
X489121Y415987D01*
X490452Y415630D01*
X491831D01*
X493163Y415987D01*
X494357Y416676D01*
X495332Y417651D01*
X496021Y418845D01*
X496378Y420177D01*
Y421556D01*
X496021Y422887D01*
X495332Y424081D01*
X494357Y425056D01*
X493163Y425745D01*
X491831Y426102D01*
D02*
G37*
G36*
X386222Y415370D02*
X385432D01*
X384703Y415068D01*
X384145Y414510D01*
X383842Y413780D01*
Y412991D01*
X384145Y412262D01*
X384703Y411704D01*
X385432Y411402D01*
X386222D01*
X386951Y411704D01*
X387509Y412262D01*
X387811Y412991D01*
Y413780D01*
X387509Y414510D01*
X386951Y415068D01*
X386222Y415370D01*
D02*
G37*
G36*
X426773Y413008D02*
X425983D01*
X425254Y412706D01*
X424696Y412148D01*
X424394Y411418D01*
Y410629D01*
X424696Y409900D01*
X425254Y409341D01*
X425983Y409039D01*
X426773D01*
X427502Y409341D01*
X428060Y409900D01*
X428362Y410629D01*
Y411418D01*
X428060Y412148D01*
X427502Y412706D01*
X426773Y413008D01*
D02*
G37*
G36*
X332678Y429937D02*
X331889D01*
X331159Y429635D01*
X330601Y429077D01*
X330299Y428347D01*
Y427575D01*
X329920D01*
X329191Y427273D01*
X328633Y426715D01*
X328331Y425985D01*
Y425196D01*
X328633Y424467D01*
X329191Y423908D01*
X329920Y423606D01*
X330047D01*
X330299Y423229D01*
Y422457D01*
X329920D01*
X329191Y422155D01*
X328633Y421596D01*
X328331Y420867D01*
Y420078D01*
X328633Y419348D01*
X329191Y418790D01*
X329920Y418488D01*
X330047D01*
X330299Y418111D01*
Y417339D01*
X329920D01*
X329191Y417036D01*
X328633Y416478D01*
X328331Y415749D01*
Y414960D01*
X328633Y414230D01*
X329191Y413672D01*
X329920Y413370D01*
X330047D01*
X330299Y412993D01*
Y412220D01*
X329920D01*
X329191Y411918D01*
X328633Y411360D01*
X328331Y410631D01*
Y409841D01*
X328633Y409112D01*
X329191Y408554D01*
X329920Y408252D01*
X330710D01*
X331439Y408554D01*
X331997Y409112D01*
X332299Y409841D01*
Y410614D01*
X332678D01*
X333407Y410916D01*
X333966Y411474D01*
X334268Y412204D01*
Y412993D01*
X333966Y413722D01*
X333407Y414281D01*
X332678Y414583D01*
X332551D01*
X332299Y414960D01*
Y415732D01*
X332678D01*
X333407Y416034D01*
X333966Y416593D01*
X334268Y417322D01*
Y418111D01*
X333966Y418841D01*
X333407Y419399D01*
X332678Y419701D01*
X332551D01*
X332299Y420078D01*
Y420850D01*
X332678D01*
X333407Y421152D01*
X333966Y421711D01*
X334268Y422440D01*
Y423229D01*
X333966Y423959D01*
X333407Y424517D01*
X332678Y424819D01*
X332551D01*
X332299Y425196D01*
Y425969D01*
X332678D01*
X333407Y426271D01*
X333966Y426829D01*
X334268Y427558D01*
Y428347D01*
X333966Y429077D01*
X333407Y429635D01*
X332678Y429937D01*
D02*
G37*
G36*
X295670Y424819D02*
X294881D01*
X294152Y424517D01*
X293593Y423959D01*
X293291Y423229D01*
Y422440D01*
X293593Y421711D01*
X294152Y421152D01*
X294881Y420850D01*
X295260D01*
Y420078D01*
X295008Y419701D01*
X294881D01*
X294152Y419399D01*
X293593Y418841D01*
X293291Y418111D01*
Y417322D01*
X293593Y416593D01*
X294152Y416034D01*
X294881Y415732D01*
X295260D01*
Y414960D01*
X295008Y414583D01*
X294881D01*
X294152Y414281D01*
X293593Y413722D01*
X293291Y412993D01*
Y412204D01*
X293593Y411474D01*
X294152Y410916D01*
X294881Y410614D01*
X295260D01*
Y409841D01*
X295562Y409112D01*
X296120Y408554D01*
X296849Y408252D01*
X297639D01*
X298368Y408554D01*
X298926Y409112D01*
X299228Y409841D01*
Y410631D01*
X298926Y411360D01*
X298368Y411918D01*
X297639Y412220D01*
X297260D01*
Y412993D01*
X297512Y413370D01*
X297639D01*
X298368Y413672D01*
X298926Y414230D01*
X299228Y414960D01*
Y415749D01*
X298926Y416478D01*
X298368Y417036D01*
X297639Y417339D01*
X297260D01*
Y418111D01*
X297512Y418488D01*
X297639D01*
X298368Y418790D01*
X298926Y419348D01*
X299228Y420078D01*
Y420867D01*
X298926Y421596D01*
X298368Y422155D01*
X297639Y422457D01*
X297260D01*
Y423229D01*
X296958Y423959D01*
X296400Y424517D01*
X295670Y424819D01*
D02*
G37*
G36*
X248426Y409465D02*
X247637D01*
X246907Y409162D01*
X246349Y408604D01*
X246047Y407875D01*
Y407086D01*
X246349Y406356D01*
X246907Y405798D01*
X247637Y405496D01*
X248426D01*
X249155Y405798D01*
X249714Y406356D01*
X250016Y407086D01*
Y407875D01*
X249714Y408604D01*
X249155Y409162D01*
X248426Y409465D01*
D02*
G37*
G36*
X283855Y410449D02*
X283074D01*
X282319Y410247D01*
X281642Y409856D01*
X281089Y409303D01*
X280698Y408626D01*
X280496Y407871D01*
Y407090D01*
X280698Y406334D01*
X281089Y405658D01*
X281642Y405105D01*
X282319Y404714D01*
X283074Y404512D01*
X283855D01*
X284610Y404714D01*
X285287Y405105D01*
X285840Y405658D01*
X286231Y406334D01*
X286433Y407090D01*
Y407871D01*
X286231Y408626D01*
X285840Y409303D01*
X285287Y409856D01*
X284610Y410247D01*
X283855Y410449D01*
D02*
G37*
G36*
X426773Y402378D02*
X425983D01*
X425254Y402076D01*
X424696Y401518D01*
X424394Y400788D01*
Y399999D01*
X424696Y399270D01*
X425254Y398711D01*
X425983Y398410D01*
X426773D01*
X427502Y398711D01*
X428060Y399270D01*
X428362Y399999D01*
Y400788D01*
X428060Y401518D01*
X427502Y402076D01*
X426773Y402378D01*
D02*
G37*
G36*
X208243Y405717D02*
X207111D01*
X206018Y405423D01*
X205037Y404857D01*
X204237Y404057D01*
X203671Y403077D01*
X203378Y401983D01*
Y400851D01*
X203671Y399758D01*
X204237Y398778D01*
X205037Y397977D01*
X206018Y397411D01*
X207111Y397118D01*
X208243D01*
X209337Y397411D01*
X210317Y397977D01*
X211117Y398778D01*
X211683Y399758D01*
X211976Y400851D01*
Y401983D01*
X211683Y403077D01*
X211117Y404057D01*
X210317Y404857D01*
X209337Y405423D01*
X208243Y405717D01*
D02*
G37*
G36*
X386222Y400410D02*
X385432D01*
X384703Y400107D01*
X384145Y399549D01*
X383842Y398820D01*
Y398030D01*
X384145Y397301D01*
X384703Y396743D01*
X385432Y396441D01*
X386222D01*
X386951Y396743D01*
X387509Y397301D01*
X387811Y398030D01*
Y398820D01*
X387509Y399549D01*
X386951Y400107D01*
X386222Y400410D01*
D02*
G37*
G36*
X379525Y399819D02*
X378743D01*
X377988Y399617D01*
X377311Y399226D01*
X376759Y398673D01*
X376368Y397996D01*
X376165Y397241D01*
Y396460D01*
X376368Y395705D01*
X376759Y395028D01*
X377311Y394475D01*
X377988Y394084D01*
X378743Y393882D01*
X379525D01*
X380280Y394084D01*
X380957Y394475D01*
X381509Y395028D01*
X381900Y395705D01*
X382102Y396460D01*
Y397241D01*
X381900Y397996D01*
X381509Y398673D01*
X380957Y399226D01*
X380280Y399617D01*
X379525Y399819D01*
D02*
G37*
G36*
X431497Y395291D02*
X430708D01*
X429978Y394989D01*
X429420Y394431D01*
X429118Y393702D01*
Y392912D01*
X429420Y392183D01*
X429978Y391625D01*
X430708Y391323D01*
X431497D01*
X432226Y391625D01*
X432785Y392183D01*
X433087Y392912D01*
Y393702D01*
X432785Y394431D01*
X432226Y394989D01*
X431497Y395291D01*
D02*
G37*
G36*
X342127Y390173D02*
X341338D01*
X340608Y389871D01*
X340158Y389420D01*
X339707Y389871D01*
X338977Y390173D01*
X338188D01*
X337459Y389871D01*
X336900Y389313D01*
X336598Y388584D01*
Y387794D01*
X336900Y387065D01*
X337459Y386507D01*
X338188Y386205D01*
X338977D01*
X339707Y386507D01*
X340158Y386958D01*
X340608Y386507D01*
X341338Y386205D01*
X342127D01*
X342856Y386507D01*
X343414Y387065D01*
X343717Y387794D01*
Y388584D01*
X343414Y389313D01*
X342856Y389871D01*
X342127Y390173D01*
D02*
G37*
G36*
X327560Y385449D02*
X326771D01*
X326041Y385147D01*
X325483Y384589D01*
X325181Y383859D01*
Y383070D01*
X325483Y382341D01*
X326041Y381782D01*
X326771Y381480D01*
X327560D01*
X328289Y381782D01*
X328848Y382341D01*
X329150Y383070D01*
Y383859D01*
X328848Y384589D01*
X328289Y385147D01*
X327560Y385449D01*
D02*
G37*
G36*
X253934Y387221D02*
X253152D01*
X252397Y387018D01*
X251721Y386627D01*
X251168Y386075D01*
X250777Y385398D01*
X250575Y384643D01*
Y383861D01*
X250777Y383106D01*
X251168Y382429D01*
X251721Y381877D01*
X252397Y381486D01*
X253152Y381283D01*
X253934D01*
X254689Y381486D01*
X255366Y381877D01*
X255919Y382429D01*
X256310Y383106D01*
X256512Y383861D01*
Y384643D01*
X256310Y385398D01*
X255919Y386075D01*
X255366Y386627D01*
X254689Y387018D01*
X253934Y387221D01*
D02*
G37*
G36*
X660009Y388701D02*
X658889D01*
X657808Y388411D01*
X656838Y387851D01*
X656046Y387060D01*
X655487Y386090D01*
X655197Y385009D01*
Y383889D01*
X655487Y382808D01*
X656046Y381838D01*
X656838Y381046D01*
X657808Y380487D01*
X658889Y380197D01*
X660009D01*
X661090Y380487D01*
X662060Y381046D01*
X662851Y381838D01*
X663411Y382808D01*
X663701Y383889D01*
Y385009D01*
X663411Y386090D01*
X662851Y387060D01*
X662060Y387851D01*
X661090Y388411D01*
X660009Y388701D01*
D02*
G37*
G36*
X650166D02*
X649047D01*
X647965Y388411D01*
X646995Y387851D01*
X646204Y387060D01*
X645644Y386090D01*
X645354Y385009D01*
Y383889D01*
X645644Y382808D01*
X646204Y381838D01*
X646995Y381046D01*
X647965Y380487D01*
X649047Y380197D01*
X650166D01*
X651248Y380487D01*
X652217Y381046D01*
X653009Y381838D01*
X653569Y382808D01*
X653858Y383889D01*
Y385009D01*
X653569Y386090D01*
X653009Y387060D01*
X652217Y387851D01*
X651248Y388411D01*
X650166Y388701D01*
D02*
G37*
G36*
X640324D02*
X639204D01*
X638123Y388411D01*
X637153Y387851D01*
X636361Y387060D01*
X635802Y386090D01*
X635512Y385009D01*
Y383889D01*
X635802Y382808D01*
X636361Y381838D01*
X637153Y381046D01*
X638123Y380487D01*
X639204Y380197D01*
X640324D01*
X641405Y380487D01*
X642375Y381046D01*
X643166Y381838D01*
X643726Y382808D01*
X644016Y383889D01*
Y385009D01*
X643726Y386090D01*
X643166Y387060D01*
X642375Y387851D01*
X641405Y388411D01*
X640324Y388701D01*
D02*
G37*
G36*
X630481D02*
X629361D01*
X628280Y388411D01*
X627311Y387851D01*
X626519Y387060D01*
X625959Y386090D01*
X625669Y385009D01*
Y383889D01*
X625959Y382808D01*
X626519Y381838D01*
X627311Y381046D01*
X628280Y380487D01*
X629361Y380197D01*
X630481D01*
X631563Y380487D01*
X632532Y381046D01*
X633324Y381838D01*
X633883Y382808D01*
X634173Y383889D01*
Y385009D01*
X633883Y386090D01*
X633324Y387060D01*
X632532Y387851D01*
X631563Y388411D01*
X630481Y388701D01*
D02*
G37*
G36*
X583661Y376969D02*
X581004D01*
Y375098D01*
X583661D01*
Y376969D01*
D02*
G37*
G36*
X578051D02*
X575394D01*
Y375098D01*
X578051D01*
Y376969D01*
D02*
G37*
G36*
X660009Y378858D02*
X658889D01*
X657808Y378569D01*
X656838Y378009D01*
X656046Y377217D01*
X655487Y376248D01*
X655197Y375166D01*
Y374046D01*
X655487Y372965D01*
X656046Y371995D01*
X656838Y371204D01*
X657808Y370644D01*
X658889Y370354D01*
X660009D01*
X661090Y370644D01*
X662060Y371204D01*
X662851Y371995D01*
X663411Y372965D01*
X663701Y374046D01*
Y375166D01*
X663411Y376248D01*
X662851Y377217D01*
X662060Y378009D01*
X661090Y378569D01*
X660009Y378858D01*
D02*
G37*
G36*
X650166D02*
X649047D01*
X647965Y378569D01*
X646995Y378009D01*
X646204Y377217D01*
X645644Y376248D01*
X645354Y375166D01*
Y374046D01*
X645644Y372965D01*
X646204Y371995D01*
X646995Y371204D01*
X647965Y370644D01*
X649047Y370354D01*
X650166D01*
X651248Y370644D01*
X652217Y371204D01*
X653009Y371995D01*
X653569Y372965D01*
X653858Y374046D01*
Y375166D01*
X653569Y376248D01*
X653009Y377217D01*
X652217Y378009D01*
X651248Y378569D01*
X650166Y378858D01*
D02*
G37*
G36*
X640324D02*
X639204D01*
X638123Y378569D01*
X637153Y378009D01*
X636361Y377217D01*
X635802Y376248D01*
X635512Y375166D01*
Y374046D01*
X635802Y372965D01*
X636361Y371995D01*
X637153Y371204D01*
X638123Y370644D01*
X639204Y370354D01*
X640324D01*
X641405Y370644D01*
X642375Y371204D01*
X643166Y371995D01*
X643726Y372965D01*
X644016Y374046D01*
Y375166D01*
X643726Y376248D01*
X643166Y377217D01*
X642375Y378009D01*
X641405Y378569D01*
X640324Y378858D01*
D02*
G37*
G36*
X630481D02*
X629361D01*
X628280Y378569D01*
X627311Y378009D01*
X626519Y377217D01*
X625959Y376248D01*
X625669Y375166D01*
Y374046D01*
X625959Y372965D01*
X626519Y371995D01*
X627311Y371204D01*
X628280Y370644D01*
X629361Y370354D01*
X630481D01*
X631563Y370644D01*
X632532Y371204D01*
X633324Y371995D01*
X633883Y372965D01*
X634173Y374046D01*
Y375166D01*
X633883Y376248D01*
X633324Y377217D01*
X632532Y378009D01*
X631563Y378569D01*
X630481Y378858D01*
D02*
G37*
G36*
X583661Y372146D02*
X581004D01*
Y370276D01*
X583661D01*
Y372146D01*
D02*
G37*
G36*
X578051D02*
X575394D01*
Y370276D01*
X578051D01*
Y372146D01*
D02*
G37*
G36*
X259843Y376394D02*
X259054D01*
X258325Y376092D01*
X257767Y375533D01*
X257465Y374804D01*
Y374015D01*
X257767Y373286D01*
X258325Y372727D01*
X258451Y372134D01*
X258252Y371655D01*
Y370865D01*
X258554Y370136D01*
X259112Y369578D01*
X259841Y369276D01*
X260631D01*
X261360Y369578D01*
X261918Y370136D01*
X262079Y370524D01*
X262597Y370850D01*
X263387D01*
X264116Y371152D01*
X264674Y371711D01*
X264976Y372440D01*
Y373229D01*
X264674Y373959D01*
X264116Y374517D01*
X263387Y374819D01*
X262597D01*
X261933Y374544D01*
X261433Y374735D01*
Y374804D01*
X261131Y375533D01*
X260573Y376092D01*
X259843Y376394D01*
D02*
G37*
G36*
X267718Y372063D02*
X266928D01*
X266199Y371761D01*
X265641Y371203D01*
X265339Y370473D01*
Y369684D01*
X265641Y368955D01*
X266199Y368397D01*
X266928Y368094D01*
X267718D01*
X268447Y368397D01*
X269005Y368955D01*
X269307Y369684D01*
Y370473D01*
X269005Y371203D01*
X268447Y371761D01*
X267718Y372063D01*
D02*
G37*
G36*
X608661Y371850D02*
X600787D01*
Y367084D01*
X583464D01*
Y367717D01*
X575591D01*
Y361417D01*
X583464D01*
Y362050D01*
X600787D01*
Y357283D01*
X608661D01*
Y362247D01*
X626465D01*
X626519Y362153D01*
X627311Y361361D01*
X628280Y360802D01*
X629361Y360512D01*
X630481D01*
X631563Y360802D01*
X632532Y361361D01*
X633324Y362153D01*
X633883Y363123D01*
X634173Y364204D01*
Y365324D01*
X633883Y366405D01*
X633324Y367374D01*
X632532Y368166D01*
X631563Y368726D01*
X630481Y369016D01*
X629361D01*
X628280Y368726D01*
X627311Y368166D01*
X626519Y367374D01*
X626465Y367281D01*
X608661D01*
Y371850D01*
D02*
G37*
G36*
X229995Y370905D02*
X228824D01*
X227692Y370602D01*
X226678Y370017D01*
X225850Y369188D01*
X225264Y368174D01*
X224961Y367042D01*
Y365871D01*
X225264Y364739D01*
X225850Y363725D01*
X226678Y362897D01*
X227692Y362311D01*
X228824Y362008D01*
X229995D01*
X231127Y362311D01*
X232141Y362897D01*
X232969Y363725D01*
X233555Y364739D01*
X233858Y365871D01*
Y367042D01*
X233555Y368174D01*
X232969Y369188D01*
X232141Y370017D01*
X231127Y370602D01*
X229995Y370905D01*
D02*
G37*
G36*
X660009Y369016D02*
X658889D01*
X657808Y368726D01*
X656838Y368166D01*
X656046Y367374D01*
X655487Y366405D01*
X655197Y365324D01*
Y364204D01*
X655487Y363123D01*
X656046Y362153D01*
X656838Y361361D01*
X657808Y360802D01*
X658889Y360512D01*
X660009D01*
X661090Y360802D01*
X662060Y361361D01*
X662851Y362153D01*
X663411Y363123D01*
X663701Y364204D01*
Y365324D01*
X663411Y366405D01*
X662851Y367374D01*
X662060Y368166D01*
X661090Y368726D01*
X660009Y369016D01*
D02*
G37*
G36*
X650166D02*
X649047D01*
X647965Y368726D01*
X646995Y368166D01*
X646204Y367374D01*
X645644Y366405D01*
X645354Y365324D01*
Y364204D01*
X645644Y363123D01*
X646204Y362153D01*
X646995Y361361D01*
X647965Y360802D01*
X649047Y360512D01*
X650166D01*
X651248Y360802D01*
X652217Y361361D01*
X653009Y362153D01*
X653569Y363123D01*
X653858Y364204D01*
Y365324D01*
X653569Y366405D01*
X653009Y367374D01*
X652217Y368166D01*
X651248Y368726D01*
X650166Y369016D01*
D02*
G37*
G36*
X640324D02*
X639204D01*
X638123Y368726D01*
X637153Y368166D01*
X636361Y367374D01*
X635802Y366405D01*
X635512Y365324D01*
Y364204D01*
X635802Y363123D01*
X636361Y362153D01*
X637153Y361361D01*
X638123Y360802D01*
X639204Y360512D01*
X640324D01*
X641405Y360802D01*
X642375Y361361D01*
X643166Y362153D01*
X643726Y363123D01*
X644016Y364204D01*
Y365324D01*
X643726Y366405D01*
X643166Y367374D01*
X642375Y368166D01*
X641405Y368726D01*
X640324Y369016D01*
D02*
G37*
G36*
X377559Y379921D02*
X354331D01*
Y358001D01*
X353869Y357810D01*
X353791Y357887D01*
X353114Y358278D01*
X352359Y358480D01*
X351578D01*
X350823Y358278D01*
X350146Y357887D01*
X349593Y357334D01*
X349202Y356658D01*
X349000Y355903D01*
Y355121D01*
X349202Y354366D01*
X349593Y353689D01*
X350146Y353136D01*
X350823Y352746D01*
X351578Y352543D01*
X352359D01*
X353114Y352746D01*
X353791Y353136D01*
X353869Y353214D01*
X354331Y353023D01*
Y352362D01*
X377559D01*
Y379921D01*
D02*
G37*
G36*
X583464Y358661D02*
X575591D01*
Y356624D01*
X573819D01*
Y358268D01*
X568701D01*
Y352756D01*
X573819D01*
Y354400D01*
X575591D01*
Y352362D01*
X583464D01*
Y358661D01*
D02*
G37*
G36*
X278741Y360252D02*
X277952D01*
X277222Y359950D01*
X276664Y359392D01*
X276362Y358662D01*
Y357873D01*
X276664Y357144D01*
X277115Y356693D01*
X276664Y356242D01*
X276362Y355513D01*
Y354723D01*
X276664Y353994D01*
X277222Y353436D01*
X277952Y353134D01*
X278741D01*
X279470Y353436D01*
X280029Y353994D01*
X280331Y354723D01*
Y355513D01*
X280029Y356242D01*
X279578Y356693D01*
X280029Y357144D01*
X280331Y357873D01*
Y358662D01*
X280029Y359392D01*
X279470Y359950D01*
X278741Y360252D01*
D02*
G37*
G36*
X554937Y354248D02*
X552862D01*
Y352665D01*
X554937D01*
Y354248D01*
D02*
G37*
G36*
X551862D02*
X549787D01*
Y352665D01*
X551862D01*
Y354248D01*
D02*
G37*
G36*
X229995Y360906D02*
X228824D01*
X227692Y360602D01*
X226678Y360017D01*
X225850Y359188D01*
X225264Y358174D01*
X224961Y357042D01*
Y355871D01*
X225264Y354739D01*
X225850Y353725D01*
X226678Y352897D01*
X227692Y352311D01*
X228824Y352008D01*
X229995D01*
X231127Y352311D01*
X232141Y352897D01*
X232969Y353725D01*
X233555Y354739D01*
X233858Y355871D01*
Y357042D01*
X233555Y358174D01*
X232969Y359188D01*
X232141Y360017D01*
X231127Y360602D01*
X229995Y360906D01*
D02*
G37*
G36*
X219995D02*
X218824D01*
X217692Y360602D01*
X216678Y360017D01*
X215849Y359188D01*
X215264Y358174D01*
X214961Y357042D01*
Y355871D01*
X215264Y354739D01*
X215849Y353725D01*
X216678Y352897D01*
X217692Y352311D01*
X218824Y352008D01*
X219995D01*
X221127Y352311D01*
X222141Y352897D01*
X222969Y353725D01*
X223555Y354739D01*
X223858Y355871D01*
Y357042D01*
X223555Y358174D01*
X222969Y359188D01*
X222141Y360017D01*
X221127Y360602D01*
X219995Y360906D01*
D02*
G37*
G36*
X548244Y353854D02*
X545776D01*
Y351583D01*
X548244D01*
Y353854D01*
D02*
G37*
G36*
X544776D02*
X542307D01*
Y351583D01*
X544776D01*
Y353854D01*
D02*
G37*
G36*
X537796Y355528D02*
X537007D01*
X536278Y355225D01*
X535719Y354667D01*
X535417Y353938D01*
Y353149D01*
X535719Y352419D01*
X536278Y351861D01*
X537007Y351559D01*
X537796D01*
X538526Y351861D01*
X539084Y352419D01*
X539386Y353149D01*
Y353938D01*
X539084Y354667D01*
X538526Y355225D01*
X537796Y355528D01*
D02*
G37*
G36*
X660009Y359173D02*
X658889D01*
X657808Y358884D01*
X656838Y358324D01*
X656046Y357532D01*
X655487Y356562D01*
X655197Y355481D01*
Y354362D01*
X655487Y353280D01*
X656046Y352310D01*
X656838Y351519D01*
X657808Y350959D01*
X658889Y350669D01*
X660009D01*
X661090Y350959D01*
X662060Y351519D01*
X662851Y352310D01*
X663411Y353280D01*
X663701Y354362D01*
Y355481D01*
X663411Y356562D01*
X662851Y357532D01*
X662060Y358324D01*
X661090Y358884D01*
X660009Y359173D01*
D02*
G37*
G36*
X650166D02*
X649047D01*
X647965Y358884D01*
X646995Y358324D01*
X646204Y357532D01*
X645644Y356562D01*
X645354Y355481D01*
Y354362D01*
X645644Y353280D01*
X646204Y352310D01*
X646995Y351519D01*
X647965Y350959D01*
X649047Y350669D01*
X650166D01*
X651248Y350959D01*
X652217Y351519D01*
X653009Y352310D01*
X653569Y353280D01*
X653858Y354362D01*
Y355481D01*
X653569Y356562D01*
X653009Y357532D01*
X652217Y358324D01*
X651248Y358884D01*
X650166Y359173D01*
D02*
G37*
G36*
X640324D02*
X639204D01*
X638123Y358884D01*
X637153Y358324D01*
X636361Y357532D01*
X635802Y356562D01*
X635512Y355481D01*
Y354362D01*
X635802Y353280D01*
X636361Y352310D01*
X637153Y351519D01*
X638123Y350959D01*
X639204Y350669D01*
X640324D01*
X641405Y350959D01*
X642375Y351519D01*
X643166Y352310D01*
X643726Y353280D01*
X644016Y354362D01*
Y355481D01*
X643726Y356562D01*
X643166Y357532D01*
X642375Y358324D01*
X641405Y358884D01*
X640324Y359173D01*
D02*
G37*
G36*
X630481D02*
X629361D01*
X628280Y358884D01*
X627311Y358324D01*
X626519Y357532D01*
X625959Y356562D01*
X625669Y355481D01*
Y354362D01*
X625959Y353280D01*
X626519Y352310D01*
X627311Y351519D01*
X628280Y350959D01*
X629361Y350669D01*
X630481D01*
X631563Y350959D01*
X632532Y351519D01*
X633324Y352310D01*
X633883Y353280D01*
X634173Y354362D01*
Y355481D01*
X633883Y356562D01*
X633324Y357532D01*
X632532Y358324D01*
X631563Y358884D01*
X630481Y359173D01*
D02*
G37*
G36*
X564173Y354035D02*
X559449D01*
Y350795D01*
X559449Y350295D01*
X559449Y349795D01*
Y349214D01*
X558949Y349114D01*
X558769Y349549D01*
X558211Y350107D01*
X557481Y350409D01*
X556692D01*
X555963Y350107D01*
X555405Y349549D01*
X555316Y349336D01*
X554724D01*
Y350083D01*
X554937D01*
Y351665D01*
X552362D01*
X549787D01*
Y350083D01*
X550000D01*
Y347055D01*
X550000Y346555D01*
X549654Y346198D01*
X548388D01*
X548118Y346378D01*
X548032Y346396D01*
Y348311D01*
X548244D01*
Y350583D01*
X542307D01*
Y348311D01*
X542520D01*
Y343209D01*
X543762D01*
Y341924D01*
X543453Y341745D01*
X542900Y341193D01*
X542509Y340516D01*
X542307Y339761D01*
Y338979D01*
X542509Y338224D01*
X542900Y337547D01*
X543453Y336995D01*
X544130Y336604D01*
X544885Y336402D01*
X545666D01*
X546421Y336604D01*
X547098Y336995D01*
X547651Y337547D01*
X548042Y338224D01*
X548244Y338979D01*
Y339761D01*
X548042Y340516D01*
X547651Y341193D01*
X547098Y341745D01*
X546789Y341924D01*
Y343209D01*
X547649D01*
X547835Y343172D01*
X550000D01*
Y342815D01*
X554724D01*
Y346055D01*
X554724Y346555D01*
X554724Y347160D01*
X554864Y347300D01*
X555215Y347301D01*
X555465Y347241D01*
X555963Y346743D01*
X556692Y346441D01*
X557481D01*
X558211Y346743D01*
X558769Y347301D01*
X558949Y347736D01*
X559449Y347636D01*
X559449Y346555D01*
X559449Y346055D01*
Y342815D01*
X564173D01*
Y343691D01*
X564500Y343756D01*
X564861Y343997D01*
X568177Y347313D01*
X568701D01*
Y345669D01*
X573819D01*
Y351181D01*
X568701D01*
Y349537D01*
X568177D01*
X564861Y352853D01*
X564500Y353094D01*
X564173Y353159D01*
Y354035D01*
D02*
G37*
G36*
X537796Y350409D02*
X537007D01*
X536278Y350107D01*
X535719Y349549D01*
X535417Y348820D01*
Y348030D01*
X535719Y347301D01*
X536278Y346743D01*
X537007Y346441D01*
X537796D01*
X538526Y346743D01*
X539084Y347301D01*
X539386Y348030D01*
Y348820D01*
X539084Y349549D01*
X538526Y350107D01*
X537796Y350409D01*
D02*
G37*
G36*
X325198Y346472D02*
X324409D01*
X323679Y346170D01*
X323121Y345612D01*
X323085Y345524D01*
X322585D01*
X322548Y345612D01*
X321990Y346170D01*
X321261Y346472D01*
X320472D01*
X319742Y346170D01*
X319184Y345612D01*
X318882Y344883D01*
Y344093D01*
X319184Y343364D01*
X319742Y342806D01*
X320472Y342504D01*
X321261D01*
X321990Y342806D01*
X322548Y343364D01*
X322585Y343452D01*
X323085D01*
X323121Y343364D01*
X323679Y342806D01*
X324409Y342504D01*
X325198D01*
X325927Y342806D01*
X326485Y343364D01*
X326787Y344093D01*
Y344883D01*
X326485Y345612D01*
X325927Y346170D01*
X325198Y346472D01*
D02*
G37*
G36*
X312993Y351590D02*
X312204D01*
X311474Y351289D01*
X310916Y350730D01*
X310614Y350001D01*
Y349212D01*
X310916Y348482D01*
X311367Y348031D01*
X310916Y347581D01*
X310614Y346851D01*
Y346062D01*
X310916Y345333D01*
X311474Y344775D01*
X312204Y344472D01*
X312993D01*
X313722Y344775D01*
X314281Y345333D01*
X314583Y346062D01*
Y346851D01*
X314281Y347581D01*
X313830Y348031D01*
X314281Y348482D01*
X314583Y349212D01*
Y350001D01*
X314281Y350730D01*
X313722Y351289D01*
X312993Y351590D01*
D02*
G37*
G36*
X308269Y346472D02*
X307479D01*
X306750Y346170D01*
X306192Y345612D01*
X305890Y344883D01*
Y344093D01*
X306192Y343364D01*
X306750Y342806D01*
X307479Y342504D01*
X308269D01*
X308998Y342806D01*
X309556Y343364D01*
X309858Y344093D01*
Y344883D01*
X309556Y345612D01*
X308998Y346170D01*
X308269Y346472D01*
D02*
G37*
G36*
X295670D02*
X294881D01*
X294152Y346170D01*
X293593Y345612D01*
X293291Y344883D01*
Y344093D01*
X293593Y343364D01*
X294152Y342806D01*
X294881Y342504D01*
X295670D01*
X296400Y342806D01*
X296958Y343364D01*
X297260Y344093D01*
Y344883D01*
X296958Y345612D01*
X296400Y346170D01*
X295670Y346472D01*
D02*
G37*
G36*
X229995Y350905D02*
X228824D01*
X227692Y350602D01*
X226678Y350017D01*
X225850Y349188D01*
X225264Y348174D01*
X224961Y347042D01*
Y345871D01*
X225264Y344740D01*
X225850Y343725D01*
X226678Y342897D01*
X227692Y342311D01*
X228824Y342008D01*
X229995D01*
X231127Y342311D01*
X232141Y342897D01*
X232969Y343725D01*
X233555Y344740D01*
X233858Y345871D01*
Y347042D01*
X233555Y348174D01*
X232969Y349188D01*
X232141Y350017D01*
X231127Y350602D01*
X229995Y350905D01*
D02*
G37*
G36*
X219995D02*
X218824D01*
X217692Y350602D01*
X216678Y350017D01*
X215849Y349188D01*
X215264Y348174D01*
X214961Y347042D01*
Y345871D01*
X215264Y344740D01*
X215849Y343725D01*
X216678Y342897D01*
X217692Y342311D01*
X218824Y342008D01*
X219995D01*
X221127Y342311D01*
X222141Y342897D01*
X222969Y343725D01*
X223555Y344740D01*
X223858Y345871D01*
Y347042D01*
X223555Y348174D01*
X222969Y349188D01*
X222141Y350017D01*
X221127Y350602D01*
X219995Y350905D01*
D02*
G37*
G36*
X650166Y349331D02*
X649047D01*
X647965Y349041D01*
X646995Y348481D01*
X646204Y347690D01*
X645644Y346720D01*
X645354Y345638D01*
Y344519D01*
X645644Y343438D01*
X646204Y342468D01*
X646995Y341676D01*
X647965Y341117D01*
X649047Y340827D01*
X650166D01*
X651248Y341117D01*
X652217Y341676D01*
X653009Y342468D01*
X653569Y343438D01*
X653858Y344519D01*
Y345638D01*
X653569Y346720D01*
X653009Y347690D01*
X652217Y348481D01*
X651248Y349041D01*
X650166Y349331D01*
D02*
G37*
G36*
X640324D02*
X639204D01*
X638123Y349041D01*
X637153Y348481D01*
X636361Y347690D01*
X635802Y346720D01*
X635512Y345638D01*
Y344519D01*
X635802Y343438D01*
X636361Y342468D01*
X637153Y341676D01*
X638123Y341117D01*
X639204Y340827D01*
X640324D01*
X641405Y341117D01*
X642375Y341676D01*
X643166Y342468D01*
X643726Y343438D01*
X644016Y344519D01*
Y345638D01*
X643726Y346720D01*
X643166Y347690D01*
X642375Y348481D01*
X641405Y349041D01*
X640324Y349331D01*
D02*
G37*
G36*
X630481D02*
X629361D01*
X628280Y349041D01*
X627311Y348481D01*
X626519Y347690D01*
X625959Y346720D01*
X625669Y345638D01*
Y344519D01*
X625959Y343438D01*
X626519Y342468D01*
X627311Y341676D01*
X628280Y341117D01*
X629361Y340827D01*
X630481D01*
X631563Y341117D01*
X632532Y341676D01*
X633324Y342468D01*
X633883Y343438D01*
X634173Y344519D01*
Y345638D01*
X633883Y346720D01*
X633324Y347690D01*
X632532Y348481D01*
X631563Y349041D01*
X630481Y349331D01*
D02*
G37*
G36*
X600788Y350410D02*
X599999D01*
X599270Y350107D01*
X598711Y349549D01*
X598410Y348820D01*
Y348030D01*
X598711Y347301D01*
X599270Y346743D01*
X599357Y346707D01*
Y346207D01*
X599270Y346170D01*
X598711Y345612D01*
X598410Y344883D01*
Y344093D01*
X598711Y343364D01*
X599270Y342806D01*
X599357Y342770D01*
Y342270D01*
X599270Y342233D01*
X598711Y341675D01*
X598410Y340946D01*
Y340157D01*
X598711Y339427D01*
X599270Y338869D01*
X599999Y338567D01*
X600788D01*
X601518Y338869D01*
X602076Y339427D01*
X602378Y340157D01*
Y340946D01*
X602076Y341675D01*
X601518Y342233D01*
X601430Y342270D01*
Y342770D01*
X601518Y342806D01*
X602076Y343364D01*
X602378Y344093D01*
Y344883D01*
X602076Y345612D01*
X601518Y346170D01*
X601430Y346207D01*
Y346707D01*
X601518Y346743D01*
X602076Y347301D01*
X602378Y348030D01*
Y348820D01*
X602076Y349549D01*
X601518Y350107D01*
X600788Y350410D01*
D02*
G37*
G36*
X219995Y340905D02*
X218824D01*
X217692Y340602D01*
X216678Y340017D01*
X215849Y339188D01*
X215264Y338174D01*
X214961Y337042D01*
Y336061D01*
X213779D01*
Y337106D01*
X208268D01*
Y332407D01*
X208071Y331988D01*
X208071Y331570D01*
Y329724D01*
X213976D01*
Y331570D01*
X213976Y331988D01*
X213779Y332407D01*
Y332680D01*
X214133Y333034D01*
X216328D01*
X216328Y333034D01*
X216505Y333069D01*
X216678Y332897D01*
X217692Y332311D01*
X218824Y332008D01*
X219995D01*
X221127Y332311D01*
X222141Y332897D01*
X222969Y333725D01*
X223555Y334739D01*
X223858Y335871D01*
Y337042D01*
X223555Y338174D01*
X222969Y339188D01*
X222141Y340017D01*
X221127Y340602D01*
X219995Y340905D01*
D02*
G37*
G36*
X334647Y337811D02*
X333857D01*
X333128Y337509D01*
X332570Y336951D01*
X332268Y336222D01*
Y335432D01*
X332570Y334703D01*
X333128Y334145D01*
X333857Y333842D01*
X334647D01*
X335376Y334145D01*
X335934Y334703D01*
X336236Y335432D01*
Y336222D01*
X335934Y336951D01*
X335376Y337509D01*
X334647Y337811D01*
D02*
G37*
G36*
X328740Y334646D02*
X326476D01*
Y332579D01*
X328740D01*
Y334646D01*
D02*
G37*
G36*
X325492D02*
X323228D01*
Y332579D01*
X325492D01*
Y334646D01*
D02*
G37*
G36*
X320866D02*
X318602D01*
Y332579D01*
X320866D01*
Y334646D01*
D02*
G37*
G36*
X317618D02*
X315354D01*
Y332579D01*
X317618D01*
Y334646D01*
D02*
G37*
G36*
X312992D02*
X310728D01*
Y332579D01*
X312992D01*
Y334646D01*
D02*
G37*
G36*
X309744D02*
X307480D01*
Y332579D01*
X309744D01*
Y334646D01*
D02*
G37*
G36*
X305118D02*
X302854D01*
Y332579D01*
X305118D01*
Y334646D01*
D02*
G37*
G36*
X301870D02*
X299606D01*
Y332579D01*
X301870D01*
Y334646D01*
D02*
G37*
G36*
X297244D02*
X294980D01*
Y332579D01*
X297244D01*
Y334646D01*
D02*
G37*
G36*
X293996D02*
X291732D01*
Y332579D01*
X293996D01*
Y334646D01*
D02*
G37*
G36*
X289370D02*
X287106D01*
Y332579D01*
X289370D01*
Y334646D01*
D02*
G37*
G36*
X286122D02*
X283858D01*
Y332579D01*
X286122D01*
Y334646D01*
D02*
G37*
G36*
X281496D02*
X279232D01*
Y332579D01*
X281496D01*
Y334646D01*
D02*
G37*
G36*
X278248D02*
X275984D01*
Y332579D01*
X278248D01*
Y334646D01*
D02*
G37*
G36*
X229995Y340905D02*
X228824D01*
X227692Y340602D01*
X226678Y340017D01*
X225850Y339188D01*
X225264Y338174D01*
X224961Y337042D01*
Y335871D01*
X225264Y334739D01*
X225850Y333725D01*
X226678Y332897D01*
X227692Y332311D01*
X228824Y332008D01*
X229995D01*
X231127Y332311D01*
X232141Y332897D01*
X232969Y333725D01*
X233555Y334739D01*
X233858Y335871D01*
Y337042D01*
X233555Y338174D01*
X232969Y339188D01*
X232141Y340017D01*
X231127Y340602D01*
X229995Y340905D01*
D02*
G37*
G36*
X650166Y339488D02*
X649047D01*
X647965Y339198D01*
X646995Y338639D01*
X646204Y337847D01*
X645644Y336877D01*
X645354Y335796D01*
Y334677D01*
X645644Y333595D01*
X646204Y332626D01*
X646995Y331834D01*
X647965Y331274D01*
X649047Y330984D01*
X650166D01*
X651248Y331274D01*
X652217Y331834D01*
X653009Y332626D01*
X653569Y333595D01*
X653858Y334677D01*
Y335796D01*
X653569Y336877D01*
X653009Y337847D01*
X652217Y338639D01*
X651248Y339198D01*
X650166Y339488D01*
D02*
G37*
G36*
X640324D02*
X639204D01*
X638123Y339198D01*
X637153Y338639D01*
X636361Y337847D01*
X635802Y336877D01*
X635512Y335796D01*
Y334677D01*
X635802Y333595D01*
X636361Y332626D01*
X637153Y331834D01*
X638123Y331274D01*
X639204Y330984D01*
X640324D01*
X641405Y331274D01*
X642375Y331834D01*
X643166Y332626D01*
X643726Y333595D01*
X644016Y334677D01*
Y335796D01*
X643726Y336877D01*
X643166Y337847D01*
X642375Y338639D01*
X641405Y339198D01*
X640324Y339488D01*
D02*
G37*
G36*
X630481D02*
X629361D01*
X628280Y339198D01*
X627311Y338639D01*
X626519Y337847D01*
X625959Y336877D01*
X625669Y335796D01*
Y334677D01*
X625959Y333595D01*
X626519Y332626D01*
X627311Y331834D01*
X628280Y331274D01*
X629361Y330984D01*
X630481D01*
X631563Y331274D01*
X632532Y331834D01*
X633324Y332626D01*
X633883Y333595D01*
X634173Y334677D01*
Y335796D01*
X633883Y336877D01*
X633324Y337847D01*
X632532Y338639D01*
X631563Y339198D01*
X630481Y339488D01*
D02*
G37*
G36*
X472832Y333677D02*
X472050D01*
X471295Y333475D01*
X470618Y333084D01*
X470065Y332531D01*
X469675Y331855D01*
X469472Y331100D01*
Y330318D01*
X469675Y329563D01*
X470065Y328886D01*
X470618Y328333D01*
X471295Y327942D01*
X472050Y327740D01*
X472832D01*
X473587Y327942D01*
X474264Y328333D01*
X474816Y328886D01*
X475207Y329563D01*
X475409Y330318D01*
Y331100D01*
X475207Y331855D01*
X474816Y332531D01*
X474264Y333084D01*
X473587Y333475D01*
X472832Y333677D01*
D02*
G37*
G36*
X242517Y333283D02*
X241735D01*
X240980Y333081D01*
X240303Y332690D01*
X239751Y332138D01*
X239360Y331461D01*
X239158Y330706D01*
Y329924D01*
X239360Y329169D01*
X239751Y328492D01*
X240303Y327940D01*
X240980Y327549D01*
X241735Y327346D01*
X242517D01*
X243272Y327549D01*
X243949Y327940D01*
X244501Y328492D01*
X244892Y329169D01*
X245094Y329924D01*
Y330706D01*
X244892Y331461D01*
X244501Y332138D01*
X243949Y332690D01*
X243272Y333081D01*
X242517Y333283D01*
D02*
G37*
G36*
X213976Y328740D02*
X211516D01*
Y326476D01*
X213976D01*
Y328740D01*
D02*
G37*
G36*
X210531D02*
X208071D01*
Y326476D01*
X210531D01*
Y328740D01*
D02*
G37*
G36*
X233858Y330906D02*
X224961D01*
Y322008D01*
X233858D01*
Y330906D01*
D02*
G37*
G36*
X251182Y325213D02*
X250393D01*
X249663Y324910D01*
X249105Y324352D01*
X248803Y323623D01*
Y322834D01*
X249105Y322104D01*
X249663Y321546D01*
X250393Y321244D01*
X251182D01*
X251911Y321546D01*
X252470Y322104D01*
X252772Y322834D01*
Y323623D01*
X252470Y324352D01*
X251911Y324910D01*
X251182Y325213D01*
D02*
G37*
G36*
X650166Y329646D02*
X649047D01*
X647965Y329356D01*
X646995Y328796D01*
X646204Y328005D01*
X645644Y327035D01*
X645354Y325954D01*
Y324834D01*
X645644Y323752D01*
X646204Y322783D01*
X646995Y321991D01*
X647965Y321431D01*
X649047Y321142D01*
X650166D01*
X651248Y321431D01*
X652217Y321991D01*
X653009Y322783D01*
X653569Y323752D01*
X653858Y324834D01*
Y325954D01*
X653569Y327035D01*
X653009Y328005D01*
X652217Y328796D01*
X651248Y329356D01*
X650166Y329646D01*
D02*
G37*
G36*
X640324D02*
X639204D01*
X638123Y329356D01*
X637153Y328796D01*
X636361Y328005D01*
X635802Y327035D01*
X635512Y325954D01*
Y324834D01*
X635802Y323752D01*
X636361Y322783D01*
X637153Y321991D01*
X638123Y321431D01*
X639204Y321142D01*
X640324D01*
X641405Y321431D01*
X642375Y321991D01*
X643166Y322783D01*
X643726Y323752D01*
X644016Y324834D01*
Y325954D01*
X643726Y327035D01*
X643166Y328005D01*
X642375Y328796D01*
X641405Y329356D01*
X640324Y329646D01*
D02*
G37*
G36*
X630481D02*
X629361D01*
X628280Y329356D01*
X627311Y328796D01*
X626519Y328005D01*
X625959Y327035D01*
X625669Y325954D01*
Y324834D01*
X625959Y323752D01*
X626519Y322783D01*
X627311Y321991D01*
X628280Y321431D01*
X629361Y321142D01*
X630481D01*
X631563Y321431D01*
X632532Y321991D01*
X633324Y322783D01*
X633883Y323752D01*
X634173Y324834D01*
Y325954D01*
X633883Y327035D01*
X633324Y328005D01*
X632532Y328796D01*
X631563Y329356D01*
X630481Y329646D01*
D02*
G37*
G36*
X332674Y323047D02*
X331893D01*
X331138Y322845D01*
X330461Y322454D01*
X329908Y321901D01*
X329517Y321224D01*
X329315Y320469D01*
Y319688D01*
X329517Y318933D01*
X329908Y318256D01*
X330461Y317703D01*
X331138Y317313D01*
X331893Y317110D01*
X332674D01*
X333429Y317313D01*
X334106Y317703D01*
X334659Y318256D01*
X335050Y318933D01*
X335252Y319688D01*
Y320469D01*
X335050Y321224D01*
X334659Y321901D01*
X334106Y322454D01*
X333429Y322845D01*
X332674Y323047D01*
D02*
G37*
G36*
X328740Y331594D02*
X323228D01*
Y329528D01*
X324440D01*
X324647Y329028D01*
X324302Y328683D01*
X324000Y327954D01*
Y327164D01*
X324302Y326435D01*
X324844Y325894D01*
X324839Y325804D01*
X324720Y325394D01*
X323425D01*
Y320669D01*
X325073D01*
Y319291D01*
X323425D01*
Y313779D01*
X328543D01*
Y319291D01*
X326895D01*
Y320669D01*
X328543D01*
Y325394D01*
X327248D01*
X327129Y325804D01*
X327125Y325894D01*
X327666Y326435D01*
X327969Y327164D01*
Y327954D01*
X327666Y328683D01*
X327322Y329028D01*
X327529Y329528D01*
X328740D01*
Y331594D01*
D02*
G37*
G36*
X320866D02*
X315354D01*
Y329528D01*
X316565D01*
X316773Y329028D01*
X316428Y328683D01*
X316126Y327954D01*
Y327164D01*
X316428Y326435D01*
X316969Y325894D01*
X316965Y325804D01*
X316846Y325394D01*
X315551D01*
Y320669D01*
X317199D01*
Y319291D01*
X315551D01*
Y313779D01*
X320669D01*
Y319291D01*
X319022D01*
Y320669D01*
X320669D01*
Y325394D01*
X319374D01*
X319255Y325804D01*
X319251Y325894D01*
X319792Y326435D01*
X320094Y327164D01*
Y327954D01*
X319792Y328683D01*
X319448Y329028D01*
X319655Y329528D01*
X320866D01*
Y331594D01*
D02*
G37*
G36*
X312992D02*
X307480D01*
Y329528D01*
X308692D01*
X308899Y329028D01*
X308554Y328683D01*
X308252Y327954D01*
Y327164D01*
X308554Y326435D01*
X309095Y325894D01*
X309091Y325804D01*
X308972Y325394D01*
X307677D01*
Y320669D01*
X309325D01*
Y319291D01*
X307677D01*
Y313779D01*
X312795D01*
Y319291D01*
X311147D01*
Y320669D01*
X312795D01*
Y325394D01*
X311500D01*
X311381Y325804D01*
X311377Y325894D01*
X311918Y326435D01*
X312221Y327164D01*
Y327954D01*
X311918Y328683D01*
X311574Y329028D01*
X311781Y329528D01*
X312992D01*
Y331594D01*
D02*
G37*
G36*
X305118D02*
X299606D01*
Y329528D01*
X300817D01*
X301025Y329028D01*
X300680Y328683D01*
X300378Y327954D01*
Y327164D01*
X300680Y326435D01*
X301221Y325894D01*
X301217Y325804D01*
X301098Y325394D01*
X299803D01*
Y320669D01*
X301451D01*
Y319291D01*
X299803D01*
Y313779D01*
X304921D01*
Y319291D01*
X303273D01*
Y320669D01*
X304921D01*
Y325394D01*
X303626D01*
X303507Y325804D01*
X303503Y325894D01*
X304044Y326435D01*
X304346Y327164D01*
Y327954D01*
X304044Y328683D01*
X303700Y329028D01*
X303907Y329528D01*
X305118D01*
Y331594D01*
D02*
G37*
G36*
X297244D02*
X291732D01*
Y329528D01*
X292943D01*
X293150Y329028D01*
X292806Y328683D01*
X292504Y327954D01*
Y327164D01*
X292806Y326435D01*
X293347Y325894D01*
X293343Y325804D01*
X293224Y325394D01*
X291929D01*
Y320669D01*
X293577D01*
Y319291D01*
X291929D01*
Y313779D01*
X297047D01*
Y319291D01*
X295399D01*
Y320669D01*
X297047D01*
Y325394D01*
X295752D01*
X295633Y325804D01*
X295629Y325894D01*
X296170Y326435D01*
X296472Y327164D01*
Y327954D01*
X296170Y328683D01*
X295826Y329028D01*
X296033Y329528D01*
X297244D01*
Y331594D01*
D02*
G37*
G36*
X289370D02*
X283858D01*
Y329528D01*
X285069D01*
X285277Y329028D01*
X284932Y328683D01*
X284630Y327954D01*
Y327164D01*
X284932Y326435D01*
X285473Y325894D01*
X285469Y325804D01*
X285350Y325394D01*
X284055D01*
Y320669D01*
X285703D01*
Y319291D01*
X284055D01*
Y313779D01*
X289173D01*
Y319291D01*
X287525D01*
Y320669D01*
X289173D01*
Y325394D01*
X287878D01*
X287759Y325804D01*
X287755Y325894D01*
X288296Y326435D01*
X288598Y327164D01*
Y327954D01*
X288296Y328683D01*
X287952Y329028D01*
X288159Y329528D01*
X289370D01*
Y331594D01*
D02*
G37*
G36*
X281496D02*
X275984D01*
Y329528D01*
X277195D01*
X277402Y329028D01*
X277058Y328683D01*
X276756Y327954D01*
Y327164D01*
X277058Y326435D01*
X277599Y325894D01*
X277595Y325804D01*
X277476Y325394D01*
X276181D01*
Y320669D01*
X277829D01*
Y319291D01*
X276181D01*
Y313779D01*
X281299D01*
Y319291D01*
X279651D01*
Y320669D01*
X281299D01*
Y325394D01*
X280004D01*
X279885Y325804D01*
X279881Y325894D01*
X280422Y326435D01*
X280724Y327164D01*
Y327954D01*
X280422Y328683D01*
X280078Y329028D01*
X280285Y329528D01*
X281496D01*
Y331594D01*
D02*
G37*
G36*
X573229Y322850D02*
X572440D01*
X571711Y322548D01*
X571152Y321990D01*
X570850Y321261D01*
Y320472D01*
X571152Y319742D01*
X571711Y319184D01*
X571798Y319148D01*
Y318648D01*
X571711Y318611D01*
X571152Y318053D01*
X570850Y317324D01*
Y316534D01*
X571152Y315805D01*
X571711Y315247D01*
X571798Y315211D01*
Y314711D01*
X571711Y314674D01*
X571152Y314116D01*
X570850Y313387D01*
Y312597D01*
X571152Y311868D01*
X571711Y311310D01*
X572440Y311008D01*
X573229D01*
X573959Y311310D01*
X574517Y311868D01*
X574819Y312597D01*
Y313387D01*
X574517Y314116D01*
X573959Y314674D01*
X573871Y314711D01*
Y315211D01*
X573959Y315247D01*
X574517Y315805D01*
X574819Y316534D01*
Y317324D01*
X574517Y318053D01*
X573959Y318611D01*
X573871Y318648D01*
Y319148D01*
X573959Y319184D01*
X574517Y319742D01*
X574819Y320472D01*
Y321261D01*
X574517Y321990D01*
X573959Y322548D01*
X573229Y322850D01*
D02*
G37*
G36*
X328543Y312205D02*
X323425D01*
Y306693D01*
X324100D01*
X324282Y306193D01*
X324000Y305513D01*
Y304723D01*
X324302Y303994D01*
X324860Y303436D01*
X325590Y303134D01*
X326379D01*
X327108Y303436D01*
X327666Y303994D01*
X327969Y304723D01*
Y305513D01*
X327687Y306193D01*
X327869Y306693D01*
X328543D01*
Y312205D01*
D02*
G37*
G36*
X320669D02*
X315551D01*
Y306693D01*
X316226D01*
X316408Y306193D01*
X316126Y305513D01*
Y304723D01*
X316428Y303994D01*
X316986Y303436D01*
X317716Y303134D01*
X318505D01*
X319234Y303436D01*
X319792Y303994D01*
X320094Y304723D01*
Y305513D01*
X319813Y306193D01*
X319995Y306693D01*
X320669D01*
Y312205D01*
D02*
G37*
G36*
X312795D02*
X307677D01*
Y306693D01*
X308352D01*
X308534Y306193D01*
X308252Y305513D01*
Y304723D01*
X308554Y303994D01*
X309112Y303436D01*
X309841Y303134D01*
X310631D01*
X311360Y303436D01*
X311918Y303994D01*
X312221Y304723D01*
Y305513D01*
X311939Y306193D01*
X312121Y306693D01*
X312795D01*
Y312205D01*
D02*
G37*
G36*
X304921D02*
X299803D01*
Y306693D01*
X300478D01*
X300660Y306193D01*
X300378Y305513D01*
Y304723D01*
X300680Y303994D01*
X301238Y303436D01*
X301968Y303134D01*
X302757D01*
X303486Y303436D01*
X304044Y303994D01*
X304346Y304723D01*
Y305513D01*
X304065Y306193D01*
X304247Y306693D01*
X304921D01*
Y312205D01*
D02*
G37*
G36*
X297047D02*
X291929D01*
Y306693D01*
X292603D01*
X292786Y306193D01*
X292504Y305513D01*
Y304723D01*
X292806Y303994D01*
X293364Y303436D01*
X294093Y303134D01*
X294883D01*
X295612Y303436D01*
X296170Y303994D01*
X296472Y304723D01*
Y305513D01*
X296191Y306193D01*
X296373Y306693D01*
X297047D01*
Y312205D01*
D02*
G37*
G36*
X289173D02*
X284055D01*
Y306693D01*
X284730D01*
X284912Y306193D01*
X284630Y305513D01*
Y304723D01*
X284932Y303994D01*
X285490Y303436D01*
X286220Y303134D01*
X287009D01*
X287738Y303436D01*
X288296Y303994D01*
X288598Y304723D01*
Y305513D01*
X288317Y306193D01*
X288499Y306693D01*
X289173D01*
Y312205D01*
D02*
G37*
G36*
X281299D02*
X276181D01*
Y306693D01*
X276855D01*
X277038Y306193D01*
X276756Y305513D01*
Y304723D01*
X277058Y303994D01*
X277616Y303436D01*
X278345Y303134D01*
X279135D01*
X279864Y303436D01*
X280422Y303994D01*
X280724Y304723D01*
Y305513D01*
X280443Y306193D01*
X280625Y306693D01*
X281299D01*
Y312205D01*
D02*
G37*
G36*
X223619Y307693D02*
X222837D01*
X222082Y307491D01*
X221406Y307100D01*
X220853Y306547D01*
X220462Y305870D01*
X220260Y305115D01*
Y304334D01*
X220462Y303579D01*
X220853Y302902D01*
X221406Y302349D01*
X222082Y301958D01*
X222837Y301756D01*
X223619D01*
X224374Y301958D01*
X225051Y302349D01*
X225604Y302902D01*
X225995Y303579D01*
X226197Y304334D01*
Y305115D01*
X225995Y305870D01*
X225604Y306547D01*
X225051Y307100D01*
X224374Y307491D01*
X223619Y307693D01*
D02*
G37*
G36*
X480710Y299228D02*
X479920D01*
X479191Y298926D01*
X478633Y298368D01*
X478331Y297639D01*
Y296849D01*
X478633Y296120D01*
X479191Y295562D01*
X479920Y295260D01*
X480710D01*
X481439Y295562D01*
X481997Y296120D01*
X482299Y296849D01*
Y297639D01*
X481997Y298368D01*
X481439Y298926D01*
X480710Y299228D01*
D02*
G37*
G36*
X228741Y294110D02*
X227952D01*
X227222Y293808D01*
X226664Y293250D01*
X226362Y292521D01*
Y291731D01*
X226664Y291002D01*
X227222Y290444D01*
X227952Y290142D01*
X228741D01*
X229470Y290444D01*
X230029Y291002D01*
X230331Y291731D01*
Y292521D01*
X230029Y293250D01*
X229470Y293808D01*
X228741Y294110D01*
D02*
G37*
G36*
X626558Y295984D02*
X625410D01*
X624285Y295760D01*
X623224Y295321D01*
X622270Y294683D01*
X621458Y293872D01*
X620821Y292917D01*
X620381Y291857D01*
X620157Y290731D01*
Y289584D01*
X620381Y288458D01*
X620821Y287398D01*
X621458Y286443D01*
X622270Y285631D01*
X623224Y284994D01*
X624285Y284555D01*
X625410Y284331D01*
X626558D01*
X627684Y284555D01*
X628744Y284994D01*
X629699Y285631D01*
X630510Y286443D01*
X631148Y287398D01*
X631587Y288458D01*
X631811Y289584D01*
Y290731D01*
X631587Y291857D01*
X631148Y292917D01*
X630510Y293872D01*
X629699Y294683D01*
X628744Y295321D01*
X627684Y295760D01*
X626558Y295984D01*
D02*
G37*
G36*
X228741Y287811D02*
X227952D01*
X227222Y287509D01*
X226664Y286951D01*
X226362Y286222D01*
Y285432D01*
X226664Y284703D01*
X227222Y284145D01*
X227952Y283842D01*
X228741D01*
X229470Y284145D01*
X230029Y284703D01*
X230331Y285432D01*
Y286222D01*
X230029Y286951D01*
X229470Y287509D01*
X228741Y287811D01*
D02*
G37*
G36*
X643049Y284370D02*
X641203D01*
X639393Y284010D01*
X637688Y283304D01*
X636153Y282278D01*
X634848Y280973D01*
X633822Y279438D01*
X633116Y277733D01*
X632756Y275923D01*
Y274077D01*
X633116Y272267D01*
X633822Y270562D01*
X634848Y269027D01*
X636153Y267722D01*
X637688Y266696D01*
X639393Y265990D01*
X641203Y265630D01*
X643049D01*
X644859Y265990D01*
X646564Y266696D01*
X648099Y267722D01*
X649404Y269027D01*
X650430Y270562D01*
X651136Y272267D01*
X651496Y274077D01*
Y275923D01*
X651136Y277733D01*
X650430Y279438D01*
X649404Y280973D01*
X648099Y282278D01*
X646564Y283304D01*
X644859Y284010D01*
X643049Y284370D01*
D02*
G37*
G36*
X597985Y276240D02*
X596503D01*
X595071Y275856D01*
X593787Y275115D01*
X592739Y274067D01*
X591998Y272783D01*
X591614Y271351D01*
Y269869D01*
X591998Y268437D01*
X592739Y267153D01*
X593787Y266105D01*
X595071Y265364D01*
X596503Y264980D01*
X597985D01*
X599417Y265364D01*
X600701Y266105D01*
X601749Y267153D01*
X602490Y268437D01*
X602874Y269869D01*
Y271351D01*
X602490Y272783D01*
X601749Y274067D01*
X600701Y275115D01*
X599417Y275856D01*
X597985Y276240D01*
D02*
G37*
G36*
X584599D02*
X583117D01*
X581685Y275856D01*
X580401Y275115D01*
X579353Y274067D01*
X578612Y272783D01*
X578228Y271351D01*
Y269869D01*
X578612Y268437D01*
X579353Y267153D01*
X580401Y266105D01*
X581685Y265364D01*
X583117Y264980D01*
X584599D01*
X586031Y265364D01*
X587315Y266105D01*
X588363Y267153D01*
X589104Y268437D01*
X589488Y269869D01*
Y271351D01*
X589104Y272783D01*
X588363Y274067D01*
X587315Y275115D01*
X586031Y275856D01*
X584599Y276240D01*
D02*
G37*
G36*
X514915D02*
X513432D01*
X512000Y275856D01*
X510716Y275115D01*
X509668Y274067D01*
X508927Y272783D01*
X508543Y271351D01*
Y269869D01*
X508927Y268437D01*
X509668Y267153D01*
X510716Y266105D01*
X512000Y265364D01*
X513432Y264980D01*
X514915D01*
X516346Y265364D01*
X517630Y266105D01*
X518678Y267153D01*
X519419Y268437D01*
X519803Y269869D01*
Y271351D01*
X519419Y272783D01*
X518678Y274067D01*
X517630Y275115D01*
X516346Y275856D01*
X514915Y276240D01*
D02*
G37*
G36*
X501529D02*
X500046D01*
X498614Y275856D01*
X497331Y275115D01*
X496282Y274067D01*
X495541Y272783D01*
X495157Y271351D01*
Y269869D01*
X495541Y268437D01*
X496282Y267153D01*
X497331Y266105D01*
X498614Y265364D01*
X500046Y264980D01*
X501529D01*
X502960Y265364D01*
X504244Y266105D01*
X505293Y267153D01*
X506034Y268437D01*
X506417Y269869D01*
Y271351D01*
X506034Y272783D01*
X505293Y274067D01*
X504244Y275115D01*
X502960Y275856D01*
X501529Y276240D01*
D02*
G37*
G36*
X450271Y259882D02*
X448903D01*
X447581Y259528D01*
X446396Y258843D01*
X445428Y257876D01*
X444744Y256691D01*
X444390Y255369D01*
Y254001D01*
X444744Y252679D01*
X445428Y251494D01*
X446396Y250526D01*
X447581Y249842D01*
X448903Y249488D01*
X450271D01*
X451593Y249842D01*
X452778Y250526D01*
X453745Y251494D01*
X454429Y252679D01*
X454783Y254001D01*
Y255369D01*
X454429Y256691D01*
X453745Y257876D01*
X452778Y258843D01*
X451593Y259528D01*
X450271Y259882D01*
D02*
G37*
G36*
X258184Y250512D02*
X256816D01*
X255494Y250158D01*
X254309Y249474D01*
X253342Y248506D01*
X252657Y247321D01*
X252303Y245999D01*
Y244631D01*
X252657Y243309D01*
X253342Y242124D01*
X254309Y241156D01*
X255494Y240472D01*
X256816Y240118D01*
X258184D01*
X259506Y240472D01*
X260691Y241156D01*
X261659Y242124D01*
X262343Y243309D01*
X262697Y244631D01*
Y245999D01*
X262343Y247321D01*
X261659Y248506D01*
X260691Y249474D01*
X259506Y250158D01*
X258184Y250512D01*
D02*
G37*
G36*
X550763Y242646D02*
X549631D01*
X548537Y242353D01*
X547557Y241787D01*
X546757Y240986D01*
X546191Y240006D01*
X545898Y238913D01*
Y237780D01*
X546191Y236687D01*
X546757Y235707D01*
X547557Y234906D01*
X548537Y234340D01*
X549631Y234047D01*
X550763D01*
X551856Y234340D01*
X552837Y234906D01*
X553637Y235707D01*
X554203Y236687D01*
X554496Y237780D01*
Y238913D01*
X554203Y240006D01*
X553637Y240986D01*
X552837Y241787D01*
X551856Y242353D01*
X550763Y242646D01*
D02*
G37*
G36*
Y222646D02*
X549631D01*
X548537Y222353D01*
X547557Y221787D01*
X546757Y220986D01*
X546191Y220006D01*
X545898Y218913D01*
Y217780D01*
X546191Y216687D01*
X546757Y215707D01*
X547557Y214906D01*
X548537Y214340D01*
X549631Y214047D01*
X550763D01*
X551856Y214340D01*
X552837Y214906D01*
X553637Y215707D01*
X554203Y216687D01*
X554496Y217780D01*
Y218913D01*
X554203Y220006D01*
X553637Y220986D01*
X552837Y221787D01*
X551856Y222353D01*
X550763Y222646D01*
D02*
G37*
G36*
X597985Y223209D02*
X596503D01*
X595071Y222825D01*
X593787Y222084D01*
X592739Y221036D01*
X591998Y219752D01*
X591614Y218320D01*
Y216838D01*
X591998Y215406D01*
X592739Y214122D01*
X593787Y213074D01*
X595071Y212333D01*
X596503Y211949D01*
X597985D01*
X599417Y212333D01*
X600701Y213074D01*
X601749Y214122D01*
X602490Y215406D01*
X602874Y216838D01*
Y218320D01*
X602490Y219752D01*
X601749Y221036D01*
X600701Y222084D01*
X599417Y222825D01*
X597985Y223209D01*
D02*
G37*
G36*
X584599D02*
X583117D01*
X581685Y222825D01*
X580401Y222084D01*
X579353Y221036D01*
X578612Y219752D01*
X578228Y218320D01*
Y216838D01*
X578612Y215406D01*
X579353Y214122D01*
X580401Y213074D01*
X581685Y212333D01*
X583117Y211949D01*
X584599D01*
X586031Y212333D01*
X587315Y213074D01*
X588363Y214122D01*
X589104Y215406D01*
X589488Y216838D01*
Y218320D01*
X589104Y219752D01*
X588363Y221036D01*
X587315Y222084D01*
X586031Y222825D01*
X584599Y223209D01*
D02*
G37*
G36*
X514915D02*
X513432D01*
X512000Y222825D01*
X510716Y222084D01*
X509668Y221036D01*
X508927Y219752D01*
X508543Y218320D01*
Y216838D01*
X508927Y215406D01*
X509668Y214122D01*
X510716Y213074D01*
X512000Y212333D01*
X513432Y211949D01*
X514915D01*
X516346Y212333D01*
X517630Y213074D01*
X518678Y214122D01*
X519419Y215406D01*
X519803Y216838D01*
Y218320D01*
X519419Y219752D01*
X518678Y221036D01*
X517630Y222084D01*
X516346Y222825D01*
X514915Y223209D01*
D02*
G37*
G36*
X501529D02*
X500046D01*
X498614Y222825D01*
X497331Y222084D01*
X496282Y221036D01*
X495541Y219752D01*
X495157Y218320D01*
Y216838D01*
X495541Y215406D01*
X496282Y214122D01*
X497331Y213074D01*
X498614Y212333D01*
X500046Y211949D01*
X501529D01*
X502960Y212333D01*
X504244Y213074D01*
X505293Y214122D01*
X506034Y215406D01*
X506417Y216838D01*
Y218320D01*
X506034Y219752D01*
X505293Y221036D01*
X504244Y222084D01*
X502960Y222825D01*
X501529Y223209D01*
D02*
G37*
G36*
X642065Y483386D02*
X640219D01*
X638409Y483026D01*
X636703Y482319D01*
X635169Y481294D01*
X633863Y479989D01*
X632838Y478454D01*
X632132Y476749D01*
X631772Y474939D01*
Y473093D01*
X632132Y471283D01*
X632838Y469577D01*
X633863Y468043D01*
X635169Y466738D01*
X636703Y465712D01*
X638409Y465006D01*
X640219Y464646D01*
X642065D01*
X643875Y465006D01*
X645580Y465712D01*
X647115Y466738D01*
X648420Y468043D01*
X649445Y469577D01*
X650152Y471283D01*
X650512Y473093D01*
Y474939D01*
X650152Y476749D01*
X649445Y478454D01*
X648420Y479989D01*
X647115Y481294D01*
X645580Y482319D01*
X643875Y483026D01*
X642065Y483386D01*
D02*
G37*
G36*
X626558Y463701D02*
X625410D01*
X624285Y463477D01*
X623224Y463038D01*
X622270Y462400D01*
X621458Y461588D01*
X620821Y460634D01*
X620381Y459574D01*
X620157Y458448D01*
Y457300D01*
X620381Y456174D01*
X620821Y455114D01*
X621458Y454160D01*
X622270Y453348D01*
X623224Y452710D01*
X624285Y452271D01*
X625410Y452047D01*
X626558D01*
X627684Y452271D01*
X628744Y452710D01*
X629699Y453348D01*
X630510Y454160D01*
X631148Y455114D01*
X631587Y456174D01*
X631811Y457300D01*
Y458448D01*
X631587Y459574D01*
X631148Y460634D01*
X630510Y461588D01*
X629699Y462400D01*
X628744Y463038D01*
X627684Y463477D01*
X626558Y463701D01*
D02*
G37*
G36*
X630481Y421969D02*
X629361D01*
X628280Y421679D01*
X627311Y421119D01*
X626519Y420327D01*
X625959Y419358D01*
X625669Y418276D01*
Y417157D01*
X625959Y416075D01*
X626519Y415106D01*
X627311Y414314D01*
X628280Y413754D01*
X629361Y413465D01*
X630481D01*
X631563Y413754D01*
X632532Y414314D01*
X633324Y415106D01*
X633883Y416075D01*
X634173Y417157D01*
Y418276D01*
X633883Y419358D01*
X633324Y420327D01*
X632532Y421119D01*
X631563Y421679D01*
X630481Y421969D01*
D02*
G37*
%LPD*%
D16*
X302362Y316535D02*
Y327559D01*
X318110Y316535D02*
Y327559D01*
X310236Y316535D02*
Y327559D01*
X325984Y316535D02*
Y327559D01*
X294488Y316535D02*
Y327559D01*
X278740Y323031D02*
Y327559D01*
X278740Y323031D02*
X278740Y323031D01*
X286614D02*
Y327559D01*
X286614Y323031D02*
X286614Y323031D01*
X302362Y316535D02*
X302362Y316535D01*
X286614Y316535D02*
X286614Y316535D01*
X286614Y316535D02*
Y323031D01*
X278740Y316535D02*
X278740Y316535D01*
X278740Y316535D02*
Y323031D01*
X325984Y305118D02*
Y309449D01*
X318110Y305118D02*
Y309449D01*
X310236Y305118D02*
Y309449D01*
X302362Y309449D02*
X302362Y309449D01*
X302362Y305118D02*
Y309449D01*
X294488Y305118D02*
Y309449D01*
X286614Y305118D02*
Y309449D01*
X278740Y305118D02*
Y309449D01*
X557087Y348425D02*
X557087Y348425D01*
X552362Y348425D02*
X552362Y348425D01*
X557087D01*
X318110Y441732D02*
Y446260D01*
X318110Y446260D02*
X318110Y446260D01*
X310236Y441732D02*
Y446260D01*
X310236Y446260D02*
X310236Y446260D01*
X302362Y446260D02*
X302362Y446260D01*
Y441732D02*
Y446260D01*
X294488Y441732D02*
Y446260D01*
X294488Y446260D02*
X294488Y446260D01*
X286614Y441732D02*
Y446260D01*
X286614Y446260D02*
X286614Y446260D01*
X278740Y441732D02*
Y446260D01*
X278740Y446260D02*
X278740Y446260D01*
X270866Y441732D02*
Y446260D01*
X270866Y446260D02*
X270866Y446260D01*
X262992Y446260D02*
X262992Y446260D01*
Y441732D02*
Y446260D01*
X255118Y441732D02*
Y446260D01*
X255118Y446260D02*
X255118Y446260D01*
X247244Y446260D02*
X247244Y446260D01*
Y441732D02*
Y446260D01*
X239370Y446260D02*
X239370Y446260D01*
Y441732D02*
Y446260D01*
X231496Y446260D02*
X231496Y446260D01*
Y441732D02*
Y446260D01*
X223622Y441732D02*
Y446260D01*
X223622Y446260D02*
X223622Y446260D01*
X215748Y441732D02*
Y446260D01*
X215748Y446260D02*
X215748Y446260D01*
X318110Y446260D02*
X318110Y446260D01*
X318110Y446260D02*
Y452756D01*
X310236Y446260D02*
X310236Y446260D01*
X310236Y446260D02*
Y452756D01*
X302362Y446260D02*
X302362Y446260D01*
Y452756D01*
X294488Y446260D02*
Y452756D01*
Y446260D02*
X294488Y446260D01*
X286614Y446260D02*
Y452756D01*
Y446260D02*
X286614Y446260D01*
X278740Y446260D02*
X278740Y446260D01*
X278740Y446260D02*
Y452756D01*
X270866Y446260D02*
X270866Y446260D01*
X270866Y446260D02*
Y452756D01*
X262992Y446260D02*
X262992Y446260D01*
X262992Y446260D02*
Y452756D01*
X255118Y446260D02*
X255118Y446260D01*
X255118Y446260D02*
Y452756D01*
X247244Y446260D02*
Y452756D01*
Y446260D02*
X247244Y446260D01*
X239370Y446260D02*
X239370Y446260D01*
X239370Y446260D02*
Y452756D01*
X231496Y446260D02*
X231496Y446260D01*
X231496Y446260D02*
Y452756D01*
X223622Y446260D02*
Y452756D01*
Y446260D02*
X223622Y446260D01*
X215748Y446260D02*
X215748Y446260D01*
X215748Y446260D02*
Y452756D01*
X568110Y416142D02*
X584764Y399488D01*
X539950Y455905D02*
X568110Y427745D01*
Y416142D02*
Y427745D01*
X584764Y399488D02*
X644410D01*
X649606Y394291D01*
X215748Y459646D02*
Y459842D01*
Y459646D02*
X219488Y455905D01*
X539950D01*
X259055Y466535D02*
X266929Y474409D01*
X251181Y466535D02*
X259055D01*
X247244Y462598D02*
X251181Y466535D01*
X239370Y466142D02*
X243701Y470472D01*
X260236D02*
X269853Y480089D01*
X243701Y470472D02*
X260236D01*
X239370Y459842D02*
Y466142D01*
X553287Y462598D02*
X572047Y481358D01*
X294547Y467973D02*
X440551D01*
X278740Y460039D02*
X287961Y469260D01*
X278421Y470547D02*
X384071D01*
X287961Y469260D02*
X412311D01*
X497031Y465398D02*
X512992Y481358D01*
X314504Y464110D02*
X525272D01*
X255118Y460039D02*
X268201Y473122D01*
X301134Y466685D02*
X468791D01*
X440551Y467973D02*
X453937Y481358D01*
X311811Y461417D02*
X314504Y464110D01*
X286614Y460039D02*
X294547Y467973D01*
X320866Y462598D02*
X553287D01*
X355831Y471835D02*
X365354Y481358D01*
X525272Y464110D02*
X542520Y481358D01*
X307720Y465398D02*
X497031D01*
X274787Y471835D02*
X355831D01*
X384071Y470547D02*
X394882Y481358D01*
X327590Y473122D02*
X335827Y481358D01*
X268201Y473122D02*
X327590D01*
X294488Y460039D02*
X301134Y466685D01*
X468791D02*
X483465Y481358D01*
X412311Y469260D02*
X424409Y481358D01*
X302362Y460039D02*
X307720Y465398D01*
X318110Y459842D02*
X320866Y462598D01*
X270866Y462992D02*
X278421Y470547D01*
X262992Y460039D02*
X274787Y471835D01*
X310236Y460039D02*
X311614Y461417D01*
X311811D01*
X310236Y459842D02*
Y460039D01*
X299350Y474409D02*
X306299Y481358D01*
X266929Y474409D02*
X299350D01*
X269853Y480089D02*
X275502D01*
X247244Y459842D02*
Y462598D01*
X275502Y480089D02*
X276772Y481358D01*
X302362Y459842D02*
Y460039D01*
X294488Y459842D02*
Y460039D01*
X286614Y459842D02*
Y460039D01*
X278740Y459842D02*
Y460039D01*
X270866Y459842D02*
Y462992D01*
X262992Y459842D02*
Y460039D01*
X255118Y459842D02*
Y460039D01*
X231496Y465610D02*
X247244Y481358D01*
X231496Y459842D02*
Y465610D01*
X217717Y481358D02*
X223622Y475453D01*
Y459842D02*
Y475453D01*
X664206Y200296D02*
Y205216D01*
X661746Y202756D01*
X665026D01*
D23*
X211024Y334547D02*
D03*
Y329232D02*
D03*
X545276Y345768D02*
D03*
Y351083D02*
D03*
D34*
X571260Y348425D02*
D03*
Y355512D02*
D03*
X278740Y309449D02*
D03*
Y316535D02*
D03*
X294488Y309449D02*
D03*
Y316535D02*
D03*
X286614Y309449D02*
D03*
Y316535D02*
D03*
X318110Y309449D02*
D03*
Y316535D02*
D03*
X325984Y309449D02*
D03*
Y316535D02*
D03*
X302362Y309449D02*
D03*
Y316535D02*
D03*
X310236Y309449D02*
D03*
Y316535D02*
D03*
X302362Y459842D02*
D03*
Y452756D02*
D03*
X278740Y459842D02*
D03*
Y452756D02*
D03*
X270866Y459842D02*
D03*
Y452756D02*
D03*
X262992Y459842D02*
D03*
Y452756D02*
D03*
X231496Y459842D02*
D03*
Y452756D02*
D03*
X255118Y459842D02*
D03*
Y452756D02*
D03*
X239370Y459842D02*
D03*
Y452756D02*
D03*
X247244Y459842D02*
D03*
Y452756D02*
D03*
X223622Y459842D02*
D03*
Y452756D02*
D03*
X215748Y459842D02*
D03*
Y452756D02*
D03*
X294488Y459842D02*
D03*
Y452756D02*
D03*
X318110Y459842D02*
D03*
Y452756D02*
D03*
X310236Y459842D02*
D03*
Y452756D02*
D03*
X286614Y459842D02*
D03*
Y452756D02*
D03*
D35*
X257500Y245315D02*
D03*
X449587Y254685D02*
D03*
D36*
X625984Y457874D02*
D03*
Y290158D02*
D03*
D40*
X219409Y326457D02*
D03*
X229410Y336457D02*
D03*
X219409D02*
D03*
X229410Y346457D02*
D03*
X219409D02*
D03*
X229410Y356457D02*
D03*
X219409D02*
D03*
X229410Y366457D02*
D03*
X219409D02*
D03*
D47*
X278740Y323031D02*
D03*
Y332087D02*
D03*
X286614Y323031D02*
D03*
Y332087D02*
D03*
X294488Y323031D02*
D03*
Y332087D02*
D03*
X302362Y323031D02*
D03*
Y332087D02*
D03*
X310236Y323031D02*
D03*
Y332087D02*
D03*
X318110Y323031D02*
D03*
Y332087D02*
D03*
X325984Y323031D02*
D03*
Y332087D02*
D03*
X302362Y437205D02*
D03*
Y446260D02*
D03*
X231496Y437205D02*
D03*
Y446260D02*
D03*
X318110Y437205D02*
D03*
Y446260D02*
D03*
X294488Y437205D02*
D03*
Y446260D02*
D03*
X255118Y437205D02*
D03*
Y446260D02*
D03*
X247244Y437205D02*
D03*
Y446260D02*
D03*
X262992Y437205D02*
D03*
Y446260D02*
D03*
X286614Y437205D02*
D03*
Y446260D02*
D03*
X270866Y437205D02*
D03*
Y446260D02*
D03*
X278740Y437205D02*
D03*
Y446260D02*
D03*
X310236Y437205D02*
D03*
Y446260D02*
D03*
X239370Y437205D02*
D03*
Y446260D02*
D03*
X223622Y437205D02*
D03*
Y446260D02*
D03*
X215748Y437205D02*
D03*
Y446260D02*
D03*
D59*
X218238Y336457D02*
X219409D01*
X211024Y334547D02*
X216328D01*
X218238Y336457D01*
X545276Y339370D02*
Y345768D01*
X547835Y344685D02*
X552362D01*
X545472Y345768D02*
X546260Y344980D01*
X545472Y351083D02*
X546555Y352165D01*
X545276Y351083D02*
X545472D01*
X546555Y352165D02*
X552362D01*
X547539Y344980D02*
X547835Y344685D01*
X545276Y345768D02*
X545472D01*
X546260Y344980D02*
X547539D01*
D60*
X571260Y355512D02*
X579528D01*
X564075Y352067D02*
X567717Y348425D01*
X561909Y344783D02*
X564075D01*
X567717Y348425D02*
X571260D01*
X561909Y352067D02*
X564075D01*
X564075Y344783D02*
X567717Y348425D01*
X561811Y344685D02*
X561909Y344783D01*
X561811Y352165D02*
X561909Y352067D01*
D62*
X579528Y364567D02*
X604724D01*
X604921Y364764D01*
X629921D01*
D63*
X597244Y270610D02*
D03*
X583858D02*
D03*
X597244Y217579D02*
D03*
X583858D02*
D03*
X572047Y481358D02*
D03*
X585433D02*
D03*
X572047Y534390D02*
D03*
X585433D02*
D03*
X201575Y534390D02*
D03*
X188189D02*
D03*
X201575Y481358D02*
D03*
X188189D02*
D03*
X231102Y534390D02*
D03*
X217717D02*
D03*
X231102Y481358D02*
D03*
X217717D02*
D03*
X260630Y534390D02*
D03*
X247244D02*
D03*
X260630Y481358D02*
D03*
X247244D02*
D03*
X290158Y534390D02*
D03*
X276772D02*
D03*
X290158Y481358D02*
D03*
X276772D02*
D03*
X319685Y534390D02*
D03*
X306299D02*
D03*
X319685Y481358D02*
D03*
X306299D02*
D03*
X378740Y534390D02*
D03*
X365354D02*
D03*
X378740Y481358D02*
D03*
X365354D02*
D03*
X349213Y534390D02*
D03*
X335827D02*
D03*
X349213Y481358D02*
D03*
X335827D02*
D03*
X408268Y534390D02*
D03*
X394882D02*
D03*
X408268Y481358D02*
D03*
X394882D02*
D03*
X467323Y534390D02*
D03*
X453937D02*
D03*
X467323Y481358D02*
D03*
X453937D02*
D03*
X496850Y534390D02*
D03*
X483465D02*
D03*
X496850Y481358D02*
D03*
X483465D02*
D03*
X526378Y534390D02*
D03*
X512992D02*
D03*
X526378Y481358D02*
D03*
X512992D02*
D03*
X437795Y534390D02*
D03*
X424409D02*
D03*
X437795Y481358D02*
D03*
X424409D02*
D03*
X555905Y534390D02*
D03*
X542520D02*
D03*
X555905Y481358D02*
D03*
X542520D02*
D03*
X500787Y217579D02*
D03*
X514173D02*
D03*
X500787Y270610D02*
D03*
X514173D02*
D03*
D64*
X460728Y448425D02*
D03*
X475492D02*
D03*
X539468D02*
D03*
X559154D02*
D03*
X476378Y420866D02*
D03*
X491142D02*
D03*
X555118D02*
D03*
X574803D02*
D03*
D65*
X229410Y326457D02*
D03*
D66*
X659449Y325394D02*
D03*
Y364764D02*
D03*
Y417717D02*
D03*
Y315551D02*
D03*
Y335236D02*
D03*
Y345079D02*
D03*
Y354921D02*
D03*
Y374606D02*
D03*
Y384449D02*
D03*
Y394291D02*
D03*
Y404134D02*
D03*
Y432480D02*
D03*
X649606Y325394D02*
D03*
Y364764D02*
D03*
Y417717D02*
D03*
Y315551D02*
D03*
Y335236D02*
D03*
Y345079D02*
D03*
Y354921D02*
D03*
Y374606D02*
D03*
Y384449D02*
D03*
Y394291D02*
D03*
Y404134D02*
D03*
Y432480D02*
D03*
X639764Y325394D02*
D03*
Y364764D02*
D03*
Y417717D02*
D03*
Y315551D02*
D03*
Y335236D02*
D03*
Y345079D02*
D03*
Y354921D02*
D03*
Y374606D02*
D03*
Y384449D02*
D03*
Y394291D02*
D03*
Y404134D02*
D03*
Y432480D02*
D03*
X629921Y325394D02*
D03*
Y364764D02*
D03*
Y417717D02*
D03*
Y315551D02*
D03*
Y335236D02*
D03*
Y345079D02*
D03*
Y354921D02*
D03*
Y374606D02*
D03*
Y384449D02*
D03*
Y394291D02*
D03*
Y404134D02*
D03*
Y432480D02*
D03*
D67*
X641142Y474016D02*
D03*
X642126Y275000D02*
D03*
D68*
X550197Y238347D02*
D03*
Y228346D02*
D03*
Y218347D02*
D03*
X207677Y401417D02*
D03*
Y411417D02*
D03*
Y421417D02*
D03*
D69*
X338583Y425197D02*
D03*
X283465Y354331D02*
D03*
X242126Y330315D02*
D03*
X426772Y335827D02*
D03*
Y367323D02*
D03*
X395276Y335827D02*
D03*
X285039Y383071D02*
D03*
X300787D02*
D03*
Y367323D02*
D03*
X316535D02*
D03*
X206299Y351575D02*
D03*
X222047Y414567D02*
D03*
X267717Y283465D02*
D03*
X363779Y414567D02*
D03*
X442520D02*
D03*
X458268Y398819D02*
D03*
X442520Y367323D02*
D03*
X489764Y257087D02*
D03*
X537008Y225590D02*
D03*
X285039Y241339D02*
D03*
Y209842D02*
D03*
X535433Y283465D02*
D03*
X411024Y209842D02*
D03*
Y241339D02*
D03*
X379528Y209842D02*
D03*
Y241339D02*
D03*
X348031Y209842D02*
D03*
Y241339D02*
D03*
X316535D02*
D03*
Y209842D02*
D03*
X440945Y314961D02*
D03*
X393701D02*
D03*
X627559Y474803D02*
D03*
X659055D02*
D03*
Y443307D02*
D03*
Y459055D02*
D03*
X643307D02*
D03*
Y443307D02*
D03*
X627559D02*
D03*
X611811D02*
D03*
Y459055D02*
D03*
Y474803D02*
D03*
X659055Y490551D02*
D03*
X643307D02*
D03*
X627559D02*
D03*
X611811D02*
D03*
X659055Y537795D02*
D03*
X643307D02*
D03*
X627559D02*
D03*
X611811D02*
D03*
X659055Y506299D02*
D03*
X643307D02*
D03*
X627559D02*
D03*
X659055Y522047D02*
D03*
X643307D02*
D03*
X627559D02*
D03*
X611811Y506299D02*
D03*
Y522047D02*
D03*
X596063Y506299D02*
D03*
Y522047D02*
D03*
X580315Y506299D02*
D03*
Y522047D02*
D03*
X564567Y506299D02*
D03*
Y522047D02*
D03*
X548819Y506299D02*
D03*
Y522047D02*
D03*
X533071Y506299D02*
D03*
Y522047D02*
D03*
X517323Y506299D02*
D03*
Y522047D02*
D03*
X501575Y506299D02*
D03*
Y522047D02*
D03*
X485827Y506299D02*
D03*
Y522047D02*
D03*
X470079Y506299D02*
D03*
Y522047D02*
D03*
X454331Y506299D02*
D03*
Y522047D02*
D03*
X438583Y506299D02*
D03*
Y522047D02*
D03*
X422835Y506299D02*
D03*
Y522047D02*
D03*
X407087Y506299D02*
D03*
Y522047D02*
D03*
X391339Y506299D02*
D03*
Y522047D02*
D03*
X375591Y506299D02*
D03*
Y522047D02*
D03*
X359842Y506299D02*
D03*
Y522047D02*
D03*
X344094Y506299D02*
D03*
Y522047D02*
D03*
X328346Y506299D02*
D03*
Y522047D02*
D03*
X312598Y506299D02*
D03*
Y522047D02*
D03*
X296850Y506299D02*
D03*
Y522047D02*
D03*
X281102Y506299D02*
D03*
Y522047D02*
D03*
X265354Y506299D02*
D03*
Y522047D02*
D03*
X249606Y506299D02*
D03*
Y522047D02*
D03*
X233858Y506299D02*
D03*
Y522047D02*
D03*
X218110Y506299D02*
D03*
Y522047D02*
D03*
X202362Y506299D02*
D03*
Y522047D02*
D03*
X186614Y506299D02*
D03*
Y522047D02*
D03*
X332283Y320079D02*
D03*
X545276Y339370D02*
D03*
X223228Y304724D02*
D03*
X379134Y396850D02*
D03*
X253543Y384252D02*
D03*
X351969Y355512D02*
D03*
X283465Y407480D02*
D03*
X472441Y330709D02*
D03*
D70*
X250787Y323228D02*
D03*
X572835Y320866D02*
D03*
Y312992D02*
D03*
Y316929D02*
D03*
X600394Y340551D02*
D03*
Y344488D02*
D03*
Y348425D02*
D03*
X320866Y344488D02*
D03*
X295276D02*
D03*
X324803D02*
D03*
X334252Y335827D02*
D03*
X426378Y400394D02*
D03*
Y411024D02*
D03*
X294488Y305118D02*
D03*
X286614D02*
D03*
X278740D02*
D03*
X325984D02*
D03*
X318110D02*
D03*
X310236D02*
D03*
X302362D02*
D03*
X307874Y344488D02*
D03*
X537402Y353543D02*
D03*
X327165Y383465D02*
D03*
X557087Y348425D02*
D03*
X537402D02*
D03*
X431102Y418110D02*
D03*
Y393307D02*
D03*
X385827Y398425D02*
D03*
Y413386D02*
D03*
X338583Y388189D02*
D03*
X341732D02*
D03*
X312598Y346457D02*
D03*
Y349606D02*
D03*
X228346Y285827D02*
D03*
Y292126D02*
D03*
X480315Y297244D02*
D03*
X278346Y355118D02*
D03*
X278346Y358268D02*
D03*
X248031Y407480D02*
D03*
X267323Y370079D02*
D03*
X260236Y371260D02*
D03*
X262992Y372835D02*
D03*
X259449Y374410D02*
D03*
X286614Y327559D02*
D03*
X302362D02*
D03*
X310236D02*
D03*
X325984D02*
D03*
X318110D02*
D03*
X294488D02*
D03*
X278740D02*
D03*
X215748Y441732D02*
D03*
X223622D02*
D03*
X231496D02*
D03*
X239370D02*
D03*
X247244D02*
D03*
X255118D02*
D03*
X262992D02*
D03*
X270866D02*
D03*
X278740D02*
D03*
X286614D02*
D03*
X294488D02*
D03*
X302362D02*
D03*
X310236D02*
D03*
X318110D02*
D03*
X295276Y422835D02*
D03*
X297244Y420472D02*
D03*
Y410236D02*
D03*
X295276Y412598D02*
D03*
X297244Y415354D02*
D03*
X295276Y417717D02*
D03*
X332283Y427953D02*
D03*
X330315Y425591D02*
D03*
X332283Y422835D02*
D03*
Y417717D02*
D03*
X330315Y420472D02*
D03*
Y415354D02*
D03*
X332283Y412598D02*
D03*
X330315Y410236D02*
D03*
D71*
X604724Y364567D02*
D03*
D72*
X579528Y373622D02*
D03*
Y364567D02*
D03*
Y355512D02*
D03*
D73*
X561811Y344685D02*
D03*
Y348425D02*
D03*
Y352165D02*
D03*
X552362D02*
D03*
Y348425D02*
D03*
Y344685D02*
D03*
M02*
