G04*
G04 #@! TF.GenerationSoftware,Altium Limited,Altium Designer,22.8.2 (66)*
G04*
G04 Layer_Color=65535*
%FSLAX25Y25*%
%MOIN*%
G70*
G04*
G04 #@! TF.SameCoordinates,268FDEF5-58AA-4C19-BA7F-D61DA105112B*
G04*
G04*
G04 #@! TF.FilePolarity,Positive*
G04*
G01*
G75*
%ADD10C,0.00984*%
%ADD11C,0.00394*%
%ADD12C,0.02362*%
%ADD13C,0.01000*%
%ADD14C,0.00000*%
%ADD15C,0.00591*%
%ADD16C,0.00787*%
%ADD17C,0.00600*%
%ADD18C,0.00500*%
G36*
X633528Y246049D02*
X633542Y245993D01*
X633626Y245936D01*
X633753Y245810D01*
X633781Y245740D01*
X633795Y245711D01*
X633908Y245599D01*
X633936Y245529D01*
X633978Y245458D01*
X634006Y245430D01*
X634020Y245402D01*
X634090Y245276D01*
X634189Y245177D01*
X634224Y245086D01*
X634259Y245037D01*
X634287Y245008D01*
X634315Y244938D01*
X634329Y244910D01*
X634357Y244882D01*
X634365Y244861D01*
X634393Y244847D01*
X634428Y244812D01*
X634442Y244783D01*
X634470Y244755D01*
X634484Y244699D01*
X634547Y244622D01*
X634611Y244559D01*
X634625Y244530D01*
X634709Y244460D01*
X634737Y244432D01*
X634751Y244404D01*
X634786Y244369D01*
X634814Y244355D01*
X634934Y244094D01*
X634948Y244038D01*
X635004Y243912D01*
X635018Y243813D01*
X635117Y243715D01*
X635131Y243659D01*
X635145Y243546D01*
X635271Y243420D01*
X635285Y243363D01*
X635335Y243286D01*
X635363Y243272D01*
X635398Y243237D01*
X635412Y243209D01*
X635510Y243110D01*
X635546Y243019D01*
X635651Y242913D01*
X635665Y242885D01*
X635735Y242759D01*
X635764Y242731D01*
X635848Y242576D01*
X635946Y242477D01*
X635960Y242421D01*
X636031Y242323D01*
X636143Y242084D01*
X636178Y241992D01*
X636284Y241803D01*
X636312Y241775D01*
X636340Y241704D01*
X636382Y241634D01*
X636481Y241535D01*
X636495Y241395D01*
X636593Y241296D01*
X636607Y241268D01*
X636678Y241142D01*
X636706Y241114D01*
X636720Y241086D01*
X636790Y240959D01*
X636888Y240861D01*
X636924Y240769D01*
X636959Y240720D01*
X636987Y240692D01*
X637015Y240621D01*
X637085Y240467D01*
X637120Y240375D01*
X637170Y240284D01*
X637226Y240186D01*
X637381Y240031D01*
X637395Y240003D01*
X637493Y239792D01*
X637514Y239715D01*
X637577Y239609D01*
X637591Y239567D01*
X637655Y239490D01*
X637718Y239426D01*
X637725Y239405D01*
X637753Y239391D01*
X637788Y239356D01*
X637830Y239258D01*
X637845Y239229D01*
X637901Y239103D01*
X637936Y239012D01*
X637957Y238990D01*
X637985Y238920D01*
X638027Y238850D01*
X638055Y238822D01*
X638140Y238667D01*
X638224Y238583D01*
X638238Y238526D01*
X638252Y238414D01*
X638365Y238301D01*
X638379Y238245D01*
X638393Y238147D01*
X638491Y238048D01*
X638505Y237992D01*
X638519Y237880D01*
X638632Y237767D01*
X638639Y237746D01*
X638646Y237739D01*
X638716Y237613D01*
X638744Y237584D01*
X638772Y237514D01*
X638787Y237486D01*
X638850Y237409D01*
X638913Y237345D01*
X638927Y237205D01*
X638969Y237106D01*
X639005Y237015D01*
X639054Y236924D01*
X639124Y236797D01*
X639152Y236769D01*
X639187Y236677D01*
X639293Y236572D01*
X639307Y236544D01*
X639377Y236417D01*
X639405Y236389D01*
X639419Y236361D01*
X639490Y236234D01*
X639588Y236136D01*
X639623Y236045D01*
X639658Y235996D01*
X639686Y235967D01*
X639715Y235897D01*
X639785Y235742D01*
X639820Y235651D01*
X639869Y235560D01*
X639925Y235461D01*
X639947Y235440D01*
X639975Y235426D01*
X640010Y235377D01*
X640094Y235293D01*
X640122Y235222D01*
X640193Y235068D01*
X640207Y234871D01*
X640277Y234758D01*
X640291Y234702D01*
X640319Y234674D01*
X640333Y234646D01*
X640361Y234617D01*
X640389Y234547D01*
X640404Y234519D01*
X640460Y234393D01*
X640495Y234301D01*
X640544Y234210D01*
X640600Y234111D01*
X640628Y234083D01*
X640657Y234013D01*
X640671Y233985D01*
X640734Y233908D01*
X640811Y233830D01*
X640825Y233774D01*
X640889Y233697D01*
X640917Y233626D01*
X640980Y233507D01*
X641008Y233394D01*
X641022Y233240D01*
X641079Y233155D01*
X641092Y233099D01*
X641156Y233022D01*
X641226Y232881D01*
X641332Y232776D01*
X641346Y232719D01*
X641360Y232607D01*
X641472Y232494D01*
X641486Y232354D01*
X641542Y232227D01*
X641578Y232136D01*
X641627Y232044D01*
X641683Y231946D01*
X641711Y231918D01*
X641739Y231848D01*
X641753Y231820D01*
X641782Y231791D01*
X641796Y231763D01*
X641817Y231742D01*
X641838Y231735D01*
X641852Y231707D01*
X641880Y231679D01*
X641950Y231552D01*
X642006Y231468D01*
X642021Y231412D01*
X642077Y231327D01*
X642105Y231074D01*
X642147Y231004D01*
X642161Y230863D01*
X642288Y230737D01*
X642323Y230645D01*
X642358Y230596D01*
X642386Y230568D01*
X642414Y230498D01*
X642428Y230470D01*
X642485Y230343D01*
X642499Y230146D01*
X642555Y230062D01*
X642590Y229971D01*
X642625Y229935D01*
X642639Y229907D01*
X642667Y229879D01*
X642702Y229788D01*
X642738Y229724D01*
X642766Y229626D01*
X642822Y229499D01*
X642836Y229387D01*
X642935Y229289D01*
X642948Y229260D01*
X642963Y229218D01*
X642977Y229106D01*
X643089Y228993D01*
X643103Y228895D01*
X643117Y228824D01*
X643159Y228726D01*
X643195Y228635D01*
X643230Y228557D01*
X643244Y228431D01*
X643356Y228318D01*
X643370Y228262D01*
X643384Y228164D01*
X643469Y228079D01*
X643483Y228051D01*
X643497Y228009D01*
X643511Y227896D01*
X643609Y227798D01*
X643638Y227700D01*
X643652Y227629D01*
X643715Y227552D01*
X643750Y227517D01*
X643792Y227348D01*
X643862Y227278D01*
X643877Y227250D01*
X643905Y227179D01*
X643926Y227102D01*
X643961Y227011D01*
X643989Y226898D01*
X644031Y226800D01*
X644045Y226701D01*
X644101Y226561D01*
X644123Y226455D01*
X644158Y226392D01*
X644172Y226336D01*
X644193Y226258D01*
X644214Y226237D01*
X644242Y226167D01*
X644256Y226111D01*
X644312Y225984D01*
X644326Y225872D01*
X644383Y225745D01*
X644397Y225689D01*
X644439Y225619D01*
X644453Y225506D01*
X644495Y225436D01*
X644509Y225380D01*
X644544Y225288D01*
X644565Y225267D01*
X644580Y225169D01*
X644636Y225042D01*
X644650Y224986D01*
X644664Y224887D01*
X644706Y224789D01*
X644720Y224733D01*
X644755Y224641D01*
X644791Y224564D01*
X644833Y224494D01*
X644847Y224452D01*
X644875Y224339D01*
X644917Y224241D01*
X644931Y224142D01*
X644959Y224114D01*
X644987Y224044D01*
X645001Y224016D01*
X645044Y223974D01*
X645058Y223917D01*
X645114Y223833D01*
X645135Y223742D01*
X645170Y223678D01*
X645184Y223622D01*
X645219Y223531D01*
X645240Y223510D01*
X645261Y223418D01*
X645311Y223327D01*
X645325Y223271D01*
X645339Y223242D01*
X645381Y223172D01*
X645402Y223095D01*
X645437Y223046D01*
X645451Y223003D01*
X645465Y222947D01*
X645479Y222919D01*
X645522Y222877D01*
X645536Y222764D01*
X645578Y222722D01*
X645592Y222666D01*
X645606Y222582D01*
X645648Y222539D01*
X645662Y222441D01*
X645704Y222371D01*
X645733Y222300D01*
X645747Y222216D01*
X645775Y222188D01*
X645789Y222132D01*
X645817Y222061D01*
X645845Y222033D01*
X645873Y221921D01*
X645915Y221879D01*
X645943Y221766D01*
X645986Y221724D01*
X646000Y221668D01*
X646070Y221513D01*
X646084Y221485D01*
X646126Y221414D01*
X646147Y221337D01*
X646197Y221246D01*
X646211Y221161D01*
X646253Y221119D01*
X646281Y220993D01*
X646323Y220922D01*
X646337Y220866D01*
X646351Y220754D01*
X646379Y220683D01*
X646393Y220627D01*
X646443Y220494D01*
X646464Y220430D01*
X646478Y220374D01*
X646513Y220283D01*
X646541Y220170D01*
X646583Y220058D01*
X646611Y219945D01*
X646646Y219868D01*
X646675Y219769D01*
X646710Y219678D01*
X646731Y219601D01*
X646752Y219509D01*
X646780Y219439D01*
X646801Y219362D01*
X646815Y219305D01*
X646836Y219228D01*
X646872Y219109D01*
X646893Y219017D01*
X646921Y218947D01*
X646935Y218891D01*
X646949Y218820D01*
X646998Y218659D01*
X647019Y218567D01*
X647054Y218448D01*
X647082Y218335D01*
X647096Y218251D01*
X647125Y218180D01*
X647139Y218082D01*
X647195Y217857D01*
X647230Y217695D01*
X647251Y217618D01*
X647265Y217562D01*
X647279Y217463D01*
X647307Y217351D01*
X647321Y217252D01*
X647357Y217021D01*
X647392Y216943D01*
X647406Y216887D01*
X647427Y216767D01*
X647441Y216711D01*
X647462Y216634D01*
X647483Y216500D01*
X647511Y216388D01*
X647532Y216311D01*
X647546Y216254D01*
X647568Y216135D01*
X647582Y216078D01*
X647596Y215994D01*
X647610Y215882D01*
X647624Y215811D01*
X647638Y215755D01*
X647659Y215678D01*
X647673Y215537D01*
X647694Y215404D01*
X647708Y215319D01*
X647722Y215249D01*
X647750Y215066D01*
X647764Y214982D01*
X647778Y214911D01*
X647792Y214855D01*
X647807Y214743D01*
X647835Y214588D01*
X647849Y214504D01*
X647863Y214391D01*
X647891Y214012D01*
X647905Y213885D01*
X647919Y213744D01*
X647933Y213618D01*
X647996Y213119D01*
X648010Y212317D01*
X647996Y212275D01*
X647982Y211684D01*
X647968Y211642D01*
X647954Y211122D01*
X647961Y210764D01*
X647947Y210609D01*
X647933Y210468D01*
X647919Y210398D01*
X647905Y210314D01*
X647891Y209962D01*
X647877Y209512D01*
X647814Y209364D01*
X647799Y209252D01*
X647757Y209154D01*
X647743Y208957D01*
X647715Y208929D01*
X647687Y208858D01*
X647673Y208732D01*
X647617Y208605D01*
X647603Y208408D01*
X647561Y208338D01*
X647546Y208282D01*
X647532Y208183D01*
X647490Y208085D01*
X647476Y208029D01*
X647462Y207860D01*
X647420Y207790D01*
X647406Y207649D01*
X647378Y207621D01*
X647350Y207523D01*
X647335Y207340D01*
X647279Y207213D01*
X647265Y207115D01*
X647216Y207051D01*
X647188Y207037D01*
X647139Y206946D01*
X647125Y206834D01*
X647026Y206735D01*
X647012Y206707D01*
X646942Y206580D01*
X646914Y206552D01*
X646885Y206482D01*
X646872Y206454D01*
X646808Y206377D01*
X646745Y206313D01*
X646710Y206222D01*
X646604Y206116D01*
X646590Y206088D01*
X646541Y206039D01*
X646513Y206025D01*
X646478Y205990D01*
X646464Y205962D01*
X646415Y205912D01*
X646386Y205898D01*
X646288Y205800D01*
X646197Y205765D01*
X646077Y205645D01*
X645986Y205610D01*
X645936Y205575D01*
X645908Y205547D01*
X645754Y205463D01*
X645655Y205364D01*
X645564Y205329D01*
X645501Y205266D01*
X645402Y205209D01*
X645374Y205181D01*
X645346Y205167D01*
X645304Y205125D01*
X645276Y205111D01*
X645248Y205083D01*
X645219Y205069D01*
X644980Y204900D01*
X644910Y204858D01*
X644840Y204830D01*
X644783Y204816D01*
X644741Y204774D01*
X644664Y204752D01*
X644558Y204689D01*
X644432Y204633D01*
X644390Y204619D01*
X644277Y204549D01*
X644179Y204492D01*
X644151Y204464D01*
X644080Y204436D01*
X644052Y204422D01*
X643975Y204359D01*
X643912Y204296D01*
X643855Y204281D01*
X643743Y204267D01*
X643645Y204225D01*
X643553Y204190D01*
X643462Y204141D01*
X643363Y204085D01*
X643335Y204057D01*
X643265Y204028D01*
X643110Y203958D01*
X643019Y203923D01*
X642956Y203888D01*
X642815Y203874D01*
X642702Y203761D01*
X642646Y203747D01*
X642534Y203733D01*
X642407Y203677D01*
X642337Y203649D01*
X642239Y203607D01*
X642126Y203592D01*
X642014Y203480D01*
X641873Y203466D01*
X641775Y203368D01*
X641746Y203354D01*
X641704Y203339D01*
X641592Y203325D01*
X641479Y203213D01*
X641325Y203199D01*
X641296Y203171D01*
X641198Y203143D01*
X641015Y203129D01*
X640931Y203072D01*
X640776Y203058D01*
X640748Y203030D01*
X640692Y203016D01*
X640579Y202974D01*
X640481Y202932D01*
X640368Y202918D01*
X640270Y202875D01*
X640179Y202840D01*
X640101Y202805D01*
X639989Y202791D01*
X639911Y202728D01*
X639862Y202679D01*
X639806Y202664D01*
X639693Y202650D01*
X639665Y202622D01*
X639567Y202608D01*
X639412Y202594D01*
X639286Y202538D01*
X639173Y202524D01*
X639047Y202468D01*
X638955Y202432D01*
X638892Y202397D01*
X638751Y202383D01*
X638723Y202355D01*
X638667Y202341D01*
X638555Y202299D01*
X638456Y202257D01*
X638344Y202243D01*
X638245Y202201D01*
X638048Y202186D01*
X637964Y202130D01*
X637823Y202116D01*
X637697Y202060D01*
X637641Y202046D01*
X637514Y201990D01*
X637402Y201975D01*
X637303Y201933D01*
X637106Y201919D01*
X637008Y201849D01*
X636952Y201835D01*
X636811Y201736D01*
X636755Y201722D01*
X636670Y201666D01*
X636530Y201652D01*
X636417Y201638D01*
X636319Y201596D01*
X636206Y201582D01*
X636136Y201540D01*
X636080Y201526D01*
X635616Y201512D01*
X635588Y201483D01*
X635517Y201455D01*
X635391Y201441D01*
X635264Y201385D01*
X635068Y201371D01*
X634997Y201329D01*
X634941Y201315D01*
X634842Y201301D01*
X634744Y201258D01*
X634646Y201244D01*
X634463Y201230D01*
X634393Y201202D01*
X634336Y201188D01*
X634245Y201153D01*
X634224Y201132D01*
X634027Y201090D01*
X633957Y201062D01*
X633900Y201047D01*
X633802Y201033D01*
X633704Y200991D01*
X633647Y200977D01*
X633577Y200949D01*
X633535Y200907D01*
X633465Y200879D01*
X633282Y200865D01*
X633057Y200851D01*
X632417Y200830D01*
X632291Y200816D01*
X632234Y200801D01*
X632227Y200780D01*
X623742Y200787D01*
X623728Y200816D01*
X623706Y200837D01*
X623650Y200851D01*
X623327Y200865D01*
X623228Y200907D01*
X623116Y200921D01*
X623046Y200963D01*
X622989Y200977D01*
X622258Y200991D01*
X622174Y201047D01*
X622033Y201062D01*
X621907Y201118D01*
X621583Y201132D01*
X621457Y201188D01*
X621344Y201202D01*
X621246Y201244D01*
X621189Y201258D01*
X620627Y201273D01*
X620529Y201315D01*
X620416Y201329D01*
X620290Y201385D01*
X619699Y201399D01*
X619573Y201455D01*
X619460Y201469D01*
X619334Y201526D01*
X619137Y201540D01*
X619109Y201568D01*
X619010Y201596D01*
X618912Y201610D01*
X618813Y201652D01*
X618616Y201666D01*
X618518Y201722D01*
X618377Y201736D01*
X618349Y201765D01*
X618251Y201793D01*
X617928Y201807D01*
X617857Y201849D01*
X617801Y201863D01*
X617702Y201877D01*
X617604Y201919D01*
X617513Y201954D01*
X617435Y201990D01*
X617309Y202004D01*
X617239Y202046D01*
X617182Y202060D01*
X616999Y202074D01*
X616873Y202130D01*
X616760Y202144D01*
X616634Y202201D01*
X616437Y202215D01*
X616409Y202243D01*
X616353Y202257D01*
X616226Y202271D01*
X616198Y202299D01*
X616128Y202327D01*
X615917Y202341D01*
X615804Y202411D01*
X615748Y202426D01*
X615720Y202454D01*
X615692Y202468D01*
X615664Y202496D01*
X615593Y202524D01*
X615565Y202538D01*
X615411Y202608D01*
X615354Y202622D01*
X615284Y202664D01*
X615143Y202679D01*
X615115Y202707D01*
X614939Y202770D01*
X614862Y202805D01*
X614736Y202819D01*
X614623Y202932D01*
X614483Y202946D01*
X614356Y203002D01*
X614265Y203037D01*
X614173Y203086D01*
X614075Y203143D01*
X614047Y203171D01*
X613976Y203199D01*
X613794Y203283D01*
X613737Y203297D01*
X613639Y203339D01*
X613526Y203354D01*
X613414Y203466D01*
X613358Y203480D01*
X613259Y203494D01*
X613175Y203578D01*
X613147Y203592D01*
X613119Y203621D01*
X613062Y203635D01*
X612985Y203698D01*
X612922Y203761D01*
X612894Y203775D01*
X612873Y203796D01*
X612859Y203824D01*
X612767Y203874D01*
X612697Y203916D01*
X612612Y204000D01*
X612556Y204014D01*
X612458Y204028D01*
X612381Y204092D01*
X612317Y204155D01*
X612261Y204169D01*
X612120Y204267D01*
X612050Y204296D01*
X611938Y204408D01*
X611783Y204492D01*
X611628Y204647D01*
X611600Y204661D01*
X611474Y204731D01*
X611375Y204830D01*
X611319Y204844D01*
X611242Y204907D01*
X611192Y204956D01*
X611164Y204971D01*
X611101Y205034D01*
X611087Y205062D01*
X611066Y205083D01*
X611038Y205097D01*
X610960Y205174D01*
X610946Y205203D01*
X610911Y205238D01*
X610890Y205245D01*
X610876Y205273D01*
X610806Y205399D01*
X610707Y205498D01*
X610672Y205589D01*
X610637Y205638D01*
X610616Y205660D01*
X610595Y205666D01*
X610581Y205695D01*
X610468Y205807D01*
X610440Y205877D01*
X610426Y205906D01*
X610363Y205983D01*
X610299Y206046D01*
X610285Y206187D01*
X610187Y206285D01*
X610159Y206356D01*
X610145Y206468D01*
X610032Y206580D01*
X610018Y206721D01*
X609990Y206749D01*
X609976Y206777D01*
X609892Y206862D01*
X609878Y207002D01*
X609835Y207101D01*
X609800Y207192D01*
X609751Y207283D01*
X609702Y207389D01*
X609681Y207396D01*
X609667Y207424D01*
X609554Y207663D01*
X609540Y207719D01*
X609484Y207846D01*
X609470Y207958D01*
X609428Y208057D01*
X609393Y208148D01*
X609357Y208211D01*
X609343Y208352D01*
X609315Y208380D01*
X609287Y208479D01*
X609252Y208570D01*
X609132Y208830D01*
X609118Y208858D01*
X609034Y209041D01*
X609020Y209139D01*
X608999Y209273D01*
X608985Y209329D01*
X608971Y209414D01*
X608957Y209554D01*
X608929Y209709D01*
X608908Y209772D01*
X608893Y209828D01*
X608872Y210145D01*
X608858Y210215D01*
X608844Y211129D01*
X608830Y211284D01*
X608816Y211481D01*
X608802Y211790D01*
X608795Y211881D01*
X608809Y211924D01*
X608823Y212191D01*
X608837Y212289D01*
X608851Y212894D01*
X608865Y212936D01*
X608879Y213456D01*
X608893Y213498D01*
X608908Y213639D01*
X608950Y214272D01*
X608964Y214328D01*
X608978Y214637D01*
X608992Y214736D01*
X609006Y214932D01*
X609020Y214975D01*
X609041Y215136D01*
X609069Y215319D01*
X609083Y215389D01*
X609097Y215474D01*
X609111Y215586D01*
X609125Y215713D01*
X609139Y215825D01*
X609154Y215966D01*
X609168Y216092D01*
X609189Y216226D01*
X609217Y216296D01*
X609238Y216430D01*
X609287Y216592D01*
X609301Y216648D01*
X609329Y216718D01*
X609357Y216817D01*
X609378Y216908D01*
X609393Y216978D01*
X609421Y217091D01*
X609449Y217231D01*
X609484Y217351D01*
X609498Y217407D01*
X609526Y217477D01*
X609540Y217534D01*
X609575Y217695D01*
X609596Y217773D01*
X609625Y217871D01*
X609660Y218019D01*
X609695Y218138D01*
X609716Y218230D01*
X609751Y218349D01*
X609765Y218406D01*
X609821Y218588D01*
X609835Y218644D01*
X609871Y218806D01*
X609885Y218877D01*
X609899Y218933D01*
X609927Y219073D01*
X609941Y219130D01*
X609969Y219270D01*
X609983Y219326D01*
X609997Y219397D01*
X610025Y219509D01*
X610039Y219594D01*
X610082Y219706D01*
X610110Y219819D01*
X610131Y219868D01*
X610187Y220008D01*
X610229Y220107D01*
X610299Y220262D01*
X610321Y220339D01*
X610342Y220360D01*
X610370Y220430D01*
X610384Y220486D01*
X610426Y220585D01*
X610454Y220697D01*
X610489Y220789D01*
X610517Y220859D01*
X610567Y220908D01*
X610581Y220936D01*
X610637Y220993D01*
X610651Y221119D01*
X610707Y221246D01*
X610728Y221323D01*
X610764Y221400D01*
X610799Y221492D01*
X610834Y221569D01*
X610855Y221646D01*
X610876Y221668D01*
X610890Y221696D01*
X610918Y221766D01*
X610932Y221794D01*
X611031Y222005D01*
X611045Y222061D01*
X611129Y222300D01*
X611157Y222328D01*
X611171Y222385D01*
X611185Y222469D01*
X611228Y222568D01*
X611242Y222680D01*
X611298Y222807D01*
X611319Y222968D01*
X611347Y223039D01*
X611368Y223116D01*
X611382Y223172D01*
X611396Y223242D01*
X611438Y223341D01*
X611459Y223432D01*
X611523Y223580D01*
X611565Y223734D01*
X611579Y223791D01*
X611621Y223931D01*
X611642Y224009D01*
X611706Y224128D01*
X611720Y224184D01*
X611734Y224269D01*
X611790Y224395D01*
X611811Y224473D01*
X611846Y224564D01*
X611867Y224641D01*
X611959Y224817D01*
X611945Y225014D01*
X611987Y225113D01*
X612001Y225197D01*
X612029Y225225D01*
X612071Y225394D01*
X612113Y225436D01*
X612134Y225513D01*
X612170Y225562D01*
X612184Y225605D01*
X612198Y225661D01*
X612212Y225689D01*
X612254Y225787D01*
X612275Y225879D01*
X612310Y225914D01*
X612338Y225984D01*
X612479Y226279D01*
X612521Y226350D01*
X612577Y226406D01*
X612605Y226519D01*
X612627Y226596D01*
X612662Y226673D01*
X612683Y226849D01*
X612746Y226969D01*
X612767Y227060D01*
X612816Y227109D01*
X612845Y227179D01*
X612929Y227362D01*
X612999Y227545D01*
X613020Y227650D01*
X613048Y227721D01*
X613084Y227812D01*
X613140Y227953D01*
X613154Y228009D01*
X613168Y228079D01*
X613196Y228107D01*
X613217Y228199D01*
X613266Y228276D01*
X613294Y228346D01*
X613337Y228445D01*
X613407Y228600D01*
X613421Y228670D01*
X613463Y228712D01*
X613477Y228811D01*
X613491Y228923D01*
X613548Y228979D01*
X613569Y229141D01*
X613604Y229218D01*
X613618Y229275D01*
X613653Y229366D01*
X613674Y229387D01*
X613709Y229478D01*
X613730Y229528D01*
X613787Y229584D01*
X613822Y229675D01*
X613927Y229781D01*
X613941Y229837D01*
X613955Y229949D01*
X613983Y229977D01*
X614011Y230076D01*
X614026Y230259D01*
X614138Y230456D01*
X614194Y230540D01*
X614222Y230610D01*
X614321Y230709D01*
X614335Y230737D01*
X614349Y230779D01*
X614363Y230891D01*
X614475Y231004D01*
X614490Y231144D01*
X614546Y231271D01*
X614581Y231363D01*
X614630Y231454D01*
X614686Y231552D01*
X614715Y231580D01*
X614743Y231651D01*
X614827Y231834D01*
X614841Y231890D01*
X614883Y231988D01*
X614897Y232101D01*
X615010Y232213D01*
X615024Y232269D01*
X615038Y232368D01*
X615059Y232403D01*
X615087Y232417D01*
X615136Y232466D01*
X615150Y232523D01*
X615165Y232635D01*
X615291Y232762D01*
X615326Y232853D01*
X615361Y232902D01*
X615389Y232930D01*
X615418Y233001D01*
X615432Y233029D01*
X615495Y233106D01*
X615558Y233169D01*
X615572Y233310D01*
X615628Y233436D01*
X615664Y233528D01*
X615699Y233605D01*
X615713Y233732D01*
X615755Y233802D01*
X615769Y233858D01*
X615797Y233929D01*
X615896Y234111D01*
X615924Y234139D01*
X615938Y234168D01*
X616008Y234294D01*
X616107Y234393D01*
X616121Y234449D01*
X616184Y234526D01*
X616254Y234667D01*
X616360Y234772D01*
X616374Y234828D01*
X616388Y234941D01*
X616444Y235068D01*
X616458Y235124D01*
X616514Y235208D01*
X616528Y235264D01*
X616592Y235342D01*
X616627Y235419D01*
X616669Y235489D01*
X616767Y235588D01*
X616782Y235644D01*
X616796Y235756D01*
X616908Y235869D01*
X616922Y236010D01*
X616978Y236136D01*
X617014Y236227D01*
X617119Y236417D01*
X617147Y236445D01*
X617175Y236516D01*
X617189Y236544D01*
X617288Y236642D01*
X617302Y236670D01*
X617372Y236797D01*
X617414Y236839D01*
X617442Y236910D01*
X617485Y236980D01*
X617583Y237078D01*
X617597Y237219D01*
X617660Y237296D01*
X617709Y237345D01*
X617724Y237402D01*
X617738Y237500D01*
X617836Y237598D01*
X617850Y237655D01*
X617864Y237767D01*
X617920Y237852D01*
X617935Y237936D01*
X618047Y238147D01*
X618089Y238189D01*
X618117Y238259D01*
X618159Y238330D01*
X618244Y238414D01*
X618258Y238470D01*
X618272Y238569D01*
X618335Y238646D01*
X618399Y238709D01*
X618434Y238801D01*
X618483Y238850D01*
X618525Y238948D01*
X618539Y238976D01*
X618652Y239089D01*
X618666Y239145D01*
X618680Y239258D01*
X618792Y239370D01*
X618877Y239525D01*
X618905Y239553D01*
X618933Y239623D01*
X619003Y239778D01*
X619038Y239869D01*
X619144Y240059D01*
X619172Y240087D01*
X619200Y240158D01*
X619214Y240186D01*
X619277Y240263D01*
X619341Y240326D01*
X619355Y240467D01*
X619467Y240579D01*
X619481Y240678D01*
X619495Y240748D01*
X619608Y240861D01*
X619622Y241001D01*
X619720Y241100D01*
X619734Y241128D01*
X619805Y241254D01*
X619833Y241282D01*
X619847Y241311D01*
X619917Y241437D01*
X620015Y241535D01*
X620051Y241627D01*
X620086Y241676D01*
X620114Y241704D01*
X620142Y241775D01*
X620156Y241803D01*
X620205Y241866D01*
X620233Y241880D01*
X620269Y241929D01*
X620283Y241971D01*
X620297Y242084D01*
X620409Y242196D01*
X620494Y242351D01*
X620522Y242379D01*
X620557Y242471D01*
X620592Y242520D01*
X620690Y242618D01*
X620725Y242709D01*
X620761Y242745D01*
X620775Y242773D01*
X620845Y242899D01*
X620929Y242984D01*
X620943Y243012D01*
X620958Y243054D01*
X620972Y243166D01*
X621084Y243279D01*
X621169Y243434D01*
X621197Y243462D01*
X621225Y243532D01*
X621239Y243560D01*
X621274Y243609D01*
X621302Y243623D01*
X621323Y243644D01*
X621337Y243673D01*
X621365Y243701D01*
X621379Y243841D01*
X621492Y244052D01*
X621520Y244080D01*
X621590Y244207D01*
X621661Y244305D01*
X621675Y244334D01*
X621745Y244404D01*
X621759Y244432D01*
X621872Y244544D01*
X621900Y244615D01*
X621914Y244643D01*
X622026Y244755D01*
X622054Y244826D01*
X622068Y244854D01*
X622132Y244931D01*
X622167Y245008D01*
X622209Y245079D01*
X622307Y245177D01*
X622342Y245269D01*
X622364Y245290D01*
X622378Y245318D01*
X622406Y245346D01*
X622420Y245374D01*
X622434Y245416D01*
X622448Y245444D01*
X622476Y245472D01*
X622490Y245501D01*
X622532Y245529D01*
X622546Y245557D01*
X622589Y245599D01*
X622603Y245655D01*
X622666Y245733D01*
X622701Y245810D01*
X622743Y245880D01*
X622778Y245915D01*
X622807Y245929D01*
X622856Y245965D01*
X622870Y246021D01*
X622884Y246049D01*
X626012Y246056D01*
X626026Y245311D01*
X626041Y245254D01*
X626090Y245163D01*
X626104Y245023D01*
X626132Y244994D01*
X626160Y244882D01*
X626174Y244305D01*
X626216Y244235D01*
X626230Y244179D01*
X626244Y244066D01*
X626272Y244038D01*
X626287Y243982D01*
X626301Y243518D01*
X626357Y243391D01*
X626371Y243279D01*
X626427Y243152D01*
X626441Y242562D01*
X626498Y242435D01*
X626511Y242323D01*
X626554Y242224D01*
X626568Y242168D01*
X626582Y241465D01*
X626610Y241437D01*
X626638Y241339D01*
X626652Y241240D01*
X626694Y241142D01*
X626708Y240411D01*
X626765Y240284D01*
X626779Y240172D01*
X626835Y240045D01*
X626849Y239047D01*
X626905Y238920D01*
X626919Y238808D01*
X626947Y238779D01*
X626962Y238681D01*
X626975Y238245D01*
X627032Y238161D01*
X627046Y238020D01*
X627102Y237894D01*
X627116Y236895D01*
X627172Y236769D01*
X627186Y236656D01*
X627229Y236558D01*
X627243Y236502D01*
X627250Y236256D01*
X627306Y236242D01*
X627362Y236256D01*
X627454Y236291D01*
X627517Y236326D01*
X627615Y236354D01*
X627791Y236375D01*
X627896Y236396D01*
X627939Y236382D01*
X628164Y236396D01*
X628515Y236410D01*
X628571Y236396D01*
X629035Y236382D01*
X629078Y236368D01*
X629197Y236347D01*
X629288Y236312D01*
X629359Y236284D01*
X629387Y236298D01*
X629401Y236959D01*
X629415Y237015D01*
X629436Y237036D01*
X629464Y237106D01*
X629478Y237233D01*
X629535Y237359D01*
X629549Y238639D01*
X629577Y238667D01*
X629605Y238766D01*
X629619Y238864D01*
X629661Y238962D01*
X629675Y240101D01*
X629731Y240200D01*
X629745Y240340D01*
X629774Y240368D01*
X629802Y240467D01*
X629816Y241184D01*
X629872Y241311D01*
X629886Y241423D01*
X629928Y241521D01*
X629942Y241578D01*
X629956Y242014D01*
X629985Y242042D01*
X629999Y242098D01*
X630013Y242224D01*
X630041Y242252D01*
X630069Y242351D01*
X630083Y242941D01*
X630139Y243026D01*
X630153Y243180D01*
X630181Y243209D01*
X630209Y243321D01*
X630224Y243757D01*
X630280Y243884D01*
X630294Y243996D01*
X630322Y244024D01*
X630336Y244123D01*
X630350Y244826D01*
X630406Y244910D01*
X630420Y245065D01*
X630448Y245093D01*
X630477Y245191D01*
X630463Y245782D01*
X630435Y245810D01*
X630428Y245859D01*
X630448Y245908D01*
X630519Y245922D01*
X630547Y245951D01*
X630554Y246056D01*
X633528Y246049D01*
D02*
G37*
%LPC*%
G36*
X623988Y243905D02*
X623945Y243891D01*
X623903Y243905D01*
X623868Y243884D01*
X623854Y243785D01*
X623819Y243750D01*
X623798Y243743D01*
X623784Y243644D01*
X623763Y243623D01*
X623735Y243609D01*
X623713Y243504D01*
X623664Y243469D01*
X623636Y243427D01*
X623608Y243412D01*
X623587Y243391D01*
X623573Y243363D01*
X623531Y243335D01*
X623517Y243237D01*
X623460Y243195D01*
X623446Y243096D01*
X623362Y243026D01*
X623320Y242984D01*
X623313Y242892D01*
X623264Y242871D01*
X623249Y242829D01*
X623264Y242787D01*
X623228Y242752D01*
X623200Y242738D01*
X623165Y242688D01*
X623123Y242660D01*
X623109Y242562D01*
X623088Y242541D01*
X623060Y242527D01*
X623038Y242421D01*
X622989Y242386D01*
X622961Y242344D01*
X622933Y242330D01*
X622912Y242309D01*
X622919Y242246D01*
X622905Y242217D01*
X622877Y242203D01*
X622785Y242112D01*
X622771Y242028D01*
X622750Y242006D01*
X622722Y241992D01*
X622701Y241887D01*
X622680Y241866D01*
X622659Y241859D01*
X622645Y241831D01*
X622610Y241796D01*
X622589Y241789D01*
X622575Y241746D01*
X622589Y241718D01*
X622553Y241669D01*
X622525Y241655D01*
X622504Y241549D01*
X622434Y241493D01*
X622427Y241472D01*
X622399Y241458D01*
X622378Y241437D01*
X622371Y241346D01*
X622342Y241332D01*
X622237Y241226D01*
X622244Y241163D01*
X622202Y241121D01*
X622181Y241114D01*
X622167Y241015D01*
X622146Y240994D01*
X622118Y240980D01*
X622096Y240875D01*
X622075Y240854D01*
X622047Y240839D01*
X622026Y240734D01*
X621977Y240699D01*
X621949Y240657D01*
X621921Y240643D01*
X621900Y240621D01*
X621907Y240558D01*
X621893Y240530D01*
X621843Y240509D01*
X621829Y240411D01*
X621724Y240305D01*
X621703Y240298D01*
X621689Y240129D01*
X621632Y240087D01*
X621618Y240059D01*
X621562Y240017D01*
X621569Y239954D01*
X621555Y239926D01*
X621527Y239911D01*
X621492Y239876D01*
X621485Y239855D01*
X621457Y239841D01*
X621436Y239820D01*
X621421Y239665D01*
X621330Y239574D01*
X621309Y239567D01*
X621295Y239511D01*
X621302Y239419D01*
X621274Y239377D01*
X621246Y239363D01*
X621225Y239342D01*
X621211Y239314D01*
X621169Y239286D01*
X621154Y239229D01*
X621169Y239187D01*
X621154Y239117D01*
X621105Y239082D01*
X620887Y238864D01*
X620901Y238737D01*
X620866Y238702D01*
X620838Y238688D01*
X620796Y238632D01*
X620768Y238618D01*
X620754Y238449D01*
X620690Y238400D01*
X620676Y238372D01*
X620627Y238337D01*
X620620Y238259D01*
X620634Y238217D01*
X620571Y238140D01*
X620515Y238084D01*
X620494Y238076D01*
X620479Y237978D01*
X620458Y237957D01*
X620430Y237943D01*
X620395Y237894D01*
X620353Y237866D01*
X620339Y237697D01*
X620283Y237655D01*
X620276Y237634D01*
X620248Y237619D01*
X620212Y237584D01*
X620219Y237521D01*
X620205Y237493D01*
X620177Y237479D01*
X620086Y237387D01*
X620072Y237233D01*
X620051Y237212D01*
X620022Y237198D01*
X620001Y237092D01*
X619952Y237057D01*
X619931Y236952D01*
X619882Y236916D01*
X619868Y236888D01*
X619840Y236874D01*
X619819Y236853D01*
X619805Y236797D01*
X619819Y236755D01*
X619805Y236699D01*
X619783Y236677D01*
X619755Y236663D01*
X619734Y236558D01*
X619713Y236537D01*
X619685Y236523D01*
X619664Y236417D01*
X619615Y236382D01*
X619587Y236340D01*
X619558Y236326D01*
X619537Y236263D01*
X619552Y236206D01*
X619537Y236150D01*
X619488Y236115D01*
X619411Y236038D01*
X619397Y235883D01*
X619376Y235862D01*
X619348Y235848D01*
X619326Y235742D01*
X619277Y235707D01*
X619249Y235665D01*
X619221Y235651D01*
X619200Y235630D01*
X619214Y235503D01*
X619193Y235468D01*
X619144Y235447D01*
X619130Y235349D01*
X619109Y235328D01*
X619080Y235314D01*
X619059Y235208D01*
X619038Y235187D01*
X619010Y235173D01*
X618989Y235068D01*
X618933Y235025D01*
X618919Y234927D01*
X618862Y234885D01*
X618877Y234828D01*
X618855Y234793D01*
X618806Y234772D01*
X618792Y234674D01*
X618771Y234653D01*
X618743Y234639D01*
X618722Y234533D01*
X618701Y234512D01*
X618673Y234498D01*
X618652Y234393D01*
X618602Y234357D01*
X618595Y234266D01*
X618609Y234238D01*
X618588Y234189D01*
X618539Y234168D01*
X618525Y234125D01*
X618539Y234083D01*
X618490Y234034D01*
X618469Y234027D01*
X618455Y233929D01*
X618434Y233908D01*
X618405Y233893D01*
X618384Y233788D01*
X618335Y233753D01*
X618314Y233647D01*
X618265Y233612D01*
X618251Y233514D01*
X618202Y233493D01*
X618188Y233436D01*
X618202Y233338D01*
X618166Y233303D01*
X618138Y233289D01*
X618117Y233183D01*
X618096Y233162D01*
X618068Y233148D01*
X618047Y233043D01*
X617998Y233008D01*
X617984Y232909D01*
X617935Y232888D01*
X617920Y232832D01*
X617928Y232740D01*
X617899Y232698D01*
X617871Y232684D01*
X617829Y232628D01*
X617801Y232614D01*
X617780Y232551D01*
X617794Y232508D01*
X617780Y232438D01*
X617731Y232403D01*
X617717Y232305D01*
X617688Y232291D01*
X617653Y232255D01*
X617639Y232101D01*
X617618Y232080D01*
X617590Y232066D01*
X617562Y232023D01*
X617534Y232009D01*
X617513Y231946D01*
X617527Y231890D01*
X617513Y231834D01*
X617456Y231791D01*
X617442Y231707D01*
X617407Y231672D01*
X617386Y231665D01*
X617372Y231496D01*
X617351Y231475D01*
X617323Y231461D01*
X617309Y231363D01*
X617260Y231341D01*
X617252Y231306D01*
X617267Y231278D01*
X617295Y231264D01*
X617316Y231243D01*
X617323Y231222D01*
X617365Y231208D01*
X617386Y231229D01*
X617407Y231278D01*
X617506Y231292D01*
X617527Y231313D01*
X617541Y231341D01*
X617583Y231369D01*
X617597Y231398D01*
X617618Y231419D01*
X617717Y231433D01*
X617745Y231475D01*
X617780Y231482D01*
X617815Y231475D01*
X617850Y231496D01*
X617864Y231524D01*
X617899Y231559D01*
X617920Y231566D01*
X617935Y231594D01*
X617956Y231616D01*
X618040Y231630D01*
X618131Y231721D01*
X618138Y231742D01*
X618251Y231770D01*
X618272Y231791D01*
X618279Y231812D01*
X618314Y231820D01*
X618363Y231812D01*
X618399Y231848D01*
X618413Y231876D01*
X618518Y231897D01*
X618560Y231953D01*
X618659Y231967D01*
X618701Y232023D01*
X618792Y232030D01*
X618813Y232080D01*
X618926Y232108D01*
X618947Y232129D01*
X618954Y232150D01*
X618989Y232157D01*
X619038Y232150D01*
X619073Y232185D01*
X619088Y232213D01*
X619137Y232248D01*
X619165Y232291D01*
X619263Y232305D01*
X619298Y232354D01*
X619404Y232375D01*
X619439Y232424D01*
X619516Y232431D01*
X619558Y232417D01*
X619622Y232466D01*
X619629Y232487D01*
X619664Y232494D01*
X619713Y232487D01*
X619748Y232523D01*
X619762Y232551D01*
X619868Y232572D01*
X619903Y232621D01*
X620008Y232642D01*
X620044Y232691D01*
X620142Y232705D01*
X620163Y232754D01*
X620276Y232783D01*
X620297Y232804D01*
X620304Y232825D01*
X620360Y232839D01*
X620416Y232825D01*
X620472Y232839D01*
X620494Y232860D01*
X620508Y232888D01*
X620613Y232909D01*
X620655Y232965D01*
X620810Y232979D01*
X620831Y233001D01*
X620845Y233029D01*
X620951Y233050D01*
X620993Y233106D01*
X621126Y233099D01*
X621154Y233113D01*
X621169Y233141D01*
X621204Y233176D01*
X621330Y233162D01*
X621365Y233197D01*
X621379Y233225D01*
X621436Y233240D01*
X621541Y233233D01*
X621562Y233254D01*
X621576Y233282D01*
X621597Y233303D01*
X621752Y233317D01*
X621773Y233338D01*
X621787Y233366D01*
X621893Y233387D01*
X621914Y233408D01*
X621921Y233429D01*
X621977Y233443D01*
X622061Y233429D01*
X622111Y233465D01*
X622125Y233493D01*
X622188Y233514D01*
X622230Y233500D01*
X622357Y233514D01*
X622378Y233535D01*
X622392Y233563D01*
X622448Y233577D01*
X622553Y233570D01*
X622575Y233591D01*
X622589Y233619D01*
X622610Y233640D01*
X622835Y233654D01*
X622856Y233676D01*
X622870Y233704D01*
X623109Y233718D01*
X623123Y233746D01*
X623158Y233781D01*
X623348Y233774D01*
X623390Y233802D01*
X623404Y233830D01*
X623467Y233851D01*
X623510Y233837D01*
X623706Y233851D01*
X623728Y233872D01*
X623742Y233900D01*
X623854Y233914D01*
X623903Y233936D01*
X623931Y233964D01*
X623988Y233978D01*
X624058Y234006D01*
X624086Y234034D01*
X624178Y234055D01*
X624198Y234076D01*
X624227Y234090D01*
X624318Y234139D01*
X624332Y234168D01*
X624416Y234238D01*
X624438Y234259D01*
X624466Y234273D01*
X624522Y234329D01*
X624550Y234343D01*
X624592Y234385D01*
X624620Y234400D01*
X624726Y234505D01*
X624740Y234561D01*
X624726Y235714D01*
X624705Y235735D01*
X624684Y235742D01*
X624670Y235799D01*
X624677Y236691D01*
X624649Y236734D01*
X624620Y236748D01*
X624599Y236783D01*
X624634Y236818D01*
X624663Y236832D01*
X624684Y236895D01*
X624649Y236945D01*
X624620Y236959D01*
X624599Y236980D01*
X624606Y237085D01*
X624599Y237852D01*
X624613Y237894D01*
X624599Y237936D01*
X624578Y237957D01*
X624550Y237971D01*
X624529Y238034D01*
X624543Y238076D01*
X624529Y239159D01*
X624480Y239194D01*
X624466Y239827D01*
X624402Y239876D01*
X624388Y240650D01*
X624339Y240685D01*
X624325Y241318D01*
X624297Y241332D01*
X624290Y241339D01*
X624262Y241367D01*
X624269Y241472D01*
X624262Y241971D01*
X624276Y242014D01*
X624241Y242077D01*
X624213Y242091D01*
X624192Y242154D01*
X624206Y242196D01*
X624192Y242731D01*
X624135Y242759D01*
X624142Y242808D01*
X624206Y242843D01*
X624192Y242871D01*
X624170Y242892D01*
X624142Y242906D01*
X624128Y243469D01*
X624100Y243497D01*
X624072Y243511D01*
X624058Y243877D01*
X623988Y243905D01*
D02*
G37*
G36*
X628248Y236199D02*
X628206Y236185D01*
X628164Y236199D01*
X628023Y236185D01*
X627868Y236171D01*
X627840Y236143D01*
X627742Y236129D01*
X627728Y236143D01*
X627686Y236129D01*
X627658Y236115D01*
X627629Y236073D01*
X627447Y235974D01*
X627404Y235932D01*
X627320Y235918D01*
X627299Y235897D01*
X627292Y235876D01*
X627264Y235862D01*
X627229Y235827D01*
X627222Y235806D01*
X627179Y235792D01*
X627137Y235806D01*
X627102Y235771D01*
X627088Y235742D01*
X627032Y235700D01*
X627018Y235672D01*
X626962Y235630D01*
X626947Y235602D01*
X626842Y235581D01*
X626807Y235531D01*
X626779Y235517D01*
X626758Y235468D01*
X626701Y235482D01*
X626673Y235525D01*
X626631Y235510D01*
X626596Y235461D01*
X626547Y235454D01*
X626505Y235468D01*
X626448Y235454D01*
X626427Y235433D01*
X626413Y235405D01*
X626188Y235391D01*
X626160Y235377D01*
X626139Y235328D01*
X626041Y235314D01*
X626019Y235293D01*
X626005Y235264D01*
X625837Y235250D01*
X625823Y235208D01*
X625815Y235145D01*
X625787Y235131D01*
X625752Y235110D01*
X625759Y235061D01*
X625815Y235046D01*
X625872Y235061D01*
X626139Y235046D01*
X626160Y235025D01*
X626174Y234997D01*
X626413Y234983D01*
X626462Y234920D01*
X626490Y234906D01*
X626505Y234540D01*
X626533Y234512D01*
X626554Y234505D01*
X626568Y234449D01*
X626561Y234357D01*
X626589Y234315D01*
X626617Y234301D01*
X626638Y234266D01*
X626624Y234224D01*
X626645Y234189D01*
X626673Y234175D01*
X626694Y234154D01*
X626701Y233626D01*
X626687Y233584D01*
X626659Y233570D01*
X626638Y233549D01*
X626624Y233521D01*
X626603Y233500D01*
X626575Y233514D01*
X626554Y233535D01*
X626540Y233563D01*
X626490Y233584D01*
X626448Y233570D01*
X626378Y233584D01*
X626357Y233605D01*
X626343Y233633D01*
X626237Y233654D01*
X626202Y233704D01*
X626097Y233725D01*
X626062Y233774D01*
X625914Y233781D01*
X625872Y233767D01*
X625823Y233802D01*
X625808Y233830D01*
X625745Y233851D01*
X625703Y233837D01*
X625562Y233851D01*
X625520Y233908D01*
X624733Y233893D01*
X624705Y233865D01*
X624677Y233851D01*
X624599Y233788D01*
X624473Y233661D01*
X624402Y233507D01*
X624416Y233043D01*
X624466Y233008D01*
X624543Y232930D01*
X624557Y232902D01*
X624705Y232895D01*
X624754Y232944D01*
X624761Y232965D01*
X626012Y232951D01*
X626048Y232902D01*
X626153Y232881D01*
X626188Y232832D01*
X626265Y232825D01*
X626279Y232839D01*
X626322Y232825D01*
X626596Y232832D01*
X626624Y232818D01*
X626645Y232769D01*
X626744Y232754D01*
X626779Y232719D01*
X626786Y232698D01*
X626814Y232684D01*
X626835Y232663D01*
X626842Y232642D01*
X626870Y232628D01*
X626905Y232593D01*
X626898Y232403D01*
X626926Y232361D01*
X626954Y232347D01*
X626975Y232283D01*
X626962Y232227D01*
X626975Y232171D01*
X627025Y232136D01*
X627039Y232051D01*
X627053Y232023D01*
X627081Y232009D01*
X627102Y231988D01*
X627116Y231834D01*
X627137Y231812D01*
X627165Y231798D01*
X627179Y231630D01*
X627243Y231580D01*
X627229Y231496D01*
X627165Y231475D01*
X627053Y231489D01*
X627032Y231510D01*
X627018Y231538D01*
X626962Y231552D01*
X626870Y231545D01*
X626835Y231566D01*
X626821Y231594D01*
X626800Y231616D01*
X626575Y231630D01*
X626540Y231679D01*
X625914Y231686D01*
X625893Y231665D01*
X625879Y231637D01*
X625844Y231602D01*
X625823Y231594D01*
X625815Y231531D01*
X625851Y231482D01*
X625879Y231468D01*
X625893Y231440D01*
X625914Y231419D01*
X625998Y231405D01*
X626104Y231299D01*
X626111Y231278D01*
X626209Y231264D01*
X626230Y231243D01*
X626244Y231215D01*
X626350Y231194D01*
X626378Y231152D01*
X626406Y231137D01*
X626427Y231116D01*
X626441Y231088D01*
X626547Y231067D01*
X626582Y231018D01*
X626624Y230990D01*
X626638Y230962D01*
X626659Y230941D01*
X626821Y230934D01*
X626842Y230884D01*
X626954Y230856D01*
X626975Y230835D01*
X626990Y230807D01*
X627067Y230800D01*
X627109Y230814D01*
X627172Y230779D01*
X627186Y230751D01*
X627292Y230730D01*
X627299Y230680D01*
X627236Y230660D01*
X627137Y230674D01*
X626448Y230660D01*
X626427Y230638D01*
X626413Y230610D01*
X625766Y230596D01*
X625752Y230568D01*
X625717Y230533D01*
X625155Y230519D01*
X625119Y230470D01*
X625042Y230463D01*
X625014Y230477D01*
X624972Y230463D01*
X624782Y230470D01*
X624740Y230441D01*
X624726Y230413D01*
X624663Y230392D01*
X624620Y230406D01*
X624016Y230392D01*
X623995Y230371D01*
X623981Y230343D01*
X623875Y230322D01*
X623840Y230273D01*
X623348Y230259D01*
X623320Y230231D01*
X623313Y230209D01*
X623256Y230195D01*
X623109Y230203D01*
X623060Y230181D01*
X623025Y230132D01*
X622947Y230125D01*
X622919Y230139D01*
X622877Y230125D01*
X622757Y230132D01*
X622715Y230104D01*
X622701Y230076D01*
X622638Y230055D01*
X622596Y230069D01*
X622469Y230055D01*
X622434Y230020D01*
X622427Y229999D01*
X622061Y229984D01*
X622040Y229963D01*
X622026Y229935D01*
X621857Y229921D01*
X621808Y229858D01*
X621513Y229844D01*
X621492Y229823D01*
X621485Y229802D01*
X621443Y229788D01*
X621415Y229802D01*
X621365Y229767D01*
X621351Y229738D01*
X621288Y229717D01*
X621246Y229731D01*
X621084Y229724D01*
X621035Y229746D01*
X621028Y230245D01*
X621049Y230266D01*
X621077Y230280D01*
X621098Y230301D01*
X621112Y230793D01*
X621133Y230814D01*
X621161Y230828D01*
X621169Y231313D01*
X621133Y231348D01*
X621049Y231334D01*
X621028Y231313D01*
X621021Y231292D01*
X620993Y231278D01*
X620887Y231173D01*
X620880Y231152D01*
X620824Y231137D01*
X620810Y231152D01*
X620761Y231116D01*
X620747Y231088D01*
X620697Y231053D01*
X620669Y231011D01*
X620641Y230997D01*
X620620Y230976D01*
X620606Y230948D01*
X620557Y230912D01*
X620543Y230884D01*
X620515Y230870D01*
X620479Y230835D01*
X620472Y230814D01*
X620360Y230786D01*
X620339Y230680D01*
X620233Y230660D01*
X620212Y230610D01*
X620226Y230582D01*
X620191Y230533D01*
X620093Y230519D01*
X620058Y230470D01*
X620015Y230441D01*
X620001Y230413D01*
X619952Y230378D01*
X619924Y230336D01*
X619896Y230322D01*
X619861Y230273D01*
X619819Y230245D01*
X619805Y230217D01*
X619783Y230195D01*
X619685Y230181D01*
X619664Y230076D01*
X619558Y230055D01*
X619516Y229999D01*
X619488Y229984D01*
X619467Y229879D01*
X619446Y229858D01*
X619418Y229844D01*
X619376Y229788D01*
X619348Y229774D01*
X619319Y229731D01*
X619291Y229717D01*
X619270Y229696D01*
X619256Y229668D01*
X619214Y229640D01*
X619200Y229612D01*
X619179Y229591D01*
X619151Y229577D01*
X619116Y229528D01*
X619073Y229499D01*
X619059Y229471D01*
X619038Y229450D01*
X619010Y229436D01*
X618982Y229394D01*
X618954Y229380D01*
X618933Y229359D01*
X618919Y229331D01*
X618877Y229303D01*
X618862Y229260D01*
X618877Y229232D01*
X618855Y229197D01*
X618827Y229183D01*
X618792Y229148D01*
X618785Y229127D01*
X618757Y229113D01*
X618736Y229092D01*
X618722Y228993D01*
X618673Y228958D01*
X618645Y228916D01*
X618546Y228902D01*
X618525Y228881D01*
X618511Y228853D01*
X618420Y228846D01*
X618377Y228860D01*
X618328Y228824D01*
X618314Y228796D01*
X618293Y228775D01*
X618230Y228782D01*
X618202Y228768D01*
X618181Y228719D01*
X618082Y228705D01*
X618047Y228670D01*
X618040Y228649D01*
X617871Y228635D01*
X617836Y228586D01*
X617731Y228564D01*
X617695Y228515D01*
X617618Y228508D01*
X617576Y228522D01*
X617513Y228473D01*
X617506Y228452D01*
X617449Y228438D01*
X617421Y228452D01*
X617386Y228417D01*
X617372Y228389D01*
X617309Y228367D01*
X617267Y228382D01*
X617196Y228367D01*
X617154Y228311D01*
X617056Y228297D01*
X617014Y228241D01*
X616929Y228227D01*
X616908Y228206D01*
X616894Y228178D01*
X616788Y228157D01*
X616760Y228114D01*
X616718Y228100D01*
X616690Y228114D01*
X616641Y228079D01*
X616627Y228051D01*
X616521Y228030D01*
X616486Y227981D01*
X616332Y227967D01*
X616303Y227939D01*
X616289Y227911D01*
X616184Y227889D01*
X616163Y227868D01*
X616149Y227840D01*
X616043Y227819D01*
X616008Y227770D01*
X615966Y227742D01*
X615952Y227714D01*
X615875Y227693D01*
X615832Y227679D01*
X615804Y227650D01*
X615776Y227636D01*
X615650Y227538D01*
X615622Y227510D01*
X615593Y227496D01*
X615523Y227426D01*
X615495Y227411D01*
X615453Y227369D01*
X615425Y227355D01*
X615382Y227313D01*
X615354Y227299D01*
X615277Y227236D01*
X615200Y227158D01*
X615171Y227144D01*
X615094Y227067D01*
X615080Y227039D01*
X615031Y227004D01*
X615003Y226961D01*
X614975Y226947D01*
X614954Y226926D01*
X614947Y226835D01*
X614897Y226814D01*
X614869Y226701D01*
X614848Y226680D01*
X614827Y226673D01*
X614813Y226645D01*
X614792Y226624D01*
X614764Y226610D01*
X614743Y226504D01*
X614722Y226483D01*
X614693Y226469D01*
X614651Y226413D01*
X614623Y226399D01*
X614602Y226294D01*
X614553Y226258D01*
X614539Y226160D01*
X614511Y226146D01*
X614475Y226111D01*
X614490Y226055D01*
X614468Y226019D01*
X614419Y225998D01*
X614405Y225900D01*
X614384Y225879D01*
X614356Y225865D01*
X614335Y225759D01*
X614286Y225724D01*
X614265Y225619D01*
X614215Y225584D01*
X614187Y225541D01*
X614159Y225527D01*
X614138Y225492D01*
X614152Y225450D01*
X614131Y225415D01*
X614082Y225394D01*
X614068Y225295D01*
X614033Y225260D01*
X614011Y225253D01*
X613998Y225084D01*
X613948Y225049D01*
X613927Y224944D01*
X613878Y224909D01*
X613871Y224831D01*
X613885Y224789D01*
X613836Y224726D01*
X613815Y224719D01*
X613801Y224677D01*
X613815Y224634D01*
X613779Y224599D01*
X613751Y224585D01*
X613737Y224529D01*
X613744Y224424D01*
X613723Y224402D01*
X613695Y224388D01*
X613674Y224367D01*
X613660Y224269D01*
X613611Y224234D01*
X613597Y224079D01*
X613569Y224051D01*
X613541Y224037D01*
X613533Y223959D01*
X613548Y223917D01*
X613512Y223854D01*
X613484Y223840D01*
X613463Y223819D01*
X613477Y223678D01*
X613463Y223608D01*
X613442Y223587D01*
X613414Y223573D01*
X613400Y223517D01*
X613407Y223411D01*
X613386Y223390D01*
X613358Y223376D01*
X613337Y223355D01*
X613323Y222863D01*
X613302Y222842D01*
X613273Y222828D01*
X613259Y222589D01*
X613196Y222539D01*
X613203Y222012D01*
X613175Y221970D01*
X613147Y221956D01*
X613126Y221893D01*
X613140Y221836D01*
X613133Y221675D01*
X613140Y221597D01*
X613105Y221562D01*
X613076Y221548D01*
X613069Y219024D01*
X613105Y218989D01*
X613133Y218975D01*
X613140Y218827D01*
X613126Y218785D01*
X613147Y218736D01*
X613175Y218722D01*
X613210Y218687D01*
X613196Y218546D01*
X613210Y218406D01*
X613266Y218363D01*
X613280Y218209D01*
X613302Y218188D01*
X613330Y218174D01*
X613351Y218068D01*
X613372Y218047D01*
X613400Y218033D01*
X613407Y217941D01*
X613393Y217913D01*
X613428Y217850D01*
X613456Y217836D01*
X613477Y217815D01*
X613470Y217752D01*
X613484Y217724D01*
X613533Y217703D01*
X613548Y217604D01*
X613569Y217583D01*
X613597Y217569D01*
X613618Y217463D01*
X613639Y217442D01*
X613667Y217428D01*
X613688Y217323D01*
X613737Y217288D01*
X613758Y217182D01*
X613808Y217147D01*
X613822Y217119D01*
X613850Y217105D01*
X613871Y217084D01*
X613885Y216985D01*
X613934Y216950D01*
X614187Y216697D01*
X614208Y216690D01*
X614222Y216592D01*
X614792Y216022D01*
X614848Y216036D01*
X614968Y215917D01*
X614975Y215896D01*
X615073Y215882D01*
X615094Y215861D01*
X615101Y215839D01*
X615129Y215825D01*
X615165Y215790D01*
X615171Y215769D01*
X615200Y215755D01*
X615235Y215720D01*
X615242Y215699D01*
X615284Y215685D01*
X615326Y215699D01*
X615361Y215664D01*
X615375Y215635D01*
X615481Y215614D01*
X615516Y215565D01*
X615622Y215544D01*
X615657Y215495D01*
X615755Y215481D01*
X615769Y215453D01*
X615839Y215383D01*
X615846Y215361D01*
X615889Y215347D01*
X615931Y215361D01*
X615966Y215326D01*
X615980Y215298D01*
X616043Y215277D01*
X616085Y215291D01*
X616156Y215277D01*
X616191Y215228D01*
X616233Y215200D01*
X616247Y215143D01*
X616226Y215094D01*
X616114Y215066D01*
X616085Y215024D01*
X616043Y215010D01*
X616001Y215024D01*
X615966Y214989D01*
X615952Y214961D01*
X615896Y214918D01*
X615882Y214890D01*
X615713Y214876D01*
X615664Y214813D01*
X615572Y214806D01*
X615551Y214757D01*
X615439Y214729D01*
X615418Y214707D01*
X615411Y214686D01*
X615382Y214672D01*
X615361Y214651D01*
X615347Y214623D01*
X615242Y214602D01*
X615221Y214581D01*
X615207Y214553D01*
X615165Y214525D01*
X615150Y214497D01*
X615129Y214475D01*
X615031Y214461D01*
X614996Y214412D01*
X614954Y214384D01*
X614939Y214356D01*
X614919Y214335D01*
X614862Y214349D01*
X614827Y214328D01*
X614813Y214300D01*
X614588Y214075D01*
X614581Y214068D01*
X614497Y214054D01*
X614279Y213836D01*
X614265Y213808D01*
X614152Y213794D01*
X614138Y213681D01*
X614089Y213646D01*
X614068Y213625D01*
X614061Y213604D01*
X613962Y213590D01*
X613941Y213569D01*
X613927Y213541D01*
X613822Y213519D01*
X613787Y213470D01*
X613744Y213442D01*
X613730Y213414D01*
X613709Y213393D01*
X613681Y213379D01*
X613660Y213273D01*
X613604Y213231D01*
X613590Y213203D01*
X613484Y213182D01*
X613449Y213133D01*
X613407Y213105D01*
X613393Y213076D01*
X613372Y213055D01*
X613344Y213041D01*
X613315Y212999D01*
X613287Y212985D01*
X613266Y212964D01*
X613252Y212936D01*
X613203Y212901D01*
X613175Y212859D01*
X613147Y212844D01*
X613126Y212809D01*
X613140Y212767D01*
X613119Y212732D01*
X613091Y212718D01*
X613055Y212683D01*
X613048Y212662D01*
X613020Y212648D01*
X612985Y212613D01*
X612978Y212591D01*
X612950Y212577D01*
X612929Y212556D01*
X612922Y212535D01*
X612894Y212521D01*
X612859Y212486D01*
X612851Y212465D01*
X612823Y212451D01*
X612802Y212430D01*
X612795Y212394D01*
X612802Y212359D01*
X612781Y212324D01*
X612753Y212310D01*
X612521Y212078D01*
X612535Y211797D01*
X612556Y211776D01*
X612584Y211762D01*
X612619Y211713D01*
X612662Y211684D01*
X612676Y211586D01*
X612732Y211544D01*
X612746Y211516D01*
X612795Y211481D01*
X612802Y211403D01*
X612788Y211361D01*
X612802Y211333D01*
X612908Y211227D01*
X612929Y211221D01*
X612943Y211122D01*
X612964Y211101D01*
X612992Y211087D01*
X613013Y210981D01*
X613062Y210946D01*
X613091Y210904D01*
X613119Y210890D01*
X613140Y210869D01*
X613133Y210806D01*
X613161Y210764D01*
X613189Y210749D01*
X613203Y210665D01*
X613217Y210637D01*
X613245Y210623D01*
X613477Y210391D01*
X613470Y210328D01*
X613583Y210215D01*
X613604Y210208D01*
X613618Y210110D01*
X613639Y210089D01*
X613667Y210074D01*
X613702Y210025D01*
X613730Y210011D01*
X613744Y209983D01*
X613779Y209948D01*
X613808Y209934D01*
X613815Y209885D01*
X613801Y209871D01*
X613836Y209821D01*
X613864Y209807D01*
X613899Y209758D01*
X613941Y209730D01*
X613955Y209702D01*
X613976Y209681D01*
X614005Y209667D01*
X614033Y209625D01*
X614061Y209611D01*
X614082Y209589D01*
X614096Y209561D01*
X614145Y209526D01*
X614173Y209484D01*
X614201Y209470D01*
X614236Y209421D01*
X614279Y209393D01*
X614293Y209294D01*
X614342Y209259D01*
X614370Y209217D01*
X614398Y209203D01*
X614419Y209182D01*
X614426Y209161D01*
X614454Y209146D01*
X614490Y209111D01*
X614497Y209090D01*
X614525Y209076D01*
X614560Y209041D01*
X614567Y209020D01*
X614623Y209006D01*
X614637Y209020D01*
X614686Y208985D01*
X614701Y208957D01*
X614750Y208922D01*
X614778Y208879D01*
X614806Y208865D01*
X614827Y208844D01*
X614841Y208816D01*
X614883Y208788D01*
X614897Y208760D01*
X614919Y208739D01*
X614947Y208725D01*
X614982Y208676D01*
X615024Y208647D01*
X615038Y208619D01*
X615087Y208584D01*
X615115Y208542D01*
X615143Y208528D01*
X615165Y208507D01*
X615179Y208479D01*
X615221Y208451D01*
X615235Y208422D01*
X615256Y208401D01*
X615354Y208387D01*
X615375Y208282D01*
X615425Y208247D01*
X615453Y208204D01*
X615551Y208190D01*
X615586Y208141D01*
X615628Y208113D01*
X615643Y208085D01*
X615664Y208064D01*
X615685Y208057D01*
X615699Y208029D01*
X615734Y207994D01*
X615755Y207986D01*
X615769Y207958D01*
X615804Y207923D01*
X615825Y207916D01*
X615839Y207888D01*
X615875Y207853D01*
X615896Y207846D01*
X615910Y207818D01*
X615931Y207797D01*
X616022Y207790D01*
X616036Y207762D01*
X616198Y207600D01*
X616282Y207586D01*
X616514Y207354D01*
X616521Y207333D01*
X616564Y207319D01*
X616606Y207333D01*
X616641Y207297D01*
X616655Y207269D01*
X616704Y207234D01*
X616732Y207192D01*
X616760Y207178D01*
X616782Y207157D01*
X616796Y207129D01*
X616901Y207108D01*
X616936Y207059D01*
X616978Y207030D01*
X616992Y207002D01*
X617042Y206981D01*
X617070Y206995D01*
X617119Y206960D01*
X617133Y206932D01*
X617154Y206911D01*
X617175Y206904D01*
X617189Y206876D01*
X617210Y206855D01*
X617309Y206840D01*
X617344Y206791D01*
X617421Y206714D01*
X617506Y206700D01*
X617597Y206609D01*
X617604Y206588D01*
X617702Y206573D01*
X617724Y206552D01*
X617738Y206524D01*
X617843Y206503D01*
X617864Y206482D01*
X617878Y206454D01*
X617920Y206426D01*
X617935Y206398D01*
X617956Y206377D01*
X618054Y206363D01*
X618089Y206313D01*
X618124Y206306D01*
X618152Y206320D01*
X618188Y206299D01*
X618209Y206250D01*
X618307Y206236D01*
X618434Y206109D01*
X618588Y206095D01*
X618623Y206046D01*
X618729Y206025D01*
X618764Y205976D01*
X618799Y205969D01*
X618827Y205983D01*
X618862Y205962D01*
X618884Y205912D01*
X618982Y205898D01*
X619017Y205863D01*
X619024Y205842D01*
X619123Y205828D01*
X619144Y205807D01*
X619158Y205779D01*
X619207Y205744D01*
X619235Y205702D01*
X619369Y205709D01*
X619411Y205680D01*
X619425Y205652D01*
X619446Y205631D01*
X619509Y205638D01*
X619537Y205624D01*
X619558Y205575D01*
X619657Y205561D01*
X619692Y205526D01*
X619699Y205505D01*
X619798Y205491D01*
X619819Y205470D01*
X619833Y205441D01*
X619938Y205420D01*
X619980Y205364D01*
X620079Y205350D01*
X620121Y205294D01*
X620184Y205301D01*
X620212Y205287D01*
X620226Y205259D01*
X620248Y205238D01*
X620290Y205224D01*
X620332Y205238D01*
X620402Y205224D01*
X620423Y205203D01*
X620437Y205174D01*
X620606Y205160D01*
X620655Y205097D01*
X620747Y205090D01*
X620761Y205062D01*
X620796Y205027D01*
X620915Y205034D01*
X620965Y204999D01*
X620979Y204971D01*
X621021Y204956D01*
X621049Y204971D01*
X621098Y204935D01*
X621112Y204907D01*
X621175Y204886D01*
X621218Y204900D01*
X621288Y204886D01*
X621323Y204837D01*
X621548Y204823D01*
X621576Y204795D01*
X621590Y204767D01*
X621815Y204752D01*
X621843Y204724D01*
X621850Y204703D01*
X621907Y204689D01*
X621998Y204696D01*
X622040Y204668D01*
X622054Y204640D01*
X622118Y204619D01*
X622174Y204633D01*
X622202Y204619D01*
X622244Y204633D01*
X622286Y204619D01*
X622321Y204584D01*
X622329Y204563D01*
X622378Y204556D01*
X622553Y204563D01*
X622575Y204542D01*
X622589Y204514D01*
X622610Y204492D01*
X622835Y204478D01*
X622856Y204457D01*
X622870Y204429D01*
X623165Y204415D01*
X623193Y204387D01*
X623200Y204366D01*
X623256Y204352D01*
X623545Y204359D01*
X623594Y204324D01*
X623608Y204296D01*
X623664Y204281D01*
X623721Y204296D01*
X623826Y204289D01*
X623889Y204296D01*
X623924Y204275D01*
X623938Y204246D01*
X623959Y204225D01*
X624002Y204211D01*
X624044Y204225D01*
X624381Y204211D01*
X624416Y204176D01*
X624424Y204155D01*
X624592Y204141D01*
X624627Y204092D01*
X624670Y204064D01*
X624684Y203965D01*
X624740Y203923D01*
X624754Y203895D01*
X624810Y203853D01*
X624817Y203761D01*
X624845Y203747D01*
X624951Y203642D01*
X624937Y203586D01*
X624986Y203536D01*
X625007Y203529D01*
X625021Y203431D01*
X625042Y203410D01*
X625070Y203396D01*
X625112Y203339D01*
X625141Y203325D01*
X625155Y203157D01*
X625218Y203107D01*
X625225Y203016D01*
X625274Y202995D01*
X625288Y202953D01*
X625274Y202911D01*
X625323Y202861D01*
X625345Y202854D01*
X625351Y202791D01*
X625345Y202700D01*
X625380Y202664D01*
X625408Y202650D01*
X625422Y202355D01*
X625450Y202327D01*
X625478Y202313D01*
X625492Y201244D01*
X625520Y201202D01*
X625576Y201188D01*
X625661Y201174D01*
X625731Y201146D01*
X625872Y201132D01*
X626322Y201118D01*
X626364Y201104D01*
X626561Y201090D01*
X626603Y201076D01*
X626701Y201062D01*
X627004Y201055D01*
X628079Y201076D01*
X628122Y201062D01*
X628881Y201076D01*
X628923Y201090D01*
X629106Y201076D01*
X629535Y201069D01*
X629851Y201104D01*
X630034Y201118D01*
X630428Y201132D01*
X630484Y201146D01*
X630751Y201160D01*
X630976Y201174D01*
X631032Y201188D01*
X631145Y201202D01*
X631208Y201251D01*
X631222Y201308D01*
X631236Y201575D01*
X631257Y201596D01*
X631278Y201603D01*
X631292Y201659D01*
X631285Y201722D01*
X631292Y201969D01*
X631278Y202011D01*
X631292Y202039D01*
X631313Y202060D01*
X631341Y202074D01*
X631362Y202137D01*
X631348Y202179D01*
X631362Y202447D01*
X631384Y202468D01*
X631412Y202482D01*
X631426Y202707D01*
X631440Y202735D01*
X631468Y202749D01*
X631489Y202770D01*
X631503Y202925D01*
X631524Y202946D01*
X631552Y202960D01*
X631559Y203065D01*
X631545Y203079D01*
X631580Y203143D01*
X631609Y203157D01*
X631630Y203178D01*
X631623Y203311D01*
X631665Y203354D01*
X631686Y203361D01*
X631700Y203417D01*
X631686Y203473D01*
X631700Y203529D01*
X631721Y203550D01*
X631749Y203564D01*
X631763Y203719D01*
X631777Y203747D01*
X631805Y203761D01*
X631826Y203782D01*
X631841Y203867D01*
X631862Y203888D01*
X631890Y203902D01*
X631897Y204007D01*
X631883Y204021D01*
X631918Y204085D01*
X631946Y204099D01*
X631967Y204120D01*
X631981Y204218D01*
X632283Y204225D01*
X632312Y204211D01*
X632375Y204260D01*
X632382Y204281D01*
X632438Y204296D01*
X632508Y204281D01*
X632551Y204296D01*
X632740Y204289D01*
X632769Y204317D01*
X632783Y204345D01*
X632846Y204366D01*
X632888Y204352D01*
X633085Y204366D01*
X633120Y204401D01*
X633127Y204422D01*
X633436Y204436D01*
X633479Y204492D01*
X633704Y204506D01*
X633739Y204556D01*
X633915Y204563D01*
X633929Y204549D01*
X633992Y204598D01*
X633999Y204619D01*
X634055Y204633D01*
X634118Y204626D01*
X634154Y204633D01*
X634196Y204619D01*
X634259Y204654D01*
X634273Y204682D01*
X634336Y204703D01*
X634378Y204689D01*
X634435Y204703D01*
X634470Y204738D01*
X634477Y204760D01*
X634646Y204774D01*
X634667Y204795D01*
X634681Y204823D01*
X634906Y204837D01*
X634934Y204865D01*
X634941Y204886D01*
X634997Y204900D01*
X635089Y204893D01*
X635131Y204921D01*
X635145Y204949D01*
X635194Y204971D01*
X635222Y204956D01*
X635271Y204992D01*
X635285Y205020D01*
X635335Y205041D01*
X635377Y205027D01*
X635517Y205041D01*
X635538Y205062D01*
X635553Y205090D01*
X635721Y205104D01*
X635771Y205167D01*
X635862Y205174D01*
X635876Y205203D01*
X635911Y205238D01*
X636031Y205231D01*
X636087Y205273D01*
X636094Y205294D01*
X636136Y205308D01*
X636178Y205294D01*
X636213Y205329D01*
X636228Y205357D01*
X636291Y205378D01*
X636333Y205364D01*
X636403Y205378D01*
X636431Y205434D01*
X636530Y205449D01*
X636551Y205470D01*
X636565Y205498D01*
X636734Y205512D01*
X636783Y205575D01*
X636881Y205589D01*
X636924Y205645D01*
X636987Y205638D01*
X637015Y205652D01*
X637036Y205702D01*
X637134Y205716D01*
X637170Y205751D01*
X637177Y205772D01*
X637345Y205786D01*
X637366Y205807D01*
X637381Y205835D01*
X637423Y205863D01*
X637437Y205891D01*
X637458Y205912D01*
X637577Y205906D01*
X637619Y205920D01*
X637634Y205948D01*
X637669Y205983D01*
X637725Y205969D01*
X637774Y206018D01*
X637781Y206039D01*
X637880Y206053D01*
X637901Y206074D01*
X637915Y206102D01*
X638020Y206123D01*
X638041Y206144D01*
X638055Y206173D01*
X638161Y206194D01*
X638196Y206243D01*
X638294Y206257D01*
X638308Y206285D01*
X638344Y206320D01*
X638400Y206306D01*
X638519Y206426D01*
X638526Y206447D01*
X638625Y206461D01*
X638646Y206482D01*
X638660Y206510D01*
X638765Y206531D01*
X638808Y206588D01*
X638906Y206602D01*
X638948Y206658D01*
X638969Y206665D01*
X638983Y206693D01*
X639005Y206714D01*
X639103Y206728D01*
X639138Y206777D01*
X639215Y206855D01*
X639300Y206869D01*
X639391Y206960D01*
X639398Y206981D01*
X639440Y206995D01*
X639483Y206981D01*
X639518Y207016D01*
X639532Y207044D01*
X639637Y207066D01*
X639658Y207087D01*
X639672Y207115D01*
X639722Y207150D01*
X639750Y207192D01*
X639778Y207206D01*
X639813Y207255D01*
X639855Y207283D01*
X639869Y207312D01*
X639890Y207333D01*
X639954Y207326D01*
X639982Y207340D01*
X639996Y207368D01*
X640031Y207403D01*
X640052Y207410D01*
X640066Y207438D01*
X640087Y207459D01*
X640115Y207473D01*
X640158Y207529D01*
X640249Y207537D01*
X640263Y207565D01*
X640706Y208008D01*
X640762Y207994D01*
X641289Y208521D01*
X641296Y208542D01*
X641395Y208556D01*
X641416Y208577D01*
X641423Y208598D01*
X641451Y208612D01*
X641486Y208647D01*
X641493Y208668D01*
X641521Y208682D01*
X641557Y208718D01*
X641564Y208739D01*
X641592Y208753D01*
X641613Y208774D01*
X641627Y208802D01*
X641676Y208837D01*
X641690Y208865D01*
X641718Y208879D01*
X641753Y208914D01*
X641760Y208936D01*
X641788Y208950D01*
X641824Y208985D01*
X641831Y209006D01*
X641859Y209020D01*
X641894Y209055D01*
X641901Y209076D01*
X641929Y209090D01*
X641950Y209111D01*
X641964Y209139D01*
X642021Y209182D01*
X642028Y209203D01*
X642056Y209217D01*
X642091Y209252D01*
X642098Y209273D01*
X642126Y209287D01*
X642161Y209322D01*
X642168Y209343D01*
X642196Y209357D01*
X642217Y209379D01*
X642224Y209470D01*
X642252Y209484D01*
X642766Y209997D01*
X642752Y210053D01*
X642998Y210299D01*
X643019Y210307D01*
X643047Y210419D01*
X643089Y210447D01*
X643103Y210475D01*
X643124Y210496D01*
X643152Y210510D01*
X643188Y210560D01*
X643230Y210588D01*
X643244Y210616D01*
X643265Y210637D01*
X643293Y210651D01*
X643314Y210756D01*
X643363Y210792D01*
X643384Y210897D01*
X643434Y210932D01*
X643448Y210960D01*
X643476Y210974D01*
X643511Y211010D01*
X643518Y211031D01*
X643546Y211045D01*
X643567Y211066D01*
X643581Y211164D01*
X643638Y211192D01*
X643652Y211291D01*
X643743Y211382D01*
X643764Y211389D01*
X643778Y211431D01*
X643764Y211474D01*
X643799Y211509D01*
X643827Y211523D01*
X643848Y211628D01*
X643869Y211649D01*
X643898Y211663D01*
X643919Y211769D01*
X643968Y211804D01*
X643996Y211846D01*
X644024Y211860D01*
X644045Y211881D01*
X644052Y211973D01*
X644101Y211994D01*
X644116Y212036D01*
X644101Y212078D01*
X644151Y212127D01*
X644172Y212134D01*
X644186Y212233D01*
X644207Y212254D01*
X644235Y212268D01*
X644242Y212430D01*
X644221Y212451D01*
X644193Y212465D01*
X644172Y212486D01*
X644158Y212514D01*
X644109Y212549D01*
X644095Y212577D01*
X644066Y212591D01*
X644045Y212613D01*
X644031Y212711D01*
X643947Y212781D01*
X643300Y213428D01*
X643286Y213526D01*
X643181Y213547D01*
X642555Y214173D01*
X642541Y214201D01*
X642435Y214222D01*
X642414Y214244D01*
X642407Y214265D01*
X642379Y214279D01*
X642344Y214314D01*
X642337Y214335D01*
X642309Y214349D01*
X642288Y214370D01*
X642274Y214398D01*
X642168Y214419D01*
X642147Y214440D01*
X642133Y214469D01*
X642091Y214497D01*
X642077Y214525D01*
X642056Y214546D01*
X642028Y214560D01*
X641992Y214609D01*
X641950Y214637D01*
X641936Y214665D01*
X641915Y214686D01*
X641852Y214679D01*
X641824Y214693D01*
X641810Y214722D01*
X641775Y214757D01*
X641753Y214764D01*
X641739Y214792D01*
X641718Y214813D01*
X641620Y214827D01*
X641585Y214876D01*
X641507Y214954D01*
X641423Y214968D01*
X641332Y215059D01*
X641325Y215080D01*
X641226Y215094D01*
X641205Y215115D01*
X641191Y215143D01*
X641085Y215164D01*
X641050Y215214D01*
X640945Y215235D01*
X640910Y215284D01*
X640868Y215312D01*
X640854Y215340D01*
X640832Y215361D01*
X640769Y215354D01*
X640741Y215368D01*
X640727Y215396D01*
X640706Y215418D01*
X640678Y215432D01*
X640671Y215481D01*
X640727Y215509D01*
X640741Y215537D01*
X640762Y215558D01*
X640924Y215565D01*
X640938Y215593D01*
X640973Y215629D01*
X641057Y215643D01*
X641079Y215664D01*
X641085Y215685D01*
X641142Y215699D01*
X641170Y215685D01*
X641205Y215720D01*
X641219Y215748D01*
X641325Y215769D01*
X641346Y215790D01*
X641360Y215818D01*
X641465Y215839D01*
X641500Y215889D01*
X641599Y215903D01*
X641613Y215931D01*
X641648Y215966D01*
X641732Y215980D01*
X641753Y216001D01*
X641760Y216022D01*
X641788Y216036D01*
X641824Y216071D01*
X641831Y216092D01*
X641929Y216107D01*
X641950Y216128D01*
X641964Y216156D01*
X642021Y216198D01*
X642035Y216226D01*
X642091Y216268D01*
X642105Y216296D01*
X642210Y216318D01*
X642245Y216367D01*
X642288Y216395D01*
X642302Y216423D01*
X642351Y216458D01*
X642379Y216500D01*
X642407Y216514D01*
X642449Y216571D01*
X642478Y216585D01*
X642520Y216641D01*
X642548Y216655D01*
X642590Y216711D01*
X642618Y216725D01*
X642646Y216767D01*
X642674Y216781D01*
X642695Y216803D01*
X642709Y216831D01*
X642752Y216859D01*
X642766Y216887D01*
X642787Y216908D01*
X642815Y216922D01*
X642850Y216971D01*
X642892Y216999D01*
X642906Y217028D01*
X642928Y217049D01*
X642956Y217063D01*
X642977Y217168D01*
X643026Y217203D01*
X643054Y217246D01*
X643082Y217260D01*
X643103Y217281D01*
X643110Y217302D01*
X643138Y217316D01*
X643159Y217337D01*
X643174Y217435D01*
X643223Y217471D01*
X643237Y217569D01*
X643300Y217604D01*
X643314Y217703D01*
X643335Y217724D01*
X643363Y217738D01*
X643384Y217843D01*
X643427Y217871D01*
X643441Y217899D01*
X643462Y217920D01*
X643490Y217934D01*
X643511Y217998D01*
X643497Y218040D01*
X643511Y218110D01*
X643567Y218152D01*
X643581Y218307D01*
X643602Y218328D01*
X643631Y218342D01*
X643645Y218511D01*
X643708Y218560D01*
X643701Y218820D01*
X643729Y218863D01*
X643757Y218877D01*
X643778Y218940D01*
X643764Y218996D01*
X643771Y219228D01*
X643764Y219291D01*
X643785Y219326D01*
X643813Y219340D01*
X643834Y219362D01*
X643841Y221506D01*
X643820Y221555D01*
X643771Y221590D01*
X643764Y221668D01*
X643778Y221696D01*
X643764Y221738D01*
X643771Y222265D01*
X643743Y222307D01*
X643715Y222321D01*
X643694Y222385D01*
X643708Y222427D01*
X643694Y222821D01*
X643659Y222856D01*
X643638Y222863D01*
X643623Y223172D01*
X643574Y223207D01*
X643560Y223502D01*
X643497Y223552D01*
X643504Y223742D01*
X643469Y223791D01*
X643441Y223805D01*
X643427Y223861D01*
X643434Y223924D01*
X643427Y223959D01*
X643441Y224002D01*
X643420Y224051D01*
X643391Y224065D01*
X643370Y224086D01*
X643356Y224142D01*
X643370Y224184D01*
X643356Y224241D01*
X643335Y224262D01*
X643307Y224276D01*
X643293Y224445D01*
X643230Y224494D01*
X643216Y224648D01*
X643195Y224670D01*
X643166Y224684D01*
X643145Y224789D01*
X643124Y224810D01*
X643103Y224817D01*
X643089Y224873D01*
X643103Y224958D01*
X643068Y225007D01*
X643040Y225021D01*
X643019Y225127D01*
X642970Y225162D01*
X642956Y225246D01*
X642928Y225274D01*
X642899Y225288D01*
X642878Y225394D01*
X642857Y225415D01*
X642829Y225429D01*
X642822Y225520D01*
X642836Y225548D01*
X642801Y225612D01*
X642773Y225626D01*
X642752Y225647D01*
X642759Y225710D01*
X642745Y225738D01*
X642695Y225759D01*
X642681Y225858D01*
X642646Y225893D01*
X642625Y225900D01*
X642611Y225998D01*
X642590Y226019D01*
X642562Y226033D01*
X642541Y226139D01*
X642492Y226174D01*
X642471Y226279D01*
X642421Y226315D01*
X642407Y226343D01*
X642379Y226357D01*
X642358Y226378D01*
X642344Y226476D01*
X642288Y226504D01*
X642274Y226603D01*
X642252Y226624D01*
X642224Y226638D01*
X642203Y226744D01*
X642182Y226765D01*
X642154Y226779D01*
X642133Y226884D01*
X642091Y226912D01*
X642077Y226940D01*
X642056Y226961D01*
X642028Y226975D01*
X642006Y227081D01*
X641957Y227116D01*
X641936Y227222D01*
X641887Y227257D01*
X641873Y227341D01*
X641775Y227439D01*
X641753Y227447D01*
X641739Y227503D01*
X641753Y227531D01*
X641718Y227566D01*
X641690Y227580D01*
X641655Y227629D01*
X641613Y227658D01*
X641599Y227686D01*
X641578Y227707D01*
X641486Y227714D01*
X641472Y227742D01*
X641437Y227777D01*
X641374Y227770D01*
X641332Y227812D01*
X641325Y227833D01*
X641261Y227840D01*
X641170Y227833D01*
X641135Y227868D01*
X641121Y227896D01*
X641015Y227918D01*
X640980Y227967D01*
X640882Y227981D01*
X640868Y228009D01*
X640832Y228044D01*
X640741Y228051D01*
X640720Y228100D01*
X640664Y228114D01*
X640565Y228100D01*
X640530Y228135D01*
X640516Y228164D01*
X640411Y228185D01*
X640375Y228234D01*
X640270Y228255D01*
X640235Y228304D01*
X640080Y228318D01*
X640052Y228346D01*
X640038Y228375D01*
X639932Y228396D01*
X639904Y228438D01*
X639848Y228452D01*
X639792Y228438D01*
X639736Y228452D01*
X639693Y228508D01*
X639609Y228522D01*
X639574Y228557D01*
X639567Y228578D01*
X639398Y228592D01*
X639363Y228642D01*
X639258Y228663D01*
X639222Y228712D01*
X639145Y228719D01*
X639103Y228705D01*
X639040Y228754D01*
X639033Y228775D01*
X638976Y228789D01*
X638878Y228775D01*
X638843Y228811D01*
X638829Y228839D01*
X638765Y228860D01*
X638723Y228846D01*
X638653Y228860D01*
X638618Y228909D01*
X638463Y228923D01*
X638435Y228951D01*
X638421Y228979D01*
X638315Y229000D01*
X638280Y229049D01*
X638189Y229057D01*
X638161Y229043D01*
X638112Y229064D01*
X638098Y229092D01*
X638062Y229127D01*
X638006Y229113D01*
X637957Y229162D01*
X637950Y229183D01*
X637887Y229190D01*
X637795Y229183D01*
X637760Y229218D01*
X637746Y229246D01*
X637577Y229260D01*
X637528Y229324D01*
X637303Y229338D01*
X637268Y229387D01*
X637163Y229408D01*
X637127Y229457D01*
X637064Y229464D01*
X637022Y229450D01*
X637008Y229464D01*
X636966Y229450D01*
X636909Y229464D01*
X636888Y229485D01*
X636874Y229514D01*
X636769Y229535D01*
X636748Y229556D01*
X636734Y229584D01*
X636628Y229605D01*
X636593Y229654D01*
X636551Y229682D01*
X636537Y229710D01*
X636516Y229731D01*
X636488Y229746D01*
X636467Y229851D01*
X636361Y229872D01*
X636326Y229921D01*
X636284Y229949D01*
X636270Y229977D01*
X636249Y229999D01*
X636221Y230013D01*
X636185Y230062D01*
X636157Y230076D01*
X636143Y230104D01*
X636108Y230139D01*
X636087Y230146D01*
X636073Y230174D01*
X636038Y230209D01*
X636017Y230217D01*
X636002Y230245D01*
X635981Y230266D01*
X635953Y230280D01*
X635918Y230329D01*
X635876Y230357D01*
X635862Y230385D01*
X635841Y230406D01*
X635820Y230413D01*
X635806Y230441D01*
X635771Y230477D01*
X635749Y230484D01*
X635735Y230512D01*
X635700Y230547D01*
X635679Y230554D01*
X635665Y230582D01*
X635644Y230603D01*
X635546Y230617D01*
X635510Y230666D01*
X635363Y230814D01*
X635307Y230800D01*
X635187Y230920D01*
X635180Y230941D01*
X635082Y230955D01*
X635061Y230976D01*
X635053Y230997D01*
X635025Y231011D01*
X634990Y231046D01*
X634983Y231067D01*
X634955Y231081D01*
X634920Y231116D01*
X634913Y231137D01*
X634885Y231152D01*
X634864Y231173D01*
X634850Y231201D01*
X634744Y231222D01*
X634723Y231243D01*
X634709Y231271D01*
X634667Y231299D01*
X634653Y231327D01*
X634632Y231348D01*
X634533Y231363D01*
X634498Y231412D01*
X634400Y231426D01*
X634385Y231454D01*
X634350Y231489D01*
X634280Y231475D01*
X634259Y231454D01*
X634273Y231285D01*
X634322Y231250D01*
X634336Y231222D01*
X634365Y231208D01*
X634385Y231187D01*
X634400Y231088D01*
X634449Y231053D01*
X634526Y230976D01*
X634540Y230891D01*
X634561Y230870D01*
X634582Y230863D01*
X634596Y230807D01*
X634589Y230730D01*
X634611Y230680D01*
X634660Y230645D01*
X634667Y230610D01*
X634653Y230582D01*
X634674Y230547D01*
X634702Y230533D01*
X634737Y230498D01*
X634744Y230477D01*
X634772Y230463D01*
X634793Y230441D01*
X634807Y230287D01*
X634829Y230266D01*
X634857Y230252D01*
X634864Y230020D01*
X634842Y229999D01*
X634674Y230013D01*
X634653Y230034D01*
X634639Y230062D01*
X634407Y230069D01*
X634378Y230055D01*
X634315Y230104D01*
X634308Y230125D01*
X634252Y230139D01*
X634196Y230125D01*
X634020Y230132D01*
X633957Y230125D01*
X633908Y230174D01*
X633900Y230195D01*
X633851Y230203D01*
X633675Y230195D01*
X633654Y230217D01*
X633640Y230245D01*
X633619Y230266D01*
X633254Y230280D01*
X633218Y230329D01*
X632783Y230343D01*
X632769Y230371D01*
X632733Y230406D01*
X632206Y230399D01*
X632164Y230427D01*
X632150Y230456D01*
X632087Y230477D01*
X632030Y230463D01*
X631658Y230470D01*
X631595Y230463D01*
X631545Y230512D01*
X631538Y230533D01*
X630428Y230547D01*
X630406Y230568D01*
X630392Y230596D01*
X629492Y230610D01*
X629429Y230674D01*
X629401Y230688D01*
X629394Y230723D01*
X629415Y230744D01*
X629528Y230758D01*
X629563Y230807D01*
X629584Y230814D01*
X629626Y230800D01*
X629661Y230821D01*
X629682Y230870D01*
X629781Y230884D01*
X629802Y230906D01*
X629816Y230934D01*
X629921Y230955D01*
X629942Y230976D01*
X629956Y231004D01*
X630062Y231025D01*
X630097Y231074D01*
X630195Y231088D01*
X630209Y231116D01*
X630245Y231152D01*
X630266Y231159D01*
X630280Y231187D01*
X630301Y231208D01*
X630385Y231222D01*
X630512Y231348D01*
X630596Y231363D01*
X630617Y231384D01*
X630624Y231405D01*
X630652Y231419D01*
X630688Y231454D01*
X630695Y231475D01*
X630737Y231489D01*
X630779Y231475D01*
X630814Y231510D01*
X630828Y231538D01*
X630877Y231573D01*
X630905Y231616D01*
X630934Y231630D01*
X630955Y231651D01*
X630941Y231735D01*
X630877Y231756D01*
X630020Y231742D01*
X629978Y231686D01*
X629879Y231672D01*
X629837Y231616D01*
X629682Y231602D01*
X629661Y231580D01*
X629647Y231552D01*
X629542Y231531D01*
X629499Y231475D01*
X629345Y231489D01*
X629324Y231552D01*
X629338Y231594D01*
X629359Y231616D01*
X629387Y231630D01*
X629401Y231798D01*
X629464Y231848D01*
X629478Y231946D01*
X629528Y231981D01*
X629535Y232073D01*
X629521Y232087D01*
X629563Y232157D01*
X629591Y232171D01*
X629605Y232227D01*
X629591Y232312D01*
X629626Y232361D01*
X629654Y232375D01*
X629668Y232459D01*
X629682Y232487D01*
X629710Y232501D01*
X629731Y232523D01*
X629745Y232621D01*
X629851Y232642D01*
X629872Y232663D01*
X629886Y232691D01*
X629992Y232712D01*
X630013Y232733D01*
X630027Y232762D01*
X630132Y232783D01*
X630160Y232825D01*
X630217Y232839D01*
X630273Y232825D01*
X630329Y232839D01*
X630371Y232895D01*
X630413Y232909D01*
X630456Y232895D01*
X630526Y232909D01*
X630547Y232930D01*
X630561Y232958D01*
X630730Y232972D01*
X630779Y233036D01*
X631004Y233050D01*
X631025Y233071D01*
X631039Y233099D01*
X631932Y233106D01*
X631953Y233085D01*
X631967Y233057D01*
X631988Y233036D01*
X632220Y233043D01*
X632234Y233071D01*
X632269Y233106D01*
X632291Y233113D01*
X632305Y233169D01*
X632298Y233233D01*
X632305Y233296D01*
X632291Y233338D01*
X632276Y233422D01*
X632248Y233451D01*
X632234Y233507D01*
X632192Y233577D01*
X632115Y233654D01*
X632087Y233668D01*
X632044Y233711D01*
X631974Y233753D01*
X631946Y233781D01*
X631918Y233795D01*
X631862Y233851D01*
X631834Y233865D01*
X631819Y233893D01*
X631791Y233908D01*
X631735Y233964D01*
X631707Y233978D01*
X631651Y234034D01*
X631552Y234048D01*
X631369Y234034D01*
X631348Y234013D01*
X631334Y233985D01*
X631166Y233971D01*
X631116Y233908D01*
X630891Y233893D01*
X630856Y233844D01*
X630814Y233816D01*
X630800Y233788D01*
X630737Y233767D01*
X630681Y233781D01*
X630624Y233767D01*
X630589Y233718D01*
X630505Y233704D01*
X630336Y233535D01*
X630329Y233514D01*
X630217Y233486D01*
X630195Y233465D01*
X630188Y233443D01*
X630160Y233429D01*
X630139Y233408D01*
X630125Y233380D01*
X630020Y233359D01*
X629985Y233310D01*
X629949Y233303D01*
X629928Y233324D01*
X629942Y233549D01*
X629935Y233879D01*
X629963Y233908D01*
X629992Y233922D01*
X630013Y233985D01*
X629999Y234027D01*
X630013Y234224D01*
X630118Y234329D01*
X630139Y234336D01*
X630153Y234435D01*
X630174Y234456D01*
X630202Y234470D01*
X630217Y234765D01*
X630245Y234793D01*
X630266Y234800D01*
X630280Y234857D01*
X630266Y234941D01*
X630301Y234990D01*
X630329Y235004D01*
X630364Y235053D01*
X630456Y235061D01*
X630484Y235046D01*
X630533Y235068D01*
X630547Y235096D01*
X630582Y235131D01*
X630772Y235124D01*
X630814Y235152D01*
X630821Y235173D01*
X630849Y235187D01*
X630884Y235222D01*
X630870Y235250D01*
X630849Y235271D01*
X630793Y235257D01*
X630765Y235271D01*
X630744Y235293D01*
X630730Y235321D01*
X630624Y235342D01*
X630589Y235391D01*
X630484Y235412D01*
X630448Y235461D01*
X630371Y235468D01*
X630329Y235454D01*
X630301Y235468D01*
X630266Y235503D01*
X630259Y235525D01*
X630202Y235539D01*
X630160Y235525D01*
X630020Y235539D01*
X629978Y235595D01*
X629879Y235609D01*
X629809Y235693D01*
X629696Y235806D01*
X629633Y235799D01*
X629521Y235911D01*
X629514Y235932D01*
X629415Y235946D01*
X629394Y235967D01*
X629380Y235996D01*
X629310Y236024D01*
X629275Y236059D01*
X629183Y236080D01*
X629127Y236094D01*
X629057Y236122D01*
X628944Y236164D01*
X628888Y236178D01*
X628761Y236192D01*
X628248Y236199D01*
D02*
G37*
G36*
X632508Y243891D02*
X632494Y243778D01*
X632431Y243729D01*
X632417Y243166D01*
X632396Y243145D01*
X632368Y243131D01*
X632361Y242576D01*
X632375Y242534D01*
X632326Y242471D01*
X632305Y242463D01*
X632291Y242407D01*
X632305Y242351D01*
X632291Y241957D01*
X632269Y241936D01*
X632241Y241922D01*
X632227Y240952D01*
X632199Y240924D01*
X632171Y240910D01*
X632157Y240277D01*
X632129Y240249D01*
X632101Y240235D01*
X632087Y239124D01*
X632023Y239075D01*
X632030Y238407D01*
X632002Y238365D01*
X631974Y238351D01*
X631953Y238287D01*
X631967Y238245D01*
X631953Y237162D01*
X631904Y237127D01*
X631890Y235820D01*
X631826Y235771D01*
X631841Y234604D01*
X631862Y234582D01*
X631890Y234568D01*
X631911Y234463D01*
X631932Y234442D01*
X631960Y234428D01*
X631967Y234379D01*
X631953Y234364D01*
X631988Y234315D01*
X632016Y234301D01*
X632094Y234224D01*
X632136Y234154D01*
X632157Y234133D01*
X632368Y234020D01*
X632403Y233971D01*
X632466Y233908D01*
X632537Y233865D01*
X632614Y233802D01*
X632691Y233767D01*
X632719Y233753D01*
X632958Y233640D01*
X633015Y233626D01*
X633057Y233584D01*
X633134Y233563D01*
X633183Y233528D01*
X633254Y233500D01*
X633338Y233514D01*
X633387Y233465D01*
X633394Y233443D01*
X633451Y233429D01*
X633507Y233443D01*
X633563Y233429D01*
X633584Y233408D01*
X633598Y233380D01*
X633893Y233366D01*
X633921Y233338D01*
X633936Y233310D01*
X634041Y233289D01*
X634076Y233240D01*
X634301Y233225D01*
X634329Y233197D01*
X634336Y233176D01*
X634393Y233162D01*
X634407Y233176D01*
X634456Y233141D01*
X634470Y233113D01*
X634533Y233092D01*
X634575Y233106D01*
X634716Y233092D01*
X634751Y233043D01*
X634906Y233029D01*
X634934Y233001D01*
X634948Y232972D01*
X635117Y232958D01*
X635166Y232895D01*
X635257Y232888D01*
X635271Y232860D01*
X635307Y232825D01*
X635496Y232832D01*
X635538Y232804D01*
X635553Y232776D01*
X635658Y232754D01*
X635700Y232698D01*
X635855Y232684D01*
X635876Y232663D01*
X635890Y232635D01*
X635995Y232614D01*
X636017Y232593D01*
X636031Y232565D01*
X636122Y232558D01*
X636150Y232572D01*
X636213Y232537D01*
X636228Y232508D01*
X636249Y232487D01*
X636312Y232494D01*
X636340Y232480D01*
X636354Y232452D01*
X636375Y232431D01*
X636431Y232417D01*
X636474Y232431D01*
X636530Y232417D01*
X636551Y232396D01*
X636565Y232368D01*
X636670Y232347D01*
X636692Y232326D01*
X636706Y232297D01*
X636811Y232276D01*
X636846Y232227D01*
X636945Y232213D01*
X636966Y232164D01*
X637022Y232150D01*
X637050Y232164D01*
X637099Y232115D01*
X637106Y232094D01*
X637205Y232080D01*
X637226Y232059D01*
X637240Y232030D01*
X637409Y232016D01*
X637458Y231953D01*
X637549Y231946D01*
X637563Y231918D01*
X637598Y231883D01*
X637690Y231876D01*
X637711Y231826D01*
X637767Y231812D01*
X637781Y231826D01*
X637830Y231791D01*
X637845Y231763D01*
X637950Y231742D01*
X637971Y231721D01*
X637985Y231693D01*
X638034Y231658D01*
X638062Y231616D01*
X638224Y231609D01*
X638238Y231580D01*
X638344Y231475D01*
X638407Y231482D01*
X638449Y231440D01*
X638456Y231419D01*
X638555Y231405D01*
X638576Y231384D01*
X638590Y231356D01*
X638695Y231334D01*
X638730Y231285D01*
X638836Y231264D01*
X638871Y231215D01*
X638913Y231187D01*
X638927Y231159D01*
X638948Y231137D01*
X639011Y231144D01*
X639040Y231131D01*
X639054Y231102D01*
X639145Y231011D01*
X639229Y230997D01*
X639251Y230976D01*
X639265Y230948D01*
X639440Y230941D01*
X639447Y230990D01*
X639426Y231011D01*
X639398Y231025D01*
X639377Y231046D01*
X639391Y231173D01*
X639342Y231222D01*
X639321Y231229D01*
X639307Y231327D01*
X639286Y231348D01*
X639258Y231363D01*
X639236Y231468D01*
X639187Y231503D01*
X639166Y231609D01*
X639117Y231644D01*
X639110Y231721D01*
X639124Y231763D01*
X639075Y231826D01*
X639054Y231834D01*
X639040Y231876D01*
X639054Y231918D01*
X639019Y231953D01*
X638990Y231967D01*
X638969Y232030D01*
X638983Y232073D01*
X638969Y232143D01*
X638920Y232178D01*
X638906Y232276D01*
X638878Y232291D01*
X638843Y232312D01*
X638829Y232410D01*
X638808Y232431D01*
X638779Y232445D01*
X638772Y232537D01*
X638787Y232579D01*
X638751Y232628D01*
X638723Y232642D01*
X638702Y232663D01*
X638709Y232726D01*
X638695Y232754D01*
X638667Y232769D01*
X638646Y232790D01*
X638632Y232888D01*
X638576Y232916D01*
X638562Y233015D01*
X638541Y233036D01*
X638512Y233050D01*
X638498Y233219D01*
X638435Y233268D01*
X638421Y233366D01*
X638372Y233401D01*
X638365Y233436D01*
X638379Y233465D01*
X638358Y233500D01*
X638308Y233521D01*
X638294Y233591D01*
X638308Y233633D01*
X638294Y233689D01*
X638273Y233711D01*
X638245Y233725D01*
X638224Y233830D01*
X638175Y233865D01*
X638147Y233908D01*
X638119Y233922D01*
X638098Y233943D01*
X638091Y234034D01*
X638062Y234048D01*
X638027Y234083D01*
X638041Y234210D01*
X637992Y234259D01*
X637971Y234266D01*
X637957Y234364D01*
X637936Y234385D01*
X637908Y234400D01*
X637887Y234505D01*
X637838Y234540D01*
X637816Y234646D01*
X637767Y234681D01*
X637753Y234779D01*
X637704Y234800D01*
X637690Y234842D01*
X637704Y234885D01*
X637669Y234920D01*
X637641Y234934D01*
X637619Y235039D01*
X637598Y235061D01*
X637570Y235074D01*
X637549Y235180D01*
X637500Y235215D01*
X637479Y235321D01*
X637430Y235356D01*
X637416Y235454D01*
X637366Y235475D01*
X637352Y235517D01*
X637366Y235560D01*
X637331Y235595D01*
X637303Y235609D01*
X637282Y235672D01*
X637296Y235714D01*
X637282Y235785D01*
X637233Y235820D01*
X637205Y235862D01*
X637177Y235876D01*
X637155Y235897D01*
X637141Y235996D01*
X637092Y236031D01*
X637078Y236129D01*
X637029Y236150D01*
X637015Y236192D01*
X637029Y236234D01*
X636994Y236270D01*
X636966Y236284D01*
X636945Y236389D01*
X636924Y236410D01*
X636895Y236424D01*
X636874Y236530D01*
X636825Y236565D01*
X636797Y236607D01*
X636769Y236621D01*
X636748Y236642D01*
X636741Y236734D01*
X636713Y236748D01*
X636678Y236783D01*
X636692Y236839D01*
X636670Y236874D01*
X636621Y236895D01*
X636607Y236994D01*
X636586Y237015D01*
X636558Y237029D01*
X636537Y237134D01*
X636516Y237156D01*
X636488Y237170D01*
X636467Y237275D01*
X636417Y237310D01*
X636403Y237409D01*
X636375Y237423D01*
X636340Y237458D01*
X636354Y237514D01*
X636235Y237634D01*
X636213Y237641D01*
X636199Y237739D01*
X636178Y237760D01*
X636150Y237774D01*
X636129Y237880D01*
X636080Y237915D01*
X636059Y238020D01*
X636010Y238055D01*
X636002Y238076D01*
X636017Y238119D01*
X635995Y238154D01*
X635967Y238168D01*
X635946Y238189D01*
X635932Y238273D01*
X635897Y238309D01*
X635876Y238316D01*
X635862Y238414D01*
X635841Y238435D01*
X635820Y238442D01*
X635806Y238470D01*
X635771Y238505D01*
X635742Y238519D01*
X635721Y238625D01*
X635679Y238653D01*
X635665Y238695D01*
X635679Y238723D01*
X635644Y238773D01*
X635616Y238787D01*
X635595Y238892D01*
X635546Y238927D01*
X635532Y239012D01*
X635433Y239110D01*
X635412Y239117D01*
X635384Y239229D01*
X635363Y239251D01*
X635342Y239258D01*
X635328Y239300D01*
X635342Y239342D01*
X635307Y239377D01*
X635278Y239391D01*
X635257Y239497D01*
X635208Y239532D01*
X635180Y239574D01*
X635152Y239588D01*
X635131Y239609D01*
X635124Y239701D01*
X635096Y239715D01*
X635061Y239750D01*
X635046Y239834D01*
X634955Y239926D01*
X634934Y239932D01*
X634920Y240031D01*
X634899Y240052D01*
X634871Y240066D01*
X634850Y240172D01*
X634829Y240193D01*
X634800Y240207D01*
X634779Y240312D01*
X634730Y240347D01*
X634702Y240389D01*
X634674Y240404D01*
X634653Y240425D01*
X634667Y240481D01*
X634646Y240516D01*
X634596Y240537D01*
X634582Y240635D01*
X634477Y240741D01*
X634456Y240748D01*
X634442Y240846D01*
X634421Y240867D01*
X634400Y240875D01*
X634385Y240903D01*
X634350Y240938D01*
X634329Y240945D01*
X634315Y240987D01*
X634329Y241029D01*
X634294Y241064D01*
X634266Y241078D01*
X634245Y241184D01*
X634196Y241219D01*
X634175Y241324D01*
X634125Y241360D01*
X634048Y241437D01*
X634041Y241528D01*
X633992Y241549D01*
X633978Y241592D01*
X633992Y241634D01*
X633957Y241669D01*
X633929Y241683D01*
X633893Y241732D01*
X633851Y241760D01*
X633837Y241859D01*
X633788Y241894D01*
X633767Y241999D01*
X633718Y242035D01*
X633689Y242077D01*
X633661Y242091D01*
X633640Y242126D01*
X633654Y242168D01*
X633633Y242203D01*
X633605Y242217D01*
X633563Y242260D01*
X633556Y242267D01*
X633514Y242309D01*
X633500Y242393D01*
X633479Y242414D01*
X633451Y242428D01*
X633429Y242534D01*
X633408Y242555D01*
X633387Y242562D01*
X633373Y242590D01*
X633352Y242611D01*
X633324Y242625D01*
X633303Y242660D01*
X633317Y242703D01*
X633303Y242731D01*
X633282Y242752D01*
X633254Y242766D01*
X633218Y242815D01*
X633176Y242843D01*
X633162Y242941D01*
X633113Y242977D01*
X633085Y243019D01*
X633057Y243033D01*
X633036Y243054D01*
X633029Y243145D01*
X633001Y243160D01*
X632965Y243195D01*
X632979Y243251D01*
X632860Y243370D01*
X632839Y243377D01*
X632825Y243476D01*
X632804Y243497D01*
X632776Y243511D01*
X632755Y243616D01*
X632698Y243659D01*
X632684Y243687D01*
X632642Y243715D01*
X632635Y243750D01*
X632642Y243785D01*
X632621Y243820D01*
X632593Y243834D01*
X632572Y243856D01*
X632558Y243884D01*
X632508Y243891D01*
D02*
G37*
G36*
X611755Y221703D02*
X611600Y221689D01*
X611579Y221668D01*
X611565Y221569D01*
X611516Y221534D01*
X611502Y221506D01*
X611474Y221492D01*
X611438Y221457D01*
X611431Y221436D01*
X611403Y221422D01*
X611368Y221386D01*
X611361Y221365D01*
X611333Y221351D01*
X611312Y221330D01*
X611298Y221232D01*
X611185Y221218D01*
X611171Y221161D01*
X611164Y221098D01*
X611115Y221077D01*
X611108Y221028D01*
X611115Y220993D01*
X611094Y220957D01*
X610981Y220943D01*
X610960Y220838D01*
X610820Y220697D01*
X610813Y220676D01*
X610785Y220662D01*
X610764Y220543D01*
X610707Y220416D01*
X610637Y220233D01*
X610581Y220107D01*
X610546Y220016D01*
X610525Y219994D01*
X610503Y219917D01*
X610475Y219847D01*
X610440Y219769D01*
X610419Y219678D01*
X610384Y219615D01*
X610370Y219559D01*
X610349Y219453D01*
X610321Y219383D01*
X610307Y219298D01*
X610292Y219186D01*
X610278Y219130D01*
X610243Y219010D01*
X610229Y218954D01*
X610194Y218792D01*
X610180Y218736D01*
X610166Y218652D01*
X610138Y218511D01*
X610103Y218391D01*
X610075Y218293D01*
X610018Y218166D01*
X610032Y218138D01*
X610082Y218131D01*
X610103Y218152D01*
X610089Y218237D01*
X610166Y218286D01*
X610194Y218328D01*
X610222Y218342D01*
X610243Y218448D01*
X610292Y218483D01*
X610756Y218947D01*
X610764Y218954D01*
X610778Y218996D01*
X610785Y219059D01*
X610827Y219073D01*
X610869Y219059D01*
X610904Y219080D01*
X610918Y219179D01*
X611080Y219340D01*
X611164Y219355D01*
X611185Y219376D01*
X611192Y219397D01*
X611221Y219411D01*
X611382Y219573D01*
X611396Y219601D01*
X611502Y219622D01*
X611523Y219643D01*
X611530Y219664D01*
X611558Y219678D01*
X611579Y219699D01*
X611593Y219727D01*
X611642Y219762D01*
X611656Y220803D01*
X611720Y220852D01*
X611727Y221351D01*
X611776Y221372D01*
X611790Y221429D01*
X611783Y221492D01*
X611790Y221654D01*
X611755Y221703D01*
D02*
G37*
G36*
X645248Y221773D02*
X645219Y221759D01*
X645198Y221738D01*
X645184Y221639D01*
X645198Y221105D01*
X645219Y221084D01*
X645248Y221070D01*
X645261Y219903D01*
X645606Y219559D01*
X645613Y219537D01*
X645712Y219523D01*
X645733Y219502D01*
X645740Y219481D01*
X645768Y219467D01*
X645803Y219432D01*
X645810Y219411D01*
X645838Y219397D01*
X646140Y219094D01*
X646147Y219073D01*
X646175Y219059D01*
X646281Y218954D01*
X646288Y218933D01*
X646316Y218919D01*
X646337Y218898D01*
X646344Y218806D01*
X646372Y218792D01*
X646443Y218722D01*
X646464Y218715D01*
X646478Y218673D01*
X646464Y218631D01*
X646513Y218581D01*
X646534Y218574D01*
X646548Y218546D01*
X646618Y218476D01*
X646625Y218455D01*
X646654Y218441D01*
X646675Y218377D01*
X646661Y218321D01*
X646675Y218279D01*
X646696Y218230D01*
X646738Y218216D01*
X646759Y218237D01*
X646738Y218427D01*
X646703Y218504D01*
X646675Y218602D01*
X646661Y218701D01*
X646618Y218799D01*
X646597Y218891D01*
X646583Y218947D01*
X646548Y219066D01*
X646520Y219179D01*
X646478Y219320D01*
X646464Y219376D01*
X646443Y219453D01*
X646421Y219516D01*
X646408Y219573D01*
X646358Y219706D01*
X646337Y219783D01*
X646281Y219924D01*
X646267Y219980D01*
X646246Y220058D01*
X646211Y220135D01*
X646189Y220240D01*
X646161Y220311D01*
X646140Y220374D01*
X646126Y220430D01*
Y220444D01*
X646119Y220451D01*
X646070Y220501D01*
X646056Y220529D01*
X646000Y220585D01*
X645986Y220669D01*
X645929Y220796D01*
X645915Y220922D01*
X645887Y220951D01*
X645859Y221021D01*
X645845Y221063D01*
X645824Y221084D01*
X645803Y221091D01*
X645789Y221119D01*
X645733Y221204D01*
X645718Y221260D01*
X645662Y221316D01*
X645648Y221344D01*
X645627Y221365D01*
X645599Y221379D01*
X645578Y221485D01*
X645472Y221506D01*
X645451Y221527D01*
X645458Y221590D01*
X645430Y221633D01*
X645402Y221646D01*
X645381Y221668D01*
X645374Y221689D01*
X645346Y221703D01*
X645325Y221724D01*
X645311Y221752D01*
X645248Y221773D01*
D02*
G37*
G36*
X645360Y218525D02*
X645198Y218518D01*
X645184Y218462D01*
X645191Y217639D01*
X645170Y217590D01*
X645121Y217555D01*
X645114Y217520D01*
Y217506D01*
X645121Y217456D01*
X645114Y217421D01*
X645128Y217379D01*
X645114Y217337D01*
X645079Y217302D01*
X645058Y217295D01*
X645044Y217238D01*
X645058Y217196D01*
X645044Y216985D01*
X644987Y216957D01*
X644973Y216859D01*
X644952Y216838D01*
X644924Y216824D01*
X644910Y216514D01*
X644882Y216500D01*
X644847Y216465D01*
X644833Y216381D01*
X644812Y216360D01*
X644791Y216353D01*
X644776Y216296D01*
X644791Y216212D01*
X644776Y216170D01*
X644791Y216114D01*
X644840Y216078D01*
X644868Y216036D01*
X644910Y216022D01*
X644952Y216036D01*
X644987Y216001D01*
X645001Y215973D01*
X645051Y215938D01*
X645079Y215896D01*
X645107Y215882D01*
X645128Y215832D01*
X645114Y215804D01*
X645135Y215769D01*
X645163Y215755D01*
X645198Y215720D01*
X645205Y215699D01*
X645233Y215685D01*
X645269Y215650D01*
X645276Y215629D01*
X645304Y215614D01*
X645325Y215593D01*
X645339Y215565D01*
X645388Y215530D01*
X645402Y215502D01*
X645430Y215488D01*
X645465Y215453D01*
X645472Y215432D01*
X645501Y215418D01*
X645536Y215383D01*
X645543Y215361D01*
X645571Y215347D01*
X645606Y215312D01*
X645613Y215291D01*
X645641Y215277D01*
X645662Y215256D01*
X645676Y215228D01*
X645725Y215193D01*
X645754Y215150D01*
X645782Y215136D01*
X645803Y215101D01*
X645789Y215059D01*
X645810Y215024D01*
X645838Y215010D01*
X646140Y214707D01*
X646126Y214651D01*
X646147Y214616D01*
X646260Y214602D01*
X646274Y214433D01*
X646302Y214405D01*
X646330Y214391D01*
X646372Y214335D01*
X646400Y214321D01*
X646421Y214215D01*
X646464Y214187D01*
X646478Y214159D01*
X646499Y214138D01*
X646527Y214124D01*
X646562Y214075D01*
X646604Y214047D01*
X646618Y214019D01*
X646668Y213983D01*
X646689Y213878D01*
X646738Y213843D01*
X646766Y213801D01*
X646794Y213787D01*
X646815Y213751D01*
X646801Y213709D01*
X646822Y213674D01*
X646850Y213660D01*
X646942Y213569D01*
X646956Y213484D01*
X647047Y213393D01*
X647068Y213386D01*
X647082Y213330D01*
X647068Y213245D01*
X647104Y213196D01*
X647132Y213182D01*
X647167Y213133D01*
X647209Y213105D01*
X647223Y213006D01*
X647272Y212971D01*
X647293Y212866D01*
X647342Y212830D01*
X647357Y212676D01*
X647385Y212648D01*
X647406Y212641D01*
X647420Y212613D01*
X647441Y212591D01*
X647469Y212577D01*
X647490Y212542D01*
X647476Y212500D01*
X647490Y212472D01*
X647511Y212451D01*
X647539Y212437D01*
X647561Y212387D01*
X647546Y212345D01*
X647561Y212205D01*
X647596Y212170D01*
X647617Y212162D01*
X647631Y212064D01*
X647666Y212057D01*
X647687Y212078D01*
X647701Y212134D01*
X647687Y212177D01*
X647701Y212655D01*
X647687Y212697D01*
X647673Y213189D01*
X647659Y213231D01*
X647617Y213611D01*
X647603Y213667D01*
X647582Y213899D01*
X647568Y214152D01*
X647553Y214279D01*
X647539Y214391D01*
X647511Y214560D01*
X647469Y214827D01*
X647455Y214883D01*
X647441Y214968D01*
X647427Y215038D01*
X647399Y215221D01*
X647364Y215509D01*
X647350Y215607D01*
X647335Y215664D01*
X647307Y215762D01*
X647293Y215861D01*
X647272Y215980D01*
X647258Y216050D01*
X647209Y216128D01*
X647202Y216219D01*
X647174Y216233D01*
X647139Y216268D01*
X647132Y216360D01*
X647104Y216374D01*
X647033Y216444D01*
X647012Y216451D01*
X646998Y216549D01*
X646907Y216641D01*
X646878Y216655D01*
X646857Y216760D01*
X646815Y216789D01*
X646801Y216817D01*
X646780Y216838D01*
X646752Y216852D01*
X646717Y216901D01*
X646675Y216929D01*
X646661Y217028D01*
X646611Y217063D01*
X646583Y217105D01*
X646555Y217119D01*
X646534Y217140D01*
X646520Y217238D01*
X646471Y217274D01*
X646457Y217302D01*
X646429Y217316D01*
X646393Y217351D01*
X646386Y217372D01*
X646358Y217386D01*
X646323Y217421D01*
X646316Y217442D01*
X646288Y217456D01*
X646267Y217477D01*
X646260Y217569D01*
X646232Y217583D01*
X645859Y217956D01*
X645852Y218047D01*
X645754Y218061D01*
X645683Y218131D01*
X645662Y218138D01*
X645648Y218237D01*
X645627Y218258D01*
X645606Y218265D01*
X645592Y218293D01*
X645416Y218469D01*
X645395Y218476D01*
X645381Y218504D01*
X645360Y218525D01*
D02*
G37*
G36*
X611628Y218469D02*
X611593Y218448D01*
X611579Y218420D01*
X611544Y218384D01*
X611523Y218377D01*
X611509Y218349D01*
X611206Y218047D01*
X611185Y218040D01*
X611171Y218012D01*
X610939Y217780D01*
X610911Y217766D01*
X610890Y217660D01*
X610785Y217639D01*
X610764Y217534D01*
X610742Y217513D01*
X610714Y217499D01*
X610679Y217449D01*
X610637Y217421D01*
X610623Y217393D01*
X610602Y217372D01*
X610574Y217358D01*
X610553Y217252D01*
X610503Y217217D01*
X610475Y217175D01*
X610447Y217161D01*
X610426Y217140D01*
X610419Y217119D01*
X610391Y217105D01*
X610356Y217070D01*
X610349Y217049D01*
X610321Y217035D01*
X610299Y217014D01*
X610285Y216985D01*
X610229Y216929D01*
X610215Y216873D01*
X610194Y216852D01*
X610173Y216845D01*
X610159Y216817D01*
X610103Y216760D01*
X610061Y216690D01*
X610032Y216662D01*
X610018Y216606D01*
X609962Y216549D01*
X609941Y216472D01*
X609906Y216437D01*
X609892Y216409D01*
X609871Y216374D01*
X609842Y216360D01*
X609807Y216311D01*
X609786Y216289D01*
X609765Y216282D01*
X609751Y216184D01*
X609744Y216177D01*
X609737Y216170D01*
X609695Y216142D01*
X609681Y216043D01*
X609632Y216008D01*
X609611Y215903D01*
X609561Y215867D01*
X609547Y215769D01*
X609519Y215755D01*
X609484Y215720D01*
X609470Y215692D01*
X609442Y215664D01*
X609428Y215607D01*
X609414Y215396D01*
X609400Y215354D01*
X609385Y215256D01*
X609372Y215200D01*
X609350Y215052D01*
X609336Y214939D01*
X609322Y214855D01*
X609301Y214665D01*
X609280Y214377D01*
X609266Y214194D01*
X609252Y213998D01*
X609238Y213773D01*
X609224Y213632D01*
X609217Y213400D01*
X609231Y213358D01*
X609210Y212816D01*
X609196Y212198D01*
X609189Y211966D01*
X609196Y211959D01*
X609287Y212008D01*
X609301Y212162D01*
X609357Y212219D01*
X609365Y212310D01*
X609414Y212331D01*
X609428Y212387D01*
X609414Y212472D01*
X609449Y212521D01*
X609477Y212535D01*
X609498Y212641D01*
X609547Y212676D01*
X609568Y212781D01*
X609625Y212809D01*
X609639Y212908D01*
X609660Y212929D01*
X609688Y212943D01*
X609709Y213048D01*
X609730Y213070D01*
X609751Y213076D01*
X609765Y213105D01*
X609786Y213126D01*
X609814Y213140D01*
X609835Y213245D01*
X609857Y213266D01*
X609885Y213280D01*
X609906Y213386D01*
X609955Y213421D01*
X609969Y213519D01*
X609997Y213533D01*
X610103Y213639D01*
X610096Y213688D01*
X610131Y213737D01*
X610264Y213871D01*
X610292Y213885D01*
X610314Y213990D01*
X610335Y214012D01*
X610356Y214019D01*
X610370Y214047D01*
X610405Y214082D01*
X610433Y214096D01*
X610440Y214145D01*
X610426Y214159D01*
X610461Y214208D01*
X610489Y214222D01*
X610532Y214279D01*
X610560Y214293D01*
X610602Y214349D01*
X610630Y214363D01*
X610651Y214469D01*
X610700Y214504D01*
X610728Y214546D01*
X610756Y214560D01*
X610778Y214581D01*
X610785Y214602D01*
X610813Y214616D01*
X610848Y214651D01*
X610855Y214672D01*
X610883Y214686D01*
X610904Y214707D01*
X610918Y214806D01*
X610967Y214841D01*
X611452Y215326D01*
X611459Y215418D01*
X611572Y215432D01*
X611593Y215537D01*
X611811Y215755D01*
X611895Y215769D01*
X611987Y215861D01*
X611994Y215952D01*
X612050Y215966D01*
X612113Y215973D01*
X612127Y216029D01*
X612113Y216282D01*
X612092Y216303D01*
X612064Y216318D01*
X612050Y216374D01*
X612057Y216465D01*
X612008Y216514D01*
X611987Y216521D01*
X611973Y216690D01*
X611952Y216711D01*
X611924Y216725D01*
X611909Y216964D01*
X611860Y216985D01*
X611846Y217042D01*
X611853Y217274D01*
X611839Y217302D01*
X611811Y217316D01*
X611776Y217351D01*
X611790Y217492D01*
X611783Y217667D01*
X611790Y217745D01*
X611741Y217794D01*
X611720Y217801D01*
X611706Y218448D01*
X611628Y218469D01*
D02*
G37*
G36*
X609182Y211959D02*
X609175Y211853D01*
Y211839D01*
X609182Y211804D01*
X609203Y211825D01*
X609182Y211959D01*
D02*
G37*
%LPD*%
G36*
X629464Y235433D02*
X629478Y235405D01*
X629584Y235384D01*
X629605Y235363D01*
X629619Y235264D01*
X629661Y235236D01*
X629675Y235180D01*
X629661Y235138D01*
X629668Y235032D01*
X629640Y234990D01*
X629345Y235004D01*
X629324Y235025D01*
X629317Y235046D01*
X629288Y235061D01*
X629267Y235082D01*
X629253Y235180D01*
X629204Y235215D01*
X629197Y235447D01*
X629204Y235454D01*
X629260Y235468D01*
X629338Y235461D01*
X629429Y235468D01*
X629464Y235433D01*
D02*
G37*
G36*
X627369Y235377D02*
Y235321D01*
Y235307D01*
X627355Y235138D01*
X627334Y235117D01*
X627313Y235110D01*
X627299Y235082D01*
X627264Y235046D01*
X627243Y235039D01*
X627229Y235011D01*
X627208Y234990D01*
X626983Y235004D01*
X626926Y235061D01*
X626905Y235068D01*
X626919Y235124D01*
X626968Y235159D01*
X626975Y235208D01*
X626962Y235250D01*
X626975Y235307D01*
X626997Y235328D01*
X627025Y235342D01*
X627060Y235391D01*
X627348Y235398D01*
X627369Y235377D01*
D02*
G37*
G36*
X622771Y225197D02*
X622785Y225169D01*
X622821Y225134D01*
X623952Y225141D01*
X624002Y225106D01*
X624016Y225077D01*
X624072Y225063D01*
X624128Y225077D01*
X624698Y225070D01*
X624775Y225077D01*
X624810Y225042D01*
X624824Y225014D01*
X625267Y224993D01*
X625309Y224937D01*
X625338Y224923D01*
X625359Y224817D01*
X625380Y224796D01*
X625408Y224782D01*
X625429Y224677D01*
X625478Y224641D01*
X625492Y224416D01*
X625520Y224388D01*
X625548Y224374D01*
X625555Y224086D01*
X625541Y224044D01*
X625576Y223995D01*
X625605Y223981D01*
X625626Y223917D01*
X625612Y223861D01*
X625619Y223502D01*
X625612Y223425D01*
X625633Y223390D01*
X625731Y223376D01*
X625752Y223355D01*
X625766Y223327D01*
X625823Y223313D01*
X625928Y223320D01*
X625949Y223299D01*
X625963Y223271D01*
X625984Y223249D01*
X626083Y223235D01*
X626118Y223186D01*
X626216Y223172D01*
X626237Y223123D01*
X626294Y223109D01*
X626378Y223123D01*
X626427Y223088D01*
X626441Y223060D01*
X626490Y223025D01*
X626519Y222982D01*
X626617Y222968D01*
X626659Y222912D01*
X626687Y222898D01*
X626708Y222793D01*
X626729Y222771D01*
X626758Y222757D01*
X626765Y222666D01*
X626744Y222645D01*
X626715Y222631D01*
X626694Y222610D01*
X626701Y222490D01*
X626666Y222441D01*
X626589Y222364D01*
X626448Y222378D01*
X626132Y222371D01*
X626090Y222399D01*
X626076Y222427D01*
X626019Y222469D01*
X626005Y222497D01*
X625977Y222511D01*
X625970Y222518D01*
X625949Y222539D01*
X625935Y222568D01*
X625830Y222589D01*
X625794Y222638D01*
X625752Y222666D01*
X625738Y222694D01*
X625717Y222715D01*
X625626Y222722D01*
X625612Y222750D01*
X625576Y222785D01*
X625436Y222771D01*
X625394Y222785D01*
X625359Y222764D01*
X625345Y222736D01*
X625309Y222701D01*
X625288Y222694D01*
X625274Y222666D01*
X625239Y222631D01*
X625218Y222624D01*
X625204Y222596D01*
X625169Y222561D01*
X625148Y222553D01*
X625134Y222525D01*
X625112Y222504D01*
X625091Y222497D01*
X625077Y222469D01*
X625042Y222434D01*
X625021Y222427D01*
X625007Y222399D01*
X624972Y222364D01*
X624951Y222357D01*
X624937Y222328D01*
X624916Y222307D01*
X624817Y222293D01*
X624789Y222237D01*
X624691Y222223D01*
X624670Y222202D01*
X624655Y222174D01*
X624550Y222153D01*
X624529Y222132D01*
X624522Y222111D01*
X624494Y222096D01*
X624473Y222075D01*
X624459Y222047D01*
X624424Y222026D01*
X624381Y222040D01*
X624353Y222026D01*
X624332Y222005D01*
X624318Y221977D01*
X624213Y221956D01*
X624178Y221907D01*
X624023Y221893D01*
X623995Y221864D01*
X623981Y221836D01*
X623875Y221815D01*
X623854Y221794D01*
X623847Y221773D01*
X623791Y221759D01*
X623629Y221766D01*
X623601Y221752D01*
X623587Y221724D01*
X623552Y221689D01*
X623425Y221703D01*
X623390Y221668D01*
X623376Y221639D01*
X623151Y221625D01*
X623123Y221611D01*
X623109Y221583D01*
X623088Y221562D01*
X622933Y221548D01*
X622912Y221527D01*
X622898Y221499D01*
X622659Y221485D01*
X622645Y221457D01*
X622610Y221422D01*
X622420Y221429D01*
X622378Y221400D01*
X622364Y221372D01*
X622300Y221351D01*
X622258Y221365D01*
X622132Y221351D01*
X622096Y221316D01*
X622089Y221295D01*
X621780Y221281D01*
X621745Y221232D01*
X621379Y221218D01*
X621365Y221189D01*
X621330Y221154D01*
X621035Y221140D01*
X620993Y221084D01*
X620662Y221091D01*
X620634Y221077D01*
X620620Y221049D01*
X620599Y221028D01*
X620543Y221014D01*
X620501Y221028D01*
X620304Y221014D01*
X620283Y220993D01*
X620269Y220965D01*
X619903Y220951D01*
X619854Y220887D01*
X619488Y220873D01*
X619446Y220817D01*
X619080Y220803D01*
X619045Y220754D01*
X618968Y220747D01*
X618954Y220761D01*
X618912Y220747D01*
X618708Y220754D01*
X618666Y220725D01*
X618652Y220697D01*
X618588Y220676D01*
X618546Y220690D01*
X618209Y220676D01*
X618174Y220627D01*
X616732Y220620D01*
X616711Y220641D01*
X616697Y220669D01*
X616676Y220690D01*
X616486Y220683D01*
X616444Y220711D01*
X616430Y220740D01*
X616395Y220761D01*
X616353Y220747D01*
X616325Y220761D01*
X616303Y220782D01*
X616289Y220810D01*
X616184Y220831D01*
X616149Y220880D01*
X616043Y220901D01*
X616008Y220951D01*
X615931Y221028D01*
X615839Y221035D01*
X615825Y221063D01*
X615488Y221400D01*
X615481Y221422D01*
X615425Y221436D01*
X615382Y221422D01*
X615340Y221436D01*
X615291Y221400D01*
X615277Y221372D01*
X615256Y221351D01*
X615235Y221344D01*
X615221Y221316D01*
X615200Y221295D01*
X615101Y221281D01*
X615066Y221232D01*
X614989Y221154D01*
X614897Y221147D01*
X614876Y221098D01*
X614820Y221084D01*
X614736Y221098D01*
X614686Y221063D01*
X614672Y221035D01*
X614609Y221014D01*
X614567Y221028D01*
X614054Y221021D01*
X614011Y221049D01*
X613998Y221077D01*
X613962Y221098D01*
X613920Y221084D01*
X613892Y221098D01*
X613857Y221147D01*
X613836Y221168D01*
X613815Y221176D01*
X613801Y221204D01*
X613779Y221225D01*
X613751Y221239D01*
X613716Y221288D01*
X613674Y221316D01*
X613660Y221344D01*
X613639Y221365D01*
X613618Y221372D01*
X613604Y221400D01*
X613569Y221436D01*
X613541Y221450D01*
X613533Y221527D01*
X613548Y221569D01*
X613512Y221633D01*
X613484Y221646D01*
X613463Y221668D01*
X613477Y221850D01*
X613470Y222265D01*
X613498Y222307D01*
X613526Y222321D01*
X613548Y222385D01*
X613533Y222427D01*
X613548Y222483D01*
X613583Y222518D01*
X613604Y222525D01*
X613618Y222624D01*
X613639Y222645D01*
X613660Y222652D01*
X613674Y222680D01*
X613709Y222715D01*
X613730Y222722D01*
X613744Y222750D01*
X613765Y222771D01*
X613864Y222785D01*
X613892Y222842D01*
X613990Y222856D01*
X614026Y222891D01*
X614033Y222912D01*
X614131Y222898D01*
X614152Y222877D01*
X614166Y222849D01*
X614272Y222828D01*
X614307Y222778D01*
X614349Y222750D01*
X614335Y222314D01*
X614229Y222293D01*
X614208Y222272D01*
X614194Y222244D01*
X614152Y222216D01*
X614145Y222181D01*
X614152Y222146D01*
X614131Y222111D01*
X614103Y222096D01*
X614082Y222075D01*
X614089Y221843D01*
X614117Y221829D01*
X614222Y221724D01*
X614229Y221703D01*
X614286Y221689D01*
X614328Y221703D01*
X614644Y221696D01*
X614686Y221724D01*
X614701Y221752D01*
X614736Y221773D01*
X614778Y221759D01*
X614813Y221780D01*
X614827Y221808D01*
X615059Y222040D01*
X615087Y222054D01*
X615094Y222202D01*
X615059Y222237D01*
X615031Y222251D01*
X615017Y222420D01*
X614954Y222469D01*
X614939Y222764D01*
X614919Y222785D01*
X614890Y222799D01*
X614883Y223088D01*
X614897Y223130D01*
X614862Y223179D01*
X614834Y223193D01*
X614813Y223256D01*
X614827Y223313D01*
X614820Y223756D01*
X614834Y223784D01*
X614883Y223805D01*
X614897Y223917D01*
X615010Y223931D01*
X615024Y223959D01*
X615059Y223995D01*
X615143Y224009D01*
X615165Y224030D01*
X615171Y224051D01*
X615284Y224079D01*
X615312Y224121D01*
X615340Y224135D01*
X615361Y224156D01*
X615375Y224184D01*
X615544Y224199D01*
X615593Y224262D01*
X615818Y224276D01*
X615839Y224297D01*
X615854Y224325D01*
X615959Y224346D01*
X615994Y224395D01*
X616142Y224402D01*
X616184Y224388D01*
X616212Y224402D01*
X616247Y224438D01*
X616254Y224459D01*
X616311Y224473D01*
X616367Y224459D01*
X616423Y224473D01*
X616444Y224494D01*
X616458Y224522D01*
X616613Y224536D01*
X616676Y224599D01*
X616971Y224613D01*
X617006Y224662D01*
X617231Y224677D01*
X617267Y224726D01*
X617323Y224740D01*
X617555Y224733D01*
X617597Y224775D01*
X617604Y224796D01*
X617660Y224810D01*
X617702Y224796D01*
X617913Y224810D01*
X617942Y224866D01*
X618307Y224881D01*
X618363Y224937D01*
X618722Y224944D01*
X618736Y224972D01*
X618771Y225007D01*
X619193Y225021D01*
X619214Y225042D01*
X619221Y225063D01*
X619277Y225077D01*
X619341Y225070D01*
X619643Y225077D01*
X619685Y225063D01*
X619748Y225098D01*
X619762Y225127D01*
X619826Y225148D01*
X619868Y225134D01*
X620951Y225148D01*
X620979Y225204D01*
X622771Y225197D01*
D02*
G37*
G36*
X633493Y225134D02*
X634625Y225141D01*
X634653Y225127D01*
X634674Y225077D01*
X634730Y225063D01*
X634786Y225077D01*
X636031Y225070D01*
X636108Y225077D01*
X636157Y225028D01*
X636164Y225007D01*
X636741Y224993D01*
X636783Y224937D01*
X637205Y224923D01*
X637261Y224866D01*
X637683Y224852D01*
X637704Y224831D01*
X637711Y224810D01*
X637767Y224796D01*
X637851Y224810D01*
X637901Y224775D01*
X637915Y224747D01*
X637978Y224726D01*
X638034Y224740D01*
X638252Y224733D01*
X638330Y224740D01*
X638365Y224719D01*
X638379Y224691D01*
X638400Y224670D01*
X638625Y224656D01*
X638646Y224634D01*
X638660Y224606D01*
X638955Y224592D01*
X638983Y224564D01*
X638998Y224536D01*
X639236Y224522D01*
X639286Y224459D01*
X639546Y224466D01*
X639588Y224438D01*
X639602Y224410D01*
X639665Y224388D01*
X639722Y224402D01*
X639778Y224388D01*
X639806Y224332D01*
X639869Y224325D01*
X639961Y224332D01*
X639996Y224297D01*
X640010Y224269D01*
X640235Y224255D01*
X640298Y224191D01*
X640523Y224177D01*
X640558Y224128D01*
X640635Y224121D01*
X640678Y224135D01*
X640727Y224114D01*
X640748Y224065D01*
X640804Y224051D01*
X640861Y224065D01*
X640987Y224051D01*
X641008Y224030D01*
X641022Y224002D01*
X641247Y223988D01*
X641275Y223959D01*
X641289Y223931D01*
X641395Y223910D01*
X641416Y223889D01*
X641430Y223861D01*
X641535Y223840D01*
X641571Y223791D01*
X641648Y223784D01*
X641690Y223798D01*
X641718Y223784D01*
X641880Y223622D01*
X641873Y222856D01*
X641845Y222842D01*
X641810Y222807D01*
X641817Y222420D01*
X641775Y222364D01*
X641753Y222357D01*
X641739Y222300D01*
X641753Y222216D01*
X641739Y222174D01*
X641746Y221928D01*
X641739Y221879D01*
X641775Y221829D01*
X641803Y221815D01*
X641838Y221766D01*
X641887Y221759D01*
X641901Y221773D01*
X641950Y221738D01*
X641964Y221710D01*
X642028Y221689D01*
X642070Y221703D01*
X642386Y221696D01*
X642555Y221864D01*
X642541Y222160D01*
X642492Y222195D01*
X642463Y222237D01*
X642435Y222251D01*
X642414Y222272D01*
X642400Y222300D01*
X642295Y222321D01*
X642288Y222750D01*
X642323Y222785D01*
X642344Y222793D01*
X642358Y222821D01*
X642379Y222842D01*
X642478Y222856D01*
X642520Y222912D01*
X642604Y222898D01*
X642625Y222877D01*
X642632Y222856D01*
X642688Y222842D01*
X642766Y222849D01*
X642815Y222828D01*
X642850Y222778D01*
X642892Y222750D01*
X642906Y222722D01*
X642956Y222687D01*
X642984Y222645D01*
X643012Y222631D01*
X643033Y222610D01*
X643047Y222511D01*
X643096Y222476D01*
X643103Y222455D01*
X643089Y222413D01*
X643110Y222378D01*
X643159Y222357D01*
X643166Y222307D01*
X643159Y221639D01*
X643174Y221625D01*
X643138Y221562D01*
X643110Y221548D01*
X643089Y221527D01*
X643096Y221464D01*
X643082Y221436D01*
X643054Y221422D01*
X642963Y221330D01*
X642948Y221232D01*
X642843Y221211D01*
X642752Y221119D01*
X642745Y221098D01*
X642688Y221084D01*
X642604Y221098D01*
X642555Y221063D01*
X642541Y221035D01*
X642478Y221014D01*
X642435Y221028D01*
X641992Y221021D01*
X641950Y221049D01*
X641936Y221077D01*
X641831Y221098D01*
X641810Y221119D01*
X641796Y221147D01*
X641739Y221161D01*
X641648Y221154D01*
X641599Y221204D01*
X641592Y221225D01*
X641493Y221239D01*
X641472Y221260D01*
X641458Y221288D01*
X641240Y221295D01*
X640924Y220979D01*
X640917Y220957D01*
X640818Y220943D01*
X640797Y220922D01*
X640783Y220894D01*
X640678Y220873D01*
X640643Y220824D01*
X640600Y220796D01*
X640586Y220768D01*
X640565Y220747D01*
X640432Y220754D01*
X640404Y220740D01*
X640382Y220690D01*
X640326Y220676D01*
X640270Y220690D01*
X640214Y220676D01*
X640193Y220655D01*
X640179Y220627D01*
X640010Y220613D01*
X639961Y220550D01*
X638245Y220564D01*
X638210Y220613D01*
X637718Y220627D01*
X637690Y220655D01*
X637683Y220676D01*
X637627Y220690D01*
X637268Y220683D01*
X637226Y220711D01*
X637212Y220740D01*
X637149Y220761D01*
X637092Y220747D01*
X636931Y220754D01*
X636853Y220747D01*
X636818Y220782D01*
X636804Y220810D01*
X636509Y220824D01*
X636495Y220838D01*
X636488Y220845D01*
X636459Y220887D01*
X636221Y220901D01*
X636185Y220951D01*
X635890Y220965D01*
X635841Y221028D01*
X635651Y221021D01*
X635609Y221049D01*
X635595Y221077D01*
X635532Y221098D01*
X635475Y221084D01*
X635349Y221098D01*
X635307Y221154D01*
X635257Y221161D01*
X635166Y221154D01*
X635131Y221189D01*
X635117Y221218D01*
X634878Y221232D01*
X634829Y221295D01*
X634674Y221309D01*
X634653Y221330D01*
X634646Y221351D01*
X634589Y221365D01*
X634428Y221358D01*
X634400Y221372D01*
X634385Y221400D01*
X634350Y221436D01*
X634224Y221422D01*
X634189Y221457D01*
X634175Y221485D01*
X634006Y221499D01*
X633957Y221562D01*
X633802Y221576D01*
X633781Y221597D01*
X633774Y221618D01*
X633718Y221633D01*
X633591Y221646D01*
X633549Y221703D01*
X633415Y221696D01*
X633387Y221710D01*
X633373Y221738D01*
X633352Y221759D01*
X633317Y221766D01*
X633282Y221759D01*
X633233Y221808D01*
X633225Y221829D01*
X633127Y221843D01*
X633106Y221864D01*
X633092Y221893D01*
X632923Y221907D01*
X632874Y221970D01*
X632783Y221977D01*
X632769Y222005D01*
X632733Y222040D01*
X632614Y222033D01*
X632572Y222061D01*
X632558Y222089D01*
X632452Y222111D01*
X632431Y222132D01*
X632417Y222160D01*
X632312Y222181D01*
X632276Y222230D01*
X632171Y222251D01*
X632136Y222300D01*
X632058Y222378D01*
X631974Y222392D01*
X631883Y222483D01*
X631876Y222504D01*
X631777Y222518D01*
X631756Y222539D01*
X631749Y222561D01*
X631721Y222574D01*
X631686Y222610D01*
X631679Y222631D01*
X631651Y222645D01*
X631616Y222680D01*
X631609Y222701D01*
X631580Y222715D01*
X631545Y222750D01*
X631538Y222771D01*
X631510Y222785D01*
X631475Y222821D01*
X631468Y222842D01*
X631440Y222856D01*
X631419Y222877D01*
X631405Y222905D01*
X631243Y222912D01*
X631222Y222891D01*
X631208Y222863D01*
X631187Y222842D01*
X631095Y222835D01*
X631081Y222807D01*
X630920Y222645D01*
X630835Y222631D01*
X630744Y222539D01*
X630730Y222511D01*
X630624Y222490D01*
X630603Y222469D01*
X630596Y222448D01*
X630568Y222434D01*
X630533Y222399D01*
X630526Y222378D01*
X630470Y222364D01*
X630413Y222378D01*
X630111Y222371D01*
X630069Y222399D01*
X630055Y222427D01*
X630020Y222448D01*
X629978Y222434D01*
X629942Y222455D01*
X629928Y222511D01*
X629942Y222568D01*
X629928Y222624D01*
X629907Y222645D01*
X629879Y222659D01*
X629858Y222722D01*
X629893Y222771D01*
X629921Y222785D01*
X629942Y222807D01*
X629935Y222870D01*
X629963Y222912D01*
X629992Y222926D01*
X630034Y222982D01*
X630132Y222996D01*
X630174Y223053D01*
X630195Y223060D01*
X630209Y223088D01*
X630231Y223109D01*
X630287Y223123D01*
X630329Y223109D01*
X630385Y223123D01*
X630420Y223158D01*
X630428Y223179D01*
X630526Y223193D01*
X630547Y223214D01*
X630561Y223242D01*
X630730Y223256D01*
X630779Y223320D01*
X630870Y223327D01*
X630884Y223355D01*
X630920Y223390D01*
X631004Y223404D01*
X631025Y223425D01*
X631032Y223446D01*
X631060Y223460D01*
X631081Y223481D01*
X631095Y224044D01*
X631116Y224065D01*
X631145Y224079D01*
X631159Y224374D01*
X631187Y224402D01*
X631215Y224416D01*
X631229Y224656D01*
X631257Y224670D01*
X631292Y224705D01*
X631285Y224768D01*
X631454Y224937D01*
X631609Y224951D01*
X631630Y224972D01*
X631644Y225000D01*
X632220Y225014D01*
X632234Y225042D01*
X632269Y225077D01*
X632361Y225070D01*
X633282Y225077D01*
X633324Y225063D01*
X633352Y225077D01*
X633387Y225113D01*
X633394Y225134D01*
X633451Y225148D01*
X633493Y225134D01*
D02*
G37*
G36*
X628979Y220465D02*
X629000Y220444D01*
X629007Y220423D01*
X629064Y220409D01*
X629113Y220416D01*
X629162Y220409D01*
X629204Y220423D01*
X629253Y220402D01*
X629267Y220374D01*
X629288Y220353D01*
X629345Y220339D01*
X629387Y220353D01*
X629514Y220339D01*
X629535Y220318D01*
X629549Y220290D01*
X629717Y220276D01*
X629781Y220198D01*
X629837Y220142D01*
X629928Y220135D01*
X629949Y220086D01*
X630006Y220072D01*
X630034Y220086D01*
X630069Y220051D01*
X630083Y220023D01*
X630188Y220001D01*
X630209Y219980D01*
X630224Y219952D01*
X630329Y219931D01*
X630364Y219882D01*
X630406Y219854D01*
X630420Y219826D01*
X630442Y219805D01*
X630533Y219797D01*
X630547Y219769D01*
X630582Y219734D01*
X630603Y219727D01*
X630617Y219699D01*
X630638Y219678D01*
X630723Y219664D01*
X631327Y219059D01*
X631348Y219052D01*
X631362Y218954D01*
X631398Y218919D01*
X631419Y218912D01*
X631433Y218743D01*
X631454Y218722D01*
X631482Y218708D01*
X631489Y218616D01*
X631419Y218560D01*
X631412Y218469D01*
X631384Y218455D01*
X631348Y218420D01*
X631341Y218398D01*
X631285Y218384D01*
X631215Y218398D01*
X631173Y218384D01*
X630983Y218391D01*
X630920Y218384D01*
X630772Y218532D01*
X630765Y218539D01*
X630744Y218560D01*
X630737Y218652D01*
X630709Y218666D01*
X630301Y219073D01*
X630280Y219080D01*
X630273Y219116D01*
X630280Y219165D01*
X630245Y219200D01*
X630217Y219214D01*
X630181Y219263D01*
X630083Y219277D01*
X630069Y219305D01*
X629696Y219678D01*
X629612Y219692D01*
X629591Y219713D01*
X629584Y219734D01*
X629542Y219748D01*
X629499Y219734D01*
X629464Y219769D01*
X629450Y219797D01*
X629345Y219819D01*
X629324Y219840D01*
X629310Y219868D01*
X629204Y219889D01*
X629169Y219938D01*
X629071Y219952D01*
X629057Y219980D01*
X629021Y220016D01*
X628902Y220008D01*
X628860Y220037D01*
X628846Y220065D01*
X628782Y220086D01*
X628726Y220072D01*
X628157Y220079D01*
X628115Y220051D01*
X628100Y220023D01*
X628037Y220001D01*
X627995Y220016D01*
X627798Y220001D01*
X627777Y219980D01*
X627763Y219952D01*
X627658Y219931D01*
X627636Y219910D01*
X627622Y219882D01*
X627517Y219861D01*
X627475Y219805D01*
X627447Y219791D01*
X627404Y219734D01*
X627341Y219741D01*
X627313Y219727D01*
X627299Y219699D01*
X627278Y219678D01*
X627193Y219664D01*
X627032Y219502D01*
X627025Y219481D01*
X626912Y219453D01*
X626891Y219432D01*
X626884Y219411D01*
X626856Y219397D01*
X626821Y219362D01*
X626814Y219340D01*
X626786Y219326D01*
X626751Y219291D01*
X626744Y219270D01*
X626715Y219256D01*
X626694Y219235D01*
X626680Y219207D01*
X626575Y219186D01*
X626554Y219080D01*
X626505Y219059D01*
X626476Y219073D01*
X626427Y219038D01*
X626413Y219010D01*
X626364Y218975D01*
X626336Y218933D01*
X626308Y218919D01*
X626287Y218898D01*
X626294Y218834D01*
X626279Y218806D01*
X626251Y218792D01*
X626216Y218757D01*
X626209Y218736D01*
X626181Y218722D01*
X626146Y218687D01*
X626139Y218666D01*
X626111Y218652D01*
X626019Y218560D01*
X626012Y218539D01*
X625984Y218525D01*
X625949Y218490D01*
X625942Y218469D01*
X625914Y218455D01*
X625879Y218420D01*
X625872Y218398D01*
X625844Y218384D01*
X625808Y218349D01*
X625802Y218328D01*
X625773Y218314D01*
X625752Y218293D01*
X625738Y218265D01*
X625633Y218244D01*
X625605Y218188D01*
X625562Y218202D01*
X625527Y218251D01*
X625506Y218258D01*
X625485Y218237D01*
X625464Y218188D01*
X625422Y218202D01*
X625387Y218251D01*
X625288Y218265D01*
X625274Y218321D01*
X625288Y218349D01*
X625267Y218384D01*
X625218Y218406D01*
X625204Y218462D01*
X625218Y218518D01*
X625211Y218750D01*
X625253Y218806D01*
X625274Y218813D01*
X625281Y218848D01*
X625274Y218898D01*
X625309Y218933D01*
X625338Y218947D01*
X625373Y218996D01*
X625415Y219024D01*
X625429Y219052D01*
X625450Y219073D01*
X625478Y219088D01*
X625506Y219130D01*
X625534Y219144D01*
X625555Y219165D01*
X625569Y219193D01*
X625612Y219221D01*
X625626Y219249D01*
X625647Y219270D01*
X625745Y219284D01*
X625780Y219334D01*
X625808Y219348D01*
X625823Y219376D01*
X625858Y219411D01*
X625879Y219418D01*
X625893Y219446D01*
X625914Y219467D01*
X626012Y219481D01*
X626048Y219530D01*
X626125Y219608D01*
X626209Y219622D01*
X626230Y219643D01*
X626237Y219664D01*
X626265Y219678D01*
X626301Y219713D01*
X626308Y219734D01*
X626350Y219748D01*
X626392Y219734D01*
X626427Y219769D01*
X626441Y219797D01*
X626547Y219819D01*
X626568Y219840D01*
X626582Y219868D01*
X626624Y219896D01*
X626638Y219924D01*
X626659Y219945D01*
X626758Y219959D01*
X626800Y220016D01*
X626821Y220023D01*
X626835Y220051D01*
X626870Y220086D01*
X626926Y220072D01*
X626962Y220093D01*
X626983Y220142D01*
X627081Y220156D01*
X627172Y220248D01*
X627186Y220276D01*
X627355Y220290D01*
X627404Y220353D01*
X627594Y220346D01*
X627650Y220388D01*
X627658Y220409D01*
X627714Y220423D01*
X627770Y220409D01*
X627805Y220416D01*
X627868Y220409D01*
X627904Y220430D01*
X627918Y220458D01*
X627939Y220479D01*
X628979Y220465D01*
D02*
G37*
%LPC*%
G36*
X621204Y224473D02*
X620894Y224459D01*
X620803Y224466D01*
X620761Y224438D01*
X620747Y224410D01*
X620683Y224388D01*
X620627Y224402D01*
X619791Y224395D01*
X619713Y224402D01*
X619678Y224367D01*
X619664Y224339D01*
X619031Y224325D01*
X619003Y224297D01*
X618989Y224269D01*
X618483Y224255D01*
X618434Y224191D01*
X618138Y224177D01*
X618103Y224128D01*
X617815Y224121D01*
X617773Y224135D01*
X617724Y224100D01*
X617709Y224072D01*
X617646Y224051D01*
X617590Y224065D01*
X617407Y224051D01*
X617386Y224030D01*
X617372Y224002D01*
X617077Y223988D01*
X617035Y223945D01*
X617028Y223924D01*
X616788Y223910D01*
X616753Y223861D01*
X616528Y223847D01*
X616500Y223819D01*
X616493Y223798D01*
X616437Y223784D01*
X616275Y223791D01*
X616247Y223777D01*
X616233Y223749D01*
X616198Y223713D01*
X616057Y223727D01*
X615987Y223713D01*
X615966Y223692D01*
X615952Y223664D01*
X615896Y223650D01*
X615790Y223657D01*
X615769Y223636D01*
X615755Y223608D01*
X615734Y223587D01*
X615579Y223573D01*
X615558Y223552D01*
X615551Y223531D01*
X615530Y223524D01*
X615523Y223517D01*
X615488Y223481D01*
X615502Y223299D01*
X615495Y222954D01*
X615523Y222912D01*
X615551Y222898D01*
X615572Y222835D01*
X615558Y222793D01*
X615572Y222596D01*
X615593Y222574D01*
X615622Y222561D01*
X615643Y222455D01*
X615664Y222434D01*
X615692Y222420D01*
X615713Y222314D01*
X615762Y222279D01*
X615776Y222181D01*
X615804Y222167D01*
X615839Y222132D01*
X615832Y222068D01*
X615945Y221956D01*
X615966Y221949D01*
X615980Y221850D01*
X616001Y221829D01*
X616092Y221822D01*
X616107Y221794D01*
X616142Y221759D01*
X616163Y221752D01*
X616177Y221696D01*
X616163Y221668D01*
X616212Y221618D01*
X616233Y221611D01*
X616247Y221583D01*
X616268Y221562D01*
X616360Y221555D01*
X616374Y221527D01*
X616479Y221422D01*
X616528Y221429D01*
X616578Y221393D01*
X616592Y221365D01*
X616648Y221351D01*
X616704Y221365D01*
X616760Y221351D01*
X616782Y221330D01*
X616796Y221302D01*
X618110Y221295D01*
X618138Y221351D01*
X618195Y221365D01*
X618497Y221358D01*
X618525Y221372D01*
X618546Y221422D01*
X618602Y221436D01*
X618659Y221422D01*
X618820Y221429D01*
X618898Y221422D01*
X618947Y221471D01*
X618954Y221492D01*
X619319Y221506D01*
X619355Y221541D01*
X619362Y221562D01*
X619608Y221569D01*
X619594Y221625D01*
X619544Y221661D01*
X619537Y221724D01*
X619552Y221766D01*
X619544Y222209D01*
X619573Y222237D01*
X619601Y222251D01*
X619622Y222300D01*
X619608Y222342D01*
X619622Y222553D01*
X619643Y222574D01*
X619671Y222589D01*
X619685Y222828D01*
X619748Y222877D01*
X619755Y222968D01*
X619805Y222989D01*
X619833Y223102D01*
X619854Y223123D01*
X619875Y223130D01*
X619889Y223172D01*
X619875Y223214D01*
X619910Y223249D01*
X619938Y223264D01*
X619959Y223369D01*
X619980Y223390D01*
X620008Y223404D01*
X620037Y223446D01*
X620065Y223460D01*
X620086Y223481D01*
X620100Y223580D01*
X620149Y223615D01*
X620226Y223692D01*
X620233Y223713D01*
X620261Y223727D01*
X620297Y223763D01*
X620304Y223784D01*
X620332Y223798D01*
X620564Y224030D01*
X620571Y224051D01*
X620599Y224065D01*
X620634Y224100D01*
X620641Y224121D01*
X620676Y224128D01*
X620725Y224121D01*
X620761Y224156D01*
X620775Y224184D01*
X620880Y224206D01*
X620915Y224255D01*
X620958Y224283D01*
X620972Y224311D01*
X620993Y224332D01*
X621084Y224339D01*
X621098Y224367D01*
X621119Y224388D01*
X621218Y224402D01*
X621225Y224452D01*
X621204Y224473D01*
D02*
G37*
G36*
X624030Y224402D02*
X623938Y224395D01*
X623889Y224402D01*
X623847Y224388D01*
X623791Y224402D01*
X623678Y224388D01*
X623657Y224367D01*
X623671Y224339D01*
X623692Y224318D01*
X623756Y224325D01*
X623805Y224290D01*
X623868Y224227D01*
X623882Y224199D01*
X623988Y224177D01*
X624023Y224128D01*
X624072Y224121D01*
X624086Y224135D01*
X624135Y224100D01*
X624149Y224072D01*
X624170Y224051D01*
X624192Y224044D01*
X624206Y224016D01*
X624241Y223981D01*
X624262Y223974D01*
X624276Y223945D01*
X624297Y223924D01*
X624325Y223910D01*
X624360Y223861D01*
X624402Y223833D01*
X624416Y223805D01*
X624438Y223784D01*
X624466Y223770D01*
X624501Y223721D01*
X624529Y223706D01*
X624543Y223678D01*
X624578Y223643D01*
X624599Y223636D01*
X624613Y223608D01*
X624634Y223587D01*
X624663Y223573D01*
X624684Y223467D01*
X624705Y223446D01*
X624733Y223432D01*
X624754Y223411D01*
X624761Y223390D01*
X624789Y223376D01*
X624824Y223327D01*
X624859Y223320D01*
X624881Y223341D01*
X624873Y223460D01*
X624881Y223566D01*
X624866Y223608D01*
X624902Y223657D01*
X624930Y223671D01*
X624951Y223692D01*
X624937Y223819D01*
X624951Y223861D01*
X624916Y223924D01*
X624888Y223938D01*
X624866Y224002D01*
X624881Y224044D01*
X624866Y224241D01*
X624845Y224262D01*
X624691Y224276D01*
X624670Y224297D01*
X624663Y224318D01*
X624606Y224332D01*
X624072Y224346D01*
X624037Y224395D01*
X624030Y224402D01*
D02*
G37*
G36*
X635771D02*
X635679Y224395D01*
X635602Y224402D01*
X635560Y224388D01*
X635419Y224402D01*
X635398Y224353D01*
X635419Y224332D01*
X635447Y224318D01*
X635503Y224262D01*
X635595Y224255D01*
X635630Y224191D01*
X635728Y224177D01*
X635749Y224156D01*
X635756Y224135D01*
X635785Y224121D01*
X635806Y224100D01*
X635820Y224072D01*
X635925Y224051D01*
X635946Y224030D01*
X635960Y224002D01*
X636002Y223974D01*
X636017Y223945D01*
X636038Y223924D01*
X636066Y223910D01*
X636101Y223861D01*
X636143Y223833D01*
X636157Y223805D01*
X636178Y223784D01*
X636206Y223770D01*
X636242Y223721D01*
X636284Y223692D01*
X636298Y223664D01*
X636347Y223629D01*
X636354Y223594D01*
X636340Y223566D01*
X636375Y223517D01*
X636403Y223502D01*
X636424Y223481D01*
X636431Y223460D01*
X636459Y223446D01*
X636481Y223425D01*
X636495Y223397D01*
X636551Y223355D01*
X636565Y223256D01*
X636649Y223186D01*
X636692Y223144D01*
X636678Y223017D01*
X636713Y222982D01*
X636741Y222968D01*
X636762Y222863D01*
X636783Y222842D01*
X636811Y222828D01*
X636825Y222659D01*
X636888Y222610D01*
X636902Y222314D01*
X636952Y222279D01*
X636959Y221639D01*
X636945Y221625D01*
X636980Y221562D01*
X637008Y221548D01*
X637029Y221527D01*
X637043Y221499D01*
X637338Y221485D01*
X637366Y221457D01*
X637373Y221436D01*
X637430Y221422D01*
X637493Y221429D01*
X637669Y221422D01*
X637711Y221436D01*
X637739Y221422D01*
X637774Y221386D01*
X637781Y221365D01*
X637838Y221351D01*
X637880Y221365D01*
X638217Y221351D01*
X638238Y221330D01*
X638252Y221302D01*
X638955Y221288D01*
X638983Y221260D01*
X638998Y221232D01*
X639553Y221225D01*
X639623Y221295D01*
X639911Y221302D01*
X639925Y221330D01*
X639961Y221365D01*
X640052Y221372D01*
X640073Y221422D01*
X640108Y221429D01*
X640158Y221422D01*
X640193Y221457D01*
X640207Y221485D01*
X640312Y221506D01*
X640333Y221527D01*
X640347Y221555D01*
X640396Y221590D01*
X640425Y221633D01*
X640453Y221646D01*
X640495Y221703D01*
X640593Y221717D01*
X640635Y221773D01*
X640657Y221780D01*
X640671Y221808D01*
X640706Y221843D01*
X640727Y221850D01*
X640741Y221879D01*
X640762Y221900D01*
X640790Y221914D01*
X640832Y221970D01*
X640861Y221984D01*
X640882Y222089D01*
X640938Y222132D01*
X640952Y222230D01*
X641008Y222272D01*
X641015Y222364D01*
X641043Y222378D01*
X641079Y222413D01*
X641064Y222539D01*
X641100Y222574D01*
X641128Y222589D01*
X641142Y222645D01*
X641128Y223165D01*
X641085Y223179D01*
X641015Y223193D01*
X640980Y223242D01*
X640882Y223256D01*
X640868Y223285D01*
X640832Y223320D01*
X640727Y223313D01*
X640678Y223334D01*
X640643Y223383D01*
X640537Y223404D01*
X640509Y223446D01*
X640453Y223460D01*
X640411Y223446D01*
X640284Y223460D01*
X640263Y223481D01*
X640249Y223510D01*
X640010Y223524D01*
X639961Y223587D01*
X639736Y223601D01*
X639715Y223622D01*
X639701Y223650D01*
X639462Y223664D01*
X639440Y223713D01*
X639384Y223727D01*
X639222Y223721D01*
X639180Y223749D01*
X639166Y223777D01*
X639103Y223798D01*
X639061Y223784D01*
X638934Y223798D01*
X638913Y223819D01*
X638899Y223847D01*
X638660Y223861D01*
X638639Y223896D01*
X638632Y223903D01*
X638611Y223924D01*
X638386Y223938D01*
X638365Y223959D01*
X638351Y223988D01*
X637985Y224002D01*
X637936Y224065D01*
X637732Y224058D01*
X637704Y224072D01*
X637683Y224121D01*
X637627Y224135D01*
X637570Y224121D01*
X637247Y224135D01*
X637226Y224156D01*
X637212Y224184D01*
X636916Y224199D01*
X636853Y224262D01*
X636431Y224276D01*
X636396Y224325D01*
X635820Y224339D01*
X635806Y224367D01*
X635771Y224402D01*
D02*
G37*
G36*
X632888D02*
X632614Y224395D01*
X632382Y224402D01*
X632354Y224388D01*
X632312Y224402D01*
X632255Y224388D01*
X632220Y224353D01*
X632213Y224332D01*
X632002D01*
X631777Y224318D01*
X631756Y224297D01*
X631749Y224206D01*
X631721Y224191D01*
X631686Y224156D01*
X631700Y224016D01*
X631735Y223981D01*
X631756Y223974D01*
X631770Y223678D01*
X631826Y223622D01*
X631841Y223594D01*
X631876Y223587D01*
X631897Y223608D01*
X631911Y223636D01*
X632375Y224100D01*
X632382Y224121D01*
X632480Y224135D01*
X632501Y224156D01*
X632515Y224184D01*
X632621Y224206D01*
X632642Y224227D01*
X632656Y224255D01*
X632698Y224283D01*
X632712Y224311D01*
X632776Y224332D01*
X632832Y224318D01*
X632888Y224332D01*
X632909Y224353D01*
X632888Y224402D01*
D02*
G37*
%LPD*%
D10*
X477835Y224409D02*
X477097Y224836D01*
Y223983D01*
X477835Y224409D01*
X509941Y335630D02*
X509203Y336056D01*
Y335204D01*
X509941Y335630D01*
X325886Y404528D02*
X325148Y404954D01*
Y404101D01*
X325886Y404528D01*
X230236Y275590D02*
X229498Y276017D01*
Y275164D01*
X230236Y275590D01*
X465748Y237795D02*
X473622D01*
X233465Y262205D02*
X241339D01*
X184843Y226180D02*
Y221457D01*
X187204D01*
X187991Y222244D01*
Y223031D01*
X187204Y223818D01*
X184843D01*
X187204D01*
X187991Y224605D01*
Y225392D01*
X187204Y226180D01*
X184843D01*
X189565Y221457D02*
X191140D01*
X190352D01*
Y224605D01*
X189565D01*
X195863Y221457D02*
X194288D01*
X193501Y222244D01*
Y223818D01*
X194288Y224605D01*
X195863D01*
X196650Y223818D01*
Y223031D01*
X193501D01*
X198224Y226180D02*
Y221457D01*
X200585D01*
X201373Y222244D01*
Y223031D01*
Y223818D01*
X200585Y224605D01*
X198224D01*
X205308Y221457D02*
X203734D01*
X202947Y222244D01*
Y223818D01*
X203734Y224605D01*
X205308D01*
X206096Y223818D01*
Y223031D01*
X202947D01*
X207670Y224605D02*
Y221457D01*
Y223031D01*
X208457Y223818D01*
X209244Y224605D01*
X210031D01*
X212393Y221457D02*
X213967D01*
X213180D01*
Y224605D01*
X212393D01*
X219477D02*
X217115D01*
X216328Y223818D01*
Y222244D01*
X217115Y221457D01*
X219477D01*
X221051Y226180D02*
Y221457D01*
Y223818D01*
X221838Y224605D01*
X223413D01*
X224200Y223818D01*
Y221457D01*
X184843Y210432D02*
Y207283D01*
X186417Y205709D01*
X187991Y207283D01*
Y210432D01*
X191927Y205709D02*
X190352D01*
X189565Y206496D01*
Y208070D01*
X190352Y208857D01*
X191927D01*
X192714Y208070D01*
Y207283D01*
X189565D01*
X194288Y208857D02*
Y205709D01*
Y207283D01*
X195075Y208070D01*
X195863Y208857D01*
X196650D01*
X199011Y205709D02*
Y206496D01*
X199798D01*
Y205709D01*
X199011D01*
X210818D02*
X207670D01*
X210818Y208857D01*
Y209644D01*
X210031Y210432D01*
X208457D01*
X207670Y209644D01*
X187991Y218305D02*
X184843D01*
Y215944D01*
X186417D01*
X184843D01*
Y213583D01*
X189565Y216731D02*
Y214370D01*
X190352Y213583D01*
X192714D01*
Y216731D01*
X194288Y213583D02*
X196650D01*
X197437Y214370D01*
X196650Y215157D01*
X195075D01*
X194288Y215944D01*
X195075Y216731D01*
X197437D01*
X201373Y213583D02*
X199798D01*
X199011Y214370D01*
Y215944D01*
X199798Y216731D01*
X201373D01*
X202160Y215944D01*
Y215157D01*
X199011D01*
X203734Y218305D02*
Y213583D01*
X206096D01*
X206883Y214370D01*
Y215157D01*
Y215944D01*
X206096Y216731D01*
X203734D01*
X209244Y213583D02*
X210818D01*
X211606Y214370D01*
Y215944D01*
X210818Y216731D01*
X209244D01*
X208457Y215944D01*
Y214370D01*
X209244Y213583D01*
X213180Y216731D02*
X216328Y213583D01*
X214754Y215157D01*
X216328Y216731D01*
X213180Y213583D01*
X184843Y229331D02*
Y234054D01*
X187991Y229331D01*
Y234054D01*
X189565Y229331D02*
X191140D01*
X190352D01*
Y232479D01*
X189565D01*
X196650D02*
X194288D01*
X193501Y231692D01*
Y230118D01*
X194288Y229331D01*
X196650D01*
X199011D02*
X200585D01*
X201373Y230118D01*
Y231692D01*
X200585Y232479D01*
X199011D01*
X198224Y231692D01*
Y230118D01*
X199011Y229331D01*
X251838Y356038D02*
X251182Y355382D01*
Y354070D01*
X251838Y353414D01*
X254462D01*
X255118Y354070D01*
Y355382D01*
X254462Y356038D01*
X255118Y359973D02*
Y357349D01*
X252494Y359973D01*
X251838D01*
X251182Y359317D01*
Y358005D01*
X251838Y357349D01*
Y361285D02*
X251182Y361941D01*
Y363253D01*
X251838Y363909D01*
X252494D01*
X253150Y363253D01*
Y362597D01*
Y363253D01*
X253806Y363909D01*
X254462D01*
X255118Y363253D01*
Y361941D01*
X254462Y361285D01*
D11*
X251181Y413189D02*
D03*
X490158Y221457D02*
D03*
D12*
X502559Y340354D02*
X502114Y341278D01*
X501115Y341506D01*
X500314Y340867D01*
Y339842D01*
X501115Y339203D01*
X502114Y339431D01*
X502559Y340354D01*
X318307Y410039D02*
X317862Y410963D01*
X316863Y411191D01*
X316062Y410552D01*
Y409527D01*
X316863Y408888D01*
X317862Y409116D01*
X318307Y410039D01*
D13*
X394650Y416905D02*
X393900Y417339D01*
Y416472D01*
X394650Y416905D01*
X273650Y338791D02*
X272900Y339224D01*
Y338358D01*
X273650Y338791D01*
X604331Y204724D02*
Y283465D01*
X576772Y204724D02*
Y283465D01*
X604331D01*
X576772Y204724D02*
X604331D01*
X564961Y468504D02*
Y547244D01*
X592520Y468504D02*
Y547244D01*
X564961Y468504D02*
X592520D01*
X564961Y547244D02*
X592520D01*
X181102Y547244D02*
X208661D01*
X181102Y468504D02*
X208661D01*
Y547244D01*
X181102Y468504D02*
Y547244D01*
X210630D02*
X238189D01*
X210630Y468504D02*
X238189D01*
Y547244D01*
X210630Y468504D02*
Y547244D01*
X240158D02*
X267717D01*
X240158Y468504D02*
X267717D01*
Y547244D01*
X240158Y468504D02*
Y547244D01*
X269685D02*
X297244D01*
X269685Y468504D02*
X297244D01*
Y547244D01*
X269685Y468504D02*
Y547244D01*
X299213D02*
X326772D01*
X299213Y468504D02*
X326772D01*
Y547244D01*
X299213Y468504D02*
Y547244D01*
X358268D02*
X385827D01*
X358268Y468504D02*
X385827D01*
Y547244D01*
X358268Y468504D02*
Y547244D01*
X328740D02*
X356299D01*
X328740Y468504D02*
X356299D01*
Y547244D01*
X328740Y468504D02*
Y547244D01*
X387795D02*
X415354D01*
X387795Y468504D02*
X415354D01*
Y547244D01*
X387795Y468504D02*
Y547244D01*
X446850Y547244D02*
X474409D01*
X446850Y468504D02*
X474409D01*
Y547244D01*
X446850Y468504D02*
Y547244D01*
X476378D02*
X503937D01*
X476378Y468504D02*
X503937D01*
Y547244D01*
X476378Y468504D02*
Y547244D01*
X505905D02*
X533465D01*
X505905Y468504D02*
X533465D01*
Y547244D01*
X505905Y468504D02*
Y547244D01*
X417323D02*
X444882D01*
X417323Y468504D02*
X444882D01*
Y547244D01*
X417323Y468504D02*
Y547244D01*
X535433Y547244D02*
X562992D01*
X535433Y468504D02*
X562992D01*
Y547244D01*
X535433Y468504D02*
Y547244D01*
X610236Y250394D02*
Y497638D01*
Y250394D02*
X669291D01*
X610236Y497638D02*
X669291D01*
Y250394D02*
Y497638D01*
X622047Y258071D02*
X630905D01*
Y255315D02*
Y258071D01*
Y255315D02*
X633661Y258071D01*
X630905Y260827D02*
X633661Y258071D01*
X630905Y260827D02*
Y261024D01*
Y258071D02*
Y261024D01*
X493701Y204724D02*
X521260D01*
X493701Y283465D02*
X521260D01*
X493701Y204724D02*
Y283465D01*
X521260Y204724D02*
Y283465D01*
X217323Y378346D02*
Y376680D01*
Y377513D01*
X222321D01*
X221488Y378346D01*
Y374181D02*
X222321Y373348D01*
Y371682D01*
X221488Y370849D01*
X218156D01*
X217323Y371682D01*
Y373348D01*
X218156Y374181D01*
X221488D01*
X226772Y321654D02*
Y319987D01*
Y320820D01*
X231770D01*
X230937Y321654D01*
X613277Y265235D02*
X612278Y264235D01*
Y262236D01*
X613277Y261236D01*
X617276D01*
X618276Y262236D01*
Y264235D01*
X617276Y265235D01*
X618276Y268234D02*
Y270233D01*
X617276Y271233D01*
X615277D01*
X614277Y270233D01*
Y268234D01*
X615277Y267234D01*
X617276D01*
X618276Y268234D01*
Y273232D02*
X614277D01*
Y276231D01*
X615277Y277231D01*
X618276D01*
Y279230D02*
X614277D01*
Y282229D01*
X615277Y283229D01*
X618276D01*
X619276Y285228D02*
Y289227D01*
X612278Y294226D02*
Y292226D01*
X613277Y291227D01*
X617276D01*
X618276Y292226D01*
Y294226D01*
X617276Y295225D01*
X613277D01*
X612278Y294226D01*
X614277Y297225D02*
X617276D01*
X618276Y298224D01*
Y301223D01*
X614277D01*
X613277Y304222D02*
X614277D01*
Y303223D01*
Y305222D01*
Y304222D01*
X617276D01*
X618276Y305222D01*
Y308221D02*
Y311220D01*
X617276Y312220D01*
X616277Y311220D01*
Y309221D01*
X615277Y308221D01*
X614277Y309221D01*
Y312220D01*
X618276Y314219D02*
Y316218D01*
Y315219D01*
X614277D01*
Y314219D01*
X612278Y323216D02*
X618276D01*
Y320217D01*
X617276Y319217D01*
X615277D01*
X614277Y320217D01*
Y323216D01*
X618276Y328215D02*
Y326215D01*
X617276Y325216D01*
X615277D01*
X614277Y326215D01*
Y328215D01*
X615277Y329214D01*
X616277D01*
Y325216D01*
X476379Y252626D02*
X480314D01*
Y254594D01*
X479658Y255250D01*
X479002D01*
X478346Y254594D01*
Y252626D01*
Y254594D01*
X477691Y255250D01*
X477035D01*
X476379Y254594D01*
Y252626D01*
Y256562D02*
Y259186D01*
Y257874D01*
X480314D01*
Y263122D02*
Y260498D01*
X477691Y263122D01*
X477035D01*
X476379Y262466D01*
Y261154D01*
X477035Y260498D01*
X476379Y239503D02*
X480314D01*
Y241471D01*
X479658Y242127D01*
X479002D01*
X478346Y241471D01*
Y239503D01*
Y241471D01*
X477691Y242127D01*
X477035D01*
X476379Y241471D01*
Y239503D01*
Y243439D02*
Y246062D01*
Y244750D01*
X480314D01*
Y247374D02*
Y248686D01*
Y248030D01*
X476379D01*
X477035Y247374D01*
X378347Y363518D02*
X379003D01*
X380315Y364830D01*
X379003Y366142D01*
X378347D01*
X380315Y364830D02*
X382283D01*
Y367454D02*
Y368765D01*
Y368110D01*
X378347D01*
X379003Y367454D01*
X358781Y466385D02*
Y460387D01*
X361780D01*
X362780Y461386D01*
Y462386D01*
X361780Y463386D01*
X358781D01*
X361780D01*
X362780Y464386D01*
Y465385D01*
X361780Y466385D01*
X358781D01*
X364779D02*
Y460387D01*
X368778D01*
X326642Y443700D02*
Y440420D01*
X327297Y439764D01*
X328609D01*
X329265Y440420D01*
Y443700D01*
X330577D02*
X333201D01*
Y443044D01*
X330577Y440420D01*
Y439764D01*
X506563Y355118D02*
Y351838D01*
X507219Y351182D01*
X508531D01*
X509187Y351838D01*
Y355118D01*
X513122D02*
X511810Y354462D01*
X510499Y353150D01*
Y351838D01*
X511154Y351182D01*
X512466D01*
X513122Y351838D01*
Y352494D01*
X512466Y353150D01*
X510499D01*
X347508Y337795D02*
Y334515D01*
X348164Y333859D01*
X349476D01*
X350131Y334515D01*
Y337795D01*
X354067D02*
X351443D01*
Y335827D01*
X352755Y336483D01*
X353411D01*
X354067Y335827D01*
Y334515D01*
X353411Y333859D01*
X352099D01*
X351443Y334515D01*
X399870Y421259D02*
Y417979D01*
X400526Y417323D01*
X401838D01*
X402494Y417979D01*
Y421259D01*
X405773Y417323D02*
Y421259D01*
X403806Y419291D01*
X406429D01*
X331760Y401968D02*
Y398688D01*
X332416Y398032D01*
X333728D01*
X334383Y398688D01*
Y401968D01*
X335695Y401312D02*
X336351Y401968D01*
X337663D01*
X338319Y401312D01*
Y400656D01*
X337663Y400000D01*
X337007D01*
X337663D01*
X338319Y399344D01*
Y398688D01*
X337663Y398032D01*
X336351D01*
X335695Y398688D01*
X200300Y441536D02*
Y438256D01*
X200956Y437600D01*
X202268D01*
X202924Y438256D01*
Y441536D01*
X206860Y437600D02*
X204236D01*
X206860Y440224D01*
Y440880D01*
X206204Y441536D01*
X204892D01*
X204236Y440880D01*
X525100Y258436D02*
Y255156D01*
X525756Y254500D01*
X527068D01*
X527724Y255156D01*
Y258436D01*
X529036Y254500D02*
X530348D01*
X529692D01*
Y258436D01*
X529036Y257780D01*
X447271Y466385D02*
X451270D01*
X449271D01*
Y460387D01*
X457268Y465385D02*
X456268Y466385D01*
X454269D01*
X453269Y465385D01*
Y464386D01*
X454269Y463386D01*
X456268D01*
X457268Y462386D01*
Y461386D01*
X456268Y460387D01*
X454269D01*
X453269Y461386D01*
X459267Y460387D02*
Y464386D01*
X461267Y466385D01*
X463266Y464386D01*
Y460387D01*
Y463386D01*
X459267D01*
X465266Y466385D02*
Y460387D01*
X469264D01*
X476799Y466385D02*
X480797D01*
X478798D01*
Y460387D01*
X486796Y465385D02*
X485796Y466385D01*
X483797D01*
X482797Y465385D01*
Y464386D01*
X483797Y463386D01*
X485796D01*
X486796Y462386D01*
Y461386D01*
X485796Y460387D01*
X483797D01*
X482797Y461386D01*
X488795Y460387D02*
Y464386D01*
X490794Y466385D01*
X492794Y464386D01*
Y460387D01*
Y463386D01*
X488795D01*
X498792Y465385D02*
X497792Y466385D01*
X495793D01*
X494793Y465385D01*
Y461386D01*
X495793Y460387D01*
X497792D01*
X498792Y461386D01*
X392215Y465385D02*
X391215Y466385D01*
X389216D01*
X388216Y465385D01*
Y464386D01*
X389216Y463386D01*
X391215D01*
X392215Y462386D01*
Y461386D01*
X391215Y460387D01*
X389216D01*
X388216Y461386D01*
X398213Y466385D02*
X394214D01*
Y460387D01*
X398213D01*
X394214Y463386D02*
X396214D01*
X400212Y460387D02*
Y466385D01*
X403211D01*
X404211Y465385D01*
Y463386D01*
X403211Y462386D01*
X400212D01*
X402212D02*
X404211Y460387D01*
X406210Y466385D02*
Y462386D01*
X408210Y460387D01*
X410209Y462386D01*
Y466385D01*
X424742Y465385D02*
X423742Y466385D01*
X421742D01*
X420743Y465385D01*
Y464386D01*
X421742Y463386D01*
X423742D01*
X424742Y462386D01*
Y461386D01*
X423742Y460387D01*
X421742D01*
X420743Y461386D01*
X426741Y466385D02*
Y460387D01*
X429740D01*
X430739Y461386D01*
Y465385D01*
X429740Y466385D01*
X426741D01*
X436738Y465385D02*
X435738Y466385D01*
X433739D01*
X432739Y465385D01*
Y461386D01*
X433739Y460387D01*
X435738D01*
X436738Y461386D01*
X397902Y376379D02*
Y380314D01*
X399870D01*
X400526Y379658D01*
Y378346D01*
X399870Y377691D01*
X397902D01*
X399214D02*
X400526Y376379D01*
X401838Y379658D02*
X402494Y380314D01*
X403806D01*
X404461Y379658D01*
Y379002D01*
X403806Y378346D01*
X403150D01*
X403806D01*
X404461Y377691D01*
Y377034D01*
X403806Y376379D01*
X402494D01*
X401838Y377034D01*
X405773Y379658D02*
X406429Y380314D01*
X407741D01*
X408397Y379658D01*
Y379002D01*
X407741Y378346D01*
X407085D01*
X407741D01*
X408397Y377691D01*
Y377034D01*
X407741Y376379D01*
X406429D01*
X405773Y377034D01*
X422047Y378217D02*
X418111D01*
Y380185D01*
X418767Y380841D01*
X420079D01*
X420735Y380185D01*
Y378217D01*
Y379529D02*
X422047Y380841D01*
X418767Y382153D02*
X418111Y382809D01*
Y384120D01*
X418767Y384776D01*
X419423D01*
X420079Y384120D01*
Y383465D01*
Y384120D01*
X420735Y384776D01*
X421391D01*
X422047Y384120D01*
Y382809D01*
X421391Y382153D01*
X422047Y388712D02*
Y386088D01*
X419423Y388712D01*
X418767D01*
X418111Y388056D01*
Y386744D01*
X418767Y386088D01*
X428346Y422967D02*
X424410D01*
Y424935D01*
X425066Y425591D01*
X426378D01*
X427034Y424935D01*
Y422967D01*
Y424279D02*
X428346Y425591D01*
X425066Y426903D02*
X424410Y427559D01*
Y428871D01*
X425066Y429527D01*
X425722D01*
X426378Y428871D01*
Y428215D01*
Y428871D01*
X427034Y429527D01*
X427690D01*
X428346Y428871D01*
Y427559D01*
X427690Y426903D01*
X428346Y430839D02*
Y432151D01*
Y431495D01*
X424410D01*
X425066Y430839D01*
X428346Y378217D02*
X424410D01*
Y380185D01*
X425066Y380841D01*
X426378D01*
X427034Y380185D01*
Y378217D01*
Y379529D02*
X428346Y380841D01*
X425066Y382153D02*
X424410Y382809D01*
Y384120D01*
X425066Y384776D01*
X425722D01*
X426378Y384120D01*
Y383465D01*
Y384120D01*
X427034Y384776D01*
X427690D01*
X428346Y384120D01*
Y382809D01*
X427690Y382153D01*
X425066Y386088D02*
X424410Y386744D01*
Y388056D01*
X425066Y388712D01*
X427690D01*
X428346Y388056D01*
Y386744D01*
X427690Y386088D01*
X425066D01*
X517587Y348426D02*
Y352362D01*
X519555D01*
X520211Y351706D01*
Y350394D01*
X519555Y349738D01*
X517587D01*
X518899D02*
X520211Y348426D01*
X524147D02*
X521523D01*
X524147Y351050D01*
Y351706D01*
X523491Y352362D01*
X522179D01*
X521523Y351706D01*
X525458Y352362D02*
X528082D01*
Y351706D01*
X525458Y349082D01*
Y348426D01*
X257480Y402233D02*
X253544D01*
Y404201D01*
X254200Y404856D01*
X255512D01*
X256168Y404201D01*
Y402233D01*
Y403545D02*
X257480Y404856D01*
Y408792D02*
Y406168D01*
X254856Y408792D01*
X254200D01*
X253544Y408136D01*
Y406824D01*
X254200Y406168D01*
X257480Y412072D02*
X253544D01*
X255512Y410104D01*
Y412728D01*
X249999Y417193D02*
X246064D01*
Y419161D01*
X246720Y419817D01*
X248031D01*
X248687Y419161D01*
Y417193D01*
Y418505D02*
X249999Y419817D01*
Y423753D02*
Y421129D01*
X247375Y423753D01*
X246720D01*
X246064Y423097D01*
Y421785D01*
X246720Y421129D01*
Y425065D02*
X246064Y425721D01*
Y427033D01*
X246720Y427689D01*
X247375D01*
X248031Y427033D01*
Y426377D01*
Y427033D01*
X248687Y427689D01*
X249343D01*
X249999Y427033D01*
Y425721D01*
X249343Y425065D01*
X492784Y359056D02*
Y362991D01*
X494752D01*
X495408Y362335D01*
Y361024D01*
X494752Y360368D01*
X492784D01*
X494096D02*
X495408Y359056D01*
X499343D02*
X496720D01*
X499343Y361680D01*
Y362335D01*
X498688Y362991D01*
X497376D01*
X496720Y362335D01*
X503279Y359056D02*
X500655D01*
X503279Y361680D01*
Y362335D01*
X502623Y362991D01*
X501311D01*
X500655Y362335D01*
X493440Y322048D02*
Y325984D01*
X495408D01*
X496064Y325328D01*
Y324016D01*
X495408Y323360D01*
X493440D01*
X494752D02*
X496064Y322048D01*
X499999D02*
X497376D01*
X499999Y324672D01*
Y325328D01*
X499343Y325984D01*
X498032D01*
X497376Y325328D01*
X501311Y322048D02*
X502623D01*
X501967D01*
Y325984D01*
X501311Y325328D01*
X248818Y353414D02*
X244882D01*
Y355382D01*
X245538Y356038D01*
X246850D01*
X247506Y355382D01*
Y353414D01*
Y354726D02*
X248818Y356038D01*
Y359973D02*
Y357349D01*
X246194Y359973D01*
X245538D01*
X244882Y359317D01*
Y358005D01*
X245538Y357349D01*
Y361285D02*
X244882Y361941D01*
Y363253D01*
X245538Y363909D01*
X248162D01*
X248818Y363253D01*
Y361941D01*
X248162Y361285D01*
X245538D01*
X477364Y322048D02*
Y325984D01*
X479332D01*
X479988Y325328D01*
Y324016D01*
X479332Y323360D01*
X477364D01*
X478676D02*
X479988Y322048D01*
X481299D02*
X482611D01*
X481955D01*
Y325984D01*
X481299Y325328D01*
X484579Y322704D02*
X485235Y322048D01*
X486547D01*
X487203Y322704D01*
Y325328D01*
X486547Y325984D01*
X485235D01*
X484579Y325328D01*
Y324672D01*
X485235Y324016D01*
X487203D01*
X488976Y284057D02*
X485040D01*
Y286025D01*
X485696Y286681D01*
X487008D01*
X487664Y286025D01*
Y284057D01*
Y285369D02*
X488976Y286681D01*
Y287993D02*
Y289304D01*
Y288648D01*
X485040D01*
X485696Y287993D01*
Y291272D02*
X485040Y291928D01*
Y293240D01*
X485696Y293896D01*
X486352D01*
X487008Y293240D01*
X487664Y293896D01*
X488320D01*
X488976Y293240D01*
Y291928D01*
X488320Y291272D01*
X487664D01*
X487008Y291928D01*
X486352Y291272D01*
X485696D01*
X487008Y291928D02*
Y293240D01*
X215159Y277166D02*
Y281102D01*
X217127D01*
X217783Y280446D01*
Y279134D01*
X217127Y278478D01*
X215159D01*
X216471D02*
X217783Y277166D01*
X219095D02*
X220407D01*
X219751D01*
Y281102D01*
X219095Y280446D01*
X222375Y281102D02*
X224998D01*
Y280446D01*
X222375Y277822D01*
Y277166D01*
X215159Y270867D02*
Y274802D01*
X217127D01*
X217783Y274147D01*
Y272835D01*
X217127Y272179D01*
X215159D01*
X216471D02*
X217783Y270867D01*
X219095D02*
X220407D01*
X219751D01*
Y274802D01*
X219095Y274147D01*
X224998Y274802D02*
X223687Y274147D01*
X222375Y272835D01*
Y271523D01*
X223030Y270867D01*
X224342D01*
X224998Y271523D01*
Y272179D01*
X224342Y272835D01*
X222375D01*
X215159Y264567D02*
Y268503D01*
X217127D01*
X217783Y267847D01*
Y266535D01*
X217127Y265879D01*
X215159D01*
X216471D02*
X217783Y264567D01*
X219095D02*
X220407D01*
X219751D01*
Y268503D01*
X219095Y267847D01*
X224998Y268503D02*
X222375D01*
Y266535D01*
X223687Y267191D01*
X224342D01*
X224998Y266535D01*
Y265224D01*
X224342Y264567D01*
X223030D01*
X222375Y265224D01*
X332010Y466385D02*
Y460387D01*
X334009Y462386D01*
X336008Y460387D01*
Y466385D01*
X338007Y460387D02*
Y466385D01*
X341007D01*
X342006Y465385D01*
Y463386D01*
X341007Y462386D01*
X338007D01*
X461962Y411143D02*
Y409144D01*
X462961Y408144D01*
X466960D01*
X467960Y409144D01*
Y411143D01*
X466960Y412143D01*
X462961D01*
X461962Y411143D01*
X467960Y414142D02*
X461962D01*
Y417141D01*
X462961Y418141D01*
X464961D01*
X465960Y417141D01*
Y414142D01*
X467960Y424139D02*
Y420140D01*
X463961Y424139D01*
X462961D01*
X461962Y423139D01*
Y421140D01*
X462961Y420140D01*
X447001Y440489D02*
Y438490D01*
X448001Y437491D01*
X451999D01*
X452999Y438490D01*
Y440489D01*
X451999Y441489D01*
X448001D01*
X447001Y440489D01*
X452999Y443489D02*
X447001D01*
Y446488D01*
X448001Y447487D01*
X450000D01*
X451000Y446488D01*
Y443489D01*
X452999Y449487D02*
Y451486D01*
Y450486D01*
X447001D01*
X448001Y449487D01*
X494200Y287000D02*
Y292998D01*
X498199Y287000D01*
Y292998D01*
X500198Y287000D02*
X502197D01*
X501198D01*
Y290999D01*
X500198D01*
X505196Y287000D02*
Y292998D01*
X507196Y290999D01*
X509195Y292998D01*
Y287000D01*
X511195Y292998D02*
Y287000D01*
Y289999D01*
X515193D01*
Y292998D01*
Y287000D01*
X251575Y327297D02*
X255511D01*
Y329921D01*
Y331233D02*
Y332545D01*
Y331889D01*
X251575D01*
X252231Y331233D01*
X219818Y312991D02*
X218506D01*
X219162D01*
Y309712D01*
X218506Y309056D01*
X217850D01*
X217194Y309712D01*
X221130Y312991D02*
X223753D01*
X222442D01*
Y309056D01*
X225065D02*
Y311680D01*
X226377Y312991D01*
X227689Y311680D01*
Y309056D01*
Y311024D01*
X225065D01*
X231625Y312335D02*
X230969Y312991D01*
X229657D01*
X229001Y312335D01*
Y309712D01*
X229657Y309056D01*
X230969D01*
X231625Y309712D01*
Y311024D01*
X230313D01*
X535434Y332022D02*
Y330710D01*
Y331366D01*
X538714D01*
X539369Y330710D01*
Y330054D01*
X538714Y329398D01*
X539369Y333334D02*
X535434D01*
Y335302D01*
X536090Y335958D01*
X537402D01*
X538058Y335302D01*
Y333334D01*
X539369Y339893D02*
Y337269D01*
X536746Y339893D01*
X536090D01*
X535434Y339237D01*
Y337926D01*
X536090Y337269D01*
X401182Y374015D02*
X399870D01*
X400526D01*
Y370735D01*
X399870Y370079D01*
X399214D01*
X398558Y370735D01*
X402494Y370079D02*
Y374015D01*
X404461D01*
X405118Y373359D01*
Y372047D01*
X404461Y371391D01*
X402494D01*
X406429Y370079D02*
X407741D01*
X407085D01*
Y374015D01*
X406429Y373359D01*
X603937Y496700D02*
X601938D01*
X602937D01*
Y491701D01*
X601938Y490702D01*
X600938D01*
X599938Y491701D01*
X605936Y490702D02*
X607936D01*
X606936D01*
Y496700D01*
X605936Y495700D01*
X269031Y466385D02*
X271030D01*
X270031D01*
Y460387D01*
X269031D01*
X271030D01*
X274029D02*
Y466385D01*
X278028Y460387D01*
Y466385D01*
X280027D02*
Y462386D01*
X282027Y460387D01*
X284026Y462386D01*
Y466385D01*
X286026Y465385D02*
X287025Y466385D01*
X289024D01*
X290024Y465385D01*
Y461386D01*
X289024Y460387D01*
X287025D01*
X286026Y461386D01*
Y465385D01*
X302239Y460387D02*
Y466385D01*
X305238D01*
X306238Y465385D01*
Y463386D01*
X305238Y462386D01*
X302239D01*
X304238D02*
X306238Y460387D01*
X312236D02*
X308237D01*
X312236Y464386D01*
Y465385D01*
X311236Y466385D01*
X309237D01*
X308237Y465385D01*
X314235Y466385D02*
Y460387D01*
X317234D01*
X318234Y461386D01*
Y465385D01*
X317234Y466385D01*
X314235D01*
X506326Y466491D02*
Y460493D01*
Y463492D01*
X510325D01*
Y466491D01*
Y460493D01*
X512324Y466491D02*
Y462492D01*
X514324Y460493D01*
X516323Y462492D01*
Y466491D01*
X518323Y459493D02*
X522321D01*
X524321Y466491D02*
Y460493D01*
X527320D01*
X528319Y461493D01*
Y465491D01*
X527320Y466491D01*
X524321D01*
X195016Y275196D02*
Y271260D01*
Y273228D01*
X197640D01*
Y275196D01*
Y271260D01*
X200920D02*
X199608D01*
X198952Y271916D01*
Y273228D01*
X199608Y273884D01*
X200920D01*
X201575Y273228D01*
Y272572D01*
X198952D01*
X203543Y273884D02*
X204855D01*
X205511Y273228D01*
Y271260D01*
X203543D01*
X202887Y271916D01*
X203543Y272572D01*
X205511D01*
X206823Y273884D02*
Y271260D01*
Y272572D01*
X207479Y273228D01*
X208135Y273884D01*
X208791D01*
X211415Y274540D02*
Y273884D01*
X210759D01*
X212071D01*
X211415D01*
Y271916D01*
X212071Y271260D01*
X236172Y466385D02*
X238172D01*
X237172D01*
Y460387D01*
X236172D01*
X238172D01*
X241171D02*
Y466385D01*
X245169Y460387D01*
Y466385D01*
X247169D02*
Y462386D01*
X249168Y460387D01*
X251167Y462386D01*
Y466385D01*
X253167Y460387D02*
X255166D01*
X254167D01*
Y466385D01*
X253167Y465385D01*
X539853Y466385D02*
X535854D01*
Y463386D01*
X537853D01*
X535854D01*
Y460387D01*
X541852Y466385D02*
X545851D01*
X543851D01*
Y460387D01*
X551849Y465385D02*
X550849Y466385D01*
X548850D01*
X547850Y465385D01*
Y464386D01*
X548850Y463386D01*
X550849D01*
X551849Y462386D01*
Y461386D01*
X550849Y460387D01*
X548850D01*
X547850Y461386D01*
X553848Y460387D02*
Y464386D01*
X555848Y466385D01*
X557847Y464386D01*
Y460387D01*
Y463386D01*
X553848D01*
X569230Y466385D02*
X565231D01*
Y463386D01*
X567230D01*
X565231D01*
Y460387D01*
X571229D02*
Y466385D01*
X574228D01*
X575228Y465385D01*
Y463386D01*
X574228Y462386D01*
X571229D01*
X577227Y466385D02*
Y461386D01*
X578227Y460387D01*
X580226D01*
X581226Y461386D01*
Y466385D01*
X185221D02*
X181222D01*
Y463386D01*
X183221D01*
X181222D01*
Y460387D01*
X187220Y466385D02*
Y460387D01*
X190219D01*
X191219Y461386D01*
Y462386D01*
X190219Y463386D01*
X187220D01*
X190219D01*
X191219Y464386D01*
Y465385D01*
X190219Y466385D01*
X187220D01*
X197968Y268503D02*
X195344D01*
Y266535D01*
X196656D01*
X195344D01*
Y264567D01*
X199936Y267191D02*
X201248D01*
X201903Y266535D01*
Y264567D01*
X199936D01*
X199280Y265224D01*
X199936Y265879D01*
X201903D01*
X203215Y267191D02*
Y265224D01*
X203871Y264567D01*
X205839D01*
Y267191D01*
X207151Y264567D02*
X208463D01*
X207807D01*
Y268503D01*
X207151D01*
X211087Y267847D02*
Y267191D01*
X210431D01*
X211743D01*
X211087D01*
Y265224D01*
X211743Y264567D01*
X259843Y402561D02*
X263779D01*
Y404529D01*
X263123Y405185D01*
X260499D01*
X259843Y404529D01*
Y402561D01*
X263779Y406496D02*
Y407808D01*
Y407152D01*
X259843D01*
X260499Y406496D01*
X259843Y412400D02*
X260499Y411088D01*
X261811Y409776D01*
X263123D01*
X263779Y410432D01*
Y411744D01*
X263123Y412400D01*
X262467D01*
X261811Y411744D01*
Y409776D01*
X479332Y219684D02*
Y215749D01*
X481300D01*
X481956Y216405D01*
Y219028D01*
X481300Y219684D01*
X479332D01*
X483268Y215749D02*
X484580D01*
X483924D01*
Y219684D01*
X483268Y219028D01*
X489172Y219684D02*
X486548D01*
Y217717D01*
X487860Y218373D01*
X488516D01*
X489172Y217717D01*
Y216405D01*
X488516Y215749D01*
X487204D01*
X486548Y216405D01*
X284253Y420997D02*
X283597Y421653D01*
X282285D01*
X281629Y420997D01*
Y418373D01*
X282285Y417717D01*
X283597D01*
X284253Y418373D01*
X288188Y417717D02*
X285564D01*
X288188Y420341D01*
Y420997D01*
X287532Y421653D01*
X286221D01*
X285564Y420997D01*
X289500Y417717D02*
X290812D01*
X290156D01*
Y421653D01*
X289500Y420997D01*
X509975Y325328D02*
X509319Y325984D01*
X508007D01*
X507351Y325328D01*
Y322704D01*
X508007Y322048D01*
X509319D01*
X509975Y322704D01*
X513910Y322048D02*
X511286D01*
X513910Y324672D01*
Y325328D01*
X513254Y325984D01*
X511942D01*
X511286Y325328D01*
X515222D02*
X515878Y325984D01*
X517190D01*
X517846Y325328D01*
Y322704D01*
X517190Y322048D01*
X515878D01*
X515222Y322704D01*
Y325328D01*
X469948Y339043D02*
X469292Y338387D01*
Y337075D01*
X469948Y336419D01*
X472572D01*
X473228Y337075D01*
Y338387D01*
X472572Y339043D01*
X473228Y340355D02*
Y341667D01*
Y341011D01*
X469292D01*
X469948Y340355D01*
X472572Y343634D02*
X473228Y344290D01*
Y345602D01*
X472572Y346258D01*
X469948D01*
X469292Y345602D01*
Y344290D01*
X469948Y343634D01*
X470604D01*
X471260Y344290D01*
Y346258D01*
X569554Y233925D02*
X568898Y233269D01*
Y231957D01*
X569554Y231301D01*
X572178D01*
X572834Y231957D01*
Y233269D01*
X572178Y233925D01*
X572834Y235237D02*
Y236548D01*
Y235893D01*
X568898D01*
X569554Y235237D01*
Y238516D02*
X568898Y239172D01*
Y240484D01*
X569554Y241140D01*
X570210D01*
X570866Y240484D01*
X571522Y241140D01*
X572178D01*
X572834Y240484D01*
Y239172D01*
X572178Y238516D01*
X571522D01*
X570866Y239172D01*
X570210Y238516D01*
X569554D01*
X570866Y239172D02*
Y240484D01*
X569554Y218177D02*
X568898Y217521D01*
Y216209D01*
X569554Y215553D01*
X572178D01*
X572834Y216209D01*
Y217521D01*
X572178Y218177D01*
X572834Y219489D02*
Y220800D01*
Y220145D01*
X568898D01*
X569554Y219489D01*
X568898Y222768D02*
Y225392D01*
X569554D01*
X572178Y222768D01*
X572834D01*
X348885Y327296D02*
X348229Y327952D01*
X346917D01*
X346261Y327296D01*
Y324672D01*
X346917Y324016D01*
X348229D01*
X348885Y324672D01*
X350197Y324016D02*
X351509D01*
X350853D01*
Y327952D01*
X350197Y327296D01*
X356101Y327952D02*
X354789Y327296D01*
X353477Y325984D01*
Y324672D01*
X354133Y324016D01*
X355445D01*
X356101Y324672D01*
Y325328D01*
X355445Y325984D01*
X353477D01*
X186877Y401247D02*
X186221Y400592D01*
Y399280D01*
X186877Y398624D01*
X189501D01*
X190157Y399280D01*
Y400592D01*
X189501Y401247D01*
X190157Y402559D02*
Y403871D01*
Y403215D01*
X186221D01*
X186877Y402559D01*
X186221Y408463D02*
Y405839D01*
X188189D01*
X187533Y407151D01*
Y407807D01*
X188189Y408463D01*
X189501D01*
X190157Y407807D01*
Y406495D01*
X189501Y405839D01*
X186877Y416208D02*
X186221Y415552D01*
Y414240D01*
X186877Y413584D01*
X189501D01*
X190157Y414240D01*
Y415552D01*
X189501Y416208D01*
X190157Y417520D02*
Y418832D01*
Y418176D01*
X186221D01*
X186877Y417520D01*
X190157Y422768D02*
X186221D01*
X188189Y420800D01*
Y423424D01*
X371129Y403610D02*
X370473Y402954D01*
Y401642D01*
X371129Y400986D01*
X373753D01*
X374409Y401642D01*
Y402954D01*
X373753Y403610D01*
X374409Y404922D02*
Y406234D01*
Y405578D01*
X370473D01*
X371129Y404922D01*
Y408201D02*
X370473Y408857D01*
Y410169D01*
X371129Y410825D01*
X371785D01*
X372441Y410169D01*
Y409513D01*
Y410169D01*
X373097Y410825D01*
X373753D01*
X374409Y410169D01*
Y408857D01*
X373753Y408201D01*
X364830Y403610D02*
X364174Y402954D01*
Y401642D01*
X364830Y400986D01*
X367454D01*
X368110Y401642D01*
Y402954D01*
X367454Y403610D01*
X368110Y404922D02*
Y406234D01*
Y405578D01*
X364174D01*
X364830Y404922D01*
X368110Y410825D02*
Y408201D01*
X365486Y410825D01*
X364830D01*
X364174Y410169D01*
Y408857D01*
X364830Y408201D01*
X418767Y425263D02*
X418111Y424607D01*
Y423295D01*
X418767Y422639D01*
X421391D01*
X422047Y423295D01*
Y424607D01*
X421391Y425263D01*
X422047Y426575D02*
Y427887D01*
Y427231D01*
X418111D01*
X418767Y426575D01*
Y429855D02*
X418111Y430511D01*
Y431823D01*
X418767Y432479D01*
X421391D01*
X422047Y431823D01*
Y430511D01*
X421391Y429855D01*
X418767D01*
X264830Y329265D02*
X264174Y328609D01*
Y327297D01*
X264830Y326642D01*
X267454D01*
X268110Y327297D01*
Y328609D01*
X267454Y329265D01*
Y330577D02*
X268110Y331233D01*
Y332545D01*
X267454Y333201D01*
X264830D01*
X264174Y332545D01*
Y331233D01*
X264830Y330577D01*
X265486D01*
X266142Y331233D01*
Y333201D01*
X258531Y329265D02*
X257875Y328609D01*
Y327297D01*
X258531Y326642D01*
X261154D01*
X261810Y327297D01*
Y328609D01*
X261154Y329265D01*
X258531Y330577D02*
X257875Y331233D01*
Y332545D01*
X258531Y333201D01*
X259187D01*
X259842Y332545D01*
X260498Y333201D01*
X261154D01*
X261810Y332545D01*
Y331233D01*
X261154Y330577D01*
X260498D01*
X259842Y331233D01*
X259187Y330577D01*
X258531D01*
X259842Y331233D02*
Y332545D01*
X245932Y329265D02*
X245276Y328609D01*
Y327297D01*
X245932Y326642D01*
X248556D01*
X249212Y327297D01*
Y328609D01*
X248556Y329265D01*
X245276Y330577D02*
Y333201D01*
X245932D01*
X248556Y330577D01*
X249212D01*
X264830Y391864D02*
X264174Y391208D01*
Y389896D01*
X264830Y389240D01*
X267454D01*
X268110Y389896D01*
Y391208D01*
X267454Y391864D01*
X264174Y395799D02*
X264830Y394488D01*
X266142Y393176D01*
X267454D01*
X268110Y393832D01*
Y395144D01*
X267454Y395799D01*
X266798D01*
X266142Y395144D01*
Y393176D01*
X258531Y391864D02*
X257875Y391208D01*
Y389896D01*
X258531Y389240D01*
X261154D01*
X261810Y389896D01*
Y391208D01*
X261154Y391864D01*
X257875Y395799D02*
Y393176D01*
X259842D01*
X259187Y394488D01*
Y395144D01*
X259842Y395799D01*
X261154D01*
X261810Y395144D01*
Y393832D01*
X261154Y393176D01*
X338846Y346982D02*
X338190Y346326D01*
Y345014D01*
X338846Y344358D01*
X341469D01*
X342125Y345014D01*
Y346326D01*
X341469Y346982D01*
X342125Y350262D02*
X338190D01*
X340158Y348294D01*
Y350918D01*
X345145Y346982D02*
X344489Y346326D01*
Y345014D01*
X345145Y344358D01*
X347769D01*
X348425Y345014D01*
Y346326D01*
X347769Y346982D01*
X345145Y348294D02*
X344489Y348950D01*
Y350262D01*
X345145Y350918D01*
X345801D01*
X346457Y350262D01*
Y349606D01*
Y350262D01*
X347113Y350918D01*
X347769D01*
X348425Y350262D01*
Y348950D01*
X347769Y348294D01*
X379003Y374147D02*
X378347Y373491D01*
Y372179D01*
X379003Y371523D01*
X381627D01*
X382283Y372179D01*
Y373491D01*
X381627Y374147D01*
X382283Y378083D02*
Y375459D01*
X379659Y378083D01*
X379003D01*
X378347Y377427D01*
Y376115D01*
X379003Y375459D01*
X379003Y357087D02*
X378347Y356431D01*
Y355119D01*
X379003Y354463D01*
X381627D01*
X382283Y355119D01*
Y356431D01*
X381627Y357087D01*
X382283Y358399D02*
Y359710D01*
Y359054D01*
X378347D01*
X379003Y358399D01*
X215142Y465385D02*
X214142Y466385D01*
X212143D01*
X211143Y465385D01*
Y461386D01*
X212143Y460387D01*
X214142D01*
X215142Y461386D01*
Y463386D01*
X213143D01*
X217141Y460387D02*
Y466385D01*
X220140D01*
X221140Y465385D01*
Y463386D01*
X220140Y462386D01*
X217141D01*
X577300Y287000D02*
Y290999D01*
X579299Y292998D01*
X581299Y290999D01*
Y287000D01*
Y289999D01*
X577300D01*
X583298Y287000D02*
X585297D01*
X584298D01*
Y290999D01*
X583298D01*
X588296Y287000D02*
Y290999D01*
X589296D01*
X590296Y289999D01*
Y287000D01*
Y289999D01*
X591295Y290999D01*
X592295Y289999D01*
Y287000D01*
X202887Y281102D02*
X200264D01*
Y279134D01*
X201575Y279790D01*
X202231D01*
X202887Y279134D01*
Y277822D01*
X202231Y277166D01*
X200920D01*
X200264Y277822D01*
X204199Y281102D02*
Y278478D01*
X205511Y277166D01*
X206823Y278478D01*
Y281102D01*
D14*
X401950Y415506D02*
X402301Y414657D01*
X403150Y414305D01*
X403998Y414657D01*
X404350Y415506D01*
D15*
X257087Y358661D02*
X262598D01*
X257087Y352362D02*
X257842D01*
X257087D02*
Y364961D01*
X257842D01*
X261842D02*
X262598D01*
Y352362D02*
Y364961D01*
X261842Y352362D02*
X262598D01*
X263386Y346063D02*
X268898D01*
X263386Y340551D02*
X264567D01*
X263386D02*
Y351575D01*
X264567D01*
X267717D02*
X268898D01*
Y340551D02*
Y351575D01*
X267717Y340551D02*
X268898D01*
X263386Y358661D02*
X268898D01*
X267717Y364173D02*
X268898D01*
Y353150D02*
Y364173D01*
X267717Y353150D02*
X268898D01*
X263386D02*
X264567D01*
X263386D02*
Y364173D01*
X264567D01*
X286614Y415748D02*
X287795D01*
X286614Y404724D02*
Y415748D01*
Y404724D02*
X287795D01*
X290945D02*
X292126D01*
Y415748D01*
X290945D02*
X292126D01*
X286614Y410236D02*
X292126D01*
X242158Y416142D02*
X242913D01*
Y428740D01*
X242158D02*
X242913D01*
X237402D02*
X238158D01*
X237402Y416142D02*
Y428740D01*
Y416142D02*
X238158D01*
X237402Y422441D02*
X242913D01*
X242158Y401181D02*
X242913D01*
Y413779D01*
X242158D02*
X242913D01*
X237402D02*
X238158D01*
X237402Y401181D02*
Y413779D01*
Y401181D02*
X238158D01*
X237402Y407480D02*
X242913D01*
X516535Y340945D02*
Y341701D01*
Y340945D02*
X529134D01*
Y341701D01*
Y345701D02*
Y346457D01*
X516535D02*
X529134D01*
X516535Y345701D02*
Y346457D01*
X522835Y340945D02*
Y346457D01*
X475197Y346850D02*
X476378D01*
X475197Y335827D02*
Y346850D01*
Y335827D02*
X476378D01*
X479528D02*
X480709D01*
Y346850D01*
X479528D02*
X480709D01*
X475197Y341339D02*
X480709D01*
X491732Y350394D02*
Y351150D01*
Y350394D02*
X504331D01*
Y351150D01*
Y355150D02*
Y355906D01*
X491732D02*
X504331D01*
X491732Y355150D02*
Y355906D01*
X498032Y350394D02*
Y355906D01*
X488583Y332709D02*
Y333465D01*
X475984D02*
X488583D01*
X475984Y332709D02*
Y333465D01*
Y327953D02*
Y328709D01*
Y327953D02*
X488583D01*
Y328709D01*
X482283Y327953D02*
Y333465D01*
X504331Y332709D02*
Y333465D01*
X491732D02*
X504331D01*
X491732Y332709D02*
Y333465D01*
Y327953D02*
Y328709D01*
Y327953D02*
X504331D01*
Y328709D01*
X498032Y327953D02*
Y333465D01*
X518110Y332283D02*
Y333465D01*
X507087D02*
X518110D01*
X507087Y332283D02*
Y333465D01*
Y327953D02*
Y329134D01*
Y327953D02*
X518110D01*
Y329134D01*
X512598Y327953D02*
Y333465D01*
X382677Y411417D02*
X383858D01*
X382677Y400394D02*
Y411417D01*
Y400394D02*
X383858D01*
X387008D02*
X388189D01*
Y411417D01*
X387008D02*
X388189D01*
X382677Y405905D02*
X388189D01*
X376378Y411417D02*
X377559D01*
X376378Y400394D02*
Y411417D01*
Y400394D02*
X377559D01*
X380709D02*
X381890D01*
Y411417D01*
X380709D02*
X381890D01*
X376378Y405905D02*
X381890D01*
X421654Y409055D02*
X422835D01*
Y420079D01*
X421654D02*
X422835D01*
X417323D02*
X418504D01*
X417323Y409055D02*
Y420079D01*
Y409055D02*
X418504D01*
X417323Y414567D02*
X422835D01*
X428378Y408268D02*
X429134D01*
Y420866D01*
X428378D02*
X429134D01*
X423622D02*
X424378D01*
X423622Y408268D02*
Y420866D01*
Y408268D02*
X424378D01*
X423622Y414567D02*
X429134D01*
X422079Y390551D02*
X422835D01*
Y403150D01*
X422079D02*
X422835D01*
X417323D02*
X418079D01*
X417323Y390551D02*
Y403150D01*
Y390551D02*
X418079D01*
X417323Y396850D02*
X422835D01*
X396850Y389764D02*
Y390520D01*
Y389764D02*
X409449D01*
Y390520D01*
Y394520D02*
Y395276D01*
X396850D02*
X409449D01*
X396850Y394520D02*
Y395276D01*
X403150Y389764D02*
Y395276D01*
X428378Y390551D02*
X429134D01*
Y403150D01*
X428378D02*
X429134D01*
X423622D02*
X424378D01*
X423622Y390551D02*
Y403150D01*
Y390551D02*
X424378D01*
X423622Y396850D02*
X429134D01*
X248819Y335039D02*
X250000D01*
Y346063D01*
X248819D02*
X250000D01*
X244488D02*
X245669D01*
X244488Y335039D02*
Y346063D01*
Y335039D02*
X245669D01*
X244488Y340551D02*
X250000D01*
X261417Y340551D02*
X262598D01*
Y351575D01*
X261417D02*
X262598D01*
X257087D02*
X258268D01*
X257087Y340551D02*
Y351575D01*
Y340551D02*
X258268D01*
X257087Y346063D02*
X262598D01*
X225984Y294126D02*
Y294882D01*
X213386D02*
X225984D01*
X213386Y294126D02*
Y294882D01*
Y289370D02*
Y290126D01*
Y289370D02*
X225984D01*
Y290126D01*
X219685Y289370D02*
Y294882D01*
X225984Y287827D02*
Y288583D01*
X213386D02*
X225984D01*
X213386Y287827D02*
Y288583D01*
Y283071D02*
Y283827D01*
Y283071D02*
X225984D01*
Y283827D01*
X219685Y283071D02*
Y288583D01*
X213386Y295669D02*
Y296425D01*
Y295669D02*
X225984D01*
Y296425D01*
Y300425D02*
Y301181D01*
X213386D02*
X225984D01*
X213386Y300425D02*
Y301181D01*
X219685Y295669D02*
Y301181D01*
X333071Y323228D02*
Y324409D01*
Y323228D02*
X344094D01*
Y324409D01*
Y327559D02*
Y328740D01*
X333071D02*
X344094D01*
X333071Y327559D02*
Y328740D01*
X338583Y323228D02*
Y328740D01*
X343701Y363779D02*
X344882D01*
X343701Y352756D02*
Y363779D01*
Y352756D02*
X344882D01*
X348031D02*
X349213D01*
Y363779D01*
X348031D02*
X349213D01*
X343701Y358268D02*
X349213D01*
X337402Y363779D02*
X338583D01*
X337402Y352756D02*
Y363779D01*
Y352756D02*
X338583D01*
X341732D02*
X342913D01*
Y363779D01*
X341732D02*
X342913D01*
X337402Y358268D02*
X342913D01*
X267717Y376378D02*
X268898D01*
Y387402D01*
X267717D02*
X268898D01*
X263386D02*
X264567D01*
X263386Y376378D02*
Y387402D01*
Y376378D02*
X264567D01*
X263386Y381890D02*
X268898D01*
X261417Y376378D02*
X262598D01*
Y387402D01*
X261417D02*
X262598D01*
X257087D02*
X258268D01*
X257087Y376378D02*
Y387402D01*
Y376378D02*
X258268D01*
X257087Y381890D02*
X262598D01*
X354724Y378740D02*
X355906D01*
X354724Y367717D02*
Y378740D01*
Y367717D02*
X355906D01*
X359055D02*
X360236D01*
Y378740D01*
X359055D02*
X360236D01*
X354724Y373228D02*
X360236D01*
X359055Y353543D02*
X360236D01*
Y364567D01*
X359055D02*
X360236D01*
X354724D02*
X355906D01*
X354724Y353543D02*
Y364567D01*
Y353543D02*
X355906D01*
X354724Y359055D02*
X360236D01*
X196457Y413091D02*
X197638D01*
Y424114D01*
X196457D02*
X197638D01*
X192126D02*
X193307D01*
X192126Y413091D02*
Y424114D01*
Y413091D02*
X193307D01*
X192126Y418602D02*
X197638D01*
X192126Y409055D02*
X193307D01*
X192126Y398031D02*
Y409055D01*
Y398031D02*
X193307D01*
X196457D02*
X197638D01*
Y409055D01*
X196457D02*
X197638D01*
X192126Y403543D02*
X197638D01*
X565354Y230315D02*
X566536D01*
Y241339D01*
X565354D02*
X566536D01*
X561024D02*
X562205D01*
X561024Y230315D02*
Y241339D01*
Y230315D02*
X562205D01*
X561024Y235827D02*
X566536D01*
X561024Y226378D02*
X562205D01*
X561024Y215354D02*
Y226378D01*
Y215354D02*
X562205D01*
X565354D02*
X566536D01*
Y226378D01*
X565354D02*
X566536D01*
X561024Y220866D02*
X566536D01*
X477559Y295276D02*
X478315D01*
X477559Y282677D02*
Y295276D01*
Y282677D02*
X478315D01*
X482315D02*
X483071D01*
Y295276D01*
X482315D02*
X483071D01*
X477559Y288976D02*
X483071D01*
D16*
X264961Y199409D02*
X442126D01*
X264961D02*
Y249409D01*
X442126D01*
Y199409D02*
Y249409D01*
X505315Y336417D02*
Y348622D01*
X490748Y336417D02*
Y348622D01*
Y336417D02*
X505315D01*
X490748Y348622D02*
X505315D01*
X376378Y355709D02*
Y376575D01*
X362992Y355709D02*
Y376575D01*
X375197D02*
X376378D01*
X375197Y355709D02*
X376378D01*
X362992Y376575D02*
X364173D01*
X362992Y355709D02*
X364173D01*
X306496Y437205D02*
X321063D01*
X306496Y406102D02*
X321063D01*
X306496D02*
Y437205D01*
X321063Y406102D02*
Y437205D01*
X454331Y455512D02*
X568504D01*
Y431890D02*
Y455512D01*
X454331Y431890D02*
X568504D01*
X454331D02*
Y455512D01*
X469980Y427953D02*
X584154D01*
Y404331D02*
Y427953D01*
X469980Y404331D02*
X584154D01*
X469980D02*
Y427953D01*
X264961Y250590D02*
Y300590D01*
Y250590D02*
X442126D01*
Y300590D01*
X264961D02*
X442126D01*
D17*
X395650Y415406D02*
X410650D01*
X395650Y396406D02*
Y415406D01*
Y396406D02*
X410650D01*
Y415406D01*
X338370Y341827D02*
X342170D01*
Y329827D02*
Y333427D01*
X338370Y329827D02*
X342170D01*
Y338227D02*
Y341827D01*
X329050Y341691D02*
X330750D01*
Y395191D02*
Y396891D01*
X275550D02*
X277250D01*
X275550Y341691D02*
Y343391D01*
X330750Y341691D02*
Y343391D01*
X329050Y396891D02*
X330750D01*
X275550Y395191D02*
Y396891D01*
Y341691D02*
X277250D01*
D18*
X177322Y386535D02*
X212165D01*
X177322Y306378D02*
Y386535D01*
Y306378D02*
X212165D01*
Y386535D01*
X177322D02*
X212165D01*
X177322Y306378D02*
Y386535D01*
Y306378D02*
X212165D01*
Y386535D01*
X177322Y351457D02*
X193602D01*
X177322Y341457D02*
X193602D01*
Y351457D01*
X208453Y285931D02*
X211024D01*
X209738Y284646D02*
Y287216D01*
X208453Y298530D02*
X211024D01*
X209738Y297244D02*
Y299815D01*
X208453Y292230D02*
X211024D01*
X209738Y290945D02*
Y293516D01*
M02*
