G04*
G04 #@! TF.GenerationSoftware,Altium Limited,Altium Designer,21.9.2 (33)*
G04*
G04 Layer_Physical_Order=4*
G04 Layer_Color=16711680*
%FSLAX25Y25*%
%MOIN*%
G70*
G04*
G04 #@! TF.SameCoordinates,3EA75405-4CE9-4461-8B4E-421F381EEA3C*
G04*
G04*
G04 #@! TF.FilePolarity,Positive*
G04*
G01*
G75*
%ADD11C,0.00984*%
%ADD12C,0.01000*%
%ADD18R,0.03937X0.03543*%
%ADD27C,0.07795*%
%ADD29C,0.09055*%
%ADD31C,0.06299*%
%ADD35R,0.03543X0.03937*%
%ADD41C,0.01968*%
%ADD42C,0.01181*%
%ADD43R,0.06299X0.06299*%
%ADD44C,0.06000*%
%ADD45C,0.08661*%
%ADD46C,0.07874*%
%ADD47C,0.05906*%
%ADD48C,0.16142*%
%ADD49C,0.02362*%
%ADD50R,0.03150X0.03543*%
%ADD51R,0.02200X0.05000*%
%ADD52R,0.07800X0.02200*%
%ADD53R,0.03543X0.06496*%
%ADD54C,0.05906*%
G36*
X281102Y466535D02*
X259055D01*
Y413620D01*
X257480D01*
Y414665D01*
X251969D01*
Y409547D01*
X251969D01*
Y409350D01*
X251969D01*
Y404232D01*
X253713D01*
Y402336D01*
X253489Y402243D01*
X252875Y401629D01*
X252543Y400828D01*
Y399960D01*
X252875Y399158D01*
X253489Y398545D01*
X254291Y398213D01*
X255158D01*
X255960Y398545D01*
X256574Y399158D01*
X256906Y399960D01*
Y400828D01*
X256574Y401629D01*
X255960Y402243D01*
X255736Y402336D01*
Y404232D01*
X257480D01*
Y404731D01*
X259055D01*
Y349213D01*
X256807D01*
Y349425D01*
X254535D01*
Y346457D01*
Y343488D01*
X256807D01*
Y343701D01*
X259055D01*
Y214173D01*
X484333Y214173D01*
X484581Y213673D01*
X484315Y213032D01*
Y212165D01*
X484647Y211363D01*
X485261Y210749D01*
X486062Y210417D01*
X486930D01*
X487732Y210749D01*
X488345Y211363D01*
X488677Y212165D01*
Y213032D01*
X488412Y213673D01*
X488659Y214173D01*
X499213D01*
X499213Y315354D01*
X550394D01*
Y314386D01*
X548236D01*
Y311417D01*
Y308449D01*
X550394D01*
Y197653D01*
X259055Y197653D01*
D01*
X237023D01*
X237023Y466535D01*
D01*
Y503937D01*
X281102D01*
Y466535D01*
D02*
G37*
G36*
X668489Y197653D02*
X551913D01*
X551413Y197653D01*
Y211795D01*
X551913Y212002D01*
X552810Y211105D01*
X554094Y210364D01*
X555525Y209980D01*
X557008D01*
X558440Y210364D01*
X559724Y211105D01*
X560772Y212153D01*
X561513Y213437D01*
X561897Y214869D01*
Y216351D01*
X561513Y217783D01*
X560772Y219067D01*
X559724Y220115D01*
X558440Y220856D01*
X557008Y221240D01*
X555525D01*
X554094Y220856D01*
X552810Y220115D01*
X551913Y219219D01*
X551413Y219426D01*
Y264826D01*
X551913Y265033D01*
X552810Y264137D01*
X554094Y263396D01*
X555525Y263012D01*
X557008D01*
X558440Y263396D01*
X559724Y264137D01*
X560772Y265185D01*
X561513Y266469D01*
X561897Y267901D01*
Y269383D01*
X561513Y270815D01*
X560772Y272099D01*
X559724Y273147D01*
X558440Y273888D01*
X557008Y274272D01*
X555525D01*
X554094Y273888D01*
X552810Y273147D01*
X551913Y272250D01*
X551413Y272457D01*
Y298424D01*
X551896Y298553D01*
X552876Y299119D01*
X553677Y299919D01*
X554243Y300900D01*
X554535Y301993D01*
Y303125D01*
X554243Y304219D01*
X553677Y305199D01*
X552876Y305999D01*
X551896Y306565D01*
X551413Y306695D01*
Y308449D01*
X552551D01*
Y311417D01*
Y314386D01*
X551413D01*
Y315354D01*
X551336Y315744D01*
X551115Y316075D01*
X550784Y316296D01*
X550394Y316374D01*
X499213D01*
X498822Y316296D01*
X498492Y316075D01*
X498271Y315744D01*
X498193Y315354D01*
X498193Y215193D01*
X488659D01*
X488497Y215160D01*
X488333Y215139D01*
X488303Y215122D01*
X488269Y215115D01*
X488131Y215023D01*
X487988Y214941D01*
X487967Y214913D01*
X487938Y214894D01*
X487846Y214757D01*
X487745Y214626D01*
X487522Y214173D01*
X485471D01*
X485247Y214626D01*
X485146Y214757D01*
X485054Y214894D01*
X485025Y214913D01*
X485004Y214941D01*
X484861Y215023D01*
X484723Y215115D01*
X484689Y215122D01*
X484659Y215139D01*
X484495Y215160D01*
X484333Y215193D01*
X455102D01*
X454768Y215693D01*
X454937Y216102D01*
Y216969D01*
X454605Y217771D01*
X453991Y218385D01*
X453190Y218717D01*
X452322D01*
X451520Y218385D01*
X450907Y217771D01*
X450575Y216969D01*
Y216102D01*
X450744Y215693D01*
X450410Y215193D01*
X435417D01*
X435083Y215693D01*
X435252Y216102D01*
Y216969D01*
X434920Y217771D01*
X434306Y218385D01*
X433505Y218717D01*
X432637D01*
X431835Y218385D01*
X431222Y217771D01*
X430890Y216969D01*
Y216102D01*
X431059Y215693D01*
X430725Y215193D01*
X415732D01*
X415398Y215693D01*
X415567Y216102D01*
Y216969D01*
X415235Y217771D01*
X414621Y218385D01*
X413820Y218717D01*
X412952D01*
X412150Y218385D01*
X411537Y217771D01*
X411205Y216969D01*
Y216102D01*
X411374Y215693D01*
X411040Y215193D01*
X396047D01*
X395713Y215693D01*
X395882Y216102D01*
Y216969D01*
X395550Y217771D01*
X394936Y218385D01*
X394135Y218717D01*
X393267D01*
X392465Y218385D01*
X391852Y217771D01*
X391520Y216969D01*
Y216102D01*
X391689Y215693D01*
X391355Y215193D01*
X376362D01*
X376027Y215693D01*
X376197Y216102D01*
Y216969D01*
X375865Y217771D01*
X375251Y218385D01*
X374450Y218717D01*
X373582D01*
X372780Y218385D01*
X372167Y217771D01*
X371835Y216969D01*
Y216102D01*
X372004Y215693D01*
X371670Y215193D01*
X356677Y215193D01*
X356343Y215693D01*
X356512Y216102D01*
Y216969D01*
X356180Y217771D01*
X355566Y218385D01*
X354765Y218717D01*
X353897D01*
X353095Y218385D01*
X352482Y217771D01*
X352150Y216969D01*
Y216102D01*
X352319Y215693D01*
X351985Y215193D01*
X336992D01*
X336658Y215693D01*
X336827Y216102D01*
Y216969D01*
X336495Y217771D01*
X335881Y218385D01*
X335080Y218717D01*
X334212D01*
X333410Y218385D01*
X332797Y217771D01*
X332465Y216969D01*
Y216102D01*
X332634Y215693D01*
X332300Y215193D01*
X317306D01*
X316972Y215693D01*
X317142Y216102D01*
Y216969D01*
X316810Y217771D01*
X316196Y218385D01*
X315394Y218717D01*
X314527D01*
X313725Y218385D01*
X313112Y217771D01*
X312779Y216969D01*
Y216102D01*
X312949Y215693D01*
X312615Y215193D01*
X297621D01*
X297287Y215693D01*
X297457Y216102D01*
Y216969D01*
X297125Y217771D01*
X296511Y218385D01*
X295709Y218717D01*
X294842D01*
X294040Y218385D01*
X293426Y217771D01*
X293094Y216969D01*
Y216102D01*
X293264Y215693D01*
X292930Y215193D01*
X260075D01*
Y343488D01*
X262122D01*
Y345957D01*
X259350D01*
Y346957D01*
X262122D01*
Y349425D01*
X260075D01*
Y402455D01*
X263542D01*
Y409030D01*
X259767D01*
Y406754D01*
X257480D01*
Y409335D01*
X257693D01*
Y410593D01*
X263254D01*
Y410442D01*
X264854D01*
Y413942D01*
Y417443D01*
X263254D01*
Y413620D01*
X260075D01*
Y465516D01*
X281102D01*
X281492Y465593D01*
X281823Y465814D01*
X282044Y466145D01*
X282122Y466535D01*
Y470912D01*
X282584Y471104D01*
X298595Y455093D01*
Y380906D01*
X296850D01*
Y375787D01*
X302362D01*
Y380906D01*
X300618D01*
Y455512D01*
X300541Y455899D01*
X300322Y456227D01*
X283295Y473254D01*
Y523865D01*
X283218Y524252D01*
X282999Y524580D01*
X278372Y529207D01*
X278973Y530248D01*
X279357Y531680D01*
Y533162D01*
X278973Y534594D01*
X278232Y535878D01*
X277184Y536926D01*
X275900Y537668D01*
X274468Y538051D01*
X272986D01*
X271554Y537668D01*
X270270Y536926D01*
X269222Y535878D01*
X268481Y534594D01*
X268097Y533162D01*
Y531680D01*
X268481Y530248D01*
X269222Y528964D01*
X270270Y527916D01*
X271554Y527175D01*
X272986Y526791D01*
X274468D01*
X275900Y527175D01*
X276941Y527776D01*
X281272Y523446D01*
Y505386D01*
X280830Y504957D01*
X237023D01*
X237023Y505457D01*
Y550378D01*
X668489Y550378D01*
X668489Y197653D01*
D02*
G37*
%LPC*%
G36*
X253535Y349425D02*
X251264D01*
Y346957D01*
X253535D01*
Y349425D01*
D02*
G37*
G36*
Y345957D02*
X251264D01*
Y343488D01*
X253535D01*
Y345957D01*
D02*
G37*
G36*
X547236Y314386D02*
X544965D01*
Y311917D01*
X547236D01*
Y314386D01*
D02*
G37*
G36*
Y310917D02*
X544965D01*
Y308449D01*
X547236D01*
Y310917D01*
D02*
G37*
G36*
X540834Y274272D02*
X539351D01*
X537919Y273888D01*
X536636Y273147D01*
X535587Y272099D01*
X534846Y270815D01*
X534462Y269383D01*
Y267901D01*
X534846Y266469D01*
X535587Y265185D01*
X536636Y264137D01*
X537919Y263396D01*
X539351Y263012D01*
X540834D01*
X542266Y263396D01*
X543549Y264137D01*
X544597Y265185D01*
X545339Y266469D01*
X545722Y267901D01*
Y269383D01*
X545339Y270815D01*
X544597Y272099D01*
X543549Y273147D01*
X542266Y273888D01*
X540834Y274272D01*
D02*
G37*
G36*
X527448D02*
X525965D01*
X524534Y273888D01*
X523250Y273147D01*
X522202Y272099D01*
X521460Y270815D01*
X521077Y269383D01*
Y267901D01*
X521460Y266469D01*
X522202Y265185D01*
X523250Y264137D01*
X524534Y263396D01*
X525965Y263012D01*
X527448D01*
X528880Y263396D01*
X530163Y264137D01*
X531212Y265185D01*
X531953Y266469D01*
X532337Y267901D01*
Y269383D01*
X531953Y270815D01*
X531212Y272099D01*
X530163Y273147D01*
X528880Y273888D01*
X527448Y274272D01*
D02*
G37*
G36*
X514607Y229740D02*
X513739D01*
X512938Y229408D01*
X512324Y228795D01*
X511992Y227993D01*
Y227125D01*
X512324Y226324D01*
X512938Y225710D01*
X513739Y225378D01*
X514607D01*
X515409Y225710D01*
X516022Y226324D01*
X516354Y227125D01*
Y227993D01*
X516022Y228795D01*
X515409Y229408D01*
X514607Y229740D01*
D02*
G37*
G36*
X540834Y221240D02*
X539351D01*
X537919Y220856D01*
X536636Y220115D01*
X535587Y219067D01*
X534846Y217783D01*
X534462Y216351D01*
Y214869D01*
X534846Y213437D01*
X535587Y212153D01*
X536636Y211105D01*
X537919Y210364D01*
X539351Y209980D01*
X540834D01*
X542266Y210364D01*
X543549Y211105D01*
X544597Y212153D01*
X545339Y213437D01*
X545722Y214869D01*
Y216351D01*
X545339Y217783D01*
X544597Y219067D01*
X543549Y220115D01*
X542266Y220856D01*
X540834Y221240D01*
D02*
G37*
G36*
X527448D02*
X525965D01*
X524534Y220856D01*
X523250Y220115D01*
X522202Y219067D01*
X521460Y217783D01*
X521077Y216351D01*
Y214869D01*
X521460Y213437D01*
X522202Y212153D01*
X523250Y211105D01*
X524534Y210364D01*
X525965Y209980D01*
X527448D01*
X528880Y210364D01*
X530163Y211105D01*
X531212Y212153D01*
X531953Y213437D01*
X532337Y214869D01*
Y216351D01*
X531953Y217783D01*
X531212Y219067D01*
X530163Y220115D01*
X528880Y220856D01*
X527448Y221240D01*
D02*
G37*
G36*
X661851Y537614D02*
X660984D01*
X660182Y537282D01*
X659568Y536669D01*
X659236Y535867D01*
Y534999D01*
X659568Y534198D01*
X660182Y533584D01*
X660984Y533252D01*
X661851D01*
X662653Y533584D01*
X663266Y534198D01*
X663598Y534999D01*
Y535867D01*
X663266Y536669D01*
X662653Y537282D01*
X661851Y537614D01*
D02*
G37*
G36*
X646103D02*
X645235D01*
X644434Y537282D01*
X643820Y536669D01*
X643488Y535867D01*
Y534999D01*
X643820Y534198D01*
X644434Y533584D01*
X645235Y533252D01*
X646103D01*
X646905Y533584D01*
X647518Y534198D01*
X647850Y534999D01*
Y535867D01*
X647518Y536669D01*
X646905Y537282D01*
X646103Y537614D01*
D02*
G37*
G36*
X630355D02*
X629487D01*
X628686Y537282D01*
X628072Y536669D01*
X627740Y535867D01*
Y534999D01*
X628072Y534198D01*
X628686Y533584D01*
X629487Y533252D01*
X630355D01*
X631157Y533584D01*
X631770Y534198D01*
X632102Y534999D01*
Y535867D01*
X631770Y536669D01*
X631157Y537282D01*
X630355Y537614D01*
D02*
G37*
G36*
X614607D02*
X613739D01*
X612938Y537282D01*
X612324Y536669D01*
X611992Y535867D01*
Y534999D01*
X612324Y534198D01*
X612938Y533584D01*
X613739Y533252D01*
X614607D01*
X615409Y533584D01*
X616022Y534198D01*
X616354Y534999D01*
Y535867D01*
X616022Y536669D01*
X615409Y537282D01*
X614607Y537614D01*
D02*
G37*
G36*
X333913Y538051D02*
X332431D01*
X330999Y537668D01*
X329715Y536926D01*
X328667Y535878D01*
X327926Y534594D01*
X327542Y533162D01*
Y531680D01*
X327926Y530248D01*
X328667Y528964D01*
X329715Y527916D01*
X330999Y527175D01*
X332431Y526791D01*
X333913D01*
X335345Y527175D01*
X336629Y527916D01*
X337677Y528964D01*
X338418Y530248D01*
X338802Y531680D01*
Y533162D01*
X338418Y534594D01*
X337677Y535878D01*
X336629Y536926D01*
X335345Y537668D01*
X333913Y538051D01*
D02*
G37*
G36*
X320527D02*
X319045D01*
X317613Y537668D01*
X316329Y536926D01*
X315281Y535878D01*
X314540Y534594D01*
X314156Y533162D01*
Y531680D01*
X314540Y530248D01*
X315281Y528964D01*
X316329Y527916D01*
X317613Y527175D01*
X319045Y526791D01*
X320527D01*
X321959Y527175D01*
X323243Y527916D01*
X324291Y528964D01*
X325032Y530248D01*
X325416Y531680D01*
Y533162D01*
X325032Y534594D01*
X324291Y535878D01*
X323243Y536926D01*
X321959Y537668D01*
X320527Y538051D01*
D02*
G37*
G36*
X304353D02*
X302871D01*
X301439Y537668D01*
X300155Y536926D01*
X299107Y535878D01*
X298366Y534594D01*
X297982Y533162D01*
Y531680D01*
X298366Y530248D01*
X299107Y528964D01*
X300155Y527916D01*
X301439Y527175D01*
X302871Y526791D01*
X304353D01*
X305785Y527175D01*
X307069Y527916D01*
X308117Y528964D01*
X308858Y530248D01*
X309242Y531680D01*
Y533162D01*
X308858Y534594D01*
X308117Y535878D01*
X307069Y536926D01*
X305785Y537668D01*
X304353Y538051D01*
D02*
G37*
G36*
X290967D02*
X289485D01*
X288053Y537668D01*
X286769Y536926D01*
X285721Y535878D01*
X284980Y534594D01*
X284596Y533162D01*
Y531680D01*
X284980Y530248D01*
X285721Y528964D01*
X286769Y527916D01*
X288053Y527175D01*
X289485Y526791D01*
X290967D01*
X292399Y527175D01*
X293683Y527916D01*
X294731Y528964D01*
X295472Y530248D01*
X295856Y531680D01*
Y533162D01*
X295472Y534594D01*
X294731Y535878D01*
X293683Y536926D01*
X292399Y537668D01*
X290967Y538051D01*
D02*
G37*
G36*
X261082D02*
X259600D01*
X258168Y537668D01*
X256884Y536926D01*
X255836Y535878D01*
X255095Y534594D01*
X254711Y533162D01*
Y531680D01*
X255095Y530248D01*
X255836Y528964D01*
X256884Y527916D01*
X258168Y527175D01*
X259600Y526791D01*
X261082D01*
X262514Y527175D01*
X263798Y527916D01*
X264846Y528964D01*
X265587Y530248D01*
X265971Y531680D01*
Y533162D01*
X265587Y534594D01*
X264846Y535878D01*
X263798Y536926D01*
X262514Y537668D01*
X261082Y538051D01*
D02*
G37*
G36*
X570459Y538051D02*
X568976D01*
X567545Y537668D01*
X566261Y536926D01*
X565212Y535878D01*
X564471Y534594D01*
X564088Y533162D01*
Y531680D01*
X564471Y530248D01*
X565212Y528964D01*
X566261Y527916D01*
X567545Y527175D01*
X568976Y526791D01*
X570459D01*
X571891Y527175D01*
X573174Y527916D01*
X574223Y528964D01*
X574964Y530248D01*
X575348Y531680D01*
Y533162D01*
X574964Y534594D01*
X574223Y535878D01*
X573174Y536926D01*
X571891Y537668D01*
X570459Y538051D01*
D02*
G37*
G36*
X557073D02*
X555590D01*
X554159Y537668D01*
X552875Y536926D01*
X551827Y535878D01*
X551086Y534594D01*
X550702Y533162D01*
Y531680D01*
X551086Y530248D01*
X551827Y528964D01*
X552875Y527916D01*
X554159Y527175D01*
X555590Y526791D01*
X557073D01*
X558505Y527175D01*
X559789Y527916D01*
X560837Y528964D01*
X561578Y530248D01*
X561962Y531680D01*
Y533162D01*
X561578Y534594D01*
X560837Y535878D01*
X559789Y536926D01*
X558505Y537668D01*
X557073Y538051D01*
D02*
G37*
G36*
X540899D02*
X539416D01*
X537984Y537668D01*
X536701Y536926D01*
X535652Y535878D01*
X534911Y534594D01*
X534528Y533162D01*
Y531680D01*
X534911Y530248D01*
X535652Y528964D01*
X536701Y527916D01*
X537984Y527175D01*
X539416Y526791D01*
X540899D01*
X542331Y527175D01*
X543614Y527916D01*
X544663Y528964D01*
X545404Y530248D01*
X545787Y531680D01*
Y533162D01*
X545404Y534594D01*
X544663Y535878D01*
X543614Y536926D01*
X542331Y537668D01*
X540899Y538051D01*
D02*
G37*
G36*
X527513D02*
X526030D01*
X524599Y537668D01*
X523315Y536926D01*
X522267Y535878D01*
X521525Y534594D01*
X521142Y533162D01*
Y531680D01*
X521525Y530248D01*
X522267Y528964D01*
X523315Y527916D01*
X524599Y527175D01*
X526030Y526791D01*
X527513D01*
X528945Y527175D01*
X530229Y527916D01*
X531277Y528964D01*
X532018Y530248D01*
X532402Y531680D01*
Y533162D01*
X532018Y534594D01*
X531277Y535878D01*
X530229Y536926D01*
X528945Y537668D01*
X527513Y538051D01*
D02*
G37*
G36*
X511274D02*
X509791D01*
X508359Y537668D01*
X507076Y536926D01*
X506027Y535878D01*
X505286Y534594D01*
X504903Y533162D01*
Y531680D01*
X505286Y530248D01*
X506027Y528964D01*
X507076Y527916D01*
X508359Y527175D01*
X509791Y526791D01*
X511274D01*
X512706Y527175D01*
X513989Y527916D01*
X515037Y528964D01*
X515779Y530248D01*
X516162Y531680D01*
Y533162D01*
X515779Y534594D01*
X515037Y535878D01*
X513989Y536926D01*
X512706Y537668D01*
X511274Y538051D01*
D02*
G37*
G36*
X497888D02*
X496405D01*
X494974Y537668D01*
X493690Y536926D01*
X492641Y535878D01*
X491900Y534594D01*
X491517Y533162D01*
Y531680D01*
X491900Y530248D01*
X492641Y528964D01*
X493690Y527916D01*
X494974Y527175D01*
X496405Y526791D01*
X497888D01*
X499320Y527175D01*
X500603Y527916D01*
X501652Y528964D01*
X502393Y530248D01*
X502776Y531680D01*
Y533162D01*
X502393Y534594D01*
X501652Y535878D01*
X500603Y536926D01*
X499320Y537668D01*
X497888Y538051D01*
D02*
G37*
G36*
X481714D02*
X480231D01*
X478799Y537668D01*
X477516Y536926D01*
X476467Y535878D01*
X475726Y534594D01*
X475342Y533162D01*
Y531680D01*
X475726Y530248D01*
X476467Y528964D01*
X477516Y527916D01*
X478799Y527175D01*
X480231Y526791D01*
X481714D01*
X483145Y527175D01*
X484429Y527916D01*
X485477Y528964D01*
X486219Y530248D01*
X486602Y531680D01*
Y533162D01*
X486219Y534594D01*
X485477Y535878D01*
X484429Y536926D01*
X483145Y537668D01*
X481714Y538051D01*
D02*
G37*
G36*
X468328D02*
X466845D01*
X465414Y537668D01*
X464130Y536926D01*
X463082Y535878D01*
X462340Y534594D01*
X461957Y533162D01*
Y531680D01*
X462340Y530248D01*
X463082Y528964D01*
X464130Y527916D01*
X465414Y527175D01*
X466845Y526791D01*
X468328D01*
X469760Y527175D01*
X471043Y527916D01*
X472092Y528964D01*
X472833Y530248D01*
X473216Y531680D01*
Y533162D01*
X472833Y534594D01*
X472092Y535878D01*
X471043Y536926D01*
X469760Y537668D01*
X468328Y538051D01*
D02*
G37*
G36*
X452153D02*
X450671D01*
X449239Y537668D01*
X447956Y536926D01*
X446907Y535878D01*
X446166Y534594D01*
X445782Y533162D01*
Y531680D01*
X446166Y530248D01*
X446907Y528964D01*
X447956Y527916D01*
X449239Y527175D01*
X450671Y526791D01*
X452153D01*
X453585Y527175D01*
X454869Y527916D01*
X455917Y528964D01*
X456659Y530248D01*
X457042Y531680D01*
Y533162D01*
X456659Y534594D01*
X455917Y535878D01*
X454869Y536926D01*
X453585Y537668D01*
X452153Y538051D01*
D02*
G37*
G36*
X438768D02*
X437285D01*
X435853Y537668D01*
X434570Y536926D01*
X433521Y535878D01*
X432780Y534594D01*
X432397Y533162D01*
Y531680D01*
X432780Y530248D01*
X433521Y528964D01*
X434570Y527916D01*
X435853Y527175D01*
X437285Y526791D01*
X438768D01*
X440200Y527175D01*
X441483Y527916D01*
X442531Y528964D01*
X443273Y530248D01*
X443656Y531680D01*
Y533162D01*
X443273Y534594D01*
X442531Y535878D01*
X441483Y536926D01*
X440200Y537668D01*
X438768Y538051D01*
D02*
G37*
G36*
X422593D02*
X421111D01*
X419679Y537668D01*
X418395Y536926D01*
X417347Y535878D01*
X416606Y534594D01*
X416222Y533162D01*
Y531680D01*
X416606Y530248D01*
X417347Y528964D01*
X418395Y527916D01*
X419679Y527175D01*
X421111Y526791D01*
X422593D01*
X424025Y527175D01*
X425309Y527916D01*
X426357Y528964D01*
X427099Y530248D01*
X427482Y531680D01*
Y533162D01*
X427099Y534594D01*
X426357Y535878D01*
X425309Y536926D01*
X424025Y537668D01*
X422593Y538051D01*
D02*
G37*
G36*
X409208D02*
X407725D01*
X406293Y537668D01*
X405010Y536926D01*
X403961Y535878D01*
X403220Y534594D01*
X402837Y533162D01*
Y531680D01*
X403220Y530248D01*
X403961Y528964D01*
X405010Y527916D01*
X406293Y527175D01*
X407725Y526791D01*
X409208D01*
X410639Y527175D01*
X411923Y527916D01*
X412971Y528964D01*
X413713Y530248D01*
X414096Y531680D01*
Y533162D01*
X413713Y534594D01*
X412971Y535878D01*
X411923Y536926D01*
X410639Y537668D01*
X409208Y538051D01*
D02*
G37*
G36*
X393033D02*
X391551D01*
X390119Y537668D01*
X388835Y536926D01*
X387787Y535878D01*
X387046Y534594D01*
X386662Y533162D01*
Y531680D01*
X387046Y530248D01*
X387787Y528964D01*
X388835Y527916D01*
X390119Y527175D01*
X391551Y526791D01*
X393033D01*
X394465Y527175D01*
X395749Y527916D01*
X396797Y528964D01*
X397538Y530248D01*
X397922Y531680D01*
Y533162D01*
X397538Y534594D01*
X396797Y535878D01*
X395749Y536926D01*
X394465Y537668D01*
X393033Y538051D01*
D02*
G37*
G36*
X379648D02*
X378165D01*
X376733Y537668D01*
X375449Y536926D01*
X374401Y535878D01*
X373660Y534594D01*
X373276Y533162D01*
Y531680D01*
X373660Y530248D01*
X374401Y528964D01*
X375449Y527916D01*
X376733Y527175D01*
X378165Y526791D01*
X379648D01*
X381079Y527175D01*
X382363Y527916D01*
X383411Y528964D01*
X384153Y530248D01*
X384536Y531680D01*
Y533162D01*
X384153Y534594D01*
X383411Y535878D01*
X382363Y536926D01*
X381079Y537668D01*
X379648Y538051D01*
D02*
G37*
G36*
X363473D02*
X361991D01*
X360559Y537668D01*
X359275Y536926D01*
X358227Y535878D01*
X357486Y534594D01*
X357102Y533162D01*
Y531680D01*
X357486Y530248D01*
X358227Y528964D01*
X359275Y527916D01*
X360559Y527175D01*
X361991Y526791D01*
X363473D01*
X364905Y527175D01*
X366189Y527916D01*
X367237Y528964D01*
X367978Y530248D01*
X368362Y531680D01*
Y533162D01*
X367978Y534594D01*
X367237Y535878D01*
X366189Y536926D01*
X364905Y537668D01*
X363473Y538051D01*
D02*
G37*
G36*
X350087D02*
X348605D01*
X347173Y537668D01*
X345889Y536926D01*
X344841Y535878D01*
X344100Y534594D01*
X343716Y533162D01*
Y531680D01*
X344100Y530248D01*
X344841Y528964D01*
X345889Y527916D01*
X347173Y527175D01*
X348605Y526791D01*
X350087D01*
X351519Y527175D01*
X352803Y527916D01*
X353851Y528964D01*
X354592Y530248D01*
X354976Y531680D01*
Y533162D01*
X354592Y534594D01*
X353851Y535878D01*
X352803Y536926D01*
X351519Y537668D01*
X350087Y538051D01*
D02*
G37*
G36*
X600019Y538051D02*
X598536D01*
X597105Y537668D01*
X595821Y536926D01*
X594772Y535878D01*
X594031Y534594D01*
X593648Y533162D01*
Y531680D01*
X594031Y530248D01*
X594772Y528964D01*
X595821Y527916D01*
X597105Y527175D01*
X598536Y526791D01*
X600019D01*
X601451Y527175D01*
X602735Y527916D01*
X603783Y528964D01*
X604524Y530248D01*
X604908Y531680D01*
Y533162D01*
X604524Y534594D01*
X603783Y535878D01*
X602735Y536926D01*
X601451Y537668D01*
X600019Y538051D01*
D02*
G37*
G36*
X586633D02*
X585151D01*
X583719Y537668D01*
X582435Y536926D01*
X581387Y535878D01*
X580646Y534594D01*
X580262Y533162D01*
Y531680D01*
X580646Y530248D01*
X581387Y528964D01*
X582435Y527916D01*
X583719Y527175D01*
X585151Y526791D01*
X586633D01*
X588065Y527175D01*
X589349Y527916D01*
X590397Y528964D01*
X591138Y530248D01*
X591522Y531680D01*
Y533162D01*
X591138Y534594D01*
X590397Y535878D01*
X589349Y536926D01*
X588065Y537668D01*
X586633Y538051D01*
D02*
G37*
G36*
X661851Y521866D02*
X660984D01*
X660182Y521534D01*
X659568Y520921D01*
X659236Y520119D01*
Y519251D01*
X659568Y518449D01*
X660182Y517836D01*
X660984Y517504D01*
X661851D01*
X662653Y517836D01*
X663266Y518449D01*
X663598Y519251D01*
Y520119D01*
X663266Y520921D01*
X662653Y521534D01*
X661851Y521866D01*
D02*
G37*
G36*
X646103D02*
X645235D01*
X644434Y521534D01*
X643820Y520921D01*
X643488Y520119D01*
Y519251D01*
X643820Y518449D01*
X644434Y517836D01*
X645235Y517504D01*
X646103D01*
X646905Y517836D01*
X647518Y518449D01*
X647850Y519251D01*
Y520119D01*
X647518Y520921D01*
X646905Y521534D01*
X646103Y521866D01*
D02*
G37*
G36*
X630355D02*
X629487D01*
X628686Y521534D01*
X628072Y520921D01*
X627740Y520119D01*
Y519251D01*
X628072Y518449D01*
X628686Y517836D01*
X629487Y517504D01*
X630355D01*
X631157Y517836D01*
X631770Y518449D01*
X632102Y519251D01*
Y520119D01*
X631770Y520921D01*
X631157Y521534D01*
X630355Y521866D01*
D02*
G37*
G36*
X614607D02*
X613739D01*
X612938Y521534D01*
X612324Y520921D01*
X611992Y520119D01*
Y519251D01*
X612324Y518449D01*
X612938Y517836D01*
X613739Y517504D01*
X614607D01*
X615409Y517836D01*
X616022Y518449D01*
X616354Y519251D01*
Y520119D01*
X616022Y520921D01*
X615409Y521534D01*
X614607Y521866D01*
D02*
G37*
G36*
X598859D02*
X597991D01*
X597190Y521534D01*
X596576Y520921D01*
X596244Y520119D01*
Y519251D01*
X596576Y518449D01*
X597190Y517836D01*
X597991Y517504D01*
X598859D01*
X599661Y517836D01*
X600274Y518449D01*
X600606Y519251D01*
Y520119D01*
X600274Y520921D01*
X599661Y521534D01*
X598859Y521866D01*
D02*
G37*
G36*
X583111D02*
X582243D01*
X581442Y521534D01*
X580828Y520921D01*
X580496Y520119D01*
Y519251D01*
X580828Y518449D01*
X581442Y517836D01*
X582243Y517504D01*
X583111D01*
X583913Y517836D01*
X584526Y518449D01*
X584858Y519251D01*
Y520119D01*
X584526Y520921D01*
X583913Y521534D01*
X583111Y521866D01*
D02*
G37*
G36*
X567363D02*
X566495D01*
X565694Y521534D01*
X565080Y520921D01*
X564748Y520119D01*
Y519251D01*
X565080Y518449D01*
X565694Y517836D01*
X566495Y517504D01*
X567363D01*
X568165Y517836D01*
X568778Y518449D01*
X569110Y519251D01*
Y520119D01*
X568778Y520921D01*
X568165Y521534D01*
X567363Y521866D01*
D02*
G37*
G36*
X559489D02*
X558621D01*
X557820Y521534D01*
X557206Y520921D01*
X556874Y520119D01*
Y519251D01*
X557206Y518449D01*
X557820Y517836D01*
X558621Y517504D01*
X559489D01*
X560291Y517836D01*
X560904Y518449D01*
X561236Y519251D01*
Y520119D01*
X560904Y520921D01*
X560291Y521534D01*
X559489Y521866D01*
D02*
G37*
G36*
X535867D02*
X534999D01*
X534198Y521534D01*
X533584Y520921D01*
X533252Y520119D01*
Y519251D01*
X533584Y518449D01*
X534198Y517836D01*
X534999Y517504D01*
X535867D01*
X536669Y517836D01*
X537282Y518449D01*
X537614Y519251D01*
Y520119D01*
X537282Y520921D01*
X536669Y521534D01*
X535867Y521866D01*
D02*
G37*
G36*
X527993D02*
X527125D01*
X526324Y521534D01*
X525710Y520921D01*
X525378Y520119D01*
Y519251D01*
X525710Y518449D01*
X526324Y517836D01*
X527125Y517504D01*
X527993D01*
X528794Y517836D01*
X529408Y518449D01*
X529740Y519251D01*
Y520119D01*
X529408Y520921D01*
X528794Y521534D01*
X527993Y521866D01*
D02*
G37*
G36*
X512245D02*
X511377D01*
X510575Y521534D01*
X509962Y520921D01*
X509630Y520119D01*
Y519251D01*
X509962Y518449D01*
X510575Y517836D01*
X511377Y517504D01*
X512245D01*
X513047Y517836D01*
X513660Y518449D01*
X513992Y519251D01*
Y520119D01*
X513660Y520921D01*
X513047Y521534D01*
X512245Y521866D01*
D02*
G37*
G36*
X496497D02*
X495629D01*
X494828Y521534D01*
X494214Y520921D01*
X493882Y520119D01*
Y519251D01*
X494214Y518449D01*
X494828Y517836D01*
X495629Y517504D01*
X496497D01*
X497298Y517836D01*
X497912Y518449D01*
X498244Y519251D01*
Y520119D01*
X497912Y520921D01*
X497298Y521534D01*
X496497Y521866D01*
D02*
G37*
G36*
X480749D02*
X479881D01*
X479079Y521534D01*
X478466Y520921D01*
X478134Y520119D01*
Y519251D01*
X478466Y518449D01*
X479079Y517836D01*
X479881Y517504D01*
X480749D01*
X481551Y517836D01*
X482164Y518449D01*
X482496Y519251D01*
Y520119D01*
X482164Y520921D01*
X481551Y521534D01*
X480749Y521866D01*
D02*
G37*
G36*
X465001D02*
X464133D01*
X463331Y521534D01*
X462718Y520921D01*
X462386Y520119D01*
Y519251D01*
X462718Y518449D01*
X463331Y517836D01*
X464133Y517504D01*
X465001D01*
X465802Y517836D01*
X466416Y518449D01*
X466748Y519251D01*
Y520119D01*
X466416Y520921D01*
X465802Y521534D01*
X465001Y521866D01*
D02*
G37*
G36*
X449253D02*
X448385D01*
X447583Y521534D01*
X446970Y520921D01*
X446638Y520119D01*
Y519251D01*
X446970Y518449D01*
X447583Y517836D01*
X448385Y517504D01*
X449253D01*
X450054Y517836D01*
X450668Y518449D01*
X451000Y519251D01*
Y520119D01*
X450668Y520921D01*
X450054Y521534D01*
X449253Y521866D01*
D02*
G37*
G36*
X441379D02*
X440511D01*
X439709Y521534D01*
X439096Y520921D01*
X438764Y520119D01*
Y519251D01*
X439096Y518449D01*
X439709Y517836D01*
X440511Y517504D01*
X441379D01*
X442180Y517836D01*
X442794Y518449D01*
X443126Y519251D01*
Y520119D01*
X442794Y520921D01*
X442180Y521534D01*
X441379Y521866D01*
D02*
G37*
G36*
X425631D02*
X424763D01*
X423961Y521534D01*
X423348Y520921D01*
X423016Y520119D01*
Y519251D01*
X423348Y518449D01*
X423961Y517836D01*
X424763Y517504D01*
X425631D01*
X426432Y517836D01*
X427046Y518449D01*
X427378Y519251D01*
Y520119D01*
X427046Y520921D01*
X426432Y521534D01*
X425631Y521866D01*
D02*
G37*
G36*
X409883D02*
X409015D01*
X408213Y521534D01*
X407600Y520921D01*
X407268Y520119D01*
Y519251D01*
X407600Y518449D01*
X408213Y517836D01*
X409015Y517504D01*
X409883D01*
X410684Y517836D01*
X411298Y518449D01*
X411630Y519251D01*
Y520119D01*
X411298Y520921D01*
X410684Y521534D01*
X409883Y521866D01*
D02*
G37*
G36*
X394135D02*
X393267D01*
X392465Y521534D01*
X391852Y520921D01*
X391520Y520119D01*
Y519251D01*
X391852Y518449D01*
X392465Y517836D01*
X393267Y517504D01*
X394135D01*
X394936Y517836D01*
X395550Y518449D01*
X395882Y519251D01*
Y520119D01*
X395550Y520921D01*
X394936Y521534D01*
X394135Y521866D01*
D02*
G37*
G36*
X378387D02*
X377519D01*
X376717Y521534D01*
X376104Y520921D01*
X375772Y520119D01*
Y519251D01*
X376104Y518449D01*
X376717Y517836D01*
X377519Y517504D01*
X378387D01*
X379188Y517836D01*
X379802Y518449D01*
X380134Y519251D01*
Y520119D01*
X379802Y520921D01*
X379188Y521534D01*
X378387Y521866D01*
D02*
G37*
G36*
X362639D02*
X361771D01*
X360969Y521534D01*
X360356Y520921D01*
X360024Y520119D01*
Y519251D01*
X360356Y518449D01*
X360969Y517836D01*
X361771Y517504D01*
X362639D01*
X363440Y517836D01*
X364054Y518449D01*
X364386Y519251D01*
Y520119D01*
X364054Y520921D01*
X363440Y521534D01*
X362639Y521866D01*
D02*
G37*
G36*
X346890D02*
X346023D01*
X345221Y521534D01*
X344608Y520921D01*
X344276Y520119D01*
Y519251D01*
X344608Y518449D01*
X345221Y517836D01*
X346023Y517504D01*
X346890D01*
X347692Y517836D01*
X348306Y518449D01*
X348638Y519251D01*
Y520119D01*
X348306Y520921D01*
X347692Y521534D01*
X346890Y521866D01*
D02*
G37*
G36*
X331142D02*
X330275D01*
X329473Y521534D01*
X328860Y520921D01*
X328528Y520119D01*
Y519251D01*
X328860Y518449D01*
X329473Y517836D01*
X330275Y517504D01*
X331142D01*
X331944Y517836D01*
X332558Y518449D01*
X332890Y519251D01*
Y520119D01*
X332558Y520921D01*
X331944Y521534D01*
X331142Y521866D01*
D02*
G37*
G36*
X323269D02*
X322401D01*
X321599Y521534D01*
X320986Y520921D01*
X320654Y520119D01*
Y519251D01*
X320986Y518449D01*
X321599Y517836D01*
X322401Y517504D01*
X323269D01*
X324070Y517836D01*
X324684Y518449D01*
X325016Y519251D01*
Y520119D01*
X324684Y520921D01*
X324070Y521534D01*
X323269Y521866D01*
D02*
G37*
G36*
X307521D02*
X306653D01*
X305851Y521534D01*
X305238Y520921D01*
X304906Y520119D01*
Y519251D01*
X305238Y518449D01*
X305851Y517836D01*
X306653Y517504D01*
X307521D01*
X308322Y517836D01*
X308936Y518449D01*
X309268Y519251D01*
Y520119D01*
X308936Y520921D01*
X308322Y521534D01*
X307521Y521866D01*
D02*
G37*
G36*
X291772D02*
X290905D01*
X290103Y521534D01*
X289490Y520921D01*
X289158Y520119D01*
Y519251D01*
X289490Y518449D01*
X290103Y517836D01*
X290905Y517504D01*
X291772D01*
X292574Y517836D01*
X293188Y518449D01*
X293520Y519251D01*
Y520119D01*
X293188Y520921D01*
X292574Y521534D01*
X291772Y521866D01*
D02*
G37*
G36*
X276024D02*
X275157D01*
X274355Y521534D01*
X273742Y520921D01*
X273410Y520119D01*
Y519251D01*
X273742Y518449D01*
X274355Y517836D01*
X275157Y517504D01*
X276024D01*
X276826Y517836D01*
X277440Y518449D01*
X277772Y519251D01*
Y520119D01*
X277440Y520921D01*
X276826Y521534D01*
X276024Y521866D01*
D02*
G37*
G36*
X260276D02*
X259409D01*
X258607Y521534D01*
X257994Y520921D01*
X257661Y520119D01*
Y519251D01*
X257994Y518449D01*
X258607Y517836D01*
X259409Y517504D01*
X260276D01*
X261078Y517836D01*
X261692Y518449D01*
X262024Y519251D01*
Y520119D01*
X261692Y520921D01*
X261078Y521534D01*
X260276Y521866D01*
D02*
G37*
G36*
X616576Y492339D02*
X615708D01*
X614906Y492006D01*
X614293Y491393D01*
X613961Y490591D01*
Y489724D01*
X614293Y488922D01*
X614906Y488308D01*
X615708Y487976D01*
X616576D01*
X617377Y488308D01*
X617991Y488922D01*
X618323Y489724D01*
Y490591D01*
X617991Y491393D01*
X617377Y492006D01*
X616576Y492339D01*
D02*
G37*
G36*
X600828D02*
X599960D01*
X599158Y492006D01*
X598545Y491393D01*
X598213Y490591D01*
Y489724D01*
X598545Y488922D01*
X599158Y488308D01*
X599960Y487976D01*
X600828D01*
X601629Y488308D01*
X602243Y488922D01*
X602575Y489724D01*
Y490591D01*
X602243Y491393D01*
X601629Y492006D01*
X600828Y492339D01*
D02*
G37*
G36*
X537835Y490370D02*
X536968D01*
X536166Y490038D01*
X535553Y489425D01*
X535220Y488623D01*
Y487755D01*
X535553Y486953D01*
X536166Y486340D01*
X536968Y486008D01*
X537835D01*
X538637Y486340D01*
X539251Y486953D01*
X539583Y487755D01*
Y488623D01*
X539251Y489425D01*
X538637Y490038D01*
X537835Y490370D01*
D02*
G37*
G36*
X527993D02*
X527125D01*
X526324Y490038D01*
X525710Y489425D01*
X525378Y488623D01*
Y487755D01*
X525710Y486953D01*
X526324Y486340D01*
X527125Y486008D01*
X527993D01*
X528794Y486340D01*
X529408Y486953D01*
X529740Y487755D01*
Y488623D01*
X529408Y489425D01*
X528794Y490038D01*
X527993Y490370D01*
D02*
G37*
G36*
X333913Y485020D02*
X332431D01*
X330999Y484636D01*
X329715Y483895D01*
X328667Y482847D01*
X327926Y481563D01*
X327642Y480502D01*
X325317D01*
X325032Y481563D01*
X324291Y482847D01*
X323243Y483895D01*
X321959Y484636D01*
X320527Y485020D01*
X319045D01*
X317613Y484636D01*
X316329Y483895D01*
X315281Y482847D01*
X314540Y481563D01*
X314156Y480131D01*
Y478649D01*
X314540Y477217D01*
X315281Y475933D01*
X316329Y474885D01*
X317613Y474144D01*
X319045Y473760D01*
X320527D01*
X321959Y474144D01*
X323243Y474885D01*
X324291Y475933D01*
X325032Y477217D01*
X325317Y478278D01*
X327642D01*
X327926Y477217D01*
X328667Y475933D01*
X329715Y474885D01*
X330999Y474144D01*
X332431Y473760D01*
X333913D01*
X335345Y474144D01*
X336297Y474693D01*
X348747Y462242D01*
X348540Y461742D01*
X322832D01*
X308309Y476265D01*
X308858Y477217D01*
X309242Y478649D01*
Y480131D01*
X308858Y481563D01*
X308117Y482847D01*
X307069Y483895D01*
X305785Y484636D01*
X304353Y485020D01*
X302871D01*
X301439Y484636D01*
X300155Y483895D01*
X299107Y482847D01*
X298366Y481563D01*
X298081Y480502D01*
X295757D01*
X295472Y481563D01*
X294731Y482847D01*
X293683Y483895D01*
X292399Y484636D01*
X290967Y485020D01*
X289485D01*
X288053Y484636D01*
X286769Y483895D01*
X285721Y482847D01*
X284980Y481563D01*
X284596Y480131D01*
Y478649D01*
X284980Y477217D01*
X285721Y475933D01*
X286769Y474885D01*
X288053Y474144D01*
X289485Y473760D01*
X290967D01*
X292399Y474144D01*
X293683Y474885D01*
X294731Y475933D01*
X295472Y477217D01*
X295757Y478278D01*
X298081D01*
X298366Y477217D01*
X299107Y475933D01*
X300155Y474885D01*
X301439Y474144D01*
X302871Y473760D01*
X304353D01*
X305785Y474144D01*
X306736Y474693D01*
X321586Y459844D01*
X321946Y459603D01*
X322372Y459518D01*
X322372Y459518D01*
X509382D01*
X609124Y359776D01*
Y326772D01*
X609124Y326772D01*
X609209Y326346D01*
X609450Y325985D01*
X621261Y314174D01*
X621622Y313933D01*
X622047Y313849D01*
X622047Y313849D01*
X625817D01*
X625959Y313319D01*
X626519Y312350D01*
X627311Y311558D01*
X628280Y310998D01*
X629361Y310709D01*
X630481D01*
X631563Y310998D01*
X632532Y311558D01*
X633324Y312350D01*
X633883Y313319D01*
X634173Y314401D01*
Y315520D01*
X633883Y316602D01*
X633324Y317571D01*
X632546Y318349D01*
X632551Y318452D01*
X632657Y318849D01*
X634303D01*
X636076Y317076D01*
X635802Y316602D01*
X635512Y315520D01*
Y314401D01*
X635802Y313319D01*
X636361Y312350D01*
X637153Y311558D01*
X638123Y310998D01*
X639204Y310709D01*
X640324D01*
X641405Y310998D01*
X642375Y311558D01*
X643166Y312350D01*
X643726Y313319D01*
X644016Y314401D01*
Y315520D01*
X643726Y316602D01*
X643166Y317571D01*
X642375Y318363D01*
X641405Y318923D01*
X640324Y319213D01*
X639204D01*
X638123Y318923D01*
X637648Y318649D01*
X635550Y320747D01*
X635189Y320988D01*
X634764Y321073D01*
X634764Y321073D01*
X632911D01*
X632704Y321573D01*
X633324Y322192D01*
X633883Y323162D01*
X634173Y324243D01*
Y325363D01*
X633883Y326444D01*
X633324Y327414D01*
X632546Y328191D01*
X632551Y328295D01*
X632657Y328691D01*
X634303D01*
X636076Y326919D01*
X635802Y326444D01*
X635512Y325363D01*
Y324243D01*
X635802Y323162D01*
X636361Y322192D01*
X637153Y321401D01*
X638123Y320841D01*
X639204Y320551D01*
X640324D01*
X641405Y320841D01*
X642375Y321401D01*
X643166Y322192D01*
X643726Y323162D01*
X644016Y324243D01*
Y325363D01*
X643726Y326444D01*
X643166Y327414D01*
X642375Y328206D01*
X641405Y328765D01*
X640324Y329055D01*
X639204D01*
X638123Y328765D01*
X637648Y328491D01*
X635550Y330589D01*
X635189Y330830D01*
X634764Y330915D01*
X634764Y330915D01*
X632911D01*
X632704Y331415D01*
X633324Y332035D01*
X633883Y333004D01*
X634173Y334086D01*
Y335206D01*
X633883Y336287D01*
X633324Y337256D01*
X632546Y338034D01*
X632551Y338138D01*
X632657Y338534D01*
X634303D01*
X636076Y336761D01*
X635802Y336287D01*
X635512Y335206D01*
Y334086D01*
X635802Y333004D01*
X636361Y332035D01*
X637153Y331243D01*
X638123Y330683D01*
X639204Y330394D01*
X640324D01*
X641405Y330683D01*
X642375Y331243D01*
X643166Y332035D01*
X643726Y333004D01*
X644016Y334086D01*
Y335206D01*
X643726Y336287D01*
X643166Y337256D01*
X642375Y338048D01*
X641405Y338608D01*
X640324Y338898D01*
X639204D01*
X638123Y338608D01*
X637648Y338334D01*
X635550Y340432D01*
X635189Y340673D01*
X634764Y340758D01*
X634764Y340758D01*
X632911D01*
X632704Y341258D01*
X633324Y341877D01*
X633883Y342847D01*
X634173Y343928D01*
Y345048D01*
X633883Y346129D01*
X633324Y347099D01*
X632546Y347876D01*
X632551Y347980D01*
X632657Y348376D01*
X641152D01*
X643652Y345876D01*
Y339488D01*
X643652Y339488D01*
X643737Y339063D01*
X643977Y338702D01*
X645918Y336761D01*
X645644Y336287D01*
X645354Y335206D01*
Y334086D01*
X645644Y333004D01*
X646204Y332035D01*
X646996Y331243D01*
X647965Y330683D01*
X649047Y330394D01*
X650166D01*
X651248Y330683D01*
X652217Y331243D01*
X653009Y332035D01*
X653569Y333004D01*
X653858Y334086D01*
Y335206D01*
X653569Y336287D01*
X653009Y337256D01*
X652217Y338048D01*
X651248Y338608D01*
X650166Y338898D01*
X649047D01*
X647965Y338608D01*
X647491Y338334D01*
X645876Y339949D01*
Y341498D01*
X646376Y341706D01*
X646996Y341086D01*
X647965Y340526D01*
X649047Y340236D01*
X650166D01*
X651248Y340526D01*
X652217Y341086D01*
X652994Y341863D01*
X653098Y341859D01*
X653494Y341753D01*
Y339488D01*
X653494Y339488D01*
X653579Y339063D01*
X653820Y338702D01*
X655761Y336761D01*
X655487Y336287D01*
X655197Y335206D01*
Y334086D01*
X655487Y333004D01*
X656046Y332035D01*
X656838Y331243D01*
X657808Y330683D01*
X658889Y330394D01*
X660009D01*
X661090Y330683D01*
X662060Y331243D01*
X662851Y332035D01*
X663411Y333004D01*
X663701Y334086D01*
Y335206D01*
X663411Y336287D01*
X662851Y337256D01*
X662060Y338048D01*
X661090Y338608D01*
X660009Y338898D01*
X658889D01*
X657808Y338608D01*
X657333Y338334D01*
X655718Y339949D01*
Y341498D01*
X656218Y341706D01*
X656838Y341086D01*
X657808Y340526D01*
X658889Y340236D01*
X660009D01*
X661090Y340526D01*
X662060Y341086D01*
X662851Y341877D01*
X663411Y342847D01*
X663701Y343928D01*
Y345048D01*
X663411Y346129D01*
X662851Y347099D01*
X662060Y347891D01*
X661090Y348450D01*
X660009Y348740D01*
X658889D01*
X657808Y348450D01*
X656838Y347891D01*
X656046Y347099D01*
X656030Y347070D01*
X655441Y347050D01*
X655393Y347123D01*
X655393Y347123D01*
X652280Y350235D01*
X652158Y350317D01*
X652165Y350898D01*
X652217Y350928D01*
X653009Y351720D01*
X653569Y352690D01*
X653858Y353771D01*
Y354890D01*
X653569Y355972D01*
X653009Y356942D01*
X652217Y357733D01*
X651248Y358293D01*
X650166Y358583D01*
X649047D01*
X647965Y358293D01*
X646996Y357733D01*
X646204Y356942D01*
X646154Y356854D01*
X646140Y356849D01*
X645586Y356872D01*
X645471Y357044D01*
X642398Y360117D01*
X642038Y360358D01*
X641612Y360443D01*
X641612Y360443D01*
X628376D01*
X622872Y365947D01*
Y372335D01*
X622787Y372760D01*
X622546Y373121D01*
X622546Y373121D01*
X554418Y441249D01*
X554668Y441682D01*
X554921Y441614D01*
X556300D01*
X557631Y441971D01*
X558825Y442660D01*
X559800Y443635D01*
X560490Y444829D01*
X560847Y446161D01*
Y447540D01*
X560490Y448872D01*
X559800Y450066D01*
X558825Y451040D01*
X557631Y451730D01*
X556300Y452087D01*
X554921D01*
X553589Y451730D01*
X552395Y451040D01*
X551420Y450066D01*
X550731Y448872D01*
X550374Y447540D01*
Y446161D01*
X550442Y445908D01*
X550009Y445658D01*
X522727Y472940D01*
X522367Y473181D01*
X521941Y473266D01*
X521941Y473266D01*
X511287D01*
X511274Y473760D01*
X512706Y474144D01*
X513989Y474885D01*
X515037Y475933D01*
X515779Y477217D01*
X516162Y478649D01*
Y480131D01*
X515779Y481563D01*
X515037Y482847D01*
X513989Y483895D01*
X512706Y484636D01*
X511274Y485020D01*
X509791D01*
X508359Y484636D01*
X507076Y483895D01*
X506027Y482847D01*
X505286Y481563D01*
X504903Y480131D01*
Y478649D01*
X505286Y477217D01*
X506027Y475933D01*
X507076Y474885D01*
X508359Y474144D01*
X509791Y473760D01*
X509778Y473266D01*
X497901D01*
X497888Y473760D01*
X499320Y474144D01*
X500603Y474885D01*
X501652Y475933D01*
X502393Y477217D01*
X502776Y478649D01*
Y480131D01*
X502393Y481563D01*
X501652Y482847D01*
X500603Y483895D01*
X499320Y484636D01*
X497888Y485020D01*
X496405D01*
X494974Y484636D01*
X493690Y483895D01*
X492641Y482847D01*
X491900Y481563D01*
X491517Y480131D01*
Y478649D01*
X491900Y477217D01*
X492641Y475933D01*
X493690Y474885D01*
X494974Y474144D01*
X496405Y473760D01*
X496392Y473266D01*
X488669D01*
X485669Y476265D01*
X486219Y477217D01*
X486602Y478649D01*
Y480131D01*
X486219Y481563D01*
X485477Y482847D01*
X484429Y483895D01*
X483145Y484636D01*
X481714Y485020D01*
X480231D01*
X478799Y484636D01*
X477516Y483895D01*
X476467Y482847D01*
X475726Y481563D01*
X475442Y480502D01*
X473117D01*
X472833Y481563D01*
X472092Y482847D01*
X471043Y483895D01*
X469760Y484636D01*
X468328Y485020D01*
X466845D01*
X465414Y484636D01*
X464130Y483895D01*
X463082Y482847D01*
X462340Y481563D01*
X461957Y480131D01*
Y478649D01*
X462340Y477217D01*
X463082Y475933D01*
X464130Y474885D01*
X465414Y474144D01*
X466845Y473760D01*
X468328D01*
X469760Y474144D01*
X471043Y474885D01*
X472092Y475933D01*
X472833Y477217D01*
X473117Y478278D01*
X475442D01*
X475726Y477217D01*
X476467Y475933D01*
X477516Y474885D01*
X478799Y474144D01*
X480231Y473760D01*
X481714D01*
X483145Y474144D01*
X484097Y474693D01*
X486743Y472046D01*
X486552Y471584D01*
X460790D01*
X456109Y476265D01*
X456659Y477217D01*
X457042Y478649D01*
Y480131D01*
X456659Y481563D01*
X455917Y482847D01*
X454869Y483895D01*
X453585Y484636D01*
X452153Y485020D01*
X450671D01*
X449239Y484636D01*
X447956Y483895D01*
X446907Y482847D01*
X446166Y481563D01*
X445882Y480502D01*
X443557D01*
X443273Y481563D01*
X442531Y482847D01*
X441483Y483895D01*
X440200Y484636D01*
X438768Y485020D01*
X437285D01*
X435853Y484636D01*
X434570Y483895D01*
X433521Y482847D01*
X432780Y481563D01*
X432397Y480131D01*
Y478649D01*
X432780Y477217D01*
X433521Y475933D01*
X434570Y474885D01*
X435853Y474144D01*
X437285Y473760D01*
X438768D01*
X440200Y474144D01*
X441483Y474885D01*
X442531Y475933D01*
X443273Y477217D01*
X443557Y478278D01*
X445882D01*
X446166Y477217D01*
X446907Y475933D01*
X447956Y474885D01*
X449239Y474144D01*
X450671Y473760D01*
X452153D01*
X453585Y474144D01*
X454537Y474693D01*
X459114Y470116D01*
X458907Y469616D01*
X433199D01*
X426549Y476265D01*
X427099Y477217D01*
X427482Y478649D01*
Y480131D01*
X427099Y481563D01*
X426357Y482847D01*
X425309Y483895D01*
X424025Y484636D01*
X422593Y485020D01*
X421111D01*
X419679Y484636D01*
X418395Y483895D01*
X417347Y482847D01*
X416606Y481563D01*
X416322Y480502D01*
X413997D01*
X413713Y481563D01*
X412971Y482847D01*
X411923Y483895D01*
X410639Y484636D01*
X409208Y485020D01*
X407725D01*
X406293Y484636D01*
X405010Y483895D01*
X403961Y482847D01*
X403220Y481563D01*
X402837Y480131D01*
Y478649D01*
X403220Y477217D01*
X403961Y475933D01*
X405010Y474885D01*
X406293Y474144D01*
X407725Y473760D01*
X409208D01*
X410639Y474144D01*
X411923Y474885D01*
X412971Y475933D01*
X413713Y477217D01*
X413997Y478278D01*
X416322D01*
X416606Y477217D01*
X417347Y475933D01*
X418395Y474885D01*
X419679Y474144D01*
X421111Y473760D01*
X422593D01*
X424025Y474144D01*
X424977Y474693D01*
X431522Y468147D01*
X431315Y467647D01*
X405607D01*
X396989Y476265D01*
X397538Y477217D01*
X397922Y478649D01*
Y480131D01*
X397538Y481563D01*
X396797Y482847D01*
X395749Y483895D01*
X394465Y484636D01*
X393033Y485020D01*
X391551D01*
X390119Y484636D01*
X388835Y483895D01*
X387787Y482847D01*
X387046Y481563D01*
X386762Y480502D01*
X384437D01*
X384153Y481563D01*
X383411Y482847D01*
X382363Y483895D01*
X381079Y484636D01*
X379648Y485020D01*
X378165D01*
X376733Y484636D01*
X375449Y483895D01*
X374401Y482847D01*
X373660Y481563D01*
X373276Y480131D01*
Y478649D01*
X373660Y477217D01*
X374401Y475933D01*
X375449Y474885D01*
X376733Y474144D01*
X378165Y473760D01*
X379648D01*
X381079Y474144D01*
X382363Y474885D01*
X383411Y475933D01*
X384153Y477217D01*
X384437Y478278D01*
X386762D01*
X387046Y477217D01*
X387787Y475933D01*
X388835Y474885D01*
X390119Y474144D01*
X391551Y473760D01*
X393033D01*
X394465Y474144D01*
X395417Y474693D01*
X403931Y466179D01*
X403723Y465679D01*
X378015D01*
X367429Y476265D01*
X367978Y477217D01*
X368362Y478649D01*
Y480131D01*
X367978Y481563D01*
X367237Y482847D01*
X366189Y483895D01*
X364905Y484636D01*
X363473Y485020D01*
X361991D01*
X360559Y484636D01*
X359275Y483895D01*
X358227Y482847D01*
X357486Y481563D01*
X357202Y480502D01*
X354877D01*
X354592Y481563D01*
X353851Y482847D01*
X352803Y483895D01*
X351519Y484636D01*
X350087Y485020D01*
X348605D01*
X347173Y484636D01*
X345889Y483895D01*
X344841Y482847D01*
X344100Y481563D01*
X343716Y480131D01*
Y478649D01*
X344100Y477217D01*
X344841Y475933D01*
X345889Y474885D01*
X347173Y474144D01*
X348605Y473760D01*
X350087D01*
X351519Y474144D01*
X352803Y474885D01*
X353851Y475933D01*
X354592Y477217D01*
X354877Y478278D01*
X357202D01*
X357486Y477217D01*
X358227Y475933D01*
X359275Y474885D01*
X360559Y474144D01*
X361991Y473760D01*
X363473D01*
X364905Y474144D01*
X365857Y474693D01*
X376339Y464210D01*
X376132Y463710D01*
X350424D01*
X337869Y476265D01*
X338418Y477217D01*
X338802Y478649D01*
Y480131D01*
X338418Y481563D01*
X337677Y482847D01*
X336629Y483895D01*
X335345Y484636D01*
X333913Y485020D01*
D02*
G37*
G36*
X570459Y485020D02*
X568976D01*
X567545Y484636D01*
X566261Y483895D01*
X565212Y482847D01*
X564471Y481563D01*
X564088Y480131D01*
Y478649D01*
X564471Y477217D01*
X565212Y475933D01*
X566261Y474885D01*
X567545Y474144D01*
X568976Y473760D01*
X570459D01*
X571891Y474144D01*
X573174Y474885D01*
X574223Y475933D01*
X574964Y477217D01*
X575348Y478649D01*
Y480131D01*
X574964Y481563D01*
X574223Y482847D01*
X573174Y483895D01*
X571891Y484636D01*
X570459Y485020D01*
D02*
G37*
G36*
X557073D02*
X555590D01*
X554159Y484636D01*
X552875Y483895D01*
X551827Y482847D01*
X551086Y481563D01*
X550702Y480131D01*
Y478649D01*
X551086Y477217D01*
X551827Y475933D01*
X552875Y474885D01*
X554159Y474144D01*
X555590Y473760D01*
X557073D01*
X558505Y474144D01*
X559789Y474885D01*
X560837Y475933D01*
X561578Y477217D01*
X561962Y478649D01*
Y480131D01*
X561578Y481563D01*
X560837Y482847D01*
X559789Y483895D01*
X558505Y484636D01*
X557073Y485020D01*
D02*
G37*
G36*
X540899D02*
X539416D01*
X537984Y484636D01*
X536701Y483895D01*
X535652Y482847D01*
X534911Y481563D01*
X534528Y480131D01*
Y478649D01*
X534911Y477217D01*
X535652Y475933D01*
X536701Y474885D01*
X537984Y474144D01*
X539416Y473760D01*
X540899D01*
X542331Y474144D01*
X543614Y474885D01*
X544663Y475933D01*
X545404Y477217D01*
X545787Y478649D01*
Y480131D01*
X545404Y481563D01*
X544663Y482847D01*
X543614Y483895D01*
X542331Y484636D01*
X540899Y485020D01*
D02*
G37*
G36*
X527513D02*
X526030D01*
X524599Y484636D01*
X523315Y483895D01*
X522267Y482847D01*
X521525Y481563D01*
X521142Y480131D01*
Y478649D01*
X521525Y477217D01*
X522267Y475933D01*
X523315Y474885D01*
X524599Y474144D01*
X526030Y473760D01*
X527513D01*
X528945Y474144D01*
X530229Y474885D01*
X531277Y475933D01*
X532018Y477217D01*
X532402Y478649D01*
Y480131D01*
X532018Y481563D01*
X531277Y482847D01*
X530229Y483895D01*
X528945Y484636D01*
X527513Y485020D01*
D02*
G37*
G36*
X600019Y485020D02*
X598536D01*
X597105Y484636D01*
X595821Y483895D01*
X594772Y482847D01*
X594031Y481563D01*
X593648Y480131D01*
Y478649D01*
X594031Y477217D01*
X594772Y475933D01*
X595821Y474885D01*
X597105Y474144D01*
X598536Y473760D01*
X600019D01*
X601451Y474144D01*
X602735Y474885D01*
X603783Y475933D01*
X604524Y477217D01*
X604908Y478649D01*
Y480131D01*
X604524Y481563D01*
X603783Y482847D01*
X602735Y483895D01*
X601451Y484636D01*
X600019Y485020D01*
D02*
G37*
G36*
X586633D02*
X585151D01*
X583719Y484636D01*
X582435Y483895D01*
X581387Y482847D01*
X580646Y481563D01*
X580262Y480131D01*
Y478649D01*
X580646Y477217D01*
X581387Y475933D01*
X582435Y474885D01*
X583719Y474144D01*
X585151Y473760D01*
X586633D01*
X588065Y474144D01*
X589349Y474885D01*
X590397Y475933D01*
X591138Y477217D01*
X591522Y478649D01*
Y480131D01*
X591138Y481563D01*
X590397Y482847D01*
X589349Y483895D01*
X588065Y484636D01*
X586633Y485020D01*
D02*
G37*
G36*
X533898Y474622D02*
X533031D01*
X532229Y474290D01*
X531615Y473676D01*
X531284Y472875D01*
Y472007D01*
X531615Y471206D01*
X532229Y470592D01*
X533031Y470260D01*
X533898D01*
X534700Y470592D01*
X535314Y471206D01*
X535646Y472007D01*
Y472875D01*
X535314Y473676D01*
X534700Y474290D01*
X533898Y474622D01*
D02*
G37*
G36*
X642065Y482795D02*
X640219D01*
X638409Y482435D01*
X636703Y481729D01*
X635169Y480703D01*
X633863Y479398D01*
X632838Y477864D01*
X632132Y476158D01*
X631772Y474348D01*
Y472502D01*
X632132Y470692D01*
X632838Y468987D01*
X633863Y467452D01*
X635169Y466147D01*
X636703Y465122D01*
X638409Y464415D01*
X640219Y464055D01*
X642065D01*
X643875Y464415D01*
X645580Y465122D01*
X647115Y466147D01*
X648420Y467452D01*
X649445Y468987D01*
X650152Y470692D01*
X650512Y472502D01*
Y474348D01*
X650152Y476158D01*
X649445Y477864D01*
X648420Y479398D01*
X647115Y480703D01*
X645580Y481729D01*
X643875Y482435D01*
X642065Y482795D01*
D02*
G37*
G36*
X287835Y456906D02*
X286968D01*
X286166Y456573D01*
X285760Y456167D01*
X285433Y456015D01*
X285106Y456167D01*
X284700Y456573D01*
X283898Y456906D01*
X283031D01*
X282229Y456573D01*
X281823Y456167D01*
X281496Y456015D01*
X281169Y456167D01*
X280763Y456573D01*
X279961Y456906D01*
X279094D01*
X278292Y456573D01*
X277886Y456167D01*
X277559Y456015D01*
X277232Y456167D01*
X276826Y456573D01*
X276024Y456906D01*
X275157D01*
X274355Y456573D01*
X273949Y456167D01*
X273622Y456015D01*
X273295Y456167D01*
X272889Y456573D01*
X272087Y456906D01*
X271220D01*
X270418Y456573D01*
X269805Y455960D01*
X269472Y455158D01*
Y454291D01*
X269805Y453489D01*
X270310Y452984D01*
X270305Y452528D01*
X270263Y452398D01*
X269691Y451826D01*
X269359Y451025D01*
Y450157D01*
X269691Y449355D01*
X270304Y448742D01*
X271106Y448410D01*
X271973D01*
X272775Y448742D01*
X273182Y449148D01*
X273508Y449300D01*
X273835Y449148D01*
X274241Y448742D01*
X275043Y448410D01*
X275910D01*
X276712Y448742D01*
X277119Y449148D01*
X277445Y449300D01*
X277772Y449148D01*
X278178Y448742D01*
X278980Y448410D01*
X279848D01*
X280649Y448742D01*
X281056Y449148D01*
X281382Y449300D01*
X281709Y449148D01*
X282115Y448742D01*
X282917Y448410D01*
X283785D01*
X284586Y448742D01*
X284993Y449148D01*
X285319Y449300D01*
X285646Y449148D01*
X286052Y448742D01*
X286854Y448410D01*
X287722D01*
X288523Y448742D01*
X289137Y449355D01*
X289469Y450157D01*
Y451025D01*
X289137Y451826D01*
X288631Y452332D01*
X288636Y452787D01*
X288679Y452917D01*
X289251Y453489D01*
X289583Y454291D01*
Y455158D01*
X289251Y455960D01*
X288637Y456573D01*
X287835Y456906D01*
D02*
G37*
G36*
X616576D02*
X615708D01*
X614906Y456573D01*
X614293Y455960D01*
X613961Y455158D01*
Y454291D01*
X614293Y453489D01*
X614906Y452875D01*
X615708Y452543D01*
X616576D01*
X617377Y452875D01*
X617991Y453489D01*
X618323Y454291D01*
Y455158D01*
X617991Y455960D01*
X617377Y456573D01*
X616576Y456906D01*
D02*
G37*
G36*
X600828D02*
X599960D01*
X599158Y456573D01*
X598545Y455960D01*
X598213Y455158D01*
Y454291D01*
X598545Y453489D01*
X599158Y452875D01*
X599960Y452543D01*
X600828D01*
X601629Y452875D01*
X602243Y453489D01*
X602575Y454291D01*
Y455158D01*
X602243Y455960D01*
X601629Y456573D01*
X600828Y456906D01*
D02*
G37*
G36*
X626558Y463110D02*
X625410D01*
X624285Y462886D01*
X623224Y462447D01*
X622270Y461809D01*
X621458Y460998D01*
X620821Y460043D01*
X620381Y458983D01*
X620157Y457857D01*
Y456710D01*
X620381Y455584D01*
X620821Y454524D01*
X621458Y453569D01*
X622270Y452758D01*
X623224Y452120D01*
X624285Y451681D01*
X625410Y451457D01*
X626558D01*
X627684Y451681D01*
X628744Y452120D01*
X629699Y452758D01*
X630510Y453569D01*
X631148Y454524D01*
X631587Y455584D01*
X631811Y456710D01*
Y457857D01*
X631587Y458983D01*
X631148Y460043D01*
X630510Y460998D01*
X629699Y461809D01*
X628744Y462447D01*
X627684Y462886D01*
X626558Y463110D01*
D02*
G37*
G36*
X371300Y454543D02*
X370432D01*
X369631Y454211D01*
X369017Y453598D01*
X368685Y452796D01*
Y451928D01*
X369017Y451127D01*
X369631Y450513D01*
X370432Y450181D01*
X371300D01*
X372102Y450513D01*
X372715Y451127D01*
X373047Y451928D01*
Y452796D01*
X372715Y453598D01*
X372102Y454211D01*
X371300Y454543D01*
D02*
G37*
G36*
X336654D02*
X335787D01*
X334985Y454211D01*
X334371Y453598D01*
X334039Y452796D01*
Y451928D01*
X334371Y451127D01*
X334985Y450513D01*
X335787Y450181D01*
X336654D01*
X337456Y450513D01*
X338070Y451127D01*
X338402Y451928D01*
Y452796D01*
X338070Y453598D01*
X337456Y454211D01*
X336654Y454543D01*
D02*
G37*
G36*
X327993D02*
X327125D01*
X326324Y454211D01*
X325710Y453598D01*
X325378Y452796D01*
Y451928D01*
X325710Y451127D01*
X326324Y450513D01*
X327125Y450181D01*
X327993D01*
X328795Y450513D01*
X329408Y451127D01*
X329740Y451928D01*
Y452796D01*
X329408Y453598D01*
X328795Y454211D01*
X327993Y454543D01*
D02*
G37*
G36*
X319332D02*
X318464D01*
X317662Y454211D01*
X317049Y453598D01*
X316717Y452796D01*
Y451928D01*
X317049Y451127D01*
X317662Y450513D01*
X318464Y450181D01*
X319332D01*
X320133Y450513D01*
X320747Y451127D01*
X321079Y451928D01*
Y452796D01*
X320747Y453598D01*
X320133Y454211D01*
X319332Y454543D01*
D02*
G37*
G36*
X310670D02*
X309802D01*
X309001Y454211D01*
X308387Y453598D01*
X308055Y452796D01*
Y451928D01*
X308387Y451127D01*
X309001Y450513D01*
X309802Y450181D01*
X310670D01*
X311472Y450513D01*
X312085Y451127D01*
X312417Y451928D01*
Y452796D01*
X312085Y453598D01*
X311472Y454211D01*
X310670Y454543D01*
D02*
G37*
G36*
X397284Y454543D02*
X396417D01*
X395615Y454211D01*
X395001Y453598D01*
X394669Y452796D01*
Y451928D01*
X395001Y451127D01*
X395615Y450513D01*
X396417Y450181D01*
X397284D01*
X398086Y450513D01*
X398699Y451127D01*
X399031Y451928D01*
Y452796D01*
X398699Y453598D01*
X398086Y454211D01*
X397284Y454543D01*
D02*
G37*
G36*
X388623D02*
X387755D01*
X386953Y454211D01*
X386340Y453598D01*
X386008Y452796D01*
Y451928D01*
X386340Y451127D01*
X386953Y450513D01*
X387755Y450181D01*
X388623D01*
X389424Y450513D01*
X390038Y451127D01*
X390370Y451928D01*
Y452796D01*
X390038Y453598D01*
X389424Y454211D01*
X388623Y454543D01*
D02*
G37*
G36*
X379961D02*
X379094D01*
X378292Y454211D01*
X377678Y453598D01*
X377346Y452796D01*
Y451928D01*
X377678Y451127D01*
X378292Y450513D01*
X379094Y450181D01*
X379961D01*
X380763Y450513D01*
X381377Y451127D01*
X381709Y451928D01*
Y452796D01*
X381377Y453598D01*
X380763Y454211D01*
X379961Y454543D01*
D02*
G37*
G36*
X362639D02*
X361771D01*
X360969Y454211D01*
X360356Y453598D01*
X360024Y452796D01*
Y451928D01*
X360356Y451127D01*
X360969Y450513D01*
X361771Y450181D01*
X362639D01*
X363440Y450513D01*
X364054Y451127D01*
X364386Y451928D01*
Y452796D01*
X364054Y453598D01*
X363440Y454211D01*
X362639Y454543D01*
D02*
G37*
G36*
X353977D02*
X353110D01*
X352308Y454211D01*
X351694Y453598D01*
X351362Y452796D01*
Y451928D01*
X351694Y451127D01*
X352308Y450513D01*
X353110Y450181D01*
X353977D01*
X354779Y450513D01*
X355392Y451127D01*
X355724Y451928D01*
Y452796D01*
X355392Y453598D01*
X354779Y454211D01*
X353977Y454543D01*
D02*
G37*
G36*
X345316D02*
X344448D01*
X343646Y454211D01*
X343033Y453598D01*
X342701Y452796D01*
Y451928D01*
X343033Y451127D01*
X343646Y450513D01*
X344448Y450181D01*
X345316D01*
X346117Y450513D01*
X346731Y451127D01*
X347063Y451928D01*
Y452796D01*
X346731Y453598D01*
X346117Y454211D01*
X345316Y454543D01*
D02*
G37*
G36*
X606733Y435252D02*
X605865D01*
X605064Y434920D01*
X604450Y434306D01*
X604118Y433505D01*
Y432637D01*
X604450Y431835D01*
X605064Y431222D01*
X605865Y430890D01*
X606733D01*
X607535Y431222D01*
X608148Y431835D01*
X608480Y432637D01*
Y433505D01*
X608148Y434306D01*
X607535Y434920D01*
X606733Y435252D01*
D02*
G37*
G36*
X660009Y436142D02*
X658889D01*
X657808Y435852D01*
X656838Y435292D01*
X656046Y434501D01*
X655487Y433531D01*
X655197Y432449D01*
Y431330D01*
X655487Y430249D01*
X656046Y429279D01*
X656838Y428487D01*
X657808Y427928D01*
X658889Y427638D01*
X660009D01*
X661090Y427928D01*
X662060Y428487D01*
X662851Y429279D01*
X663411Y430249D01*
X663701Y431330D01*
Y432449D01*
X663411Y433531D01*
X662851Y434501D01*
X662060Y435292D01*
X661090Y435852D01*
X660009Y436142D01*
D02*
G37*
G36*
X650166D02*
X649047D01*
X647965Y435852D01*
X646996Y435292D01*
X646204Y434501D01*
X645644Y433531D01*
X645354Y432449D01*
Y431330D01*
X645644Y430249D01*
X646204Y429279D01*
X646996Y428487D01*
X647965Y427928D01*
X649047Y427638D01*
X650166D01*
X651248Y427928D01*
X652217Y428487D01*
X653009Y429279D01*
X653569Y430249D01*
X653858Y431330D01*
Y432449D01*
X653569Y433531D01*
X653009Y434501D01*
X652217Y435292D01*
X651248Y435852D01*
X650166Y436142D01*
D02*
G37*
G36*
X640324D02*
X639204D01*
X638123Y435852D01*
X637153Y435292D01*
X636361Y434501D01*
X635802Y433531D01*
X635512Y432449D01*
Y431330D01*
X635802Y430249D01*
X636361Y429279D01*
X637153Y428487D01*
X638123Y427928D01*
X639204Y427638D01*
X640324D01*
X641405Y427928D01*
X642375Y428487D01*
X643166Y429279D01*
X643726Y430249D01*
X644016Y431330D01*
Y432449D01*
X643726Y433531D01*
X643166Y434501D01*
X642375Y435292D01*
X641405Y435852D01*
X640324Y436142D01*
D02*
G37*
G36*
X537835Y429347D02*
X536968D01*
X536166Y429014D01*
X535553Y428401D01*
X535220Y427599D01*
Y426731D01*
X535553Y425930D01*
X536166Y425316D01*
X536968Y424984D01*
X537835D01*
X538637Y425316D01*
X539251Y425930D01*
X539583Y426731D01*
Y427599D01*
X539251Y428401D01*
X538637Y429014D01*
X537835Y429347D01*
D02*
G37*
G36*
X526024D02*
X525157D01*
X524355Y429014D01*
X523741Y428401D01*
X523410Y427599D01*
Y426731D01*
X523741Y425930D01*
X524355Y425316D01*
X525157Y424984D01*
X526024D01*
X526826Y425316D01*
X527440Y425930D01*
X527772Y426731D01*
Y427599D01*
X527440Y428401D01*
X526826Y429014D01*
X526024Y429347D01*
D02*
G37*
G36*
X289326Y429961D02*
X288155D01*
X287023Y429657D01*
X286009Y429072D01*
X285180Y428243D01*
X284594Y427229D01*
X284291Y426097D01*
Y424926D01*
X284594Y423795D01*
X285180Y422780D01*
X286009Y421952D01*
X287023Y421366D01*
X288155Y421063D01*
X289326D01*
X290457Y421366D01*
X291472Y421952D01*
X292300Y422780D01*
X292886Y423795D01*
X293189Y424926D01*
Y426097D01*
X292886Y427229D01*
X292300Y428243D01*
X291472Y429072D01*
X290457Y429657D01*
X289326Y429961D01*
D02*
G37*
G36*
X533898Y421472D02*
X533031D01*
X532229Y421140D01*
X531615Y420527D01*
X531284Y419725D01*
Y418857D01*
X531615Y418056D01*
X532229Y417442D01*
X533031Y417110D01*
X533898D01*
X534700Y417442D01*
X535314Y418056D01*
X535646Y418857D01*
Y419725D01*
X535314Y420527D01*
X534700Y421140D01*
X533898Y421472D01*
D02*
G37*
G36*
X606733Y419504D02*
X605865D01*
X605064Y419172D01*
X604450Y418558D01*
X604118Y417757D01*
Y416889D01*
X604450Y416087D01*
X605064Y415474D01*
X605865Y415142D01*
X606733D01*
X607535Y415474D01*
X608148Y416087D01*
X608480Y416889D01*
Y417757D01*
X608148Y418558D01*
X607535Y419172D01*
X606733Y419504D01*
D02*
G37*
G36*
X267454Y417443D02*
X265854D01*
Y414442D01*
X267454D01*
Y417443D01*
D02*
G37*
G36*
X650166Y421378D02*
X649047D01*
X647965Y421088D01*
X646996Y420528D01*
X646204Y419737D01*
X645644Y418767D01*
X645354Y417686D01*
Y416566D01*
X645644Y415485D01*
X646204Y414515D01*
X646996Y413724D01*
X647965Y413164D01*
X649047Y412874D01*
X650166D01*
X651248Y413164D01*
X652217Y413724D01*
X653009Y414515D01*
X653569Y415485D01*
X653858Y416566D01*
Y417686D01*
X653569Y418767D01*
X653009Y419737D01*
X652217Y420528D01*
X651248Y421088D01*
X650166Y421378D01*
D02*
G37*
G36*
X575985Y452087D02*
X574606D01*
X573274Y451730D01*
X572080Y451040D01*
X571105Y450066D01*
X570416Y448872D01*
X570059Y447540D01*
Y446161D01*
X570416Y444829D01*
X571105Y443635D01*
X572080Y442660D01*
X573274Y441971D01*
X574606Y441614D01*
X575606D01*
X595353Y421868D01*
X596074Y421315D01*
X596914Y420967D01*
X597815Y420848D01*
X597815Y420848D01*
X626923D01*
X627130Y420348D01*
X626519Y419737D01*
X625959Y418767D01*
X625669Y417686D01*
Y416566D01*
X625959Y415485D01*
X626519Y414515D01*
X627311Y413724D01*
X628280Y413164D01*
X629361Y412874D01*
X630481D01*
X631563Y413164D01*
X632532Y413724D01*
X633324Y414515D01*
X633883Y415485D01*
X634173Y416566D01*
Y417431D01*
X634673Y417638D01*
X635512Y416799D01*
Y416566D01*
X635802Y415485D01*
X636361Y414515D01*
X637153Y413724D01*
X638123Y413164D01*
X639204Y412874D01*
X640324D01*
X641405Y413164D01*
X642375Y413724D01*
X643166Y414515D01*
X643726Y415485D01*
X644016Y416566D01*
Y417686D01*
X643726Y418767D01*
X643166Y419737D01*
X642375Y420528D01*
X641405Y421088D01*
X640952Y421210D01*
X635368Y426793D01*
X634647Y427347D01*
X633807Y427695D01*
X632906Y427813D01*
X632365D01*
X632231Y428313D01*
X632532Y428487D01*
X633324Y429279D01*
X633883Y430249D01*
X634173Y431330D01*
Y432449D01*
X633883Y433531D01*
X633324Y434501D01*
X632532Y435292D01*
X631563Y435852D01*
X630481Y436142D01*
X629361D01*
X628280Y435852D01*
X627311Y435292D01*
X626519Y434501D01*
X625959Y433531D01*
X625669Y432449D01*
Y431330D01*
X625959Y430249D01*
X626519Y429279D01*
X627311Y428487D01*
X627612Y428313D01*
X627478Y427813D01*
X599258D01*
X580532Y446539D01*
Y447540D01*
X580175Y448872D01*
X579485Y450066D01*
X578510Y451040D01*
X577316Y451730D01*
X575985Y452087D01*
D02*
G37*
G36*
X289326Y419961D02*
X288155D01*
X287023Y419657D01*
X286009Y419072D01*
X285180Y418243D01*
X284594Y417229D01*
X284291Y416097D01*
Y414926D01*
X284594Y413795D01*
X285180Y412780D01*
X286009Y411952D01*
X287023Y411366D01*
X288155Y411063D01*
X289326D01*
X290457Y411366D01*
X291472Y411952D01*
X292300Y412780D01*
X292886Y413795D01*
X293189Y414926D01*
Y416097D01*
X292886Y417229D01*
X292300Y418243D01*
X291472Y419072D01*
X290457Y419657D01*
X289326Y419961D01*
D02*
G37*
G36*
X279326D02*
X278154D01*
X277023Y419657D01*
X276009Y419072D01*
X275180Y418243D01*
X274594Y417229D01*
X274291Y416097D01*
Y414926D01*
X274594Y413795D01*
X275180Y412780D01*
X276009Y411952D01*
X277023Y411366D01*
X278154Y411063D01*
X279326D01*
X280457Y411366D01*
X281472Y411952D01*
X282300Y412780D01*
X282886Y413795D01*
X283189Y414926D01*
Y416097D01*
X282886Y417229D01*
X282300Y418243D01*
X281472Y419072D01*
X280457Y419657D01*
X279326Y419961D01*
D02*
G37*
G36*
X267454Y413443D02*
X265854D01*
Y410442D01*
X267454D01*
Y413443D01*
D02*
G37*
G36*
X478526Y414173D02*
X473408D01*
Y412429D01*
X472719D01*
X472332Y412352D01*
X472004Y412133D01*
X470542Y410670D01*
X470322Y410342D01*
X470245Y409955D01*
Y408808D01*
X469643Y408206D01*
X461699D01*
Y404431D01*
X471074D01*
Y406776D01*
X471972Y407674D01*
X472191Y408002D01*
X472268Y408389D01*
Y409536D01*
X472908Y410176D01*
X473408Y409969D01*
Y408661D01*
X478526D01*
Y414173D01*
D02*
G37*
G36*
X279326Y409961D02*
X278154D01*
X277023Y409657D01*
X276009Y409072D01*
X275180Y408243D01*
X274594Y407229D01*
X274467Y406754D01*
X270942D01*
Y409030D01*
X267167D01*
Y402455D01*
X270942D01*
Y404731D01*
X274344D01*
X274594Y403795D01*
X275180Y402780D01*
X276009Y401952D01*
X277023Y401366D01*
X278154Y401063D01*
X279326D01*
X280457Y401366D01*
X281472Y401952D01*
X282300Y402780D01*
X282886Y403795D01*
X283189Y404926D01*
Y406098D01*
X282886Y407229D01*
X282300Y408243D01*
X281472Y409072D01*
X280457Y409657D01*
X279326Y409961D01*
D02*
G37*
G36*
X445316Y411630D02*
X444448D01*
X443646Y411298D01*
X443033Y410684D01*
X442701Y409883D01*
Y409015D01*
X443033Y408213D01*
X443099Y408147D01*
Y404431D01*
X452474D01*
Y408206D01*
X447269D01*
X446935Y408706D01*
X447063Y409015D01*
Y409883D01*
X446731Y410684D01*
X446117Y411298D01*
X445316Y411630D01*
D02*
G37*
G36*
X289326Y409961D02*
X288155D01*
X287023Y409657D01*
X286009Y409072D01*
X285180Y408243D01*
X284594Y407229D01*
X284291Y406098D01*
Y404926D01*
X284594Y403795D01*
X285180Y402780D01*
X286009Y401952D01*
X287023Y401366D01*
X288155Y401063D01*
X289326D01*
X290457Y401366D01*
X291472Y401952D01*
X292300Y402780D01*
X292886Y403795D01*
X293189Y404926D01*
Y406098D01*
X292886Y407229D01*
X292300Y408243D01*
X291472Y409072D01*
X290457Y409657D01*
X289326Y409961D01*
D02*
G37*
G36*
X432717Y408087D02*
X431850D01*
X431048Y407755D01*
X430434Y407141D01*
X430102Y406339D01*
Y405472D01*
X430434Y404670D01*
X430569Y404535D01*
X430362Y404035D01*
X429511D01*
Y398933D01*
X429298D01*
Y396661D01*
X435235D01*
Y398933D01*
X435023D01*
Y400465D01*
X436614D01*
Y398933D01*
X436402D01*
Y396661D01*
X442339D01*
Y398933D01*
X442126D01*
Y400307D01*
X443099D01*
Y399431D01*
X452474D01*
Y403206D01*
X443099D01*
Y402330D01*
X442126D01*
Y404035D01*
X436614D01*
Y402488D01*
X435023D01*
Y404035D01*
X434205D01*
X433998Y404535D01*
X434132Y404670D01*
X434465Y405472D01*
Y406339D01*
X434132Y407141D01*
X433519Y407755D01*
X432717Y408087D01*
D02*
G37*
G36*
X660009Y407795D02*
X658889D01*
X657808Y407506D01*
X656838Y406946D01*
X656046Y406154D01*
X655487Y405185D01*
X655197Y404103D01*
Y402984D01*
X655487Y401902D01*
X656046Y400933D01*
X656838Y400141D01*
X657808Y399581D01*
X658889Y399291D01*
X660009D01*
X661090Y399581D01*
X662060Y400141D01*
X662851Y400933D01*
X663411Y401902D01*
X663701Y402984D01*
Y404103D01*
X663411Y405185D01*
X662851Y406154D01*
X662060Y406946D01*
X661090Y407506D01*
X660009Y407795D01*
D02*
G37*
G36*
X650166D02*
X649047D01*
X647965Y407506D01*
X646996Y406946D01*
X646204Y406154D01*
X645644Y405185D01*
X645354Y404103D01*
Y402984D01*
X645644Y401902D01*
X646204Y400933D01*
X646996Y400141D01*
X647965Y399581D01*
X649047Y399291D01*
X650166D01*
X651248Y399581D01*
X652217Y400141D01*
X653009Y400933D01*
X653569Y401902D01*
X653858Y402984D01*
Y404103D01*
X653569Y405185D01*
X653009Y406154D01*
X652217Y406946D01*
X651248Y407506D01*
X650166Y407795D01*
D02*
G37*
G36*
X630481D02*
X629361D01*
X628280Y407506D01*
X627311Y406946D01*
X626519Y406154D01*
X625959Y405185D01*
X625669Y404103D01*
Y402984D01*
X625959Y401902D01*
X626519Y400933D01*
X627311Y400141D01*
X628280Y399581D01*
X629361Y399291D01*
X630481D01*
X631563Y399581D01*
X632532Y400141D01*
X633324Y400933D01*
X633883Y401902D01*
X634173Y402984D01*
Y404103D01*
X633883Y405185D01*
X633324Y406154D01*
X632532Y406946D01*
X631563Y407506D01*
X630481Y407795D01*
D02*
G37*
G36*
X452687Y398419D02*
X448286D01*
Y396819D01*
X452687D01*
Y398419D01*
D02*
G37*
G36*
X447287D02*
X442886D01*
Y396819D01*
X447287D01*
Y398419D01*
D02*
G37*
G36*
X279326Y399961D02*
X278154D01*
X277023Y399657D01*
X276009Y399072D01*
X275180Y398243D01*
X274594Y397229D01*
X274291Y396097D01*
Y394926D01*
X274127Y394712D01*
X272441D01*
Y394980D01*
X266929D01*
Y393823D01*
X266429Y393723D01*
X266416Y393755D01*
X265802Y394369D01*
X265001Y394701D01*
X264133D01*
X263331Y394369D01*
X262718Y393755D01*
X262386Y392953D01*
Y392086D01*
X262718Y391284D01*
X263331Y390671D01*
X264133Y390339D01*
X265001D01*
X265802Y390671D01*
X266416Y391284D01*
X266429Y391316D01*
X266929Y391216D01*
Y389878D01*
X266717D01*
Y387606D01*
X272654D01*
Y389878D01*
X272441D01*
Y392689D01*
X275271D01*
X276009Y391952D01*
X277023Y391366D01*
X278154Y391063D01*
X279326D01*
X280457Y391366D01*
X281472Y391952D01*
X282300Y392780D01*
X282886Y393795D01*
X283189Y394926D01*
Y396097D01*
X282886Y397229D01*
X282300Y398243D01*
X281472Y399072D01*
X280457Y399657D01*
X279326Y399961D01*
D02*
G37*
G36*
X452687Y395819D02*
X448286D01*
Y394219D01*
X452687D01*
Y395819D01*
D02*
G37*
G36*
X447287D02*
X442886D01*
Y394219D01*
X447287D01*
Y395819D01*
D02*
G37*
G36*
X442339Y395661D02*
X439870D01*
Y393390D01*
X442339D01*
Y395661D01*
D02*
G37*
G36*
X438870D02*
X436402D01*
Y393390D01*
X438870D01*
Y395661D01*
D02*
G37*
G36*
X435235D02*
X432767D01*
Y393390D01*
X435235D01*
Y395661D01*
D02*
G37*
G36*
X431767D02*
X429298D01*
Y393390D01*
X431767D01*
Y395661D01*
D02*
G37*
G36*
X289326Y399961D02*
X288155D01*
X287023Y399657D01*
X286009Y399072D01*
X285180Y398243D01*
X284594Y397229D01*
X284291Y396097D01*
Y394926D01*
X284594Y393795D01*
X285180Y392780D01*
X286009Y391952D01*
X287023Y391366D01*
X288155Y391063D01*
X289326D01*
X290457Y391366D01*
X291472Y391952D01*
X292300Y392780D01*
X292886Y393795D01*
X293189Y394926D01*
Y396097D01*
X292886Y397229D01*
X292300Y398243D01*
X291472Y399072D01*
X290457Y399657D01*
X289326Y399961D01*
D02*
G37*
G36*
X660009Y397953D02*
X658889D01*
X657808Y397663D01*
X656838Y397103D01*
X656046Y396311D01*
X655487Y395342D01*
X655197Y394261D01*
Y393141D01*
X655487Y392060D01*
X656046Y391090D01*
X656838Y390298D01*
X657808Y389739D01*
X658889Y389449D01*
X660009D01*
X661090Y389739D01*
X662060Y390298D01*
X662851Y391090D01*
X663411Y392060D01*
X663701Y393141D01*
Y394261D01*
X663411Y395342D01*
X662851Y396311D01*
X662060Y397103D01*
X661090Y397663D01*
X660009Y397953D01*
D02*
G37*
G36*
X650166D02*
X649047D01*
X647965Y397663D01*
X646996Y397103D01*
X646204Y396311D01*
X645644Y395342D01*
X645354Y394261D01*
Y393141D01*
X645644Y392060D01*
X646204Y391090D01*
X646996Y390298D01*
X647965Y389739D01*
X649047Y389449D01*
X650166D01*
X651248Y389739D01*
X652217Y390298D01*
X653009Y391090D01*
X653569Y392060D01*
X653858Y393141D01*
Y394261D01*
X653569Y395342D01*
X653009Y396311D01*
X652217Y397103D01*
X651248Y397663D01*
X650166Y397953D01*
D02*
G37*
G36*
X640324D02*
X639204D01*
X638123Y397663D01*
X637153Y397103D01*
X636361Y396311D01*
X635802Y395342D01*
X635512Y394261D01*
Y393141D01*
X635802Y392060D01*
X636361Y391090D01*
X637153Y390298D01*
X638123Y389739D01*
X639204Y389449D01*
X640324D01*
X641405Y389739D01*
X642375Y390298D01*
X643166Y391090D01*
X643726Y392060D01*
X644016Y393141D01*
Y394261D01*
X643726Y395342D01*
X643166Y396311D01*
X642375Y397103D01*
X641405Y397663D01*
X640324Y397953D01*
D02*
G37*
G36*
X630481D02*
X629361D01*
X628280Y397663D01*
X627311Y397103D01*
X626519Y396311D01*
X625959Y395342D01*
X625669Y394261D01*
Y393141D01*
X625959Y392060D01*
X626519Y391090D01*
X627311Y390298D01*
X628280Y389739D01*
X629361Y389449D01*
X630481D01*
X631563Y389739D01*
X632532Y390298D01*
X633324Y391090D01*
X633883Y392060D01*
X634173Y393141D01*
Y394261D01*
X633883Y395342D01*
X633324Y396311D01*
X632532Y397103D01*
X631563Y397663D01*
X630481Y397953D01*
D02*
G37*
G36*
X452474Y393206D02*
X443099D01*
Y389432D01*
X443099Y389432D01*
X443007Y388969D01*
X442701Y388229D01*
Y387361D01*
X443033Y386560D01*
X443646Y385946D01*
X444448Y385614D01*
X445316D01*
X446117Y385946D01*
X446731Y386560D01*
X447063Y387361D01*
Y388229D01*
X446772Y388931D01*
X446983Y389432D01*
X452474D01*
Y393206D01*
D02*
G37*
G36*
X492323Y452087D02*
X490944D01*
X489613Y451730D01*
X488419Y451040D01*
X487444Y450066D01*
X486755Y448872D01*
X486398Y447540D01*
Y446161D01*
X486755Y444829D01*
X487444Y443635D01*
X488419Y442660D01*
X489613Y441971D01*
X490622Y441701D01*
Y389653D01*
X486092Y385122D01*
X485630Y385314D01*
Y387546D01*
X486837Y388753D01*
X487057Y389081D01*
X487134Y389469D01*
Y396077D01*
X487057Y396464D01*
X486837Y396792D01*
X485116Y398514D01*
X485087Y398566D01*
Y399072D01*
X485116Y399124D01*
X486837Y400845D01*
X487057Y401174D01*
X487134Y401561D01*
Y408169D01*
X487057Y408556D01*
X486837Y408885D01*
X485630Y410092D01*
Y414173D01*
X480512D01*
Y408661D01*
X484199D01*
X485111Y407750D01*
Y407087D01*
X480512D01*
Y405342D01*
X478526D01*
Y407087D01*
X473408D01*
Y401575D01*
X478526D01*
Y403319D01*
X480512D01*
Y401575D01*
X483884D01*
X484097Y401093D01*
X483881Y400823D01*
X471074D01*
Y403206D01*
X461699D01*
Y399431D01*
X469320D01*
X469627Y399124D01*
X469656Y399072D01*
Y398567D01*
X469317Y398206D01*
X461699D01*
Y394431D01*
X471074D01*
Y396815D01*
X483881D01*
X484097Y396545D01*
X483884Y396063D01*
X480512D01*
Y394319D01*
X478723D01*
Y394980D01*
X473212D01*
Y389878D01*
X472999D01*
Y387606D01*
X475968D01*
X478936D01*
Y389878D01*
X478723D01*
Y392296D01*
X480512D01*
Y390551D01*
X485111D01*
Y389887D01*
X484199Y388976D01*
X480512D01*
Y383465D01*
X483781D01*
X483972Y383003D01*
X458059Y357090D01*
X384980D01*
X384887Y357314D01*
X384274Y357927D01*
X383472Y358259D01*
X382604D01*
X381803Y357927D01*
X381189Y357314D01*
X380857Y356512D01*
Y355644D01*
X381189Y354843D01*
X381803Y354229D01*
X382604Y353897D01*
X383472D01*
X384274Y354229D01*
X384887Y354843D01*
X384980Y355067D01*
X458478D01*
X458865Y355144D01*
X459194Y355363D01*
X492349Y388519D01*
X492568Y388847D01*
X492646Y389234D01*
Y441701D01*
X493655Y441971D01*
X494849Y442660D01*
X495824Y443635D01*
X496513Y444829D01*
X496870Y446161D01*
Y447540D01*
X496513Y448872D01*
X495824Y450066D01*
X494849Y451040D01*
X493655Y451730D01*
X492323Y452087D01*
D02*
G37*
G36*
X478936Y386606D02*
X476468D01*
Y384335D01*
X478936D01*
Y386606D01*
D02*
G37*
G36*
X475467D02*
X472999D01*
Y384335D01*
X475467D01*
Y386606D01*
D02*
G37*
G36*
X272654Y386606D02*
X270185D01*
Y384335D01*
X272654D01*
Y386606D01*
D02*
G37*
G36*
X269185D02*
X266717D01*
Y384335D01*
X269185D01*
Y386606D01*
D02*
G37*
G36*
X469583Y387713D02*
X467311D01*
Y383964D01*
X469583D01*
Y387713D01*
D02*
G37*
G36*
X342953Y391945D02*
X342086D01*
X341284Y391613D01*
X340671Y390999D01*
X340339Y390198D01*
Y389330D01*
X340671Y388528D01*
X341077Y388122D01*
X341229Y387795D01*
X341077Y387469D01*
X340671Y387062D01*
X340339Y386261D01*
Y385393D01*
X340671Y384591D01*
X341284Y383978D01*
X342086Y383646D01*
X342953D01*
X343755Y383978D01*
X344369Y384591D01*
X344701Y385393D01*
Y386261D01*
X344369Y387062D01*
X343962Y387469D01*
X343811Y387795D01*
X343962Y388122D01*
X344369Y388528D01*
X344701Y389330D01*
Y390198D01*
X344369Y390999D01*
X343755Y391613D01*
X342953Y391945D01*
D02*
G37*
G36*
X293189Y389961D02*
X284291D01*
Y381063D01*
X293189D01*
Y389961D01*
D02*
G37*
G36*
X660009Y388110D02*
X658889D01*
X657808Y387821D01*
X656838Y387261D01*
X656046Y386469D01*
X655487Y385500D01*
X655197Y384418D01*
Y383298D01*
X655487Y382217D01*
X656046Y381247D01*
X656838Y380456D01*
X657808Y379896D01*
X658889Y379606D01*
X660009D01*
X661090Y379896D01*
X662060Y380456D01*
X662851Y381247D01*
X663411Y382217D01*
X663701Y383298D01*
Y384418D01*
X663411Y385500D01*
X662851Y386469D01*
X662060Y387261D01*
X661090Y387821D01*
X660009Y388110D01*
D02*
G37*
G36*
X650166D02*
X649047D01*
X647965Y387821D01*
X646996Y387261D01*
X646204Y386469D01*
X645644Y385500D01*
X645354Y384418D01*
Y383298D01*
X645644Y382217D01*
X646204Y381247D01*
X646996Y380456D01*
X647965Y379896D01*
X649047Y379606D01*
X650166D01*
X651248Y379896D01*
X652217Y380456D01*
X653009Y381247D01*
X653569Y382217D01*
X653858Y383298D01*
Y384418D01*
X653569Y385500D01*
X653009Y386469D01*
X652217Y387261D01*
X651248Y387821D01*
X650166Y388110D01*
D02*
G37*
G36*
X640324D02*
X639204D01*
X638123Y387821D01*
X637153Y387261D01*
X636361Y386469D01*
X635802Y385500D01*
X635512Y384418D01*
Y383298D01*
X635802Y382217D01*
X636361Y381247D01*
X637153Y380456D01*
X638123Y379896D01*
X639204Y379606D01*
X640324D01*
X641405Y379896D01*
X642375Y380456D01*
X643166Y381247D01*
X643726Y382217D01*
X644016Y383298D01*
Y384418D01*
X643726Y385500D01*
X643166Y386469D01*
X642375Y387261D01*
X641405Y387821D01*
X640324Y388110D01*
D02*
G37*
G36*
X630481D02*
X629361D01*
X628280Y387821D01*
X627311Y387261D01*
X626519Y386469D01*
X625959Y385500D01*
X625669Y384418D01*
Y383298D01*
X625959Y382217D01*
X626519Y381247D01*
X627311Y380456D01*
X628280Y379896D01*
X629361Y379606D01*
X630481D01*
X631563Y379896D01*
X632532Y380456D01*
X633324Y381247D01*
X633883Y382217D01*
X634173Y383298D01*
Y384418D01*
X633883Y385500D01*
X633324Y386469D01*
X632532Y387261D01*
X631563Y387821D01*
X630481Y388110D01*
D02*
G37*
G36*
X318110Y380906D02*
X312598D01*
Y379358D01*
X309449D01*
Y380906D01*
X303937D01*
Y375787D01*
X309449D01*
Y377335D01*
X312598D01*
Y375787D01*
X313358D01*
Y372638D01*
X312008D01*
Y367520D01*
X316732D01*
Y369855D01*
X318110D01*
X318497Y369932D01*
X318826Y370151D01*
X320389Y371714D01*
X320850Y371522D01*
Y370579D01*
X323425D01*
X326000D01*
Y372850D01*
X326436Y373004D01*
X336589D01*
X339644Y369949D01*
X339551Y369725D01*
Y368858D01*
X339883Y368056D01*
X340419Y367520D01*
X339883Y366984D01*
X339551Y366182D01*
Y365314D01*
X339644Y365090D01*
X337753Y363199D01*
X322441D01*
X322054Y363123D01*
X321726Y362903D01*
X321506Y362575D01*
X321429Y362188D01*
X321506Y361801D01*
X321726Y361473D01*
X322054Y361253D01*
X322441Y361176D01*
X338172D01*
X338559Y361253D01*
X338888Y361473D01*
X341074Y363660D01*
X341298Y363567D01*
X342166D01*
X342968Y363899D01*
X343581Y364512D01*
X343913Y365314D01*
Y366182D01*
X343581Y366984D01*
X343045Y367520D01*
X343581Y368056D01*
X343913Y368858D01*
Y369725D01*
X343581Y370527D01*
X342968Y371140D01*
X342166Y371472D01*
X341298D01*
X341074Y371380D01*
X337723Y374731D01*
X337395Y374950D01*
X337008Y375027D01*
X321260D01*
X320873Y374950D01*
X320545Y374731D01*
X317691Y371878D01*
X316732D01*
Y372638D01*
X315382D01*
Y375787D01*
X318110D01*
Y380906D01*
D02*
G37*
G36*
X325410Y381118D02*
X322941D01*
Y378847D01*
X325410D01*
Y381118D01*
D02*
G37*
G36*
X321941D02*
X319472D01*
Y378847D01*
X321941D01*
Y381118D01*
D02*
G37*
G36*
X471074Y393206D02*
X461699D01*
Y389432D01*
X462079D01*
Y387500D01*
X454252D01*
Y379429D01*
X455799D01*
Y378527D01*
X455512D01*
Y373409D01*
X461024D01*
Y378527D01*
X457823D01*
Y379429D01*
X463618D01*
X463636Y379420D01*
X463772Y379239D01*
X463523Y378739D01*
X462386D01*
Y376467D01*
X465354D01*
X468323D01*
Y378716D01*
X468323Y378739D01*
X468377Y379217D01*
X469583D01*
Y382964D01*
X466811D01*
Y383465D01*
X466311D01*
Y387713D01*
X464102D01*
Y389432D01*
X471074D01*
Y393206D01*
D02*
G37*
G36*
X381134Y383890D02*
X380266D01*
X379465Y383558D01*
X378851Y382944D01*
X378519Y382142D01*
Y381275D01*
X378851Y380473D01*
X379301Y380023D01*
X378860Y379582D01*
X378528Y378780D01*
Y377913D01*
X378860Y377111D01*
X379473Y376497D01*
X380275Y376165D01*
X381142D01*
X381944Y376497D01*
X382558Y377111D01*
X382890Y377913D01*
Y378780D01*
X382558Y379582D01*
X382108Y380032D01*
X382549Y380473D01*
X382881Y381275D01*
Y382142D01*
X382549Y382944D01*
X381936Y383558D01*
X381134Y383890D01*
D02*
G37*
G36*
X325410Y377847D02*
X322941D01*
Y375575D01*
X325410D01*
Y377847D01*
D02*
G37*
G36*
X321941D02*
X319472D01*
Y375575D01*
X321941D01*
Y377847D01*
D02*
G37*
G36*
X343004Y382153D02*
X342137D01*
X341335Y381821D01*
X340721Y381207D01*
X340389Y380406D01*
Y379538D01*
X340721Y378737D01*
X341142Y378316D01*
X341252Y377944D01*
X341128Y377677D01*
X340671Y377220D01*
X340339Y376418D01*
Y375550D01*
X340671Y374749D01*
X341284Y374135D01*
X342086Y373803D01*
X342953D01*
X343755Y374135D01*
X344369Y374749D01*
X344701Y375550D01*
Y376418D01*
X344369Y377220D01*
X343948Y377641D01*
X343839Y378013D01*
X343962Y378279D01*
X344420Y378737D01*
X344752Y379538D01*
Y380406D01*
X344420Y381207D01*
X343806Y381821D01*
X343004Y382153D01*
D02*
G37*
G36*
X468323Y375467D02*
X465854D01*
Y373196D01*
X468323D01*
Y375467D01*
D02*
G37*
G36*
X464854D02*
X462386D01*
Y373196D01*
X464854D01*
Y375467D01*
D02*
G37*
G36*
X375237Y374228D02*
X374369D01*
X373568Y373896D01*
X372954Y373283D01*
X372622Y372481D01*
Y371613D01*
X372954Y370812D01*
X373568Y370198D01*
X374369Y369866D01*
X375237D01*
X376039Y370198D01*
X376652Y370812D01*
X376984Y371613D01*
Y372481D01*
X376652Y373283D01*
X376039Y373896D01*
X375237Y374228D01*
D02*
G37*
G36*
X660009Y378268D02*
X658889D01*
X657808Y377978D01*
X656838Y377418D01*
X656046Y376626D01*
X655487Y375657D01*
X655197Y374575D01*
Y373456D01*
X655487Y372375D01*
X656046Y371405D01*
X656838Y370613D01*
X657808Y370054D01*
X658889Y369764D01*
X660009D01*
X661090Y370054D01*
X662060Y370613D01*
X662851Y371405D01*
X663411Y372375D01*
X663701Y373456D01*
Y374575D01*
X663411Y375657D01*
X662851Y376626D01*
X662060Y377418D01*
X661090Y377978D01*
X660009Y378268D01*
D02*
G37*
G36*
X650166D02*
X649047D01*
X647965Y377978D01*
X646996Y377418D01*
X646204Y376626D01*
X645644Y375657D01*
X645354Y374575D01*
Y373456D01*
X645644Y372375D01*
X646204Y371405D01*
X646996Y370613D01*
X647965Y370054D01*
X649047Y369764D01*
X650166D01*
X651248Y370054D01*
X652217Y370613D01*
X653009Y371405D01*
X653569Y372375D01*
X653858Y373456D01*
Y374575D01*
X653569Y375657D01*
X653009Y376626D01*
X652217Y377418D01*
X651248Y377978D01*
X650166Y378268D01*
D02*
G37*
G36*
X640324D02*
X639204D01*
X638123Y377978D01*
X637153Y377418D01*
X636361Y376626D01*
X635802Y375657D01*
X635512Y374575D01*
Y373456D01*
X635802Y372375D01*
X636361Y371405D01*
X637153Y370613D01*
X638123Y370054D01*
X639204Y369764D01*
X640324D01*
X641405Y370054D01*
X642375Y370613D01*
X643166Y371405D01*
X643726Y372375D01*
X644016Y373456D01*
Y374575D01*
X643726Y375657D01*
X643166Y376626D01*
X642375Y377418D01*
X641405Y377978D01*
X640324Y378268D01*
D02*
G37*
G36*
X630481D02*
X629361D01*
X628280Y377978D01*
X627311Y377418D01*
X626519Y376626D01*
X625959Y375657D01*
X625669Y374575D01*
Y373456D01*
X625959Y372375D01*
X626519Y371405D01*
X627311Y370613D01*
X628280Y370054D01*
X629361Y369764D01*
X630481D01*
X631563Y370054D01*
X632532Y370613D01*
X633324Y371405D01*
X633883Y372375D01*
X634173Y373456D01*
Y374575D01*
X633883Y375657D01*
X633324Y376626D01*
X632532Y377418D01*
X631563Y377978D01*
X630481Y378268D01*
D02*
G37*
G36*
X326000Y369579D02*
X323925D01*
Y367307D01*
X326000D01*
Y369579D01*
D02*
G37*
G36*
X322925D02*
X320850D01*
Y367307D01*
X322925D01*
Y369579D01*
D02*
G37*
G36*
X390198Y362811D02*
X389330D01*
X388528Y362479D01*
X387915Y361865D01*
X387583Y361064D01*
Y360196D01*
X387915Y359394D01*
X388528Y358781D01*
X389330Y358449D01*
X390198D01*
X390999Y358781D01*
X391613Y359394D01*
X391945Y360196D01*
Y361064D01*
X391613Y361865D01*
X390999Y362479D01*
X390198Y362811D01*
D02*
G37*
G36*
X374450Y361154D02*
X373582D01*
X372780Y360822D01*
X372167Y360208D01*
X371835Y359406D01*
Y358539D01*
X371979Y358191D01*
X371555Y357908D01*
X371314Y358148D01*
X370513Y358480D01*
X369645D01*
X368843Y358148D01*
X368230Y357535D01*
X367898Y356733D01*
Y355865D01*
X368230Y355064D01*
X368843Y354450D01*
X369645Y354118D01*
X370513D01*
X371314Y354450D01*
X371928Y355064D01*
X372260Y355865D01*
Y356733D01*
X372116Y357081D01*
X372540Y357364D01*
X372780Y357123D01*
X373582Y356791D01*
X374450D01*
X375251Y357123D01*
X375865Y357737D01*
X376197Y358539D01*
Y359406D01*
X375865Y360208D01*
X375251Y360822D01*
X374450Y361154D01*
D02*
G37*
G36*
X660009Y358583D02*
X658889D01*
X657808Y358293D01*
X656838Y357733D01*
X656046Y356942D01*
X655487Y355972D01*
X655197Y354890D01*
Y353771D01*
X655487Y352690D01*
X656046Y351720D01*
X656838Y350928D01*
X657808Y350368D01*
X658889Y350079D01*
X660009D01*
X661090Y350368D01*
X662060Y350928D01*
X662851Y351720D01*
X663411Y352690D01*
X663701Y353771D01*
Y354890D01*
X663411Y355972D01*
X662851Y356942D01*
X662060Y357733D01*
X661090Y358293D01*
X660009Y358583D01*
D02*
G37*
G36*
X268496Y349425D02*
X266224D01*
Y346957D01*
X268496D01*
Y349425D01*
D02*
G37*
G36*
X384111Y346669D02*
X383243D01*
X382442Y346337D01*
X381996Y345892D01*
X381551Y346337D01*
X380749Y346669D01*
X379881D01*
X379080Y346337D01*
X378466Y345724D01*
X378134Y344922D01*
Y344054D01*
X378466Y343253D01*
X379080Y342639D01*
X379881Y342307D01*
X380749D01*
X381551Y342639D01*
X381996Y343085D01*
X382442Y342639D01*
X383243Y342307D01*
X384111D01*
X384913Y342639D01*
X385526Y343253D01*
X385858Y344054D01*
Y344922D01*
X385526Y345724D01*
X384913Y346337D01*
X384111Y346669D01*
D02*
G37*
G36*
X365001D02*
X364133D01*
X363331Y346337D01*
X362718Y345724D01*
X362508Y345216D01*
X361851Y345488D01*
X360983D01*
X360327Y345216D01*
X360117Y345724D01*
X359503Y346337D01*
X358702Y346669D01*
X357834D01*
X357032Y346337D01*
X356419Y345724D01*
X356210Y345220D01*
X355552Y345493D01*
X354684D01*
X354026Y345220D01*
X353818Y345724D01*
X353204Y346337D01*
X352402Y346669D01*
X351535D01*
X350733Y346337D01*
X350119Y345724D01*
X349909Y345216D01*
X349253Y345488D01*
X348385D01*
X347728Y345216D01*
X347518Y345724D01*
X346905Y346337D01*
X346103Y346669D01*
X345235D01*
X344434Y346337D01*
X343820Y345724D01*
X343488Y344922D01*
Y344054D01*
X343820Y343253D01*
X344434Y342639D01*
X345235Y342307D01*
X346103D01*
X346760Y342579D01*
X346970Y342072D01*
X347583Y341458D01*
X348385Y341126D01*
X349253D01*
X350054Y341458D01*
X350668Y342072D01*
X350878Y342579D01*
X351535Y342307D01*
X352402D01*
X353061Y342580D01*
X353269Y342076D01*
X353883Y341463D01*
X354684Y341130D01*
X355552D01*
X356354Y341463D01*
X356967Y342076D01*
X357176Y342580D01*
X357834Y342307D01*
X358702D01*
X359358Y342579D01*
X359568Y342072D01*
X360182Y341458D01*
X360983Y341126D01*
X361851D01*
X362653Y341458D01*
X363266Y342072D01*
X363476Y342579D01*
X364133Y342307D01*
X365001D01*
X365357Y342455D01*
X365951Y342329D01*
X366564Y341716D01*
X367366Y341383D01*
X368234D01*
X369035Y341716D01*
X369649Y342329D01*
X369981Y343131D01*
Y343998D01*
X369649Y344800D01*
X369035Y345414D01*
X368234Y345746D01*
X367366D01*
X367009Y345598D01*
X366416Y345724D01*
X365802Y346337D01*
X365001Y346669D01*
D02*
G37*
G36*
X268496Y345957D02*
X266224D01*
Y343488D01*
X268496D01*
Y345957D01*
D02*
G37*
G36*
X271768Y349425D02*
X269496D01*
Y346457D01*
Y343488D01*
X271768D01*
Y343701D01*
X272729D01*
Y342155D01*
X272514Y342098D01*
X271533Y341532D01*
X270733Y340731D01*
X270167Y339751D01*
X269874Y338657D01*
Y337526D01*
X270167Y336432D01*
X270733Y335452D01*
X271533Y334651D01*
X272514Y334085D01*
X273607Y333792D01*
X274739D01*
X275833Y334085D01*
X276813Y334651D01*
X277613Y335452D01*
X278180Y336432D01*
X278472Y337526D01*
Y338657D01*
X278180Y339751D01*
X277613Y340731D01*
X276813Y341532D01*
X275833Y342098D01*
X275756Y342118D01*
Y343701D01*
X276870D01*
Y349213D01*
X271768D01*
Y349425D01*
D02*
G37*
G36*
X389460Y332890D02*
X388593D01*
X387791Y332558D01*
X387178Y331944D01*
X386845Y331142D01*
Y330275D01*
X387178Y329473D01*
X387791Y328860D01*
X388593Y328528D01*
X389460D01*
X390262Y328860D01*
X390876Y329473D01*
X391208Y330275D01*
Y331142D01*
X390876Y331944D01*
X390262Y332558D01*
X389460Y332890D01*
D02*
G37*
G36*
X380782D02*
X379915D01*
X379113Y332558D01*
X378499Y331944D01*
X378167Y331142D01*
Y330275D01*
X378499Y329473D01*
X379113Y328860D01*
X379915Y328528D01*
X380782D01*
X381584Y328860D01*
X382197Y329473D01*
X382529Y330275D01*
Y331142D01*
X382197Y331944D01*
X381584Y332558D01*
X380782Y332890D01*
D02*
G37*
G36*
X372104D02*
X371236D01*
X370435Y332558D01*
X369821Y331944D01*
X369489Y331142D01*
Y330275D01*
X369821Y329473D01*
X370435Y328860D01*
X371236Y328528D01*
X372104D01*
X372906Y328860D01*
X373519Y329473D01*
X373851Y330275D01*
Y331142D01*
X373519Y331944D01*
X372906Y332558D01*
X372104Y332890D01*
D02*
G37*
G36*
X363426D02*
X362558D01*
X361757Y332558D01*
X361143Y331944D01*
X360811Y331142D01*
Y330275D01*
X361143Y329473D01*
X361757Y328860D01*
X362558Y328528D01*
X363426D01*
X364228Y328860D01*
X364841Y329473D01*
X365173Y330275D01*
Y331142D01*
X364841Y331944D01*
X364228Y332558D01*
X363426Y332890D01*
D02*
G37*
G36*
X357914Y332890D02*
X357047D01*
X356245Y332558D01*
X355631Y331944D01*
X355299Y331142D01*
Y330275D01*
X355631Y329473D01*
X356245Y328860D01*
X357047Y328528D01*
X357914D01*
X358716Y328860D01*
X359329Y329473D01*
X359661Y330275D01*
Y331142D01*
X359329Y331944D01*
X358716Y332558D01*
X357914Y332890D01*
D02*
G37*
G36*
X349253D02*
X348385D01*
X347583Y332558D01*
X346970Y331944D01*
X346638Y331142D01*
Y330275D01*
X346970Y329473D01*
X347583Y328860D01*
X348385Y328528D01*
X349253D01*
X350054Y328860D01*
X350668Y329473D01*
X351000Y330275D01*
Y331142D01*
X350668Y331944D01*
X350054Y332558D01*
X349253Y332890D01*
D02*
G37*
G36*
X340591D02*
X339724D01*
X338922Y332558D01*
X338308Y331944D01*
X337976Y331142D01*
Y330275D01*
X338308Y329473D01*
X338922Y328860D01*
X339724Y328528D01*
X340591D01*
X341393Y328860D01*
X342006Y329473D01*
X342339Y330275D01*
Y331142D01*
X342006Y331944D01*
X341393Y332558D01*
X340591Y332890D01*
D02*
G37*
G36*
X331930D02*
X331062D01*
X330261Y332558D01*
X329647Y331944D01*
X329315Y331142D01*
Y330275D01*
X329647Y329473D01*
X330261Y328860D01*
X331062Y328528D01*
X331930D01*
X332732Y328860D01*
X333345Y329473D01*
X333677Y330275D01*
Y331142D01*
X333345Y331944D01*
X332732Y332558D01*
X331930Y332890D01*
D02*
G37*
G36*
X497744Y328925D02*
Y327272D01*
X499398D01*
X499093Y328007D01*
X498480Y328621D01*
X497744Y328925D01*
D02*
G37*
G36*
X496744D02*
X496009Y328621D01*
X495395Y328007D01*
X495090Y327272D01*
X496744D01*
Y328925D01*
D02*
G37*
G36*
X499398Y326272D02*
X497744D01*
Y324618D01*
X498480Y324923D01*
X499093Y325536D01*
X499398Y326272D01*
D02*
G37*
G36*
X496744D02*
X495090D01*
X495395Y325536D01*
X496009Y324923D01*
X496744Y324618D01*
Y326272D01*
D02*
G37*
G36*
X464607Y328953D02*
X463739D01*
X462938Y328621D01*
X462324Y328007D01*
X461992Y327205D01*
Y326338D01*
X462324Y325536D01*
X462938Y324923D01*
X463739Y324590D01*
X464607D01*
X465409Y324923D01*
X466022Y325536D01*
X466354Y326338D01*
Y327205D01*
X466022Y328007D01*
X465409Y328621D01*
X464607Y328953D01*
D02*
G37*
G36*
X650166Y329055D02*
X649047D01*
X647965Y328765D01*
X646996Y328206D01*
X646204Y327414D01*
X645644Y326444D01*
X645354Y325363D01*
Y324243D01*
X645644Y323162D01*
X646204Y322192D01*
X646996Y321401D01*
X647965Y320841D01*
X649047Y320551D01*
X650166D01*
X651248Y320841D01*
X652217Y321401D01*
X653009Y322192D01*
X653569Y323162D01*
X653858Y324243D01*
Y325363D01*
X653569Y326444D01*
X653009Y327414D01*
X652217Y328206D01*
X651248Y328765D01*
X650166Y329055D01*
D02*
G37*
G36*
X497744Y321051D02*
Y319398D01*
X499398D01*
X499093Y320133D01*
X498480Y320747D01*
X497744Y321051D01*
D02*
G37*
G36*
X496744D02*
X496009Y320747D01*
X495395Y320133D01*
X495090Y319398D01*
X496744D01*
Y321051D01*
D02*
G37*
G36*
X499398Y318398D02*
X497744D01*
Y316744D01*
X498480Y317049D01*
X499093Y317662D01*
X499398Y318398D01*
D02*
G37*
G36*
X496744D02*
X495090D01*
X495395Y317662D01*
X496009Y317049D01*
X496744Y316744D01*
Y318398D01*
D02*
G37*
G36*
X464607Y321079D02*
X463739D01*
X462938Y320747D01*
X462324Y320133D01*
X461992Y319332D01*
Y318464D01*
X462324Y317662D01*
X462938Y317049D01*
X463739Y316717D01*
X464607D01*
X465409Y317049D01*
X466022Y317662D01*
X466354Y318464D01*
Y319332D01*
X466022Y320133D01*
X465409Y320747D01*
X464607Y321079D01*
D02*
G37*
G36*
X566921Y314386D02*
X564650D01*
Y311917D01*
X566921D01*
Y314386D01*
D02*
G37*
G36*
X555823D02*
X553551D01*
Y311917D01*
X555823D01*
Y314386D01*
D02*
G37*
G36*
X660009Y319213D02*
X658889D01*
X657808Y318923D01*
X656838Y318363D01*
X656046Y317571D01*
X655487Y316602D01*
X655197Y315520D01*
Y314401D01*
X655487Y313319D01*
X656046Y312350D01*
X656838Y311558D01*
X657808Y310998D01*
X658889Y310709D01*
X660009D01*
X661090Y310998D01*
X662060Y311558D01*
X662851Y312350D01*
X663411Y313319D01*
X663701Y314401D01*
Y315520D01*
X663411Y316602D01*
X662851Y317571D01*
X662060Y318363D01*
X661090Y318923D01*
X660009Y319213D01*
D02*
G37*
G36*
X650166D02*
X649047D01*
X647965Y318923D01*
X646996Y318363D01*
X646204Y317571D01*
X645644Y316602D01*
X645354Y315520D01*
Y314401D01*
X645644Y313319D01*
X646204Y312350D01*
X646996Y311558D01*
X647965Y310998D01*
X649047Y310709D01*
X650166D01*
X651248Y310998D01*
X652217Y311558D01*
X653009Y312350D01*
X653569Y313319D01*
X653858Y314401D01*
Y315520D01*
X653569Y316602D01*
X653009Y317571D01*
X652217Y318363D01*
X651248Y318923D01*
X650166Y319213D01*
D02*
G37*
G36*
X566921Y310917D02*
X564650D01*
Y308449D01*
X566921D01*
Y310917D01*
D02*
G37*
G36*
X555823Y310917D02*
X553551D01*
Y308449D01*
X555823D01*
Y310917D01*
D02*
G37*
G36*
X570193Y314386D02*
X567921D01*
Y311417D01*
Y308449D01*
X570193D01*
Y308661D01*
X571223D01*
Y307156D01*
X570826Y306852D01*
X570802Y306858D01*
X569670D01*
X568577Y306565D01*
X567596Y305999D01*
X566796Y305199D01*
X566230Y304219D01*
X565937Y303125D01*
Y301993D01*
X566230Y300900D01*
X566796Y299919D01*
X567596Y299119D01*
X568577Y298553D01*
X569670Y298260D01*
X570802D01*
X571896Y298553D01*
X572876Y299119D01*
X573676Y299919D01*
X574242Y300900D01*
X574535Y301993D01*
Y303125D01*
X574242Y304219D01*
X573906Y304801D01*
X574134Y305142D01*
X574250Y305721D01*
Y308661D01*
X575295D01*
Y314173D01*
X570193D01*
Y314386D01*
D02*
G37*
G36*
X390985Y308874D02*
X390117D01*
X389316Y308542D01*
X388702Y307928D01*
X388370Y307127D01*
Y306259D01*
X388702Y305457D01*
X389316Y304844D01*
X390117Y304512D01*
X390985D01*
X391787Y304844D01*
X392400Y305457D01*
X392732Y306259D01*
Y307127D01*
X392400Y307928D01*
X391787Y308542D01*
X390985Y308874D01*
D02*
G37*
G36*
X382324D02*
X381456D01*
X380654Y308542D01*
X380041Y307928D01*
X379709Y307127D01*
Y306259D01*
X380041Y305457D01*
X380654Y304844D01*
X381456Y304512D01*
X382324D01*
X383125Y304844D01*
X383739Y305457D01*
X384071Y306259D01*
Y307127D01*
X383739Y307928D01*
X383125Y308542D01*
X382324Y308874D01*
D02*
G37*
G36*
X373662D02*
X372794D01*
X371993Y308542D01*
X371379Y307928D01*
X371047Y307127D01*
Y306259D01*
X371379Y305457D01*
X371993Y304844D01*
X372794Y304512D01*
X373662D01*
X374464Y304844D01*
X375077Y305457D01*
X375409Y306259D01*
Y307127D01*
X375077Y307928D01*
X374464Y308542D01*
X373662Y308874D01*
D02*
G37*
G36*
X365001D02*
X364133D01*
X363331Y308542D01*
X362718Y307928D01*
X362386Y307127D01*
Y306259D01*
X362718Y305457D01*
X363331Y304844D01*
X364133Y304512D01*
X365001D01*
X365802Y304844D01*
X366416Y305457D01*
X366748Y306259D01*
Y307127D01*
X366416Y307928D01*
X365802Y308542D01*
X365001Y308874D01*
D02*
G37*
G36*
X356339D02*
X355472D01*
X354670Y308542D01*
X354056Y307928D01*
X353724Y307127D01*
Y306259D01*
X354056Y305457D01*
X354670Y304844D01*
X355472Y304512D01*
X356339D01*
X357141Y304844D01*
X357754Y305457D01*
X358086Y306259D01*
Y307127D01*
X357754Y307928D01*
X357141Y308542D01*
X356339Y308874D01*
D02*
G37*
G36*
X347678D02*
X346810D01*
X346009Y308542D01*
X345395Y307928D01*
X345063Y307127D01*
Y306259D01*
X345395Y305457D01*
X346009Y304844D01*
X346810Y304512D01*
X347678D01*
X348480Y304844D01*
X349093Y305457D01*
X349425Y306259D01*
Y307127D01*
X349093Y307928D01*
X348480Y308542D01*
X347678Y308874D01*
D02*
G37*
G36*
X339017D02*
X338149D01*
X337347Y308542D01*
X336734Y307928D01*
X336402Y307127D01*
Y306259D01*
X336734Y305457D01*
X337347Y304844D01*
X338149Y304512D01*
X339017D01*
X339818Y304844D01*
X340432Y305457D01*
X340764Y306259D01*
Y307127D01*
X340432Y307928D01*
X339818Y308542D01*
X339017Y308874D01*
D02*
G37*
G36*
X330355D02*
X329487D01*
X328686Y308542D01*
X328072Y307928D01*
X327740Y307127D01*
Y306259D01*
X328072Y305457D01*
X328686Y304844D01*
X329487Y304512D01*
X330355D01*
X331157Y304844D01*
X331770Y305457D01*
X332102Y306259D01*
Y307127D01*
X331770Y307928D01*
X331157Y308542D01*
X330355Y308874D01*
D02*
G37*
G36*
X604331Y316929D02*
X584646Y316929D01*
X584646Y297244D01*
X604331Y297244D01*
X604331Y316929D01*
D02*
G37*
G36*
X626558Y295394D02*
X625410D01*
X624285Y295170D01*
X623224Y294730D01*
X622270Y294093D01*
X621458Y293281D01*
X620821Y292327D01*
X620381Y291267D01*
X620157Y290141D01*
Y288993D01*
X620381Y287867D01*
X620821Y286807D01*
X621458Y285853D01*
X622270Y285041D01*
X623224Y284403D01*
X624285Y283964D01*
X625410Y283740D01*
X626558D01*
X627684Y283964D01*
X628744Y284403D01*
X629699Y285041D01*
X630510Y285853D01*
X631148Y286807D01*
X631587Y287867D01*
X631811Y288993D01*
Y290141D01*
X631587Y291267D01*
X631148Y292327D01*
X630510Y293281D01*
X629699Y294093D01*
X628744Y294730D01*
X627684Y295170D01*
X626558Y295394D01*
D02*
G37*
G36*
X643049Y283780D02*
X641203D01*
X639393Y283419D01*
X637688Y282713D01*
X636153Y281688D01*
X634848Y280382D01*
X633822Y278848D01*
X633116Y277143D01*
X632756Y275332D01*
Y273487D01*
X633116Y271676D01*
X633822Y269971D01*
X634848Y268436D01*
X636153Y267131D01*
X637688Y266106D01*
X639393Y265400D01*
X641203Y265039D01*
X643049D01*
X644859Y265400D01*
X646564Y266106D01*
X648099Y267131D01*
X649404Y268436D01*
X650430Y269971D01*
X651136Y271676D01*
X651496Y273487D01*
Y275332D01*
X651136Y277143D01*
X650430Y278848D01*
X649404Y280382D01*
X648099Y281688D01*
X646564Y282713D01*
X644859Y283419D01*
X643049Y283780D01*
D02*
G37*
G36*
X599954Y274272D02*
X598471D01*
X597040Y273888D01*
X595756Y273147D01*
X594707Y272099D01*
X593966Y270815D01*
X593583Y269383D01*
Y267901D01*
X593966Y266469D01*
X594707Y265185D01*
X595756Y264137D01*
X597040Y263396D01*
X598471Y263012D01*
X599954D01*
X601386Y263396D01*
X602669Y264137D01*
X603718Y265185D01*
X604459Y266469D01*
X604843Y267901D01*
Y269383D01*
X604459Y270815D01*
X603718Y272099D01*
X602669Y273147D01*
X601386Y273888D01*
X599954Y274272D01*
D02*
G37*
G36*
X586568D02*
X585086D01*
X583654Y273888D01*
X582370Y273147D01*
X581322Y272099D01*
X580581Y270815D01*
X580197Y269383D01*
Y267901D01*
X580581Y266469D01*
X581322Y265185D01*
X582370Y264137D01*
X583654Y263396D01*
X585086Y263012D01*
X586568D01*
X588000Y263396D01*
X589284Y264137D01*
X590332Y265185D01*
X591073Y266469D01*
X591457Y267901D01*
Y269383D01*
X591073Y270815D01*
X590332Y272099D01*
X589284Y273147D01*
X588000Y273888D01*
X586568Y274272D01*
D02*
G37*
G36*
X570394D02*
X568911D01*
X567479Y273888D01*
X566196Y273147D01*
X565147Y272099D01*
X564406Y270815D01*
X564023Y269383D01*
Y267901D01*
X564406Y266469D01*
X565147Y265185D01*
X566196Y264137D01*
X567479Y263396D01*
X568911Y263012D01*
X570394D01*
X571826Y263396D01*
X573109Y264137D01*
X574158Y265185D01*
X574899Y266469D01*
X575282Y267901D01*
Y269383D01*
X574899Y270815D01*
X574158Y272099D01*
X573109Y273147D01*
X571826Y273888D01*
X570394Y274272D01*
D02*
G37*
G36*
X453190Y258087D02*
X452322D01*
X451520Y257755D01*
X450907Y257141D01*
X450575Y256339D01*
Y255472D01*
X450907Y254670D01*
X451520Y254057D01*
X452322Y253724D01*
X453190D01*
X453991Y254057D01*
X454605Y254670D01*
X454937Y255472D01*
Y256339D01*
X454605Y257141D01*
X453991Y257755D01*
X453190Y258087D01*
D02*
G37*
G36*
X433505D02*
X432637D01*
X431835Y257755D01*
X431222Y257141D01*
X430890Y256339D01*
Y255472D01*
X431222Y254670D01*
X431835Y254057D01*
X432637Y253724D01*
X433505D01*
X434306Y254057D01*
X434920Y254670D01*
X435252Y255472D01*
Y256339D01*
X434920Y257141D01*
X434306Y257755D01*
X433505Y258087D01*
D02*
G37*
G36*
X413820D02*
X412952D01*
X412150Y257755D01*
X411537Y257141D01*
X411205Y256339D01*
Y255472D01*
X411537Y254670D01*
X412150Y254057D01*
X412952Y253724D01*
X413820D01*
X414621Y254057D01*
X415235Y254670D01*
X415567Y255472D01*
Y256339D01*
X415235Y257141D01*
X414621Y257755D01*
X413820Y258087D01*
D02*
G37*
G36*
X394135D02*
X393267D01*
X392465Y257755D01*
X391852Y257141D01*
X391520Y256339D01*
Y255472D01*
X391852Y254670D01*
X392465Y254057D01*
X393267Y253724D01*
X394135D01*
X394936Y254057D01*
X395550Y254670D01*
X395882Y255472D01*
Y256339D01*
X395550Y257141D01*
X394936Y257755D01*
X394135Y258087D01*
D02*
G37*
G36*
X374450D02*
X373582D01*
X372780Y257755D01*
X372167Y257141D01*
X371835Y256339D01*
Y255472D01*
X372167Y254670D01*
X372780Y254057D01*
X373582Y253724D01*
X374450D01*
X375251Y254057D01*
X375865Y254670D01*
X376197Y255472D01*
Y256339D01*
X375865Y257141D01*
X375251Y257755D01*
X374450Y258087D01*
D02*
G37*
G36*
X354765D02*
X353897D01*
X353095Y257755D01*
X352482Y257141D01*
X352150Y256339D01*
Y255472D01*
X352482Y254670D01*
X353095Y254057D01*
X353897Y253724D01*
X354765D01*
X355566Y254057D01*
X356180Y254670D01*
X356512Y255472D01*
Y256339D01*
X356180Y257141D01*
X355566Y257755D01*
X354765Y258087D01*
D02*
G37*
G36*
X335080D02*
X334212D01*
X333410Y257755D01*
X332797Y257141D01*
X332465Y256339D01*
Y255472D01*
X332797Y254670D01*
X333410Y254057D01*
X334212Y253724D01*
X335080D01*
X335881Y254057D01*
X336495Y254670D01*
X336827Y255472D01*
Y256339D01*
X336495Y257141D01*
X335881Y257755D01*
X335080Y258087D01*
D02*
G37*
G36*
X315394D02*
X314527D01*
X313725Y257755D01*
X313112Y257141D01*
X312779Y256339D01*
Y255472D01*
X313112Y254670D01*
X313725Y254057D01*
X314527Y253724D01*
X315394D01*
X316196Y254057D01*
X316810Y254670D01*
X317142Y255472D01*
Y256339D01*
X316810Y257141D01*
X316196Y257755D01*
X315394Y258087D01*
D02*
G37*
G36*
X295709D02*
X294842D01*
X294040Y257755D01*
X293426Y257141D01*
X293094Y256339D01*
Y255472D01*
X293426Y254670D01*
X294040Y254057D01*
X294842Y253724D01*
X295709D01*
X296511Y254057D01*
X297125Y254670D01*
X297457Y255472D01*
Y256339D01*
X297125Y257141D01*
X296511Y257755D01*
X295709Y258087D01*
D02*
G37*
G36*
X474680Y262261D02*
X473312D01*
X471990Y261907D01*
X470805Y261223D01*
X469838Y260255D01*
X469153Y259070D01*
X468799Y257748D01*
Y256380D01*
X469153Y255058D01*
X469838Y253873D01*
X470805Y252906D01*
X471990Y252221D01*
X473312Y251867D01*
X474680D01*
X476002Y252221D01*
X477187Y252906D01*
X478155Y253873D01*
X478839Y255058D01*
X479193Y256380D01*
Y257748D01*
X478839Y259070D01*
X478155Y260255D01*
X477187Y261223D01*
X476002Y261907D01*
X474680Y262261D01*
D02*
G37*
G36*
X282594Y250512D02*
X281225D01*
X279904Y250158D01*
X278718Y249474D01*
X277751Y248506D01*
X277067Y247321D01*
X276713Y245999D01*
Y244631D01*
X277067Y243309D01*
X277751Y242124D01*
X278718Y241156D01*
X279904Y240472D01*
X281225Y240118D01*
X282594D01*
X283915Y240472D01*
X285100Y241156D01*
X286068Y242124D01*
X286752Y243309D01*
X287106Y244631D01*
Y245999D01*
X286752Y247321D01*
X286068Y248506D01*
X285100Y249474D01*
X283915Y250158D01*
X282594Y250512D01*
D02*
G37*
G36*
X599954Y221240D02*
X598471D01*
X597040Y220856D01*
X595756Y220115D01*
X594707Y219067D01*
X593966Y217783D01*
X593583Y216351D01*
Y214869D01*
X593966Y213437D01*
X594707Y212153D01*
X595756Y211105D01*
X597040Y210364D01*
X598471Y209980D01*
X599954D01*
X601386Y210364D01*
X602669Y211105D01*
X603718Y212153D01*
X604459Y213437D01*
X604843Y214869D01*
Y216351D01*
X604459Y217783D01*
X603718Y219067D01*
X602669Y220115D01*
X601386Y220856D01*
X599954Y221240D01*
D02*
G37*
G36*
X586568D02*
X585086D01*
X583654Y220856D01*
X582370Y220115D01*
X581322Y219067D01*
X580581Y217783D01*
X580197Y216351D01*
Y214869D01*
X580581Y213437D01*
X581322Y212153D01*
X582370Y211105D01*
X583654Y210364D01*
X585086Y209980D01*
X586568D01*
X588000Y210364D01*
X589284Y211105D01*
X590332Y212153D01*
X591073Y213437D01*
X591457Y214869D01*
Y216351D01*
X591073Y217783D01*
X590332Y219067D01*
X589284Y220115D01*
X588000Y220856D01*
X586568Y221240D01*
D02*
G37*
G36*
X570394D02*
X568911D01*
X567479Y220856D01*
X566196Y220115D01*
X565147Y219067D01*
X564406Y217783D01*
X564023Y216351D01*
Y214869D01*
X564406Y213437D01*
X565147Y212153D01*
X566196Y211105D01*
X567479Y210364D01*
X568911Y209980D01*
X570394D01*
X571826Y210364D01*
X573109Y211105D01*
X574158Y212153D01*
X574899Y213437D01*
X575282Y214869D01*
Y216351D01*
X574899Y217783D01*
X574158Y219067D01*
X573109Y220115D01*
X571826Y220856D01*
X570394Y221240D01*
D02*
G37*
%LPD*%
D11*
X273727Y532421D02*
X282283Y523865D01*
Y472835D02*
X299606Y455512D01*
X282283Y472835D02*
Y523865D01*
X299606Y378346D02*
Y455512D01*
X338172Y362188D02*
X341732Y365748D01*
X322441Y362188D02*
X338172D01*
X337008Y374016D02*
X341732Y369291D01*
X321260Y374016D02*
X337008D01*
X318110Y370866D02*
X321260Y374016D01*
X315158Y370866D02*
X318110D01*
X314370Y370079D02*
X315158Y370866D01*
X314370Y377362D02*
X315354Y378346D01*
X314370Y370079D02*
Y377362D01*
X306693Y378346D02*
X315354D01*
X254724Y405743D02*
X261654D01*
X254724Y400394D02*
Y406791D01*
X277302Y395512D02*
X278740D01*
X269685Y392421D02*
X270965Y393701D01*
X275491D01*
X264567Y392520D02*
X269587D01*
X275491Y393701D02*
X277302Y395512D01*
X269587Y392520D02*
X269685Y392421D01*
X383038Y356078D02*
X458478D01*
X491634Y389234D02*
Y446850D01*
X432283Y401493D02*
Y405905D01*
X432267Y401476D02*
X432283Y401493D01*
X458478Y356078D02*
X491634Y389234D01*
X484372Y397827D02*
X486122Y396077D01*
Y389469D02*
Y396077D01*
X469794Y397250D02*
X470371Y397827D01*
X484372D01*
X469794Y396927D02*
Y397250D01*
X469186Y396319D02*
X469794Y396927D01*
X466387Y396319D02*
X469186D01*
X483071Y386417D02*
X486122Y389469D01*
X483071Y386221D02*
Y386417D01*
X486122Y401561D02*
Y408169D01*
X484372Y399811D02*
X486122Y401561D01*
X483071Y411221D02*
X486122Y408169D01*
X483071Y411221D02*
Y411417D01*
X466387Y401319D02*
X469186D01*
X469794Y400711D01*
X470371Y399811D02*
X484372D01*
X469794Y400388D02*
Y400711D01*
Y400388D02*
X470371Y399811D01*
X278509Y405743D02*
X278740Y405512D01*
X269054Y405743D02*
X278509D01*
X439528Y401319D02*
X447787D01*
X432267Y401476D02*
X439370D01*
X439528Y401319D01*
X475968Y392421D02*
X476853Y393307D01*
X483071D01*
X456811Y377247D02*
X458090Y375968D01*
X458268D01*
X456811Y377247D02*
Y383465D01*
X463091Y390711D02*
X463698Y391319D01*
X466387D01*
X461811Y383465D02*
X463091Y384744D01*
Y390711D01*
X469186Y406319D02*
X471257Y408389D01*
Y409955D02*
X472719Y411417D01*
X471257Y408389D02*
Y409955D01*
X472719Y411417D02*
X475968D01*
X466387Y406319D02*
X469186D01*
X475968Y404331D02*
X483071D01*
X475968Y404331D02*
X475968Y404331D01*
D12*
X444882Y406919D02*
Y409449D01*
X445482Y406319D02*
X447787D01*
X444882Y406919D02*
X445482Y406319D01*
Y391319D02*
X447787D01*
X444882Y390719D02*
X445482Y391319D01*
X444882Y387795D02*
Y390719D01*
X599425Y300213D02*
Y306211D01*
X596426Y303212D01*
X600424D01*
D18*
X315354Y378346D02*
D03*
X322441D02*
D03*
X299606D02*
D03*
X306693D02*
D03*
X254724Y412106D02*
D03*
Y406791D02*
D03*
X432267Y401476D02*
D03*
Y396161D02*
D03*
X439370Y401476D02*
D03*
Y396161D02*
D03*
X475968Y387106D02*
D03*
Y392421D02*
D03*
X465354Y375968D02*
D03*
X458268D02*
D03*
X269685Y392421D02*
D03*
Y387106D02*
D03*
D27*
X473996Y257064D02*
D03*
X281909Y245315D02*
D03*
D29*
X625984Y457283D02*
D03*
Y289567D02*
D03*
D31*
X278740Y385512D02*
D03*
X288740Y395512D02*
D03*
X278740D02*
D03*
X288740Y405512D02*
D03*
X278740D02*
D03*
X288740Y415512D02*
D03*
X278740D02*
D03*
X288740Y425512D02*
D03*
X278740D02*
D03*
D35*
X475968Y411417D02*
D03*
Y404331D02*
D03*
X483071Y411417D02*
D03*
Y404331D02*
D03*
Y393307D02*
D03*
Y386221D02*
D03*
X254035Y346457D02*
D03*
X259350D02*
D03*
X274311D02*
D03*
X268996D02*
D03*
X572736Y311417D02*
D03*
X567421D02*
D03*
X547736D02*
D03*
X553051D02*
D03*
D41*
X265354Y412542D02*
Y413942D01*
X264918Y412106D02*
X265354Y412542D01*
X254724Y412106D02*
X264918D01*
X274173Y338091D02*
X274242Y338160D01*
Y346388D01*
X274311Y346457D01*
X570236Y303221D02*
X572736Y305721D01*
X570236Y302559D02*
Y303221D01*
X572736Y305721D02*
Y311417D01*
D42*
X349963Y462598D02*
X511811D01*
X467587Y479390D02*
X480972D01*
X438027D02*
X451412D01*
X408466D02*
X421852D01*
X378906D02*
X392292D01*
X349346D02*
X362732D01*
X319786Y479390D02*
X333172D01*
X290226D02*
X303612D01*
X322372Y460630D01*
X509842D02*
X610236Y360236D01*
X322372Y460630D02*
X509842D01*
X610236Y326772D02*
Y360236D01*
Y326772D02*
X622047Y314961D01*
X629921D01*
X619425Y319961D02*
X634764D01*
X612205Y327181D02*
Y362205D01*
Y327181D02*
X619425Y319961D01*
X511811Y462598D02*
X612205Y362205D01*
X517717Y468504D02*
X618110Y368110D01*
X513779Y464567D02*
X614173Y364173D01*
X519685Y470472D02*
X620079Y370079D01*
X605772Y376511D02*
X605772D01*
X620079Y352362D02*
Y370079D01*
X515748Y466535D02*
X605772Y376511D01*
X377555Y464567D02*
X513779D01*
X460330Y470472D02*
X519685D01*
X618110Y349451D02*
Y368110D01*
X432738Y468504D02*
X517717D01*
X405147Y466535D02*
X515748D01*
X333172Y479390D02*
X349963Y462598D01*
X622047Y324803D02*
X629921D01*
X614173Y332677D02*
Y364173D01*
Y332677D02*
X622047Y324803D01*
X634764Y319961D02*
X639764Y314961D01*
X621760Y365486D02*
X627915Y359331D01*
X641612D01*
X622953Y349488D02*
X641612D01*
X620079Y352362D02*
X622953Y349488D01*
X616142Y336614D02*
X622953Y329803D01*
X618110Y349451D02*
X627915Y339646D01*
X616142Y336614D02*
Y366142D01*
X621760Y365486D02*
Y372335D01*
X605772Y376511D02*
X616142Y366142D01*
X622953Y329803D02*
X634764D01*
X362732Y479390D02*
X377555Y464567D01*
X488209Y472154D02*
X521941D01*
X621760Y372335D01*
X647640Y349449D02*
X651494D01*
X480972Y479390D02*
X488209Y472154D01*
X644685Y352404D02*
X647640Y349449D01*
X654606Y339488D02*
X659449Y334646D01*
X644685Y352404D02*
Y356258D01*
X654606Y339488D02*
Y346337D01*
X651494Y349449D02*
X654606Y346337D01*
X641612Y359331D02*
X644685Y356258D01*
X392292Y479390D02*
X405147Y466535D01*
X421852Y479390D02*
X432738Y468504D01*
X641612Y349488D02*
X644764Y346337D01*
X634764Y339646D02*
X639764Y334646D01*
X627915Y339646D02*
X634764D01*
X451412Y479390D02*
X460330Y470472D01*
X634764Y329803D02*
X639764Y324803D01*
X644764Y339488D02*
X649606Y334646D01*
X644764Y339488D02*
Y346337D01*
D43*
X288740Y385512D02*
D03*
D44*
X570236Y302559D02*
D03*
X560236D02*
D03*
X550236D02*
D03*
X274173Y338091D02*
D03*
X264173D02*
D03*
X254173D02*
D03*
D45*
X526707Y215610D02*
D03*
X540093D02*
D03*
X526707Y268642D02*
D03*
X540093D02*
D03*
X556267Y215610D02*
D03*
X569653D02*
D03*
X556267Y268642D02*
D03*
X569653D02*
D03*
X585827Y215610D02*
D03*
X599213D02*
D03*
X585827Y268642D02*
D03*
X599213D02*
D03*
X260341Y479390D02*
D03*
X273727D02*
D03*
X260341Y532421D02*
D03*
X273727D02*
D03*
X349346Y479390D02*
D03*
X362732D02*
D03*
X349346Y532421D02*
D03*
X362732D02*
D03*
X290226Y479390D02*
D03*
X303612D02*
D03*
X290226Y532421D02*
D03*
X303612D02*
D03*
X319786Y479390D02*
D03*
X333172D02*
D03*
X319786Y532421D02*
D03*
X333172D02*
D03*
X497147Y479390D02*
D03*
X510532D02*
D03*
X497147Y532421D02*
D03*
X510532D02*
D03*
X526772Y479390D02*
D03*
X540158D02*
D03*
X526772Y532421D02*
D03*
X540158D02*
D03*
X438027Y479390D02*
D03*
X451412D02*
D03*
X438027Y532421D02*
D03*
X451412D02*
D03*
X408466Y479390D02*
D03*
X421852D02*
D03*
X408466Y532421D02*
D03*
X421852D02*
D03*
X378906Y479390D02*
D03*
X392292D02*
D03*
X378906Y532421D02*
D03*
X392292D02*
D03*
X467587Y479390D02*
D03*
X480972D02*
D03*
X467587Y532421D02*
D03*
X480972D02*
D03*
X556332Y479390D02*
D03*
X569718D02*
D03*
X556332Y532421D02*
D03*
X569718D02*
D03*
X585892Y479390D02*
D03*
X599278D02*
D03*
X585892Y532421D02*
D03*
X599278D02*
D03*
D46*
X476870Y446850D02*
D03*
X491634D02*
D03*
X555610D02*
D03*
X575295D02*
D03*
D47*
X659449Y324803D02*
D03*
Y364173D02*
D03*
Y417126D02*
D03*
Y314961D02*
D03*
Y334646D02*
D03*
Y344488D02*
D03*
Y354331D02*
D03*
Y374016D02*
D03*
Y383858D02*
D03*
Y393701D02*
D03*
Y403543D02*
D03*
Y431890D02*
D03*
X649606Y324803D02*
D03*
Y364173D02*
D03*
Y417126D02*
D03*
Y314961D02*
D03*
Y334646D02*
D03*
Y344488D02*
D03*
Y354331D02*
D03*
Y374016D02*
D03*
Y383858D02*
D03*
Y393701D02*
D03*
Y403543D02*
D03*
Y431890D02*
D03*
X639764Y324803D02*
D03*
Y364173D02*
D03*
Y417126D02*
D03*
Y314961D02*
D03*
Y334646D02*
D03*
Y344488D02*
D03*
Y354331D02*
D03*
Y374016D02*
D03*
Y383858D02*
D03*
Y393701D02*
D03*
Y403543D02*
D03*
Y431890D02*
D03*
X629921Y324803D02*
D03*
Y364173D02*
D03*
Y417126D02*
D03*
Y314961D02*
D03*
Y334646D02*
D03*
Y344488D02*
D03*
Y354331D02*
D03*
Y374016D02*
D03*
Y383858D02*
D03*
Y393701D02*
D03*
Y403543D02*
D03*
Y431890D02*
D03*
D48*
X641142Y473425D02*
D03*
X642126Y274410D02*
D03*
D49*
X452756Y216535D02*
D03*
X433071D02*
D03*
X413386D02*
D03*
X393701D02*
D03*
X374016D02*
D03*
X354331D02*
D03*
X334646D02*
D03*
X314961D02*
D03*
X295276D02*
D03*
X452756Y255906D02*
D03*
X433071D02*
D03*
X413386D02*
D03*
X393701D02*
D03*
X374016D02*
D03*
X354331D02*
D03*
X334646D02*
D03*
X314961D02*
D03*
X295276D02*
D03*
X374803Y372047D02*
D03*
X452756Y236221D02*
D03*
X433071D02*
D03*
X413386D02*
D03*
X374016D02*
D03*
X393701D02*
D03*
X354331D02*
D03*
X334646D02*
D03*
X314961D02*
D03*
X295276D02*
D03*
X452756Y275590D02*
D03*
X433071D02*
D03*
X413386D02*
D03*
X393701D02*
D03*
X374016D02*
D03*
X354331D02*
D03*
X334646D02*
D03*
X314961D02*
D03*
X295276D02*
D03*
X327559Y428740D02*
D03*
X612992Y386221D02*
D03*
X607874Y400394D02*
D03*
X606693Y392520D02*
D03*
X613779Y396457D02*
D03*
X389790Y372021D02*
D03*
X348132Y359423D02*
D03*
X342520Y393701D02*
D03*
X360236D02*
D03*
Y401575D02*
D03*
Y397638D02*
D03*
X356299Y393701D02*
D03*
X352362D02*
D03*
X356299Y397638D02*
D03*
Y401575D02*
D03*
X352362Y397638D02*
D03*
Y401575D02*
D03*
X327559Y383071D02*
D03*
X514173Y227559D02*
D03*
X329921Y306693D02*
D03*
X497244Y318898D02*
D03*
Y326772D02*
D03*
X486496Y236220D02*
D03*
Y212598D02*
D03*
X254724Y400394D02*
D03*
X264567Y392520D02*
D03*
X394094Y345276D02*
D03*
X341732Y365748D02*
D03*
Y369291D02*
D03*
X392520Y330709D02*
D03*
X383677Y344488D02*
D03*
X380315D02*
D03*
X464173Y326772D02*
D03*
X464173Y318898D02*
D03*
X362205Y452362D02*
D03*
X355906Y306693D02*
D03*
X389764Y360630D02*
D03*
X345276Y330709D02*
D03*
X336492Y330818D02*
D03*
X367800Y343565D02*
D03*
X375197Y330693D02*
D03*
X345669Y344488D02*
D03*
X348819Y343307D02*
D03*
X348819Y330709D02*
D03*
X389027Y330709D02*
D03*
X380348D02*
D03*
X371670D02*
D03*
X362992D02*
D03*
X357480Y330709D02*
D03*
X340158D02*
D03*
X331496D02*
D03*
X361417Y343307D02*
D03*
X355118Y343312D02*
D03*
X364567Y344488D02*
D03*
X358268D02*
D03*
X351969D02*
D03*
X444882Y387795D02*
D03*
Y409449D02*
D03*
X347244Y306693D02*
D03*
X353543Y428740D02*
D03*
X336733Y429252D02*
D03*
X396850Y428740D02*
D03*
X388189D02*
D03*
X379528D02*
D03*
X370866D02*
D03*
X362205D02*
D03*
X344882D02*
D03*
X318898D02*
D03*
X310236D02*
D03*
X342520Y385827D02*
D03*
X342570Y379972D02*
D03*
X342520Y375984D02*
D03*
Y389764D02*
D03*
X318898Y452362D02*
D03*
X383038Y356078D02*
D03*
X374016Y358972D02*
D03*
X370079Y356299D02*
D03*
X353937Y330709D02*
D03*
X327953D02*
D03*
X364567Y306693D02*
D03*
X373228D02*
D03*
X381890D02*
D03*
X383892Y330709D02*
D03*
X390551Y306693D02*
D03*
X366535Y330709D02*
D03*
X338583Y306693D02*
D03*
X288189Y311475D02*
D03*
X287288Y450591D02*
D03*
X283351D02*
D03*
X279414D02*
D03*
X275477D02*
D03*
X271540D02*
D03*
X287402Y454724D02*
D03*
X283465D02*
D03*
X279528D02*
D03*
X275590D02*
D03*
X271654D02*
D03*
X616142D02*
D03*
X600394D02*
D03*
X616142Y490158D02*
D03*
X600394D02*
D03*
X606299Y433071D02*
D03*
Y417323D02*
D03*
X533465Y419291D02*
D03*
X525591Y427165D02*
D03*
X537402D02*
D03*
X533465Y472441D02*
D03*
X537402Y488189D02*
D03*
X527559D02*
D03*
X616535Y383071D02*
D03*
X618110Y391732D02*
D03*
X614173Y535433D02*
D03*
X629921D02*
D03*
X645669D02*
D03*
X661417D02*
D03*
Y519685D02*
D03*
X645669D02*
D03*
X629921D02*
D03*
X614173D02*
D03*
X598425D02*
D03*
X582677D02*
D03*
X566929D02*
D03*
X559055D02*
D03*
X535433D02*
D03*
X527559D02*
D03*
X511811D02*
D03*
X496063D02*
D03*
X480315D02*
D03*
X464567D02*
D03*
X448819D02*
D03*
X440945D02*
D03*
X425197D02*
D03*
X409449D02*
D03*
X393701D02*
D03*
X377953D02*
D03*
X362205D02*
D03*
X346457D02*
D03*
X330709D02*
D03*
X322835D02*
D03*
X307087D02*
D03*
X291339D02*
D03*
X275590D02*
D03*
X259842D02*
D03*
X483071Y393307D02*
D03*
Y404331D02*
D03*
X432283Y405905D02*
D03*
X396850Y452362D02*
D03*
X379528D02*
D03*
X388189D02*
D03*
X380709Y378346D02*
D03*
X380700Y381709D02*
D03*
X336221Y452362D02*
D03*
X327559D02*
D03*
X310236D02*
D03*
X344882Y452362D02*
D03*
X353543D02*
D03*
X370866Y452362D02*
D03*
X483071Y386221D02*
D03*
Y411417D02*
D03*
X403543Y367323D02*
D03*
Y386221D02*
D03*
D50*
X323425Y370079D02*
D03*
X314370D02*
D03*
D51*
X269054Y405743D02*
D03*
X261654D02*
D03*
X265354Y413942D02*
D03*
D52*
X466387Y391319D02*
D03*
Y396319D02*
D03*
Y401319D02*
D03*
Y406319D02*
D03*
X447787D02*
D03*
Y401319D02*
D03*
Y396319D02*
D03*
Y391319D02*
D03*
D53*
X461811Y383465D02*
D03*
X466811D02*
D03*
X456811D02*
D03*
D54*
X575295Y446850D02*
X597815Y424331D01*
X632906D01*
X639764Y417473D01*
Y417126D02*
Y417473D01*
M02*
