M48
;Layer_Color=9474304
;FILE_FORMAT=2:5
INCH,TZ
;TYPE=PLATED
T1F00S00C0.01181
T2F00S00C0.01968
T3F00S00C0.03937
T4F00S00C0.04331
T5F00S00C0.05118
T6F00S00C0.06496
T7F00S00C0.09055
T8F00S00C0.16142
;TYPE=NON_PLATED
T9F00S00C0.07795
%
T01
X480315Y297244
X325984Y305118
X318110
X310236
X302362
X294488
X286614
X278740
X228346Y292126
Y285827
X250787Y323228
X278740Y327559
X286614
X294488
X302362
X310236
X307874Y344488
X295276
X278346Y355118
X278346Y358268
X267323Y370079
X262992Y372835
X260236Y371260
X259449Y374410
X248031Y407480
X247244Y441732
X239370
X231496
X223622
X215748
X255118
X262992
X270866
X278740
X286614
X294488
X302362
X310236
X295276Y422835
X297244Y420472
X295276Y417717
X297244Y415354
X295276Y412598
X297244Y410236
X330315
X332283Y412598
X330315Y415354
X332283Y417717
X330315Y420472
X332283Y422835
X330315Y425591
X332283Y427953
X318110Y441732
X327165Y383465
X338583Y388189
X341732
X385827Y398425
Y413386
X426378Y411024
Y400394
X431102Y393307
Y418110
X334252Y335827
X325984Y327559
X318110
X320866Y344488
X324803
X312598Y346457
Y349606
X537402Y348425
X537402Y353543
X557087Y348425
X572835Y320866
Y316929
Y312992
X600394Y340551
Y344488
Y348425
T02
X489764Y257087
X535433Y283465
X537008Y225590
X411024Y209842
Y241339
X379528
Y209842
X348031
Y241339
X316535
Y209842
X285039
Y241339
X267717Y283465
X223228Y304724
X242126Y330315
X206299Y351575
X222047Y414567
X253543Y384252
X285039Y383071
X300787
Y367323
X283465Y354331
Y407480
X338583Y425197
X363779Y414567
X379134Y396850
X351969Y355512
X316535Y367323
X332283Y320079
X393701Y314961
X395276Y335827
X426772
Y367323
X442520
Y414567
X458268Y398819
X440945Y314961
X472441Y330709
X545276Y339370
X611811Y443307
Y459055
X643307
X659055
Y443307
X643307
X627559
Y474803
Y490551
X643307
X659055
Y506299
X643307
X627559
Y522047
Y537795
X643307
X659055
Y522047
X643307
X659055Y474803
X611811
Y490551
Y506299
Y522047
Y537795
X596063Y522047
Y506299
X580315
Y522047
X564567
Y506299
X548819
Y522047
X533071
Y506299
X517323
Y522047
X501575
Y506299
X485827
Y522047
X470079
Y506299
X454331
Y522047
X438583
Y506299
X422835
Y522047
X407087
Y506299
X391339
Y522047
X375591
Y506299
X359842
Y522047
X344094
Y506299
X328346
Y522047
X312598
Y506299
X296850
Y522047
X281102
Y506299
X265354
Y522047
X249606
Y506299
X233858
Y522047
X218110
Y506299
X202362
Y522047
X186614
Y506299
T03
X550197Y218347
Y228346
Y238347
X207677Y401417
Y411417
Y421417
T04
X219409Y326457
X229410
Y336457
X219409
Y346457
X229410
Y356457
X219409
Y366457
X229410
T05
X460728Y448425
X475492
X476378Y420866
X491142
X555118
X574803
X559154Y448425
X539468
X629921Y432480
X639764
X649606
X659449
Y417717
X649606
X639764
X629921
Y404134
X639764
X649606
X659449
Y394291
Y384449
Y374606
Y364764
Y354921
Y345079
Y335236
Y325394
Y315551
X649606
Y325394
Y335236
Y345079
Y354921
Y364764
Y374606
Y384449
Y394291
X639764
Y384449
Y374606
Y364764
Y354921
Y345079
Y335236
Y325394
Y315551
X629921
Y325394
Y335236
Y345079
Y354921
Y364764
Y374606
Y384449
Y394291
T06
X500787Y217579
X514173
Y270610
X500787
X583858
X597244
Y217579
X583858
X585433Y481358
X572047
X555905Y481358
X542520
X526378Y481358
X512992
X496850
X483465
Y534390
X496850
X512992
X526378
X542520Y534390
X555905
X572047Y534390
X585433
X467323
X453937
X437795
X424409
X408268Y534390
X394882
X378740
X365354
X349213
X335827
X319685
Y481358
X335827
X349213
X365354
X378740
X394882
X408268
X424409Y481358
X437795
X453937
X467323
X306299Y481358
X290158
X276772
X260630
X247244
X231102
X217717
X201575
X188189
Y534390
X201575
X217717
X231102
X247244
X260630
X276772
X290158
X306299
T07
X625984Y290158
Y457874
T08
X642126Y275000
X641142Y474016
T09
X449587Y254685
X257500Y245315
M30
