G04*
G04 #@! TF.GenerationSoftware,Altium Limited,Altium Designer,21.9.2 (33)*
G04*
G04 Layer_Color=65535*
%FSLAX25Y25*%
%MOIN*%
G70*
G04*
G04 #@! TF.SameCoordinates,3EA75405-4CE9-4461-8B4E-421F381EEA3C*
G04*
G04*
G04 #@! TF.FilePolarity,Positive*
G04*
G01*
G75*
%ADD10C,0.00394*%
%ADD11C,0.00984*%
%ADD12C,0.01000*%
%ADD13C,0.00787*%
%ADD14C,0.00591*%
%ADD15C,0.00500*%
%ADD16C,0.00600*%
G36*
X577397Y425302D02*
X580873D01*
Y425144D01*
X583085D01*
Y424986D01*
X583717D01*
Y424828D01*
X584349D01*
Y424670D01*
X584981D01*
Y424512D01*
X585613D01*
Y424354D01*
X586245D01*
Y424196D01*
X586877D01*
Y424038D01*
X587509D01*
Y423880D01*
X588142D01*
Y423722D01*
X588774D01*
Y423564D01*
X588932D01*
Y423406D01*
X589406D01*
Y423248D01*
X589564D01*
Y423090D01*
X589722D01*
Y422932D01*
X590038D01*
Y422774D01*
X590354D01*
Y422616D01*
X590512D01*
Y422458D01*
X590670D01*
Y422300D01*
X590828D01*
Y422142D01*
X591144D01*
Y421826D01*
X591460D01*
Y421510D01*
X591618D01*
Y421352D01*
X591776D01*
Y421194D01*
X591934D01*
Y421036D01*
X592092D01*
Y420720D01*
X592250D01*
Y420404D01*
X592408D01*
Y420246D01*
X592566D01*
Y420088D01*
X592724D01*
Y419772D01*
X592882D01*
Y419614D01*
X593040D01*
Y419298D01*
X593198D01*
Y419140D01*
X593356D01*
Y418824D01*
X593514D01*
Y418666D01*
X593672D01*
Y418508D01*
X593830D01*
Y418192D01*
X593988D01*
Y417876D01*
X594146D01*
Y417560D01*
X594304D01*
Y417244D01*
X594462D01*
Y416928D01*
X594620D01*
Y416612D01*
X594778D01*
Y416296D01*
X594936D01*
Y416138D01*
X595094D01*
Y415980D01*
X595252D01*
Y415348D01*
X595410D01*
Y415032D01*
X595568D01*
Y414716D01*
X595726D01*
Y414400D01*
X595884D01*
Y414084D01*
X596042D01*
Y413768D01*
X596200D01*
Y413294D01*
X596358D01*
Y413136D01*
X596516D01*
Y412504D01*
X596674D01*
Y412188D01*
X596832D01*
Y411714D01*
X596990D01*
Y411556D01*
X597148D01*
Y411082D01*
X597306D01*
Y410923D01*
X597464D01*
Y410450D01*
X597622D01*
Y410291D01*
X597780D01*
Y409659D01*
X597938D01*
Y409027D01*
X598096D01*
Y408395D01*
X598254D01*
Y408079D01*
X598412D01*
Y407447D01*
X598570D01*
Y407131D01*
X598728D01*
Y406657D01*
X598886D01*
Y406499D01*
X599044D01*
Y405867D01*
X599202D01*
Y405235D01*
X599360D01*
Y404603D01*
X599518D01*
Y404287D01*
X599676D01*
Y403655D01*
X599834D01*
Y403339D01*
X599992D01*
Y402707D01*
X600150D01*
Y402075D01*
X600308D01*
Y401443D01*
X600466D01*
Y401127D01*
X600624D01*
Y400495D01*
X600782D01*
Y399863D01*
X600940D01*
Y399547D01*
X601098D01*
Y399231D01*
X601256D01*
Y398915D01*
X601414D01*
Y398283D01*
X601572D01*
Y397651D01*
X601730D01*
Y396387D01*
X601888D01*
Y395755D01*
X602046D01*
Y395123D01*
X602204D01*
Y394491D01*
X602362D01*
Y393701D01*
X602520D01*
Y393227D01*
X602678D01*
Y392753D01*
X602836D01*
Y392121D01*
X602994D01*
Y391647D01*
X603152D01*
Y391331D01*
X603310D01*
Y388645D01*
X603468D01*
Y368578D01*
X603310D01*
Y367630D01*
X603152D01*
Y366998D01*
X602994D01*
Y365102D01*
X602836D01*
Y364470D01*
X602678D01*
Y363522D01*
X602520D01*
Y362889D01*
X602362D01*
Y361309D01*
X602204D01*
Y360677D01*
X602046D01*
Y359097D01*
X601888D01*
Y358465D01*
X601730D01*
Y357833D01*
X601572D01*
Y357201D01*
X601414D01*
Y356569D01*
X601256D01*
Y355937D01*
X601098D01*
Y354989D01*
X600940D01*
Y354357D01*
X600782D01*
Y354041D01*
X600624D01*
Y353409D01*
X600466D01*
Y352777D01*
X600308D01*
Y352145D01*
X600150D01*
Y351513D01*
X599992D01*
Y350881D01*
X599834D01*
Y350249D01*
X599676D01*
Y349933D01*
X599518D01*
Y349617D01*
X599360D01*
Y349301D01*
X599202D01*
Y348985D01*
X599044D01*
Y348353D01*
X598886D01*
Y348037D01*
X598728D01*
Y347405D01*
X598570D01*
Y347247D01*
X598412D01*
Y346773D01*
X598254D01*
Y346457D01*
X598096D01*
Y346141D01*
X597938D01*
Y345825D01*
X597780D01*
Y345509D01*
X597622D01*
Y345193D01*
X597464D01*
Y344561D01*
X597306D01*
Y344403D01*
X597148D01*
Y343929D01*
X596990D01*
Y343771D01*
X596832D01*
Y343613D01*
X596674D01*
Y343455D01*
X596516D01*
Y343139D01*
X596358D01*
Y342981D01*
X596200D01*
Y342665D01*
X596042D01*
Y342507D01*
X595884D01*
Y342033D01*
X595726D01*
Y341875D01*
X595568D01*
Y341717D01*
X595410D01*
Y341401D01*
X595252D01*
Y341085D01*
X595094D01*
Y340927D01*
X594936D01*
Y340768D01*
X594778D01*
Y340610D01*
X594620D01*
Y340294D01*
X594462D01*
Y340136D01*
X594304D01*
Y339820D01*
X594146D01*
Y339662D01*
X593988D01*
Y339504D01*
X593830D01*
Y339346D01*
X593672D01*
Y339030D01*
X593356D01*
Y338714D01*
X593040D01*
Y338556D01*
X592882D01*
Y338398D01*
X592724D01*
Y338240D01*
X592566D01*
Y338082D01*
X592250D01*
Y337924D01*
X592092D01*
Y337766D01*
X591776D01*
Y337608D01*
X591618D01*
Y337450D01*
X591460D01*
Y337292D01*
X591302D01*
Y337134D01*
X590828D01*
Y336976D01*
X590670D01*
Y336818D01*
X590196D01*
Y336660D01*
X590038D01*
Y336502D01*
X589564D01*
Y336344D01*
X589406D01*
Y336186D01*
X588774D01*
Y336028D01*
X588458D01*
Y335870D01*
X588142D01*
Y335712D01*
X587826D01*
Y335554D01*
X587509D01*
Y335396D01*
X587193D01*
Y335238D01*
X586561D01*
Y335080D01*
X586245D01*
Y334922D01*
X585613D01*
Y334764D01*
X585297D01*
Y334606D01*
X584981D01*
Y334448D01*
X584507D01*
Y334290D01*
X584191D01*
Y334132D01*
X583401D01*
Y333974D01*
X582453D01*
Y333816D01*
X581189D01*
Y333658D01*
X581031D01*
Y333816D01*
X580241D01*
Y333658D01*
X575343D01*
Y333816D01*
X573131D01*
Y333974D01*
X571077D01*
Y334132D01*
X569655D01*
Y334290D01*
X568707D01*
Y334448D01*
X567285D01*
Y334606D01*
X566653D01*
Y334764D01*
X566179D01*
Y334922D01*
X565547D01*
Y335080D01*
X564915D01*
Y335238D01*
X564440D01*
Y335396D01*
X563808D01*
Y335554D01*
X563176D01*
Y335712D01*
X562544D01*
Y335870D01*
X562070D01*
Y336028D01*
X561280D01*
Y336186D01*
X560648D01*
Y336344D01*
X559858D01*
Y336502D01*
X559226D01*
Y336660D01*
X558752D01*
Y336818D01*
X558436D01*
Y336976D01*
X557962D01*
Y337134D01*
X557646D01*
Y337292D01*
X557330D01*
Y337450D01*
X556698D01*
Y337608D01*
X556382D01*
Y337766D01*
X556224D01*
Y337924D01*
X555750D01*
Y338082D01*
X555276D01*
Y338240D01*
X554960D01*
Y338398D01*
X554486D01*
Y338556D01*
X554170D01*
Y338714D01*
X553854D01*
Y338872D01*
X553380D01*
Y339030D01*
X553064D01*
Y339188D01*
X552590D01*
Y339346D01*
X551958D01*
Y339504D01*
X551326D01*
Y339662D01*
X550852D01*
Y339820D01*
X550378D01*
Y339978D01*
X549904D01*
Y340136D01*
X549272D01*
Y340294D01*
X548956D01*
Y340452D01*
X548482D01*
Y340610D01*
X548008D01*
Y340768D01*
X547534D01*
Y340927D01*
X547218D01*
Y341085D01*
X547060D01*
Y340927D01*
X546744D01*
Y341085D01*
X546270D01*
Y341243D01*
X545796D01*
Y341401D01*
X545480D01*
Y341559D01*
X545164D01*
Y341717D01*
X544690D01*
Y341875D01*
X544374D01*
Y342033D01*
X544058D01*
Y342191D01*
X543742D01*
Y342349D01*
X543584D01*
Y342507D01*
X542952D01*
Y342665D01*
X542319D01*
Y342823D01*
X542003D01*
Y342981D01*
X541687D01*
Y343139D01*
X541371D01*
Y343297D01*
X541055D01*
Y343455D01*
X540423D01*
Y343613D01*
X540107D01*
Y343771D01*
X539633D01*
Y343929D01*
X539159D01*
Y344087D01*
X538843D01*
Y344245D01*
X538527D01*
Y344403D01*
X538053D01*
Y344561D01*
X537579D01*
Y344719D01*
X537105D01*
Y344877D01*
X536631D01*
Y345035D01*
X536315D01*
Y345193D01*
X535999D01*
Y345351D01*
X535683D01*
Y345509D01*
X535525D01*
Y345667D01*
X535051D01*
Y345825D01*
X534419D01*
Y345983D01*
X534103D01*
Y346141D01*
X533787D01*
Y346299D01*
X533471D01*
Y346457D01*
X533313D01*
Y346615D01*
X532839D01*
Y346773D01*
X532681D01*
Y346931D01*
X532207D01*
Y347089D01*
X531891D01*
Y347247D01*
X531575D01*
Y347405D01*
X531259D01*
Y347563D01*
X530943D01*
Y347721D01*
X530627D01*
Y347879D01*
X529995D01*
Y348037D01*
X529837D01*
Y348195D01*
X529363D01*
Y348353D01*
X529205D01*
Y348511D01*
X528731D01*
Y348669D01*
X528573D01*
Y348827D01*
X528415D01*
Y348985D01*
X528099D01*
Y349143D01*
X527783D01*
Y349301D01*
X527625D01*
Y349459D01*
X527151D01*
Y349617D01*
X526835D01*
Y349775D01*
X526203D01*
Y349933D01*
X525887D01*
Y350091D01*
X525571D01*
Y350249D01*
X525255D01*
Y350407D01*
X524939D01*
Y350565D01*
X524781D01*
Y350723D01*
X524623D01*
Y350881D01*
X524307D01*
Y351039D01*
X523991D01*
Y351197D01*
X523833D01*
Y351355D01*
X523359D01*
Y351513D01*
X523043D01*
Y351671D01*
X522727D01*
Y351829D01*
X522411D01*
Y351987D01*
X522095D01*
Y352145D01*
X521937D01*
Y352303D01*
X521463D01*
Y352461D01*
X521305D01*
Y352619D01*
X520831D01*
Y352777D01*
X520515D01*
Y352935D01*
X520199D01*
Y353093D01*
X519882D01*
Y353251D01*
X519566D01*
Y353409D01*
X519409D01*
Y353567D01*
X519250D01*
Y353725D01*
X518934D01*
Y353883D01*
X518618D01*
Y354041D01*
X518461D01*
Y354199D01*
X517986D01*
Y354357D01*
X517828D01*
Y354515D01*
X517354D01*
Y354673D01*
X517196D01*
Y354831D01*
X516722D01*
Y354989D01*
X516406D01*
Y355147D01*
X516090D01*
Y355305D01*
X515774D01*
Y355463D01*
X515458D01*
Y355621D01*
X515300D01*
Y355779D01*
X514826D01*
Y355937D01*
X514668D01*
Y356095D01*
X514510D01*
Y356253D01*
X514194D01*
Y356411D01*
X513878D01*
Y356569D01*
X513720D01*
Y356727D01*
X513246D01*
Y356885D01*
X513088D01*
Y357043D01*
X512930D01*
Y357201D01*
X512614D01*
Y357359D01*
X512298D01*
Y357517D01*
X511982D01*
Y357675D01*
X511666D01*
Y357833D01*
X511350D01*
Y357991D01*
X511034D01*
Y358149D01*
X510876D01*
Y358307D01*
X510402D01*
Y358465D01*
X510244D01*
Y358623D01*
X509770D01*
Y358781D01*
X509612D01*
Y358939D01*
X509138D01*
Y359097D01*
X508980D01*
Y359255D01*
X508822D01*
Y359413D01*
X508506D01*
Y359571D01*
X508190D01*
Y359729D01*
X508032D01*
Y359887D01*
X507874D01*
Y360045D01*
X507558D01*
Y360203D01*
X507242D01*
Y360361D01*
X507084D01*
Y360519D01*
X506610D01*
Y360677D01*
X506452D01*
Y360835D01*
X506294D01*
Y360993D01*
X505978D01*
Y361151D01*
X505662D01*
Y361309D01*
X505504D01*
Y361467D01*
X505346D01*
Y361625D01*
X505030D01*
Y361783D01*
X504714D01*
Y361941D01*
X504556D01*
Y362099D01*
X504082D01*
Y362257D01*
X503924D01*
Y362415D01*
X503766D01*
Y362573D01*
X503450D01*
Y362731D01*
X503134D01*
Y362889D01*
X502976D01*
Y363047D01*
X502502D01*
Y363205D01*
X502186D01*
Y363363D01*
X502028D01*
Y363522D01*
X501712D01*
Y363680D01*
X501554D01*
Y363838D01*
X501396D01*
Y363996D01*
X501080D01*
Y364154D01*
X500922D01*
Y364312D01*
X500606D01*
Y364470D01*
X500448D01*
Y364628D01*
X500290D01*
Y364786D01*
X499974D01*
Y364944D01*
X499658D01*
Y365102D01*
X499500D01*
Y365260D01*
X499342D01*
Y365418D01*
X499026D01*
Y365576D01*
X498710D01*
Y365734D01*
X498552D01*
Y365892D01*
X498394D01*
Y366050D01*
X498078D01*
Y366208D01*
X497920D01*
Y366366D01*
X497762D01*
Y366524D01*
X497446D01*
Y373950D01*
X499342D01*
Y374108D01*
X499974D01*
Y374266D01*
X501554D01*
Y374424D01*
X502186D01*
Y374582D01*
X503450D01*
Y374740D01*
X504082D01*
Y374898D01*
X505662D01*
Y375056D01*
X506294D01*
Y375214D01*
X508190D01*
Y375372D01*
X508822D01*
Y375530D01*
X510718D01*
Y375688D01*
X511350D01*
Y375846D01*
X513878D01*
Y376004D01*
X514510D01*
Y376162D01*
X515774D01*
Y376320D01*
X516406D01*
Y376478D01*
X518934D01*
Y376636D01*
X519566D01*
Y376794D01*
X520357D01*
Y377426D01*
X520199D01*
Y378058D01*
X520041D01*
Y381060D01*
X520199D01*
Y381692D01*
X520357D01*
Y381850D01*
X518618D01*
Y382008D01*
X517986D01*
Y382166D01*
X514826D01*
Y382324D01*
X514194D01*
Y382482D01*
X511350D01*
Y382640D01*
X510718D01*
Y382798D01*
X508822D01*
Y382956D01*
X508190D01*
Y383114D01*
X506926D01*
Y383272D01*
X506294D01*
Y383430D01*
X504714D01*
Y383588D01*
X504082D01*
Y383746D01*
X502818D01*
Y383904D01*
X502186D01*
Y384062D01*
X500290D01*
Y384220D01*
X499658D01*
Y384378D01*
X498078D01*
Y384220D01*
X497762D01*
Y384536D01*
X497446D01*
Y391489D01*
X497604D01*
Y391647D01*
X497762D01*
Y391805D01*
X497920D01*
Y391963D01*
X498078D01*
Y392121D01*
X498236D01*
Y392279D01*
X498394D01*
Y392437D01*
X498710D01*
Y392595D01*
X499026D01*
Y392753D01*
X499184D01*
Y392911D01*
X499342D01*
Y393069D01*
X499658D01*
Y393227D01*
X499974D01*
Y393385D01*
X500132D01*
Y393543D01*
X500290D01*
Y393701D01*
X500606D01*
Y393859D01*
X500764D01*
Y394017D01*
X501080D01*
Y394333D01*
X501396D01*
Y394491D01*
X501554D01*
Y394649D01*
X501870D01*
Y394807D01*
X502186D01*
Y394965D01*
X502660D01*
Y395123D01*
X502818D01*
Y395281D01*
X503292D01*
Y395439D01*
X503450D01*
Y395597D01*
X503766D01*
Y395755D01*
X503924D01*
Y395913D01*
X504240D01*
Y396071D01*
X504398D01*
Y396229D01*
X504556D01*
Y396387D01*
X504714D01*
Y396545D01*
X505030D01*
Y396703D01*
X505346D01*
Y396861D01*
X505504D01*
Y397019D01*
X505662D01*
Y397177D01*
X505978D01*
Y397335D01*
X506294D01*
Y397493D01*
X506610D01*
Y397651D01*
X506926D01*
Y397809D01*
X507242D01*
Y397967D01*
X507558D01*
Y398125D01*
X507716D01*
Y398283D01*
X507874D01*
Y398441D01*
X508348D01*
Y398599D01*
X508506D01*
Y398757D01*
X508822D01*
Y398915D01*
X509138D01*
Y399073D01*
X509296D01*
Y399231D01*
X509454D01*
Y399389D01*
X509770D01*
Y399547D01*
X510086D01*
Y399705D01*
X510402D01*
Y399863D01*
X510718D01*
Y400021D01*
X511034D01*
Y400179D01*
X511192D01*
Y400337D01*
X511508D01*
Y400495D01*
X511666D01*
Y400653D01*
X511982D01*
Y400811D01*
X512298D01*
Y400969D01*
X512614D01*
Y401127D01*
X512772D01*
Y401285D01*
X513088D01*
Y401443D01*
X513246D01*
Y401601D01*
X513562D01*
Y401759D01*
X513878D01*
Y401917D01*
X514194D01*
Y402075D01*
X514510D01*
Y402233D01*
X514668D01*
Y402391D01*
X514826D01*
Y402549D01*
X515300D01*
Y402707D01*
X515458D01*
Y402865D01*
X515932D01*
Y403023D01*
X516090D01*
Y403181D01*
X516564D01*
Y403339D01*
X516722D01*
Y403497D01*
X517038D01*
Y403655D01*
X517354D01*
Y403813D01*
X517512D01*
Y403971D01*
X517670D01*
Y404129D01*
X518302D01*
Y404287D01*
X518618D01*
Y404445D01*
X518934D01*
Y404603D01*
X519250D01*
Y404761D01*
X519409D01*
Y404919D01*
X519566D01*
Y405077D01*
X519882D01*
Y405235D01*
X520199D01*
Y405393D01*
X520357D01*
Y405551D01*
X520515D01*
Y405709D01*
X520831D01*
Y405867D01*
X521147D01*
Y406025D01*
X521463D01*
Y406183D01*
X521779D01*
Y406341D01*
X522095D01*
Y406499D01*
X522253D01*
Y406657D01*
X522569D01*
Y406815D01*
X522727D01*
Y406973D01*
X523043D01*
Y407131D01*
X523675D01*
Y407289D01*
X523991D01*
Y407447D01*
X524307D01*
Y407605D01*
X524623D01*
Y407763D01*
X524939D01*
Y407921D01*
X525255D01*
Y408079D01*
X525571D01*
Y408237D01*
X525729D01*
Y408395D01*
X525887D01*
Y408554D01*
X526203D01*
Y408711D01*
X526519D01*
Y408870D01*
X526835D01*
Y409027D01*
X527467D01*
Y409186D01*
X527783D01*
Y409343D01*
X528099D01*
Y409502D01*
X528257D01*
Y409659D01*
X528415D01*
Y409818D01*
X528889D01*
Y409975D01*
X529047D01*
Y410134D01*
X529679D01*
Y410291D01*
X529995D01*
Y410450D01*
X530311D01*
Y410607D01*
X530627D01*
Y410766D01*
X530785D01*
Y410923D01*
X530943D01*
Y411082D01*
X531259D01*
Y411240D01*
X531575D01*
Y411398D01*
X531891D01*
Y411556D01*
X532523D01*
Y411714D01*
X532997D01*
Y411872D01*
X533155D01*
Y412030D01*
X533471D01*
Y412188D01*
X533787D01*
Y412346D01*
X534103D01*
Y412504D01*
X534735D01*
Y412662D01*
X535051D01*
Y412820D01*
X535367D01*
Y412978D01*
X535683D01*
Y413136D01*
X535999D01*
Y413294D01*
X536473D01*
Y413452D01*
X536631D01*
Y413610D01*
X537105D01*
Y413768D01*
X537263D01*
Y413926D01*
X537895D01*
Y414084D01*
X538211D01*
Y414242D01*
X538685D01*
Y414400D01*
X538843D01*
Y414558D01*
X539317D01*
Y414716D01*
X539633D01*
Y414874D01*
X540107D01*
Y415032D01*
X540265D01*
Y415190D01*
X540582D01*
Y415348D01*
X540898D01*
Y415506D01*
X541371D01*
Y415664D01*
X541530D01*
Y415822D01*
X541846D01*
Y415980D01*
X542478D01*
Y416138D01*
X542952D01*
Y416296D01*
X543426D01*
Y416454D01*
X543900D01*
Y416612D01*
X544216D01*
Y416770D01*
X544690D01*
Y416928D01*
X545164D01*
Y417086D01*
X545638D01*
Y417244D01*
X546112D01*
Y417402D01*
X546586D01*
Y417560D01*
X547060D01*
Y417718D01*
X547534D01*
Y417876D01*
X547850D01*
Y418034D01*
X548324D01*
Y418192D01*
X548798D01*
Y418350D01*
X549114D01*
Y418508D01*
X549430D01*
Y418666D01*
X549746D01*
Y418824D01*
X550220D01*
Y418982D01*
X550536D01*
Y419140D01*
X551010D01*
Y419298D01*
X551326D01*
Y419456D01*
X551642D01*
Y419614D01*
X552116D01*
Y419772D01*
X552432D01*
Y419930D01*
X552906D01*
Y420088D01*
X553380D01*
Y420246D01*
X553696D01*
Y420404D01*
X554012D01*
Y420562D01*
X554328D01*
Y420720D01*
X554644D01*
Y420878D01*
X554960D01*
Y421036D01*
X555434D01*
Y421194D01*
X555750D01*
Y421352D01*
X556224D01*
Y421510D01*
X556856D01*
Y421668D01*
X557330D01*
Y421826D01*
X557804D01*
Y421984D01*
X558278D01*
Y422142D01*
X558752D01*
Y422300D01*
X559226D01*
Y422458D01*
X559700D01*
Y422616D01*
X560332D01*
Y422774D01*
X560806D01*
Y422932D01*
X561438D01*
Y423090D01*
X562070D01*
Y423248D01*
X562702D01*
Y423406D01*
X563335D01*
Y423564D01*
X563967D01*
Y423722D01*
X564756D01*
Y423880D01*
X565547D01*
Y424038D01*
X566179D01*
Y424196D01*
X566969D01*
Y424354D01*
X567601D01*
Y424512D01*
X568549D01*
Y424670D01*
X569497D01*
Y424828D01*
X570445D01*
Y424986D01*
X571393D01*
Y425144D01*
X573131D01*
Y425302D01*
X574395D01*
Y425460D01*
X577397D01*
Y425302D01*
D02*
G37*
%LPC*%
G36*
X562544Y422458D02*
X561912D01*
Y422300D01*
X561438D01*
Y422142D01*
X560806D01*
Y421984D01*
X560332D01*
Y421826D01*
X559700D01*
Y421668D01*
X559226D01*
Y421510D01*
X558752D01*
Y421352D01*
X558278D01*
Y421194D01*
X557804D01*
Y421036D01*
X557330D01*
Y420878D01*
X557172D01*
Y420720D01*
X556856D01*
Y420562D01*
X556224D01*
Y420404D01*
X555908D01*
Y420246D01*
X555750D01*
Y420088D01*
X555434D01*
Y419930D01*
X555276D01*
Y419772D01*
X554960D01*
Y419456D01*
X554644D01*
Y419298D01*
X554486D01*
Y419140D01*
X554328D01*
Y418824D01*
X555908D01*
Y418982D01*
X558752D01*
Y419140D01*
X558910D01*
Y419298D01*
X559068D01*
Y419456D01*
X559226D01*
Y419614D01*
X559384D01*
Y419772D01*
X559542D01*
Y420088D01*
X559700D01*
Y420246D01*
X559858D01*
Y420404D01*
X560016D01*
Y420562D01*
X560174D01*
Y420720D01*
X560332D01*
Y420878D01*
X560490D01*
Y421036D01*
X560648D01*
Y421194D01*
X560806D01*
Y421352D01*
X560964D01*
Y421510D01*
X561280D01*
Y421668D01*
X561438D01*
Y421826D01*
X561754D01*
Y421984D01*
X561912D01*
Y422142D01*
X562070D01*
Y422300D01*
X562544D01*
Y422458D01*
D02*
G37*
G36*
X577081Y424670D02*
X574079D01*
Y424512D01*
X572815D01*
Y424354D01*
X571235D01*
Y424196D01*
X570287D01*
Y424038D01*
X569339D01*
Y423880D01*
X568391D01*
Y423722D01*
X567601D01*
Y423564D01*
X567285D01*
Y423406D01*
X566969D01*
Y423248D01*
X566811D01*
Y423090D01*
X566495D01*
Y422932D01*
X566337D01*
Y422774D01*
X566021D01*
Y422616D01*
X565863D01*
Y422458D01*
X565705D01*
Y422300D01*
X565389D01*
Y422142D01*
X565231D01*
Y421984D01*
X564915D01*
Y421826D01*
X564756D01*
Y421668D01*
X564599D01*
Y421510D01*
X564440D01*
Y421352D01*
X564124D01*
Y421194D01*
X563967D01*
Y421036D01*
X563808D01*
Y420878D01*
X563651D01*
Y420720D01*
X563492D01*
Y420562D01*
X563335D01*
Y420404D01*
X563019D01*
Y420088D01*
X562860D01*
Y419930D01*
X562544D01*
Y419772D01*
X562386D01*
Y419614D01*
X562228D01*
Y419456D01*
X562070D01*
Y419298D01*
X561912D01*
Y418824D01*
X564124D01*
Y418666D01*
X564756D01*
Y418508D01*
X565547D01*
Y418350D01*
X565863D01*
Y418192D01*
X566653D01*
Y418034D01*
X566969D01*
Y417876D01*
X567601D01*
Y418034D01*
X567759D01*
Y418350D01*
X567917D01*
Y418508D01*
X568075D01*
Y418666D01*
X568391D01*
Y418824D01*
X568549D01*
Y418982D01*
X568707D01*
Y419140D01*
X568865D01*
Y419298D01*
X569023D01*
Y419456D01*
X569181D01*
Y419614D01*
X569339D01*
Y419772D01*
X569497D01*
Y419930D01*
X569655D01*
Y420088D01*
X569813D01*
Y420246D01*
X570129D01*
Y420404D01*
X570287D01*
Y420562D01*
X570445D01*
Y420720D01*
X570603D01*
Y420878D01*
X570761D01*
Y421036D01*
X571077D01*
Y421352D01*
X571551D01*
Y421510D01*
X571709D01*
Y421668D01*
X572025D01*
Y421826D01*
X572183D01*
Y421984D01*
X572341D01*
Y422142D01*
X572499D01*
Y422300D01*
X572815D01*
Y422458D01*
X572973D01*
Y422616D01*
X573289D01*
Y422774D01*
X573447D01*
Y422932D01*
X573763D01*
Y423090D01*
X573921D01*
Y423248D01*
X574395D01*
Y423406D01*
X574553D01*
Y423564D01*
X574869D01*
Y423722D01*
X575185D01*
Y423880D01*
X575659D01*
Y424038D01*
X575817D01*
Y424196D01*
X576133D01*
Y424354D01*
X576765D01*
Y424512D01*
X577081D01*
Y424670D01*
D02*
G37*
G36*
X576607Y416612D02*
X576133D01*
Y416454D01*
X575975D01*
Y416296D01*
X575817D01*
Y416138D01*
X575501D01*
Y415980D01*
X575343D01*
Y415822D01*
X575185D01*
Y415664D01*
X575027D01*
Y415506D01*
X574869D01*
Y415348D01*
X574711D01*
Y415190D01*
X574553D01*
Y415032D01*
X574395D01*
Y414874D01*
X574237D01*
Y414716D01*
X574079D01*
Y414558D01*
X573921D01*
Y414400D01*
X573605D01*
Y414084D01*
X573447D01*
Y413926D01*
X573289D01*
Y413768D01*
X573131D01*
Y413610D01*
X572973D01*
Y413452D01*
X572815D01*
Y413294D01*
X572657D01*
Y413136D01*
X572499D01*
Y412978D01*
X572341D01*
Y412820D01*
X572183D01*
Y412662D01*
X572025D01*
Y412346D01*
X571867D01*
Y412188D01*
X571709D01*
Y412030D01*
X571551D01*
Y411714D01*
X571393D01*
Y411556D01*
X571235D01*
Y411398D01*
X571077D01*
Y411240D01*
X570919D01*
Y410923D01*
X570761D01*
Y410766D01*
X570603D01*
Y410450D01*
X570445D01*
Y410291D01*
X570287D01*
Y409975D01*
X570129D01*
Y409818D01*
X569971D01*
Y409502D01*
X569813D01*
Y409186D01*
X569655D01*
Y408870D01*
X569497D01*
Y408711D01*
X569339D01*
Y408395D01*
X569181D01*
Y408237D01*
X569023D01*
Y408395D01*
X568865D01*
Y408870D01*
X568707D01*
Y409186D01*
X568549D01*
Y409502D01*
X568391D01*
Y409818D01*
X568233D01*
Y410134D01*
X568075D01*
Y410450D01*
X567917D01*
Y410766D01*
X567759D01*
Y410923D01*
X567601D01*
Y411240D01*
X567443D01*
Y411398D01*
X567285D01*
Y411556D01*
X567127D01*
Y411872D01*
X566969D01*
Y412030D01*
X566811D01*
Y412188D01*
X566653D01*
Y412346D01*
X566495D01*
Y412504D01*
X566337D01*
Y412662D01*
X566179D01*
Y412820D01*
X566021D01*
Y412978D01*
X565863D01*
Y413136D01*
X565705D01*
Y413294D01*
X565547D01*
Y413452D01*
X565389D01*
Y413610D01*
X565072D01*
Y413768D01*
X564915D01*
Y413926D01*
X564756D01*
Y414084D01*
X564440D01*
Y414242D01*
X564124D01*
Y414400D01*
X563808D01*
Y414558D01*
X563492D01*
Y414716D01*
X563335D01*
Y414874D01*
X562860D01*
Y415032D01*
X562386D01*
Y415190D01*
X561912D01*
Y415348D01*
X561122D01*
Y415506D01*
X560016D01*
Y415664D01*
X554802D01*
Y415506D01*
X553064D01*
Y415348D01*
X551800D01*
Y415190D01*
X551010D01*
Y415032D01*
X550220D01*
Y414874D01*
X549588D01*
Y414716D01*
X548956D01*
Y414558D01*
X548482D01*
Y414400D01*
X548008D01*
Y414242D01*
X547534D01*
Y414084D01*
X547218D01*
Y413926D01*
X546744D01*
Y413768D01*
X546428D01*
Y413610D01*
X546112D01*
Y413452D01*
X545796D01*
Y413294D01*
X545322D01*
Y413136D01*
X545006D01*
Y412978D01*
X544690D01*
Y412820D01*
X544374D01*
Y412662D01*
X544058D01*
Y412504D01*
X543742D01*
Y412346D01*
X543584D01*
Y412188D01*
X543268D01*
Y412030D01*
X542952D01*
Y411872D01*
X542635D01*
Y411714D01*
X542319D01*
Y411556D01*
X542162D01*
Y411398D01*
X541846D01*
Y411240D01*
X541530D01*
Y411082D01*
X541214D01*
Y410923D01*
X541055D01*
Y410766D01*
X540739D01*
Y410607D01*
X540582D01*
Y410450D01*
X540423D01*
Y410134D01*
X540265D01*
Y409818D01*
X540107D01*
Y409343D01*
X539949D01*
Y409027D01*
X539791D01*
Y408711D01*
X539633D01*
Y408395D01*
X539475D01*
Y407921D01*
X539317D01*
Y407605D01*
X539159D01*
Y407289D01*
X539001D01*
Y406815D01*
X538843D01*
Y406499D01*
X538685D01*
Y406025D01*
X538527D01*
Y405709D01*
X538369D01*
Y405235D01*
X538211D01*
Y404919D01*
X538053D01*
Y404445D01*
X537895D01*
Y403971D01*
X537737D01*
Y403497D01*
X537579D01*
Y403023D01*
X537421D01*
Y402707D01*
X537263D01*
Y402233D01*
X537105D01*
Y401917D01*
X536947D01*
Y401443D01*
X536789D01*
Y400969D01*
X536631D01*
Y400337D01*
X536473D01*
Y400021D01*
X536315D01*
Y399389D01*
X536157D01*
Y399073D01*
X535999D01*
Y398757D01*
X535841D01*
Y398599D01*
X535683D01*
Y398441D01*
X535367D01*
Y398125D01*
X535209D01*
Y397967D01*
X535051D01*
Y397809D01*
X534893D01*
Y397651D01*
X534735D01*
Y397493D01*
X534577D01*
Y397335D01*
X534419D01*
Y397177D01*
X534261D01*
Y397019D01*
X534103D01*
Y396861D01*
X533945D01*
Y396703D01*
X533787D01*
Y396545D01*
X533629D01*
Y396229D01*
X533471D01*
Y396071D01*
X533313D01*
Y395913D01*
X533155D01*
Y395597D01*
X532997D01*
Y395439D01*
X532839D01*
Y395123D01*
X532681D01*
Y394965D01*
X532523D01*
Y394807D01*
X532365D01*
Y394649D01*
X532207D01*
Y394333D01*
X532049D01*
Y394175D01*
X531891D01*
Y393859D01*
X531733D01*
Y393543D01*
X531575D01*
Y393227D01*
X532049D01*
Y393385D01*
X532207D01*
Y393543D01*
X532523D01*
Y393701D01*
X532681D01*
Y393859D01*
X532997D01*
Y394017D01*
X533471D01*
Y394175D01*
X533787D01*
Y394333D01*
X533945D01*
Y394491D01*
X534419D01*
Y394649D01*
X535051D01*
Y394175D01*
X534893D01*
Y393385D01*
X534735D01*
Y392437D01*
X534577D01*
Y391805D01*
X534419D01*
Y390857D01*
X534261D01*
Y389751D01*
X534103D01*
Y388329D01*
X533945D01*
Y386907D01*
X533787D01*
Y384220D01*
X533629D01*
Y382008D01*
X533471D01*
Y381850D01*
X533313D01*
Y382166D01*
X533155D01*
Y382482D01*
X532997D01*
Y382798D01*
X532839D01*
Y383114D01*
X532681D01*
Y383430D01*
X532523D01*
Y383746D01*
X532365D01*
Y383904D01*
X532207D01*
Y384220D01*
X532049D01*
Y384378D01*
X531891D01*
Y384694D01*
X531733D01*
Y384852D01*
X531575D01*
Y385168D01*
X531417D01*
Y385326D01*
X531259D01*
Y385484D01*
X530943D01*
Y383272D01*
X531101D01*
Y382956D01*
X531259D01*
Y382482D01*
X531417D01*
Y382166D01*
X531575D01*
Y381692D01*
X531259D01*
Y381850D01*
X530785D01*
Y382008D01*
X530469D01*
Y382166D01*
X529995D01*
Y382324D01*
X529521D01*
Y382482D01*
X529205D01*
Y382640D01*
X528889D01*
Y382956D01*
X528731D01*
Y383272D01*
X528573D01*
Y383588D01*
X528415D01*
Y384062D01*
X528257D01*
Y384536D01*
X528099D01*
Y385010D01*
X527941D01*
Y385642D01*
X527783D01*
Y387855D01*
X527941D01*
Y388487D01*
X527783D01*
Y388645D01*
X526993D01*
Y388487D01*
X526677D01*
Y388329D01*
X526519D01*
Y388171D01*
X526361D01*
Y387855D01*
X526203D01*
Y387697D01*
X526045D01*
Y387539D01*
X525887D01*
Y387381D01*
X525729D01*
Y387223D01*
X525571D01*
Y386433D01*
X525729D01*
Y385958D01*
X525887D01*
Y385326D01*
X526045D01*
Y385168D01*
X526203D01*
Y384694D01*
X526361D01*
Y384378D01*
X526519D01*
Y384220D01*
X526677D01*
Y384062D01*
X526835D01*
Y383746D01*
X526993D01*
Y383588D01*
X527151D01*
Y383272D01*
X527309D01*
Y383114D01*
X525887D01*
Y383272D01*
X525097D01*
Y383430D01*
X524939D01*
Y383588D01*
X524623D01*
Y383746D01*
X523833D01*
Y383904D01*
X523359D01*
Y384062D01*
X523201D01*
Y384536D01*
X523043D01*
Y385168D01*
X522885D01*
Y385326D01*
X522727D01*
Y385010D01*
X522569D01*
Y384694D01*
X522411D01*
Y384378D01*
X522253D01*
Y383904D01*
X522095D01*
Y383272D01*
X521937D01*
Y382956D01*
X521779D01*
Y382798D01*
X521621D01*
Y382640D01*
X521463D01*
Y382324D01*
X521305D01*
Y382166D01*
X521147D01*
Y381850D01*
X520989D01*
Y381692D01*
X520831D01*
Y381218D01*
X520673D01*
Y380744D01*
X520515D01*
Y378216D01*
X520673D01*
Y377742D01*
X520831D01*
Y377584D01*
X520989D01*
Y377268D01*
X521147D01*
Y376952D01*
X521305D01*
Y376794D01*
X521463D01*
Y376478D01*
X521621D01*
Y376320D01*
X521779D01*
Y376162D01*
X521937D01*
Y375846D01*
X522095D01*
Y375688D01*
X522253D01*
Y375530D01*
X522095D01*
Y375372D01*
X522253D01*
Y374898D01*
X522411D01*
Y374266D01*
X522569D01*
Y373950D01*
X522727D01*
Y373476D01*
X523043D01*
Y373318D01*
X523201D01*
Y374266D01*
X523359D01*
Y374898D01*
X523517D01*
Y375056D01*
X524465D01*
Y375214D01*
X524939D01*
Y375372D01*
X525255D01*
Y375530D01*
X526677D01*
Y375372D01*
X526835D01*
Y375214D01*
X526677D01*
Y374740D01*
X526519D01*
Y374424D01*
X526361D01*
Y374108D01*
X526203D01*
Y373476D01*
X526045D01*
Y372844D01*
X525887D01*
Y370948D01*
X526045D01*
Y370632D01*
X526203D01*
Y370474D01*
X526361D01*
Y370316D01*
X526677D01*
Y370158D01*
X527941D01*
Y370316D01*
X528099D01*
Y370474D01*
X528257D01*
Y370948D01*
X528099D01*
Y373950D01*
X528257D01*
Y374266D01*
X528415D01*
Y375372D01*
X528573D01*
Y375688D01*
X528731D01*
Y375846D01*
X528889D01*
Y376004D01*
X529521D01*
Y376162D01*
X529995D01*
Y376320D01*
X530311D01*
Y376478D01*
X530785D01*
Y376636D01*
X531259D01*
Y376794D01*
X531575D01*
Y376320D01*
X531417D01*
Y375846D01*
X531259D01*
Y375214D01*
X531101D01*
Y373634D01*
X531259D01*
Y373476D01*
X531575D01*
Y373634D01*
X531733D01*
Y373950D01*
X531891D01*
Y374108D01*
X532049D01*
Y374424D01*
X532207D01*
Y374740D01*
X532365D01*
Y374898D01*
X532523D01*
Y375214D01*
X532681D01*
Y375372D01*
X532839D01*
Y375846D01*
X532997D01*
Y376162D01*
X533155D01*
Y376636D01*
X533313D01*
Y376952D01*
X533471D01*
Y374898D01*
X533629D01*
Y373318D01*
X533787D01*
Y371896D01*
X533945D01*
Y370948D01*
X534103D01*
Y369210D01*
X534261D01*
Y368894D01*
X534419D01*
Y367630D01*
X534577D01*
Y366998D01*
X534735D01*
Y366208D01*
X534893D01*
Y365576D01*
X535051D01*
Y364628D01*
X535209D01*
Y364154D01*
X535367D01*
Y363363D01*
X535525D01*
Y363047D01*
X535683D01*
Y362257D01*
X534419D01*
Y362415D01*
X533155D01*
Y362573D01*
X531891D01*
Y362257D01*
X532049D01*
Y362099D01*
X532207D01*
Y361941D01*
X532365D01*
Y361625D01*
X532523D01*
Y361467D01*
X532681D01*
Y361309D01*
X532839D01*
Y361151D01*
X532997D01*
Y360993D01*
X533155D01*
Y360677D01*
X533471D01*
Y360361D01*
X533787D01*
Y360045D01*
X533945D01*
Y359887D01*
X534103D01*
Y359729D01*
X534261D01*
Y359571D01*
X534419D01*
Y359413D01*
X534577D01*
Y359097D01*
X534893D01*
Y358781D01*
X535051D01*
Y358623D01*
X535367D01*
Y358465D01*
X535525D01*
Y358307D01*
X535683D01*
Y358149D01*
X535841D01*
Y357991D01*
X535999D01*
Y357833D01*
X536157D01*
Y357675D01*
X536315D01*
Y357517D01*
X536473D01*
Y357359D01*
X536631D01*
Y357201D01*
X536947D01*
Y357043D01*
X537105D01*
Y356885D01*
X537421D01*
Y356727D01*
X537579D01*
Y356411D01*
X537737D01*
Y355937D01*
X537895D01*
Y355621D01*
X538053D01*
Y355305D01*
X538211D01*
Y354831D01*
X538369D01*
Y354515D01*
X538527D01*
Y354041D01*
X538685D01*
Y353725D01*
X538843D01*
Y353251D01*
X539001D01*
Y352935D01*
X539159D01*
Y352619D01*
X539317D01*
Y352303D01*
X539475D01*
Y351987D01*
X539633D01*
Y351671D01*
X539791D01*
Y351197D01*
X539949D01*
Y350881D01*
X540107D01*
Y350565D01*
X540265D01*
Y350407D01*
X540423D01*
Y350091D01*
X540582D01*
Y349775D01*
X540739D01*
Y349617D01*
X540898D01*
Y349459D01*
X541055D01*
Y349301D01*
X541214D01*
Y349143D01*
X541371D01*
Y348827D01*
X541530D01*
Y348669D01*
X541687D01*
Y348511D01*
X541846D01*
Y348353D01*
X542003D01*
Y348195D01*
X542162D01*
Y348037D01*
X542478D01*
Y347879D01*
X542794D01*
Y347721D01*
X542952D01*
Y347563D01*
X543268D01*
Y347405D01*
X543426D01*
Y347247D01*
X543742D01*
Y347089D01*
X544058D01*
Y346931D01*
X544374D01*
Y346773D01*
X544690D01*
Y346615D01*
X545006D01*
Y346457D01*
X545322D01*
Y346299D01*
X545480D01*
Y346141D01*
X545796D01*
Y345983D01*
X546112D01*
Y345825D01*
X546586D01*
Y345667D01*
X546902D01*
Y345509D01*
X547376D01*
Y345351D01*
X547692D01*
Y345193D01*
X548166D01*
Y345035D01*
X548482D01*
Y344877D01*
X548956D01*
Y344719D01*
X549430D01*
Y344561D01*
X550062D01*
Y344403D01*
X550536D01*
Y344245D01*
X551800D01*
Y344087D01*
X552432D01*
Y343929D01*
X553854D01*
Y343771D01*
X554802D01*
Y343613D01*
X560806D01*
Y343771D01*
X561438D01*
Y343929D01*
X562228D01*
Y344087D01*
X562702D01*
Y344245D01*
X563019D01*
Y344403D01*
X563492D01*
Y344561D01*
X563808D01*
Y344719D01*
X564124D01*
Y344877D01*
X564440D01*
Y345035D01*
X564756D01*
Y345193D01*
X565072D01*
Y345351D01*
X565231D01*
Y345509D01*
X565547D01*
Y345667D01*
X565705D01*
Y345825D01*
X565863D01*
Y345983D01*
X566021D01*
Y346141D01*
X566179D01*
Y346299D01*
X566495D01*
Y346457D01*
X566653D01*
Y346615D01*
X566811D01*
Y346773D01*
X566969D01*
Y346931D01*
X567127D01*
Y347089D01*
X567285D01*
Y347247D01*
X567443D01*
Y347405D01*
X567601D01*
Y347563D01*
X567759D01*
Y347879D01*
X567917D01*
Y348037D01*
X568075D01*
Y348353D01*
X568233D01*
Y348511D01*
X568391D01*
Y348669D01*
X568549D01*
Y348985D01*
X568707D01*
Y349301D01*
X568865D01*
Y349617D01*
X569023D01*
Y349933D01*
X569181D01*
Y350091D01*
X569339D01*
Y350407D01*
X569497D01*
Y350881D01*
X569655D01*
Y351039D01*
X569971D01*
Y350723D01*
X570129D01*
Y350407D01*
X570287D01*
Y350249D01*
X570445D01*
Y349775D01*
X570603D01*
Y349459D01*
X570761D01*
Y349143D01*
X570919D01*
Y348985D01*
X571077D01*
Y348669D01*
X571235D01*
Y348511D01*
X571393D01*
Y348195D01*
X571551D01*
Y348037D01*
X571709D01*
Y347721D01*
X571867D01*
Y347563D01*
X572025D01*
Y347405D01*
X572183D01*
Y347247D01*
X572341D01*
Y346931D01*
X572499D01*
Y346773D01*
X572657D01*
Y346615D01*
X572815D01*
Y346457D01*
X572973D01*
Y346141D01*
X573289D01*
Y345983D01*
X573447D01*
Y345667D01*
X573605D01*
Y345351D01*
X573763D01*
Y345193D01*
X573921D01*
Y345035D01*
X574237D01*
Y344877D01*
X574395D01*
Y344561D01*
X574553D01*
Y344403D01*
X574711D01*
Y344245D01*
X574869D01*
Y344087D01*
X575027D01*
Y343929D01*
X575185D01*
Y343771D01*
X575501D01*
Y343613D01*
X575659D01*
Y343455D01*
X575817D01*
Y343297D01*
X575975D01*
Y343139D01*
X576133D01*
Y342981D01*
X576449D01*
Y342823D01*
X576607D01*
Y342665D01*
X576765D01*
Y342507D01*
X576923D01*
Y342349D01*
X577713D01*
Y342507D01*
X577871D01*
Y342665D01*
X578187D01*
Y342823D01*
X578345D01*
Y342981D01*
X578819D01*
Y343139D01*
X578977D01*
Y343297D01*
X579293D01*
Y343455D01*
X579609D01*
Y343613D01*
X579767D01*
Y343771D01*
X580083D01*
Y343929D01*
X580399D01*
Y344087D01*
X580557D01*
Y344245D01*
X580715D01*
Y344403D01*
X580873D01*
Y344561D01*
X581189D01*
Y344719D01*
X581347D01*
Y344877D01*
X581663D01*
Y345035D01*
X581821D01*
Y345193D01*
X581979D01*
Y345351D01*
X582295D01*
Y345509D01*
X582453D01*
Y345667D01*
X582611D01*
Y345825D01*
X582769D01*
Y345983D01*
X582927D01*
Y346141D01*
X583085D01*
Y346299D01*
X583243D01*
Y346457D01*
X583559D01*
Y346615D01*
X583717D01*
Y346773D01*
X583875D01*
Y346931D01*
X584033D01*
Y347089D01*
X584191D01*
Y347405D01*
X584349D01*
Y347563D01*
X584507D01*
Y347721D01*
X584665D01*
Y347879D01*
X584823D01*
Y348037D01*
X584981D01*
Y348195D01*
X585139D01*
Y348353D01*
X585297D01*
Y348511D01*
X585456D01*
Y348669D01*
X585613D01*
Y348985D01*
X585929D01*
Y349143D01*
X586088D01*
Y349459D01*
X586245D01*
Y349617D01*
X586404D01*
Y349775D01*
X586561D01*
Y349933D01*
X586720D01*
Y350091D01*
X586877D01*
Y350249D01*
X587036D01*
Y350565D01*
X587193D01*
Y350723D01*
X587352D01*
Y350881D01*
X587509D01*
Y351197D01*
X587668D01*
Y351355D01*
X587826D01*
Y351513D01*
X587984D01*
Y351671D01*
X588142D01*
Y351987D01*
X588300D01*
Y352145D01*
X588458D01*
Y352303D01*
X588616D01*
Y352619D01*
X588774D01*
Y352777D01*
X588932D01*
Y353093D01*
X589090D01*
Y353251D01*
X589248D01*
Y353567D01*
X589406D01*
Y353725D01*
X589564D01*
Y354041D01*
X589722D01*
Y354199D01*
X589880D01*
Y354515D01*
X590038D01*
Y354831D01*
X590196D01*
Y354989D01*
X590354D01*
Y355305D01*
X590512D01*
Y355621D01*
X590670D01*
Y355937D01*
X590828D01*
Y356095D01*
X590986D01*
Y356569D01*
X591144D01*
Y356885D01*
X591302D01*
Y357201D01*
X591460D01*
Y357517D01*
X591618D01*
Y357833D01*
X591776D01*
Y357991D01*
X591934D01*
Y358465D01*
X592092D01*
Y358781D01*
X592250D01*
Y359097D01*
X592408D01*
Y359413D01*
X592566D01*
Y359729D01*
X592724D01*
Y360045D01*
X592882D01*
Y360361D01*
X593040D01*
Y360835D01*
X593198D01*
Y361309D01*
X593356D01*
Y361625D01*
X593514D01*
Y362099D01*
X593672D01*
Y362415D01*
X593830D01*
Y362889D01*
X593988D01*
Y363522D01*
X594146D01*
Y364154D01*
X594304D01*
Y364628D01*
X594462D01*
Y365260D01*
X594620D01*
Y365892D01*
X594778D01*
Y366524D01*
X594936D01*
Y367314D01*
X595094D01*
Y368262D01*
X595252D01*
Y369052D01*
X595410D01*
Y370158D01*
X595568D01*
Y370632D01*
X595726D01*
Y370790D01*
X596042D01*
Y370948D01*
X596200D01*
Y371106D01*
X596516D01*
Y371264D01*
X596674D01*
Y371422D01*
X596990D01*
Y371580D01*
X597306D01*
Y371738D01*
X597464D01*
Y371896D01*
X597938D01*
Y372054D01*
X598254D01*
Y372212D01*
X598570D01*
Y372370D01*
X599044D01*
Y372528D01*
X599834D01*
Y372686D01*
X602520D01*
Y373160D01*
X602678D01*
Y375214D01*
X602836D01*
Y382482D01*
X602678D01*
Y384536D01*
X602520D01*
Y385958D01*
X602362D01*
Y386116D01*
X601572D01*
Y386275D01*
X600466D01*
Y386433D01*
X599518D01*
Y386591D01*
X598886D01*
Y386749D01*
X598412D01*
Y386907D01*
X597938D01*
Y387065D01*
X597464D01*
Y387223D01*
X596990D01*
Y387381D01*
X596516D01*
Y387539D01*
X596200D01*
Y387697D01*
X595726D01*
Y387855D01*
X595410D01*
Y388803D01*
X595252D01*
Y389751D01*
X595094D01*
Y390541D01*
X594936D01*
Y391331D01*
X594778D01*
Y391963D01*
X594620D01*
Y392595D01*
X594462D01*
Y393227D01*
X594304D01*
Y393701D01*
X594146D01*
Y394175D01*
X593988D01*
Y394807D01*
X593830D01*
Y395281D01*
X593672D01*
Y395597D01*
X593514D01*
Y396229D01*
X593356D01*
Y396703D01*
X593198D01*
Y397019D01*
X593040D01*
Y397493D01*
X592882D01*
Y397809D01*
X592724D01*
Y398283D01*
X592566D01*
Y398599D01*
X592408D01*
Y399073D01*
X592250D01*
Y399389D01*
X592092D01*
Y399705D01*
X591934D01*
Y400021D01*
X591776D01*
Y400495D01*
X591618D01*
Y400653D01*
X591460D01*
Y401127D01*
X591302D01*
Y401443D01*
X591144D01*
Y401759D01*
X590986D01*
Y402075D01*
X590828D01*
Y402391D01*
X590670D01*
Y402707D01*
X590512D01*
Y403023D01*
X590354D01*
Y403181D01*
X590196D01*
Y403497D01*
X590038D01*
Y403813D01*
X589880D01*
Y404129D01*
X589722D01*
Y404287D01*
X589564D01*
Y404603D01*
X589406D01*
Y404761D01*
X589248D01*
Y405077D01*
X589090D01*
Y405235D01*
X588932D01*
Y405551D01*
X588774D01*
Y405867D01*
X588616D01*
Y406025D01*
X588458D01*
Y406183D01*
X588300D01*
Y406341D01*
X588142D01*
Y406657D01*
X587984D01*
Y406815D01*
X587826D01*
Y406973D01*
X587668D01*
Y407289D01*
X587509D01*
Y407447D01*
X587352D01*
Y407605D01*
X587193D01*
Y407763D01*
X587036D01*
Y407921D01*
X586877D01*
Y408079D01*
X586720D01*
Y408237D01*
X586561D01*
Y408554D01*
X586404D01*
Y408711D01*
X586245D01*
Y408870D01*
X586088D01*
Y409027D01*
X585929D01*
Y409186D01*
X585772D01*
Y409343D01*
X585613D01*
Y409502D01*
X585456D01*
Y409659D01*
X585297D01*
Y409975D01*
X585139D01*
Y410134D01*
X584981D01*
Y410291D01*
X584823D01*
Y410450D01*
X584665D01*
Y410607D01*
X584507D01*
Y410766D01*
X584349D01*
Y410923D01*
X584191D01*
Y411082D01*
X584033D01*
Y411240D01*
X583875D01*
Y411398D01*
X583717D01*
Y411556D01*
X583559D01*
Y411714D01*
X583401D01*
Y411872D01*
X583085D01*
Y412030D01*
X582927D01*
Y412188D01*
X582769D01*
Y412346D01*
X582611D01*
Y412504D01*
X582453D01*
Y412662D01*
X582295D01*
Y412820D01*
X582137D01*
Y412978D01*
X581979D01*
Y413136D01*
X581663D01*
Y413294D01*
X581505D01*
Y413452D01*
X581347D01*
Y413610D01*
X581189D01*
Y413768D01*
X580873D01*
Y413926D01*
X580715D01*
Y414084D01*
X580557D01*
Y414242D01*
X580399D01*
Y414400D01*
X580083D01*
Y414558D01*
X579767D01*
Y414716D01*
X579609D01*
Y414874D01*
X579451D01*
Y415032D01*
X579135D01*
Y415190D01*
X578819D01*
Y415348D01*
X578661D01*
Y415506D01*
X578345D01*
Y415664D01*
X578029D01*
Y415822D01*
X577713D01*
Y415980D01*
X577555D01*
Y416138D01*
X577239D01*
Y416296D01*
X576923D01*
Y416454D01*
X576607D01*
Y416612D01*
D02*
G37*
G36*
X532839Y405393D02*
X532681D01*
Y405235D01*
X532207D01*
Y405077D01*
X531891D01*
Y404919D01*
X531575D01*
Y404761D01*
X531259D01*
Y404603D01*
X530785D01*
Y404445D01*
X530469D01*
Y404287D01*
X529995D01*
Y404129D01*
X529679D01*
Y403971D01*
X529363D01*
Y403813D01*
X528889D01*
Y403655D01*
X528573D01*
Y403497D01*
X528257D01*
Y403339D01*
X527941D01*
Y403181D01*
X527467D01*
Y403023D01*
X527151D01*
Y402865D01*
X526835D01*
Y402707D01*
X526361D01*
Y402549D01*
X526045D01*
Y402391D01*
X525887D01*
Y402233D01*
X525571D01*
Y402075D01*
X525097D01*
Y401917D01*
X524781D01*
Y401759D01*
X524465D01*
Y401601D01*
X524149D01*
Y401443D01*
X523833D01*
Y401285D01*
X523517D01*
Y401127D01*
X523201D01*
Y400969D01*
X522885D01*
Y400811D01*
X522569D01*
Y400653D01*
X522253D01*
Y400495D01*
X521937D01*
Y400337D01*
X521463D01*
Y400179D01*
X521305D01*
Y400021D01*
X520989D01*
Y399863D01*
X520673D01*
Y399705D01*
X520357D01*
Y399547D01*
X520041D01*
Y399389D01*
X519725D01*
Y399231D01*
X519566D01*
Y399073D01*
X519250D01*
Y398915D01*
X518934D01*
Y398757D01*
X518618D01*
Y398599D01*
X518302D01*
Y398441D01*
X517986D01*
Y398283D01*
X517670D01*
Y398125D01*
X517354D01*
Y397967D01*
X517196D01*
Y397809D01*
X516880D01*
Y397651D01*
X516564D01*
Y397493D01*
X516248D01*
Y397335D01*
X515932D01*
Y397177D01*
X515616D01*
Y397019D01*
X515300D01*
Y396861D01*
X515142D01*
Y396703D01*
X514826D01*
Y396545D01*
X514510D01*
Y396387D01*
X514194D01*
Y396229D01*
X513878D01*
Y396071D01*
X513720D01*
Y395913D01*
X513404D01*
Y395755D01*
X513088D01*
Y395597D01*
X512772D01*
Y395439D01*
X512614D01*
Y395281D01*
X512298D01*
Y395123D01*
X511982D01*
Y394965D01*
X511824D01*
Y394807D01*
X511508D01*
Y394649D01*
X511192D01*
Y394491D01*
X510876D01*
Y394333D01*
X510718D01*
Y394175D01*
X510402D01*
Y394017D01*
X510086D01*
Y393859D01*
X509928D01*
Y393701D01*
X509612D01*
Y393543D01*
X509454D01*
Y393385D01*
X509138D01*
Y393227D01*
X508822D01*
Y393069D01*
X508506D01*
Y392911D01*
X508348D01*
Y392753D01*
X508032D01*
Y392595D01*
X507716D01*
Y392437D01*
X507558D01*
Y392279D01*
X507242D01*
Y392121D01*
X506926D01*
Y391963D01*
X506768D01*
Y391805D01*
X506452D01*
Y391647D01*
X506294D01*
Y391489D01*
X505978D01*
Y391331D01*
X505662D01*
Y391173D01*
X505504D01*
Y391015D01*
X505188D01*
Y390857D01*
X505030D01*
Y390699D01*
X504714D01*
Y390541D01*
X504556D01*
Y390383D01*
X504240D01*
Y390225D01*
X503924D01*
Y390067D01*
X503766D01*
Y389909D01*
X503450D01*
Y389751D01*
X503134D01*
Y389593D01*
X502976D01*
Y389435D01*
X502660D01*
Y389277D01*
X502502D01*
Y389119D01*
X502818D01*
Y388961D01*
X504240D01*
Y388803D01*
X505820D01*
Y388645D01*
X507084D01*
Y388487D01*
X509454D01*
Y388329D01*
X511034D01*
Y388171D01*
X513720D01*
Y388013D01*
X515458D01*
Y387855D01*
X518302D01*
Y387697D01*
X521463D01*
Y387539D01*
X524307D01*
Y387697D01*
X524623D01*
Y387855D01*
X524939D01*
Y388013D01*
X525097D01*
Y388171D01*
X525255D01*
Y388329D01*
X525413D01*
Y388645D01*
X525571D01*
Y388803D01*
X525729D01*
Y388961D01*
X525887D01*
Y389119D01*
X526045D01*
Y389435D01*
X526203D01*
Y389593D01*
X526361D01*
Y390067D01*
X526519D01*
Y390383D01*
X526677D01*
Y390699D01*
X526835D01*
Y391173D01*
X526993D01*
Y391647D01*
X527151D01*
Y392437D01*
X527309D01*
Y392753D01*
X527467D01*
Y393385D01*
X527625D01*
Y393701D01*
X527783D01*
Y394333D01*
X527941D01*
Y394807D01*
X528099D01*
Y395281D01*
X528257D01*
Y395597D01*
X528415D01*
Y396229D01*
X528573D01*
Y396545D01*
X528731D01*
Y397019D01*
X528889D01*
Y397335D01*
X529047D01*
Y397809D01*
X529205D01*
Y398125D01*
X529363D01*
Y398599D01*
X529521D01*
Y398915D01*
X529679D01*
Y399231D01*
X529837D01*
Y399547D01*
X529995D01*
Y399863D01*
X530153D01*
Y400179D01*
X530311D01*
Y400653D01*
X530469D01*
Y400969D01*
X530627D01*
Y401285D01*
X530785D01*
Y401601D01*
X530943D01*
Y401917D01*
X531101D01*
Y402075D01*
X531259D01*
Y402549D01*
X531417D01*
Y402707D01*
X531575D01*
Y403023D01*
X531733D01*
Y403339D01*
X531891D01*
Y403655D01*
X532049D01*
Y403971D01*
X532207D01*
Y404129D01*
X532365D01*
Y404445D01*
X532523D01*
Y404603D01*
X532681D01*
Y404919D01*
X532839D01*
Y405393D01*
D02*
G37*
G36*
X524623Y370948D02*
X521621D01*
Y370790D01*
X519250D01*
Y370632D01*
X519093D01*
Y370790D01*
X518777D01*
Y370632D01*
X516406D01*
Y370474D01*
X513562D01*
Y370316D01*
X511982D01*
Y370158D01*
X510086D01*
Y370000D01*
X508506D01*
Y369842D01*
X506768D01*
Y369684D01*
X505188D01*
Y369526D01*
X505030D01*
Y369684D01*
X504872D01*
Y369526D01*
X503450D01*
Y369368D01*
X502502D01*
Y368894D01*
X502818D01*
Y368736D01*
X503134D01*
Y368578D01*
X503450D01*
Y368420D01*
X503608D01*
Y368262D01*
X503766D01*
Y368104D01*
X504082D01*
Y367946D01*
X504398D01*
Y367788D01*
X504556D01*
Y367630D01*
X504872D01*
Y367472D01*
X505188D01*
Y367314D01*
X505346D01*
Y367156D01*
X505662D01*
Y366998D01*
X505978D01*
Y366840D01*
X506136D01*
Y366682D01*
X506452D01*
Y366524D01*
X506610D01*
Y366366D01*
X506926D01*
Y366208D01*
X507242D01*
Y366050D01*
X507400D01*
Y365892D01*
X507716D01*
Y365734D01*
X508032D01*
Y365576D01*
X508190D01*
Y365418D01*
X508506D01*
Y365260D01*
X508664D01*
Y365102D01*
X508980D01*
Y364944D01*
X509296D01*
Y364786D01*
X509612D01*
Y364628D01*
X509928D01*
Y364470D01*
X510086D01*
Y364312D01*
X510402D01*
Y364154D01*
X510718D01*
Y363996D01*
X510876D01*
Y363838D01*
X511350D01*
Y363680D01*
X511508D01*
Y363522D01*
X511824D01*
Y363363D01*
X511982D01*
Y363205D01*
X512456D01*
Y363047D01*
X512614D01*
Y362889D01*
X513088D01*
Y362731D01*
X513246D01*
Y362573D01*
X513720D01*
Y362415D01*
X513878D01*
Y362257D01*
X514036D01*
Y362099D01*
X514194D01*
Y361941D01*
X514668D01*
Y361783D01*
X514826D01*
Y361625D01*
X515300D01*
Y361467D01*
X515458D01*
Y361309D01*
X515932D01*
Y361151D01*
X516090D01*
Y360993D01*
X516406D01*
Y360835D01*
X516564D01*
Y360677D01*
X517038D01*
Y360519D01*
X517196D01*
Y360361D01*
X517512D01*
Y360203D01*
X517670D01*
Y360045D01*
X518145D01*
Y359887D01*
X518461D01*
Y359729D01*
X518777D01*
Y359571D01*
X518934D01*
Y359413D01*
X519409D01*
Y359255D01*
X519725D01*
Y359097D01*
X520041D01*
Y358939D01*
X520199D01*
Y358781D01*
X520673D01*
Y358623D01*
X520831D01*
Y358465D01*
X521305D01*
Y358307D01*
X521621D01*
Y358149D01*
X521779D01*
Y357991D01*
X522253D01*
Y357833D01*
X522569D01*
Y357675D01*
X522885D01*
Y357517D01*
X523201D01*
Y357359D01*
X523517D01*
Y357201D01*
X523833D01*
Y357043D01*
X524149D01*
Y356885D01*
X524465D01*
Y356727D01*
X524781D01*
Y356569D01*
X525255D01*
Y356411D01*
X525571D01*
Y356253D01*
X525887D01*
Y356095D01*
X526203D01*
Y355937D01*
X526519D01*
Y355779D01*
X526835D01*
Y355621D01*
X527309D01*
Y355463D01*
X527625D01*
Y355305D01*
X527941D01*
Y355147D01*
X528257D01*
Y354989D01*
X528731D01*
Y354831D01*
X528889D01*
Y354673D01*
X529363D01*
Y354515D01*
X529679D01*
Y354357D01*
X530153D01*
Y354199D01*
X530311D01*
Y354041D01*
X530785D01*
Y353883D01*
X531101D01*
Y353725D01*
X531575D01*
Y353567D01*
X531891D01*
Y353409D01*
X532049D01*
Y353567D01*
X532207D01*
Y353725D01*
X532049D01*
Y354041D01*
X531891D01*
Y354199D01*
X531733D01*
Y354515D01*
X531575D01*
Y354831D01*
X531417D01*
Y354989D01*
X531259D01*
Y355305D01*
X531101D01*
Y355463D01*
X530943D01*
Y355779D01*
X530785D01*
Y356095D01*
X530627D01*
Y356411D01*
X530469D01*
Y356727D01*
X530311D01*
Y357043D01*
X530153D01*
Y357359D01*
X529995D01*
Y357675D01*
X529837D01*
Y357833D01*
X529679D01*
Y358149D01*
X529521D01*
Y358465D01*
X529363D01*
Y358939D01*
X529205D01*
Y359255D01*
X529047D01*
Y359571D01*
X528889D01*
Y359887D01*
X528731D01*
Y360203D01*
X528573D01*
Y360519D01*
X528415D01*
Y360993D01*
X528257D01*
Y361309D01*
X528099D01*
Y361783D01*
X527941D01*
Y362099D01*
X527783D01*
Y362573D01*
X527625D01*
Y363047D01*
X527467D01*
Y363522D01*
X527309D01*
Y363996D01*
X527151D01*
Y364312D01*
X526993D01*
Y364786D01*
X526835D01*
Y365418D01*
X526677D01*
Y365892D01*
X526519D01*
Y366524D01*
X526361D01*
Y367156D01*
X526203D01*
Y367788D01*
X526045D01*
Y368578D01*
X525887D01*
Y369052D01*
X525729D01*
Y369368D01*
X525571D01*
Y369684D01*
X525413D01*
Y370000D01*
X525255D01*
Y370158D01*
X525097D01*
Y370316D01*
X524939D01*
Y370474D01*
X524781D01*
Y370632D01*
X524623D01*
Y370948D01*
D02*
G37*
G36*
X555276Y340610D02*
X554486D01*
Y340136D01*
X554802D01*
Y339978D01*
X554960D01*
Y339820D01*
X555118D01*
Y339662D01*
X555276D01*
Y339504D01*
X555592D01*
Y339188D01*
X555908D01*
Y339030D01*
X556224D01*
Y338714D01*
X556540D01*
Y338556D01*
X556698D01*
Y338398D01*
X556856D01*
Y338240D01*
X557330D01*
Y338082D01*
X557646D01*
Y337924D01*
X558120D01*
Y337766D01*
X558436D01*
Y337608D01*
X558910D01*
Y337450D01*
X559226D01*
Y337292D01*
X559858D01*
Y337134D01*
X560648D01*
Y336976D01*
X561280D01*
Y336818D01*
X562070D01*
Y336660D01*
X562544D01*
Y336502D01*
X562860D01*
Y336660D01*
X562544D01*
Y336818D01*
X562386D01*
Y336976D01*
X562070D01*
Y337134D01*
X561912D01*
Y337292D01*
X561754D01*
Y337450D01*
X561596D01*
Y337608D01*
X561438D01*
Y337766D01*
X561280D01*
Y337924D01*
X561122D01*
Y338082D01*
X560964D01*
Y338240D01*
X560648D01*
Y338556D01*
X560332D01*
Y338714D01*
X560174D01*
Y338872D01*
X560016D01*
Y339188D01*
X559858D01*
Y339346D01*
X559700D01*
Y339504D01*
X559542D01*
Y339662D01*
X559384D01*
Y339978D01*
X559226D01*
Y340136D01*
X559068D01*
Y340294D01*
X556540D01*
Y340452D01*
X555276D01*
Y340610D01*
D02*
G37*
G36*
X567917Y341401D02*
X567127D01*
Y341243D01*
X566653D01*
Y341085D01*
X566179D01*
Y340927D01*
X565547D01*
Y340768D01*
X564756D01*
Y340610D01*
X563651D01*
Y340452D01*
X562070D01*
Y340136D01*
X562228D01*
Y339978D01*
X562386D01*
Y339820D01*
X562544D01*
Y339662D01*
X562702D01*
Y339504D01*
X562860D01*
Y339346D01*
X563019D01*
Y339188D01*
X563176D01*
Y339030D01*
X563335D01*
Y338872D01*
X563492D01*
Y338714D01*
X563651D01*
Y338556D01*
X563967D01*
Y338240D01*
X564283D01*
Y338082D01*
X564440D01*
Y337924D01*
X564599D01*
Y337766D01*
X564915D01*
Y337608D01*
X565072D01*
Y337450D01*
X565231D01*
Y337292D01*
X565389D01*
Y337134D01*
X565547D01*
Y336976D01*
X565863D01*
Y336818D01*
X566021D01*
Y336660D01*
X566179D01*
Y336502D01*
X566495D01*
Y336344D01*
X566811D01*
Y336186D01*
X566969D01*
Y336028D01*
X567127D01*
Y335870D01*
X567443D01*
Y335712D01*
X567759D01*
Y335554D01*
X568075D01*
Y335396D01*
X568391D01*
Y335238D01*
X568549D01*
Y335080D01*
X569497D01*
Y334922D01*
X570445D01*
Y334764D01*
X572499D01*
Y334606D01*
X577239D01*
Y334448D01*
X577713D01*
Y334606D01*
X577239D01*
Y334764D01*
X576765D01*
Y334922D01*
X576449D01*
Y335080D01*
X575975D01*
Y335238D01*
X575659D01*
Y335396D01*
X575343D01*
Y335554D01*
X575027D01*
Y335712D01*
X574711D01*
Y335870D01*
X574553D01*
Y336028D01*
X574237D01*
Y336186D01*
X573921D01*
Y336344D01*
X573605D01*
Y336502D01*
X573447D01*
Y336660D01*
X573131D01*
Y336818D01*
X572973D01*
Y336976D01*
X572815D01*
Y337134D01*
X572499D01*
Y337292D01*
X572341D01*
Y337450D01*
X572025D01*
Y337608D01*
X571867D01*
Y337766D01*
X571709D01*
Y337924D01*
X571393D01*
Y338082D01*
X571235D01*
Y338240D01*
X571077D01*
Y338398D01*
X570919D01*
Y338556D01*
X570603D01*
Y338714D01*
X570445D01*
Y338872D01*
X570287D01*
Y339030D01*
X570129D01*
Y339188D01*
X569971D01*
Y339346D01*
X569813D01*
Y339504D01*
X569655D01*
Y339662D01*
X569497D01*
Y339820D01*
X569181D01*
Y340136D01*
X568865D01*
Y340294D01*
X568707D01*
Y340452D01*
X568549D01*
Y340610D01*
X568391D01*
Y340927D01*
X568233D01*
Y341085D01*
X567917D01*
Y341401D01*
D02*
G37*
%LPD*%
G36*
X554802Y413926D02*
X555118D01*
Y413768D01*
X555276D01*
Y413610D01*
X555592D01*
Y413294D01*
X555750D01*
Y413136D01*
X555908D01*
Y412662D01*
X556066D01*
Y411240D01*
X555908D01*
Y410923D01*
X555750D01*
Y410450D01*
X555592D01*
Y410134D01*
X555434D01*
Y409502D01*
X555592D01*
Y409343D01*
X555750D01*
Y409186D01*
X555908D01*
Y409027D01*
X556066D01*
Y408870D01*
X556224D01*
Y408554D01*
X556382D01*
Y408237D01*
X556540D01*
Y408079D01*
X556698D01*
Y407605D01*
X556856D01*
Y407131D01*
X557014D01*
Y406657D01*
X557172D01*
Y402549D01*
X557014D01*
Y401285D01*
X556856D01*
Y400179D01*
X556698D01*
Y399231D01*
X556540D01*
Y398441D01*
X556382D01*
Y397809D01*
X556224D01*
Y397019D01*
X556066D01*
Y396387D01*
X555908D01*
Y395755D01*
X555750D01*
Y395281D01*
X555592D01*
Y394649D01*
X555434D01*
Y394175D01*
X555276D01*
Y393543D01*
X555118D01*
Y393069D01*
X554960D01*
Y392595D01*
X554802D01*
Y392121D01*
X554644D01*
Y391647D01*
X554486D01*
Y391173D01*
X554328D01*
Y390857D01*
X554170D01*
Y390541D01*
X554012D01*
Y390067D01*
X553854D01*
Y389751D01*
X553696D01*
Y389277D01*
X553538D01*
Y388961D01*
X553380D01*
Y388645D01*
X553222D01*
Y388329D01*
X553064D01*
Y388171D01*
X552906D01*
Y387855D01*
X552748D01*
Y387697D01*
X552590D01*
Y387381D01*
X552432D01*
Y387223D01*
X552274D01*
Y387065D01*
X552116D01*
Y386907D01*
X551958D01*
Y386749D01*
X551800D01*
Y386591D01*
X551642D01*
Y386116D01*
X551800D01*
Y385800D01*
X551958D01*
Y385642D01*
X552116D01*
Y385484D01*
X552274D01*
Y385168D01*
X552432D01*
Y385010D01*
X552590D01*
Y384694D01*
X552748D01*
Y384536D01*
X552906D01*
Y383430D01*
X552748D01*
Y383114D01*
X552274D01*
Y382956D01*
X551958D01*
Y383114D01*
X551642D01*
Y383272D01*
X551484D01*
Y383588D01*
X551326D01*
Y383746D01*
X551168D01*
Y384220D01*
X551010D01*
Y384536D01*
X550852D01*
Y385010D01*
X550694D01*
Y385326D01*
X550536D01*
Y385642D01*
X550378D01*
Y385800D01*
X548956D01*
Y385958D01*
X548166D01*
Y386116D01*
X547534D01*
Y386275D01*
X547218D01*
Y386433D01*
X547060D01*
Y386591D01*
X546902D01*
Y387065D01*
X546744D01*
Y388487D01*
X546586D01*
Y391173D01*
X546428D01*
Y394175D01*
X546586D01*
Y397651D01*
X546744D01*
Y399073D01*
X546902D01*
Y400179D01*
X547060D01*
Y401285D01*
X547218D01*
Y401759D01*
X547376D01*
Y402865D01*
X547534D01*
Y403497D01*
X547692D01*
Y404287D01*
X547850D01*
Y404919D01*
X548008D01*
Y405709D01*
X548166D01*
Y406183D01*
X548324D01*
Y406657D01*
X548482D01*
Y407289D01*
X548640D01*
Y407921D01*
X548798D01*
Y408395D01*
X548956D01*
Y409027D01*
X549114D01*
Y409659D01*
X549272D01*
Y409975D01*
X549430D01*
Y410291D01*
X549588D01*
Y410766D01*
X549746D01*
Y410923D01*
X549904D01*
Y411082D01*
X551800D01*
Y410923D01*
X552906D01*
Y410766D01*
X554170D01*
Y410923D01*
X554328D01*
Y411240D01*
X554486D01*
Y412346D01*
X554328D01*
Y412504D01*
X554170D01*
Y412662D01*
X553380D01*
Y412504D01*
X553222D01*
Y412346D01*
X553064D01*
Y412030D01*
X551958D01*
Y412188D01*
X551800D01*
Y412504D01*
X551642D01*
Y412820D01*
X551800D01*
Y413294D01*
X551958D01*
Y413452D01*
X552116D01*
Y413610D01*
X552274D01*
Y413768D01*
X552590D01*
Y413926D01*
X552906D01*
Y414084D01*
X554802D01*
Y413926D01*
D02*
G37*
G36*
X523359Y381692D02*
X523201D01*
Y381534D01*
X522885D01*
Y381376D01*
X522253D01*
Y382008D01*
X522411D01*
Y382324D01*
X522727D01*
Y382482D01*
X523359D01*
Y381692D01*
D02*
G37*
G36*
X523043Y376952D02*
X523201D01*
Y376794D01*
X523359D01*
Y376162D01*
X523201D01*
Y376004D01*
X523043D01*
Y376162D01*
X522569D01*
Y376320D01*
X522411D01*
Y377110D01*
X523043D01*
Y376952D01*
D02*
G37*
G36*
X561754Y386591D02*
X562070D01*
Y386433D01*
X562228D01*
Y385326D01*
X562070D01*
Y385168D01*
X561912D01*
Y385010D01*
X561596D01*
Y384852D01*
X561438D01*
Y384694D01*
X561280D01*
Y384536D01*
X561122D01*
Y384378D01*
X560964D01*
Y384220D01*
X560806D01*
Y384062D01*
X560648D01*
Y383904D01*
X560332D01*
Y383746D01*
X560174D01*
Y383430D01*
X560016D01*
Y383272D01*
X559858D01*
Y383114D01*
X559700D01*
Y382956D01*
X559542D01*
Y382798D01*
X559384D01*
Y382640D01*
X559226D01*
Y382324D01*
X559068D01*
Y382008D01*
X558910D01*
Y381692D01*
X558752D01*
Y381376D01*
X558594D01*
Y381060D01*
X558436D01*
Y380586D01*
X558278D01*
Y378848D01*
X558436D01*
Y378058D01*
X558594D01*
Y377742D01*
X558752D01*
Y377426D01*
X558910D01*
Y377268D01*
X559068D01*
Y376952D01*
X559226D01*
Y376636D01*
X559384D01*
Y376478D01*
X559542D01*
Y376320D01*
X559700D01*
Y376004D01*
X559858D01*
Y375846D01*
X560016D01*
Y375688D01*
X560174D01*
Y375530D01*
X560332D01*
Y375214D01*
X560648D01*
Y374898D01*
X560806D01*
Y374740D01*
X560964D01*
Y374582D01*
X561280D01*
Y374424D01*
X561438D01*
Y374266D01*
X561596D01*
Y374108D01*
X561754D01*
Y373950D01*
X561912D01*
Y373792D01*
X562070D01*
Y373634D01*
X562228D01*
Y373476D01*
X562386D01*
Y373318D01*
X562544D01*
Y373002D01*
X562702D01*
Y372844D01*
X562544D01*
Y372686D01*
X562702D01*
Y372528D01*
X562544D01*
Y372212D01*
X562228D01*
Y372054D01*
X561280D01*
Y372212D01*
X560964D01*
Y372370D01*
X560806D01*
Y372528D01*
X560648D01*
Y372686D01*
X560490D01*
Y372844D01*
X560332D01*
Y373002D01*
X560174D01*
Y373318D01*
X560016D01*
Y373476D01*
X559858D01*
Y373634D01*
X559700D01*
Y373950D01*
X559542D01*
Y374108D01*
X559384D01*
Y374424D01*
X559226D01*
Y374582D01*
X559068D01*
Y374898D01*
X558910D01*
Y375214D01*
X558752D01*
Y375372D01*
X558594D01*
Y375688D01*
X558436D01*
Y375846D01*
X558278D01*
Y376162D01*
X558120D01*
Y376478D01*
X557962D01*
Y376636D01*
X557804D01*
Y377110D01*
X557646D01*
Y377742D01*
X557488D01*
Y378374D01*
X557330D01*
Y380902D01*
X557488D01*
Y381534D01*
X557646D01*
Y382166D01*
X557804D01*
Y382640D01*
X557962D01*
Y382798D01*
X558120D01*
Y383114D01*
X558278D01*
Y383430D01*
X558436D01*
Y383746D01*
X558594D01*
Y384062D01*
X558752D01*
Y384220D01*
X558910D01*
Y384536D01*
X559068D01*
Y384694D01*
X559226D01*
Y385010D01*
X559384D01*
Y385168D01*
X559542D01*
Y385326D01*
X559700D01*
Y385484D01*
X559858D01*
Y385642D01*
X560016D01*
Y385800D01*
X560174D01*
Y385958D01*
X560332D01*
Y386116D01*
X560490D01*
Y386275D01*
X560648D01*
Y386433D01*
X560964D01*
Y386591D01*
X561438D01*
Y386749D01*
X561754D01*
Y386591D01*
D02*
G37*
G36*
X552274Y375530D02*
X552748D01*
Y375372D01*
X552906D01*
Y374108D01*
X552748D01*
Y373950D01*
X552590D01*
Y373792D01*
X552432D01*
Y373476D01*
X552274D01*
Y373318D01*
X552116D01*
Y373002D01*
X551958D01*
Y372370D01*
X552116D01*
Y372212D01*
X552274D01*
Y372054D01*
X552432D01*
Y371896D01*
X552590D01*
Y371738D01*
X552748D01*
Y371580D01*
X552906D01*
Y371422D01*
X553064D01*
Y371106D01*
X553222D01*
Y370790D01*
X553380D01*
Y370474D01*
X553538D01*
Y370316D01*
X553696D01*
Y370000D01*
X553854D01*
Y369684D01*
X554012D01*
Y369210D01*
X554170D01*
Y368894D01*
X554328D01*
Y368262D01*
X554486D01*
Y367788D01*
X554644D01*
Y367156D01*
X554802D01*
Y366682D01*
X554960D01*
Y366050D01*
X555118D01*
Y365418D01*
X555276D01*
Y364786D01*
X555434D01*
Y363996D01*
X555592D01*
Y363047D01*
X555750D01*
Y362257D01*
X555908D01*
Y361309D01*
X556066D01*
Y360519D01*
X556224D01*
Y359571D01*
X556382D01*
Y358623D01*
X556540D01*
Y357675D01*
X556698D01*
Y356727D01*
X556856D01*
Y355621D01*
X557014D01*
Y352145D01*
X556856D01*
Y351513D01*
X556698D01*
Y351197D01*
X556540D01*
Y350881D01*
X556382D01*
Y350565D01*
X556224D01*
Y350407D01*
X556066D01*
Y350091D01*
X555908D01*
Y349933D01*
X555750D01*
Y349775D01*
X555592D01*
Y349617D01*
X555434D01*
Y349459D01*
X555276D01*
Y349301D01*
X555118D01*
Y348827D01*
X555276D01*
Y348669D01*
X555434D01*
Y348353D01*
X555592D01*
Y348195D01*
X555750D01*
Y347879D01*
X555908D01*
Y347405D01*
X556066D01*
Y345825D01*
X555908D01*
Y345509D01*
X555750D01*
Y345351D01*
X555592D01*
Y345193D01*
X555434D01*
Y345035D01*
X555276D01*
Y344877D01*
X555118D01*
Y344719D01*
X554644D01*
Y344561D01*
X553064D01*
Y344719D01*
X552590D01*
Y344877D01*
X552274D01*
Y345035D01*
X552116D01*
Y345193D01*
X551958D01*
Y345509D01*
X551800D01*
Y345825D01*
X551642D01*
Y346141D01*
X551800D01*
Y346457D01*
X551958D01*
Y346615D01*
X553064D01*
Y346299D01*
X553222D01*
Y346141D01*
X553538D01*
Y345983D01*
X554170D01*
Y346141D01*
X554328D01*
Y346299D01*
X554486D01*
Y347405D01*
X554328D01*
Y347721D01*
X554170D01*
Y347879D01*
X554012D01*
Y348037D01*
X553854D01*
Y348195D01*
X553696D01*
Y348353D01*
X553222D01*
Y348195D01*
X552748D01*
Y348037D01*
X551958D01*
Y347879D01*
X551010D01*
Y347721D01*
X549588D01*
Y347879D01*
X549272D01*
Y348195D01*
X549114D01*
Y348511D01*
X548956D01*
Y348827D01*
X548798D01*
Y348985D01*
X548640D01*
Y349459D01*
X548482D01*
Y350091D01*
X548324D01*
Y350407D01*
X548166D01*
Y351039D01*
X548008D01*
Y351513D01*
X547850D01*
Y351987D01*
X547692D01*
Y352777D01*
X547534D01*
Y353409D01*
X547376D01*
Y354199D01*
X547218D01*
Y354989D01*
X547060D01*
Y355937D01*
X546902D01*
Y356885D01*
X546744D01*
Y357991D01*
X546586D01*
Y359255D01*
X546428D01*
Y362099D01*
X546270D01*
Y366366D01*
X546428D01*
Y369210D01*
X546586D01*
Y371106D01*
X546744D01*
Y372212D01*
X546902D01*
Y372370D01*
X547218D01*
Y372528D01*
X547534D01*
Y372686D01*
X548166D01*
Y372844D01*
X549114D01*
Y373002D01*
X550536D01*
Y373318D01*
X550694D01*
Y373792D01*
X550852D01*
Y374108D01*
X551010D01*
Y374424D01*
X551168D01*
Y374898D01*
X551326D01*
Y375056D01*
X551484D01*
Y375372D01*
X551642D01*
Y375530D01*
X551958D01*
Y375688D01*
X552274D01*
Y375530D01*
D02*
G37*
%LPC*%
G36*
X552432Y409343D02*
X551010D01*
Y409027D01*
X550852D01*
Y408711D01*
X550694D01*
Y408237D01*
X550536D01*
Y407921D01*
X550378D01*
Y407289D01*
X550220D01*
Y406657D01*
X550062D01*
Y406025D01*
X549904D01*
Y405393D01*
X549746D01*
Y404761D01*
X549588D01*
Y404129D01*
X549430D01*
Y403497D01*
X549272D01*
Y402865D01*
X549114D01*
Y401917D01*
X548956D01*
Y401285D01*
X548798D01*
Y400179D01*
X548640D01*
Y399389D01*
X548482D01*
Y398283D01*
X548324D01*
Y396861D01*
X548166D01*
Y395913D01*
X548324D01*
Y396071D01*
X548482D01*
Y396387D01*
X548640D01*
Y396703D01*
X548798D01*
Y396861D01*
X548956D01*
Y397177D01*
X549114D01*
Y397335D01*
X549272D01*
Y397493D01*
X549430D01*
Y397651D01*
X549588D01*
Y397809D01*
X549746D01*
Y397967D01*
X549904D01*
Y398125D01*
X550220D01*
Y398283D01*
X550378D01*
Y398441D01*
X550536D01*
Y398599D01*
X550852D01*
Y398757D01*
X551010D01*
Y398915D01*
X551484D01*
Y399073D01*
X551800D01*
Y399231D01*
X552274D01*
Y399389D01*
X553064D01*
Y399547D01*
X554802D01*
Y399705D01*
X554960D01*
Y400495D01*
X555118D01*
Y401443D01*
X555276D01*
Y402549D01*
X555434D01*
Y404287D01*
X555592D01*
Y405709D01*
X555434D01*
Y406499D01*
X555276D01*
Y406815D01*
X555118D01*
Y407131D01*
X554960D01*
Y407447D01*
X554802D01*
Y407605D01*
X554644D01*
Y407763D01*
X554486D01*
Y408079D01*
X554328D01*
Y408237D01*
X554170D01*
Y408395D01*
X554012D01*
Y408554D01*
X553854D01*
Y408711D01*
X553538D01*
Y408870D01*
X553222D01*
Y409027D01*
X552906D01*
Y409186D01*
X552432D01*
Y409343D01*
D02*
G37*
G36*
X548324Y390067D02*
X548166D01*
Y388487D01*
X548324D01*
Y387381D01*
X548640D01*
Y387223D01*
X549114D01*
Y387381D01*
X549904D01*
Y387539D01*
X550062D01*
Y387697D01*
X549904D01*
Y387855D01*
X549746D01*
Y388013D01*
X549588D01*
Y388171D01*
X549430D01*
Y388329D01*
X549272D01*
Y388487D01*
X549114D01*
Y388645D01*
X548956D01*
Y388803D01*
X548798D01*
Y389119D01*
X548640D01*
Y389435D01*
X548482D01*
Y389593D01*
X548324D01*
Y390067D01*
D02*
G37*
G36*
X549904Y371422D02*
X549272D01*
Y371264D01*
X548482D01*
Y370790D01*
X548324D01*
Y369368D01*
X548166D01*
Y368420D01*
X548324D01*
Y368736D01*
X548482D01*
Y368894D01*
X548640D01*
Y369210D01*
X548798D01*
Y369526D01*
X548956D01*
Y369684D01*
X549114D01*
Y369842D01*
X549272D01*
Y370000D01*
X549430D01*
Y370158D01*
X549588D01*
Y370316D01*
X549746D01*
Y370474D01*
X549904D01*
Y370632D01*
X550062D01*
Y370790D01*
X550378D01*
Y370948D01*
X550536D01*
Y371106D01*
X550694D01*
Y371264D01*
X549904D01*
Y371422D01*
D02*
G37*
G36*
X548166Y362731D02*
X548008D01*
Y361625D01*
X548166D01*
Y359097D01*
X548324D01*
Y357517D01*
X548482D01*
Y356253D01*
X548640D01*
Y355463D01*
X548798D01*
Y354515D01*
X548956D01*
Y353725D01*
X549114D01*
Y352935D01*
X549272D01*
Y352303D01*
X549430D01*
Y351671D01*
X549588D01*
Y351039D01*
X549746D01*
Y350407D01*
X549904D01*
Y349933D01*
X550062D01*
Y349459D01*
X550220D01*
Y349301D01*
X551642D01*
Y349459D01*
X552432D01*
Y349617D01*
X552748D01*
Y349775D01*
X553064D01*
Y349933D01*
X553380D01*
Y350091D01*
X553696D01*
Y350249D01*
X553854D01*
Y350407D01*
X554170D01*
Y350723D01*
X554328D01*
Y350881D01*
X554644D01*
Y351039D01*
X554802D01*
Y351355D01*
X554960D01*
Y351513D01*
X555118D01*
Y351829D01*
X555276D01*
Y352303D01*
X555434D01*
Y355463D01*
X555276D01*
Y356411D01*
X555118D01*
Y357359D01*
X554960D01*
Y358307D01*
X554802D01*
Y358939D01*
X554644D01*
Y358781D01*
X553222D01*
Y358939D01*
X552432D01*
Y359097D01*
X551800D01*
Y359255D01*
X551484D01*
Y359413D01*
X551168D01*
Y359571D01*
X550852D01*
Y359729D01*
X550536D01*
Y359887D01*
X550378D01*
Y360045D01*
X550062D01*
Y360203D01*
X549904D01*
Y360361D01*
X549746D01*
Y360519D01*
X549588D01*
Y360677D01*
X549430D01*
Y360835D01*
X549272D01*
Y360993D01*
X549114D01*
Y361151D01*
X548956D01*
Y361309D01*
X548798D01*
Y361625D01*
X548640D01*
Y361941D01*
X548482D01*
Y362099D01*
X548324D01*
Y362415D01*
X548166D01*
Y362731D01*
D02*
G37*
%LPD*%
D10*
X313336Y434590D02*
D03*
X322014Y434449D02*
D03*
X330692D02*
D03*
X339370Y434449D02*
D03*
X344404Y325000D02*
D03*
X335726D02*
D03*
X379117D02*
D03*
X370439D02*
D03*
X387795D02*
D03*
X353083D02*
D03*
X361761D02*
D03*
X327048D02*
D03*
X374083Y434449D02*
D03*
X365405D02*
D03*
X400117D02*
D03*
X356727D02*
D03*
X348048D02*
D03*
X391439D02*
D03*
X382761D02*
D03*
X511024Y267913D02*
D03*
D11*
X254646Y277970D02*
X253907Y278396D01*
Y277543D01*
X254646Y277970D01*
X502244Y224410D02*
X501506Y224836D01*
Y223983D01*
X502244Y224410D01*
D12*
X336642Y349421D02*
X335892Y349854D01*
Y348988D01*
X336642Y349421D01*
X519620Y202756D02*
Y281496D01*
X547179Y202756D02*
Y281496D01*
X519620Y202756D02*
X547179D01*
X519620Y281496D02*
X547179D01*
X549180Y202756D02*
Y281496D01*
X576739Y202756D02*
Y281496D01*
X549180Y202756D02*
X576739D01*
X549180Y281496D02*
X576739D01*
X578740Y202756D02*
Y281496D01*
X606299Y202756D02*
Y281496D01*
X578740Y202756D02*
X606299D01*
X578740Y281496D02*
X606299D01*
X253255Y466535D02*
Y545276D01*
X280814Y466535D02*
Y545276D01*
X253255Y466535D02*
X280814D01*
X253255Y545276D02*
X280814D01*
X342260Y466535D02*
Y545276D01*
X369819Y466535D02*
Y545276D01*
X342260Y466535D02*
X369819D01*
X342260Y545276D02*
X369819D01*
X283140Y466535D02*
Y545276D01*
X310699Y466535D02*
Y545276D01*
X283140Y466535D02*
X310699D01*
X283140Y545276D02*
X310699D01*
X312700Y466535D02*
Y545276D01*
X340259Y466535D02*
Y545276D01*
X312700Y466535D02*
X340259D01*
X312700Y545276D02*
X340259D01*
X490060Y466535D02*
Y545276D01*
X517619Y466535D02*
Y545276D01*
X490060Y466535D02*
X517619D01*
X490060Y545276D02*
X517619D01*
X519685Y466535D02*
Y545276D01*
X547244Y466535D02*
Y545276D01*
X519685Y466535D02*
X547244D01*
X519685Y545276D02*
X547244D01*
X430940Y466535D02*
Y545276D01*
X458499Y466535D02*
Y545276D01*
X430940Y466535D02*
X458499D01*
X430940Y545276D02*
X458499D01*
X401380Y466535D02*
Y545276D01*
X428939Y466535D02*
Y545276D01*
X401380Y466535D02*
X428939D01*
X401380Y545276D02*
X428939D01*
X371820Y466535D02*
Y545276D01*
X399379Y466535D02*
Y545276D01*
X371820Y466535D02*
X399379D01*
X371820Y545276D02*
X399379D01*
X460500Y466535D02*
Y545276D01*
X488059Y466535D02*
Y545276D01*
X460500Y466535D02*
X488059D01*
X460500Y545276D02*
X488059D01*
X549245Y466535D02*
Y545276D01*
X576804Y466535D02*
Y545276D01*
X549245Y466535D02*
X576804D01*
X549245Y545276D02*
X576804D01*
X578805Y466535D02*
Y545276D01*
X606364Y466535D02*
Y545276D01*
X578805Y466535D02*
X606364D01*
X578805Y545276D02*
X606364D01*
X610236Y249803D02*
Y497047D01*
Y249803D02*
X669291D01*
X610236Y497047D02*
X669291D01*
Y249803D02*
Y497047D01*
X622047Y257480D02*
X630905D01*
Y254724D02*
Y257480D01*
Y254724D02*
X633661Y257480D01*
X630905Y260236D02*
X633661Y257480D01*
X630905Y260236D02*
Y260433D01*
Y257480D02*
Y260433D01*
X509864Y304470D02*
X508864Y303470D01*
Y301471D01*
X509864Y300471D01*
X513862D01*
X514862Y301471D01*
Y303470D01*
X513862Y304470D01*
X511863D01*
Y302471D01*
X514862Y307469D02*
Y309468D01*
X513862Y310468D01*
X511863D01*
X510863Y309468D01*
Y307469D01*
X511863Y306469D01*
X513862D01*
X514862Y307469D01*
X509864Y313467D02*
X510863D01*
Y312467D01*
Y314467D01*
Y313467D01*
X513862D01*
X514862Y314467D01*
Y323464D02*
Y326463D01*
X513862Y327463D01*
X512862Y326463D01*
Y324464D01*
X511863Y323464D01*
X510863Y324464D01*
Y327463D01*
X514862Y330462D02*
Y332461D01*
X513862Y333461D01*
X511863D01*
X510863Y332461D01*
Y330462D01*
X511863Y329462D01*
X513862D01*
X514862Y330462D01*
Y335460D02*
X510863D01*
Y336460D01*
X511863Y337459D01*
X514862D01*
X511863D01*
X510863Y338459D01*
X511863Y339459D01*
X514862D01*
Y344457D02*
Y342458D01*
X513862Y341458D01*
X511863D01*
X510863Y342458D01*
Y344457D01*
X511863Y345457D01*
X512862D01*
Y341458D01*
X526459Y312467D02*
Y313467D01*
X525459Y314467D01*
X520461D01*
Y318465D02*
X523460D01*
X524460Y319465D01*
Y322464D01*
X520461D01*
X524460Y324464D02*
Y326463D01*
Y325463D01*
X520461D01*
Y324464D01*
Y333461D02*
Y330462D01*
X521460Y329462D01*
X523460D01*
X524460Y330462D01*
Y333461D01*
Y338459D02*
Y336460D01*
X523460Y335460D01*
X521460D01*
X520461Y336460D01*
Y338459D01*
X521460Y339459D01*
X522460D01*
Y335460D01*
X519461Y341458D02*
X518462Y342458D01*
Y344457D01*
X519461Y345457D01*
X520461D01*
X522460Y343457D01*
X523460D02*
X524460D01*
X281102Y430315D02*
Y431981D01*
Y431148D01*
X276104D01*
X276937Y430315D01*
Y434480D02*
X276104Y435313D01*
Y436979D01*
X276937Y437813D01*
X280269D01*
X281102Y436979D01*
Y435313D01*
X280269Y434480D01*
X276937D01*
X291339Y379134D02*
Y380800D01*
Y379967D01*
X286340D01*
X287173Y379134D01*
X613277Y264644D02*
X612278Y263645D01*
Y261645D01*
X613277Y260646D01*
X617276D01*
X618276Y261645D01*
Y263645D01*
X617276Y264644D01*
X618276Y267643D02*
Y269643D01*
X617276Y270642D01*
X615277D01*
X614277Y269643D01*
Y267643D01*
X615277Y266644D01*
X617276D01*
X618276Y267643D01*
Y272642D02*
X614277D01*
Y275641D01*
X615277Y276641D01*
X618276D01*
Y278640D02*
X614277D01*
Y281639D01*
X615277Y282639D01*
X618276D01*
X619276Y284638D02*
Y288637D01*
X612278Y293635D02*
Y291636D01*
X613277Y290636D01*
X617276D01*
X618276Y291636D01*
Y293635D01*
X617276Y294635D01*
X613277D01*
X612278Y293635D01*
X614277Y296634D02*
X617276D01*
X618276Y297634D01*
Y300633D01*
X614277D01*
X613277Y303632D02*
X614277D01*
Y302632D01*
Y304631D01*
Y303632D01*
X617276D01*
X618276Y304631D01*
Y307630D02*
Y310630D01*
X617276Y311629D01*
X616277Y310630D01*
Y308630D01*
X615277Y307630D01*
X614277Y308630D01*
Y311629D01*
X618276Y313629D02*
Y315628D01*
Y314628D01*
X614277D01*
Y313629D01*
X612278Y322626D02*
X618276D01*
Y319627D01*
X617276Y318627D01*
X615277D01*
X614277Y319627D01*
Y322626D01*
X618276Y327624D02*
Y325625D01*
X617276Y324625D01*
X615277D01*
X614277Y325625D01*
Y327624D01*
X615277Y328624D01*
X616277D01*
Y324625D01*
X500788Y253020D02*
X504724D01*
Y254988D01*
X504068Y255644D01*
X503412D01*
X502756Y254988D01*
Y253020D01*
Y254988D01*
X502100Y255644D01*
X501444D01*
X500788Y254988D01*
Y253020D01*
Y256956D02*
Y259580D01*
Y258268D01*
X504724D01*
Y263515D02*
Y260892D01*
X502100Y263515D01*
X501444D01*
X500788Y262859D01*
Y261547D01*
X501444Y260892D01*
X396789Y412842D02*
Y407843D01*
X397788Y406844D01*
X399788D01*
X400787Y407843D01*
Y412842D01*
X402787Y406844D02*
X404786D01*
X403786D01*
Y412842D01*
X402787Y411842D01*
X526248Y301181D02*
Y297901D01*
X526904Y297245D01*
X528216D01*
X528872Y297901D01*
Y301181D01*
X532807D02*
X530184D01*
Y299213D01*
X531495Y299869D01*
X532151D01*
X532807Y299213D01*
Y297901D01*
X532151Y297245D01*
X530839D01*
X530184Y297901D01*
X245145Y326771D02*
Y323491D01*
X245801Y322835D01*
X247113D01*
X247769Y323491D01*
Y326771D01*
X251705Y322835D02*
X249081D01*
X251705Y325459D01*
Y326115D01*
X251049Y326771D01*
X249737D01*
X249081Y326115D01*
X443306Y439241D02*
X439371D01*
Y441208D01*
X440027Y441864D01*
X441339D01*
X441994Y441208D01*
Y439241D01*
Y440553D02*
X443306Y441864D01*
Y445144D02*
X439371D01*
X441339Y443176D01*
Y445800D01*
X439371Y449736D02*
X440027Y448424D01*
X441339Y447112D01*
X442651D01*
X443306Y447768D01*
Y449080D01*
X442651Y449736D01*
X441994D01*
X441339Y449080D01*
Y447112D01*
X468503Y439241D02*
X464568D01*
Y441208D01*
X465224Y441864D01*
X466535D01*
X467191Y441208D01*
Y439241D01*
Y440552D02*
X468503Y441864D01*
Y445144D02*
X464568D01*
X466535Y443176D01*
Y445800D01*
X464568Y449736D02*
Y447112D01*
X466535D01*
X465879Y448424D01*
Y449080D01*
X466535Y449736D01*
X467847D01*
X468503Y449080D01*
Y447768D01*
X467847Y447112D01*
X430708Y439241D02*
X426772D01*
Y441208D01*
X427428Y441864D01*
X428740D01*
X429396Y441208D01*
Y439241D01*
Y440553D02*
X430708Y441864D01*
Y445144D02*
X426772D01*
X428740Y443176D01*
Y445800D01*
X430708Y449080D02*
X426772D01*
X428740Y447112D01*
Y449736D01*
X462204Y439241D02*
X458268D01*
Y441208D01*
X458924Y441864D01*
X460236D01*
X460892Y441208D01*
Y439241D01*
Y440553D02*
X462204Y441864D01*
Y445144D02*
X458268D01*
X460236Y443176D01*
Y445800D01*
X458924Y447112D02*
X458268Y447768D01*
Y449080D01*
X458924Y449736D01*
X459580D01*
X460236Y449080D01*
Y448424D01*
Y449080D01*
X460892Y449736D01*
X461548D01*
X462204Y449080D01*
Y447768D01*
X461548Y447112D01*
X455905Y439241D02*
X451969D01*
Y441208D01*
X452625Y441864D01*
X453937D01*
X454593Y441208D01*
Y439241D01*
Y440552D02*
X455905Y441864D01*
Y445144D02*
X451969D01*
X453937Y443176D01*
Y445800D01*
X455905Y449736D02*
Y447112D01*
X453281Y449736D01*
X452625D01*
X451969Y449080D01*
Y447768D01*
X452625Y447112D01*
X437007Y439896D02*
X433072D01*
Y441864D01*
X433728Y442520D01*
X435039D01*
X435695Y441864D01*
Y439896D01*
Y441208D02*
X437007Y442520D01*
Y445800D02*
X433072D01*
X435039Y443832D01*
Y446456D01*
X437007Y447768D02*
Y449080D01*
Y448424D01*
X433072D01*
X433728Y447768D01*
X449606Y439241D02*
X445670D01*
Y441208D01*
X446326Y441864D01*
X447638D01*
X448294Y441208D01*
Y439241D01*
Y440552D02*
X449606Y441864D01*
Y445144D02*
X445670D01*
X447638Y443176D01*
Y445800D01*
X446326Y447112D02*
X445670Y447768D01*
Y449080D01*
X446326Y449736D01*
X448950D01*
X449606Y449080D01*
Y447768D01*
X448950Y447112D01*
X446326D01*
X309054Y366406D02*
X305119D01*
Y368374D01*
X305775Y369030D01*
X307087D01*
X307743Y368374D01*
Y366406D01*
Y367718D02*
X309054Y369030D01*
Y372966D02*
Y370342D01*
X306431Y372966D01*
X305775D01*
X305119Y372309D01*
Y370998D01*
X305775Y370342D01*
Y374277D02*
X305119Y374933D01*
Y376245D01*
X305775Y376901D01*
X308399D01*
X309054Y376245D01*
Y374933D01*
X308399Y374277D01*
X305775D01*
X509465Y214372D02*
X505529D01*
Y216339D01*
X506185Y216996D01*
X507497D01*
X508153Y216339D01*
Y214372D01*
Y215684D02*
X509465Y216996D01*
Y218307D02*
Y219619D01*
Y218963D01*
X505529D01*
X506185Y218307D01*
Y221587D02*
X505529Y222243D01*
Y223555D01*
X506185Y224211D01*
X506841D01*
X507497Y223555D01*
X508153Y224211D01*
X508809D01*
X509465Y223555D01*
Y222243D01*
X508809Y221587D01*
X508153D01*
X507497Y222243D01*
X506841Y221587D01*
X506185D01*
X507497Y222243D02*
Y223555D01*
X281695Y323229D02*
Y327165D01*
X283662D01*
X284318Y326509D01*
Y325197D01*
X283662Y324541D01*
X281695D01*
X283006D02*
X284318Y323229D01*
X285630D02*
X286942D01*
X286286D01*
Y327165D01*
X285630Y326509D01*
X288910Y327165D02*
X291534D01*
Y326509D01*
X288910Y323885D01*
Y323229D01*
X467521Y331497D02*
Y335432D01*
X469489D01*
X470145Y334776D01*
Y333465D01*
X469489Y332809D01*
X467521D01*
X468833D02*
X470145Y331497D01*
X471457D02*
X472769D01*
X472113D01*
Y335432D01*
X471457Y334776D01*
X477361Y335432D02*
X476049Y334776D01*
X474737Y333465D01*
Y332153D01*
X475393Y331497D01*
X476705D01*
X477361Y332153D01*
Y332809D01*
X476705Y333465D01*
X474737D01*
X467521Y310237D02*
Y314173D01*
X469489D01*
X470145Y313517D01*
Y312205D01*
X469489Y311549D01*
X467521D01*
X468833D02*
X470145Y310237D01*
X471457D02*
X472769D01*
X472113D01*
Y314173D01*
X471457Y313517D01*
X477361Y314173D02*
X474737D01*
Y312205D01*
X476049Y312861D01*
X476705D01*
X477361Y312205D01*
Y310893D01*
X476705Y310237D01*
X475393D01*
X474737Y310893D01*
X405511Y439569D02*
X401575D01*
Y441536D01*
X402231Y442192D01*
X403543D01*
X404199Y441536D01*
Y439569D01*
Y440880D02*
X405511Y442192D01*
Y443504D02*
Y444816D01*
Y444160D01*
X401575D01*
X402231Y443504D01*
X405511Y448752D02*
X401575D01*
X403543Y446784D01*
Y449408D01*
X424409Y310697D02*
X420473D01*
Y312665D01*
X421129Y313321D01*
X422441D01*
X423097Y312665D01*
Y310697D01*
Y312009D02*
X424409Y313321D01*
Y314633D02*
Y315945D01*
Y315289D01*
X420473D01*
X421129Y314633D01*
X424409Y317912D02*
Y319224D01*
Y318568D01*
X420473D01*
X421129Y317912D01*
X418110Y310041D02*
X414174D01*
Y312009D01*
X414830Y312665D01*
X416142D01*
X416798Y312009D01*
Y310041D01*
Y311353D02*
X418110Y312665D01*
Y313977D02*
Y315289D01*
Y314633D01*
X414174D01*
X414830Y313977D01*
Y317256D02*
X414174Y317912D01*
Y319224D01*
X414830Y319880D01*
X417454D01*
X418110Y319224D01*
Y317912D01*
X417454Y317256D01*
X414830D01*
X411810Y311681D02*
X407875D01*
Y313649D01*
X408531Y314305D01*
X409842D01*
X410499Y313649D01*
Y311681D01*
Y312993D02*
X411810Y314305D01*
X411154Y315617D02*
X411810Y316273D01*
Y317584D01*
X411154Y318240D01*
X408531D01*
X407875Y317584D01*
Y316273D01*
X408531Y315617D01*
X409187D01*
X409842Y316273D01*
Y318240D01*
X405511Y311681D02*
X401575D01*
Y313649D01*
X402231Y314305D01*
X403543D01*
X404199Y313649D01*
Y311681D01*
Y312993D02*
X405511Y314305D01*
X402231Y315617D02*
X401575Y316273D01*
Y317584D01*
X402231Y318240D01*
X402887D01*
X403543Y317584D01*
X404199Y318240D01*
X404855D01*
X405511Y317584D01*
Y316273D01*
X404855Y315617D01*
X404199D01*
X403543Y316273D01*
X402887Y315617D01*
X402231D01*
X403543Y316273D02*
Y317584D01*
X443306Y311681D02*
X439371D01*
Y313649D01*
X440027Y314305D01*
X441339D01*
X441994Y313649D01*
Y311681D01*
Y312993D02*
X443306Y314305D01*
X439371Y315617D02*
Y318240D01*
X440027D01*
X442651Y315617D01*
X443306D01*
X430708Y311681D02*
X426772D01*
Y313649D01*
X427428Y314305D01*
X428740D01*
X429396Y313649D01*
Y311681D01*
Y312993D02*
X430708Y314305D01*
X426772Y318240D02*
X427428Y316929D01*
X428740Y315617D01*
X430052D01*
X430708Y316273D01*
Y317584D01*
X430052Y318240D01*
X429396D01*
X428740Y317584D01*
Y315617D01*
X437007Y311681D02*
X433072D01*
Y313649D01*
X433728Y314305D01*
X435039D01*
X435695Y313649D01*
Y311681D01*
Y312993D02*
X437007Y314305D01*
X433072Y318240D02*
Y315617D01*
X435039D01*
X434383Y316929D01*
Y317584D01*
X435039Y318240D01*
X436351D01*
X437007Y317584D01*
Y316273D01*
X436351Y315617D01*
X411810Y441208D02*
X407875D01*
Y443176D01*
X408531Y443832D01*
X409842D01*
X410499Y443176D01*
Y441208D01*
Y442520D02*
X411810Y443832D01*
Y447112D02*
X407875D01*
X409842Y445144D01*
Y447768D01*
X418110Y441208D02*
X414174D01*
Y443176D01*
X414830Y443832D01*
X416142D01*
X416798Y443176D01*
Y441208D01*
Y442520D02*
X418110Y443832D01*
X414830Y445144D02*
X414174Y445800D01*
Y447112D01*
X414830Y447768D01*
X415486D01*
X416142Y447112D01*
Y446456D01*
Y447112D01*
X416798Y447768D01*
X417454D01*
X418110Y447112D01*
Y445800D01*
X417454Y445144D01*
X399212Y311681D02*
X395276D01*
Y313649D01*
X395932Y314305D01*
X397244D01*
X397900Y313649D01*
Y311681D01*
Y312993D02*
X399212Y314305D01*
Y318240D02*
Y315617D01*
X396588Y318240D01*
X395932D01*
X395276Y317584D01*
Y316273D01*
X395932Y315617D01*
X424409Y441864D02*
X420473D01*
Y443832D01*
X421129Y444488D01*
X422441D01*
X423097Y443832D01*
Y441864D01*
Y443176D02*
X424409Y444488D01*
Y445800D02*
Y447112D01*
Y446456D01*
X420473D01*
X421129Y445800D01*
X426902Y376772D02*
X424279D01*
X423623Y376116D01*
Y374804D01*
X424279Y374148D01*
X426902D01*
X427558Y374804D01*
Y376116D01*
X426247Y375460D02*
X427558Y376772D01*
Y376116D02*
X426902Y376772D01*
X427558Y378084D02*
Y379396D01*
Y378740D01*
X423623D01*
X424279Y378084D01*
X474379Y428196D02*
X472379D01*
X471380Y427196D01*
Y423198D01*
X472379Y422198D01*
X474379D01*
X475378Y423198D01*
Y427196D01*
X474379Y428196D01*
X477378Y422198D02*
Y428196D01*
X480377D01*
X481376Y427196D01*
Y425197D01*
X480377Y424197D01*
X477378D01*
X296457Y338715D02*
X300393D01*
Y341339D01*
Y342651D02*
Y343962D01*
Y343306D01*
X296457D01*
X297113Y342651D01*
X240290Y451574D02*
X238978D01*
X239634D01*
Y448294D01*
X238978Y447638D01*
X238322D01*
X237666Y448294D01*
X241602Y451574D02*
X244226D01*
X242914D01*
Y447638D01*
X245538D02*
Y450262D01*
X246850Y451574D01*
X248162Y450262D01*
Y447638D01*
Y449606D01*
X245538D01*
X252097Y450918D02*
X251442Y451574D01*
X250130D01*
X249474Y450918D01*
Y448294D01*
X250130Y447638D01*
X251442D01*
X252097Y448294D01*
Y449606D01*
X250785D01*
X481630Y335432D02*
Y331497D01*
Y333465D01*
X484254D01*
Y335432D01*
Y331497D01*
X487534D02*
X486222D01*
X485566Y332153D01*
Y333465D01*
X486222Y334120D01*
X487534D01*
X488190Y333465D01*
Y332809D01*
X485566D01*
X490158Y334120D02*
X491469D01*
X492125Y333465D01*
Y331497D01*
X490158D01*
X489501Y332153D01*
X490158Y332809D01*
X492125D01*
X493437Y334120D02*
Y331497D01*
Y332809D01*
X494093Y333465D01*
X494749Y334120D01*
X495405D01*
X498029Y334776D02*
Y334120D01*
X497373D01*
X498685D01*
X498029D01*
Y332153D01*
X498685Y331497D01*
X484582Y314173D02*
X481958D01*
Y312205D01*
X483270D01*
X481958D01*
Y310237D01*
X486550Y312861D02*
X487862D01*
X488518Y312205D01*
Y310237D01*
X486550D01*
X485894Y310893D01*
X486550Y311549D01*
X488518D01*
X489829Y312861D02*
Y310893D01*
X490485Y310237D01*
X492453D01*
Y312861D01*
X493765Y310237D02*
X495077D01*
X494421D01*
Y314173D01*
X493765D01*
X497701Y313517D02*
Y312861D01*
X497045D01*
X498357D01*
X497701D01*
Y310893D01*
X498357Y310237D01*
X591520Y290401D02*
X587521D01*
Y287402D01*
X589521Y288401D01*
X590520D01*
X591520Y287402D01*
Y285402D01*
X590520Y284402D01*
X588521D01*
X587521Y285402D01*
X593519Y290401D02*
Y286402D01*
X595519Y284402D01*
X597518Y286402D01*
Y290401D01*
X555495Y284402D02*
X557494D01*
X556494D01*
Y290401D01*
X555495Y289401D01*
X564492Y284402D02*
X560493D01*
X564492Y288401D01*
Y289401D01*
X563492Y290401D01*
X561493D01*
X560493Y289401D01*
X566491Y290401D02*
Y286402D01*
X568490Y284402D01*
X570490Y286402D01*
Y290401D01*
X522468D02*
Y284402D01*
X525467D01*
X526467Y285402D01*
Y286402D01*
X525467Y287402D01*
X522468D01*
X525467D01*
X526467Y288401D01*
Y289401D01*
X525467Y290401D01*
X522468D01*
X528466Y284402D02*
Y288401D01*
X530466Y290401D01*
X532465Y288401D01*
Y284402D01*
Y287402D01*
X528466D01*
X534464Y290401D02*
X538463D01*
X536464D01*
Y284402D01*
X540462Y290401D02*
X544461D01*
X542462D01*
Y284402D01*
X266717Y463629D02*
X262718D01*
Y460630D01*
X264718D01*
X262718D01*
Y457631D01*
X268716Y463629D02*
Y457631D01*
X271715D01*
X272715Y458631D01*
Y459630D01*
X271715Y460630D01*
X268716D01*
X271715D01*
X272715Y461630D01*
Y462629D01*
X271715Y463629D01*
X268716D01*
X464913D02*
X466912D01*
X465912D01*
Y457631D01*
X464913D01*
X466912D01*
X469911D02*
Y463629D01*
X473910Y457631D01*
Y463629D01*
X475909D02*
Y459630D01*
X477908Y457631D01*
X479908Y459630D01*
Y463629D01*
X481907Y457631D02*
X483906D01*
X482907D01*
Y463629D01*
X481907Y462629D01*
X434385Y463629D02*
X436385D01*
X435385D01*
Y457631D01*
X434385D01*
X436385D01*
X439384D02*
Y463629D01*
X443382Y457631D01*
Y463629D01*
X445382D02*
Y459630D01*
X447381Y457631D01*
X449380Y459630D01*
Y463629D01*
X451380Y462629D02*
X452380Y463629D01*
X454379D01*
X455378Y462629D01*
Y458631D01*
X454379Y457631D01*
X452380D01*
X451380Y458631D01*
Y462629D01*
X404358Y463629D02*
X408357D01*
X406357D01*
Y457631D01*
X414355Y462629D02*
X413355Y463629D01*
X411356D01*
X410356Y462629D01*
Y461630D01*
X411356Y460630D01*
X413355D01*
X414355Y459630D01*
Y458631D01*
X413355Y457631D01*
X411356D01*
X410356Y458631D01*
X416354Y457631D02*
Y461630D01*
X418353Y463629D01*
X420353Y461630D01*
Y457631D01*
Y460630D01*
X416354D01*
X426351Y462629D02*
X425351Y463629D01*
X423352D01*
X422352Y462629D01*
Y458631D01*
X423352Y457631D01*
X425351D01*
X426351Y458631D01*
X374830Y463629D02*
X378829D01*
X376830D01*
Y457631D01*
X384827Y462629D02*
X383827Y463629D01*
X381828D01*
X380828Y462629D01*
Y461630D01*
X381828Y460630D01*
X383827D01*
X384827Y459630D01*
Y458631D01*
X383827Y457631D01*
X381828D01*
X380828Y458631D01*
X386826Y457631D02*
Y461630D01*
X388826Y463629D01*
X390825Y461630D01*
Y457631D01*
Y460630D01*
X386826D01*
X392825Y463629D02*
Y457631D01*
X396823D01*
X587619Y463629D02*
Y457631D01*
X589618Y459630D01*
X591617Y457631D01*
Y463629D01*
X593617Y457631D02*
Y463629D01*
X596616D01*
X597616Y462629D01*
Y460630D01*
X596616Y459630D01*
X593617D01*
X526467Y464129D02*
X522468D01*
Y461130D01*
X524468D01*
X522468D01*
Y458131D01*
X528466Y457131D02*
X532465D01*
X534464Y458131D02*
Y464129D01*
X537463D01*
X538463Y463129D01*
Y461130D01*
X537463Y460130D01*
X534464D01*
X540462Y464129D02*
Y459130D01*
X541462Y458131D01*
X543461D01*
X544461Y459130D01*
Y464129D01*
X553093D02*
X549094D01*
Y461130D01*
X551093D01*
X549094D01*
Y458131D01*
X555092Y457131D02*
X559091D01*
X561090Y458131D02*
Y462129D01*
X563090Y464129D01*
X565089Y462129D01*
Y458131D01*
Y461130D01*
X561090D01*
X571087Y463129D02*
X570087Y464129D01*
X568088D01*
X567088Y463129D01*
Y459130D01*
X568088Y458131D01*
X570087D01*
X571087Y459130D01*
X577085Y463129D02*
X576085Y464129D01*
X574086D01*
X573086Y463129D01*
Y459130D01*
X574086Y458131D01*
X576085D01*
X577085Y459130D01*
X293245Y462629D02*
X292246Y463629D01*
X290246D01*
X289247Y462629D01*
Y461630D01*
X290246Y460630D01*
X292246D01*
X293245Y459630D01*
Y458631D01*
X292246Y457631D01*
X290246D01*
X289247Y458631D01*
X295245Y463629D02*
Y457631D01*
X298244D01*
X299243Y458631D01*
Y462629D01*
X298244Y463629D01*
X295245D01*
X305241Y462629D02*
X304242Y463629D01*
X302242D01*
X301243Y462629D01*
Y458631D01*
X302242Y457631D01*
X304242D01*
X305241Y458631D01*
X321773Y463629D02*
Y457631D01*
X324772D01*
X325772Y458631D01*
Y459630D01*
X324772Y460630D01*
X321773D01*
X324772D01*
X325772Y461630D01*
Y462629D01*
X324772Y463629D01*
X321773D01*
X327771D02*
Y457631D01*
X331770D01*
X345303Y464129D02*
Y458131D01*
Y461130D01*
X349302D01*
Y464129D01*
Y458131D01*
X351301Y464129D02*
Y460130D01*
X353300Y458131D01*
X355299Y460130D01*
Y464129D01*
X357299Y457131D02*
X361298D01*
X363297Y464129D02*
Y458131D01*
X366296D01*
X367296Y459130D01*
Y463129D01*
X366296Y464129D01*
X363297D01*
X499938Y457631D02*
X495940D01*
X499938Y461630D01*
Y462629D01*
X498939Y463629D01*
X496939D01*
X495940Y462629D01*
X504937Y457631D02*
Y463629D01*
X501938Y460630D01*
X505936D01*
X507936Y463629D02*
Y459630D01*
X509935Y457631D01*
X511934Y459630D01*
Y463629D01*
X284383Y320472D02*
X281760D01*
Y318504D01*
X283071Y319160D01*
X283728D01*
X284383Y318504D01*
Y317192D01*
X283728Y316536D01*
X282416D01*
X281760Y317192D01*
X285695Y320472D02*
Y317848D01*
X287007Y316536D01*
X288319Y317848D01*
Y320472D01*
X439371Y423492D02*
X443306D01*
Y425460D01*
X442651Y426116D01*
X440027D01*
X439371Y425460D01*
Y423492D01*
X443306Y429396D02*
X439371D01*
X441339Y427428D01*
Y430052D01*
X439371Y433988D02*
X440027Y432676D01*
X441339Y431364D01*
X442651D01*
X443306Y432020D01*
Y433332D01*
X442651Y433988D01*
X441994D01*
X441339Y433332D01*
Y431364D01*
X464568Y423492D02*
X468503D01*
Y425460D01*
X467847Y426116D01*
X465224D01*
X464568Y425460D01*
Y423492D01*
X468503Y429396D02*
X464568D01*
X466535Y427428D01*
Y430052D01*
X464568Y433988D02*
Y431364D01*
X466535D01*
X465879Y432676D01*
Y433332D01*
X466535Y433988D01*
X467847D01*
X468503Y433332D01*
Y432020D01*
X467847Y431364D01*
X426772Y423492D02*
X430708D01*
Y425460D01*
X430052Y426116D01*
X427428D01*
X426772Y425460D01*
Y423492D01*
X430708Y429396D02*
X426772D01*
X428740Y427428D01*
Y430052D01*
X430708Y433332D02*
X426772D01*
X428740Y431364D01*
Y433988D01*
X458268Y423492D02*
X462204D01*
Y425460D01*
X461548Y426116D01*
X458924D01*
X458268Y425460D01*
Y423492D01*
X462204Y429396D02*
X458268D01*
X460236Y427428D01*
Y430052D01*
X458924Y431364D02*
X458268Y432020D01*
Y433332D01*
X458924Y433988D01*
X459580D01*
X460236Y433332D01*
Y432676D01*
Y433332D01*
X460892Y433988D01*
X461548D01*
X462204Y433332D01*
Y432020D01*
X461548Y431364D01*
X451969Y423492D02*
X455905D01*
Y425460D01*
X455249Y426116D01*
X452625D01*
X451969Y425460D01*
Y423492D01*
X455905Y429396D02*
X451969D01*
X453937Y427428D01*
Y430052D01*
X455905Y433988D02*
Y431364D01*
X453281Y433988D01*
X452625D01*
X451969Y433332D01*
Y432020D01*
X452625Y431364D01*
X433072Y424149D02*
X437007D01*
Y426116D01*
X436351Y426772D01*
X433728D01*
X433072Y426116D01*
Y424149D01*
X437007Y430052D02*
X433072D01*
X435039Y428084D01*
Y430708D01*
X437007Y432020D02*
Y433332D01*
Y432676D01*
X433072D01*
X433728Y432020D01*
X445670Y423492D02*
X449606D01*
Y425460D01*
X448950Y426116D01*
X446326D01*
X445670Y425460D01*
Y423492D01*
X449606Y429396D02*
X445670D01*
X447638Y427428D01*
Y430052D01*
X446326Y431364D02*
X445670Y432020D01*
Y433332D01*
X446326Y433988D01*
X448950D01*
X449606Y433332D01*
Y432020D01*
X448950Y431364D01*
X446326D01*
X401575Y423820D02*
X405511D01*
Y425788D01*
X404855Y426444D01*
X402231D01*
X401575Y425788D01*
Y423820D01*
X405511Y427756D02*
Y429068D01*
Y428412D01*
X401575D01*
X402231Y427756D01*
X405511Y433004D02*
X401575D01*
X403543Y431036D01*
Y433660D01*
X511812Y254923D02*
X515747D01*
Y256891D01*
X515091Y257547D01*
X512468D01*
X511812Y256891D01*
Y254923D01*
X515747Y258859D02*
Y260171D01*
Y259515D01*
X511812D01*
X512468Y258859D01*
Y262138D02*
X511812Y262794D01*
Y264106D01*
X512468Y264762D01*
X513124D01*
X513779Y264106D01*
Y263450D01*
Y264106D01*
X514435Y264762D01*
X515091D01*
X515747Y264106D01*
Y262794D01*
X515091Y262138D01*
X420473Y326051D02*
X424409D01*
Y328019D01*
X423753Y328675D01*
X421129D01*
X420473Y328019D01*
Y326051D01*
X424409Y329987D02*
Y331299D01*
Y330643D01*
X420473D01*
X421129Y329987D01*
X424409Y333267D02*
Y334579D01*
Y333923D01*
X420473D01*
X421129Y333267D01*
X414174Y325395D02*
X418110D01*
Y327363D01*
X417454Y328019D01*
X414830D01*
X414174Y327363D01*
Y325395D01*
X418110Y329331D02*
Y330643D01*
Y329987D01*
X414174D01*
X414830Y329331D01*
Y332611D02*
X414174Y333267D01*
Y334579D01*
X414830Y335235D01*
X417454D01*
X418110Y334579D01*
Y333267D01*
X417454Y332611D01*
X414830D01*
X407875Y327035D02*
X411810D01*
Y329003D01*
X411154Y329659D01*
X408531D01*
X407875Y329003D01*
Y327035D01*
X411154Y330971D02*
X411810Y331627D01*
Y332939D01*
X411154Y333595D01*
X408531D01*
X407875Y332939D01*
Y331627D01*
X408531Y330971D01*
X409187D01*
X409842Y331627D01*
Y333595D01*
X401575Y327035D02*
X405511D01*
Y329003D01*
X404855Y329659D01*
X402231D01*
X401575Y329003D01*
Y327035D01*
X402231Y330971D02*
X401575Y331627D01*
Y332939D01*
X402231Y333595D01*
X402887D01*
X403543Y332939D01*
X404199Y333595D01*
X404855D01*
X405511Y332939D01*
Y331627D01*
X404855Y330971D01*
X404199D01*
X403543Y331627D01*
X402887Y330971D01*
X402231D01*
X403543Y331627D02*
Y332939D01*
X439371Y327035D02*
X443306D01*
Y329003D01*
X442651Y329659D01*
X440027D01*
X439371Y329003D01*
Y327035D01*
Y330971D02*
Y333595D01*
X440027D01*
X442651Y330971D01*
X443306D01*
X426772Y327035D02*
X430708D01*
Y329003D01*
X430052Y329659D01*
X427428D01*
X426772Y329003D01*
Y327035D01*
Y333595D02*
X427428Y332283D01*
X428740Y330971D01*
X430052D01*
X430708Y331627D01*
Y332939D01*
X430052Y333595D01*
X429396D01*
X428740Y332939D01*
Y330971D01*
X433072Y327035D02*
X437007D01*
Y329003D01*
X436351Y329659D01*
X433728D01*
X433072Y329003D01*
Y327035D01*
Y333595D02*
Y330971D01*
X435039D01*
X434383Y332283D01*
Y332939D01*
X435039Y333595D01*
X436351D01*
X437007Y332939D01*
Y331627D01*
X436351Y330971D01*
X407875Y425460D02*
X411810D01*
Y427428D01*
X411154Y428084D01*
X408531D01*
X407875Y427428D01*
Y425460D01*
X411810Y431364D02*
X407875D01*
X409842Y429396D01*
Y432020D01*
X414174Y425460D02*
X418110D01*
Y427428D01*
X417454Y428084D01*
X414830D01*
X414174Y427428D01*
Y425460D01*
X414830Y429396D02*
X414174Y430052D01*
Y431364D01*
X414830Y432020D01*
X415486D01*
X416142Y431364D01*
Y430708D01*
Y431364D01*
X416798Y432020D01*
X417454D01*
X418110Y431364D01*
Y430052D01*
X417454Y429396D01*
X395276Y327035D02*
X399212D01*
Y329003D01*
X398556Y329659D01*
X395932D01*
X395276Y329003D01*
Y327035D01*
X399212Y333595D02*
Y330971D01*
X396588Y333595D01*
X395932D01*
X395276Y332939D01*
Y331627D01*
X395932Y330971D01*
X420473Y426116D02*
X424409D01*
Y428084D01*
X423753Y428740D01*
X421129D01*
X420473Y428084D01*
Y426116D01*
X424409Y430052D02*
Y431364D01*
Y430708D01*
X420473D01*
X421129Y430052D01*
X615272Y505936D02*
X614272Y506936D01*
X612273D01*
X611273Y505936D01*
Y501938D01*
X612273Y500938D01*
X614272D01*
X615272Y501938D01*
X617271Y500938D02*
Y506936D01*
X619270Y504937D01*
X621270Y506936D01*
Y500938D01*
X627268Y505936D02*
X626268Y506936D01*
X624269D01*
X623269Y505936D01*
Y501938D01*
X624269Y500938D01*
X626268D01*
X627268Y501938D01*
X638264Y500938D02*
Y506936D01*
X635265Y503937D01*
X639264D01*
X641263Y505936D02*
X642263Y506936D01*
X644262D01*
X645262Y505936D01*
Y504937D01*
X644262Y503937D01*
X645262Y502937D01*
Y501938D01*
X644262Y500938D01*
X642263D01*
X641263Y501938D01*
Y502937D01*
X642263Y503937D01*
X641263Y504937D01*
Y505936D01*
X642263Y503937D02*
X644262D01*
X653259Y500938D02*
Y506936D01*
X656258D01*
X657258Y505936D01*
Y503937D01*
X656258Y502937D01*
X653259D01*
X659258Y500938D02*
X661257D01*
X660257D01*
Y504937D01*
X659258D01*
X664256Y500938D02*
Y504937D01*
X667255D01*
X668255Y503937D01*
Y500938D01*
X312074Y370998D02*
X311418Y370342D01*
Y369030D01*
X312074Y368374D01*
X314698D01*
X315354Y369030D01*
Y370342D01*
X314698Y370998D01*
Y372309D02*
X315354Y372966D01*
Y374277D01*
X314698Y374933D01*
X312074D01*
X311418Y374277D01*
Y372966D01*
X312074Y372309D01*
X312730D01*
X313386Y372966D01*
Y374933D01*
X326247Y346588D02*
X325591Y345932D01*
Y344620D01*
X326247Y343964D01*
X328871D01*
X329527Y344620D01*
Y345932D01*
X328871Y346588D01*
X326247Y347900D02*
X325591Y348556D01*
Y349868D01*
X326247Y350524D01*
X326903D01*
X327559Y349868D01*
X328215Y350524D01*
X328871D01*
X329527Y349868D01*
Y348556D01*
X328871Y347900D01*
X328215D01*
X327559Y348556D01*
X326903Y347900D01*
X326247D01*
X327559Y348556D02*
Y349868D01*
X318767Y346588D02*
X318111Y345932D01*
Y344620D01*
X318767Y343964D01*
X321391D01*
X322047Y344620D01*
Y345932D01*
X321391Y346588D01*
X318111Y347900D02*
Y350524D01*
X318767D01*
X321391Y347900D01*
X322047D01*
X418373Y347375D02*
X417717Y346720D01*
Y345408D01*
X418373Y344752D01*
X420997D01*
X421653Y345408D01*
Y346720D01*
X420997Y347375D01*
X417717Y351311D02*
X418373Y349999D01*
X419685Y348687D01*
X420997D01*
X421653Y349343D01*
Y350655D01*
X420997Y351311D01*
X420341D01*
X419685Y350655D01*
Y348687D01*
X412074Y347375D02*
X411418Y346720D01*
Y345408D01*
X412074Y344752D01*
X414698D01*
X415354Y345408D01*
Y346720D01*
X414698Y347375D01*
X411418Y351311D02*
Y348688D01*
X413386D01*
X412730Y349999D01*
Y350655D01*
X413386Y351311D01*
X414698D01*
X415354Y350655D01*
Y349343D01*
X414698Y348688D01*
X305775Y392257D02*
X305119Y391601D01*
Y390290D01*
X305775Y389634D01*
X308399D01*
X309054Y390290D01*
Y391601D01*
X308399Y392257D01*
X309054Y395537D02*
X305119D01*
X307087Y393569D01*
Y396193D01*
X312074Y392257D02*
X311418Y391601D01*
Y390290D01*
X312074Y389634D01*
X314698D01*
X315354Y390290D01*
Y391601D01*
X314698Y392257D01*
X312074Y393569D02*
X311418Y394225D01*
Y395537D01*
X312074Y396193D01*
X312730D01*
X313386Y395537D01*
Y394881D01*
Y395537D01*
X314042Y396193D01*
X314698D01*
X315354Y395537D01*
Y394225D01*
X314698Y393569D01*
X403675Y394619D02*
X403019Y395275D01*
X401707D01*
X401051Y394619D01*
Y391995D01*
X401707Y391339D01*
X403019D01*
X403675Y391995D01*
X407611Y391339D02*
X404987D01*
X407611Y393963D01*
Y394619D01*
X406954Y395275D01*
X405643D01*
X404987Y394619D01*
X403937Y361548D02*
X403281Y362204D01*
X401969D01*
X401313Y361548D01*
Y358924D01*
X401969Y358268D01*
X403281D01*
X403937Y358924D01*
X405249Y358268D02*
X406561D01*
X405905D01*
Y362204D01*
X405249Y361548D01*
X500788Y240290D02*
X504724D01*
Y242258D01*
X504068Y242914D01*
X503412D01*
X502756Y242258D01*
Y240290D01*
Y242258D01*
X502100Y242914D01*
X501444D01*
X500788Y242258D01*
Y240290D01*
Y244226D02*
Y246850D01*
Y245538D01*
X504724D01*
Y248162D02*
Y249474D01*
Y248818D01*
X500788D01*
X501444Y248162D01*
D13*
X265748Y259842D02*
X273622D01*
X486221Y255906D02*
Y263779D01*
X482283Y259842D02*
X490158D01*
X265748Y206693D02*
X273622D01*
X269685Y202756D02*
Y210630D01*
X482283Y206693D02*
X490158D01*
X289370Y252970D02*
Y302970D01*
Y252970D02*
X466535D01*
Y302970D01*
X289370D02*
X466535D01*
Y199409D02*
Y249410D01*
X289370D02*
X466535D01*
X289370Y199409D02*
Y249410D01*
Y199409D02*
X466535D01*
X408268Y366339D02*
X409449D01*
X408268Y387205D02*
X409449D01*
X420472Y366339D02*
X421654D01*
X420472Y387205D02*
X421654D01*
X408268Y366339D02*
Y387205D01*
X421654Y366339D02*
Y387205D01*
X470472Y453937D02*
X584646D01*
Y430315D02*
Y453937D01*
X470472Y430315D02*
X584646D01*
X470472D02*
Y453937D01*
D14*
X288976Y347638D02*
X289732D01*
X288976Y335039D02*
Y347638D01*
Y335039D02*
X289732D01*
X293732D02*
X294488D01*
Y347638D01*
X293732D02*
X294488D01*
X288976Y341339D02*
X294488D01*
X511417Y225590D02*
X512173D01*
X511417Y212992D02*
Y225590D01*
Y212992D02*
X512173D01*
X516173D02*
X516929D01*
Y225590D01*
X516173D02*
X516929D01*
X511417Y219291D02*
X516929D01*
X329559Y438189D02*
X330315D01*
Y450787D01*
X329559D02*
X330315D01*
X324803D02*
X325559D01*
X324803Y438189D02*
Y450787D01*
Y438189D02*
X325559D01*
X324803Y444488D02*
X330315D01*
X329134Y352362D02*
X330315D01*
Y363386D01*
X329134D02*
X330315D01*
X324803D02*
X325984D01*
X324803Y352362D02*
Y363386D01*
Y352362D02*
X325984D01*
X324803Y357874D02*
X330315D01*
X321654Y352362D02*
X322835D01*
Y363386D01*
X321654D02*
X322835D01*
X317323D02*
X318504D01*
X317323Y352362D02*
Y363386D01*
Y352362D02*
X318504D01*
X317323Y357874D02*
X322835D01*
X329134Y387402D02*
X330315D01*
Y398425D01*
X329134D02*
X330315D01*
X324803D02*
X325984D01*
X324803Y387402D02*
Y398425D01*
Y387402D02*
X325984D01*
X324803Y392913D02*
X330315D01*
X321654Y387402D02*
X322835D01*
Y398425D01*
X321654D02*
X322835D01*
X317323D02*
X318504D01*
X317323Y387402D02*
Y398425D01*
Y387402D02*
X318504D01*
X317323Y392913D02*
X322835D01*
X329134Y366142D02*
X330315D01*
Y377165D01*
X329134D02*
X330315D01*
X324803D02*
X325984D01*
X324803Y366142D02*
Y377165D01*
Y366142D02*
X325984D01*
X324803Y371654D02*
X330315D01*
X322079Y365354D02*
X322835D01*
Y377953D01*
X322079D02*
X322835D01*
X317323D02*
X318079D01*
X317323Y365354D02*
Y377953D01*
Y365354D02*
X318079D01*
X317323Y371654D02*
X322835D01*
X401164Y342520D02*
X402346D01*
Y353543D01*
X401164D02*
X402346D01*
X396834D02*
X398015D01*
X396834Y342520D02*
Y353543D01*
Y342520D02*
X398015D01*
X396834Y348031D02*
X402346D01*
X408268Y342520D02*
X409449D01*
Y353543D01*
X408268D02*
X409449D01*
X403937D02*
X405118D01*
X403937Y342520D02*
Y353543D01*
Y342520D02*
X405118D01*
X403937Y348031D02*
X409449D01*
X327165Y321260D02*
X327921D01*
X327165Y308661D02*
Y321260D01*
Y308661D02*
X327921D01*
X331921D02*
X332677D01*
Y321260D01*
X331921D02*
X332677D01*
X327165Y314961D02*
X332677D01*
X335827Y321260D02*
X336583D01*
X335827Y308661D02*
Y321260D01*
Y308661D02*
X336583D01*
X340583D02*
X341339D01*
Y321260D01*
X340583D02*
X341339D01*
X335827Y314961D02*
X341339D01*
X353150Y321260D02*
X353906D01*
X353150Y308661D02*
Y321260D01*
Y308661D02*
X353906D01*
X357906D02*
X358661D01*
Y321260D01*
X357906D02*
X358661D01*
X353150Y314961D02*
X358661D01*
X344488Y321260D02*
X345244D01*
X344488Y308661D02*
Y321260D01*
Y308661D02*
X345244D01*
X349244D02*
X350000D01*
Y321260D01*
X349244D02*
X350000D01*
X344488Y314961D02*
X350000D01*
X387795Y321260D02*
X388551D01*
X387795Y308661D02*
Y321260D01*
Y308661D02*
X388551D01*
X392551D02*
X393307D01*
Y321260D01*
X392551D02*
X393307D01*
X387795Y314961D02*
X393307D01*
X379134Y321260D02*
X379890D01*
X379134Y308661D02*
Y321260D01*
Y308661D02*
X379890D01*
X383890D02*
X384646D01*
Y321260D01*
X383890D02*
X384646D01*
X379134Y314961D02*
X384646D01*
X361811Y321260D02*
X362567D01*
X361811Y308661D02*
Y321260D01*
Y308661D02*
X362567D01*
X366567D02*
X367323D01*
Y321260D01*
X366567D02*
X367323D01*
X361811Y314961D02*
X367323D01*
X370472Y321260D02*
X371228D01*
X370472Y308661D02*
Y321260D01*
Y308661D02*
X371228D01*
X375228D02*
X375984D01*
Y321260D01*
X375228D02*
X375984D01*
X370472Y314961D02*
X375984D01*
X278772Y315626D02*
X279528D01*
Y328224D01*
X278772D02*
X279528D01*
X274016D02*
X274772D01*
X274016Y315626D02*
Y328224D01*
Y315626D02*
X274772D01*
X274016Y321925D02*
X279528D01*
X398850Y438189D02*
X399606D01*
Y450787D01*
X398850D02*
X399606D01*
X394094D02*
X394850D01*
X394094Y438189D02*
Y450787D01*
Y438189D02*
X394850D01*
X394094Y444488D02*
X399606D01*
X472441Y324016D02*
Y329528D01*
X466142Y328772D02*
Y329528D01*
X478740D01*
Y328772D02*
Y329528D01*
Y324016D02*
Y324772D01*
X466142Y324016D02*
X478740D01*
X466142D02*
Y324772D01*
X472441Y316142D02*
Y321654D01*
X466142Y320898D02*
Y321654D01*
X478740D01*
Y320898D02*
Y321654D01*
Y316142D02*
Y316898D01*
X466142Y316142D02*
X478740D01*
X466142D02*
Y316898D01*
X307480Y444488D02*
X312992D01*
X307480Y438189D02*
X308236D01*
X307480D02*
Y450787D01*
X308236D01*
X312236D02*
X312992D01*
Y438189D02*
Y450787D01*
X312236Y438189D02*
X312992D01*
X333465Y444488D02*
X338976D01*
X333465Y438189D02*
X334221D01*
X333465D02*
Y450787D01*
X334221D01*
X338221D02*
X338976D01*
Y438189D02*
Y450787D01*
X338221Y438189D02*
X338976D01*
X316142Y444488D02*
X321654D01*
X316142Y438189D02*
X316898D01*
X316142D02*
Y450787D01*
X316898D01*
X320898D02*
X321654D01*
Y438189D02*
Y450787D01*
X320898Y438189D02*
X321654D01*
X359449Y444488D02*
X364961D01*
X359449Y438189D02*
X360205D01*
X359449D02*
Y450787D01*
X360205D01*
X364205D02*
X364961D01*
Y438189D02*
Y450787D01*
X364205Y438189D02*
X364961D01*
X342126Y444488D02*
X347638D01*
X342126Y438189D02*
X342882D01*
X342126D02*
Y450787D01*
X342882D01*
X346882D02*
X347638D01*
Y438189D02*
Y450787D01*
X346882Y438189D02*
X347638D01*
X385433Y444488D02*
X390945D01*
X385433Y438189D02*
X386189D01*
X385433D02*
Y450787D01*
X386189D01*
X390189D02*
X390945D01*
Y438189D02*
Y450787D01*
X390189Y438189D02*
X390945D01*
X368110Y444488D02*
X373622D01*
X368110Y438189D02*
X368866D01*
X368110D02*
Y450787D01*
X368866D01*
X372866D02*
X373622D01*
Y438189D02*
Y450787D01*
X372866Y438189D02*
X373622D01*
X350787Y444488D02*
X356299D01*
X350787Y438189D02*
X351543D01*
X350787D02*
Y450787D01*
X351543D01*
X355543D02*
X356299D01*
Y438189D02*
Y450787D01*
X355543Y438189D02*
X356299D01*
X376772Y444488D02*
X382283D01*
X376772Y438189D02*
X377528D01*
X376772D02*
Y450787D01*
X377528D01*
X381528D02*
X382283D01*
Y438189D02*
Y450787D01*
X381528Y438189D02*
X382283D01*
X400787Y370079D02*
X406299D01*
X400787Y364567D02*
X401968D01*
X400787D02*
Y375591D01*
X401968D01*
X405118D02*
X406299D01*
Y364567D02*
Y375591D01*
X405118Y364567D02*
X406299D01*
X400787Y383465D02*
X406299D01*
X405118Y388976D02*
X406299D01*
Y377953D02*
Y388976D01*
X405118Y377953D02*
X406299D01*
X400787D02*
X401968D01*
X400787D02*
Y388976D01*
X401968D01*
D15*
X236653Y445590D02*
X271496D01*
X236653Y365433D02*
Y445590D01*
Y365433D02*
X271496D01*
Y445590D01*
X236653D02*
X271496D01*
X236653Y365433D02*
Y445590D01*
Y365433D02*
X271496D01*
Y445590D01*
X236653Y410512D02*
X252933D01*
X236653Y400512D02*
X252933D01*
Y410512D01*
X484461Y326667D02*
X481890D01*
X483175Y327953D02*
Y325382D01*
X274224Y311371D02*
X271654D01*
X272939Y312656D02*
Y310086D01*
X484461Y318793D02*
X481890D01*
X483175Y320079D02*
Y317508D01*
D16*
X338542Y352321D02*
X340242D01*
X338542Y405821D02*
Y407521D01*
X392042D02*
X393742D01*
Y352321D02*
Y354021D01*
X338542Y352321D02*
Y354021D01*
Y407521D02*
X340242D01*
X393742Y405821D02*
Y407521D01*
X392042Y352321D02*
X393742D01*
M02*
