G04*
G04 #@! TF.GenerationSoftware,Altium Limited,Altium Designer,21.9.2 (33)*
G04*
G04 Layer_Physical_Order=1*
G04 Layer_Color=255*
%FSLAX25Y25*%
%MOIN*%
G70*
G04*
G04 #@! TF.SameCoordinates,3EA75405-4CE9-4461-8B4E-421F381EEA3C*
G04*
G04*
G04 #@! TF.FilePolarity,Positive*
G04*
G01*
G75*
%ADD11C,0.00984*%
%ADD12C,0.01000*%
%ADD18R,0.03937X0.03543*%
%ADD20R,0.25000X0.20000*%
%ADD27C,0.07795*%
%ADD29C,0.09055*%
%ADD31C,0.06299*%
%ADD35R,0.03543X0.03937*%
%ADD36R,0.03543X0.03150*%
%ADD37R,0.03150X0.03150*%
%ADD38R,0.05800X0.02000*%
%ADD39R,0.02000X0.05800*%
%ADD40R,0.07874X0.09449*%
%ADD41C,0.01968*%
%ADD42C,0.01181*%
%ADD43R,0.06299X0.06299*%
%ADD44C,0.06000*%
%ADD45C,0.08661*%
%ADD46C,0.07874*%
%ADD47C,0.05906*%
%ADD48C,0.16142*%
%ADD49C,0.02362*%
G36*
X643701Y482864D02*
X643314Y482547D01*
X642065Y482795D01*
X640219D01*
X638409Y482435D01*
X636703Y481729D01*
X635169Y480703D01*
X633863Y479398D01*
X632838Y477864D01*
X632132Y476158D01*
X631772Y474348D01*
Y472502D01*
X632132Y470692D01*
X632838Y468987D01*
X633863Y467452D01*
X635169Y466147D01*
X636703Y465122D01*
X638409Y464415D01*
X640219Y464055D01*
X642065D01*
X643314Y464304D01*
X643701Y463986D01*
Y425197D01*
X634878D01*
Y438976D01*
X634800Y439367D01*
X634579Y439697D01*
X634248Y439918D01*
X633858Y439996D01*
X578740Y439996D01*
Y442890D01*
X579485Y443635D01*
X580175Y444829D01*
X580532Y446161D01*
Y447540D01*
X580175Y448872D01*
X579485Y450066D01*
X578740Y450811D01*
X578740Y502917D01*
X643701D01*
Y482864D01*
D02*
G37*
G36*
X576772Y452756D02*
Y452286D01*
X576375Y451982D01*
X575985Y452087D01*
X574606D01*
X573274Y451730D01*
X572080Y451040D01*
X571105Y450066D01*
X570416Y448872D01*
X570059Y447540D01*
Y446161D01*
X570416Y444829D01*
X571105Y443635D01*
X572080Y442660D01*
X573274Y441971D01*
X574606Y441614D01*
X575985D01*
X576375Y441719D01*
X576772Y441414D01*
Y439996D01*
X549213Y439996D01*
Y502917D01*
X576772D01*
Y452756D01*
D02*
G37*
G36*
X517717Y360236D02*
X628236D01*
X628280Y360211D01*
X629361Y359921D01*
X630481D01*
X631563Y360211D01*
X631606Y360236D01*
X638079D01*
X638123Y360211D01*
X639204Y359921D01*
X640324D01*
X641405Y360211D01*
X641449Y360236D01*
X647922D01*
X647965Y360211D01*
X649047Y359921D01*
X650166D01*
X651248Y360211D01*
X651291Y360236D01*
X657764D01*
X657808Y360211D01*
X658889Y359921D01*
X660009D01*
X661090Y360211D01*
X661134Y360236D01*
X668489D01*
Y348425D01*
X661134D01*
X661090Y348450D01*
X660009Y348740D01*
X658889D01*
X657808Y348450D01*
X657764Y348425D01*
X651291D01*
X651248Y348450D01*
X650166Y348740D01*
X649047D01*
X647965Y348450D01*
X647922Y348425D01*
X641449D01*
X641405Y348450D01*
X640324Y348740D01*
X639204D01*
X638123Y348450D01*
X638079Y348425D01*
X631606D01*
X631563Y348450D01*
X630481Y348740D01*
X629361D01*
X628280Y348450D01*
X628236Y348425D01*
X490158D01*
Y441414D01*
X490554Y441719D01*
X490944Y441614D01*
X492323D01*
X493655Y441971D01*
X494849Y442660D01*
X495824Y443635D01*
X496513Y444829D01*
X496870Y446161D01*
Y447540D01*
X496513Y448872D01*
X495824Y450066D01*
X494849Y451040D01*
X493655Y451730D01*
X492323Y452087D01*
X490944D01*
X490554Y451982D01*
X490158Y452286D01*
Y502917D01*
X517717D01*
Y360236D01*
D02*
G37*
G36*
X547244Y438976D02*
X633858Y438976D01*
Y409449D01*
X519685Y409449D01*
Y438976D01*
X519685D01*
Y502917D01*
X547244D01*
Y438976D01*
D02*
G37*
G36*
X668489Y424803D02*
X654331D01*
Y409449D01*
X644488D01*
Y424575D01*
X644643Y424807D01*
X644720Y425197D01*
Y463986D01*
X644710Y464036D01*
X644715Y464086D01*
X644672Y464230D01*
X644643Y464377D01*
X644785Y464683D01*
X644931Y464853D01*
X645580Y465122D01*
X647115Y466147D01*
X648420Y467452D01*
X649445Y468987D01*
X650152Y470692D01*
X650512Y472502D01*
Y474348D01*
X650152Y476158D01*
X649445Y477864D01*
X648420Y479398D01*
X647115Y480703D01*
X645580Y481729D01*
X644931Y481998D01*
X644785Y482167D01*
X644643Y482474D01*
X644672Y482621D01*
X644715Y482764D01*
X644710Y482814D01*
X644720Y482864D01*
Y502917D01*
X644643Y503308D01*
X644488Y503539D01*
Y503937D01*
X237023D01*
Y550378D01*
X668489Y550378D01*
Y424803D01*
D02*
G37*
G36*
X668489Y361727D02*
X668489Y361256D01*
X661134D01*
X661068Y361243D01*
X661001Y361247D01*
X660874Y361204D01*
X660835Y361196D01*
X660826Y361196D01*
X660808Y361191D01*
X660744Y361178D01*
X660732Y361171D01*
X659874Y360941D01*
X659023D01*
X658165Y361171D01*
X658154Y361178D01*
X658089Y361191D01*
X658072Y361196D01*
X658062Y361196D01*
X658023Y361204D01*
X657897Y361247D01*
X657830Y361243D01*
X657764Y361256D01*
X651291D01*
X651225Y361243D01*
X651158Y361247D01*
X651032Y361204D01*
X650993Y361196D01*
X650984Y361196D01*
X650966Y361191D01*
X650901Y361178D01*
X650890Y361171D01*
X650032Y360941D01*
X649181D01*
X648323Y361171D01*
X648312Y361178D01*
X648247Y361191D01*
X648229Y361196D01*
X648220Y361196D01*
X648181Y361204D01*
X648055Y361247D01*
X647987Y361243D01*
X647922Y361256D01*
X641449D01*
X641383Y361243D01*
X641316Y361247D01*
X641189Y361204D01*
X641150Y361196D01*
X641141Y361196D01*
X641123Y361191D01*
X641058Y361178D01*
X641047Y361171D01*
X640189Y360941D01*
X639338D01*
X638480Y361171D01*
X638469Y361178D01*
X638404Y361191D01*
X638386Y361196D01*
X638377Y361196D01*
X638338Y361204D01*
X638212Y361247D01*
X638145Y361243D01*
X638079Y361256D01*
X631606D01*
X631540Y361243D01*
X631473Y361247D01*
X631347Y361204D01*
X631308Y361196D01*
X631299Y361196D01*
X631281Y361191D01*
X631216Y361178D01*
X631205Y361171D01*
X630347Y360941D01*
X629496D01*
X628638Y361171D01*
X628627Y361178D01*
X628562Y361191D01*
X628544Y361196D01*
X628535Y361196D01*
X628496Y361204D01*
X628370Y361247D01*
X628302Y361243D01*
X628236Y361256D01*
X518736D01*
Y408279D01*
X519236Y408546D01*
X519295Y408507D01*
X519685Y408429D01*
X633858Y408429D01*
X634248Y408507D01*
X634579Y408728D01*
X634800Y409059D01*
X634878Y409449D01*
X643469D01*
X643546Y409059D01*
X643767Y408728D01*
X644098Y408507D01*
X644488Y408429D01*
X654331D01*
X654721Y408507D01*
X655052Y408728D01*
X655273Y409059D01*
X655350Y409449D01*
Y423784D01*
X668489D01*
X668489Y361727D01*
D02*
G37*
G36*
X489138Y452286D02*
X489151Y452220D01*
X489147Y452153D01*
X489189Y452027D01*
X489216Y451896D01*
X489103Y451539D01*
X488974Y451361D01*
X488419Y451040D01*
X487444Y450066D01*
X486755Y448872D01*
X486398Y447540D01*
Y446161D01*
X486755Y444829D01*
X487444Y443635D01*
X488419Y442660D01*
X488974Y442340D01*
X489103Y442162D01*
X489216Y441805D01*
X489189Y441674D01*
X489147Y441547D01*
X489151Y441480D01*
X489138Y441414D01*
Y348425D01*
X489216Y348035D01*
X489436Y347704D01*
X489767Y347483D01*
X490158Y347406D01*
X626160D01*
X626407Y346906D01*
X625959Y346129D01*
X625669Y345048D01*
Y343928D01*
X625959Y342847D01*
X626285Y342283D01*
X613236Y329234D01*
X613017Y328906D01*
X612940Y328518D01*
Y230768D01*
X602427Y220255D01*
X601386Y220856D01*
X599954Y221240D01*
X598471D01*
X597040Y220856D01*
X595756Y220115D01*
X594707Y219067D01*
X593966Y217783D01*
X593655Y216622D01*
X591384D01*
X591073Y217783D01*
X590332Y219067D01*
X589284Y220115D01*
X588000Y220856D01*
X586568Y221240D01*
X585086D01*
X583654Y220856D01*
X582370Y220115D01*
X581322Y219067D01*
X580581Y217783D01*
X580197Y216351D01*
Y214869D01*
X580581Y213437D01*
X581322Y212153D01*
X582370Y211105D01*
X583654Y210364D01*
X584918Y210025D01*
X584853Y209525D01*
X577878D01*
X574557Y212846D01*
X574899Y213437D01*
X575282Y214869D01*
Y216351D01*
X574899Y217783D01*
X574158Y219067D01*
X573109Y220115D01*
X571826Y220856D01*
X570394Y221240D01*
X568911D01*
X567479Y220856D01*
X566196Y220115D01*
X565147Y219067D01*
X564406Y217783D01*
X564229Y217124D01*
X561690D01*
X561513Y217783D01*
X560772Y219067D01*
X559724Y220115D01*
X558440Y220856D01*
X557008Y221240D01*
X555525D01*
X554094Y220856D01*
X552810Y220115D01*
X551762Y219067D01*
X551020Y217783D01*
X550637Y216351D01*
Y214869D01*
X551020Y213437D01*
X551762Y212153D01*
X552810Y211105D01*
X554094Y210364D01*
X555525Y209980D01*
X557008D01*
X558440Y210364D01*
X559724Y211105D01*
X560772Y212153D01*
X561513Y213437D01*
X561690Y214097D01*
X564229D01*
X564406Y213437D01*
X565147Y212153D01*
X566196Y211105D01*
X567479Y210364D01*
X568911Y209980D01*
X570394D01*
X571826Y210364D01*
X572417Y210705D01*
X575614Y207509D01*
X575422Y207047D01*
X550086D01*
X544737Y212396D01*
X545339Y213437D01*
X545722Y214869D01*
Y216351D01*
X545339Y217783D01*
X544597Y219067D01*
X543549Y220115D01*
X542266Y220856D01*
X540834Y221240D01*
X539351D01*
X537919Y220856D01*
X536636Y220115D01*
X535587Y219067D01*
X534846Y217783D01*
X534535Y216622D01*
X532264D01*
X531953Y217783D01*
X531212Y219067D01*
X530163Y220115D01*
X528880Y220856D01*
X527448Y221240D01*
X525965D01*
X524534Y220856D01*
X523250Y220115D01*
X522202Y219067D01*
X521460Y217783D01*
X521077Y216351D01*
Y214869D01*
X521460Y213437D01*
X522202Y212153D01*
X523250Y211105D01*
X524534Y210364D01*
X525965Y209980D01*
X527448D01*
X528880Y210364D01*
X530163Y211105D01*
X531212Y212153D01*
X531953Y213437D01*
X532264Y214599D01*
X534535D01*
X534846Y213437D01*
X535587Y212153D01*
X536636Y211105D01*
X537919Y210364D01*
X539351Y209980D01*
X540834D01*
X542266Y210364D01*
X543307Y210965D01*
X548952Y205320D01*
X549280Y205101D01*
X549667Y205024D01*
X605098D01*
X605485Y205101D01*
X605814Y205320D01*
X619613Y219120D01*
X619832Y219448D01*
X619909Y219835D01*
Y266904D01*
X660164Y307159D01*
X660383Y307487D01*
X660460Y307874D01*
Y310830D01*
X661090Y310998D01*
X662060Y311558D01*
X662851Y312350D01*
X663411Y313319D01*
X663701Y314401D01*
Y315520D01*
X663411Y316602D01*
X662851Y317571D01*
X662060Y318363D01*
X661090Y318923D01*
X660009Y319213D01*
X658889D01*
X657808Y318923D01*
X656838Y318363D01*
X656046Y317571D01*
X655487Y316602D01*
X655197Y315520D01*
Y314401D01*
X655487Y313319D01*
X656046Y312350D01*
X656838Y311558D01*
X657808Y310998D01*
X658437Y310830D01*
Y308293D01*
X618887Y268743D01*
X618426Y268934D01*
Y321010D01*
X628165Y330750D01*
X628280Y330683D01*
X629361Y330394D01*
X630481D01*
X631563Y330683D01*
X632532Y331243D01*
X633324Y332035D01*
X633883Y333004D01*
X634173Y334086D01*
Y335206D01*
X633883Y336287D01*
X633324Y337256D01*
X632532Y338048D01*
X631563Y338608D01*
X630481Y338898D01*
X629361D01*
X628280Y338608D01*
X627311Y338048D01*
X626519Y337256D01*
X625959Y336287D01*
X625669Y335206D01*
Y334086D01*
X625959Y333004D01*
X626025Y332890D01*
X615842Y322707D01*
X615514Y322216D01*
X615463Y321960D01*
X614963Y322009D01*
Y328099D01*
X627716Y340852D01*
X628280Y340526D01*
X629361Y340236D01*
X630481D01*
X631563Y340526D01*
X632532Y341086D01*
X633324Y341877D01*
X633883Y342847D01*
X634173Y343928D01*
Y345048D01*
X633883Y346129D01*
X633435Y346906D01*
X633683Y347406D01*
X636002D01*
X636250Y346906D01*
X635802Y346129D01*
X635512Y345048D01*
Y343928D01*
X635802Y342847D01*
X636361Y341877D01*
X637153Y341086D01*
X638123Y340526D01*
X639204Y340236D01*
X640324D01*
X641405Y340526D01*
X642375Y341086D01*
X643166Y341877D01*
X643726Y342847D01*
X644016Y343928D01*
Y345048D01*
X643726Y346129D01*
X643278Y346906D01*
X643525Y347406D01*
X645845D01*
X646092Y346906D01*
X645644Y346129D01*
X645354Y345048D01*
Y343928D01*
X645644Y342847D01*
X646204Y341877D01*
X646996Y341086D01*
X647965Y340526D01*
X649047Y340236D01*
X650166D01*
X651248Y340526D01*
X652217Y341086D01*
X653009Y341877D01*
X653569Y342847D01*
X653858Y343928D01*
Y345048D01*
X653569Y346129D01*
X653120Y346906D01*
X653368Y347406D01*
X655687D01*
X655935Y346906D01*
X655487Y346129D01*
X655197Y345048D01*
Y343928D01*
X655487Y342847D01*
X656046Y341877D01*
X656838Y341086D01*
X657808Y340526D01*
X658889Y340236D01*
X660009D01*
X661090Y340526D01*
X662060Y341086D01*
X662851Y341877D01*
X663411Y342847D01*
X663701Y343928D01*
Y345048D01*
X663411Y346129D01*
X662963Y346906D01*
X663210Y347406D01*
X668489D01*
X668489Y346935D01*
Y197653D01*
X237023Y197653D01*
X237023Y502417D01*
X237023Y502917D01*
X489138D01*
Y452286D01*
D02*
G37*
%LPC*%
G36*
X626558Y463110D02*
X625410D01*
X624285Y462886D01*
X623224Y462447D01*
X622270Y461809D01*
X621458Y460998D01*
X620821Y460043D01*
X620381Y458983D01*
X620157Y457857D01*
Y456710D01*
X620381Y455584D01*
X620821Y454524D01*
X621458Y453569D01*
X622270Y452758D01*
X623224Y452120D01*
X624285Y451681D01*
X625410Y451457D01*
X626558D01*
X627684Y451681D01*
X628744Y452120D01*
X629699Y452758D01*
X630510Y453569D01*
X631148Y454524D01*
X631587Y455584D01*
X631811Y456710D01*
Y457857D01*
X631587Y458983D01*
X631148Y460043D01*
X630510Y460998D01*
X629699Y461809D01*
X628744Y462447D01*
X627684Y462886D01*
X626558Y463110D01*
D02*
G37*
G36*
X660009Y407795D02*
X658889D01*
X657808Y407506D01*
X656838Y406946D01*
X656046Y406154D01*
X655487Y405185D01*
X655197Y404103D01*
Y402984D01*
X655487Y401902D01*
X656046Y400933D01*
X656838Y400141D01*
X657808Y399581D01*
X658889Y399291D01*
X660009D01*
X661090Y399581D01*
X662060Y400141D01*
X662851Y400933D01*
X663411Y401902D01*
X663701Y402984D01*
Y404103D01*
X663411Y405185D01*
X662851Y406154D01*
X662060Y406946D01*
X661090Y407506D01*
X660009Y407795D01*
D02*
G37*
G36*
X650166D02*
X649047D01*
X647965Y407506D01*
X646996Y406946D01*
X646204Y406154D01*
X645644Y405185D01*
X645354Y404103D01*
Y402984D01*
X645644Y401902D01*
X646204Y400933D01*
X646996Y400141D01*
X647965Y399581D01*
X649047Y399291D01*
X650166D01*
X651248Y399581D01*
X652217Y400141D01*
X653009Y400933D01*
X653569Y401902D01*
X653858Y402984D01*
Y404103D01*
X653569Y405185D01*
X653009Y406154D01*
X652217Y406946D01*
X651248Y407506D01*
X650166Y407795D01*
D02*
G37*
G36*
X630481D02*
X629361D01*
X628280Y407506D01*
X627311Y406946D01*
X626519Y406154D01*
X625959Y405185D01*
X625669Y404103D01*
Y402984D01*
X625959Y401902D01*
X626519Y400933D01*
X627311Y400141D01*
X628280Y399581D01*
X629361Y399291D01*
X630481D01*
X631563Y399581D01*
X632532Y400141D01*
X633324Y400933D01*
X633883Y401902D01*
X634173Y402984D01*
Y404103D01*
X633883Y405185D01*
X633324Y406154D01*
X632532Y406946D01*
X631563Y407506D01*
X630481Y407795D01*
D02*
G37*
G36*
X660009Y397953D02*
X658889D01*
X657808Y397663D01*
X656838Y397103D01*
X656046Y396311D01*
X655487Y395342D01*
X655197Y394261D01*
Y393141D01*
X655487Y392060D01*
X656046Y391090D01*
X656838Y390298D01*
X657808Y389739D01*
X658889Y389449D01*
X660009D01*
X661090Y389739D01*
X662060Y390298D01*
X662851Y391090D01*
X663411Y392060D01*
X663701Y393141D01*
Y394261D01*
X663411Y395342D01*
X662851Y396311D01*
X662060Y397103D01*
X661090Y397663D01*
X660009Y397953D01*
D02*
G37*
G36*
X650166D02*
X649047D01*
X647965Y397663D01*
X646996Y397103D01*
X646204Y396311D01*
X645644Y395342D01*
X645354Y394261D01*
Y393141D01*
X645644Y392060D01*
X646204Y391090D01*
X646996Y390298D01*
X647965Y389739D01*
X649047Y389449D01*
X650166D01*
X651248Y389739D01*
X652217Y390298D01*
X653009Y391090D01*
X653569Y392060D01*
X653858Y393141D01*
Y394261D01*
X653569Y395342D01*
X653009Y396311D01*
X652217Y397103D01*
X651248Y397663D01*
X650166Y397953D01*
D02*
G37*
G36*
X640324D02*
X639204D01*
X638123Y397663D01*
X637153Y397103D01*
X636361Y396311D01*
X635802Y395342D01*
X635512Y394261D01*
Y393141D01*
X635802Y392060D01*
X636361Y391090D01*
X637153Y390298D01*
X638123Y389739D01*
X639204Y389449D01*
X640324D01*
X641405Y389739D01*
X642375Y390298D01*
X643166Y391090D01*
X643726Y392060D01*
X644016Y393141D01*
Y394261D01*
X643726Y395342D01*
X643166Y396311D01*
X642375Y397103D01*
X641405Y397663D01*
X640324Y397953D01*
D02*
G37*
G36*
X630481D02*
X629361D01*
X628280Y397663D01*
X627311Y397103D01*
X626519Y396311D01*
X625959Y395342D01*
X625669Y394261D01*
Y393141D01*
X625959Y392060D01*
X626519Y391090D01*
X627311Y390298D01*
X628280Y389739D01*
X629361Y389449D01*
X630481D01*
X631563Y389739D01*
X632532Y390298D01*
X633324Y391090D01*
X633883Y392060D01*
X634173Y393141D01*
Y394261D01*
X633883Y395342D01*
X633324Y396311D01*
X632532Y397103D01*
X631563Y397663D01*
X630481Y397953D01*
D02*
G37*
G36*
X660009Y388110D02*
X658889D01*
X657808Y387821D01*
X656838Y387261D01*
X656046Y386469D01*
X655487Y385500D01*
X655197Y384418D01*
Y383298D01*
X655487Y382217D01*
X656046Y381247D01*
X656838Y380456D01*
X657808Y379896D01*
X658889Y379606D01*
X660009D01*
X661090Y379896D01*
X662060Y380456D01*
X662851Y381247D01*
X663411Y382217D01*
X663701Y383298D01*
Y384418D01*
X663411Y385500D01*
X662851Y386469D01*
X662060Y387261D01*
X661090Y387821D01*
X660009Y388110D01*
D02*
G37*
G36*
X650166D02*
X649047D01*
X647965Y387821D01*
X646996Y387261D01*
X646204Y386469D01*
X645644Y385500D01*
X645354Y384418D01*
Y383298D01*
X645644Y382217D01*
X646204Y381247D01*
X646996Y380456D01*
X647965Y379896D01*
X649047Y379606D01*
X650166D01*
X651248Y379896D01*
X652217Y380456D01*
X653009Y381247D01*
X653569Y382217D01*
X653858Y383298D01*
Y384418D01*
X653569Y385500D01*
X653009Y386469D01*
X652217Y387261D01*
X651248Y387821D01*
X650166Y388110D01*
D02*
G37*
G36*
X640324D02*
X639204D01*
X638123Y387821D01*
X637153Y387261D01*
X636361Y386469D01*
X635802Y385500D01*
X635512Y384418D01*
Y383298D01*
X635802Y382217D01*
X636361Y381247D01*
X637153Y380456D01*
X638123Y379896D01*
X639204Y379606D01*
X640324D01*
X641405Y379896D01*
X642375Y380456D01*
X643166Y381247D01*
X643726Y382217D01*
X644016Y383298D01*
Y384418D01*
X643726Y385500D01*
X643166Y386469D01*
X642375Y387261D01*
X641405Y387821D01*
X640324Y388110D01*
D02*
G37*
G36*
X630481D02*
X629361D01*
X628280Y387821D01*
X627311Y387261D01*
X626519Y386469D01*
X625959Y385500D01*
X625669Y384418D01*
Y383298D01*
X625959Y382217D01*
X626519Y381247D01*
X627311Y380456D01*
X628280Y379896D01*
X629361Y379606D01*
X630481D01*
X631563Y379896D01*
X632532Y380456D01*
X633324Y381247D01*
X633883Y382217D01*
X634173Y383298D01*
Y384418D01*
X633883Y385500D01*
X633324Y386469D01*
X632532Y387261D01*
X631563Y387821D01*
X630481Y388110D01*
D02*
G37*
G36*
X660009Y378268D02*
X658889D01*
X657808Y377978D01*
X656838Y377418D01*
X656046Y376626D01*
X655487Y375657D01*
X655197Y374575D01*
Y373456D01*
X655487Y372375D01*
X656046Y371405D01*
X656838Y370613D01*
X657808Y370054D01*
X658889Y369764D01*
X660009D01*
X661090Y370054D01*
X662060Y370613D01*
X662851Y371405D01*
X663411Y372375D01*
X663701Y373456D01*
Y374575D01*
X663411Y375657D01*
X662851Y376626D01*
X662060Y377418D01*
X661090Y377978D01*
X660009Y378268D01*
D02*
G37*
G36*
X650166D02*
X649047D01*
X647965Y377978D01*
X646996Y377418D01*
X646204Y376626D01*
X645644Y375657D01*
X645354Y374575D01*
Y373456D01*
X645644Y372375D01*
X646204Y371405D01*
X646996Y370613D01*
X647965Y370054D01*
X649047Y369764D01*
X650166D01*
X651248Y370054D01*
X652217Y370613D01*
X653009Y371405D01*
X653569Y372375D01*
X653858Y373456D01*
Y374575D01*
X653569Y375657D01*
X653009Y376626D01*
X652217Y377418D01*
X651248Y377978D01*
X650166Y378268D01*
D02*
G37*
G36*
X640324D02*
X639204D01*
X638123Y377978D01*
X637153Y377418D01*
X636361Y376626D01*
X635802Y375657D01*
X635512Y374575D01*
Y373456D01*
X635802Y372375D01*
X636361Y371405D01*
X637153Y370613D01*
X638123Y370054D01*
X639204Y369764D01*
X640324D01*
X641405Y370054D01*
X642375Y370613D01*
X643166Y371405D01*
X643726Y372375D01*
X644016Y373456D01*
Y374575D01*
X643726Y375657D01*
X643166Y376626D01*
X642375Y377418D01*
X641405Y377978D01*
X640324Y378268D01*
D02*
G37*
G36*
X630481D02*
X629361D01*
X628280Y377978D01*
X627311Y377418D01*
X626519Y376626D01*
X625959Y375657D01*
X625669Y374575D01*
Y373456D01*
X625959Y372375D01*
X626519Y371405D01*
X627311Y370613D01*
X628280Y370054D01*
X629361Y369764D01*
X630481D01*
X631563Y370054D01*
X632532Y370613D01*
X633324Y371405D01*
X633883Y372375D01*
X634173Y373456D01*
Y374575D01*
X633883Y375657D01*
X633324Y376626D01*
X632532Y377418D01*
X631563Y377978D01*
X630481Y378268D01*
D02*
G37*
G36*
X333913Y485020D02*
X332431D01*
X330999Y484636D01*
X329715Y483895D01*
X328667Y482847D01*
X327926Y481563D01*
X327542Y480131D01*
Y478649D01*
X327926Y477217D01*
X328667Y475933D01*
X329715Y474885D01*
X330999Y474144D01*
X332431Y473760D01*
X333913D01*
X335345Y474144D01*
X336629Y474885D01*
X337677Y475933D01*
X338418Y477217D01*
X338802Y478649D01*
Y480131D01*
X338418Y481563D01*
X337677Y482847D01*
X336629Y483895D01*
X335345Y484636D01*
X333913Y485020D01*
D02*
G37*
G36*
X320527D02*
X319045D01*
X317613Y484636D01*
X316329Y483895D01*
X315281Y482847D01*
X314540Y481563D01*
X314156Y480131D01*
Y478649D01*
X314540Y477217D01*
X315281Y475933D01*
X316329Y474885D01*
X317613Y474144D01*
X319045Y473760D01*
X320527D01*
X321959Y474144D01*
X323243Y474885D01*
X324291Y475933D01*
X325032Y477217D01*
X325416Y478649D01*
Y480131D01*
X325032Y481563D01*
X324291Y482847D01*
X323243Y483895D01*
X321959Y484636D01*
X320527Y485020D01*
D02*
G37*
G36*
X304353D02*
X302871D01*
X301439Y484636D01*
X300155Y483895D01*
X299107Y482847D01*
X298366Y481563D01*
X297982Y480131D01*
Y478649D01*
X298366Y477217D01*
X299107Y475933D01*
X300155Y474885D01*
X301439Y474144D01*
X302871Y473760D01*
X304353D01*
X305785Y474144D01*
X307069Y474885D01*
X308117Y475933D01*
X308858Y477217D01*
X309242Y478649D01*
Y480131D01*
X308858Y481563D01*
X308117Y482847D01*
X307069Y483895D01*
X305785Y484636D01*
X304353Y485020D01*
D02*
G37*
G36*
X290967D02*
X289485D01*
X288053Y484636D01*
X286769Y483895D01*
X285721Y482847D01*
X284980Y481563D01*
X284596Y480131D01*
Y478649D01*
X284980Y477217D01*
X285721Y475933D01*
X286769Y474885D01*
X288053Y474144D01*
X289485Y473760D01*
X290967D01*
X292399Y474144D01*
X293683Y474885D01*
X294731Y475933D01*
X295472Y477217D01*
X295856Y478649D01*
Y480131D01*
X295472Y481563D01*
X294731Y482847D01*
X293683Y483895D01*
X292399Y484636D01*
X290967Y485020D01*
D02*
G37*
G36*
X274468D02*
X272986D01*
X271554Y484636D01*
X270270Y483895D01*
X269222Y482847D01*
X268481Y481563D01*
X268097Y480131D01*
Y478649D01*
X268481Y477217D01*
X269222Y475933D01*
X270270Y474885D01*
X271554Y474144D01*
X272986Y473760D01*
X274468D01*
X275900Y474144D01*
X277184Y474885D01*
X278232Y475933D01*
X278973Y477217D01*
X279357Y478649D01*
Y480131D01*
X278973Y481563D01*
X278232Y482847D01*
X277184Y483895D01*
X275900Y484636D01*
X274468Y485020D01*
D02*
G37*
G36*
X261082D02*
X259600D01*
X258168Y484636D01*
X256884Y483895D01*
X255836Y482847D01*
X255095Y481563D01*
X254711Y480131D01*
Y478649D01*
X255095Y477217D01*
X255836Y475933D01*
X256884Y474885D01*
X258168Y474144D01*
X259600Y473760D01*
X261082D01*
X262514Y474144D01*
X263798Y474885D01*
X264846Y475933D01*
X265587Y477217D01*
X265971Y478649D01*
Y480131D01*
X265587Y481563D01*
X264846Y482847D01*
X263798Y483895D01*
X262514Y484636D01*
X261082Y485020D01*
D02*
G37*
G36*
X481714Y485020D02*
X480231D01*
X478799Y484636D01*
X477516Y483895D01*
X476467Y482847D01*
X475726Y481563D01*
X475342Y480131D01*
Y478649D01*
X475726Y477217D01*
X476467Y475933D01*
X477516Y474885D01*
X478799Y474144D01*
X480231Y473760D01*
X481714D01*
X483145Y474144D01*
X484429Y474885D01*
X485477Y475933D01*
X486219Y477217D01*
X486602Y478649D01*
Y480131D01*
X486219Y481563D01*
X485477Y482847D01*
X484429Y483895D01*
X483145Y484636D01*
X481714Y485020D01*
D02*
G37*
G36*
X468328D02*
X466845D01*
X465414Y484636D01*
X464130Y483895D01*
X463082Y482847D01*
X462340Y481563D01*
X461957Y480131D01*
Y478649D01*
X462340Y477217D01*
X463082Y475933D01*
X464130Y474885D01*
X465414Y474144D01*
X466845Y473760D01*
X468328D01*
X469760Y474144D01*
X471043Y474885D01*
X472092Y475933D01*
X472833Y477217D01*
X473216Y478649D01*
Y480131D01*
X472833Y481563D01*
X472092Y482847D01*
X471043Y483895D01*
X469760Y484636D01*
X468328Y485020D01*
D02*
G37*
G36*
X452153D02*
X450671D01*
X449239Y484636D01*
X447956Y483895D01*
X446907Y482847D01*
X446166Y481563D01*
X445782Y480131D01*
Y478649D01*
X446166Y477217D01*
X446907Y475933D01*
X447956Y474885D01*
X449239Y474144D01*
X450671Y473760D01*
X452153D01*
X453585Y474144D01*
X454869Y474885D01*
X455917Y475933D01*
X456659Y477217D01*
X457042Y478649D01*
Y480131D01*
X456659Y481563D01*
X455917Y482847D01*
X454869Y483895D01*
X453585Y484636D01*
X452153Y485020D01*
D02*
G37*
G36*
X438768D02*
X437285D01*
X435853Y484636D01*
X434570Y483895D01*
X433521Y482847D01*
X432780Y481563D01*
X432397Y480131D01*
Y478649D01*
X432780Y477217D01*
X433521Y475933D01*
X434570Y474885D01*
X435853Y474144D01*
X437285Y473760D01*
X438768D01*
X440200Y474144D01*
X441483Y474885D01*
X442531Y475933D01*
X443273Y477217D01*
X443656Y478649D01*
Y480131D01*
X443273Y481563D01*
X442531Y482847D01*
X441483Y483895D01*
X440200Y484636D01*
X438768Y485020D01*
D02*
G37*
G36*
X422593D02*
X421111D01*
X419679Y484636D01*
X418395Y483895D01*
X417347Y482847D01*
X416606Y481563D01*
X416222Y480131D01*
Y478649D01*
X416606Y477217D01*
X417347Y475933D01*
X418395Y474885D01*
X419679Y474144D01*
X421111Y473760D01*
X422593D01*
X424025Y474144D01*
X425309Y474885D01*
X426357Y475933D01*
X427099Y477217D01*
X427482Y478649D01*
Y480131D01*
X427099Y481563D01*
X426357Y482847D01*
X425309Y483895D01*
X424025Y484636D01*
X422593Y485020D01*
D02*
G37*
G36*
X409208D02*
X407725D01*
X406293Y484636D01*
X405010Y483895D01*
X403961Y482847D01*
X403220Y481563D01*
X402837Y480131D01*
Y478649D01*
X403220Y477217D01*
X403961Y475933D01*
X405010Y474885D01*
X406293Y474144D01*
X407725Y473760D01*
X409208D01*
X410639Y474144D01*
X411923Y474885D01*
X412971Y475933D01*
X413713Y477217D01*
X414096Y478649D01*
Y480131D01*
X413713Y481563D01*
X412971Y482847D01*
X411923Y483895D01*
X410639Y484636D01*
X409208Y485020D01*
D02*
G37*
G36*
X393033D02*
X391551D01*
X390119Y484636D01*
X388835Y483895D01*
X387787Y482847D01*
X387046Y481563D01*
X386662Y480131D01*
Y478649D01*
X387046Y477217D01*
X387787Y475933D01*
X388835Y474885D01*
X390119Y474144D01*
X391551Y473760D01*
X393033D01*
X394465Y474144D01*
X395749Y474885D01*
X396797Y475933D01*
X397538Y477217D01*
X397922Y478649D01*
Y480131D01*
X397538Y481563D01*
X396797Y482847D01*
X395749Y483895D01*
X394465Y484636D01*
X393033Y485020D01*
D02*
G37*
G36*
X379648D02*
X378165D01*
X376733Y484636D01*
X375449Y483895D01*
X374401Y482847D01*
X373660Y481563D01*
X373276Y480131D01*
Y478649D01*
X373660Y477217D01*
X374401Y475933D01*
X375449Y474885D01*
X376733Y474144D01*
X378165Y473760D01*
X379648D01*
X381079Y474144D01*
X382363Y474885D01*
X383411Y475933D01*
X384153Y477217D01*
X384536Y478649D01*
Y480131D01*
X384153Y481563D01*
X383411Y482847D01*
X382363Y483895D01*
X381079Y484636D01*
X379648Y485020D01*
D02*
G37*
G36*
X363473D02*
X361991D01*
X360559Y484636D01*
X359275Y483895D01*
X358227Y482847D01*
X357486Y481563D01*
X357102Y480131D01*
Y478649D01*
X357486Y477217D01*
X358227Y475933D01*
X359275Y474885D01*
X360559Y474144D01*
X361991Y473760D01*
X363473D01*
X364905Y474144D01*
X366189Y474885D01*
X367237Y475933D01*
X367978Y477217D01*
X368362Y478649D01*
Y480131D01*
X367978Y481563D01*
X367237Y482847D01*
X366189Y483895D01*
X364905Y484636D01*
X363473Y485020D01*
D02*
G37*
G36*
X350087D02*
X348605D01*
X347173Y484636D01*
X345889Y483895D01*
X344841Y482847D01*
X344100Y481563D01*
X343716Y480131D01*
Y478649D01*
X344100Y477217D01*
X344841Y475933D01*
X345889Y474885D01*
X347173Y474144D01*
X348605Y473760D01*
X350087D01*
X351519Y474144D01*
X352803Y474885D01*
X353851Y475933D01*
X354592Y477217D01*
X354976Y478649D01*
Y480131D01*
X354592Y481563D01*
X353851Y482847D01*
X352803Y483895D01*
X351519Y484636D01*
X350087Y485020D01*
D02*
G37*
G36*
X397284Y454543D02*
X396417D01*
X395615Y454211D01*
X395001Y453598D01*
X394669Y452796D01*
Y451928D01*
X394935Y451287D01*
X394687Y450787D01*
X394291D01*
Y445276D01*
X399410D01*
Y450787D01*
X399013D01*
X398766Y451287D01*
X399031Y451928D01*
Y452796D01*
X398699Y453598D01*
X398086Y454211D01*
X397284Y454543D01*
D02*
G37*
G36*
X388623D02*
X387755D01*
X386953Y454211D01*
X386340Y453598D01*
X386008Y452796D01*
Y451928D01*
X386273Y451287D01*
X386026Y450787D01*
X385630D01*
Y445276D01*
X390748D01*
Y450787D01*
X390352D01*
X390105Y451287D01*
X390370Y451928D01*
Y452796D01*
X390038Y453598D01*
X389424Y454211D01*
X388623Y454543D01*
D02*
G37*
G36*
X379961D02*
X379094D01*
X378292Y454211D01*
X377678Y453598D01*
X377346Y452796D01*
Y451928D01*
X377612Y451287D01*
X377365Y450787D01*
X376969D01*
Y445276D01*
X382087D01*
Y450787D01*
X381691D01*
X381443Y451287D01*
X381709Y451928D01*
Y452796D01*
X381377Y453598D01*
X380763Y454211D01*
X379961Y454543D01*
D02*
G37*
G36*
X371300Y454543D02*
X370432D01*
X369631Y454211D01*
X369017Y453598D01*
X368685Y452796D01*
Y451928D01*
X368951Y451287D01*
X368703Y450787D01*
X368307D01*
Y445276D01*
X373425D01*
Y450787D01*
X373029D01*
X372782Y451287D01*
X373047Y451928D01*
Y452796D01*
X372715Y453598D01*
X372102Y454211D01*
X371300Y454543D01*
D02*
G37*
G36*
X362639Y454543D02*
X361771D01*
X360969Y454211D01*
X360356Y453598D01*
X360024Y452796D01*
Y451928D01*
X360289Y451287D01*
X360042Y450787D01*
X359646D01*
Y445276D01*
X364764D01*
Y450787D01*
X364368D01*
X364120Y451287D01*
X364386Y451928D01*
Y452796D01*
X364054Y453598D01*
X363440Y454211D01*
X362639Y454543D01*
D02*
G37*
G36*
X353977D02*
X353110D01*
X352308Y454211D01*
X351694Y453598D01*
X351362Y452796D01*
Y451928D01*
X351628Y451287D01*
X351380Y450787D01*
X350984D01*
Y445276D01*
X356102D01*
Y450787D01*
X355706D01*
X355459Y451287D01*
X355724Y451928D01*
Y452796D01*
X355392Y453598D01*
X354779Y454211D01*
X353977Y454543D01*
D02*
G37*
G36*
X345316D02*
X344448D01*
X343646Y454211D01*
X343033Y453598D01*
X342701Y452796D01*
Y451928D01*
X342966Y451287D01*
X342719Y450787D01*
X342323D01*
Y445276D01*
X347441D01*
Y450787D01*
X347045D01*
X346798Y451287D01*
X347063Y451928D01*
Y452796D01*
X346731Y453598D01*
X346117Y454211D01*
X345316Y454543D01*
D02*
G37*
G36*
X336654Y454543D02*
X335787D01*
X334985Y454211D01*
X334371Y453598D01*
X334039Y452796D01*
Y451928D01*
X334305Y451287D01*
X334057Y450787D01*
X333662D01*
Y445276D01*
X338780D01*
Y450787D01*
X338384D01*
X338136Y451287D01*
X338402Y451928D01*
Y452796D01*
X338070Y453598D01*
X337456Y454211D01*
X336654Y454543D01*
D02*
G37*
G36*
X327993D02*
X327125D01*
X326324Y454211D01*
X325710Y453598D01*
X325378Y452796D01*
Y451928D01*
X325643Y451287D01*
X325396Y450787D01*
X325000D01*
Y445276D01*
X330118D01*
Y450787D01*
X329722D01*
X329475Y451287D01*
X329740Y451928D01*
Y452796D01*
X329408Y453598D01*
X328795Y454211D01*
X327993Y454543D01*
D02*
G37*
G36*
X319332D02*
X318464D01*
X317662Y454211D01*
X317049Y453598D01*
X316717Y452796D01*
Y451928D01*
X316982Y451287D01*
X316735Y450787D01*
X316339D01*
Y445276D01*
X321457D01*
Y450787D01*
X321061D01*
X320813Y451287D01*
X321079Y451928D01*
Y452796D01*
X320747Y453598D01*
X320133Y454211D01*
X319332Y454543D01*
D02*
G37*
G36*
X310670D02*
X309802D01*
X309001Y454211D01*
X308387Y453598D01*
X308055Y452796D01*
Y451928D01*
X308321Y451287D01*
X308073Y450787D01*
X307677D01*
Y445276D01*
X312795D01*
Y450787D01*
X312399D01*
X312152Y451287D01*
X312417Y451928D01*
Y452796D01*
X312085Y453598D01*
X311472Y454211D01*
X310670Y454543D01*
D02*
G37*
G36*
X477560Y452087D02*
X476181D01*
X474849Y451730D01*
X473655Y451040D01*
X472680Y450066D01*
X471991Y448872D01*
X471634Y447540D01*
Y446161D01*
X471991Y444829D01*
X472680Y443635D01*
X473655Y442660D01*
X474849Y441971D01*
X476181Y441614D01*
X477560D01*
X478891Y441971D01*
X480085Y442660D01*
X481060Y443635D01*
X481749Y444829D01*
X482106Y446161D01*
Y447540D01*
X481749Y448872D01*
X481060Y450066D01*
X480085Y451040D01*
X478891Y451730D01*
X477560Y452087D01*
D02*
G37*
G36*
X399410Y443701D02*
X394291D01*
Y438189D01*
X395831D01*
Y435630D01*
X394409D01*
Y432347D01*
X390870Y428809D01*
X390370Y429016D01*
Y429174D01*
X390038Y429976D01*
X389608Y430406D01*
X389815Y430905D01*
X390849D01*
Y435630D01*
X389209D01*
Y438189D01*
X390748D01*
Y443701D01*
X385630D01*
Y438189D01*
X387169D01*
Y435630D01*
X385731D01*
Y432347D01*
X384132Y430749D01*
X383932Y430767D01*
X383556Y430880D01*
X383391Y431126D01*
X382170Y432347D01*
Y435630D01*
X380547D01*
Y438189D01*
X382087D01*
Y443701D01*
X376969D01*
Y438189D01*
X378508D01*
Y435630D01*
X377052D01*
Y430905D01*
X377901D01*
X378108Y430406D01*
X377678Y429976D01*
X377346Y429174D01*
Y428306D01*
X377678Y427505D01*
X378108Y427075D01*
X377901Y426575D01*
X377052D01*
Y421850D01*
X380321D01*
X380512Y421388D01*
X376421Y417297D01*
X376200Y416966D01*
X376122Y416576D01*
Y413609D01*
X375061D01*
Y430356D01*
X374984Y430746D01*
X374763Y431077D01*
X373492Y432347D01*
Y435630D01*
X371886D01*
Y438189D01*
X373425D01*
Y443701D01*
X368307D01*
Y438189D01*
X369847D01*
Y435630D01*
X368374D01*
Y431753D01*
X367912Y431561D01*
X365662Y433812D01*
X365331Y434033D01*
X364941Y434110D01*
X364814D01*
Y435630D01*
X363224D01*
Y438189D01*
X364764D01*
Y443701D01*
X359646D01*
Y438189D01*
X361185D01*
Y435630D01*
X359696D01*
Y430905D01*
X360578D01*
X360786Y430406D01*
X360356Y429976D01*
X360024Y429174D01*
Y429155D01*
X359524Y428948D01*
X356136Y432336D01*
Y435630D01*
X354555D01*
Y438189D01*
X356102D01*
Y443701D01*
X350984D01*
Y438189D01*
X352532D01*
Y435630D01*
X351018D01*
Y430905D01*
X351917D01*
X352124Y430406D01*
X351694Y429976D01*
X351362Y429174D01*
Y429139D01*
X350862Y428932D01*
X347458Y432336D01*
Y435630D01*
X345894D01*
Y438189D01*
X347441D01*
Y443701D01*
X342323D01*
Y438189D01*
X343870D01*
Y435630D01*
X342340D01*
Y430905D01*
X343256D01*
X343463Y430406D01*
X343033Y429976D01*
X342701Y429174D01*
Y428306D01*
X343033Y427505D01*
X343463Y427075D01*
X343256Y426575D01*
X342340D01*
Y421850D01*
X347458D01*
Y426575D01*
X346508D01*
X346301Y427075D01*
X346731Y427505D01*
X347063Y428306D01*
Y429163D01*
X347096Y429194D01*
X347495Y429438D01*
X349514Y427419D01*
Y422108D01*
X349591Y421721D01*
X349810Y421392D01*
X354345Y416858D01*
X354673Y416639D01*
X355060Y416562D01*
X359080D01*
X361571Y414071D01*
X361380Y413609D01*
X342185D01*
X341475Y414319D01*
Y431584D01*
X341398Y431971D01*
X341178Y432300D01*
X339607Y433871D01*
X339279Y434090D01*
X338892Y434167D01*
X338780D01*
Y435630D01*
X337232D01*
Y438189D01*
X338780D01*
Y443701D01*
X333662D01*
Y438189D01*
X335209D01*
Y435630D01*
X333662D01*
Y430905D01*
X334648D01*
X334850Y430406D01*
X334552Y429686D01*
Y428819D01*
X334884Y428017D01*
X335497Y427403D01*
X335721Y427311D01*
Y426575D01*
X334181D01*
Y427838D01*
X334104Y428225D01*
X333885Y428553D01*
X330101Y432336D01*
Y435630D01*
X328571D01*
Y438189D01*
X330118D01*
Y443701D01*
X325000D01*
Y438189D01*
X326548D01*
Y435630D01*
X324983D01*
Y430905D01*
X325933D01*
X326140Y430406D01*
X325710Y429976D01*
X325378Y429174D01*
Y429088D01*
X324878Y428881D01*
X321423Y432336D01*
Y435630D01*
X319909D01*
Y438189D01*
X321457D01*
Y443701D01*
X316339D01*
Y438189D01*
X317886D01*
Y435630D01*
X316305D01*
Y432235D01*
X315843Y432044D01*
X313763Y434124D01*
X313435Y434343D01*
X313048Y434420D01*
X312745D01*
Y435771D01*
X311248D01*
Y436980D01*
X311248Y436980D01*
Y438189D01*
X312795D01*
Y443701D01*
X307677D01*
Y438189D01*
X309225D01*
Y436980D01*
X309225Y436980D01*
Y435771D01*
X307627D01*
Y431047D01*
X308805D01*
X308934Y430744D01*
X308958Y430547D01*
X308387Y429976D01*
X308055Y429174D01*
Y428306D01*
X308387Y427505D01*
X308676Y427216D01*
X308469Y426716D01*
X307627D01*
Y421992D01*
X312745D01*
Y426716D01*
X312004D01*
X311796Y427216D01*
X312085Y427505D01*
X312417Y428306D01*
Y429174D01*
X312085Y429976D01*
X311514Y430547D01*
X311538Y430744D01*
X311667Y431047D01*
X312745D01*
Y431628D01*
X313207Y431819D01*
X314801Y430225D01*
Y415040D01*
X314878Y414653D01*
X315098Y414325D01*
X330618Y398805D01*
X330615Y398800D01*
X330615Y398800D01*
X330373Y398342D01*
X330092Y398342D01*
X328059D01*
Y395571D01*
X327559D01*
Y395071D01*
X324591D01*
Y392799D01*
X324803D01*
Y391769D01*
X322835D01*
Y392799D01*
X323047D01*
Y395071D01*
X320079D01*
X317110D01*
Y392799D01*
X317323D01*
Y387697D01*
X322835D01*
Y388743D01*
X324803D01*
Y387697D01*
X326046D01*
Y384642D01*
X325710Y384306D01*
X325378Y383505D01*
Y382637D01*
X325710Y381835D01*
X326046Y381500D01*
Y376870D01*
X324803D01*
Y371752D01*
X324803Y371752D01*
Y371555D01*
X324803D01*
X324803Y371252D01*
Y369222D01*
X322638D01*
Y370866D01*
X317520D01*
Y365354D01*
X322638D01*
Y366998D01*
X324803D01*
Y366437D01*
X330315D01*
X330315Y366437D01*
X330752Y366285D01*
Y364151D01*
X330752Y364151D01*
X330837Y363725D01*
X331078Y363364D01*
X331885Y362557D01*
X332245Y362316D01*
X332454Y362275D01*
Y360433D01*
X330315D01*
Y363090D01*
X324803D01*
Y362045D01*
X322835D01*
Y363090D01*
X317323D01*
Y357988D01*
X317110D01*
Y355717D01*
X320079D01*
X323047D01*
Y357988D01*
X322835D01*
Y359018D01*
X324803D01*
Y357988D01*
X324591D01*
Y355717D01*
X327559D01*
Y354717D01*
X324591D01*
Y352445D01*
X327721D01*
Y342520D01*
X327798Y342129D01*
X328019Y341799D01*
X328350Y341578D01*
X328740Y341500D01*
X343846D01*
X344236Y341578D01*
X344567Y341799D01*
X344788Y342129D01*
X344916Y342439D01*
X345235Y342307D01*
X346103D01*
X346760Y342579D01*
X346970Y342072D01*
X347583Y341458D01*
X348385Y341126D01*
X349253D01*
X350054Y341458D01*
X350668Y342072D01*
X350878Y342579D01*
X351535Y342307D01*
X352402D01*
X353061Y342580D01*
X353269Y342076D01*
X353883Y341463D01*
X354684Y341130D01*
X355552D01*
X356354Y341463D01*
X356967Y342076D01*
X357176Y342580D01*
X357834Y342307D01*
X358702D01*
X359358Y342579D01*
X359568Y342072D01*
X360182Y341458D01*
X360983Y341126D01*
X361851D01*
X362653Y341458D01*
X363266Y342072D01*
X363476Y342579D01*
X364133Y342307D01*
X365001D01*
X365802Y342639D01*
X365824Y342635D01*
X365951Y342329D01*
X366564Y341716D01*
X367366Y341383D01*
X368234D01*
X369035Y341716D01*
X369649Y342329D01*
X369981Y343131D01*
Y343998D01*
X369649Y344800D01*
X369035Y345414D01*
X368728Y345541D01*
Y346234D01*
X378323D01*
X378514Y345772D01*
X378466Y345724D01*
X378134Y344922D01*
Y344054D01*
X378466Y343253D01*
X379080Y342639D01*
X379881Y342307D01*
X380749D01*
X381551Y342639D01*
X381996Y343085D01*
X382442Y342639D01*
X383243Y342307D01*
X384111D01*
X384913Y342639D01*
X385526Y343253D01*
X385858Y344054D01*
Y344922D01*
X385526Y345724D01*
X385478Y345772D01*
X385669Y346234D01*
X391529D01*
Y351757D01*
X391991Y351948D01*
X394037Y349903D01*
X394397Y349662D01*
X394823Y349577D01*
X394823Y349577D01*
X396621D01*
Y347917D01*
X396834D01*
Y346887D01*
X395567D01*
X395330Y347125D01*
X394528Y347457D01*
X393661D01*
X392859Y347125D01*
X392245Y346511D01*
X391913Y345709D01*
Y344842D01*
X392245Y344040D01*
X392859Y343426D01*
X393661Y343094D01*
X394528D01*
X395330Y343426D01*
X395764Y343861D01*
X396834D01*
Y342815D01*
X402345D01*
Y343861D01*
X403937D01*
Y342815D01*
X409449D01*
Y347917D01*
X409661D01*
Y350189D01*
X406693D01*
Y350689D01*
X406193D01*
Y353461D01*
X404563D01*
Y364650D01*
X404737Y364862D01*
X406299D01*
Y369980D01*
X406299Y369980D01*
Y370177D01*
X406299D01*
X406299Y370480D01*
Y371725D01*
X410236D01*
Y363386D01*
X419685D01*
Y374410D01*
X410236D01*
Y373748D01*
X406299D01*
Y375295D01*
X402218D01*
X401577Y375937D01*
X401249Y376156D01*
X400861Y376233D01*
X399829D01*
Y377310D01*
X400861D01*
X401248Y377387D01*
X401576Y377606D01*
X402218Y378248D01*
X406299D01*
Y379796D01*
X410236D01*
Y379134D01*
X419685D01*
Y390158D01*
X410236D01*
Y381819D01*
X406299D01*
Y383063D01*
X406299Y383366D01*
X406299D01*
Y383563D01*
X406299D01*
Y388681D01*
X404737D01*
X404563Y388894D01*
Y396202D01*
X420314D01*
X420496Y396080D01*
X420886Y396003D01*
X443862D01*
Y389734D01*
X443646Y389644D01*
X443033Y389031D01*
X442701Y388229D01*
Y387361D01*
X443033Y386560D01*
X443646Y385946D01*
X444448Y385614D01*
X445316D01*
X446117Y385946D01*
X446731Y386560D01*
X447063Y387361D01*
Y388229D01*
X446731Y389031D01*
X446117Y389644D01*
X445901Y389734D01*
Y396436D01*
X445824Y396826D01*
X445603Y397157D01*
X445017Y397743D01*
X444686Y397964D01*
X444296Y398042D01*
X421259D01*
X421077Y398163D01*
X420687Y398241D01*
X399829D01*
Y399402D01*
X421639D01*
X421821Y399280D01*
X422211Y399202D01*
X444296D01*
X444686Y399280D01*
X445017Y399501D01*
X445603Y400087D01*
X445824Y400418D01*
X445901Y400808D01*
Y407510D01*
X446117Y407600D01*
X446731Y408213D01*
X447063Y409015D01*
Y409883D01*
X446731Y410684D01*
X446117Y411298D01*
X445316Y411630D01*
X444448D01*
X443646Y411298D01*
X443033Y410684D01*
X442701Y409883D01*
Y409015D01*
X443033Y408213D01*
X443646Y407600D01*
X443862Y407510D01*
Y401242D01*
X422584D01*
X422402Y401363D01*
X422012Y401441D01*
X404563D01*
Y417323D01*
X404485Y417713D01*
X404264Y418044D01*
X403933Y418265D01*
X403543Y418342D01*
X389682D01*
X389490Y418804D01*
X392070Y421384D01*
X392291Y421714D01*
X392368Y422105D01*
Y427423D01*
X394205Y429260D01*
X394669Y429017D01*
Y428306D01*
X395001Y427505D01*
X395431Y427075D01*
X395224Y426575D01*
X394409D01*
Y421850D01*
X399527D01*
Y426575D01*
X398477D01*
X398270Y427075D01*
X398699Y427505D01*
X399031Y428306D01*
Y429174D01*
X398699Y429976D01*
X398270Y430406D01*
X398477Y430905D01*
X399527D01*
Y435630D01*
X397870D01*
Y438189D01*
X399410D01*
Y443701D01*
D02*
G37*
G36*
X289326Y429961D02*
X288155D01*
X287023Y429657D01*
X286009Y429072D01*
X285180Y428243D01*
X284594Y427229D01*
X284291Y426097D01*
Y424926D01*
X284594Y423795D01*
X285180Y422780D01*
X286009Y421952D01*
X287023Y421366D01*
X288155Y421063D01*
X289326D01*
X290457Y421366D01*
X291472Y421952D01*
X292300Y422780D01*
X292886Y423795D01*
X293189Y424926D01*
Y426097D01*
X292886Y427229D01*
X292300Y428243D01*
X291472Y429072D01*
X290457Y429657D01*
X289326Y429961D01*
D02*
G37*
G36*
X279326D02*
X278154D01*
X277023Y429657D01*
X276009Y429072D01*
X275180Y428243D01*
X274594Y427229D01*
X274291Y426097D01*
Y424926D01*
X274594Y423795D01*
X275180Y422780D01*
X276009Y421952D01*
X277023Y421366D01*
X278154Y421063D01*
X279326D01*
X280457Y421366D01*
X281472Y421952D01*
X282300Y422780D01*
X282886Y423795D01*
X283189Y424926D01*
Y426097D01*
X282886Y427229D01*
X282300Y428243D01*
X281472Y429072D01*
X280457Y429657D01*
X279326Y429961D01*
D02*
G37*
G36*
Y419961D02*
X278154D01*
X277023Y419657D01*
X276009Y419072D01*
X275180Y418243D01*
X274594Y417229D01*
X274291Y416097D01*
Y414926D01*
X274594Y413795D01*
X275180Y412780D01*
X276009Y411952D01*
X277023Y411366D01*
X278154Y411063D01*
X279326D01*
X280457Y411366D01*
X281472Y411952D01*
X282300Y412780D01*
X282886Y413795D01*
X283189Y414926D01*
Y416097D01*
X282886Y417229D01*
X282300Y418243D01*
X281472Y419072D01*
X280457Y419657D01*
X279326Y419961D01*
D02*
G37*
G36*
X483505Y413598D02*
X482637D01*
X481835Y413266D01*
X481222Y412653D01*
X480890Y411851D01*
Y410984D01*
X481222Y410182D01*
X481835Y409568D01*
X482637Y409236D01*
X483505D01*
X484306Y409568D01*
X484920Y410182D01*
X485252Y410984D01*
Y411851D01*
X484920Y412653D01*
X484306Y413266D01*
X483505Y413598D01*
D02*
G37*
G36*
X483505Y406512D02*
X482637D01*
X481835Y406180D01*
X481222Y405566D01*
X480890Y404765D01*
Y403897D01*
X481222Y403095D01*
X481835Y402482D01*
X482637Y402150D01*
X483505D01*
X484306Y402482D01*
X484920Y403095D01*
X485252Y403897D01*
Y404765D01*
X484920Y405566D01*
X484306Y406180D01*
X483505Y406512D01*
D02*
G37*
G36*
X289326Y409961D02*
X288155D01*
X287023Y409657D01*
X286009Y409072D01*
X285180Y408243D01*
X284594Y407229D01*
X284291Y406098D01*
Y404926D01*
X284594Y403795D01*
X285180Y402780D01*
X286009Y401952D01*
X287023Y401366D01*
X288155Y401063D01*
X289326D01*
X290457Y401366D01*
X291472Y401952D01*
X292300Y402780D01*
X292886Y403795D01*
X293189Y404926D01*
Y406098D01*
X292886Y407229D01*
X292300Y408243D01*
X291472Y409072D01*
X290457Y409657D01*
X289326Y409961D01*
D02*
G37*
G36*
X279326D02*
X278154D01*
X277023Y409657D01*
X276009Y409072D01*
X275180Y408243D01*
X274594Y407229D01*
X274291Y406098D01*
Y404926D01*
X274594Y403795D01*
X275180Y402780D01*
X276009Y401952D01*
X277023Y401366D01*
X278154Y401063D01*
X279326D01*
X280457Y401366D01*
X281472Y401952D01*
X282300Y402780D01*
X282886Y403795D01*
X283189Y404926D01*
Y406098D01*
X282886Y407229D01*
X282300Y408243D01*
X281472Y409072D01*
X280457Y409657D01*
X279326Y409961D01*
D02*
G37*
G36*
X323047Y398342D02*
X320579D01*
Y396071D01*
X323047D01*
Y398342D01*
D02*
G37*
G36*
X327059D02*
X324591D01*
Y396071D01*
X327059D01*
Y398342D01*
D02*
G37*
G36*
X319579D02*
X317110D01*
Y396071D01*
X319579D01*
Y398342D01*
D02*
G37*
G36*
X483505Y395488D02*
X482637D01*
X481835Y395156D01*
X481222Y394543D01*
X480890Y393741D01*
Y392873D01*
X481222Y392072D01*
X481835Y391458D01*
X482637Y391126D01*
X483505D01*
X484306Y391458D01*
X484920Y392072D01*
X485252Y392873D01*
Y393741D01*
X484920Y394543D01*
X484306Y395156D01*
X483505Y395488D01*
D02*
G37*
G36*
X289326Y399961D02*
X288155D01*
X287023Y399657D01*
X286009Y399072D01*
X285180Y398243D01*
X284594Y397229D01*
X284291Y396097D01*
Y394926D01*
X284594Y393795D01*
X285180Y392780D01*
X286009Y391952D01*
X287023Y391366D01*
X288155Y391063D01*
X289326D01*
X290457Y391366D01*
X291472Y391952D01*
X292300Y392780D01*
X292886Y393795D01*
X293189Y394926D01*
Y396097D01*
X292886Y397229D01*
X292300Y398243D01*
X291472Y399072D01*
X290457Y399657D01*
X289326Y399961D01*
D02*
G37*
G36*
X483505Y388402D02*
X482637D01*
X481835Y388070D01*
X481222Y387456D01*
X480890Y386654D01*
Y385787D01*
X481222Y384985D01*
X481835Y384371D01*
X482637Y384039D01*
X483505D01*
X484306Y384371D01*
X484920Y384985D01*
X485252Y385787D01*
Y386654D01*
X484920Y387456D01*
X484306Y388070D01*
X483505Y388402D01*
D02*
G37*
G36*
X293189Y389961D02*
X284291D01*
Y381063D01*
X293189D01*
Y389961D01*
D02*
G37*
G36*
X279326D02*
X278154D01*
X277023Y389657D01*
X276009Y389072D01*
X275180Y388243D01*
X274594Y387229D01*
X274291Y386098D01*
Y384926D01*
X274594Y383795D01*
X275180Y382780D01*
X276009Y381952D01*
X277023Y381366D01*
X278154Y381063D01*
X279326D01*
X280457Y381366D01*
X281472Y381952D01*
X282300Y382780D01*
X282886Y383795D01*
X283189Y384926D01*
Y386098D01*
X282886Y387229D01*
X282300Y388243D01*
X281472Y389072D01*
X280457Y389657D01*
X279326Y389961D01*
D02*
G37*
G36*
X322850Y378165D02*
X320579D01*
Y375697D01*
X322850D01*
Y378165D01*
D02*
G37*
G36*
X319579D02*
X317307D01*
Y375697D01*
X319579D01*
Y378165D01*
D02*
G37*
G36*
X322850Y374697D02*
X320579D01*
Y372228D01*
X322850D01*
Y374697D01*
D02*
G37*
G36*
X319579D02*
X317307D01*
Y372228D01*
X319579D01*
Y374697D01*
D02*
G37*
G36*
X323047Y354717D02*
X320579D01*
Y352445D01*
X323047D01*
Y354717D01*
D02*
G37*
G36*
X319579D02*
X317110D01*
Y352445D01*
X319579D01*
Y354717D01*
D02*
G37*
G36*
X409661Y353461D02*
X407193D01*
Y351189D01*
X409661D01*
Y353461D01*
D02*
G37*
G36*
X294504Y347850D02*
X292232D01*
Y345382D01*
X294504D01*
Y347850D01*
D02*
G37*
G36*
X291232D02*
X288961D01*
Y345382D01*
X291232D01*
Y347850D01*
D02*
G37*
G36*
X294504Y344382D02*
X292232D01*
Y341913D01*
X294504D01*
Y344382D01*
D02*
G37*
G36*
X291232D02*
X288961D01*
Y341913D01*
X291232D01*
Y344382D01*
D02*
G37*
G36*
X294504Y340764D02*
X292232D01*
Y338295D01*
X294504D01*
Y340764D01*
D02*
G37*
G36*
X291232D02*
X288961D01*
Y338295D01*
X291232D01*
Y340764D01*
D02*
G37*
G36*
X294504Y337295D02*
X292232D01*
Y334827D01*
X294504D01*
Y337295D01*
D02*
G37*
G36*
X291232D02*
X288961D01*
Y334827D01*
X291232D01*
Y337295D01*
D02*
G37*
G36*
X264739Y342391D02*
X263607D01*
X262514Y342098D01*
X261533Y341532D01*
X260733Y340731D01*
X260167Y339751D01*
X259874Y338657D01*
Y337526D01*
X260167Y336432D01*
X260733Y335452D01*
X261533Y334651D01*
X262514Y334085D01*
X263607Y333792D01*
X264739D01*
X265833Y334085D01*
X266813Y334651D01*
X267614Y335452D01*
X268179Y336432D01*
X268472Y337526D01*
Y338657D01*
X268179Y339751D01*
X267614Y340731D01*
X266813Y341532D01*
X265833Y342098D01*
X264739Y342391D01*
D02*
G37*
G36*
X254739D02*
X253607D01*
X252514Y342098D01*
X251533Y341532D01*
X250733Y340731D01*
X250167Y339751D01*
X249874Y338657D01*
Y337526D01*
X250167Y336432D01*
X250733Y335452D01*
X251533Y334651D01*
X252514Y334085D01*
X253607Y333792D01*
X254739D01*
X255833Y334085D01*
X256813Y334651D01*
X257613Y335452D01*
X258179Y336432D01*
X258472Y337526D01*
Y338657D01*
X258179Y339751D01*
X257613Y340731D01*
X256813Y341532D01*
X255833Y342098D01*
X254739Y342391D01*
D02*
G37*
G36*
X358398Y337598D02*
X353279D01*
Y332874D01*
X353279Y332874D01*
X353279D01*
X352864Y332625D01*
X352701Y332558D01*
X352088Y331944D01*
X351756Y331142D01*
Y330275D01*
X352088Y329473D01*
X352701Y328860D01*
X352855Y328796D01*
X353279Y328543D01*
X353279D01*
X353279Y328543D01*
Y323819D01*
X354827D01*
Y321260D01*
X353346D01*
Y315748D01*
X358465D01*
Y321260D01*
X356850D01*
Y323819D01*
X358398D01*
Y328543D01*
X358716Y328860D01*
X359329Y329473D01*
X359661Y330275D01*
Y331142D01*
X359329Y331944D01*
X358716Y332558D01*
X358716Y332558D01*
X358715Y332559D01*
X358398Y332874D01*
Y337598D01*
D02*
G37*
G36*
X349719D02*
X344601D01*
Y332874D01*
X344601Y332874D01*
X344601D01*
X344187Y332618D01*
X344040Y332558D01*
X343426Y331944D01*
X343094Y331142D01*
Y330275D01*
X343426Y329473D01*
X344040Y328860D01*
X344179Y328802D01*
X344601Y328543D01*
X344601D01*
X344601Y328543D01*
Y323819D01*
X346149D01*
Y321260D01*
X344685D01*
Y315748D01*
X349803D01*
Y321260D01*
X348172D01*
Y323819D01*
X349719D01*
Y328543D01*
X350054Y328860D01*
X350668Y329473D01*
X351000Y330275D01*
Y331142D01*
X350668Y331944D01*
X350054Y332558D01*
X350041Y332570D01*
X349719Y332932D01*
X349719Y333334D01*
Y337598D01*
D02*
G37*
G36*
X332363D02*
X327245D01*
Y332874D01*
X327245Y332874D01*
X327245D01*
X326834Y332606D01*
X326717Y332558D01*
X326104Y331944D01*
X325772Y331142D01*
Y330275D01*
X326104Y329473D01*
X326717Y328860D01*
X326826Y328815D01*
X327245Y328543D01*
X327245D01*
X327245Y328543D01*
Y323819D01*
X328792D01*
Y321260D01*
X327362D01*
Y315748D01*
X332480D01*
Y321260D01*
X330816D01*
Y323819D01*
X332363D01*
Y328543D01*
X332732Y328860D01*
X333345Y329473D01*
X333677Y330275D01*
Y331142D01*
X333345Y331944D01*
X332732Y332558D01*
X332732Y332558D01*
X332705Y332580D01*
X332363Y332874D01*
Y337598D01*
D02*
G37*
G36*
X660009Y338898D02*
X658889D01*
X657808Y338608D01*
X656838Y338048D01*
X656046Y337256D01*
X655487Y336287D01*
X655197Y335206D01*
Y334086D01*
X655487Y333004D01*
X656046Y332035D01*
X656838Y331243D01*
X657808Y330683D01*
X658889Y330394D01*
X660009D01*
X661090Y330683D01*
X662060Y331243D01*
X662851Y332035D01*
X663411Y333004D01*
X663701Y334086D01*
Y335206D01*
X663411Y336287D01*
X662851Y337256D01*
X662060Y338048D01*
X661090Y338608D01*
X660009Y338898D01*
D02*
G37*
G36*
X650166D02*
X649047D01*
X647965Y338608D01*
X646996Y338048D01*
X646204Y337256D01*
X645644Y336287D01*
X645354Y335206D01*
Y334086D01*
X645644Y333004D01*
X646204Y332035D01*
X646996Y331243D01*
X647965Y330683D01*
X649047Y330394D01*
X650166D01*
X651248Y330683D01*
X652217Y331243D01*
X653009Y332035D01*
X653569Y333004D01*
X653858Y334086D01*
Y335206D01*
X653569Y336287D01*
X653009Y337256D01*
X652217Y338048D01*
X651248Y338608D01*
X650166Y338898D01*
D02*
G37*
G36*
X640324D02*
X639204D01*
X638123Y338608D01*
X637153Y338048D01*
X636361Y337256D01*
X635802Y336287D01*
X635512Y335206D01*
Y334086D01*
X635802Y333004D01*
X636361Y332035D01*
X637153Y331243D01*
X638123Y330683D01*
X639204Y330394D01*
X640324D01*
X641405Y330683D01*
X642375Y331243D01*
X643166Y332035D01*
X643726Y333004D01*
X644016Y334086D01*
Y335206D01*
X643726Y336287D01*
X643166Y337256D01*
X642375Y338048D01*
X641405Y338608D01*
X640324Y338898D01*
D02*
G37*
G36*
X393110Y337598D02*
X387992D01*
Y332874D01*
X387720Y332487D01*
X387178Y331944D01*
X386845Y331142D01*
Y330275D01*
X387178Y329473D01*
X387720Y328931D01*
X387992Y328543D01*
Y323819D01*
X389439D01*
Y321260D01*
X387992D01*
Y315748D01*
X393110D01*
Y321260D01*
X391663D01*
Y323819D01*
X393110D01*
Y328543D01*
X393110Y328543D01*
X393110D01*
X393532Y328767D01*
X393755Y328860D01*
X394369Y329473D01*
X394701Y330275D01*
Y331142D01*
X394369Y331944D01*
X393755Y332558D01*
X393539Y332647D01*
X393110Y332874D01*
X393110D01*
X393110Y332874D01*
Y337598D01*
D02*
G37*
G36*
X384432D02*
X379314D01*
Y332874D01*
X379042Y332487D01*
X378499Y331944D01*
X378167Y331142D01*
Y330275D01*
X378499Y329473D01*
X379042Y328931D01*
X379314Y328543D01*
Y323819D01*
X380761D01*
Y321260D01*
X379331D01*
Y315748D01*
X384449D01*
Y321260D01*
X382985D01*
Y323819D01*
X384432D01*
Y328543D01*
X384432Y328543D01*
X384432D01*
X384858Y328748D01*
X385127Y328860D01*
X385741Y329473D01*
X386073Y330275D01*
Y331142D01*
X385741Y331944D01*
X385127Y332558D01*
X384864Y332667D01*
X384432Y332874D01*
X384432D01*
X384432Y332874D01*
Y337598D01*
D02*
G37*
G36*
X367076D02*
X361958D01*
Y332874D01*
X361686Y332487D01*
X361143Y331944D01*
X360811Y331142D01*
Y330275D01*
X361143Y329473D01*
X361686Y328931D01*
X361958Y328543D01*
Y323819D01*
X363505D01*
Y321260D01*
X362008D01*
Y315748D01*
X367126D01*
Y321260D01*
X365528D01*
Y323819D01*
X367076D01*
Y328543D01*
X367076Y328543D01*
X367076D01*
X367502Y328748D01*
X367771Y328860D01*
X368385Y329473D01*
X368717Y330275D01*
Y331142D01*
X368385Y331944D01*
X367771Y332558D01*
X367508Y332667D01*
X367076Y332874D01*
X367076D01*
X367076Y332874D01*
Y337598D01*
D02*
G37*
G36*
X375754D02*
X370636D01*
Y332874D01*
X370364Y332487D01*
X369821Y331944D01*
X369489Y331142D01*
Y330275D01*
X369821Y329473D01*
X370364Y328931D01*
X370636Y328543D01*
Y323819D01*
X372083D01*
Y321260D01*
X370669D01*
Y315748D01*
X375787D01*
Y321260D01*
X374307D01*
Y323819D01*
X375754D01*
Y328543D01*
X375754Y328543D01*
X375754D01*
X376182Y328740D01*
X376432Y328844D01*
X377046Y329457D01*
X377378Y330259D01*
Y331127D01*
X377046Y331928D01*
X376432Y332542D01*
X376182Y332646D01*
X375754Y332874D01*
X375754D01*
X375754Y332874D01*
Y337598D01*
D02*
G37*
G36*
X471654Y329331D02*
X466142D01*
Y328595D01*
X465642Y328388D01*
X465409Y328621D01*
X464607Y328953D01*
X463739D01*
X462938Y328621D01*
X462324Y328007D01*
X461992Y327205D01*
Y326338D01*
X462324Y325536D01*
X462938Y324923D01*
X463739Y324590D01*
X464607D01*
X465409Y324923D01*
X465642Y325156D01*
X466142Y324949D01*
Y324213D01*
X471654D01*
Y329331D01*
D02*
G37*
G36*
X279543Y328437D02*
X277272D01*
Y325968D01*
X279543D01*
Y328437D01*
D02*
G37*
G36*
X276272D02*
X274000D01*
Y325968D01*
X276272D01*
Y328437D01*
D02*
G37*
G36*
X495669Y329134D02*
X490945D01*
Y324410D01*
X495669D01*
Y324609D01*
X496169Y324856D01*
X496810Y324590D01*
X497678D01*
X498480Y324923D01*
X499093Y325536D01*
X499425Y326338D01*
Y327205D01*
X499093Y328007D01*
X498480Y328621D01*
X497678Y328953D01*
X496810D01*
X496169Y328687D01*
X495669Y328935D01*
Y329134D01*
D02*
G37*
G36*
X478740Y329331D02*
X473228D01*
Y324213D01*
X478740D01*
Y325760D01*
X484646D01*
Y324410D01*
X489370D01*
Y329134D01*
X484646D01*
Y327783D01*
X478740D01*
Y329331D01*
D02*
G37*
G36*
X279543Y324968D02*
X277272D01*
Y322500D01*
X279543D01*
Y324968D01*
D02*
G37*
G36*
X276272D02*
X274000D01*
Y322500D01*
X276272D01*
Y324968D01*
D02*
G37*
G36*
X660009Y329055D02*
X658889D01*
X657808Y328765D01*
X656838Y328206D01*
X656046Y327414D01*
X655487Y326444D01*
X655197Y325363D01*
Y324243D01*
X655487Y323162D01*
X656046Y322192D01*
X656838Y321401D01*
X657808Y320841D01*
X658889Y320551D01*
X660009D01*
X661090Y320841D01*
X662060Y321401D01*
X662851Y322192D01*
X663411Y323162D01*
X663701Y324243D01*
Y325363D01*
X663411Y326444D01*
X662851Y327414D01*
X662060Y328206D01*
X661090Y328765D01*
X660009Y329055D01*
D02*
G37*
G36*
X650166D02*
X649047D01*
X647965Y328765D01*
X646996Y328206D01*
X646204Y327414D01*
X645644Y326444D01*
X645354Y325363D01*
Y324243D01*
X645644Y323162D01*
X646204Y322192D01*
X646996Y321401D01*
X647965Y320841D01*
X649047Y320551D01*
X650166D01*
X651248Y320841D01*
X652217Y321401D01*
X653009Y322192D01*
X653569Y323162D01*
X653858Y324243D01*
Y325363D01*
X653569Y326444D01*
X653009Y327414D01*
X652217Y328206D01*
X651248Y328765D01*
X650166Y329055D01*
D02*
G37*
G36*
X640324D02*
X639204D01*
X638123Y328765D01*
X637153Y328206D01*
X636361Y327414D01*
X635802Y326444D01*
X635512Y325363D01*
Y324243D01*
X635802Y323162D01*
X636361Y322192D01*
X637153Y321401D01*
X638123Y320841D01*
X639204Y320551D01*
X640324D01*
X641405Y320841D01*
X642375Y321401D01*
X643166Y322192D01*
X643726Y323162D01*
X644016Y324243D01*
Y325363D01*
X643726Y326444D01*
X643166Y327414D01*
X642375Y328206D01*
X641405Y328765D01*
X640324Y329055D01*
D02*
G37*
G36*
X630481D02*
X629361D01*
X628280Y328765D01*
X627311Y328206D01*
X626519Y327414D01*
X625959Y326444D01*
X625669Y325363D01*
Y324243D01*
X625959Y323162D01*
X626519Y322192D01*
X627311Y321401D01*
X628280Y320841D01*
X629361Y320551D01*
X630481D01*
X631563Y320841D01*
X632532Y321401D01*
X633324Y322192D01*
X633883Y323162D01*
X634173Y324243D01*
Y325363D01*
X633883Y326444D01*
X633324Y327414D01*
X632532Y328206D01*
X631563Y328765D01*
X630481Y329055D01*
D02*
G37*
G36*
X471654Y321457D02*
X466142D01*
Y320721D01*
X465642Y320514D01*
X465409Y320747D01*
X464607Y321079D01*
X463739D01*
X462938Y320747D01*
X462324Y320133D01*
X461992Y319332D01*
Y318464D01*
X462324Y317662D01*
X462938Y317049D01*
X463739Y316717D01*
X464607D01*
X465409Y317049D01*
X465642Y317282D01*
X466142Y317074D01*
Y316339D01*
X471654D01*
Y321457D01*
D02*
G37*
G36*
X495669Y321260D02*
X490945D01*
Y316535D01*
X495669D01*
Y316735D01*
X496169Y316982D01*
X496810Y316717D01*
X497678D01*
X498480Y317049D01*
X499093Y317662D01*
X499425Y318464D01*
Y319332D01*
X499093Y320133D01*
X498480Y320747D01*
X497678Y321079D01*
X496810D01*
X496169Y320813D01*
X495669Y321061D01*
Y321260D01*
D02*
G37*
G36*
X478740Y321457D02*
X473228D01*
Y316339D01*
X478740D01*
Y317886D01*
X484646D01*
Y316535D01*
X489370D01*
Y321260D01*
X484646D01*
Y319909D01*
X478740D01*
Y321457D01*
D02*
G37*
G36*
X341041Y337598D02*
X335923D01*
Y332943D01*
X335257Y332667D01*
X334643Y332054D01*
X334311Y331252D01*
Y330384D01*
X334643Y329583D01*
X335257Y328969D01*
X335549Y328848D01*
X335923Y328543D01*
Y323819D01*
X337471D01*
Y321260D01*
X336024D01*
Y315748D01*
X341142D01*
Y321260D01*
X339494D01*
Y323819D01*
X341041D01*
Y328543D01*
X341393Y328860D01*
X342006Y329473D01*
X342339Y330275D01*
Y331142D01*
X342006Y331944D01*
X341393Y332558D01*
X341393Y332558D01*
X341367Y332580D01*
X341041Y332874D01*
Y337598D01*
D02*
G37*
G36*
X650166Y319213D02*
X649047D01*
X647965Y318923D01*
X646996Y318363D01*
X646204Y317571D01*
X645644Y316602D01*
X645354Y315520D01*
Y314401D01*
X645644Y313319D01*
X646204Y312350D01*
X646996Y311558D01*
X647965Y310998D01*
X649047Y310709D01*
X650166D01*
X651248Y310998D01*
X652217Y311558D01*
X653009Y312350D01*
X653569Y313319D01*
X653858Y314401D01*
Y315520D01*
X653569Y316602D01*
X653009Y317571D01*
X652217Y318363D01*
X651248Y318923D01*
X650166Y319213D01*
D02*
G37*
G36*
X640324D02*
X639204D01*
X638123Y318923D01*
X637153Y318363D01*
X636361Y317571D01*
X635802Y316602D01*
X635512Y315520D01*
Y314401D01*
X635802Y313319D01*
X636361Y312350D01*
X637153Y311558D01*
X638123Y310998D01*
X639204Y310709D01*
X640324D01*
X641405Y310998D01*
X642375Y311558D01*
X643166Y312350D01*
X643726Y313319D01*
X644016Y314401D01*
Y315520D01*
X643726Y316602D01*
X643166Y317571D01*
X642375Y318363D01*
X641405Y318923D01*
X640324Y319213D01*
D02*
G37*
G36*
X630481D02*
X629361D01*
X628280Y318923D01*
X627311Y318363D01*
X626519Y317571D01*
X625959Y316602D01*
X625669Y315520D01*
Y314401D01*
X625959Y313319D01*
X626519Y312350D01*
X627311Y311558D01*
X628280Y310998D01*
X629361Y310709D01*
X630481D01*
X631563Y310998D01*
X632532Y311558D01*
X633324Y312350D01*
X633883Y313319D01*
X634173Y314401D01*
Y315520D01*
X633883Y316602D01*
X633324Y317571D01*
X632532Y318363D01*
X631563Y318923D01*
X630481Y319213D01*
D02*
G37*
G36*
X285433Y313838D02*
X280709D01*
Y309113D01*
X285433D01*
Y310464D01*
X286247D01*
X286340Y310240D01*
X286953Y309626D01*
X287755Y309294D01*
X288623D01*
X289424Y309626D01*
X290038Y310240D01*
X290370Y311041D01*
Y311909D01*
X290038Y312711D01*
X289424Y313324D01*
X288623Y313656D01*
X287755D01*
X286953Y313324D01*
X286340Y312711D01*
X286247Y312487D01*
X285433D01*
Y313838D01*
D02*
G37*
G36*
X279331Y321138D02*
X274213D01*
Y315626D01*
X275760D01*
Y313838D01*
X274410D01*
Y309113D01*
X279134D01*
Y313838D01*
X277783D01*
Y315626D01*
X279331D01*
Y321138D01*
D02*
G37*
G36*
X393110Y314173D02*
X387992D01*
Y308661D01*
X388728D01*
X388935Y308161D01*
X388702Y307928D01*
X388370Y307127D01*
Y306259D01*
X388702Y305457D01*
X389316Y304844D01*
X390117Y304512D01*
X390985D01*
X391787Y304844D01*
X392400Y305457D01*
X392732Y306259D01*
Y307127D01*
X392400Y307928D01*
X392167Y308161D01*
X392374Y308661D01*
X393110D01*
Y314173D01*
D02*
G37*
G36*
X384449D02*
X379331D01*
Y308661D01*
X380067D01*
X380274Y308161D01*
X380041Y307928D01*
X379709Y307127D01*
Y306259D01*
X380041Y305457D01*
X380654Y304844D01*
X381456Y304512D01*
X382324D01*
X383125Y304844D01*
X383739Y305457D01*
X384071Y306259D01*
Y307127D01*
X383739Y307928D01*
X383506Y308161D01*
X383713Y308661D01*
X384449D01*
Y314173D01*
D02*
G37*
G36*
X375787D02*
X370669D01*
Y308661D01*
X371405D01*
X371612Y308161D01*
X371379Y307928D01*
X371047Y307127D01*
Y306259D01*
X371379Y305457D01*
X371993Y304844D01*
X372794Y304512D01*
X373662D01*
X374464Y304844D01*
X375077Y305457D01*
X375409Y306259D01*
Y307127D01*
X375077Y307928D01*
X374844Y308161D01*
X375051Y308661D01*
X375787D01*
Y314173D01*
D02*
G37*
G36*
X367126D02*
X362008D01*
Y308661D01*
X362744D01*
X362951Y308161D01*
X362718Y307928D01*
X362386Y307127D01*
Y306259D01*
X362718Y305457D01*
X363331Y304844D01*
X364133Y304512D01*
X365001D01*
X365802Y304844D01*
X366416Y305457D01*
X366748Y306259D01*
Y307127D01*
X366416Y307928D01*
X366183Y308161D01*
X366390Y308661D01*
X367126D01*
Y314173D01*
D02*
G37*
G36*
X358465D02*
X353346D01*
Y308661D01*
X354082D01*
X354289Y308161D01*
X354056Y307928D01*
X353724Y307127D01*
Y306259D01*
X354056Y305457D01*
X354670Y304844D01*
X355472Y304512D01*
X356339D01*
X357141Y304844D01*
X357754Y305457D01*
X358086Y306259D01*
Y307127D01*
X357754Y307928D01*
X357522Y308161D01*
X357729Y308661D01*
X358465D01*
Y314173D01*
D02*
G37*
G36*
X349803D02*
X344685D01*
Y308661D01*
X345421D01*
X345628Y308161D01*
X345395Y307928D01*
X345063Y307127D01*
Y306259D01*
X345395Y305457D01*
X346009Y304844D01*
X346810Y304512D01*
X347678D01*
X348480Y304844D01*
X349093Y305457D01*
X349425Y306259D01*
Y307127D01*
X349093Y307928D01*
X348860Y308161D01*
X349067Y308661D01*
X349803D01*
Y314173D01*
D02*
G37*
G36*
X341142D02*
X336024D01*
Y308661D01*
X336759D01*
X336967Y308161D01*
X336734Y307928D01*
X336402Y307127D01*
Y306259D01*
X336734Y305457D01*
X337347Y304844D01*
X338149Y304512D01*
X339017D01*
X339818Y304844D01*
X340432Y305457D01*
X340764Y306259D01*
Y307127D01*
X340432Y307928D01*
X340199Y308161D01*
X340406Y308661D01*
X341142D01*
Y314173D01*
D02*
G37*
G36*
X332480D02*
X327362D01*
Y308661D01*
X328098D01*
X328305Y308161D01*
X328072Y307928D01*
X327740Y307127D01*
Y306259D01*
X328072Y305457D01*
X328686Y304844D01*
X329487Y304512D01*
X330355D01*
X331157Y304844D01*
X331770Y305457D01*
X332102Y306259D01*
Y307127D01*
X331770Y307928D01*
X331537Y308161D01*
X331744Y308661D01*
X332480D01*
Y314173D01*
D02*
G37*
G36*
X560802Y306858D02*
X559670D01*
X558577Y306565D01*
X557596Y305999D01*
X556796Y305199D01*
X556230Y304219D01*
X555937Y303125D01*
Y301993D01*
X556230Y300900D01*
X556796Y299919D01*
X557596Y299119D01*
X558577Y298553D01*
X559670Y298260D01*
X560802D01*
X561896Y298553D01*
X562876Y299119D01*
X563677Y299919D01*
X564243Y300900D01*
X564535Y301993D01*
Y303125D01*
X564243Y304219D01*
X563677Y305199D01*
X562876Y305999D01*
X561896Y306565D01*
X560802Y306858D01*
D02*
G37*
G36*
X550802D02*
X549670D01*
X548577Y306565D01*
X547596Y305999D01*
X546796Y305199D01*
X546230Y304219D01*
X545937Y303125D01*
Y301993D01*
X546230Y300900D01*
X546796Y299919D01*
X547596Y299119D01*
X548577Y298553D01*
X549670Y298260D01*
X550802D01*
X551896Y298553D01*
X552876Y299119D01*
X553677Y299919D01*
X554243Y300900D01*
X554535Y301993D01*
Y303125D01*
X554243Y304219D01*
X553677Y305199D01*
X552876Y305999D01*
X551896Y306565D01*
X550802Y306858D01*
D02*
G37*
G36*
X604331Y316929D02*
X584646Y316929D01*
X584646Y297244D01*
X604331Y297244D01*
X604331Y316929D01*
D02*
G37*
G36*
X626558Y295394D02*
X625410D01*
X624285Y295170D01*
X623224Y294730D01*
X622270Y294093D01*
X621458Y293281D01*
X620821Y292327D01*
X620381Y291267D01*
X620157Y290141D01*
Y288993D01*
X620381Y287867D01*
X620821Y286807D01*
X621458Y285853D01*
X622270Y285041D01*
X623224Y284403D01*
X624285Y283964D01*
X625410Y283740D01*
X626558D01*
X627684Y283964D01*
X628744Y284403D01*
X629699Y285041D01*
X630510Y285853D01*
X631148Y286807D01*
X631587Y287867D01*
X631811Y288993D01*
Y290141D01*
X631587Y291267D01*
X631148Y292327D01*
X630510Y293281D01*
X629699Y294093D01*
X628744Y294730D01*
X627684Y295170D01*
X626558Y295394D01*
D02*
G37*
G36*
X499784Y288757D02*
X473209D01*
Y267182D01*
X499784D01*
Y276456D01*
X511221D01*
Y275787D01*
X516339D01*
Y280512D01*
X511221D01*
Y279483D01*
X499784D01*
Y288757D01*
D02*
G37*
G36*
X453190Y277772D02*
X452322D01*
X451520Y277440D01*
X450907Y276826D01*
X450575Y276024D01*
Y275157D01*
X450907Y274355D01*
X451520Y273742D01*
X452322Y273410D01*
X453190D01*
X453991Y273742D01*
X454605Y274355D01*
X454937Y275157D01*
Y276024D01*
X454605Y276826D01*
X453991Y277440D01*
X453190Y277772D01*
D02*
G37*
G36*
X433505D02*
X432637D01*
X431835Y277440D01*
X431222Y276826D01*
X430890Y276024D01*
Y275157D01*
X431222Y274355D01*
X431835Y273742D01*
X432637Y273410D01*
X433505D01*
X434306Y273742D01*
X434920Y274355D01*
X435252Y275157D01*
Y276024D01*
X434920Y276826D01*
X434306Y277440D01*
X433505Y277772D01*
D02*
G37*
G36*
X413820D02*
X412952D01*
X412150Y277440D01*
X411537Y276826D01*
X411205Y276024D01*
Y275157D01*
X411537Y274355D01*
X412150Y273742D01*
X412952Y273410D01*
X413820D01*
X414621Y273742D01*
X415235Y274355D01*
X415567Y275157D01*
Y276024D01*
X415235Y276826D01*
X414621Y277440D01*
X413820Y277772D01*
D02*
G37*
G36*
X394135D02*
X393267D01*
X392465Y277440D01*
X391852Y276826D01*
X391520Y276024D01*
Y275157D01*
X391852Y274355D01*
X392465Y273742D01*
X393267Y273410D01*
X394135D01*
X394936Y273742D01*
X395550Y274355D01*
X395882Y275157D01*
Y276024D01*
X395550Y276826D01*
X394936Y277440D01*
X394135Y277772D01*
D02*
G37*
G36*
X374450D02*
X373582D01*
X372780Y277440D01*
X372167Y276826D01*
X371835Y276024D01*
Y275157D01*
X372167Y274355D01*
X372780Y273742D01*
X373582Y273410D01*
X374450D01*
X375251Y273742D01*
X375865Y274355D01*
X376197Y275157D01*
Y276024D01*
X375865Y276826D01*
X375251Y277440D01*
X374450Y277772D01*
D02*
G37*
G36*
X354765D02*
X353897D01*
X353095Y277440D01*
X352482Y276826D01*
X352150Y276024D01*
Y275157D01*
X352482Y274355D01*
X353095Y273742D01*
X353897Y273410D01*
X354765D01*
X355566Y273742D01*
X356180Y274355D01*
X356512Y275157D01*
Y276024D01*
X356180Y276826D01*
X355566Y277440D01*
X354765Y277772D01*
D02*
G37*
G36*
X335080D02*
X334212D01*
X333410Y277440D01*
X332797Y276826D01*
X332465Y276024D01*
Y275157D01*
X332797Y274355D01*
X333410Y273742D01*
X334212Y273410D01*
X335080D01*
X335881Y273742D01*
X336495Y274355D01*
X336827Y275157D01*
Y276024D01*
X336495Y276826D01*
X335881Y277440D01*
X335080Y277772D01*
D02*
G37*
G36*
X315394D02*
X314527D01*
X313725Y277440D01*
X313112Y276826D01*
X312779Y276024D01*
Y275157D01*
X313112Y274355D01*
X313725Y273742D01*
X314527Y273410D01*
X315394D01*
X316196Y273742D01*
X316810Y274355D01*
X317142Y275157D01*
Y276024D01*
X316810Y276826D01*
X316196Y277440D01*
X315394Y277772D01*
D02*
G37*
G36*
X295709D02*
X294842D01*
X294040Y277440D01*
X293426Y276826D01*
X293094Y276024D01*
Y275157D01*
X293426Y274355D01*
X294040Y273742D01*
X294842Y273410D01*
X295709D01*
X296511Y273742D01*
X297125Y274355D01*
X297457Y275157D01*
Y276024D01*
X297125Y276826D01*
X296511Y277440D01*
X295709Y277772D01*
D02*
G37*
G36*
X570802Y306858D02*
X569670D01*
X568577Y306565D01*
X567596Y305999D01*
X566796Y305199D01*
X566230Y304219D01*
X565937Y303125D01*
Y301993D01*
X566230Y300900D01*
X566796Y299919D01*
X567596Y299119D01*
X568577Y298553D01*
X568723Y298514D01*
Y274221D01*
X567479Y273888D01*
X566196Y273147D01*
X565147Y272099D01*
X564406Y270815D01*
X564229Y270155D01*
X561690D01*
X561513Y270815D01*
X560772Y272099D01*
X559724Y273147D01*
X558440Y273888D01*
X557008Y274272D01*
X555525D01*
X554094Y273888D01*
X552810Y273147D01*
X551762Y272099D01*
X551020Y270815D01*
X550637Y269383D01*
Y267901D01*
X551020Y266469D01*
X551762Y265185D01*
X552810Y264137D01*
X554094Y263396D01*
X555525Y263012D01*
X557008D01*
X558440Y263396D01*
X559724Y264137D01*
X560772Y265185D01*
X561513Y266469D01*
X561690Y267128D01*
X564229D01*
X564406Y266469D01*
X565147Y265185D01*
X566196Y264137D01*
X567479Y263396D01*
X568911Y263012D01*
X570394D01*
X571826Y263396D01*
X573109Y264137D01*
X574158Y265185D01*
X574899Y266469D01*
X575282Y267901D01*
Y269383D01*
X574899Y270815D01*
X574158Y272099D01*
X573109Y273147D01*
X571826Y273888D01*
X571749Y273908D01*
Y298514D01*
X571896Y298553D01*
X572876Y299119D01*
X573676Y299919D01*
X574242Y300900D01*
X574535Y301993D01*
Y303125D01*
X574242Y304219D01*
X573676Y305199D01*
X572876Y305999D01*
X571896Y306565D01*
X570802Y306858D01*
D02*
G37*
G36*
X540834Y274272D02*
X539351D01*
X537919Y273888D01*
X536636Y273147D01*
X535587Y272099D01*
X534846Y270815D01*
X534669Y270155D01*
X532130D01*
X531953Y270815D01*
X531212Y272099D01*
X530163Y273147D01*
X528880Y273888D01*
X527448Y274272D01*
X525965D01*
X524534Y273888D01*
X523250Y273147D01*
X522202Y272099D01*
X521460Y270815D01*
X521405Y270608D01*
X516339D01*
Y271457D01*
X511221D01*
Y266732D01*
X516339D01*
Y267581D01*
X521162D01*
X521460Y266469D01*
X522202Y265185D01*
X523250Y264137D01*
X524534Y263396D01*
X525965Y263012D01*
X527448D01*
X528880Y263396D01*
X530163Y264137D01*
X531212Y265185D01*
X531953Y266469D01*
X532130Y267128D01*
X534669D01*
X534846Y266469D01*
X535587Y265185D01*
X536636Y264137D01*
X537919Y263396D01*
X539351Y263012D01*
X540834D01*
X542266Y263396D01*
X543549Y264137D01*
X544597Y265185D01*
X545339Y266469D01*
X545722Y267901D01*
Y269383D01*
X545339Y270815D01*
X544597Y272099D01*
X543549Y273147D01*
X542266Y273888D01*
X540834Y274272D01*
D02*
G37*
G36*
X643049Y283780D02*
X641203D01*
X639393Y283419D01*
X637688Y282713D01*
X636153Y281688D01*
X634848Y280382D01*
X633822Y278848D01*
X633116Y277143D01*
X632756Y275332D01*
Y273487D01*
X633116Y271676D01*
X633822Y269971D01*
X634848Y268436D01*
X636153Y267131D01*
X637688Y266106D01*
X639393Y265400D01*
X641203Y265039D01*
X643049D01*
X644859Y265400D01*
X646564Y266106D01*
X648099Y267131D01*
X649404Y268436D01*
X650430Y269971D01*
X651136Y271676D01*
X651496Y273487D01*
Y275332D01*
X651136Y277143D01*
X650430Y278848D01*
X649404Y280382D01*
X648099Y281688D01*
X646564Y282713D01*
X644859Y283419D01*
X643049Y283780D01*
D02*
G37*
G36*
X474680Y262261D02*
X473312D01*
X471990Y261907D01*
X470805Y261223D01*
X469838Y260255D01*
X469153Y259070D01*
X468799Y257748D01*
Y256380D01*
X469153Y255058D01*
X469838Y253873D01*
X470805Y252906D01*
X471990Y252221D01*
X473312Y251867D01*
X474680D01*
X476002Y252221D01*
X477187Y252906D01*
X478155Y253873D01*
X478839Y255058D01*
X479193Y256380D01*
Y257748D01*
X478839Y259070D01*
X478155Y260255D01*
X477187Y261223D01*
X476002Y261907D01*
X474680Y262261D01*
D02*
G37*
G36*
X282594Y250512D02*
X281225D01*
X279904Y250158D01*
X278718Y249474D01*
X277751Y248506D01*
X277067Y247321D01*
X276713Y245999D01*
Y244631D01*
X277067Y243309D01*
X277751Y242124D01*
X278718Y241156D01*
X279904Y240472D01*
X281225Y240118D01*
X282594D01*
X283915Y240472D01*
X285100Y241156D01*
X286068Y242124D01*
X286752Y243309D01*
X287106Y244631D01*
Y245999D01*
X286752Y247321D01*
X286068Y248506D01*
X285100Y249474D01*
X283915Y250158D01*
X282594Y250512D01*
D02*
G37*
G36*
X453190Y238402D02*
X452322D01*
X451520Y238070D01*
X450907Y237456D01*
X450575Y236654D01*
Y235787D01*
X450907Y234985D01*
X451520Y234371D01*
X452322Y234039D01*
X453190D01*
X453991Y234371D01*
X454605Y234985D01*
X454937Y235787D01*
Y236654D01*
X454605Y237456D01*
X453991Y238070D01*
X453190Y238402D01*
D02*
G37*
G36*
X433505D02*
X432637D01*
X431835Y238070D01*
X431222Y237456D01*
X430890Y236654D01*
Y235787D01*
X431222Y234985D01*
X431835Y234371D01*
X432637Y234039D01*
X433505D01*
X434306Y234371D01*
X434920Y234985D01*
X435252Y235787D01*
Y236654D01*
X434920Y237456D01*
X434306Y238070D01*
X433505Y238402D01*
D02*
G37*
G36*
X413820D02*
X412952D01*
X412150Y238070D01*
X411537Y237456D01*
X411205Y236654D01*
Y235787D01*
X411537Y234985D01*
X412150Y234371D01*
X412952Y234039D01*
X413820D01*
X414621Y234371D01*
X415235Y234985D01*
X415567Y235787D01*
Y236654D01*
X415235Y237456D01*
X414621Y238070D01*
X413820Y238402D01*
D02*
G37*
G36*
X394135D02*
X393267D01*
X392465Y238070D01*
X391852Y237456D01*
X391520Y236654D01*
Y235787D01*
X391852Y234985D01*
X392465Y234371D01*
X393267Y234039D01*
X394135D01*
X394936Y234371D01*
X395550Y234985D01*
X395882Y235787D01*
Y236654D01*
X395550Y237456D01*
X394936Y238070D01*
X394135Y238402D01*
D02*
G37*
G36*
X374450D02*
X373582D01*
X372780Y238070D01*
X372167Y237456D01*
X371835Y236654D01*
Y235787D01*
X372167Y234985D01*
X372780Y234371D01*
X373582Y234039D01*
X374450D01*
X375251Y234371D01*
X375865Y234985D01*
X376197Y235787D01*
Y236654D01*
X375865Y237456D01*
X375251Y238070D01*
X374450Y238402D01*
D02*
G37*
G36*
X354765D02*
X353897D01*
X353095Y238070D01*
X352482Y237456D01*
X352150Y236654D01*
Y235787D01*
X352482Y234985D01*
X353095Y234371D01*
X353897Y234039D01*
X354765D01*
X355566Y234371D01*
X356180Y234985D01*
X356512Y235787D01*
Y236654D01*
X356180Y237456D01*
X355566Y238070D01*
X354765Y238402D01*
D02*
G37*
G36*
X335080D02*
X334212D01*
X333410Y238070D01*
X332797Y237456D01*
X332465Y236654D01*
Y235787D01*
X332797Y234985D01*
X333410Y234371D01*
X334212Y234039D01*
X335080D01*
X335881Y234371D01*
X336495Y234985D01*
X336827Y235787D01*
Y236654D01*
X336495Y237456D01*
X335881Y238070D01*
X335080Y238402D01*
D02*
G37*
G36*
X315394D02*
X314527D01*
X313725Y238070D01*
X313112Y237456D01*
X312779Y236654D01*
Y235787D01*
X313112Y234985D01*
X313725Y234371D01*
X314527Y234039D01*
X315394D01*
X316196Y234371D01*
X316810Y234985D01*
X317142Y235787D01*
Y236654D01*
X316810Y237456D01*
X316196Y238070D01*
X315394Y238402D01*
D02*
G37*
G36*
X295709D02*
X294842D01*
X294040Y238070D01*
X293426Y237456D01*
X293094Y236654D01*
Y235787D01*
X293426Y234985D01*
X294040Y234371D01*
X294842Y234039D01*
X295709D01*
X296511Y234371D01*
X297125Y234985D01*
X297457Y235787D01*
Y236654D01*
X297125Y237456D01*
X296511Y238070D01*
X295709Y238402D01*
D02*
G37*
G36*
X514607Y229740D02*
X513739D01*
X512938Y229408D01*
X512324Y228795D01*
X511992Y227993D01*
Y227125D01*
X512324Y226324D01*
X512557Y226091D01*
X512350Y225590D01*
X511614D01*
Y220079D01*
X516732D01*
Y225590D01*
X515996D01*
X515789Y226091D01*
X516022Y226324D01*
X516354Y227125D01*
Y227993D01*
X516022Y228795D01*
X515409Y229408D01*
X514607Y229740D01*
D02*
G37*
G36*
X282697Y288757D02*
X256122D01*
Y267182D01*
X267896D01*
Y235197D01*
X256122D01*
Y213622D01*
X282697D01*
Y235197D01*
X270923D01*
Y267182D01*
X282697D01*
Y288757D01*
D02*
G37*
G36*
X516732Y218504D02*
X511614D01*
Y212992D01*
X516732D01*
Y218504D01*
D02*
G37*
G36*
X486930Y238402D02*
X486062D01*
X485261Y238070D01*
X484647Y237456D01*
X484315Y236654D01*
Y235787D01*
X484387Y235613D01*
X484109Y235197D01*
X473209D01*
Y213622D01*
X484109D01*
X484387Y213206D01*
X484315Y213032D01*
Y212165D01*
X484647Y211363D01*
X485261Y210749D01*
X486062Y210417D01*
X486930D01*
X487732Y210749D01*
X488345Y211363D01*
X488677Y212165D01*
Y213032D01*
X488605Y213206D01*
X488883Y213622D01*
X499784D01*
Y235197D01*
X488883D01*
X488605Y235613D01*
X488677Y235787D01*
Y236654D01*
X488345Y237456D01*
X487732Y238070D01*
X486930Y238402D01*
D02*
G37*
%LPD*%
G36*
X403543Y401441D02*
X399829D01*
Y405309D01*
X392454D01*
Y401734D01*
Y398634D01*
Y395434D01*
Y391941D01*
X391742D01*
X391352Y391863D01*
X391021Y391642D01*
X386841Y387462D01*
X386619Y387131D01*
X386542Y386741D01*
Y385630D01*
X383315Y382403D01*
X382725Y382520D01*
X382549Y382944D01*
X381936Y383558D01*
X381134Y383890D01*
X380266D01*
X379465Y383558D01*
X378851Y382944D01*
X378519Y382142D01*
Y381275D01*
X378851Y380473D01*
X379301Y380023D01*
X378860Y379582D01*
X378528Y378780D01*
Y377913D01*
X378860Y377111D01*
X379473Y376497D01*
X380275Y376165D01*
X381142D01*
X381944Y376497D01*
X382558Y377111D01*
X382890Y377913D01*
Y378008D01*
X384210D01*
X384600Y378086D01*
X384931Y378307D01*
X391992Y385368D01*
X392454Y385177D01*
Y382834D01*
Y379734D01*
Y376534D01*
Y374021D01*
X392242D01*
Y372521D01*
X396142D01*
X400042D01*
Y373830D01*
X400509Y374050D01*
X400787Y373827D01*
Y370193D01*
X400575D01*
Y367921D01*
X403543D01*
Y366921D01*
X400575D01*
Y364650D01*
X403543D01*
Y351801D01*
X402345D01*
Y353248D01*
X396834D01*
Y351801D01*
X395283D01*
X393012Y354072D01*
X393204Y354534D01*
X399829D01*
Y357634D01*
Y360834D01*
Y363934D01*
Y367134D01*
Y370021D01*
X400042D01*
Y371521D01*
X396142D01*
X392242D01*
Y370033D01*
X388213D01*
X387787Y369949D01*
X387426Y369707D01*
X387426Y369707D01*
X384647Y366928D01*
X384406Y366567D01*
X384321Y366142D01*
X384321Y366142D01*
Y359449D01*
X384321Y359449D01*
X384406Y359023D01*
X384647Y358663D01*
X389239Y354071D01*
X389047Y353609D01*
X384082D01*
X383983Y354109D01*
X384274Y354229D01*
X384887Y354843D01*
X385219Y355644D01*
Y356512D01*
X384887Y357314D01*
X384274Y357927D01*
X383472Y358259D01*
X382604D01*
X381803Y357927D01*
X381189Y357314D01*
X381096Y357090D01*
X378922D01*
X378535Y357013D01*
X378207Y356793D01*
X376427Y355013D01*
X376207Y354685D01*
X376130Y354298D01*
Y353609D01*
X375053D01*
Y356273D01*
X375027Y356404D01*
Y357031D01*
X375251Y357123D01*
X375865Y357737D01*
X376197Y358539D01*
Y359406D01*
X375865Y360208D01*
X375251Y360822D01*
X374450Y361154D01*
X373582D01*
X372780Y360822D01*
X372167Y360208D01*
X371835Y359406D01*
Y358539D01*
X371979Y358191D01*
X371555Y357908D01*
X371314Y358148D01*
X370513Y358480D01*
X369645D01*
X368843Y358148D01*
X368230Y357535D01*
X367898Y356733D01*
Y355865D01*
X368230Y355064D01*
X368843Y354450D01*
X369331Y354248D01*
Y353609D01*
X340754D01*
Y346234D01*
X343677D01*
X343868Y345772D01*
X343820Y345724D01*
X343488Y344922D01*
Y344054D01*
X343820Y343253D01*
X344053Y343020D01*
X343846Y342520D01*
X328740D01*
Y352658D01*
X330315D01*
Y355209D01*
X332454D01*
Y354534D01*
X339829D01*
Y357421D01*
X340042D01*
Y358921D01*
X336142D01*
Y359921D01*
X340042D01*
Y361421D01*
X339829D01*
Y363860D01*
X339985Y363975D01*
X340329Y364067D01*
X340497Y363899D01*
X341298Y363567D01*
X342166D01*
X342968Y363899D01*
X343581Y364512D01*
X343913Y365314D01*
Y366182D01*
X343581Y366984D01*
X343045Y367520D01*
X343581Y368056D01*
X343913Y368858D01*
Y369725D01*
X343581Y370527D01*
X342968Y371140D01*
X342166Y371472D01*
X341298D01*
X340497Y371140D01*
X340329Y370973D01*
X339829Y371180D01*
Y373434D01*
Y376301D01*
X340329Y376508D01*
X340362Y376475D01*
X340339Y376418D01*
Y375550D01*
X340671Y374749D01*
X341284Y374135D01*
X342086Y373803D01*
X342953D01*
X343755Y374135D01*
X344369Y374749D01*
X344701Y375550D01*
Y376418D01*
X344369Y377220D01*
X343948Y377641D01*
X343839Y378013D01*
X343962Y378279D01*
X344420Y378737D01*
X344752Y379538D01*
Y380406D01*
X344420Y381207D01*
X343806Y381821D01*
X343004Y382153D01*
X342137D01*
X341649Y381951D01*
X341389Y382211D01*
X341060Y382431D01*
X340673Y382508D01*
X339829D01*
Y383700D01*
X341032D01*
X341419Y383777D01*
X341553Y383867D01*
X342086Y383646D01*
X342953D01*
X343755Y383978D01*
X344369Y384591D01*
X344701Y385393D01*
Y386261D01*
X344369Y387062D01*
X343962Y387469D01*
X343811Y387795D01*
X343962Y388122D01*
X344369Y388528D01*
X344701Y389330D01*
Y390198D01*
X344369Y390999D01*
X343755Y391613D01*
X342953Y391945D01*
X342086D01*
X341284Y391613D01*
X340671Y390999D01*
X340542Y390688D01*
X340042Y390788D01*
Y392921D01*
X339829D01*
Y395434D01*
Y398634D01*
Y401734D01*
Y405309D01*
X337153D01*
Y414447D01*
X337076Y414834D01*
X336857Y415162D01*
X335159Y416861D01*
X335350Y417323D01*
X339451D01*
Y413900D01*
X339528Y413513D01*
X339748Y413185D01*
X340754Y412178D01*
Y406234D01*
X391529D01*
Y413609D01*
X385002D01*
X384795Y414109D01*
X388009Y417323D01*
X403543D01*
Y401441D01*
D02*
G37*
G36*
Y388894D02*
X400575D01*
Y386622D01*
X403543D01*
Y385622D01*
X400575D01*
Y383350D01*
X400787D01*
Y379679D01*
X400442Y379333D01*
X399829D01*
Y379734D01*
Y382834D01*
Y386034D01*
Y389134D01*
Y392334D01*
Y395434D01*
Y396202D01*
X403543D01*
Y388894D01*
D02*
G37*
G36*
X331885Y394057D02*
X332245Y393816D01*
X332454Y393775D01*
Y392921D01*
X332242D01*
Y391421D01*
X336142D01*
Y390421D01*
X332242D01*
Y388921D01*
X332454D01*
Y386034D01*
Y382834D01*
Y379734D01*
Y376534D01*
Y373434D01*
Y368534D01*
X331992Y368343D01*
X331391Y368945D01*
X331030Y369186D01*
X330605Y369270D01*
X330315Y369632D01*
Y371539D01*
X330528D01*
Y373811D01*
X327559D01*
Y374811D01*
X330528D01*
Y377083D01*
X329072D01*
Y383071D01*
Y387484D01*
X330528D01*
Y389756D01*
X327559D01*
Y390756D01*
X330528D01*
Y393028D01*
X330315D01*
Y394459D01*
X331483D01*
X331885Y394057D01*
D02*
G37*
%LPC*%
G36*
X375237Y374228D02*
X374369D01*
X373568Y373896D01*
X372954Y373283D01*
X372622Y372481D01*
Y371613D01*
X372954Y370812D01*
X373568Y370198D01*
X374369Y369866D01*
X375237D01*
X376039Y370198D01*
X376652Y370812D01*
X376984Y371613D01*
Y372481D01*
X376652Y373283D01*
X376039Y373896D01*
X375237Y374228D01*
D02*
G37*
%LPD*%
D11*
X327559Y424229D02*
Y428740D01*
X327542Y424213D02*
X327559Y424229D01*
X514173Y222835D02*
Y227559D01*
X276772Y311475D02*
Y318382D01*
X475984Y318898D02*
X487008D01*
X475984Y326772D02*
X487008D01*
X493307Y318898D02*
X497244D01*
X493307Y326772D02*
X497244D01*
X327559Y360531D02*
X328669Y359421D01*
X336142D01*
X336169Y365748D02*
X341732D01*
X336142Y365721D02*
X336169Y365748D01*
X336512Y369291D02*
X341732D01*
X336142Y368921D02*
X336512Y369291D01*
X391831Y331770D02*
X392520Y331082D01*
X391831Y331770D02*
Y334154D01*
X392520Y330709D02*
Y331082D01*
X464173Y327165D02*
X464567Y326772D01*
X383183Y345355D02*
Y349663D01*
X383442Y349921D01*
X380315Y344488D02*
X380342Y344515D01*
Y349921D01*
X464173Y318898D02*
X468898D01*
X464567Y326772D02*
X468898D01*
X389764Y360630D02*
X390027Y360894D01*
X393734Y365213D02*
X394242Y365721D01*
X390027Y362216D02*
X393024Y365213D01*
X394242Y365721D02*
X396142D01*
X393024Y365213D02*
X393734D01*
X390027Y360894D02*
Y362216D01*
X390748Y335236D02*
X391831Y334154D01*
X354559Y331703D02*
Y334154D01*
X365796Y331821D02*
X366535Y331082D01*
X390551Y335236D02*
X390748D01*
X383892Y330709D02*
Y331082D01*
X381873Y335236D02*
X382070D01*
X383153Y334154D01*
X366535Y330709D02*
Y331082D01*
X345276Y330709D02*
Y331082D01*
X328524Y331653D02*
Y334154D01*
X373392Y335236D02*
X374474Y334154D01*
X373195Y335236D02*
X373392D01*
X345881Y331687D02*
Y334154D01*
X374474Y331788D02*
Y334154D01*
X365796Y331821D02*
Y334154D01*
X364517Y335236D02*
X364714D01*
X365796Y334154D01*
X383153Y331821D02*
Y334154D01*
Y331821D02*
X383892Y331082D01*
X354559Y334154D02*
X355642Y335236D01*
X355838D01*
X337203Y331902D02*
Y334154D01*
X327953Y331082D02*
X328524Y331653D01*
X345881Y334154D02*
X346964Y335236D01*
X327953Y330709D02*
Y331082D01*
X336492Y330818D02*
Y331191D01*
X346964Y335236D02*
X347160D01*
X353937Y330709D02*
Y331082D01*
X338285Y335236D02*
X338482D01*
X337203Y334154D02*
X338285Y335236D01*
X345276Y331082D02*
X345881Y331687D01*
X336492Y331191D02*
X337203Y331902D01*
X375197Y330693D02*
Y331066D01*
X374474Y331788D02*
X375197Y331066D01*
X329607Y335236D02*
X329804D01*
X328524Y334154D02*
X329607Y335236D01*
X353937Y331082D02*
X354559Y331703D01*
X357480Y330336D02*
Y330709D01*
X339762Y327264D02*
Y329940D01*
X340158Y330336D01*
Y330709D01*
X338482Y326181D02*
X338679D01*
X339762Y327264D01*
X362992Y330709D02*
X363237Y330464D01*
Y327264D02*
X364320Y326181D01*
X364517D01*
X363237Y327264D02*
Y330464D01*
X356035Y326181D02*
X357118Y327264D01*
Y329974D01*
X357480Y330336D01*
X355838Y326181D02*
X356035D01*
X348819Y330336D02*
Y330709D01*
X348440Y329957D02*
X348819Y330336D01*
X347357Y326181D02*
X348440Y327264D01*
Y329957D01*
X347160Y326181D02*
X347357D01*
X330001D02*
X331083Y327264D01*
Y329923D02*
X331496Y330336D01*
X329804Y326181D02*
X330001D01*
X331083Y327264D02*
Y329923D01*
X331496Y330336D02*
Y330709D01*
X367717Y343648D02*
X367800Y343565D01*
X367717Y343648D02*
Y349896D01*
X367742Y349921D01*
X348819Y349898D02*
X348842Y349921D01*
X345669Y344488D02*
Y349894D01*
X348819Y343307D02*
Y349898D01*
X345642Y349921D02*
X345669Y349894D01*
X347160Y318588D02*
Y326181D01*
Y318588D02*
X347244Y318504D01*
X361417Y343307D02*
Y349897D01*
X355118Y343312D02*
Y349898D01*
X355142Y349921D01*
X364542D02*
X364567Y349896D01*
Y344488D02*
Y349896D01*
X361417Y349897D02*
X361442Y349921D01*
X358242D02*
X358268Y349895D01*
Y344488D02*
Y349895D01*
X351942Y349921D02*
X351969Y349894D01*
Y344488D02*
Y349894D01*
X390551Y311417D02*
X390551Y311417D01*
X390551Y306693D02*
Y311417D01*
X381890Y306693D02*
Y311417D01*
X381890Y311417D01*
X373228Y311417D02*
X373228Y311417D01*
X373228Y306693D02*
Y311417D01*
X364517Y318554D02*
Y326181D01*
Y318554D02*
X364567Y318504D01*
X355838Y318571D02*
X355906Y318504D01*
X355838Y318571D02*
Y326181D01*
X338482Y318604D02*
Y326181D01*
Y318604D02*
X338583Y318504D01*
X329804Y318621D02*
Y326181D01*
Y318621D02*
X329921Y318504D01*
X333124Y397729D02*
X335634D01*
X336142Y397221D01*
X315813Y415040D02*
X333124Y397729D01*
X315813Y415040D02*
Y430644D01*
X333024Y400929D02*
X333734D01*
X334242Y400421D02*
X336142D01*
X333734Y400929D02*
X334242Y400421D01*
X324491Y409462D02*
X333024Y400929D01*
X324491Y409462D02*
Y427838D01*
X355060Y417573D02*
X359499D01*
X367234Y410429D02*
X367742Y409921D01*
X353774Y433268D02*
X359204Y427838D01*
X359499Y417573D02*
X364034Y413039D01*
Y410429D02*
X364542Y409921D01*
X364034Y410429D02*
Y413039D01*
X367234Y410429D02*
Y414078D01*
X359204Y422108D02*
Y427838D01*
Y422108D02*
X367234Y414078D01*
X353577Y433268D02*
X353774D01*
X353543Y424246D02*
X353577Y424213D01*
X353543Y424246D02*
Y428740D01*
X350526Y422108D02*
X355060Y417573D01*
X344899Y433268D02*
X345095D01*
X350526Y422108D02*
Y427838D01*
X345095Y433268D02*
X350526Y427838D01*
X340463Y413900D02*
Y431584D01*
X342542Y409921D02*
Y411821D01*
X338892Y433155D02*
X340463Y431584D01*
Y413900D02*
X342542Y411821D01*
X336221Y433268D02*
X336333Y433155D01*
X338892D01*
X336142Y403521D02*
Y414447D01*
X327739Y433268D02*
X333169Y427838D01*
X336733Y424725D02*
Y429252D01*
X333169Y417420D02*
X336142Y414447D01*
X336221Y424213D02*
X336733Y424725D01*
X333169Y417420D02*
Y427838D01*
X327542Y433268D02*
X327739D01*
X318864D02*
X319061D01*
X324491Y427838D01*
X313048Y433409D02*
X315813Y430644D01*
X310236Y436980D02*
Y440945D01*
X310236Y433459D02*
Y436980D01*
X310186Y433409D02*
X313048D01*
X353543Y433301D02*
X353577Y433268D01*
X353543Y433301D02*
Y440945D01*
X344882Y433285D02*
X344899Y433268D01*
X344882Y433285D02*
Y440945D01*
X336221Y433268D02*
Y440945D01*
X327559Y433285D02*
Y440945D01*
X327542Y433268D02*
X327559Y433285D01*
X318864Y433268D02*
X318898Y433301D01*
Y440945D01*
X310186Y433409D02*
X310236Y433459D01*
Y436980D02*
X310236Y436980D01*
X396850Y448032D02*
Y452362D01*
X379528Y448032D02*
Y452362D01*
X370866Y448032D02*
Y452362D01*
Y447638D02*
Y448032D01*
X370866Y452362D02*
X370866Y452362D01*
X353543Y448032D02*
Y452362D01*
Y448032D02*
X353543Y448032D01*
X336221D02*
X336221Y448032D01*
Y452362D01*
X310236Y452362D02*
X310236Y452362D01*
X310236Y448032D02*
Y452362D01*
X379528Y428346D02*
X379921Y428740D01*
X310236Y424404D02*
Y428740D01*
X396850Y424330D02*
Y429134D01*
Y424330D02*
X396968Y424213D01*
X388189Y424313D02*
Y428740D01*
Y424313D02*
X388289Y424213D01*
X379528Y424296D02*
X379611Y424213D01*
X310186Y424354D02*
X310236Y424404D01*
X370866Y424280D02*
Y429134D01*
Y424280D02*
X370933Y424213D01*
X362205Y424263D02*
X362255Y424213D01*
X362205Y424263D02*
Y429134D01*
X344882Y424229D02*
Y429134D01*
Y424229D02*
X344899Y424213D01*
X379528Y424296D02*
Y428346D01*
X318898Y424246D02*
Y429067D01*
X318864Y429100D02*
X318898Y429067D01*
X318864Y424213D02*
X318898Y424246D01*
X340673Y381496D02*
X342198Y379972D01*
X336232Y384712D02*
X341032D01*
X342147Y385827D01*
X342520D01*
X336142Y384621D02*
X336232Y384712D01*
X336167Y381496D02*
X340673D01*
X342198Y379972D02*
X342570D01*
X336142Y381521D02*
X336167Y381496D01*
X340518Y378244D02*
X342520Y376242D01*
Y375984D02*
Y376242D01*
X336219Y378244D02*
X340518D01*
X336142Y378321D02*
X336219Y378244D01*
X336142Y387821D02*
X340577D01*
X342520Y389764D01*
X605098Y206035D02*
X618898Y219835D01*
Y267323D02*
X659449Y307874D01*
X618898Y219835D02*
Y267323D01*
X659449Y307874D02*
Y314961D01*
X540093Y215610D02*
X549667Y206035D01*
X605098D01*
X526707Y215610D02*
X540093D01*
X374016Y356299D02*
Y358972D01*
X374042Y349921D02*
Y356273D01*
X378922Y356078D02*
X383038D01*
X377142Y354298D02*
X378922Y356078D01*
X374016Y356299D02*
X374042Y356273D01*
X370842Y349921D02*
Y351830D01*
X370342Y352329D02*
X370842Y351830D01*
X377142Y349921D02*
Y354298D01*
X370079Y356299D02*
X370342Y356036D01*
Y352329D02*
Y356036D01*
X283071Y311475D02*
X288189D01*
X585827Y215610D02*
X599213D01*
X400861Y375221D02*
X403346Y372736D01*
X414961Y368898D02*
Y369291D01*
X411516Y372736D02*
X414961Y369291D01*
X411516Y380807D02*
X414961Y384252D01*
Y384646D01*
X396142Y378321D02*
X400861D01*
X396142Y375221D02*
X400861D01*
X403346Y372736D02*
X411516D01*
X400861Y378321D02*
X403346Y380807D01*
X411516D01*
X613951Y328518D02*
X629921Y344488D01*
X599213Y215610D02*
X613951Y230349D01*
Y328518D01*
D12*
X362205Y448032D02*
X362205Y448032D01*
X362205Y448032D02*
Y452362D01*
X396142Y397221D02*
X420687D01*
X422012Y400421D02*
X422211Y400222D01*
X420687Y397221D02*
X420886Y397022D01*
X444296D02*
X444882Y396436D01*
X444296Y400222D02*
X444882Y400808D01*
X396142Y400421D02*
X422012D01*
X420886Y397022D02*
X444296D01*
X444882Y387795D02*
Y396436D01*
Y400808D02*
Y409449D01*
X422211Y400222D02*
X444296D01*
X391349Y422105D02*
Y427845D01*
X380342Y409921D02*
Y417655D01*
X384170Y421483D02*
Y429345D01*
X380342Y417655D02*
X384170Y421483D01*
X383442Y409921D02*
X383565Y410045D01*
Y414321D02*
X391349Y422105D01*
Y427845D02*
X396771Y433268D01*
X396968D01*
X383565Y410045D02*
Y414321D01*
X384170Y429345D02*
X388093Y433268D01*
X388289D01*
X379808D02*
X382670Y430406D01*
X377142Y416576D02*
X382670Y422105D01*
Y430406D01*
X379611Y433268D02*
X379808D01*
X377142Y409921D02*
Y416576D01*
X371130Y433268D02*
X374042Y430356D01*
Y409921D02*
Y430356D01*
X370933Y433268D02*
X371130D01*
X367874Y422105D02*
X370842Y419137D01*
X364941Y433091D02*
X367874Y430157D01*
X370842Y409921D02*
Y419137D01*
X362205Y433318D02*
X362432Y433091D01*
X367874Y422105D02*
Y430157D01*
X362432Y433091D02*
X364941D01*
X396850Y433385D02*
Y440945D01*
Y433385D02*
X396968Y433268D01*
X388189Y433368D02*
X388289Y433268D01*
X388189Y433368D02*
Y440945D01*
X379528Y433352D02*
X379611Y433268D01*
X379528Y433352D02*
Y440945D01*
X370866Y433335D02*
X370933Y433268D01*
X370866Y433335D02*
Y440945D01*
X362205Y433318D02*
Y440945D01*
X388189Y448032D02*
Y452362D01*
X344882Y448032D02*
Y452362D01*
X395642Y387321D02*
X396142Y387821D01*
X392503Y387321D02*
X395642D01*
X384210Y379028D02*
X392503Y387321D01*
X381758Y379028D02*
X384210D01*
X383381Y381028D02*
X387561Y385208D01*
X391742Y390921D02*
X396142D01*
X387561Y385208D02*
Y386741D01*
X381750Y381028D02*
X383381D01*
X387561Y386741D02*
X391742Y390921D01*
X589551Y308087D02*
X591551D01*
X590551D01*
Y314085D01*
X589551Y313085D01*
D18*
X327559Y355217D02*
D03*
Y360531D02*
D03*
X320079Y355217D02*
D03*
Y360531D02*
D03*
X327559Y390256D02*
D03*
Y395571D02*
D03*
X320079Y390256D02*
D03*
Y395571D02*
D03*
X327559Y368996D02*
D03*
Y374311D02*
D03*
X399590Y345374D02*
D03*
Y350689D02*
D03*
X406693Y345374D02*
D03*
Y350689D02*
D03*
X468898Y326772D02*
D03*
X475984D02*
D03*
X468898Y318898D02*
D03*
X475984D02*
D03*
X403543Y372736D02*
D03*
Y367421D02*
D03*
Y380807D02*
D03*
Y386122D02*
D03*
D20*
X486496Y277970D02*
D03*
X269409D02*
D03*
Y224410D02*
D03*
X486496D02*
D03*
D27*
X473996Y257064D02*
D03*
X281909Y245315D02*
D03*
D29*
X625984Y457283D02*
D03*
Y289567D02*
D03*
D31*
X278740Y385512D02*
D03*
X288740Y395512D02*
D03*
X278740D02*
D03*
X288740Y405512D02*
D03*
X278740D02*
D03*
X288740Y415512D02*
D03*
X278740D02*
D03*
X288740Y425512D02*
D03*
X278740D02*
D03*
D35*
X291732Y337795D02*
D03*
Y344882D02*
D03*
X514173Y215748D02*
D03*
Y222835D02*
D03*
X327559Y448032D02*
D03*
Y440945D02*
D03*
X320079Y375197D02*
D03*
Y368110D02*
D03*
X329921Y311417D02*
D03*
Y318504D02*
D03*
X338583Y311417D02*
D03*
Y318504D02*
D03*
X355906Y311417D02*
D03*
Y318504D02*
D03*
X347244Y311417D02*
D03*
Y318504D02*
D03*
X390551Y311417D02*
D03*
Y318504D02*
D03*
X381890Y311417D02*
D03*
Y318504D02*
D03*
X364567Y311417D02*
D03*
Y318504D02*
D03*
X373228Y311417D02*
D03*
Y318504D02*
D03*
X276772Y325468D02*
D03*
Y318382D02*
D03*
X396850Y448032D02*
D03*
Y440945D02*
D03*
X310236D02*
D03*
Y448032D02*
D03*
X336221Y440945D02*
D03*
Y448032D02*
D03*
X318898Y440945D02*
D03*
Y448032D02*
D03*
X362205Y440945D02*
D03*
Y448032D02*
D03*
X344882Y440945D02*
D03*
Y448032D02*
D03*
X388189Y440945D02*
D03*
Y448032D02*
D03*
X370866Y440945D02*
D03*
Y448032D02*
D03*
X353543Y440945D02*
D03*
Y448032D02*
D03*
X379528Y440945D02*
D03*
Y448032D02*
D03*
D36*
X310186Y424354D02*
D03*
Y433409D02*
D03*
X318864Y424213D02*
D03*
Y433268D02*
D03*
X327542Y424213D02*
D03*
Y433268D02*
D03*
X336221Y424213D02*
D03*
Y433268D02*
D03*
X347160Y335236D02*
D03*
Y326181D02*
D03*
X338482Y335236D02*
D03*
Y326181D02*
D03*
X381873Y335236D02*
D03*
Y326181D02*
D03*
X373195Y335236D02*
D03*
Y326181D02*
D03*
X390551Y335236D02*
D03*
Y326181D02*
D03*
X355838Y335236D02*
D03*
Y326181D02*
D03*
X364517Y335236D02*
D03*
Y326181D02*
D03*
X329804Y335236D02*
D03*
Y326181D02*
D03*
X370933Y433268D02*
D03*
Y424213D02*
D03*
X362255Y433268D02*
D03*
Y424213D02*
D03*
X396968Y433268D02*
D03*
Y424213D02*
D03*
X353577Y433268D02*
D03*
Y424213D02*
D03*
X344899Y433268D02*
D03*
Y424213D02*
D03*
X388289Y433268D02*
D03*
Y424213D02*
D03*
X379611Y433268D02*
D03*
Y424213D02*
D03*
X513779Y278150D02*
D03*
Y269094D02*
D03*
D37*
X493307Y326772D02*
D03*
X487008D02*
D03*
X276772Y311475D02*
D03*
X283071D02*
D03*
X487008Y318898D02*
D03*
X493307D02*
D03*
D38*
X336142Y356321D02*
D03*
Y359421D02*
D03*
Y362621D02*
D03*
Y365721D02*
D03*
Y368921D02*
D03*
Y372021D02*
D03*
Y375221D02*
D03*
Y378321D02*
D03*
Y381521D02*
D03*
Y384621D02*
D03*
Y387821D02*
D03*
Y390921D02*
D03*
Y394121D02*
D03*
Y397221D02*
D03*
Y400421D02*
D03*
Y403521D02*
D03*
X396142D02*
D03*
Y400421D02*
D03*
Y397221D02*
D03*
Y394121D02*
D03*
Y390921D02*
D03*
Y387821D02*
D03*
Y384621D02*
D03*
Y381521D02*
D03*
Y378321D02*
D03*
Y375221D02*
D03*
Y372021D02*
D03*
Y368921D02*
D03*
Y365721D02*
D03*
Y362621D02*
D03*
Y359421D02*
D03*
Y356321D02*
D03*
D39*
X342542Y409921D02*
D03*
X345642D02*
D03*
X348842D02*
D03*
X351942D02*
D03*
X355142D02*
D03*
X358242D02*
D03*
X361442D02*
D03*
X364542D02*
D03*
X367742D02*
D03*
X370842D02*
D03*
X374042D02*
D03*
X377142D02*
D03*
X380342D02*
D03*
X383442D02*
D03*
X386642D02*
D03*
X389742D02*
D03*
Y349921D02*
D03*
X386642D02*
D03*
X383442D02*
D03*
X380342D02*
D03*
X377142D02*
D03*
X374042D02*
D03*
X370842D02*
D03*
X367742D02*
D03*
X364542D02*
D03*
X361442D02*
D03*
X358242D02*
D03*
X355142D02*
D03*
X351942D02*
D03*
X348842D02*
D03*
X345642D02*
D03*
X342542D02*
D03*
D40*
X414961Y368898D02*
D03*
Y384646D02*
D03*
D41*
X327559Y374311D02*
Y383071D01*
Y390256D01*
X394300Y345374D02*
X406693D01*
X394201Y345276D02*
X394300Y345374D01*
X394094Y345276D02*
X394201D01*
X320079Y360531D02*
X327559D01*
X320079Y390256D02*
X327559D01*
X556267Y215610D02*
X569653D01*
X577251Y208012D01*
X604280D01*
X616912Y220644D01*
Y321637D02*
X629921Y334646D01*
X616912Y220644D02*
Y321637D01*
X556267Y268642D02*
X569653D01*
X570236Y269225D01*
Y302559D01*
X538327Y268642D02*
X539370Y269685D01*
X526707Y268642D02*
X538327D01*
X539370Y269685D02*
X540093Y268963D01*
Y268642D02*
Y268963D01*
X526254Y269094D02*
X526707Y268642D01*
X513779Y269094D02*
X526254D01*
X486496Y277970D02*
X513599D01*
X513779Y278150D01*
X269409Y224410D02*
Y277970D01*
D42*
X329921Y306693D02*
Y311417D01*
X486496Y224410D02*
Y236220D01*
Y212598D02*
Y224410D01*
X399590Y350689D02*
X406693D01*
X355906Y306693D02*
Y311417D01*
X329921D02*
X329921Y311417D01*
X333520Y394843D02*
X334242Y394121D01*
X336142D01*
X327559Y395571D02*
X331943D01*
X332671Y394843D01*
X333520D01*
X327559Y355217D02*
X328664Y356321D01*
X336142D01*
X326673Y368110D02*
X327559Y368996D01*
X320079Y368110D02*
X326673D01*
X332671Y363343D02*
X333520D01*
X331864Y364151D02*
X332671Y363343D01*
X331864Y364151D02*
Y366899D01*
X334242Y362621D02*
X336142D01*
X333520Y363343D02*
X334242Y362621D01*
X330605Y368158D02*
X331864Y366899D01*
X328397Y368158D02*
X330605D01*
X327559Y368996D02*
X328397Y368158D01*
X385433Y366142D02*
X388213Y368921D01*
X396142D01*
X385433Y359449D02*
X390683Y354199D01*
X385433Y359449D02*
Y366142D01*
X391313Y354199D02*
X394823Y350689D01*
X390683Y354199D02*
X391313D01*
X394823Y350689D02*
X399590D01*
X389370Y327165D02*
X390354Y326181D01*
X389370Y327165D02*
Y330046D01*
X390354Y326181D02*
X390551D01*
X389027Y330389D02*
Y330709D01*
Y330389D02*
X389370Y330046D01*
X380348Y330389D02*
Y330709D01*
X380692Y327165D02*
Y330046D01*
X380348Y330389D02*
X380692Y330046D01*
Y327165D02*
X381676Y326181D01*
X381873D01*
X372998D02*
X373195D01*
X371670Y330389D02*
Y330709D01*
X372014Y327165D02*
Y330046D01*
X371670Y330389D02*
X372014Y330046D01*
Y327165D02*
X372998Y326181D01*
X364567Y306693D02*
Y311417D01*
X364567Y311417D01*
X355906Y311417D02*
X355906Y311417D01*
X347244Y311417D02*
X347244Y311417D01*
X347244Y306693D02*
Y311417D01*
X338583Y306693D02*
Y311417D01*
X338583Y311417D01*
X390551Y318504D02*
Y326181D01*
X390551Y318504D02*
X390551Y318504D01*
X381873Y318521D02*
Y326181D01*
Y318521D02*
X381890Y318504D01*
X373195Y318537D02*
X373228Y318504D01*
X373195Y318537D02*
Y326181D01*
X327559Y448032D02*
X327559Y448032D01*
Y452362D01*
X318898Y448032D02*
Y452362D01*
D43*
X288740Y385512D02*
D03*
D44*
X570236Y302559D02*
D03*
X560236D02*
D03*
X550236D02*
D03*
X274173Y338091D02*
D03*
X264173D02*
D03*
X254173D02*
D03*
D45*
X526707Y215610D02*
D03*
X540093D02*
D03*
X526707Y268642D02*
D03*
X540093D02*
D03*
X556267Y215610D02*
D03*
X569653D02*
D03*
X556267Y268642D02*
D03*
X569653D02*
D03*
X585827Y215610D02*
D03*
X599213D02*
D03*
X585827Y268642D02*
D03*
X599213D02*
D03*
X260341Y479390D02*
D03*
X273727D02*
D03*
X260341Y532421D02*
D03*
X273727D02*
D03*
X349346Y479390D02*
D03*
X362732D02*
D03*
X349346Y532421D02*
D03*
X362732D02*
D03*
X290226Y479390D02*
D03*
X303612D02*
D03*
X290226Y532421D02*
D03*
X303612D02*
D03*
X319786Y479390D02*
D03*
X333172D02*
D03*
X319786Y532421D02*
D03*
X333172D02*
D03*
X497147Y479390D02*
D03*
X510532D02*
D03*
X497147Y532421D02*
D03*
X510532D02*
D03*
X526772Y479390D02*
D03*
X540158D02*
D03*
X526772Y532421D02*
D03*
X540158D02*
D03*
X438027Y479390D02*
D03*
X451412D02*
D03*
X438027Y532421D02*
D03*
X451412D02*
D03*
X408466Y479390D02*
D03*
X421852D02*
D03*
X408466Y532421D02*
D03*
X421852D02*
D03*
X378906Y479390D02*
D03*
X392292D02*
D03*
X378906Y532421D02*
D03*
X392292D02*
D03*
X467587Y479390D02*
D03*
X480972D02*
D03*
X467587Y532421D02*
D03*
X480972D02*
D03*
X556332Y479390D02*
D03*
X569718D02*
D03*
X556332Y532421D02*
D03*
X569718D02*
D03*
X585892Y479390D02*
D03*
X599278D02*
D03*
X585892Y532421D02*
D03*
X599278D02*
D03*
D46*
X476870Y446850D02*
D03*
X491634D02*
D03*
X555610D02*
D03*
X575295D02*
D03*
D47*
X659449Y324803D02*
D03*
Y364173D02*
D03*
Y417126D02*
D03*
Y314961D02*
D03*
Y334646D02*
D03*
Y344488D02*
D03*
Y354331D02*
D03*
Y374016D02*
D03*
Y383858D02*
D03*
Y393701D02*
D03*
Y403543D02*
D03*
Y431890D02*
D03*
X649606Y324803D02*
D03*
Y364173D02*
D03*
Y417126D02*
D03*
Y314961D02*
D03*
Y334646D02*
D03*
Y344488D02*
D03*
Y354331D02*
D03*
Y374016D02*
D03*
Y383858D02*
D03*
Y393701D02*
D03*
Y403543D02*
D03*
Y431890D02*
D03*
X639764Y324803D02*
D03*
Y364173D02*
D03*
Y417126D02*
D03*
Y314961D02*
D03*
Y334646D02*
D03*
Y344488D02*
D03*
Y354331D02*
D03*
Y374016D02*
D03*
Y383858D02*
D03*
Y393701D02*
D03*
Y403543D02*
D03*
Y431890D02*
D03*
X629921Y324803D02*
D03*
Y364173D02*
D03*
Y417126D02*
D03*
Y314961D02*
D03*
Y334646D02*
D03*
Y344488D02*
D03*
Y354331D02*
D03*
Y374016D02*
D03*
Y383858D02*
D03*
Y393701D02*
D03*
Y403543D02*
D03*
Y431890D02*
D03*
D48*
X641142Y473425D02*
D03*
X642126Y274410D02*
D03*
D49*
X452756Y216535D02*
D03*
X433071D02*
D03*
X413386D02*
D03*
X393701D02*
D03*
X374016D02*
D03*
X354331D02*
D03*
X334646D02*
D03*
X314961D02*
D03*
X295276D02*
D03*
X452756Y255906D02*
D03*
X433071D02*
D03*
X413386D02*
D03*
X393701D02*
D03*
X374016D02*
D03*
X354331D02*
D03*
X334646D02*
D03*
X314961D02*
D03*
X295276D02*
D03*
X374803Y372047D02*
D03*
X452756Y236221D02*
D03*
X433071D02*
D03*
X413386D02*
D03*
X374016D02*
D03*
X393701D02*
D03*
X354331D02*
D03*
X334646D02*
D03*
X314961D02*
D03*
X295276D02*
D03*
X452756Y275590D02*
D03*
X433071D02*
D03*
X413386D02*
D03*
X393701D02*
D03*
X374016D02*
D03*
X354331D02*
D03*
X334646D02*
D03*
X314961D02*
D03*
X295276D02*
D03*
X327559Y428740D02*
D03*
X612992Y386221D02*
D03*
X607874Y400394D02*
D03*
X606693Y392520D02*
D03*
X613779Y396457D02*
D03*
X389790Y372021D02*
D03*
X348132Y359423D02*
D03*
X342520Y393701D02*
D03*
X360236D02*
D03*
Y401575D02*
D03*
Y397638D02*
D03*
X356299Y393701D02*
D03*
X352362D02*
D03*
X356299Y397638D02*
D03*
Y401575D02*
D03*
X352362Y397638D02*
D03*
Y401575D02*
D03*
X327559Y383071D02*
D03*
X514173Y227559D02*
D03*
X329921Y306693D02*
D03*
X497244Y318898D02*
D03*
Y326772D02*
D03*
X486496Y236220D02*
D03*
Y212598D02*
D03*
X254724Y400394D02*
D03*
X264567Y392520D02*
D03*
X394094Y345276D02*
D03*
X341732Y365748D02*
D03*
Y369291D02*
D03*
X392520Y330709D02*
D03*
X383677Y344488D02*
D03*
X380315D02*
D03*
X464173Y326772D02*
D03*
X464173Y318898D02*
D03*
X362205Y452362D02*
D03*
X355906Y306693D02*
D03*
X389764Y360630D02*
D03*
X345276Y330709D02*
D03*
X336492Y330818D02*
D03*
X367800Y343565D02*
D03*
X375197Y330693D02*
D03*
X345669Y344488D02*
D03*
X348819Y343307D02*
D03*
X348819Y330709D02*
D03*
X389027Y330709D02*
D03*
X380348D02*
D03*
X371670D02*
D03*
X362992D02*
D03*
X357480Y330709D02*
D03*
X340158D02*
D03*
X331496D02*
D03*
X361417Y343307D02*
D03*
X355118Y343312D02*
D03*
X364567Y344488D02*
D03*
X358268D02*
D03*
X351969D02*
D03*
X444882Y387795D02*
D03*
Y409449D02*
D03*
X347244Y306693D02*
D03*
X353543Y428740D02*
D03*
X336733Y429252D02*
D03*
X396850Y428740D02*
D03*
X388189D02*
D03*
X379528D02*
D03*
X370866D02*
D03*
X362205D02*
D03*
X344882D02*
D03*
X318898D02*
D03*
X310236D02*
D03*
X342520Y385827D02*
D03*
X342570Y379972D02*
D03*
X342520Y375984D02*
D03*
Y389764D02*
D03*
X318898Y452362D02*
D03*
X383038Y356078D02*
D03*
X374016Y358972D02*
D03*
X370079Y356299D02*
D03*
X353937Y330709D02*
D03*
X327953D02*
D03*
X364567Y306693D02*
D03*
X373228D02*
D03*
X381890D02*
D03*
X383892Y330709D02*
D03*
X390551Y306693D02*
D03*
X366535Y330709D02*
D03*
X338583Y306693D02*
D03*
X288189Y311475D02*
D03*
X287288Y450591D02*
D03*
X283351D02*
D03*
X279414D02*
D03*
X275477D02*
D03*
X271540D02*
D03*
X287402Y454724D02*
D03*
X283465D02*
D03*
X279528D02*
D03*
X275590D02*
D03*
X271654D02*
D03*
X616142D02*
D03*
X600394D02*
D03*
X616142Y490158D02*
D03*
X600394D02*
D03*
X606299Y433071D02*
D03*
Y417323D02*
D03*
X533465Y419291D02*
D03*
X525591Y427165D02*
D03*
X537402D02*
D03*
X533465Y472441D02*
D03*
X537402Y488189D02*
D03*
X527559D02*
D03*
X616535Y383071D02*
D03*
X618110Y391732D02*
D03*
X614173Y535433D02*
D03*
X629921D02*
D03*
X645669D02*
D03*
X661417D02*
D03*
Y519685D02*
D03*
X645669D02*
D03*
X629921D02*
D03*
X614173D02*
D03*
X598425D02*
D03*
X582677D02*
D03*
X566929D02*
D03*
X559055D02*
D03*
X535433D02*
D03*
X527559D02*
D03*
X511811D02*
D03*
X496063D02*
D03*
X480315D02*
D03*
X464567D02*
D03*
X448819D02*
D03*
X440945D02*
D03*
X425197D02*
D03*
X409449D02*
D03*
X393701D02*
D03*
X377953D02*
D03*
X362205D02*
D03*
X346457D02*
D03*
X330709D02*
D03*
X322835D02*
D03*
X307087D02*
D03*
X291339D02*
D03*
X275590D02*
D03*
X259842D02*
D03*
X483071Y393307D02*
D03*
Y404331D02*
D03*
X432283Y405905D02*
D03*
X396850Y452362D02*
D03*
X379528D02*
D03*
X388189D02*
D03*
X380709Y378346D02*
D03*
X380700Y381709D02*
D03*
X336221Y452362D02*
D03*
X327559D02*
D03*
X310236D02*
D03*
X344882Y452362D02*
D03*
X353543D02*
D03*
X370866Y452362D02*
D03*
X483071Y386221D02*
D03*
Y411417D02*
D03*
X403543Y367323D02*
D03*
Y386221D02*
D03*
M02*
